<svg version="1.1" xmlns="http://www.w3.org/2000/svg" viewBox="0 0 1795.0174070556143 1521.6057368134504" width="1795.0174070556143" height="1521.6057368134504">
  <!-- svg-source:excalidraw -->
  
  <defs>
    <style>
      @font-face {
        font-family: "Virgil";
        src: url("https://excalidraw.com/Virgil.woff2");
      }
      @font-face {
        font-family: "Cascadia";
        src: url("https://excalidraw.com/Cascadia.woff2");
      }
    </style>
  </defs>
  <rect x="0" y="0" width="1795.0174070556143" height="1521.6057368134504" fill="#ffffff"></rect><g stroke-linecap="round" transform="translate(10 973.951825557449) rotate(0 250 31.5)"><path d="M-0.76 -0.75 C182.62 -2.47, 366.61 -2.05, 499.74 -0.18 M0.31 0.39 C146.05 -1.71, 292.36 -2.02, 499.65 0.12 M498.81 -1.71 C500.57 20.75, 499.57 44.33, 499.84 61.68 M499.22 0.62 C499.16 19.77, 499.51 40.02, 499.42 63.82 M499.81 62.33 C368.51 64.71, 237.99 65.19, 0.1 63.78 M500.21 62.7 C314.58 64.06, 129.96 64.34, -0.03 62.89 M1.21 63.61 C-1.72 45.14, -1.68 26.95, 1.46 0.83 M0.05 62.26 C1.2 48.06, 0.26 31.49, 0.27 0.35" stroke="#000000" stroke-width="1" fill="none"></path></g><g transform="translate(15 980.451825557449) rotate(0 245 25)"><text x="245" y="18" font-family="Virgil, Segoe UI Emoji" font-size="20px" fill="#000000" text-anchor="middle" style="white-space: pre;" direction="ltr">url</text><text x="245" y="43" font-family="Virgil, Segoe UI Emoji" font-size="20px" fill="#000000" text-anchor="middle" style="white-space: pre;" direction="ltr">http[s]://host[:port][res_loc]</text></g><g stroke-linecap="round" transform="translate(46.67454074391458 1137.319264945035) rotate(0 217.1428571428571 70.7142857142857)"><path d="M0.83 -0.19 C95.52 -0.46, 188.84 -0.47, 433.69 0.71 M-0.2 0.1 C98.03 1.57, 196.47 1.49, 434.76 -0.02 M432.48 -0.46 C436.79 53.84, 435.13 104.64, 435.3 139.83 M434.73 0.26 C433.18 53.6, 433.16 106.55, 433.81 140.54 M434.46 141.87 C312.81 142.6, 191.43 143.1, -0.01 140.95 M434.16 141.35 C292.5 141.16, 149.99 140.56, 0.11 141.8 M-0.81 141.3 C0.13 100.04, 0.37 55.34, -0.53 1.61 M-0.15 142.07 C1.37 110.12, 1.16 76.49, 0.08 0.71" stroke="#000000" stroke-width="1" fill="none"></path></g><g transform="translate(51.67454074391458 1145.5335506593208) rotate(0 212 62.5)"><text x="212" y="18" font-family="Virgil, Segoe UI Emoji" font-size="20px" fill="#000000" text-anchor="middle" style="white-space: pre;" direction="ltr">analyse url</text><text x="212" y="43" font-family="Virgil, Segoe UI Emoji" font-size="20px" fill="#000000" text-anchor="middle" style="white-space: pre;" direction="ltr">protocal: http[s]://</text><text x="212" y="68" font-family="Virgil, Segoe UI Emoji" font-size="20px" fill="#000000" text-anchor="middle" style="white-space: pre;" direction="ltr">hostname: host</text><text x="212" y="93" font-family="Virgil, Segoe UI Emoji" font-size="20px" fill="#000000" text-anchor="middle" style="white-space: pre;" direction="ltr">port: port</text><text x="212" y="118" font-family="Virgil, Segoe UI Emoji" font-size="20px" fill="#000000" text-anchor="middle" style="white-space: pre;" direction="ltr">resource location: res_loc</text></g><g stroke-linecap="round"><g transform="translate(281.13369139022996 1037.951825557449) rotate(0 4.281748335360135 49.439314466408405)"><path d="M1.16 0.78 C2.21 17.06, 5.07 82.43, 6 98.73 M0.31 0.14 C1.75 16.63, 7.31 81.08, 8.25 97.18" stroke="#000000" stroke-width="1" fill="none"></path></g><g transform="translate(281.13369139022996 1037.951825557449) rotate(0 4.281748335360135 49.439314466408405)"><path d="M-2.77 68.38 C1.39 77.12, 4.61 85.05, 9.61 95.96 M-4.87 70.15 C0.13 78.04, 3.93 87.54, 7.84 96.53" stroke="#000000" stroke-width="1" fill="none"></path></g><g transform="translate(281.13369139022996 1037.951825557449) rotate(0 4.281748335360135 49.439314466408405)"><path d="M17.69 66.85 C16.2 76.21, 13.73 84.57, 9.61 95.96 M15.59 68.63 C14.12 76.83, 11.46 86.82, 7.84 96.53" stroke="#000000" stroke-width="1" fill="none"></path></g></g><g stroke-linecap="round" transform="translate(457.0337841460665 1358.6057368134504) rotate(0 217.00000000000006 76.5)"><path d="M-0.72 -0.63 C169.11 2.42, 339.73 1.2, 433.7 -0.2 M0.19 -0.44 C155.33 0.56, 310.69 -0.24, 434.07 -0.43 M434.94 1.33 C433.81 34.72, 434.59 69.79, 435.16 153.51 M433.57 0.41 C434.58 40.1, 435.84 78.94, 433.9 153.25 M433.35 152.07 C337.49 154, 238.87 154.87, -0.54 152.21 M434.49 152.5 C299.62 155.04, 164.91 155.13, 0.33 152.65 M1.25 151.76 C-0.23 96.64, -2.72 36.07, 0.33 0.45 M0.85 153.94 C-2.22 109.25, -2.12 63.85, 0.28 0.51" stroke="#000000" stroke-width="1" fill="none"></path></g><g transform="translate(462.0337841460665 1397.6057368134504) rotate(0 212.00000000000006 37.5)"><text x="212" y="18" font-family="Virgil, Segoe UI Emoji" font-size="20px" fill="#000000" text-anchor="middle" style="white-space: pre;" direction="ltr">connect to server</text><text x="212" y="43" font-family="Virgil, Segoe UI Emoji" font-size="20px" fill="#000000" text-anchor="middle" style="white-space: pre;" direction="ltr">http:// socket connect port[80]</text><text x="212" y="68" font-family="Virgil, Segoe UI Emoji" font-size="20px" fill="#000000" text-anchor="middle" style="white-space: pre;" direction="ltr">https:// socket connect ssl port[443]</text></g><g stroke-linecap="round"><g transform="translate(420.72720991610026 1279.7927144223868) rotate(0 64.97865159562286 38.71281999037524)"><path d="M0.11 0.15 C21.82 13.18, 109.46 63.94, 131.24 77.07 M-1.29 -0.82 C20.22 12.45, 108.67 65.24, 130.56 78.25" stroke="#000000" stroke-width="1" fill="none"></path></g><g transform="translate(420.72720991610026 1279.7927144223868) rotate(0 64.97865159562286 38.71281999037524)"><path d="M101.34 73.48 C111.13 74.88, 125.5 76.8, 131.21 78.46 M101.17 72.19 C112.45 74.16, 122.05 76.04, 130.64 78.97" stroke="#000000" stroke-width="1" fill="none"></path></g><g transform="translate(420.72720991610026 1279.7927144223868) rotate(0 64.97865159562286 38.71281999037524)"><path d="M111.85 55.85 C117.46 63.99, 127.82 72.64, 131.21 78.46 M111.68 54.56 C119.07 62.71, 124.94 70.83, 130.64 78.97" stroke="#000000" stroke-width="1" fill="none"></path></g></g><g stroke-linecap="round" transform="translate(995.9638191423053 1133.799537158116) rotate(0 215.5 117.50000000000003)"><path d="M-0.06 -0.29 C161.15 -1.01, 322.45 -0.95, 430.59 -0.13 M-0.11 0.13 C152.09 -2.16, 305.01 -2.42, 431.48 -0.22 M430.75 -1.29 C431.02 56.42, 429.53 117.13, 431.61 236.42 M431.35 0.62 C428.46 48.67, 428.83 96.35, 430.78 235.56 M430.1 235.78 C307.41 234.1, 183.76 232.72, 0.86 234.58 M430.67 235.18 C315.07 232.96, 198.32 233.78, -0.08 235.33 M-0.6 235.15 C0.27 157.7, 0.26 77.92, 1.37 0.74 M0.47 235.69 C-1.41 167.55, 0 101.81, -0.43 0.17" stroke="#000000" stroke-width="1" fill="none"></path></g><g transform="translate(1000.9638191423053 1138.799537158116) rotate(0 210.5 112.50000000000003)"><text x="210.5" y="18" font-family="Virgil, Segoe UI Emoji" font-size="20px" fill="#000000" text-anchor="middle" style="white-space: pre;" direction="ltr">send request</text><text x="210.5" y="43" font-family="Virgil, Segoe UI Emoji" font-size="20px" fill="#000000" text-anchor="middle" style="white-space: pre;" direction="ltr">http:// send</text><text x="210.5" y="68" font-family="Virgil, Segoe UI Emoji" font-size="20px" fill="#000000" text-anchor="middle" style="white-space: pre;" direction="ltr">https:// SSL_write</text><text x="210.5" y="93" font-family="Virgil, Segoe UI Emoji" font-size="20px" fill="#000000" text-anchor="middle" style="white-space: pre;" direction="ltr">"GET res_loc HTTP/1.1</text><text x="210.5" y="118" font-family="Virgil, Segoe UI Emoji" font-size="20px" fill="#000000" text-anchor="middle" style="white-space: pre;" direction="ltr">Host: hostname</text><text x="210.5" y="143" font-family="Virgil, Segoe UI Emoji" font-size="20px" fill="#000000" text-anchor="middle" style="white-space: pre;" direction="ltr">User-Agent: ...</text><text x="210.5" y="168" font-family="Virgil, Segoe UI Emoji" font-size="20px" fill="#000000" text-anchor="middle" style="white-space: pre;" direction="ltr">Connection: Close</text><text x="210.5" y="193" font-family="Virgil, Segoe UI Emoji" font-size="20px" fill="#000000" text-anchor="middle" style="white-space: pre;" direction="ltr">empty newline</text><text x="210.5" y="218" font-family="Virgil, Segoe UI Emoji" font-size="20px" fill="#000000" text-anchor="middle" style="white-space: pre;" direction="ltr">"</text></g><g stroke-linecap="round"><g transform="translate(892.442205031364 1358.3666407315336) rotate(0 49.889699693596526 -16.27542545070014)"><path d="M0.54 -0.05 C17.37 -5.59, 83.81 -27, 100.41 -32.5 M-0.63 -1.12 C16.06 -6.52, 82.71 -25.83, 99.33 -30.98" stroke="#000000" stroke-width="1" fill="none"></path></g><g transform="translate(892.442205031364 1358.3666407315336) rotate(0 49.889699693596526 -16.27542545070014)"><path d="M75.18 -13.5 C81.25 -18.6, 86.49 -21.17, 100.08 -31.5 M75.94 -13.44 C82.84 -18.64, 90.69 -24.73, 100.02 -31.02" stroke="#000000" stroke-width="1" fill="none"></path></g><g transform="translate(892.442205031364 1358.3666407315336) rotate(0 49.889699693596526 -16.27542545070014)"><path d="M69.3 -33.16 C76.99 -33.28, 83.74 -30.83, 100.08 -31.5 M70.06 -33.1 C79 -31.98, 88.75 -31.68, 100.02 -31.02" stroke="#000000" stroke-width="1" fill="none"></path></g></g><g stroke-linecap="round" transform="translate(1147.137991485122 911.2638702009732) rotate(0 218.57142857142867 64.28571428571433)"><path d="M0.07 0.5 C101.51 -1.03, 202.15 0.55, 436.4 -0.44 M0.42 0.21 C103.15 0.91, 205.8 1.08, 437.22 0.42 M435.83 0.27 C437.98 43.07, 436.94 84.95, 436.39 129.49 M437.99 -0.39 C438.88 47.9, 437.92 94.17, 437.66 128.9 M437.45 128.29 C316.8 127.07, 194.52 127.53, -0.58 128.22 M437.4 128.21 C307.48 130.01, 178.8 130.26, -0.41 129.02 M1.47 127.71 C3.15 86.34, 2.84 47.52, 1.01 1.38 M0.12 129.4 C-0.52 91.68, -0.03 54.69, -0.64 -0.14" stroke="#000000" stroke-width="1" fill="none"></path></g><g transform="translate(1152.137991485122 938.0495844866876) rotate(0 213.5 37.5)"><text x="213.5" y="18" font-family="Virgil, Segoe UI Emoji" font-size="20px" fill="#000000" text-anchor="middle" style="white-space: pre;" direction="ltr">receive response from server</text><text x="213.5" y="43" font-family="Virgil, Segoe UI Emoji" font-size="20px" fill="#000000" text-anchor="middle" style="white-space: pre;" direction="ltr">http:// recv</text><text x="213.5" y="68" font-family="Virgil, Segoe UI Emoji" font-size="20px" fill="#000000" text-anchor="middle" style="white-space: pre;" direction="ltr">https:// SSL_read</text></g><g stroke-linecap="round"><g transform="translate(1340.4402117684176 1131.3816287196587) rotate(0 4.427405582439064 -45.45544868681807)"><path d="M0.62 -0.43 C1.77 -15.57, 5.88 -75.47, 7.11 -90.49 M-0.52 -1.69 C0.99 -16.71, 8.07 -74.52, 9.37 -89.14" stroke="#000000" stroke-width="1" fill="none"></path></g><g transform="translate(1340.4402117684176 1131.3816287196587) rotate(0 4.427405582439064 -45.45544868681807)"><path d="M15.84 -61.46 C13.57 -69.1, 11.24 -79.39, 8.85 -88.07 M15.77 -59.39 C14.08 -67.5, 12.22 -74.55, 9.54 -88.42" stroke="#000000" stroke-width="1" fill="none"></path></g><g transform="translate(1340.4402117684176 1131.3816287196587) rotate(0 4.427405582439064 -45.45544868681807)"><path d="M-4.56 -63.66 C-0.37 -70.71, 3.76 -80.3, 8.85 -88.07 M-4.63 -61.59 C-1.26 -69, 1.93 -75.51, 9.54 -88.42" stroke="#000000" stroke-width="1" fill="none"></path></g></g><g stroke-linecap="round" transform="translate(929.6231179941067 418.80183284489186) rotate(0 146.1854035411876 119.99033123033888)"><path d="M146.2 1.36 C189.51 35.67, 235.1 71.41, 291.93 120.02 M147.88 -0.45 C196.56 40.67, 244.3 81.97, 292.22 120.28 M291.71 119.24 C239.91 164.46, 186.95 208.24, 147.07 239.31 M292.94 120.01 C240.81 161.7, 190.24 203.03, 147.47 239.64 M148.98 241.88 C103.26 205.11, 62.86 169.66, 1.31 118.55 M147.02 240.93 C112.25 209.05, 74.78 179.22, -0.18 120.98 M1.03 120.17 C54.59 76.52, 108.21 30.69, 146.46 -1.92 M0.24 120.67 C33.7 92.63, 67.66 64.47, 147.51 0.72" stroke="#000000" stroke-width="1" fill="none"></path></g><g transform="translate(934.6231179941067 526.2921640752307) rotate(0 141 12.5)"><text x="141" y="18" font-family="Virgil, Segoe UI Emoji" font-size="20px" fill="#000000" text-anchor="middle" style="white-space: pre;" direction="ltr">if .htm[l]</text></g><g stroke-linecap="round" transform="translate(959.4224586893858 19.470729367669378) rotate(0 131.0861347613543 103.8605529263038)"><path d="M0.44 -0.19 C103.44 -2.85, 205.12 -1.77, 262.67 0.26 M0.49 -0.59 C99.02 -0.69, 199.08 -1.5, 261.56 -0.56 M263.56 -0.72 C262.67 81.96, 261.74 161.17, 263.28 206.5 M262.7 0.13 C263.12 45.89, 262.83 92.7, 262.23 208.29 M261.14 206.8 C173.75 208.42, 86.89 209.91, -0.51 208.4 M261.67 207.83 C200.2 205.57, 138.86 205.88, -0.64 207.19 M0.63 207.74 C-1.49 141.64, -0.95 71.83, -1.26 0.04 M-0.06 207.67 C-2.02 125.67, -1.47 45.61, -0.71 -0.47" stroke="#000000" stroke-width="1" fill="none"></path></g><g transform="translate(964.4224586893858 98.33128229397323) rotate(0 126 25)"><text x="126" y="18" font-family="Virgil, Segoe UI Emoji" font-size="20px" fill="#000000" text-anchor="middle" style="white-space: pre;" direction="ltr">analyse html page to </text><text x="126" y="43" font-family="Virgil, Segoe UI Emoji" font-size="20px" fill="#000000" text-anchor="middle" style="white-space: pre;" direction="ltr">extract urls</text></g><g stroke-linecap="round"><g transform="translate(1373.1588819118565 910.2258071394973) rotate(0 87.88883477880654 -54.05442493179006)"><path d="M-0.12 -0.37 C22.01 -7.27, 103.17 -24.55, 132.76 -42.45 C162.35 -60.34, 169.79 -96.78, 177.43 -107.74 M-1.65 -1.61 C20.4 -8.22, 102.56 -23.46, 132.24 -40.96 C161.92 -58.45, 168.62 -95.47, 176.45 -106.56" stroke="#000000" stroke-width="1" fill="none"></path></g><g transform="translate(1373.1588819118565 910.2258071394973) rotate(0 87.88883477880654 -54.05442493179006)"><path d="M173.15 -75.32 C174.68 -86.27, 175.17 -93.26, 175.21 -108.14 M174.36 -77.24 C175.48 -87.07, 176.36 -95.9, 176.16 -107.47" stroke="#000000" stroke-width="1" fill="none"></path></g><g transform="translate(1373.1588819118565 910.2258071394973) rotate(0 87.88883477880654 -54.05442493179006)"><path d="M154.57 -84.04 C161.57 -92.37, 167.61 -96.76, 175.21 -108.14 M155.78 -85.95 C162.8 -92.82, 169.64 -98.86, 176.16 -107.47" stroke="#000000" stroke-width="1" fill="none"></path></g></g><g stroke-linecap="round"><g transform="translate(1080.8156839154713 422.5635959232615) rotate(0 7.742671637976741 -97.42397623222266)"><path d="M-0.27 0.26 C4.06 -11.93, 27.86 -40.79, 26.14 -73.35 C24.42 -105.91, -4.38 -174.84, -10.58 -195.11 M1.79 -0.64 C5.96 -12.65, 27.39 -39.77, 25.3 -72.03 C23.21 -104.28, -4.78 -173.83, -10.75 -194.19" stroke="#000000" stroke-width="1" fill="none"></path></g><g transform="translate(1080.8156839154713 422.5635959232615) rotate(0 7.742671637976741 -97.42397623222266)"><path d="M8.53 -170.5 C1.54 -176.3, -4.95 -184.47, -11.77 -195.22 M8.17 -171.83 C2.39 -178.9, -4.65 -186.01, -10.55 -195.09" stroke="#000000" stroke-width="1" fill="none"></path></g><g transform="translate(1080.8156839154713 422.5635959232615) rotate(0 7.742671637976741 -97.42397623222266)"><path d="M-10.88 -163.85 C-11.76 -171.7, -12.15 -181.96, -11.77 -195.22 M-11.24 -165.18 C-11.02 -174.23, -11.99 -183.42, -10.55 -195.09" stroke="#000000" stroke-width="1" fill="none"></path></g></g><g stroke-linecap="round" transform="translate(1321.2300689029807 349.90443185431695) rotate(0 117.00000000000011 126.04436034745606)"><path d="M118.1 -1.55 C165.3 51.48, 211.69 102.69, 233.28 126.6 M118.93 -0.17 C148.75 33.39, 181.1 67.96, 233.37 126.29 M234.91 125.77 C201.58 161.02, 166.4 198.38, 118.04 252.36 M234.01 127.28 C203.68 158.32, 173.68 191.01, 118.92 251.25 M118.75 252.87 C81.28 213.26, 42.82 175.03, -1.36 125.18 M118.7 252.72 C79.74 211.78, 41.59 171.65, 0.16 127.72 M0.73 126.45 C37.32 88.14, 74.11 45.74, 116.36 1.71 M-0.76 127.09 C39.67 83.93, 80.95 40.45, 118.75 0.19" stroke="#000000" stroke-width="1" fill="none"></path></g><g stroke-linecap="round"><g transform="translate(1220.689468279577 544.6499350895538) rotate(0 52.28247523529342 -32.425602269081466)"><path d="M0.86 0.15 C6.3 -9.7, 15.76 -48.29, 33.07 -58.91 C50.38 -69.52, 92.73 -62.9, 104.71 -63.54 M-0.15 -0.82 C5.15 -10.48, 15.06 -47.13, 32.45 -57.39 C49.84 -67.65, 92 -61.73, 104.18 -62.4" stroke="#000000" stroke-width="1" fill="none"></path></g><g transform="translate(1220.689468279577 544.6499350895538) rotate(0 52.28247523529342 -32.425602269081466)"><path d="M75.92 -52 C85.15 -55.65, 94.21 -58.4, 104.96 -61.36 M76.08 -52.72 C80.94 -55.95, 87.42 -57.25, 103.71 -61.52" stroke="#000000" stroke-width="1" fill="none"></path></g><g transform="translate(1220.689468279577 544.6499350895538) rotate(0 52.28247523529342 -32.425602269081466)"><path d="M76.58 -72.51 C85.62 -69.28, 94.46 -65.16, 104.96 -61.36 M76.74 -73.23 C81.3 -72.29, 87.64 -69.43, 103.71 -61.52" stroke="#000000" stroke-width="1" fill="none"></path></g></g><g transform="translate(1326.2300689029807 463.448792201773) rotate(0 112.00000000000011 12.5)"><text x="112" y="18" font-family="Virgil, Segoe UI Emoji" font-size="20px" fill="#000000" text-anchor="middle" style="white-space: pre;" direction="ltr">if not .css or .js</text></g><g stroke-linecap="round" transform="translate(1453.6102465223264 10) rotate(0 144.6989256788795 97.81042362962597)"><path d="M-0.31 -1.44 C75.18 1.13, 151.27 2.08, 288.01 -1.46 M0.05 0.01 C73.65 -0.77, 145.62 -1.02, 288.97 -0.75 M290.45 1.78 C290.91 46.08, 291.09 97.12, 289.54 197.26 M288.64 -0.3 C289.81 74.38, 289.75 147.41, 289.61 195.11 M287.96 197.01 C210.79 193.45, 130.52 195.09, 0.67 194.17 M289.34 195.31 C213.51 193.88, 137.27 194.67, 0.47 195.28 M0.09 193.8 C0 133.53, 1.36 70.67, -0.99 0.93 M-0.61 195.28 C-0.62 127.24, -0.52 57.51, 0.59 0.84" stroke="#000000" stroke-width="1" fill="none"></path></g><g stroke-linecap="round"><g transform="translate(1528.0334280300951 445.1798992905234) rotate(0 30.44889241212468 -114.95831182566243)"><path d="M-1.2 -0.59 C8.15 -13.33, 45.31 -37.5, 55.72 -75.71 C66.12 -113.93, 60.48 -203.92, 61.24 -229.87 M0.38 1.71 C9.65 -11.44, 45.03 -38.63, 55.06 -77.51 C65.1 -116.4, 59.74 -206.13, 60.59 -231.63" stroke="#000000" stroke-width="1" fill="none"></path></g><g transform="translate(1528.0334280300951 445.1798992905234) rotate(0 30.44889241212468 -114.95831182566243)"><path d="M70.11 -202.6 C69.13 -210.82, 67.13 -219.99, 59.92 -232.12 M71.69 -202.69 C67.17 -213.8, 64.53 -222.78, 59.97 -231.23" stroke="#000000" stroke-width="1" fill="none"></path></g><g transform="translate(1528.0334280300951 445.1798992905234) rotate(0 30.44889241212468 -114.95831182566243)"><path d="M49.59 -202.42 C54.14 -210.48, 57.66 -219.7, 59.92 -232.12 M51.17 -202.51 C53.48 -213.54, 57.67 -222.58, 59.97 -231.23" stroke="#000000" stroke-width="1" fill="none"></path></g></g><g transform="translate(1458.6102465223264 95.31042362962592) rotate(0 139.5 12.5)"><text x="139.5" y="18" font-family="Virgil, Segoe UI Emoji" font-size="20px" fill="#000000" text-anchor="middle" style="white-space: pre;" direction="ltr">write to file</text></g><g stroke-linecap="round" transform="translate(522.0550397569434 260.3157889757639) rotate(0 174 83.5)"><path d="M-0.44 -0.07 C71.88 0.07, 142.84 0.3, 349.04 -1.08 M0.59 0.59 C71.39 1.88, 142.84 1, 347.91 -0.56 M348.86 -1.74 C349.02 65.28, 348.01 134.91, 348.84 165.9 M347.91 -0.25 C347.82 63.84, 348.35 126.77, 347.92 166.69 M349.11 167.68 C226.7 165.12, 107.89 167.33, -0.13 165.82 M347.89 167.06 C256.56 165.55, 165.11 165.67, -0.5 167.04 M-0.9 167.42 C1.93 123.44, 1.9 80.75, -0.35 0.07 M-0.59 167.97 C1.46 103.96, 1.29 39.61, -0.89 -0.79" stroke="#000000" stroke-width="1" fill="none"></path></g><g transform="translate(527.0550397569434 306.3157889757639) rotate(0 169 37.5)"><text x="169" y="18" font-family="Virgil, Segoe UI Emoji" font-size="20px" fill="#000000" text-anchor="middle" style="white-space: pre;" direction="ltr">classification</text><text x="169" y="43" font-family="Virgil, Segoe UI Emoji" font-size="20px" fill="#000000" text-anchor="middle" style="white-space: pre;" direction="ltr">.html</text><text x="169" y="68" font-family="Virgil, Segoe UI Emoji" font-size="20px" fill="#000000" text-anchor="middle" style="white-space: pre;" direction="ltr">res_files</text></g><g stroke-linecap="round"><g transform="translate(958.4224586893858 99.02902014852987) rotate(0 -145.827435446109 67.77032688896625)"><path d="M0.61 0.95 C-42.08 -0.56, -208.32 -33.46, -256.99 -7.87 C-305.67 17.72, -285.91 127.43, -291.46 154.49 M-0.53 0.4 C-43.26 -0.94, -209.02 -34.92, -257.64 -9.58 C-306.27 15.75, -286.35 125.46, -292.26 152.42" stroke="#000000" stroke-width="1" fill="none"></path></g><g transform="translate(958.4224586893858 99.02902014852987) rotate(0 -145.827435446109 67.77032688896625)"><path d="M-300.34 124.96 C-298.12 130.38, -296.32 138.85, -291.43 152.57 M-301.4 124.21 C-299.72 134.52, -295.02 143.66, -293.19 152.14" stroke="#000000" stroke-width="1" fill="none"></path></g><g transform="translate(958.4224586893858 99.02902014852987) rotate(0 -145.827435446109 67.77032688896625)"><path d="M-279.83 125.4 C-282.32 130.82, -285.24 139.19, -291.43 152.57 M-280.89 124.64 C-286.08 134.73, -288.24 143.72, -293.19 152.14" stroke="#000000" stroke-width="1" fill="none"></path></g></g><g stroke-linecap="round" transform="translate(1450.1399974465796 617.0680004421844) rotate(0 121 99.84296781248833)"><path d="M120.56 0.49 C157.4 30.91, 196.33 59.41, 241.44 100.57 M122.75 -0.96 C165.54 37.38, 209.39 71.95, 241.37 99.51 M240.68 100.15 C204.89 128.05, 171.61 157.64, 122.25 201.45 M242.24 99.84 C204.59 130.74, 167.8 162.78, 121.44 199.27 M123.88 198.6 C95.43 176.92, 66.39 157.06, -1.16 98.54 M121.67 199.22 C91.26 173.5, 60.48 147.91, 0.54 100.41 M-1.6 98.94 C37.64 69.18, 74.82 37.5, 122.76 -0.67 M0.93 101 C47.88 61.53, 94.31 23.19, 122.44 0.45" stroke="#000000" stroke-width="1" fill="none"></path></g><g transform="translate(1455.1399974465796 704.4109682546728) rotate(0 116 12.5)"><text x="116" y="18" font-family="Virgil, Segoe UI Emoji" font-size="20px" fill="#000000" text-anchor="middle" style="white-space: pre;" direction="ltr">if write_to_file</text></g><g stroke-linecap="round"><g transform="translate(1454.8479121511693 711.7297558042432) rotate(0 164.62133750853013 -252.67591573996023)"><path d="M-0.93 -0.12 C52.05 -48.83, 273.7 -208.58, 317.9 -292.45 C362.1 -376.33, 273.35 -468.26, 264.27 -503.38 M0.79 -1.23 C53.7 -50.24, 273.77 -210.06, 317.53 -294.06 C361.28 -378.06, 272.4 -470.04, 263.33 -505.23" stroke="#000000" stroke-width="1" fill="none"></path></g><g transform="translate(1454.8479121511693 711.7297558042432) rotate(0 164.62133750853013 -252.67591573996023)"><path d="M285.39 -483.3 C280.53 -491.95, 273.74 -499.42, 265.2 -504.41 M285.64 -485.86 C279.01 -491.12, 269.63 -497.81, 262.46 -505.05" stroke="#000000" stroke-width="1" fill="none"></path></g><g transform="translate(1454.8479121511693 711.7297558042432) rotate(0 164.62133750853013 -252.67591573996023)"><path d="M267.25 -473.69 C267.9 -485.11, 266.59 -495.48, 265.2 -504.41 M267.51 -476.26 C267.02 -484.84, 263.8 -494.79, 262.46 -505.05" stroke="#000000" stroke-width="1" fill="none"></path></g></g><g stroke-linecap="round"><g transform="translate(1462.6545738095888 729.229495481847) rotate(0 -181.79450497177265 -37.837002152407486)"><path d="M-0.13 -0.45 C-32.36 0.53, -133.65 20.04, -194.05 5.53 C-254.44 -8.97, -334.35 -72.21, -362.5 -87.49 M-1.65 -1.73 C-33.92 -0.52, -134.3 21.18, -194.6 7.07 C-254.91 -7.05, -335.38 -70.52, -363.46 -86.41" stroke="#000000" stroke-width="1" fill="none"></path></g><g transform="translate(1462.6545738095888 729.229495481847) rotate(0 -181.79450497177265 -37.837002152407486)"><path d="M-335.01 -78.3 C-341.39 -81.88, -349.27 -84.27, -362.03 -86.26 M-334.35 -79.46 C-343.48 -82.63, -353.79 -84.39, -363.6 -85.82" stroke="#000000" stroke-width="1" fill="none"></path></g><g transform="translate(1462.6545738095888 729.229495481847) rotate(0 -181.79450497177265 -37.837002152407486)"><path d="M-346.25 -61.14 C-349.84 -68.9, -354.97 -75.48, -362.03 -86.26 M-345.59 -62.29 C-351.03 -71.1, -357.67 -78.46, -363.6 -85.82" stroke="#000000" stroke-width="1" fill="none"></path></g></g><g stroke-linecap="round" transform="translate(587.7737640757516 580.6729789609726) rotate(0 148.5 111.26215520561652)"><path d="M150.27 1.64 C184.62 27.35, 217.32 54.9, 295.98 111.97 M148.16 -0.13 C190.86 31.94, 231.56 63.49, 296.39 112.48 M295.69 111.68 C255.64 142.25, 215.35 173.15, 147.41 222.42 M297.97 111.46 C252.9 144.47, 209.48 176.83, 148.04 223.01 M147.44 223.12 C117.55 199.29, 87.88 175.49, 1.9 111.99 M149.03 222.94 C109.96 194.74, 70.57 165.17, -0.05 111.93 M0.49 111.33 C53.14 67.48, 109.04 25.09, 148.57 -1.06 M-0.13 111.9 C33.33 85.45, 67.91 60.03, 149.3 0.12" stroke="#000000" stroke-width="1" fill="none"></path></g><g transform="translate(592.7737640757516 679.4351341665891) rotate(0 143.5 12.5)"><text x="143.5" y="18" font-family="Virgil, Segoe UI Emoji" font-size="20px" fill="#000000" text-anchor="middle" style="white-space: pre;" direction="ltr">if recursive</text></g><g stroke-linecap="round"><g transform="translate(714.9743847800712 428.3157889757639) rotate(0 9.226083158251186 72.87718403708652)"><path d="M-0.22 -1.09 C2.76 23.31, 14.93 120.79, 17.9 145.26 M-1.79 0.95 C1.57 25.66, 16.61 123.06, 20.24 146.85" stroke="#000000" stroke-width="1" fill="none"></path></g><g transform="translate(714.9743847800712 428.3157889757639) rotate(0 9.226083158251186 72.87718403708652)"><path d="M4 119.35 C10.14 126.95, 15.3 137.74, 19.5 145.08 M6.75 121.15 C11.15 129.75, 15.75 138.37, 20.03 147.05" stroke="#000000" stroke-width="1" fill="none"></path></g><g transform="translate(714.9743847800712 428.3157889757639) rotate(0 9.226083158251186 72.87718403708652)"><path d="M24.29 116.24 C24.19 124.76, 23.13 136.5, 19.5 145.08 M27.03 118.04 C24.48 127.81, 22.1 137.5, 20.03 147.05" stroke="#000000" stroke-width="1" fill="none"></path></g></g><g stroke-linecap="round"><g transform="translate(728.0052304239987 799.8032017956289) rotate(0 -106.37201131238419 102.49595905447086)"><path d="M-0.48 0.75 C-4.89 21.24, -8.81 92.21, -27.51 122.46 C-46.21 152.71, -81.55 168.63, -112.67 182.26 C-143.79 195.89, -197.11 200.28, -214.22 204.22 M1.48 0.1 C-2.96 20.84, -9 93.5, -28.2 124 C-47.4 154.51, -82.83 169.63, -113.71 183.11 C-144.6 196.6, -196.31 200.97, -213.5 204.89" stroke="#000000" stroke-width="1" fill="none"></path></g><g transform="translate(728.0052304239987 799.8032017956289) rotate(0 -106.37201131238419 102.49595905447086)"><path d="M-186.14 190.97 C-193.03 192.32, -200.14 197.86, -214.85 204.55 M-188.12 190.57 C-197.27 195.97, -206.57 200.63, -213.59 205.53" stroke="#000000" stroke-width="1" fill="none"></path></g><g transform="translate(728.0052304239987 799.8032017956289) rotate(0 -106.37201131238419 102.49595905447086)"><path d="M-182.76 211.21 C-190.29 208.2, -198.13 209.39, -214.85 204.55 M-184.74 210.81 C-195.18 208.76, -205.73 205.96, -213.59 205.53" stroke="#000000" stroke-width="1" fill="none"></path></g></g><g stroke-linecap="round" transform="translate(96.47624015871531 677.7912678584557) rotate(0 118.11352136574897 102.6640734233936)"><path d="M67.62 8.58 C78.97 2.19, 96 1.49, 110.27 1.01 C124.55 0.52, 139.69 2.13, 153.28 5.68 C166.86 9.24, 180.61 14.82, 191.79 22.34 C202.97 29.85, 213.04 40.06, 220.37 50.75 C227.7 61.44, 233.4 74.31, 235.75 86.48 C238.1 98.66, 237.56 111.59, 234.47 123.79 C231.38 135.99, 225.31 149.14, 217.22 159.69 C209.13 170.23, 197.54 179.88, 185.92 187.04 C174.3 194.19, 161.08 199.79, 147.51 202.6 C133.94 205.42, 118.69 205.52, 104.49 203.94 C90.28 202.35, 74.76 198.9, 62.28 193.08 C49.79 187.26, 38.67 178.39, 29.55 169.02 C20.43 159.65, 12.38 148.39, 7.55 136.87 C2.72 125.34, 0.22 112.31, 0.58 99.87 C0.94 87.42, 4.18 73.72, 9.68 62.19 C15.19 50.65, 21.66 40.14, 33.63 30.64 C45.59 21.14, 71.4 9.62, 81.47 5.19 C91.54 0.75, 93.43 2.53, 94.04 4.04 M173.31 11.36 C186.19 15.41, 197.4 25.45, 206.98 35.05 C216.57 44.65, 225.98 56.92, 230.83 68.96 C235.68 81, 236.72 94.89, 236.09 107.28 C235.47 119.67, 232.45 132.31, 227.09 143.3 C221.73 154.29, 213.87 164.52, 203.93 173.21 C194 181.9, 180.56 190.08, 167.5 195.44 C154.43 200.8, 139.76 204.54, 125.56 205.35 C111.35 206.16, 95.86 204.03, 82.28 200.28 C68.69 196.54, 55.29 190.65, 44.05 182.87 C32.8 175.08, 21.82 164.13, 14.8 153.57 C7.78 143.02, 3.92 131.69, 1.93 119.53 C-0.06 107.37, -0.22 92.72, 2.87 80.64 C5.96 68.57, 12.6 57.31, 20.47 47.08 C28.35 36.84, 38.59 26.71, 50.11 19.23 C61.63 11.75, 75.81 5.24, 89.6 2.21 C103.4 -0.83, 118.77 -0.51, 132.89 1.01 C147.02 2.53, 167.54 9.11, 174.36 11.35 C181.17 13.58, 174.8 12.77, 173.79 14.41" stroke="#000000" stroke-width="1" fill="none"></path></g><g transform="translate(101.47624015871531 767.9553412818494) rotate(0 113 12.5)"><text x="113" y="18" font-family="Virgil, Segoe UI Emoji" font-size="20px" fill="#000000" text-anchor="middle" style="white-space: pre;" direction="ltr">start</text></g><g stroke-linecap="round"><g transform="translate(227.95092522753612 884.9064326523254) rotate(0 16.95865484120924 44.97084882698793)"><path d="M0.16 0.17 C6.01 15.12, 29.3 74.36, 35.13 89.27 M-1.22 -0.78 C4.47 14.39, 28.25 75.42, 34.18 90.72" stroke="#000000" stroke-width="1" fill="none"></path></g><g transform="translate(227.95092522753612 884.9064326523254) rotate(0 16.95865484120924 44.97084882698793)"><path d="M14.7 68.16 C20.05 74.97, 26.62 80.45, 33.65 91.44 M14.95 68.92 C22.01 76.9, 29.49 84.55, 34.34 90.88" stroke="#000000" stroke-width="1" fill="none"></path></g><g transform="translate(227.95092522753612 884.9064326523254) rotate(0 16.95865484120924 44.97084882698793)"><path d="M33.83 60.73 C33.36 69.82, 34.14 77.55, 33.65 91.44 M34.08 61.49 C33.95 72.26, 34.23 82.71, 34.34 90.88" stroke="#000000" stroke-width="1" fill="none"></path></g></g><g stroke-linecap="round" transform="translate(251.75759001251345 419.89123754898253) rotate(0 113 91.25605653582761)"><path d="M101.95 1.02 C114.56 -1.5, 130.28 0.99, 143.14 3.94 C155.99 6.88, 168.12 12.13, 179.09 18.67 C190.07 25.21, 201.55 34.11, 209.01 43.18 C216.47 52.26, 221.2 62.38, 223.86 73.12 C226.52 83.87, 227.38 96.77, 224.99 107.66 C222.61 118.55, 216.62 129.12, 209.54 138.47 C202.46 147.83, 193.17 156.97, 182.51 163.77 C171.85 170.57, 158.55 176.22, 145.6 179.26 C132.64 182.3, 118.26 183.03, 104.79 182.01 C91.32 181, 77.19 177.94, 64.78 173.16 C52.37 168.38, 39.69 161.37, 30.32 153.34 C20.96 145.3, 13.53 134.98, 8.58 124.96 C3.62 114.95, 0.69 104.07, 0.6 93.27 C0.51 82.47, 3.3 70.53, 8.04 60.17 C12.78 49.81, 20.13 39.33, 29.06 31.11 C37.98 22.88, 48.39 16.03, 61.58 10.82 C74.76 5.61, 99.58 1.45, 108.17 -0.16 C116.77 -1.77, 113.09 -0.49, 113.14 1.16 M145.06 4.07 C157.93 5.68, 169.97 13.44, 180.78 20.04 C191.59 26.64, 202.77 34.53, 209.92 43.68 C217.07 52.83, 221.19 64, 223.67 74.95 C226.15 85.89, 227.49 98.72, 224.8 109.34 C222.12 119.96, 214.9 129.34, 207.55 138.65 C200.19 147.95, 191.29 158.53, 180.69 165.16 C170.1 171.79, 157.15 175.74, 143.95 178.43 C130.75 181.13, 115.17 182.32, 101.51 181.32 C87.86 180.32, 74.29 177.02, 62.01 172.43 C49.74 167.84, 37.01 161.73, 27.87 153.8 C18.73 145.87, 11.78 135.54, 7.16 124.87 C2.54 114.2, -0.07 101.1, 0.14 89.77 C0.36 78.44, 3.3 66.69, 8.46 56.9 C13.62 47.11, 22.15 38.88, 31.1 31.02 C40.05 23.17, 50.29 14.98, 62.18 9.76 C74.06 4.55, 88.55 0.64, 102.41 -0.27 C116.28 -1.17, 138.68 3.3, 145.37 4.33 C152.05 5.36, 143.37 4.42, 142.51 5.91" stroke="#000000" stroke-width="1" fill="none"></path></g><g transform="translate(256.75759001251345 498.64729408481014) rotate(0 108 12.5)"><text x="108" y="18" font-family="Virgil, Segoe UI Emoji" font-size="20px" fill="#000000" text-anchor="middle" style="white-space: pre;" direction="ltr">end</text></g><g stroke-linecap="round"><g transform="translate(587.5593291920338 690.8462531715064) rotate(0 -61.4234853336817 -67.26262721591708)"><path d="M-0.66 0.7 C-21.1 -22.03, -102.51 -112.37, -123 -135.23 M1.2 0.02 C-19.39 -21.97, -103.66 -110.98, -124.05 -133.6" stroke="#000000" stroke-width="1" fill="none"></path></g><g transform="translate(587.5593291920338 690.8462531715064) rotate(0 -61.4234853336817 -67.26262721591708)"><path d="M-96.19 -120.22 C-104.51 -125.1, -113.86 -127.68, -123.9 -135.33 M-98.28 -120.48 C-105.79 -124.42, -113.84 -128.81, -124.46 -133.06" stroke="#000000" stroke-width="1" fill="none"></path></g><g transform="translate(587.5593291920338 690.8462531715064) rotate(0 -61.4234853336817 -67.26262721591708)"><path d="M-111.24 -106.27 C-115.57 -114.88, -120.81 -121.27, -123.9 -135.33 M-113.33 -106.53 C-116.07 -114.65, -119.47 -123.35, -124.46 -133.06" stroke="#000000" stroke-width="1" fill="none"></path></g></g></svg>