<svg version="1.1" xmlns="http://www.w3.org/2000/svg" viewBox="0 0 486.9796447753906 465" width="1460.9389343261719" height="1395">
  <!-- svg-source:excalidraw -->
  
  <defs>
    <style class="style-fonts">
      @font-face {
        font-family: "Virgil";
        src: url("https://excalidraw.com/Virgil.woff2");
      }
      @font-face {
        font-family: "Cascadia";
        src: url("https://excalidraw.com/Cascadia.woff2");
      }
    </style>
    
  </defs>
  <rect x="0" y="0" width="486.9796447753906" height="465" fill="#ffffff"></rect><g transform="translate(92 10) rotate(0 25.439971923828125 12.5)"><text x="0" y="0" font-family="Virgil, Segoe UI Emoji" font-size="20px" fill="#1e1e1e" text-anchor="start" style="white-space: pre;" direction="ltr" dominant-baseline="text-before-edge">sin(x)</text></g><g transform="translate(301 17) rotate(0 29.139968872070312 12.5)"><text x="0" y="0" font-family="Virgil, Segoe UI Emoji" font-size="20px" fill="#1e1e1e" text-anchor="start" style="white-space: pre;" direction="ltr" dominant-baseline="text-before-edge">cos(x)</text></g><g transform="translate(10 154) rotate(0 30.139976501464844 12.5)"><text x="0" y="0" font-family="Virgil, Segoe UI Emoji" font-size="20px" fill="#1e1e1e" text-anchor="start" style="white-space: pre;" direction="ltr" dominant-baseline="text-before-edge">tan(x)</text></g><g transform="translate(379 163) rotate(0 29.359970092773438 12.5)"><text x="0" y="0" font-family="Virgil, Segoe UI Emoji" font-size="20px" fill="#1e1e1e" text-anchor="start" style="white-space: pre;" direction="ltr" dominant-baseline="text-before-edge">cot(x)</text></g><g transform="translate(111 286) rotate(0 29.069969177246094 12.5)"><text x="0" y="0" font-family="Virgil, Segoe UI Emoji" font-size="20px" fill="#1e1e1e" text-anchor="start" style="white-space: pre;" direction="ltr" dominant-baseline="text-before-edge">sec(x)</text></g><g transform="translate(321 278) rotate(0 28.619972229003906 12.5)"><text x="0" y="0" font-family="Virgil, Segoe UI Emoji" font-size="20px" fill="#1e1e1e" text-anchor="start" style="white-space: pre;" direction="ltr" dominant-baseline="text-before-edge">csc(x)</text></g><g transform="translate(207 149) rotate(0 2.7099990844726562 12.5)"><text x="0" y="0" font-family="Virgil, Segoe UI Emoji" font-size="20px" fill="#1e1e1e" text-anchor="start" style="white-space: pre;" direction="ltr" dominant-baseline="text-before-edge">1</text></g><g stroke-linecap="round"><g transform="translate(161 26) rotate(0 64.63609564043583 0.31627558953188384)"><path d="M-0.3 0.43 C21.25 0.55, 107.84 1.32, 129.58 1.12 M1.74 -0.39 C23.07 -0.61, 107.13 -0.5, 128.41 -0.42" stroke="#1e1e1e" stroke-width="1" fill="none"></path></g></g><mask></mask><g stroke-linecap="round"><g transform="translate(138 40) rotate(0 32.55512575788424 52.984537681899965)"><path d="M-0.49 -0.07 C10.06 17.58, 52.48 88.06, 63.27 106.07 M1.45 -1.15 C12.4 16.61, 55.24 89.23, 65.6 107.12" stroke="#1e1e1e" stroke-width="1" fill="none"></path></g></g><mask></mask><g stroke-linecap="round"><g transform="translate(224 149) rotate(0 34.249900459377045 -53.274925408242254)"><path d="M-0.1 -0.83 C11.45 -18.73, 58.65 -90.19, 70.12 -107.9 M-1.62 1.35 C9.81 -16.38, 58.19 -88.98, 69.75 -106.84" stroke="#1e1e1e" stroke-width="1" fill="none"></path></g></g><mask></mask><g stroke-linecap="round"><g transform="translate(86 161) rotate(0 53.29300308708099 0.7632608071117772)"><path d="M0.54 -0.52 C18.24 -0.24, 87.56 0.3, 105.02 0.52 M-0.63 1.81 C17.54 2.36, 89.75 1.78, 107.22 1.81" stroke="#1e1e1e" stroke-width="1" fill="none"></path></g></g><mask></mask><g stroke-linecap="round"><g transform="translate(88 170) rotate(0 27.452602152554334 51.74065213960597)"><path d="M1.06 -1.02 C10.26 16.31, 45.7 85.91, 54.74 103.32 M0.16 1.05 C9.21 18.59, 44.56 87.27, 53.66 104.5" stroke="#1e1e1e" stroke-width="1" fill="none"></path></g></g><mask></mask><g stroke-linecap="round"><g transform="translate(196 179) rotate(0 -18.375345964692542 45.30770553888752)"><path d="M-0.57 -0.37 C-6.94 14.97, -30.95 76.73, -37.08 92.22 M1.33 -1.61 C-5.3 13.32, -31.47 74.86, -38.08 90.22" stroke="#1e1e1e" stroke-width="1" fill="none"></path></g></g><mask></mask><g stroke-linecap="round"><g transform="translate(238 160) rotate(0 65.92783905006945 7.732059154231081)"><path d="M-0.95 0.51 C21.33 2.74, 110.61 11.86, 132.81 14.13 M0.75 -0.27 C23.02 2.12, 110.48 13.11, 132.28 15.74" stroke="#1e1e1e" stroke-width="1" fill="none"></path></g></g><mask></mask><g stroke-linecap="round"><g transform="translate(233 177) rotate(0 44.13068425578996 45.85160280929878)"><path d="M0.44 -0.7 C15.22 14.59, 74.61 75.49, 89.05 90.91 M-0.79 1.55 C13.9 17.1, 73.6 77.67, 88.65 92.4" stroke="#1e1e1e" stroke-width="1" fill="none"></path></g></g><mask></mask><g stroke-linecap="round"><g transform="translate(378 187) rotate(0 -17.74970284921119 42.423765727551654)"><path d="M0.33 -0.79 C-5.24 13.21, -28.94 70.04, -34.58 84.07 M-0.96 1.4 C-6.63 15.61, -30.32 71.82, -35.83 85.64" stroke="#1e1e1e" stroke-width="1" fill="none"></path></g></g><mask></mask><g transform="translate(18 355) rotate(0 229.4898223876953 50)"><text x="0" y="0" font-family="Virgil, Segoe UI Emoji" font-size="20px" fill="#1e1e1e" text-anchor="start" style="white-space: pre;" direction="ltr" dominant-baseline="text-before-edge">The items on the diagonal have the product 1.</text><text x="0" y="25" font-family="Virgil, Segoe UI Emoji" font-size="20px" fill="#1e1e1e" text-anchor="start" style="white-space: pre;" direction="ltr" dominant-baseline="text-before-edge">The items in each triangle obeys the sum of </text><text x="0" y="50" font-family="Virgil, Segoe UI Emoji" font-size="20px" fill="#1e1e1e" text-anchor="start" style="white-space: pre;" direction="ltr" dominant-baseline="text-before-edge">squared upper 2 items equals the square of </text><text x="0" y="75" font-family="Virgil, Segoe UI Emoji" font-size="20px" fill="#1e1e1e" text-anchor="start" style="white-space: pre;" direction="ltr" dominant-baseline="text-before-edge">the lower one.</text></g></svg>