<?xml version="1.0" encoding="utf-8" standalone="no"?>
<!DOCTYPE svg PUBLIC "-//W3C//DTD SVG 1.1//EN"
  "http://www.w3.org/Graphics/SVG/1.1/DTD/svg11.dtd">
<svg xmlns:xlink="http://www.w3.org/1999/xlink" width="1152pt" height="576pt" viewBox="0 0 1152 576" xmlns="http://www.w3.org/2000/svg" version="1.1">
 <metadata>
  <rdf:RDF xmlns:dc="http://purl.org/dc/elements/1.1/" xmlns:cc="http://creativecommons.org/ns#" xmlns:rdf="http://www.w3.org/1999/02/22-rdf-syntax-ns#">
   <cc:Work>
    <dc:type rdf:resource="http://purl.org/dc/dcmitype/StillImage"/>
    <dc:date>2023-01-05T15:16:16.893162</dc:date>
    <dc:format>image/svg+xml</dc:format>
    <dc:creator>
     <cc:Agent>
      <dc:title>Matplotlib v3.6.2, https://matplotlib.org/</dc:title>
     </cc:Agent>
    </dc:creator>
   </cc:Work>
  </rdf:RDF>
 </metadata>
 <defs>
  <style type="text/css">*{stroke-linejoin: round; stroke-linecap: butt}</style>
 </defs>
 <g id="figure_1">
  <g id="patch_1">
   <path d="M 0 576 
L 1152 576 
L 1152 0 
L 0 0 
z
" style="fill: #ffffff"/>
  </g>
  <g id="axes_1">
   <g id="patch_2">
    <path d="M 144 512.64 
L 1036.8 512.64 
L 1036.8 69.12 
L 144 69.12 
z
" style="fill: #ffffff"/>
   </g>
   <g id="matplotlib.axis_1">
    <g id="xtick_1">
     <g id="line2d_1">
      <defs>
       <path id="mb40cab087a" d="M 0 0 
L 0 3.5 
" style="stroke: #000000; stroke-width: 0.8"/>
      </defs>
      <g>
       <use xlink:href="#mb40cab087a" x="156.415873" y="512.64" style="stroke: #000000; stroke-width: 0.8"/>
      </g>
     </g>
     <g id="text_1">
      <!-- 0 -->
      <g transform="translate(153.234623 527.238438) scale(0.1 -0.1)">
       <defs>
        <path id="DejaVuSans-30" d="M 2034 4250 
Q 1547 4250 1301 3770 
Q 1056 3291 1056 2328 
Q 1056 1369 1301 889 
Q 1547 409 2034 409 
Q 2525 409 2770 889 
Q 3016 1369 3016 2328 
Q 3016 3291 2770 3770 
Q 2525 4250 2034 4250 
z
M 2034 4750 
Q 2819 4750 3233 4129 
Q 3647 3509 3647 2328 
Q 3647 1150 3233 529 
Q 2819 -91 2034 -91 
Q 1250 -91 836 529 
Q 422 1150 422 2328 
Q 422 3509 836 4129 
Q 1250 4750 2034 4750 
z
" transform="scale(0.015625)"/>
       </defs>
       <use xlink:href="#DejaVuSans-30"/>
      </g>
     </g>
    </g>
    <g id="xtick_2">
     <g id="line2d_2">
      <g>
       <use xlink:href="#mb40cab087a" x="296.384791" y="512.64" style="stroke: #000000; stroke-width: 0.8"/>
      </g>
     </g>
     <g id="text_2">
      <!-- 5 -->
      <g transform="translate(293.203541 527.238438) scale(0.1 -0.1)">
       <defs>
        <path id="DejaVuSans-35" d="M 691 4666 
L 3169 4666 
L 3169 4134 
L 1269 4134 
L 1269 2991 
Q 1406 3038 1543 3061 
Q 1681 3084 1819 3084 
Q 2600 3084 3056 2656 
Q 3513 2228 3513 1497 
Q 3513 744 3044 326 
Q 2575 -91 1722 -91 
Q 1428 -91 1123 -41 
Q 819 9 494 109 
L 494 744 
Q 775 591 1075 516 
Q 1375 441 1709 441 
Q 2250 441 2565 725 
Q 2881 1009 2881 1497 
Q 2881 1984 2565 2268 
Q 2250 2553 1709 2553 
Q 1456 2553 1204 2497 
Q 953 2441 691 2322 
L 691 4666 
z
" transform="scale(0.015625)"/>
       </defs>
       <use xlink:href="#DejaVuSans-35"/>
      </g>
     </g>
    </g>
    <g id="xtick_3">
     <g id="line2d_3">
      <g>
       <use xlink:href="#mb40cab087a" x="436.353708" y="512.64" style="stroke: #000000; stroke-width: 0.8"/>
      </g>
     </g>
     <g id="text_3">
      <!-- 10 -->
      <g transform="translate(429.991208 527.238438) scale(0.1 -0.1)">
       <defs>
        <path id="DejaVuSans-31" d="M 794 531 
L 1825 531 
L 1825 4091 
L 703 3866 
L 703 4441 
L 1819 4666 
L 2450 4666 
L 2450 531 
L 3481 531 
L 3481 0 
L 794 0 
L 794 531 
z
" transform="scale(0.015625)"/>
       </defs>
       <use xlink:href="#DejaVuSans-31"/>
       <use xlink:href="#DejaVuSans-30" x="63.623047"/>
      </g>
     </g>
    </g>
    <g id="xtick_4">
     <g id="line2d_4">
      <g>
       <use xlink:href="#mb40cab087a" x="576.322626" y="512.64" style="stroke: #000000; stroke-width: 0.8"/>
      </g>
     </g>
     <g id="text_4">
      <!-- 15 -->
      <g transform="translate(569.960126 527.238438) scale(0.1 -0.1)">
       <use xlink:href="#DejaVuSans-31"/>
       <use xlink:href="#DejaVuSans-35" x="63.623047"/>
      </g>
     </g>
    </g>
    <g id="xtick_5">
     <g id="line2d_5">
      <g>
       <use xlink:href="#mb40cab087a" x="716.291544" y="512.64" style="stroke: #000000; stroke-width: 0.8"/>
      </g>
     </g>
     <g id="text_5">
      <!-- 20 -->
      <g transform="translate(709.929044 527.238438) scale(0.1 -0.1)">
       <defs>
        <path id="DejaVuSans-32" d="M 1228 531 
L 3431 531 
L 3431 0 
L 469 0 
L 469 531 
Q 828 903 1448 1529 
Q 2069 2156 2228 2338 
Q 2531 2678 2651 2914 
Q 2772 3150 2772 3378 
Q 2772 3750 2511 3984 
Q 2250 4219 1831 4219 
Q 1534 4219 1204 4116 
Q 875 4013 500 3803 
L 500 4441 
Q 881 4594 1212 4672 
Q 1544 4750 1819 4750 
Q 2544 4750 2975 4387 
Q 3406 4025 3406 3419 
Q 3406 3131 3298 2873 
Q 3191 2616 2906 2266 
Q 2828 2175 2409 1742 
Q 1991 1309 1228 531 
z
" transform="scale(0.015625)"/>
       </defs>
       <use xlink:href="#DejaVuSans-32"/>
       <use xlink:href="#DejaVuSans-30" x="63.623047"/>
      </g>
     </g>
    </g>
    <g id="xtick_6">
     <g id="line2d_6">
      <g>
       <use xlink:href="#mb40cab087a" x="856.260462" y="512.64" style="stroke: #000000; stroke-width: 0.8"/>
      </g>
     </g>
     <g id="text_6">
      <!-- 25 -->
      <g transform="translate(849.897962 527.238438) scale(0.1 -0.1)">
       <use xlink:href="#DejaVuSans-32"/>
       <use xlink:href="#DejaVuSans-35" x="63.623047"/>
      </g>
     </g>
    </g>
    <g id="xtick_7">
     <g id="line2d_7">
      <g>
       <use xlink:href="#mb40cab087a" x="996.229379" y="512.64" style="stroke: #000000; stroke-width: 0.8"/>
      </g>
     </g>
     <g id="text_7">
      <!-- 30 -->
      <g transform="translate(989.866879 527.238438) scale(0.1 -0.1)">
       <defs>
        <path id="DejaVuSans-33" d="M 2597 2516 
Q 3050 2419 3304 2112 
Q 3559 1806 3559 1356 
Q 3559 666 3084 287 
Q 2609 -91 1734 -91 
Q 1441 -91 1130 -33 
Q 819 25 488 141 
L 488 750 
Q 750 597 1062 519 
Q 1375 441 1716 441 
Q 2309 441 2620 675 
Q 2931 909 2931 1356 
Q 2931 1769 2642 2001 
Q 2353 2234 1838 2234 
L 1294 2234 
L 1294 2753 
L 1863 2753 
Q 2328 2753 2575 2939 
Q 2822 3125 2822 3475 
Q 2822 3834 2567 4026 
Q 2313 4219 1838 4219 
Q 1578 4219 1281 4162 
Q 984 4106 628 3988 
L 628 4550 
Q 988 4650 1302 4700 
Q 1616 4750 1894 4750 
Q 2613 4750 3031 4423 
Q 3450 4097 3450 3541 
Q 3450 3153 3228 2886 
Q 3006 2619 2597 2516 
z
" transform="scale(0.015625)"/>
       </defs>
       <use xlink:href="#DejaVuSans-33"/>
       <use xlink:href="#DejaVuSans-30" x="63.623047"/>
      </g>
     </g>
    </g>
    <g id="text_8">
     <!-- Time in seconds -->
     <g transform="translate(537.870859 543.196094) scale(0.13 -0.13)">
      <defs>
       <path id="DejaVuSans-54" d="M -19 4666 
L 3928 4666 
L 3928 4134 
L 2272 4134 
L 2272 0 
L 1638 0 
L 1638 4134 
L -19 4134 
L -19 4666 
z
" transform="scale(0.015625)"/>
       <path id="DejaVuSans-69" d="M 603 3500 
L 1178 3500 
L 1178 0 
L 603 0 
L 603 3500 
z
M 603 4863 
L 1178 4863 
L 1178 4134 
L 603 4134 
L 603 4863 
z
" transform="scale(0.015625)"/>
       <path id="DejaVuSans-6d" d="M 3328 2828 
Q 3544 3216 3844 3400 
Q 4144 3584 4550 3584 
Q 5097 3584 5394 3201 
Q 5691 2819 5691 2113 
L 5691 0 
L 5113 0 
L 5113 2094 
Q 5113 2597 4934 2840 
Q 4756 3084 4391 3084 
Q 3944 3084 3684 2787 
Q 3425 2491 3425 1978 
L 3425 0 
L 2847 0 
L 2847 2094 
Q 2847 2600 2669 2842 
Q 2491 3084 2119 3084 
Q 1678 3084 1418 2786 
Q 1159 2488 1159 1978 
L 1159 0 
L 581 0 
L 581 3500 
L 1159 3500 
L 1159 2956 
Q 1356 3278 1631 3431 
Q 1906 3584 2284 3584 
Q 2666 3584 2933 3390 
Q 3200 3197 3328 2828 
z
" transform="scale(0.015625)"/>
       <path id="DejaVuSans-65" d="M 3597 1894 
L 3597 1613 
L 953 1613 
Q 991 1019 1311 708 
Q 1631 397 2203 397 
Q 2534 397 2845 478 
Q 3156 559 3463 722 
L 3463 178 
Q 3153 47 2828 -22 
Q 2503 -91 2169 -91 
Q 1331 -91 842 396 
Q 353 884 353 1716 
Q 353 2575 817 3079 
Q 1281 3584 2069 3584 
Q 2775 3584 3186 3129 
Q 3597 2675 3597 1894 
z
M 3022 2063 
Q 3016 2534 2758 2815 
Q 2500 3097 2075 3097 
Q 1594 3097 1305 2825 
Q 1016 2553 972 2059 
L 3022 2063 
z
" transform="scale(0.015625)"/>
       <path id="DejaVuSans-20" transform="scale(0.015625)"/>
       <path id="DejaVuSans-6e" d="M 3513 2113 
L 3513 0 
L 2938 0 
L 2938 2094 
Q 2938 2591 2744 2837 
Q 2550 3084 2163 3084 
Q 1697 3084 1428 2787 
Q 1159 2491 1159 1978 
L 1159 0 
L 581 0 
L 581 3500 
L 1159 3500 
L 1159 2956 
Q 1366 3272 1645 3428 
Q 1925 3584 2291 3584 
Q 2894 3584 3203 3211 
Q 3513 2838 3513 2113 
z
" transform="scale(0.015625)"/>
       <path id="DejaVuSans-73" d="M 2834 3397 
L 2834 2853 
Q 2591 2978 2328 3040 
Q 2066 3103 1784 3103 
Q 1356 3103 1142 2972 
Q 928 2841 928 2578 
Q 928 2378 1081 2264 
Q 1234 2150 1697 2047 
L 1894 2003 
Q 2506 1872 2764 1633 
Q 3022 1394 3022 966 
Q 3022 478 2636 193 
Q 2250 -91 1575 -91 
Q 1294 -91 989 -36 
Q 684 19 347 128 
L 347 722 
Q 666 556 975 473 
Q 1284 391 1588 391 
Q 1994 391 2212 530 
Q 2431 669 2431 922 
Q 2431 1156 2273 1281 
Q 2116 1406 1581 1522 
L 1381 1569 
Q 847 1681 609 1914 
Q 372 2147 372 2553 
Q 372 3047 722 3315 
Q 1072 3584 1716 3584 
Q 2034 3584 2315 3537 
Q 2597 3491 2834 3397 
z
" transform="scale(0.015625)"/>
       <path id="DejaVuSans-63" d="M 3122 3366 
L 3122 2828 
Q 2878 2963 2633 3030 
Q 2388 3097 2138 3097 
Q 1578 3097 1268 2742 
Q 959 2388 959 1747 
Q 959 1106 1268 751 
Q 1578 397 2138 397 
Q 2388 397 2633 464 
Q 2878 531 3122 666 
L 3122 134 
Q 2881 22 2623 -34 
Q 2366 -91 2075 -91 
Q 1284 -91 818 406 
Q 353 903 353 1747 
Q 353 2603 823 3093 
Q 1294 3584 2113 3584 
Q 2378 3584 2631 3529 
Q 2884 3475 3122 3366 
z
" transform="scale(0.015625)"/>
       <path id="DejaVuSans-6f" d="M 1959 3097 
Q 1497 3097 1228 2736 
Q 959 2375 959 1747 
Q 959 1119 1226 758 
Q 1494 397 1959 397 
Q 2419 397 2687 759 
Q 2956 1122 2956 1747 
Q 2956 2369 2687 2733 
Q 2419 3097 1959 3097 
z
M 1959 3584 
Q 2709 3584 3137 3096 
Q 3566 2609 3566 1747 
Q 3566 888 3137 398 
Q 2709 -91 1959 -91 
Q 1206 -91 779 398 
Q 353 888 353 1747 
Q 353 2609 779 3096 
Q 1206 3584 1959 3584 
z
" transform="scale(0.015625)"/>
       <path id="DejaVuSans-64" d="M 2906 2969 
L 2906 4863 
L 3481 4863 
L 3481 0 
L 2906 0 
L 2906 525 
Q 2725 213 2448 61 
Q 2172 -91 1784 -91 
Q 1150 -91 751 415 
Q 353 922 353 1747 
Q 353 2572 751 3078 
Q 1150 3584 1784 3584 
Q 2172 3584 2448 3432 
Q 2725 3281 2906 2969 
z
M 947 1747 
Q 947 1113 1208 752 
Q 1469 391 1925 391 
Q 2381 391 2643 752 
Q 2906 1113 2906 1747 
Q 2906 2381 2643 2742 
Q 2381 3103 1925 3103 
Q 1469 3103 1208 2742 
Q 947 2381 947 1747 
z
" transform="scale(0.015625)"/>
      </defs>
      <use xlink:href="#DejaVuSans-54"/>
      <use xlink:href="#DejaVuSans-69" x="57.958984"/>
      <use xlink:href="#DejaVuSans-6d" x="85.742188"/>
      <use xlink:href="#DejaVuSans-65" x="183.154297"/>
      <use xlink:href="#DejaVuSans-20" x="244.677734"/>
      <use xlink:href="#DejaVuSans-69" x="276.464844"/>
      <use xlink:href="#DejaVuSans-6e" x="304.248047"/>
      <use xlink:href="#DejaVuSans-20" x="367.626953"/>
      <use xlink:href="#DejaVuSans-73" x="399.414062"/>
      <use xlink:href="#DejaVuSans-65" x="451.513672"/>
      <use xlink:href="#DejaVuSans-63" x="513.037109"/>
      <use xlink:href="#DejaVuSans-6f" x="568.017578"/>
      <use xlink:href="#DejaVuSans-6e" x="629.199219"/>
      <use xlink:href="#DejaVuSans-64" x="692.578125"/>
      <use xlink:href="#DejaVuSans-73" x="756.054688"/>
     </g>
    </g>
   </g>
   <g id="matplotlib.axis_2">
    <g id="ytick_1">
     <g id="line2d_8">
      <defs>
       <path id="me00ed215e0" d="M 0 0 
L -3.5 0 
" style="stroke: #000000; stroke-width: 0.8"/>
      </defs>
      <g>
       <use xlink:href="#me00ed215e0" x="144" y="492.48" style="stroke: #000000; stroke-width: 0.8"/>
      </g>
     </g>
     <g id="text_9">
      <!-- 0 -->
      <g transform="translate(130.6375 496.279219) scale(0.1 -0.1)">
       <use xlink:href="#DejaVuSans-30"/>
      </g>
     </g>
    </g>
    <g id="ytick_2">
     <g id="line2d_9">
      <g>
       <use xlink:href="#me00ed215e0" x="144" y="438.431743" style="stroke: #000000; stroke-width: 0.8"/>
      </g>
     </g>
     <g id="text_10">
      <!-- 2000 -->
      <g transform="translate(111.55 442.230961) scale(0.1 -0.1)">
       <use xlink:href="#DejaVuSans-32"/>
       <use xlink:href="#DejaVuSans-30" x="63.623047"/>
       <use xlink:href="#DejaVuSans-30" x="127.246094"/>
       <use xlink:href="#DejaVuSans-30" x="190.869141"/>
      </g>
     </g>
    </g>
    <g id="ytick_3">
     <g id="line2d_10">
      <g>
       <use xlink:href="#me00ed215e0" x="144" y="384.383485" style="stroke: #000000; stroke-width: 0.8"/>
      </g>
     </g>
     <g id="text_11">
      <!-- 4000 -->
      <g transform="translate(111.55 388.182704) scale(0.1 -0.1)">
       <defs>
        <path id="DejaVuSans-34" d="M 2419 4116 
L 825 1625 
L 2419 1625 
L 2419 4116 
z
M 2253 4666 
L 3047 4666 
L 3047 1625 
L 3713 1625 
L 3713 1100 
L 3047 1100 
L 3047 0 
L 2419 0 
L 2419 1100 
L 313 1100 
L 313 1709 
L 2253 4666 
z
" transform="scale(0.015625)"/>
       </defs>
       <use xlink:href="#DejaVuSans-34"/>
       <use xlink:href="#DejaVuSans-30" x="63.623047"/>
       <use xlink:href="#DejaVuSans-30" x="127.246094"/>
       <use xlink:href="#DejaVuSans-30" x="190.869141"/>
      </g>
     </g>
    </g>
    <g id="ytick_4">
     <g id="line2d_11">
      <g>
       <use xlink:href="#me00ed215e0" x="144" y="330.335228" style="stroke: #000000; stroke-width: 0.8"/>
      </g>
     </g>
     <g id="text_12">
      <!-- 6000 -->
      <g transform="translate(111.55 334.134447) scale(0.1 -0.1)">
       <defs>
        <path id="DejaVuSans-36" d="M 2113 2584 
Q 1688 2584 1439 2293 
Q 1191 2003 1191 1497 
Q 1191 994 1439 701 
Q 1688 409 2113 409 
Q 2538 409 2786 701 
Q 3034 994 3034 1497 
Q 3034 2003 2786 2293 
Q 2538 2584 2113 2584 
z
M 3366 4563 
L 3366 3988 
Q 3128 4100 2886 4159 
Q 2644 4219 2406 4219 
Q 1781 4219 1451 3797 
Q 1122 3375 1075 2522 
Q 1259 2794 1537 2939 
Q 1816 3084 2150 3084 
Q 2853 3084 3261 2657 
Q 3669 2231 3669 1497 
Q 3669 778 3244 343 
Q 2819 -91 2113 -91 
Q 1303 -91 875 529 
Q 447 1150 447 2328 
Q 447 3434 972 4092 
Q 1497 4750 2381 4750 
Q 2619 4750 2861 4703 
Q 3103 4656 3366 4563 
z
" transform="scale(0.015625)"/>
       </defs>
       <use xlink:href="#DejaVuSans-36"/>
       <use xlink:href="#DejaVuSans-30" x="63.623047"/>
       <use xlink:href="#DejaVuSans-30" x="127.246094"/>
       <use xlink:href="#DejaVuSans-30" x="190.869141"/>
      </g>
     </g>
    </g>
    <g id="ytick_5">
     <g id="line2d_12">
      <g>
       <use xlink:href="#me00ed215e0" x="144" y="276.286971" style="stroke: #000000; stroke-width: 0.8"/>
      </g>
     </g>
     <g id="text_13">
      <!-- 8000 -->
      <g transform="translate(111.55 280.086189) scale(0.1 -0.1)">
       <defs>
        <path id="DejaVuSans-38" d="M 2034 2216 
Q 1584 2216 1326 1975 
Q 1069 1734 1069 1313 
Q 1069 891 1326 650 
Q 1584 409 2034 409 
Q 2484 409 2743 651 
Q 3003 894 3003 1313 
Q 3003 1734 2745 1975 
Q 2488 2216 2034 2216 
z
M 1403 2484 
Q 997 2584 770 2862 
Q 544 3141 544 3541 
Q 544 4100 942 4425 
Q 1341 4750 2034 4750 
Q 2731 4750 3128 4425 
Q 3525 4100 3525 3541 
Q 3525 3141 3298 2862 
Q 3072 2584 2669 2484 
Q 3125 2378 3379 2068 
Q 3634 1759 3634 1313 
Q 3634 634 3220 271 
Q 2806 -91 2034 -91 
Q 1263 -91 848 271 
Q 434 634 434 1313 
Q 434 1759 690 2068 
Q 947 2378 1403 2484 
z
M 1172 3481 
Q 1172 3119 1398 2916 
Q 1625 2713 2034 2713 
Q 2441 2713 2670 2916 
Q 2900 3119 2900 3481 
Q 2900 3844 2670 4047 
Q 2441 4250 2034 4250 
Q 1625 4250 1398 4047 
Q 1172 3844 1172 3481 
z
" transform="scale(0.015625)"/>
       </defs>
       <use xlink:href="#DejaVuSans-38"/>
       <use xlink:href="#DejaVuSans-30" x="63.623047"/>
       <use xlink:href="#DejaVuSans-30" x="127.246094"/>
       <use xlink:href="#DejaVuSans-30" x="190.869141"/>
      </g>
     </g>
    </g>
    <g id="ytick_6">
     <g id="line2d_13">
      <g>
       <use xlink:href="#me00ed215e0" x="144" y="222.238713" style="stroke: #000000; stroke-width: 0.8"/>
      </g>
     </g>
     <g id="text_14">
      <!-- 10000 -->
      <g transform="translate(105.1875 226.037932) scale(0.1 -0.1)">
       <use xlink:href="#DejaVuSans-31"/>
       <use xlink:href="#DejaVuSans-30" x="63.623047"/>
       <use xlink:href="#DejaVuSans-30" x="127.246094"/>
       <use xlink:href="#DejaVuSans-30" x="190.869141"/>
       <use xlink:href="#DejaVuSans-30" x="254.492188"/>
      </g>
     </g>
    </g>
    <g id="ytick_7">
     <g id="line2d_14">
      <g>
       <use xlink:href="#me00ed215e0" x="144" y="168.190456" style="stroke: #000000; stroke-width: 0.8"/>
      </g>
     </g>
     <g id="text_15">
      <!-- 12000 -->
      <g transform="translate(105.1875 171.989675) scale(0.1 -0.1)">
       <use xlink:href="#DejaVuSans-31"/>
       <use xlink:href="#DejaVuSans-32" x="63.623047"/>
       <use xlink:href="#DejaVuSans-30" x="127.246094"/>
       <use xlink:href="#DejaVuSans-30" x="190.869141"/>
       <use xlink:href="#DejaVuSans-30" x="254.492188"/>
      </g>
     </g>
    </g>
    <g id="ytick_8">
     <g id="line2d_15">
      <g>
       <use xlink:href="#me00ed215e0" x="144" y="114.142198" style="stroke: #000000; stroke-width: 0.8"/>
      </g>
     </g>
     <g id="text_16">
      <!-- 14000 -->
      <g transform="translate(105.1875 117.941417) scale(0.1 -0.1)">
       <use xlink:href="#DejaVuSans-31"/>
       <use xlink:href="#DejaVuSans-34" x="63.623047"/>
       <use xlink:href="#DejaVuSans-30" x="127.246094"/>
       <use xlink:href="#DejaVuSans-30" x="190.869141"/>
       <use xlink:href="#DejaVuSans-30" x="254.492188"/>
      </g>
     </g>
    </g>
    <g id="text_17">
     <!-- Congestion Window Sizes -->
     <g transform="translate(98.483906 373.964219) rotate(-90) scale(0.13 -0.13)">
      <defs>
       <path id="DejaVuSans-43" d="M 4122 4306 
L 4122 3641 
Q 3803 3938 3442 4084 
Q 3081 4231 2675 4231 
Q 1875 4231 1450 3742 
Q 1025 3253 1025 2328 
Q 1025 1406 1450 917 
Q 1875 428 2675 428 
Q 3081 428 3442 575 
Q 3803 722 4122 1019 
L 4122 359 
Q 3791 134 3420 21 
Q 3050 -91 2638 -91 
Q 1578 -91 968 557 
Q 359 1206 359 2328 
Q 359 3453 968 4101 
Q 1578 4750 2638 4750 
Q 3056 4750 3426 4639 
Q 3797 4528 4122 4306 
z
" transform="scale(0.015625)"/>
       <path id="DejaVuSans-67" d="M 2906 1791 
Q 2906 2416 2648 2759 
Q 2391 3103 1925 3103 
Q 1463 3103 1205 2759 
Q 947 2416 947 1791 
Q 947 1169 1205 825 
Q 1463 481 1925 481 
Q 2391 481 2648 825 
Q 2906 1169 2906 1791 
z
M 3481 434 
Q 3481 -459 3084 -895 
Q 2688 -1331 1869 -1331 
Q 1566 -1331 1297 -1286 
Q 1028 -1241 775 -1147 
L 775 -588 
Q 1028 -725 1275 -790 
Q 1522 -856 1778 -856 
Q 2344 -856 2625 -561 
Q 2906 -266 2906 331 
L 2906 616 
Q 2728 306 2450 153 
Q 2172 0 1784 0 
Q 1141 0 747 490 
Q 353 981 353 1791 
Q 353 2603 747 3093 
Q 1141 3584 1784 3584 
Q 2172 3584 2450 3431 
Q 2728 3278 2906 2969 
L 2906 3500 
L 3481 3500 
L 3481 434 
z
" transform="scale(0.015625)"/>
       <path id="DejaVuSans-74" d="M 1172 4494 
L 1172 3500 
L 2356 3500 
L 2356 3053 
L 1172 3053 
L 1172 1153 
Q 1172 725 1289 603 
Q 1406 481 1766 481 
L 2356 481 
L 2356 0 
L 1766 0 
Q 1100 0 847 248 
Q 594 497 594 1153 
L 594 3053 
L 172 3053 
L 172 3500 
L 594 3500 
L 594 4494 
L 1172 4494 
z
" transform="scale(0.015625)"/>
       <path id="DejaVuSans-57" d="M 213 4666 
L 850 4666 
L 1831 722 
L 2809 4666 
L 3519 4666 
L 4500 722 
L 5478 4666 
L 6119 4666 
L 4947 0 
L 4153 0 
L 3169 4050 
L 2175 0 
L 1381 0 
L 213 4666 
z
" transform="scale(0.015625)"/>
       <path id="DejaVuSans-77" d="M 269 3500 
L 844 3500 
L 1563 769 
L 2278 3500 
L 2956 3500 
L 3675 769 
L 4391 3500 
L 4966 3500 
L 4050 0 
L 3372 0 
L 2619 2869 
L 1863 0 
L 1184 0 
L 269 3500 
z
" transform="scale(0.015625)"/>
       <path id="DejaVuSans-53" d="M 3425 4513 
L 3425 3897 
Q 3066 4069 2747 4153 
Q 2428 4238 2131 4238 
Q 1616 4238 1336 4038 
Q 1056 3838 1056 3469 
Q 1056 3159 1242 3001 
Q 1428 2844 1947 2747 
L 2328 2669 
Q 3034 2534 3370 2195 
Q 3706 1856 3706 1288 
Q 3706 609 3251 259 
Q 2797 -91 1919 -91 
Q 1588 -91 1214 -16 
Q 841 59 441 206 
L 441 856 
Q 825 641 1194 531 
Q 1563 422 1919 422 
Q 2459 422 2753 634 
Q 3047 847 3047 1241 
Q 3047 1584 2836 1778 
Q 2625 1972 2144 2069 
L 1759 2144 
Q 1053 2284 737 2584 
Q 422 2884 422 3419 
Q 422 4038 858 4394 
Q 1294 4750 2059 4750 
Q 2388 4750 2728 4690 
Q 3069 4631 3425 4513 
z
" transform="scale(0.015625)"/>
       <path id="DejaVuSans-7a" d="M 353 3500 
L 3084 3500 
L 3084 2975 
L 922 459 
L 3084 459 
L 3084 0 
L 275 0 
L 275 525 
L 2438 3041 
L 353 3041 
L 353 3500 
z
" transform="scale(0.015625)"/>
      </defs>
      <use xlink:href="#DejaVuSans-43"/>
      <use xlink:href="#DejaVuSans-6f" x="69.824219"/>
      <use xlink:href="#DejaVuSans-6e" x="131.005859"/>
      <use xlink:href="#DejaVuSans-67" x="194.384766"/>
      <use xlink:href="#DejaVuSans-65" x="257.861328"/>
      <use xlink:href="#DejaVuSans-73" x="319.384766"/>
      <use xlink:href="#DejaVuSans-74" x="371.484375"/>
      <use xlink:href="#DejaVuSans-69" x="410.693359"/>
      <use xlink:href="#DejaVuSans-6f" x="438.476562"/>
      <use xlink:href="#DejaVuSans-6e" x="499.658203"/>
      <use xlink:href="#DejaVuSans-20" x="563.037109"/>
      <use xlink:href="#DejaVuSans-57" x="594.824219"/>
      <use xlink:href="#DejaVuSans-69" x="691.451172"/>
      <use xlink:href="#DejaVuSans-6e" x="719.234375"/>
      <use xlink:href="#DejaVuSans-64" x="782.613281"/>
      <use xlink:href="#DejaVuSans-6f" x="846.089844"/>
      <use xlink:href="#DejaVuSans-77" x="907.271484"/>
      <use xlink:href="#DejaVuSans-20" x="989.058594"/>
      <use xlink:href="#DejaVuSans-53" x="1020.845703"/>
      <use xlink:href="#DejaVuSans-69" x="1084.322266"/>
      <use xlink:href="#DejaVuSans-7a" x="1112.105469"/>
      <use xlink:href="#DejaVuSans-65" x="1164.595703"/>
      <use xlink:href="#DejaVuSans-73" x="1226.119141"/>
     </g>
    </g>
   </g>
   <g id="line2d_16">
    <path d="M 184.581818 492.48 
L 184.863996 318.660804 
L 185.945395 304.175871 
L 186.033576 275.206005 
L 187.289097 260.721072 
L 187.377277 231.751206 
L 188.632799 217.266273 
L 188.720979 188.296408 
L 189.9765 173.811475 
L 190.064681 144.841609 
L 191.320202 130.356676 
L 191.364152 115.871743 
L 192.664183 101.38681 
L 192.766081 459.186273 
L 192.856221 460.699625 
L 192.856221 459.186273 
L 194.02972 452.889651 
L 194.427512 442.944772 
L 195.373422 438.729008 
L 195.565179 434.837534 
L 195.601291 431.2163 
L 196.717123 427.81126 
L 196.761074 424.568365 
L 196.922878 421.487614 
L 198.060825 418.541984 
L 198.244744 412.975013 
L 199.404527 410.353673 
L 199.484309 405.354209 
L 200.748228 402.949062 
L 200.82801 398.35496 
L 202.09193 396.138981 
L 202.171712 391.869169 
L 203.435631 389.788311 
L 203.515414 385.761716 
L 204.779333 383.815979 
L 204.859115 380.005576 
L 206.167265 378.140912 
L 206.203097 463.510134 
L 206.359302 469.347346 
L 206.359302 463.510134 
L 207.466736 456.267668 
L 207.887203 450.484504 
L 208.07924 477.995067 
L 208.07924 463.510134 
L 208.810438 456.267668 
L 209.230345 445.512064 
L 210.154139 441.053083 
L 210.345897 436.999464 
L 210.382009 433.24311 
L 211.497841 429.702949 
L 211.541791 426.378981 
L 211.703595 423.217158 
L 212.841543 420.190456 
L 212.885493 417.298874 
L 213.047297 414.515389 
L 214.185244 411.84 
L 214.369163 406.73244 
L 215.528946 404.300268 
L 215.608728 399.625094 
L 216.872648 397.382091 
L 216.95243 393.058231 
L 218.216349 390.950349 
L 218.296131 386.896729 
L 219.560051 384.923968 
L 219.639833 381.086542 
L 220.903752 379.221877 
L 220.983535 375.573619 
L 222.247454 373.790027 
L 222.327236 370.303914 
L 223.591156 368.601394 
L 223.670938 365.277426 
L 224.934857 363.628954 
L 225.014639 360.413083 
L 226.278559 358.845684 
L 226.358341 355.737909 
L 227.62226 354.224558 
L 227.702043 351.224879 
L 228.965962 349.765576 
L 229.045744 346.873995 
L 230.309664 345.441716 
L 230.389446 342.631206 
L 231.653365 341.252976 
L 231.733148 338.523539 
L 232.997067 337.172332 
L 233.076849 334.523968 
L 234.340768 333.199786 
L 234.420551 330.605469 
L 235.68447 329.335335 
L 235.764252 326.795067 
L 237.028172 325.551957 
L 237.107954 323.065737 
L 238.371873 321.849651 
L 238.451656 319.41748 
L 239.715575 318.228418 
L 239.795357 315.850295 
L 241.059276 314.688257 
L 241.139059 312.364182 
L 242.402978 311.202145 
L 242.48276 308.932118 
L 243.74668 307.797105 
L 243.826462 305.554102 
L 245.090381 304.446113 
L 245.170164 302.230134 
L 246.434083 301.149169 
L 246.513865 298.987239 
L 247.777785 297.906273 
L 247.857567 295.798391 
L 249.121486 294.74445 
L 249.201268 292.636568 
L 250.465188 291.609651 
L 250.54497 289.555818 
L 251.808889 288.528901 
L 251.888672 286.502091 
L 253.152591 285.502198 
L 253.232373 283.502413 
L 254.496293 282.50252 
L 254.576075 280.556783 
L 255.839994 279.583914 
L 255.919776 277.638177 
L 257.183696 276.665308 
L 257.263478 274.773619 
L 258.527397 273.827775 
L 258.60718 271.936086 
L 259.871099 270.990241 
L 259.950881 269.125576 
L 261.214801 268.206756 
L 261.294583 266.369115 
L 262.558502 265.450295 
L 262.638285 263.612654 
L 263.902204 262.720858 
L 263.981986 260.937265 
L 265.245905 260.045469 
L 265.289856 259.153673 
L 266.634117 258.261877 
L 266.670229 459.969973 
L 267.010354 483.832279 
L 267.010354 463.510134 
L 267.933309 456.267668 
L 268.353215 445.512064 
L 269.27701 441.053083 
L 269.468768 436.999464 
L 269.50488 433.24311 
L 270.620712 429.702949 
L 270.664662 426.378981 
L 270.826466 423.217158 
L 271.964414 420.190456 
L 272.008364 417.298874 
L 272.170168 414.515389 
L 273.308115 411.84 
L 273.492034 406.73244 
L 274.651817 404.300268 
L 274.731599 399.625094 
L 275.995518 397.382091 
L 276.075301 393.058231 
L 277.33922 390.950349 
L 277.419002 386.896729 
L 278.682922 384.923968 
L 278.762704 381.086542 
L 280.026623 379.221877 
L 280.106405 375.573619 
L 281.370325 373.790027 
L 281.450107 370.303914 
L 282.714026 368.601394 
L 282.793809 365.277426 
L 284.057728 363.628954 
L 284.13751 360.413083 
L 285.40143 358.845684 
L 285.481212 355.737909 
L 286.745131 354.224558 
L 286.824914 351.224879 
L 288.088833 349.765576 
L 288.168615 346.873995 
L 289.432534 345.441716 
L 289.512317 342.631206 
L 290.776236 341.252976 
L 290.856018 338.523539 
L 292.119938 337.172332 
L 292.19972 334.523968 
L 293.463639 333.199786 
L 293.543422 330.605469 
L 294.807341 329.335335 
L 294.887123 326.795067 
L 296.151043 325.551957 
L 296.230825 323.065737 
L 297.494744 321.849651 
L 297.574526 319.41748 
L 298.838446 318.228418 
L 298.918228 315.850295 
L 300.182147 314.688257 
L 300.26193 312.364182 
L 301.525849 311.202145 
L 301.605631 308.932118 
L 302.869551 307.797105 
L 302.949333 305.554102 
L 304.213252 304.446113 
L 304.293034 302.230134 
L 305.556954 301.149169 
L 305.636736 298.987239 
L 306.900655 297.906273 
L 306.980438 295.798391 
L 308.244357 294.74445 
L 308.324139 292.636568 
L 309.588059 291.609651 
L 309.667841 289.555818 
L 310.93176 288.528901 
L 311.011543 286.502091 
L 312.275462 285.502198 
L 312.355244 283.502413 
L 313.619163 282.50252 
L 313.698946 280.556783 
L 314.962865 279.583914 
L 315.042647 277.638177 
L 316.306567 276.665308 
L 316.386349 274.773619 
L 317.650268 273.827775 
L 317.730051 271.936086 
L 318.99397 270.990241 
L 319.073752 269.125576 
L 320.337672 268.206756 
L 320.417454 266.369115 
L 321.681373 265.450295 
L 321.761155 263.612654 
L 323.025075 262.720858 
L 323.104857 260.937265 
L 324.368776 260.045469 
L 324.448559 258.261877 
L 325.712478 257.37008 
L 325.79226 255.613512 
L 327.05618 254.74874 
L 327.135962 253.019196 
L 328.399881 252.154424 
L 328.479663 250.424879 
L 329.743583 249.560107 
L 329.823365 247.884611 
L 331.087284 247.046863 
L 331.167067 245.371367 
L 332.430986 244.533619 
L 332.510768 242.858123 
L 333.774688 242.020375 
L 333.85447 240.398928 
L 335.118389 239.588204 
L 335.198171 237.966756 
L 336.462091 237.156032 
L 336.541873 235.534584 
L 337.805792 234.723861 
L 337.885575 233.102413 
L 339.149494 232.318713 
L 339.229276 230.751314 
L 340.493196 229.967614 
L 340.572978 228.400214 
L 341.836897 227.616515 
L 341.91668 226.049115 
L 343.180599 225.265416 
L 343.260381 223.72504 
L 344.5243 222.968365 
L 344.604083 221.455013 
L 345.868002 220.698338 
L 345.947784 219.184987 
L 347.211704 218.428311 
L 347.291486 216.91496 
L 348.555405 216.158284 
L 348.635188 214.644933 
L 349.899107 213.915282 
L 349.978889 212.455979 
L 351.242809 211.726327 
L 351.322591 210.267024 
L 352.58651 209.537373 
L 352.666292 208.07807 
L 353.930212 207.348418 
L 354.009994 205.889115 
L 355.273913 205.159464 
L 355.353696 203.727185 
L 356.617615 203.024558 
L 356.697397 201.619303 
L 357.961317 200.916676 
L 358.041099 199.511421 
L 359.305018 198.808794 
L 359.3848 197.403539 
L 360.64872 196.700912 
L 360.728502 195.295657 
L 361.992421 194.593029 
L 362.072204 193.187775 
L 363.336123 192.512172 
L 363.415905 191.160965 
L 364.679825 190.485362 
L 364.759607 189.134155 
L 366.023526 188.458552 
L 366.103309 187.107346 
L 367.367228 186.431743 
L 367.44701 185.080536 
L 368.710929 184.404933 
L 368.790712 183.053727 
L 370.054631 182.378123 
L 370.134413 181.053941 
L 371.398333 180.405362 
L 371.478115 179.108204 
L 372.742034 178.459625 
L 372.821817 177.162466 
L 374.085736 176.513887 
L 374.165518 175.216729 
L 375.429438 174.56815 
L 375.50922 173.270992 
L 376.773139 172.622413 
L 376.852921 171.325255 
L 378.116841 170.676676 
L 378.196623 169.379517 
L 379.460542 168.730938 
L 379.540325 167.487828 
L 380.804244 166.866273 
L 380.884026 165.623164 
L 382.147946 165.001609 
L 382.227728 163.758499 
L 383.491647 163.136944 
L 383.571429 161.893834 
L 384.835349 161.272279 
L 384.915131 160.029169 
L 386.17905 159.407614 
L 386.258833 158.164504 
L 387.522752 157.542949 
L 387.602534 156.299839 
L 388.866454 155.678284 
L 388.946236 154.435174 
L 390.210155 153.840643 
L 390.289938 152.651582 
L 391.553857 152.057051 
L 391.633639 150.867989 
L 392.897558 150.273458 
L 392.977341 149.084397 
L 394.24126 148.489866 
L 394.321042 147.300804 
L 395.584962 146.706273 
L 395.664744 145.517212 
L 396.928663 144.922681 
L 397.008446 143.733619 
L 398.272365 143.139088 
L 398.352147 141.950027 
L 399.616067 141.355496 
L 399.695849 140.166434 
L 400.959768 139.571903 
L 401.03955 138.43689 
L 402.30347 137.869383 
L 402.383252 136.73437 
L 403.647171 136.166863 
L 403.726954 135.03185 
L 404.990873 134.464343 
L 405.070655 133.32933 
L 406.334575 132.761823 
L 406.414357 131.62681 
L 407.678276 131.059303 
L 407.758058 129.92429 
L 409.021978 129.356783 
L 409.10176 128.221769 
L 410.365679 127.654263 
L 410.445462 126.519249 
L 411.709381 125.951743 
L 411.789163 124.816729 
L 413.053083 124.249223 
L 413.132865 123.114209 
L 414.396784 122.546702 
L 414.476567 121.465737 
L 415.740486 120.925255 
L 415.820268 119.84429 
L 417.084187 119.303807 
L 417.16397 118.222842 
L 418.427889 117.682359 
L 418.507671 116.601394 
L 419.771591 116.060912 
L 419.851373 114.979946 
L 421.115292 114.439464 
L 421.195075 113.358499 
L 422.458994 112.818016 
L 422.538776 111.737051 
L 423.802695 111.196568 
L 423.882478 110.115603 
L 425.146397 109.575121 
L 425.226179 108.494155 
L 426.490099 107.953673 
L 426.569881 106.872708 
L 427.8338 106.332225 
L 427.913583 105.25126 
L 429.177502 104.710777 
L 429.257284 103.656836 
L 430.521204 103.143378 
L 430.600986 102.116461 
L 431.864905 101.603003 
L 431.944687 100.576086 
L 433.208607 100.062627 
L 433.288389 99.03571 
L 434.552308 98.522252 
L 434.632091 97.495335 
L 435.89601 96.981877 
L 435.975792 95.95496 
L 437.238312 95.441501 
L 437.319494 94.414584 
L 438.582014 93.901126 
L 438.663195 92.874209 
L 439.925715 92.360751 
L 440.006897 91.333834 
L 441.269417 90.820375 
L 441.350599 89.793458 
L 442.680303 89.28 
L 442.873461 469.347346 
L 442.873461 463.510134 
L 443.95682 456.267668 
L 444.376727 445.512064 
L 445.300522 441.053083 
L 445.493679 436.999464 
L 445.530071 433.24311 
L 446.644223 429.702949 
L 446.689013 426.378981 
L 446.851377 423.217158 
L 447.987925 420.190456 
L 448.032715 417.298874 
L 448.195079 414.515389 
L 449.331626 411.84 
L 449.516385 406.73244 
L 450.675328 404.300268 
L 450.75651 399.625094 
L 452.01903 397.382091 
L 452.100212 393.058231 
L 453.362731 390.950349 
L 453.443913 386.896729 
L 454.706433 384.923968 
L 454.787615 381.086542 
L 456.050134 379.221877 
L 456.131316 375.573619 
L 457.393836 373.790027 
L 457.475018 370.303914 
L 458.737538 368.601394 
L 458.81872 365.277426 
L 460.081239 363.628954 
L 460.162421 360.413083 
L 461.424941 358.845684 
L 461.506123 355.737909 
L 462.768643 354.224558 
L 462.849824 351.224879 
L 464.112344 349.765576 
L 464.193526 346.873995 
L 465.456046 345.441716 
L 465.537228 342.631206 
L 466.799747 341.252976 
L 466.880929 338.523539 
L 468.143449 337.172332 
L 468.224631 334.523968 
L 469.487151 333.199786 
L 469.568333 330.605469 
L 470.830852 329.335335 
L 470.912034 326.795067 
L 472.174554 325.551957 
L 472.255736 323.065737 
L 473.518255 321.849651 
L 473.599437 319.41748 
L 474.861957 318.228418 
L 474.943139 315.850295 
L 476.205659 314.688257 
L 476.286841 312.364182 
L 477.616545 311.202145 
L 477.809702 469.347346 
L 477.809702 463.510134 
L 478.893062 456.267668 
L 479.312969 445.512064 
L 480.236763 441.053083 
L 480.429921 436.999464 
L 480.466312 433.24311 
L 481.580465 429.702949 
L 481.625255 426.378981 
L 481.787619 423.217158 
L 482.924167 420.190456 
L 482.968957 417.298874 
L 483.131321 414.515389 
L 484.267868 411.84 
L 484.452627 406.73244 
L 485.61157 404.300268 
L 485.692752 399.625094 
L 486.955271 397.382091 
L 487.036453 393.058231 
L 488.298973 390.950349 
L 488.380155 386.896729 
L 489.642675 384.923968 
L 489.723857 381.086542 
L 490.986376 379.221877 
L 491.067558 375.573619 
L 492.330078 373.790027 
L 492.41126 370.303914 
L 493.67378 368.601394 
L 493.754962 365.277426 
L 495.017481 363.628954 
L 495.098663 360.413083 
L 496.361183 358.845684 
L 496.442365 355.737909 
L 497.704884 354.224558 
L 497.786066 351.224879 
L 499.048586 349.765576 
L 499.129768 346.873995 
L 500.392288 345.441716 
L 500.47347 342.631206 
L 501.735989 341.252976 
L 501.817171 338.523539 
L 503.079691 337.172332 
L 503.160873 334.523968 
L 504.423392 333.199786 
L 504.504574 330.605469 
L 505.767094 329.335335 
L 505.848276 326.795067 
L 507.110796 325.551957 
L 507.191978 323.065737 
L 508.454497 321.849651 
L 508.535679 319.41748 
L 509.798199 318.228418 
L 509.879381 315.850295 
L 511.1419 314.688257 
L 511.223082 312.364182 
L 512.485602 311.202145 
L 512.566784 308.932118 
L 513.829304 307.797105 
L 513.910486 305.554102 
L 515.173005 304.446113 
L 515.254187 302.230134 
L 516.516707 301.149169 
L 516.597889 298.987239 
L 517.860409 297.906273 
L 517.941591 295.798391 
L 519.20411 294.74445 
L 519.285292 292.636568 
L 520.547812 291.609651 
L 520.628994 289.555818 
L 521.891513 288.528901 
L 521.972695 286.502091 
L 523.235215 285.502198 
L 523.316397 283.502413 
L 524.578917 282.50252 
L 524.660099 280.556783 
L 525.922618 279.583914 
L 525.967408 278.611046 
L 527.269119 277.638177 
L 527.347502 463.510134 
L 553.961192 469.347346 
L 559.943463 477.995067 
L 560.371768 456.267668 
L 561.183588 436.999464 
L 561.376745 433.24311 
L 561.421535 429.702949 
L 561.589498 426.378981 
L 561.634288 423.217158 
L 561.80505 420.190456 
L 561.84984 417.298874 
L 562.017803 414.515389 
L 562.25575 406.73244 
L 562.446108 401.922145 
L 562.70365 393.058231 
L 562.874412 388.896515 
L 563.10956 381.086542 
L 563.257927 377.384236 
L 563.708627 363.628954 
L 564.349685 344.036461 
L 564.719203 333.199786 
L 565.550618 310.067131 
L 566.233667 308.932118 
L 566.314848 306.662091 
L 567.577368 305.554102 
L 567.65855 303.338123 
L 568.92107 302.230134 
L 569.002252 300.068204 
L 570.264771 298.987239 
L 570.309561 297.906273 
L 571.630868 296.852332 
L 571.689655 463.510134 
L 571.815627 466.536836 
L 571.815627 463.510134 
L 572.952175 456.267668 
L 573.372081 445.512064 
L 574.295876 441.053083 
L 574.489033 436.999464 
L 574.525425 433.24311 
L 575.639578 429.702949 
L 575.684368 426.378981 
L 575.846732 423.217158 
L 576.983279 420.190456 
L 577.028069 417.298874 
L 577.190433 414.515389 
L 578.326981 411.84 
L 578.51174 406.73244 
L 579.670683 404.300268 
L 579.751865 399.625094 
L 581.014384 397.382091 
L 581.095566 393.058231 
L 582.358086 390.950349 
L 582.439268 386.896729 
L 583.701787 384.923968 
L 583.782969 381.086542 
L 585.045489 379.221877 
L 585.126671 375.573619 
L 586.389191 373.790027 
L 586.470373 370.303914 
L 587.732892 368.601394 
L 587.814074 365.277426 
L 589.076594 363.628954 
L 589.157776 360.413083 
L 590.420295 358.845684 
L 590.501477 355.737909 
L 591.763997 354.224558 
L 591.845179 351.224879 
L 593.107699 349.765576 
L 593.188881 346.873995 
L 594.4514 345.441716 
L 594.532582 342.631206 
L 595.795102 341.252976 
L 595.876284 338.523539 
L 597.138804 337.172332 
L 597.219986 334.523968 
L 598.482505 333.199786 
L 598.563687 330.605469 
L 599.826207 329.335335 
L 599.907389 326.795067 
L 601.169908 325.551957 
L 601.25109 323.065737 
L 602.51361 321.849651 
L 602.594792 319.41748 
L 603.857312 318.228418 
L 603.938494 315.850295 
L 605.201013 314.688257 
L 605.282195 312.364182 
L 606.544715 311.202145 
L 606.625897 308.932118 
L 607.888416 307.797105 
L 607.969598 305.554102 
L 609.232118 304.446113 
L 609.3133 302.230134 
L 610.57582 301.149169 
L 610.657002 298.987239 
L 611.919521 297.906273 
L 612.000703 295.798391 
L 613.263223 294.74445 
L 613.344405 292.636568 
L 614.606924 291.609651 
L 614.688106 289.555818 
L 615.950626 288.528901 
L 616.031808 286.502091 
L 617.294328 285.502198 
L 617.37551 283.502413 
L 618.638029 282.50252 
L 618.719211 280.556783 
L 619.981731 279.583914 
L 620.062913 277.638177 
L 621.325433 276.665308 
L 621.406615 274.773619 
L 622.669134 273.827775 
L 622.750316 271.936086 
L 624.012836 270.990241 
L 624.094018 269.125576 
L 625.356537 268.206756 
L 625.437719 266.369115 
L 626.700239 265.450295 
L 626.781421 263.612654 
L 628.043941 262.720858 
L 628.125123 260.937265 
L 629.387642 260.045469 
L 629.468824 258.261877 
L 630.731344 257.37008 
L 630.812526 255.613512 
L 632.075045 254.74874 
L 632.156227 253.019196 
L 633.418747 252.154424 
L 633.499929 250.424879 
L 634.762449 249.560107 
L 634.843631 247.884611 
L 636.10615 247.046863 
L 636.187332 245.371367 
L 637.449852 244.533619 
L 637.531034 242.858123 
L 638.793553 242.020375 
L 638.874735 240.398928 
L 640.137255 239.588204 
L 640.182045 238.77748 
L 641.483756 237.966756 
L 641.562139 463.510134 
L 641.674114 469.347346 
L 641.674114 463.510134 
L 642.824658 456.267668 
L 643.244565 445.512064 
L 644.16836 441.053083 
L 644.361517 436.999464 
L 644.397909 433.24311 
L 645.512062 429.702949 
L 645.556852 426.378981 
L 645.719216 423.217158 
L 646.855763 420.190456 
L 646.900553 417.298874 
L 647.062917 414.515389 
L 648.199465 411.84 
L 648.384224 406.73244 
L 649.543166 404.300268 
L 649.624348 399.625094 
L 650.886868 397.382091 
L 650.96805 393.058231 
L 652.23057 390.950349 
L 652.311752 386.896729 
L 653.574271 384.923968 
L 653.655453 381.086542 
L 654.917973 379.221877 
L 654.999155 375.573619 
L 656.261674 373.790027 
L 656.342856 370.303914 
L 657.605376 368.601394 
L 657.686558 365.277426 
L 658.949078 363.628954 
L 659.03026 360.413083 
L 660.292779 358.845684 
L 660.373961 355.737909 
L 661.636481 354.224558 
L 661.717663 351.224879 
L 662.980182 349.765576 
L 663.061364 346.873995 
L 664.323884 345.441716 
L 664.405066 342.631206 
L 665.667586 341.252976 
L 665.748768 338.523539 
L 667.011287 337.172332 
L 667.092469 334.523968 
L 668.354989 333.199786 
L 668.436171 330.605469 
L 669.698691 329.335335 
L 669.779872 326.795067 
L 671.042392 325.551957 
L 671.123574 323.065737 
L 672.386094 321.849651 
L 672.467276 319.41748 
L 673.729795 318.228418 
L 673.810977 315.850295 
L 675.073497 314.688257 
L 675.154679 312.364182 
L 676.417199 311.202145 
L 676.498381 308.932118 
L 677.7609 307.797105 
L 677.842082 305.554102 
L 679.104602 304.446113 
L 679.185784 302.230134 
L 680.448303 301.149169 
L 680.529485 298.987239 
L 681.792005 297.906273 
L 681.873187 295.798391 
L 683.135707 294.74445 
L 683.216889 292.636568 
L 684.479408 291.609651 
L 684.56059 289.555818 
L 685.82311 288.528901 
L 685.904292 286.502091 
L 687.166811 285.502198 
L 687.247993 283.502413 
L 688.510513 282.50252 
L 688.591695 280.556783 
L 689.854215 279.583914 
L 689.935397 277.638177 
L 691.197916 276.665308 
L 691.279098 274.773619 
L 692.541618 273.827775 
L 692.6228 271.936086 
L 693.885319 270.990241 
L 693.966501 269.125576 
L 695.229021 268.206756 
L 695.310203 266.369115 
L 696.572723 265.450295 
L 696.653905 263.612654 
L 697.916424 262.720858 
L 697.997606 260.937265 
L 699.260126 260.045469 
L 699.341308 258.261877 
L 700.603828 257.37008 
L 700.68501 255.613512 
L 701.947529 254.74874 
L 702.028711 253.019196 
L 703.291231 252.154424 
L 703.372413 250.424879 
L 704.634932 249.560107 
L 704.716114 247.884611 
L 705.978634 247.046863 
L 706.059816 245.371367 
L 707.322336 244.533619 
L 707.403518 242.858123 
L 708.666037 242.020375 
L 708.747219 240.398928 
L 710.009739 239.588204 
L 710.090921 237.966756 
L 711.35344 237.156032 
L 711.434622 235.534584 
L 712.697142 234.723861 
L 712.778324 233.102413 
L 714.040844 232.318713 
L 714.122026 230.751314 
L 715.384545 229.967614 
L 715.465727 228.400214 
L 716.728247 227.616515 
L 716.809429 226.049115 
L 718.071948 225.265416 
L 718.15313 223.72504 
L 719.41565 222.968365 
L 719.496832 221.455013 
L 720.759352 220.698338 
L 720.840534 219.184987 
L 722.103053 218.428311 
L 722.184235 216.91496 
L 723.446755 216.158284 
L 723.527937 214.644933 
L 724.790457 213.915282 
L 724.871639 212.455979 
L 726.134158 211.726327 
L 726.21534 210.267024 
L 727.47786 209.537373 
L 727.559042 208.07807 
L 728.821561 207.348418 
L 728.902743 205.889115 
L 730.165263 205.159464 
L 730.246445 203.727185 
L 731.508965 203.024558 
L 731.590147 201.619303 
L 732.852666 200.916676 
L 732.897456 200.214048 
L 734.218763 199.511421 
L 734.27755 463.510134 
L 734.403522 466.536836 
L 734.403522 463.510134 
L 735.540069 456.267668 
L 735.959976 445.512064 
L 736.883771 441.053083 
L 737.076928 436.999464 
L 737.11332 433.24311 
L 738.227473 429.702949 
L 738.272263 426.378981 
L 738.434627 423.217158 
L 739.571174 420.190456 
L 739.615964 417.298874 
L 739.778328 414.515389 
L 740.914876 411.84 
L 741.099635 406.73244 
L 742.258577 404.300268 
L 742.339759 399.625094 
L 743.602279 397.382091 
L 743.683461 393.058231 
L 744.945981 390.950349 
L 745.027163 386.896729 
L 746.289682 384.923968 
L 746.370864 381.086542 
L 747.633384 379.221877 
L 747.714566 375.573619 
L 748.977086 373.790027 
L 749.058267 370.303914 
L 750.320787 368.601394 
L 750.401969 365.277426 
L 751.664489 363.628954 
L 751.745671 360.413083 
L 753.00819 358.845684 
L 753.089372 355.737909 
L 754.351892 354.224558 
L 754.396682 352.711206 
L 755.698393 351.224879 
L 755.776776 463.510134 
L 755.888751 469.347346 
L 755.888751 463.510134 
L 757.039295 456.267668 
L 757.459202 445.512064 
L 758.382997 441.053083 
L 758.576154 436.999464 
L 758.612546 433.24311 
L 759.726698 429.702949 
L 759.771488 426.378981 
L 759.933852 423.217158 
L 761.0704 420.190456 
L 761.11519 417.298874 
L 761.277554 414.515389 
L 762.458892 411.84 
L 762.481287 454.862413 
L 762.652049 469.347346 
L 762.652049 463.510134 
L 763.757803 456.267668 
L 764.17771 445.512064 
L 765.101505 441.053083 
L 765.294662 436.999464 
L 765.331054 433.24311 
L 766.445206 429.702949 
L 766.489997 426.378981 
L 766.65236 423.217158 
L 767.788908 420.190456 
L 767.833698 417.298874 
L 767.996062 414.515389 
L 769.13261 411.84 
L 769.317369 406.73244 
L 770.476311 404.300268 
L 771.800417 401.922145 
L 771.864803 449.025201 
L 771.990775 463.510134 
L 773.144119 456.267668 
L 773.569624 445.512064 
L 774.48782 441.053083 
L 774.871335 433.24311 
L 775.831522 429.702949 
L 775.873513 426.378981 
L 776.044275 423.217158 
L 777.175224 420.190456 
L 777.365581 414.515389 
L 778.518925 411.84 
L 778.709283 406.73244 
L 779.862627 404.300268 
L 779.949408 399.625094 
L 781.206329 397.382091 
L 781.293109 393.058231 
L 782.55003 390.950349 
L 782.636811 386.896729 
L 783.893732 384.923968 
L 783.980512 381.086542 
L 785.237433 379.221877 
L 785.324214 375.573619 
L 786.581135 373.790027 
L 786.667916 370.303914 
L 787.924837 368.601394 
L 788.011617 365.277426 
L 789.268538 363.628954 
L 789.355319 360.413083 
L 790.61224 358.845684 
L 790.699021 355.737909 
L 791.955941 354.224558 
L 792.042722 351.224879 
L 793.299643 349.765576 
L 793.386424 346.873995 
L 794.643345 345.441716 
L 794.730125 342.631206 
L 795.987046 341.252976 
L 796.073827 338.523539 
L 797.330748 337.172332 
L 797.417529 334.523968 
L 798.674449 333.199786 
L 798.76123 330.605469 
L 800.018151 329.335335 
L 800.104932 326.795067 
L 801.361853 325.551957 
L 801.448633 323.065737 
L 802.705554 321.849651 
L 802.792335 319.41748 
L 804.049256 318.228418 
L 804.136037 315.850295 
L 805.392958 314.688257 
L 805.479738 312.364182 
L 806.736659 311.202145 
L 806.82344 308.932118 
L 808.080361 307.797105 
L 808.167141 305.554102 
L 809.424062 304.446113 
L 809.510843 302.230134 
L 810.767764 301.149169 
L 810.854545 298.987239 
L 812.111466 297.906273 
L 812.198246 295.798391 
L 813.455167 294.74445 
L 813.541948 292.636568 
L 814.798869 291.609651 
L 814.88565 289.555818 
L 816.14257 288.528901 
L 816.229351 286.502091 
L 817.486272 285.502198 
L 817.573053 283.502413 
L 818.829974 282.50252 
L 818.916754 280.556783 
L 820.173675 279.583914 
L 820.260456 277.638177 
L 821.517377 276.665308 
L 821.604158 274.773619 
L 822.861078 273.827775 
L 822.947859 271.936086 
L 824.20478 270.990241 
L 824.291561 269.125576 
L 825.548482 268.206756 
L 825.635262 266.369115 
L 826.892183 265.450295 
L 826.978964 263.612654 
L 828.235885 262.720858 
L 828.322666 260.937265 
L 829.579586 260.045469 
L 829.666367 258.261877 
L 830.923288 257.37008 
L 831.010069 255.613512 
L 832.26699 254.74874 
L 832.35377 253.019196 
L 833.610691 252.154424 
L 833.697472 250.424879 
L 834.954393 249.560107 
L 835.041174 247.884611 
L 836.298095 247.046863 
L 836.384875 245.371367 
L 837.641796 244.533619 
L 837.728577 242.858123 
L 838.985498 242.020375 
L 839.072278 240.398928 
L 840.37119 239.588204 
L 840.429977 463.510134 
L 840.555949 466.536836 
L 840.555949 463.510134 
L 841.692497 456.267668 
L 842.112403 445.512064 
L 843.036198 441.053083 
L 843.229355 436.999464 
L 843.265747 433.24311 
L 844.3799 429.702949 
L 844.42469 426.378981 
L 845.726401 423.217158 
L 845.745996 449.025201 
L 845.916759 463.510134 
L 846.101518 456.267668 
L 847.067303 450.484504 
L 847.467614 441.053083 
L 848.411005 436.999464 
L 848.604162 433.24311 
L 848.640554 429.702949 
L 849.754706 426.378981 
L 849.799496 423.217158 
L 849.96186 420.190456 
L 851.098408 417.298874 
L 851.283167 411.84 
L 852.509295 409.245684 
L 852.523291 454.862413 
L 852.895609 463.510134 
L 853.785811 456.267668 
L 854.205718 445.512064 
L 855.129513 441.053083 
L 855.32267 436.999464 
L 855.359062 433.24311 
L 856.473214 429.702949 
L 856.518004 426.378981 
L 856.680368 423.217158 
L 857.816916 420.190456 
L 857.861706 417.298874 
L 858.02407 414.515389 
L 859.160618 411.84 
L 859.345377 406.73244 
L 860.504319 404.300268 
L 860.585501 399.625094 
L 861.848021 397.382091 
L 861.929203 393.058231 
L 863.191722 390.950349 
L 863.272904 386.896729 
L 864.535424 384.923968 
L 864.616606 381.086542 
L 865.879126 379.221877 
L 865.960308 375.573619 
L 867.222827 373.790027 
L 867.304009 370.303914 
L 868.566529 368.601394 
L 868.647711 365.277426 
L 869.91023 363.628954 
L 869.991412 360.413083 
L 871.253932 358.845684 
L 871.335114 355.737909 
L 872.597634 354.224558 
L 872.678816 351.224879 
L 873.941335 349.765576 
L 874.022517 346.873995 
L 875.285037 345.441716 
L 875.366219 342.631206 
L 876.628738 341.252976 
L 876.70992 338.523539 
L 877.97244 337.172332 
L 878.053622 334.523968 
L 879.316142 333.199786 
L 879.397324 330.605469 
L 880.659843 329.335335 
L 880.741025 326.795067 
L 882.003545 325.551957 
L 882.084727 323.065737 
L 883.347247 321.849651 
L 883.428429 319.41748 
L 884.690948 318.228418 
L 884.77213 315.850295 
L 886.03465 314.688257 
L 886.115832 312.364182 
L 887.378351 311.202145 
L 887.459533 308.932118 
L 888.722053 307.797105 
L 888.803235 305.554102 
L 890.065755 304.446113 
L 890.146937 302.230134 
L 891.409456 301.149169 
L 891.490638 298.987239 
L 892.820343 297.906273 
L 893.0135 469.347346 
L 893.0135 463.510134 
L 894.096859 456.267668 
L 894.516766 445.512064 
L 895.440561 441.053083 
L 895.633718 436.999464 
L 895.67011 433.24311 
L 896.784263 429.702949 
L 896.829053 426.378981 
L 896.991417 423.217158 
L 898.127964 420.190456 
L 898.172754 417.298874 
L 898.335118 414.515389 
L 899.471666 411.84 
L 899.656425 406.73244 
L 900.815367 404.300268 
L 900.896549 399.625094 
L 902.159069 397.382091 
L 902.240251 393.058231 
L 903.502771 390.950349 
L 903.583953 386.896729 
L 904.846472 384.923968 
L 904.927654 381.086542 
L 906.190174 379.221877 
L 906.271356 375.573619 
L 907.533876 373.790027 
L 907.615058 370.303914 
L 908.877577 368.601394 
L 908.958759 365.277426 
L 910.221279 363.628954 
L 910.302461 360.413083 
L 911.56498 358.845684 
L 911.646162 355.737909 
L 912.908682 354.224558 
L 912.989864 351.224879 
L 914.252384 349.765576 
L 914.333566 346.873995 
L 915.596085 345.441716 
L 915.677267 342.631206 
L 916.939787 341.252976 
L 917.020969 338.523539 
L 918.283488 337.172332 
L 918.36467 334.523968 
L 919.62719 333.199786 
L 919.708372 330.605469 
L 920.970892 329.335335 
L 921.052074 326.795067 
L 922.314593 325.551957 
L 922.395775 323.065737 
L 923.658295 321.849651 
L 923.739477 319.41748 
L 925.001996 318.228418 
L 925.083178 315.850295 
L 926.345698 314.688257 
L 926.42688 312.364182 
L 927.6894 311.202145 
L 927.770582 308.932118 
L 929.033101 307.797105 
L 929.114283 305.554102 
L 930.376803 304.446113 
L 930.457985 302.230134 
L 931.720505 301.149169 
L 931.801686 298.987239 
L 933.064206 297.906273 
L 933.145388 295.798391 
L 934.407908 294.74445 
L 934.48909 292.636568 
L 935.751609 291.609651 
L 935.832791 289.555818 
L 937.095311 288.528901 
L 937.176493 286.502091 
L 938.439013 285.502198 
L 938.520195 283.502413 
L 939.782714 282.50252 
L 939.863896 280.556783 
L 941.126416 279.583914 
L 941.207598 277.638177 
L 942.470117 276.665308 
L 942.551299 274.773619 
L 943.813819 273.827775 
L 943.895001 271.936086 
L 945.157521 270.990241 
L 945.238703 269.125576 
L 946.501222 268.206756 
L 946.582404 266.369115 
L 947.844924 265.450295 
L 947.926106 263.612654 
L 949.188625 262.720858 
L 949.269807 260.937265 
L 950.532327 260.045469 
L 950.613509 258.261877 
L 951.876029 257.37008 
L 951.957211 255.613512 
L 953.21973 254.74874 
L 953.300912 253.019196 
L 954.563432 252.154424 
L 954.644614 250.424879 
L 955.907134 249.560107 
L 955.988315 248.722359 
L 956.181473 477.995067 
L 956.181473 463.510134 
L 957.250835 456.267668 
L 957.670742 445.512064 
L 958.594537 441.053083 
L 958.787694 436.999464 
L 958.824086 433.24311 
L 959.938238 429.702949 
L 959.983028 426.378981 
L 960.145392 423.217158 
L 961.28194 420.190456 
L 961.32673 417.298874 
L 961.489094 414.515389 
L 962.625642 411.84 
L 962.810401 406.73244 
L 963.969343 404.300268 
L 964.050525 399.625094 
L 965.313045 397.382091 
L 965.394227 393.058231 
L 966.656746 390.950349 
L 966.737928 386.896729 
L 968.000448 384.923968 
L 968.08163 381.086542 
L 969.34415 379.221877 
L 969.425332 375.573619 
L 970.687851 373.790027 
L 970.769033 370.303914 
L 972.031553 368.601394 
L 972.112735 365.277426 
L 973.375254 363.628954 
L 973.456436 360.413083 
L 974.718956 358.845684 
L 974.800138 355.737909 
L 976.062658 354.224558 
L 976.14384 351.224879 
L 977.406359 349.765576 
L 977.487541 346.873995 
L 978.750061 345.441716 
L 978.794851 344.036461 
L 980.096562 342.631206 
L 980.174944 463.510134 
L 980.28692 469.347346 
L 980.28692 463.510134 
L 981.437464 456.267668 
L 981.857371 445.512064 
L 982.781166 441.053083 
L 982.974323 436.999464 
L 983.010715 433.24311 
L 984.124867 429.702949 
L 984.169657 426.378981 
L 984.332021 423.217158 
L 985.468569 420.190456 
L 985.513359 417.298874 
L 985.675723 414.515389 
L 986.812271 411.84 
L 986.99703 406.73244 
L 988.155972 404.300268 
L 988.237154 399.625094 
L 989.499674 397.382091 
L 989.580856 393.058231 
L 990.843375 390.950349 
L 990.924557 386.896729 
L 992.187077 384.923968 
L 992.268259 381.086542 
L 993.530779 379.221877 
L 993.611961 375.573619 
L 994.87448 373.790027 
L 994.955662 370.303914 
L 996.218182 368.601394 
L 996.218182 368.601394 
" clip-path="url(#pd37e5e2c91)" style="fill: none; stroke: #1f77b4; stroke-width: 1.5; stroke-linecap: square"/>
   </g>
   <g id="patch_3">
    <path d="M 144 512.64 
L 144 69.12 
" style="fill: none; stroke: #000000; stroke-width: 0.8; stroke-linejoin: miter; stroke-linecap: square"/>
   </g>
   <g id="patch_4">
    <path d="M 1036.8 512.64 
L 1036.8 69.12 
" style="fill: none; stroke: #000000; stroke-width: 0.8; stroke-linejoin: miter; stroke-linecap: square"/>
   </g>
   <g id="patch_5">
    <path d="M 144 512.64 
L 1036.8 512.64 
" style="fill: none; stroke: #000000; stroke-width: 0.8; stroke-linejoin: miter; stroke-linecap: square"/>
   </g>
   <g id="patch_6">
    <path d="M 144 69.12 
L 1036.8 69.12 
" style="fill: none; stroke: #000000; stroke-width: 0.8; stroke-linejoin: miter; stroke-linecap: square"/>
   </g>
   <g id="text_18">
    <!-- Graph of congestion window vs Time result/appratehalf -->
    <g transform="translate(410.161094 63.12) scale(0.13 -0.13)">
     <defs>
      <path id="DejaVuSans-47" d="M 3809 666 
L 3809 1919 
L 2778 1919 
L 2778 2438 
L 4434 2438 
L 4434 434 
Q 4069 175 3628 42 
Q 3188 -91 2688 -91 
Q 1594 -91 976 548 
Q 359 1188 359 2328 
Q 359 3472 976 4111 
Q 1594 4750 2688 4750 
Q 3144 4750 3555 4637 
Q 3966 4525 4313 4306 
L 4313 3634 
Q 3963 3931 3569 4081 
Q 3175 4231 2741 4231 
Q 1884 4231 1454 3753 
Q 1025 3275 1025 2328 
Q 1025 1384 1454 906 
Q 1884 428 2741 428 
Q 3075 428 3337 486 
Q 3600 544 3809 666 
z
" transform="scale(0.015625)"/>
      <path id="DejaVuSans-72" d="M 2631 2963 
Q 2534 3019 2420 3045 
Q 2306 3072 2169 3072 
Q 1681 3072 1420 2755 
Q 1159 2438 1159 1844 
L 1159 0 
L 581 0 
L 581 3500 
L 1159 3500 
L 1159 2956 
Q 1341 3275 1631 3429 
Q 1922 3584 2338 3584 
Q 2397 3584 2469 3576 
Q 2541 3569 2628 3553 
L 2631 2963 
z
" transform="scale(0.015625)"/>
      <path id="DejaVuSans-61" d="M 2194 1759 
Q 1497 1759 1228 1600 
Q 959 1441 959 1056 
Q 959 750 1161 570 
Q 1363 391 1709 391 
Q 2188 391 2477 730 
Q 2766 1069 2766 1631 
L 2766 1759 
L 2194 1759 
z
M 3341 1997 
L 3341 0 
L 2766 0 
L 2766 531 
Q 2569 213 2275 61 
Q 1981 -91 1556 -91 
Q 1019 -91 701 211 
Q 384 513 384 1019 
Q 384 1609 779 1909 
Q 1175 2209 1959 2209 
L 2766 2209 
L 2766 2266 
Q 2766 2663 2505 2880 
Q 2244 3097 1772 3097 
Q 1472 3097 1187 3025 
Q 903 2953 641 2809 
L 641 3341 
Q 956 3463 1253 3523 
Q 1550 3584 1831 3584 
Q 2591 3584 2966 3190 
Q 3341 2797 3341 1997 
z
" transform="scale(0.015625)"/>
      <path id="DejaVuSans-70" d="M 1159 525 
L 1159 -1331 
L 581 -1331 
L 581 3500 
L 1159 3500 
L 1159 2969 
Q 1341 3281 1617 3432 
Q 1894 3584 2278 3584 
Q 2916 3584 3314 3078 
Q 3713 2572 3713 1747 
Q 3713 922 3314 415 
Q 2916 -91 2278 -91 
Q 1894 -91 1617 61 
Q 1341 213 1159 525 
z
M 3116 1747 
Q 3116 2381 2855 2742 
Q 2594 3103 2138 3103 
Q 1681 3103 1420 2742 
Q 1159 2381 1159 1747 
Q 1159 1113 1420 752 
Q 1681 391 2138 391 
Q 2594 391 2855 752 
Q 3116 1113 3116 1747 
z
" transform="scale(0.015625)"/>
      <path id="DejaVuSans-68" d="M 3513 2113 
L 3513 0 
L 2938 0 
L 2938 2094 
Q 2938 2591 2744 2837 
Q 2550 3084 2163 3084 
Q 1697 3084 1428 2787 
Q 1159 2491 1159 1978 
L 1159 0 
L 581 0 
L 581 4863 
L 1159 4863 
L 1159 2956 
Q 1366 3272 1645 3428 
Q 1925 3584 2291 3584 
Q 2894 3584 3203 3211 
Q 3513 2838 3513 2113 
z
" transform="scale(0.015625)"/>
      <path id="DejaVuSans-66" d="M 2375 4863 
L 2375 4384 
L 1825 4384 
Q 1516 4384 1395 4259 
Q 1275 4134 1275 3809 
L 1275 3500 
L 2222 3500 
L 2222 3053 
L 1275 3053 
L 1275 0 
L 697 0 
L 697 3053 
L 147 3053 
L 147 3500 
L 697 3500 
L 697 3744 
Q 697 4328 969 4595 
Q 1241 4863 1831 4863 
L 2375 4863 
z
" transform="scale(0.015625)"/>
      <path id="DejaVuSans-76" d="M 191 3500 
L 800 3500 
L 1894 563 
L 2988 3500 
L 3597 3500 
L 2284 0 
L 1503 0 
L 191 3500 
z
" transform="scale(0.015625)"/>
      <path id="DejaVuSans-75" d="M 544 1381 
L 544 3500 
L 1119 3500 
L 1119 1403 
Q 1119 906 1312 657 
Q 1506 409 1894 409 
Q 2359 409 2629 706 
Q 2900 1003 2900 1516 
L 2900 3500 
L 3475 3500 
L 3475 0 
L 2900 0 
L 2900 538 
Q 2691 219 2414 64 
Q 2138 -91 1772 -91 
Q 1169 -91 856 284 
Q 544 659 544 1381 
z
M 1991 3584 
L 1991 3584 
z
" transform="scale(0.015625)"/>
      <path id="DejaVuSans-6c" d="M 603 4863 
L 1178 4863 
L 1178 0 
L 603 0 
L 603 4863 
z
" transform="scale(0.015625)"/>
      <path id="DejaVuSans-2f" d="M 1625 4666 
L 2156 4666 
L 531 -594 
L 0 -594 
L 1625 4666 
z
" transform="scale(0.015625)"/>
     </defs>
     <use xlink:href="#DejaVuSans-47"/>
     <use xlink:href="#DejaVuSans-72" x="77.490234"/>
     <use xlink:href="#DejaVuSans-61" x="118.603516"/>
     <use xlink:href="#DejaVuSans-70" x="179.882812"/>
     <use xlink:href="#DejaVuSans-68" x="243.359375"/>
     <use xlink:href="#DejaVuSans-20" x="306.738281"/>
     <use xlink:href="#DejaVuSans-6f" x="338.525391"/>
     <use xlink:href="#DejaVuSans-66" x="399.707031"/>
     <use xlink:href="#DejaVuSans-20" x="434.912109"/>
     <use xlink:href="#DejaVuSans-63" x="466.699219"/>
     <use xlink:href="#DejaVuSans-6f" x="521.679688"/>
     <use xlink:href="#DejaVuSans-6e" x="582.861328"/>
     <use xlink:href="#DejaVuSans-67" x="646.240234"/>
     <use xlink:href="#DejaVuSans-65" x="709.716797"/>
     <use xlink:href="#DejaVuSans-73" x="771.240234"/>
     <use xlink:href="#DejaVuSans-74" x="823.339844"/>
     <use xlink:href="#DejaVuSans-69" x="862.548828"/>
     <use xlink:href="#DejaVuSans-6f" x="890.332031"/>
     <use xlink:href="#DejaVuSans-6e" x="951.513672"/>
     <use xlink:href="#DejaVuSans-20" x="1014.892578"/>
     <use xlink:href="#DejaVuSans-77" x="1046.679688"/>
     <use xlink:href="#DejaVuSans-69" x="1128.466797"/>
     <use xlink:href="#DejaVuSans-6e" x="1156.25"/>
     <use xlink:href="#DejaVuSans-64" x="1219.628906"/>
     <use xlink:href="#DejaVuSans-6f" x="1283.105469"/>
     <use xlink:href="#DejaVuSans-77" x="1344.287109"/>
     <use xlink:href="#DejaVuSans-20" x="1426.074219"/>
     <use xlink:href="#DejaVuSans-76" x="1457.861328"/>
     <use xlink:href="#DejaVuSans-73" x="1517.041016"/>
     <use xlink:href="#DejaVuSans-20" x="1569.140625"/>
     <use xlink:href="#DejaVuSans-54" x="1600.927734"/>
     <use xlink:href="#DejaVuSans-69" x="1658.886719"/>
     <use xlink:href="#DejaVuSans-6d" x="1686.669922"/>
     <use xlink:href="#DejaVuSans-65" x="1784.082031"/>
     <use xlink:href="#DejaVuSans-20" x="1845.605469"/>
     <use xlink:href="#DejaVuSans-72" x="1877.392578"/>
     <use xlink:href="#DejaVuSans-65" x="1916.255859"/>
     <use xlink:href="#DejaVuSans-73" x="1977.779297"/>
     <use xlink:href="#DejaVuSans-75" x="2029.878906"/>
     <use xlink:href="#DejaVuSans-6c" x="2093.257812"/>
     <use xlink:href="#DejaVuSans-74" x="2121.041016"/>
     <use xlink:href="#DejaVuSans-2f" x="2160.25"/>
     <use xlink:href="#DejaVuSans-61" x="2193.941406"/>
     <use xlink:href="#DejaVuSans-70" x="2255.220703"/>
     <use xlink:href="#DejaVuSans-70" x="2318.697266"/>
     <use xlink:href="#DejaVuSans-72" x="2382.173828"/>
     <use xlink:href="#DejaVuSans-61" x="2423.287109"/>
     <use xlink:href="#DejaVuSans-74" x="2484.566406"/>
     <use xlink:href="#DejaVuSans-65" x="2523.775391"/>
     <use xlink:href="#DejaVuSans-68" x="2585.298828"/>
     <use xlink:href="#DejaVuSans-61" x="2648.677734"/>
     <use xlink:href="#DejaVuSans-6c" x="2709.957031"/>
     <use xlink:href="#DejaVuSans-66" x="2737.740234"/>
    </g>
   </g>
  </g>
 </g>
 <defs>
  <clipPath id="pd37e5e2c91">
   <rect x="144" y="69.12" width="892.8" height="443.52"/>
  </clipPath>
 </defs>
</svg>
