<?xml version="1.0" encoding="utf-8" standalone="no"?>
<!DOCTYPE svg PUBLIC "-//W3C//DTD SVG 1.1//EN"
  "http://www.w3.org/Graphics/SVG/1.1/DTD/svg11.dtd">
<svg xmlns:xlink="http://www.w3.org/1999/xlink" width="1152pt" height="576pt" viewBox="0 0 1152 576" xmlns="http://www.w3.org/2000/svg" version="1.1">
 <metadata>
  <rdf:RDF xmlns:dc="http://purl.org/dc/elements/1.1/" xmlns:cc="http://creativecommons.org/ns#" xmlns:rdf="http://www.w3.org/1999/02/22-rdf-syntax-ns#">
   <cc:Work>
    <dc:type rdf:resource="http://purl.org/dc/dcmitype/StillImage"/>
    <dc:date>2023-01-05T15:16:15.988532</dc:date>
    <dc:format>image/svg+xml</dc:format>
    <dc:creator>
     <cc:Agent>
      <dc:title>Matplotlib v3.6.2, https://matplotlib.org/</dc:title>
     </cc:Agent>
    </dc:creator>
   </cc:Work>
  </rdf:RDF>
 </metadata>
 <defs>
  <style type="text/css">*{stroke-linejoin: round; stroke-linecap: butt}</style>
 </defs>
 <g id="figure_1">
  <g id="patch_1">
   <path d="M 0 576 
L 1152 576 
L 1152 0 
L 0 0 
z
" style="fill: #ffffff"/>
  </g>
  <g id="axes_1">
   <g id="patch_2">
    <path d="M 144 512.64 
L 1036.8 512.64 
L 1036.8 69.12 
L 144 69.12 
z
" style="fill: #ffffff"/>
   </g>
   <g id="matplotlib.axis_1">
    <g id="xtick_1">
     <g id="line2d_1">
      <defs>
       <path id="m921c3da089" d="M 0 0 
L 0 3.5 
" style="stroke: #000000; stroke-width: 0.8"/>
      </defs>
      <g>
       <use xlink:href="#m921c3da089" x="156.415193" y="512.64" style="stroke: #000000; stroke-width: 0.8"/>
      </g>
     </g>
     <g id="text_1">
      <!-- 0 -->
      <g transform="translate(153.233943 527.238438) scale(0.1 -0.1)">
       <defs>
        <path id="DejaVuSans-30" d="M 2034 4250 
Q 1547 4250 1301 3770 
Q 1056 3291 1056 2328 
Q 1056 1369 1301 889 
Q 1547 409 2034 409 
Q 2525 409 2770 889 
Q 3016 1369 3016 2328 
Q 3016 3291 2770 3770 
Q 2525 4250 2034 4250 
z
M 2034 4750 
Q 2819 4750 3233 4129 
Q 3647 3509 3647 2328 
Q 3647 1150 3233 529 
Q 2819 -91 2034 -91 
Q 1250 -91 836 529 
Q 422 1150 422 2328 
Q 422 3509 836 4129 
Q 1250 4750 2034 4750 
z
" transform="scale(0.015625)"/>
       </defs>
       <use xlink:href="#DejaVuSans-30"/>
      </g>
     </g>
    </g>
    <g id="xtick_2">
     <g id="line2d_2">
      <g>
       <use xlink:href="#m921c3da089" x="296.38749" y="512.64" style="stroke: #000000; stroke-width: 0.8"/>
      </g>
     </g>
     <g id="text_2">
      <!-- 5 -->
      <g transform="translate(293.20624 527.238438) scale(0.1 -0.1)">
       <defs>
        <path id="DejaVuSans-35" d="M 691 4666 
L 3169 4666 
L 3169 4134 
L 1269 4134 
L 1269 2991 
Q 1406 3038 1543 3061 
Q 1681 3084 1819 3084 
Q 2600 3084 3056 2656 
Q 3513 2228 3513 1497 
Q 3513 744 3044 326 
Q 2575 -91 1722 -91 
Q 1428 -91 1123 -41 
Q 819 9 494 109 
L 494 744 
Q 775 591 1075 516 
Q 1375 441 1709 441 
Q 2250 441 2565 725 
Q 2881 1009 2881 1497 
Q 2881 1984 2565 2268 
Q 2250 2553 1709 2553 
Q 1456 2553 1204 2497 
Q 953 2441 691 2322 
L 691 4666 
z
" transform="scale(0.015625)"/>
       </defs>
       <use xlink:href="#DejaVuSans-35"/>
      </g>
     </g>
    </g>
    <g id="xtick_3">
     <g id="line2d_3">
      <g>
       <use xlink:href="#m921c3da089" x="436.359787" y="512.64" style="stroke: #000000; stroke-width: 0.8"/>
      </g>
     </g>
     <g id="text_3">
      <!-- 10 -->
      <g transform="translate(429.997287 527.238438) scale(0.1 -0.1)">
       <defs>
        <path id="DejaVuSans-31" d="M 794 531 
L 1825 531 
L 1825 4091 
L 703 3866 
L 703 4441 
L 1819 4666 
L 2450 4666 
L 2450 531 
L 3481 531 
L 3481 0 
L 794 0 
L 794 531 
z
" transform="scale(0.015625)"/>
       </defs>
       <use xlink:href="#DejaVuSans-31"/>
       <use xlink:href="#DejaVuSans-30" x="63.623047"/>
      </g>
     </g>
    </g>
    <g id="xtick_4">
     <g id="line2d_4">
      <g>
       <use xlink:href="#m921c3da089" x="576.332084" y="512.64" style="stroke: #000000; stroke-width: 0.8"/>
      </g>
     </g>
     <g id="text_4">
      <!-- 15 -->
      <g transform="translate(569.969584 527.238438) scale(0.1 -0.1)">
       <use xlink:href="#DejaVuSans-31"/>
       <use xlink:href="#DejaVuSans-35" x="63.623047"/>
      </g>
     </g>
    </g>
    <g id="xtick_5">
     <g id="line2d_5">
      <g>
       <use xlink:href="#m921c3da089" x="716.304381" y="512.64" style="stroke: #000000; stroke-width: 0.8"/>
      </g>
     </g>
     <g id="text_5">
      <!-- 20 -->
      <g transform="translate(709.941881 527.238438) scale(0.1 -0.1)">
       <defs>
        <path id="DejaVuSans-32" d="M 1228 531 
L 3431 531 
L 3431 0 
L 469 0 
L 469 531 
Q 828 903 1448 1529 
Q 2069 2156 2228 2338 
Q 2531 2678 2651 2914 
Q 2772 3150 2772 3378 
Q 2772 3750 2511 3984 
Q 2250 4219 1831 4219 
Q 1534 4219 1204 4116 
Q 875 4013 500 3803 
L 500 4441 
Q 881 4594 1212 4672 
Q 1544 4750 1819 4750 
Q 2544 4750 2975 4387 
Q 3406 4025 3406 3419 
Q 3406 3131 3298 2873 
Q 3191 2616 2906 2266 
Q 2828 2175 2409 1742 
Q 1991 1309 1228 531 
z
" transform="scale(0.015625)"/>
       </defs>
       <use xlink:href="#DejaVuSans-32"/>
       <use xlink:href="#DejaVuSans-30" x="63.623047"/>
      </g>
     </g>
    </g>
    <g id="xtick_6">
     <g id="line2d_6">
      <g>
       <use xlink:href="#m921c3da089" x="856.276679" y="512.64" style="stroke: #000000; stroke-width: 0.8"/>
      </g>
     </g>
     <g id="text_6">
      <!-- 25 -->
      <g transform="translate(849.914179 527.238438) scale(0.1 -0.1)">
       <use xlink:href="#DejaVuSans-32"/>
       <use xlink:href="#DejaVuSans-35" x="63.623047"/>
      </g>
     </g>
    </g>
    <g id="xtick_7">
     <g id="line2d_7">
      <g>
       <use xlink:href="#m921c3da089" x="996.248976" y="512.64" style="stroke: #000000; stroke-width: 0.8"/>
      </g>
     </g>
     <g id="text_7">
      <!-- 30 -->
      <g transform="translate(989.886476 527.238438) scale(0.1 -0.1)">
       <defs>
        <path id="DejaVuSans-33" d="M 2597 2516 
Q 3050 2419 3304 2112 
Q 3559 1806 3559 1356 
Q 3559 666 3084 287 
Q 2609 -91 1734 -91 
Q 1441 -91 1130 -33 
Q 819 25 488 141 
L 488 750 
Q 750 597 1062 519 
Q 1375 441 1716 441 
Q 2309 441 2620 675 
Q 2931 909 2931 1356 
Q 2931 1769 2642 2001 
Q 2353 2234 1838 2234 
L 1294 2234 
L 1294 2753 
L 1863 2753 
Q 2328 2753 2575 2939 
Q 2822 3125 2822 3475 
Q 2822 3834 2567 4026 
Q 2313 4219 1838 4219 
Q 1578 4219 1281 4162 
Q 984 4106 628 3988 
L 628 4550 
Q 988 4650 1302 4700 
Q 1616 4750 1894 4750 
Q 2613 4750 3031 4423 
Q 3450 4097 3450 3541 
Q 3450 3153 3228 2886 
Q 3006 2619 2597 2516 
z
" transform="scale(0.015625)"/>
       </defs>
       <use xlink:href="#DejaVuSans-33"/>
       <use xlink:href="#DejaVuSans-30" x="63.623047"/>
      </g>
     </g>
    </g>
    <g id="text_8">
     <!-- Time in seconds -->
     <g transform="translate(537.870859 543.196094) scale(0.13 -0.13)">
      <defs>
       <path id="DejaVuSans-54" d="M -19 4666 
L 3928 4666 
L 3928 4134 
L 2272 4134 
L 2272 0 
L 1638 0 
L 1638 4134 
L -19 4134 
L -19 4666 
z
" transform="scale(0.015625)"/>
       <path id="DejaVuSans-69" d="M 603 3500 
L 1178 3500 
L 1178 0 
L 603 0 
L 603 3500 
z
M 603 4863 
L 1178 4863 
L 1178 4134 
L 603 4134 
L 603 4863 
z
" transform="scale(0.015625)"/>
       <path id="DejaVuSans-6d" d="M 3328 2828 
Q 3544 3216 3844 3400 
Q 4144 3584 4550 3584 
Q 5097 3584 5394 3201 
Q 5691 2819 5691 2113 
L 5691 0 
L 5113 0 
L 5113 2094 
Q 5113 2597 4934 2840 
Q 4756 3084 4391 3084 
Q 3944 3084 3684 2787 
Q 3425 2491 3425 1978 
L 3425 0 
L 2847 0 
L 2847 2094 
Q 2847 2600 2669 2842 
Q 2491 3084 2119 3084 
Q 1678 3084 1418 2786 
Q 1159 2488 1159 1978 
L 1159 0 
L 581 0 
L 581 3500 
L 1159 3500 
L 1159 2956 
Q 1356 3278 1631 3431 
Q 1906 3584 2284 3584 
Q 2666 3584 2933 3390 
Q 3200 3197 3328 2828 
z
" transform="scale(0.015625)"/>
       <path id="DejaVuSans-65" d="M 3597 1894 
L 3597 1613 
L 953 1613 
Q 991 1019 1311 708 
Q 1631 397 2203 397 
Q 2534 397 2845 478 
Q 3156 559 3463 722 
L 3463 178 
Q 3153 47 2828 -22 
Q 2503 -91 2169 -91 
Q 1331 -91 842 396 
Q 353 884 353 1716 
Q 353 2575 817 3079 
Q 1281 3584 2069 3584 
Q 2775 3584 3186 3129 
Q 3597 2675 3597 1894 
z
M 3022 2063 
Q 3016 2534 2758 2815 
Q 2500 3097 2075 3097 
Q 1594 3097 1305 2825 
Q 1016 2553 972 2059 
L 3022 2063 
z
" transform="scale(0.015625)"/>
       <path id="DejaVuSans-20" transform="scale(0.015625)"/>
       <path id="DejaVuSans-6e" d="M 3513 2113 
L 3513 0 
L 2938 0 
L 2938 2094 
Q 2938 2591 2744 2837 
Q 2550 3084 2163 3084 
Q 1697 3084 1428 2787 
Q 1159 2491 1159 1978 
L 1159 0 
L 581 0 
L 581 3500 
L 1159 3500 
L 1159 2956 
Q 1366 3272 1645 3428 
Q 1925 3584 2291 3584 
Q 2894 3584 3203 3211 
Q 3513 2838 3513 2113 
z
" transform="scale(0.015625)"/>
       <path id="DejaVuSans-73" d="M 2834 3397 
L 2834 2853 
Q 2591 2978 2328 3040 
Q 2066 3103 1784 3103 
Q 1356 3103 1142 2972 
Q 928 2841 928 2578 
Q 928 2378 1081 2264 
Q 1234 2150 1697 2047 
L 1894 2003 
Q 2506 1872 2764 1633 
Q 3022 1394 3022 966 
Q 3022 478 2636 193 
Q 2250 -91 1575 -91 
Q 1294 -91 989 -36 
Q 684 19 347 128 
L 347 722 
Q 666 556 975 473 
Q 1284 391 1588 391 
Q 1994 391 2212 530 
Q 2431 669 2431 922 
Q 2431 1156 2273 1281 
Q 2116 1406 1581 1522 
L 1381 1569 
Q 847 1681 609 1914 
Q 372 2147 372 2553 
Q 372 3047 722 3315 
Q 1072 3584 1716 3584 
Q 2034 3584 2315 3537 
Q 2597 3491 2834 3397 
z
" transform="scale(0.015625)"/>
       <path id="DejaVuSans-63" d="M 3122 3366 
L 3122 2828 
Q 2878 2963 2633 3030 
Q 2388 3097 2138 3097 
Q 1578 3097 1268 2742 
Q 959 2388 959 1747 
Q 959 1106 1268 751 
Q 1578 397 2138 397 
Q 2388 397 2633 464 
Q 2878 531 3122 666 
L 3122 134 
Q 2881 22 2623 -34 
Q 2366 -91 2075 -91 
Q 1284 -91 818 406 
Q 353 903 353 1747 
Q 353 2603 823 3093 
Q 1294 3584 2113 3584 
Q 2378 3584 2631 3529 
Q 2884 3475 3122 3366 
z
" transform="scale(0.015625)"/>
       <path id="DejaVuSans-6f" d="M 1959 3097 
Q 1497 3097 1228 2736 
Q 959 2375 959 1747 
Q 959 1119 1226 758 
Q 1494 397 1959 397 
Q 2419 397 2687 759 
Q 2956 1122 2956 1747 
Q 2956 2369 2687 2733 
Q 2419 3097 1959 3097 
z
M 1959 3584 
Q 2709 3584 3137 3096 
Q 3566 2609 3566 1747 
Q 3566 888 3137 398 
Q 2709 -91 1959 -91 
Q 1206 -91 779 398 
Q 353 888 353 1747 
Q 353 2609 779 3096 
Q 1206 3584 1959 3584 
z
" transform="scale(0.015625)"/>
       <path id="DejaVuSans-64" d="M 2906 2969 
L 2906 4863 
L 3481 4863 
L 3481 0 
L 2906 0 
L 2906 525 
Q 2725 213 2448 61 
Q 2172 -91 1784 -91 
Q 1150 -91 751 415 
Q 353 922 353 1747 
Q 353 2572 751 3078 
Q 1150 3584 1784 3584 
Q 2172 3584 2448 3432 
Q 2725 3281 2906 2969 
z
M 947 1747 
Q 947 1113 1208 752 
Q 1469 391 1925 391 
Q 2381 391 2643 752 
Q 2906 1113 2906 1747 
Q 2906 2381 2643 2742 
Q 2381 3103 1925 3103 
Q 1469 3103 1208 2742 
Q 947 2381 947 1747 
z
" transform="scale(0.015625)"/>
      </defs>
      <use xlink:href="#DejaVuSans-54"/>
      <use xlink:href="#DejaVuSans-69" x="57.958984"/>
      <use xlink:href="#DejaVuSans-6d" x="85.742188"/>
      <use xlink:href="#DejaVuSans-65" x="183.154297"/>
      <use xlink:href="#DejaVuSans-20" x="244.677734"/>
      <use xlink:href="#DejaVuSans-69" x="276.464844"/>
      <use xlink:href="#DejaVuSans-6e" x="304.248047"/>
      <use xlink:href="#DejaVuSans-20" x="367.626953"/>
      <use xlink:href="#DejaVuSans-73" x="399.414062"/>
      <use xlink:href="#DejaVuSans-65" x="451.513672"/>
      <use xlink:href="#DejaVuSans-63" x="513.037109"/>
      <use xlink:href="#DejaVuSans-6f" x="568.017578"/>
      <use xlink:href="#DejaVuSans-6e" x="629.199219"/>
      <use xlink:href="#DejaVuSans-64" x="692.578125"/>
      <use xlink:href="#DejaVuSans-73" x="756.054688"/>
     </g>
    </g>
   </g>
   <g id="matplotlib.axis_2">
    <g id="ytick_1">
     <g id="line2d_8">
      <defs>
       <path id="m5fcbfa5b9e" d="M 0 0 
L -3.5 0 
" style="stroke: #000000; stroke-width: 0.8"/>
      </defs>
      <g>
       <use xlink:href="#m5fcbfa5b9e" x="144" y="492.48" style="stroke: #000000; stroke-width: 0.8"/>
      </g>
     </g>
     <g id="text_9">
      <!-- 0 -->
      <g transform="translate(130.6375 496.279219) scale(0.1 -0.1)">
       <use xlink:href="#DejaVuSans-30"/>
      </g>
     </g>
    </g>
    <g id="ytick_2">
     <g id="line2d_9">
      <g>
       <use xlink:href="#m5fcbfa5b9e" x="144" y="440.497792" style="stroke: #000000; stroke-width: 0.8"/>
      </g>
     </g>
     <g id="text_10">
      <!-- 2000 -->
      <g transform="translate(111.55 444.29701) scale(0.1 -0.1)">
       <use xlink:href="#DejaVuSans-32"/>
       <use xlink:href="#DejaVuSans-30" x="63.623047"/>
       <use xlink:href="#DejaVuSans-30" x="127.246094"/>
       <use xlink:href="#DejaVuSans-30" x="190.869141"/>
      </g>
     </g>
    </g>
    <g id="ytick_3">
     <g id="line2d_10">
      <g>
       <use xlink:href="#m5fcbfa5b9e" x="144" y="388.515583" style="stroke: #000000; stroke-width: 0.8"/>
      </g>
     </g>
     <g id="text_11">
      <!-- 4000 -->
      <g transform="translate(111.55 392.314802) scale(0.1 -0.1)">
       <defs>
        <path id="DejaVuSans-34" d="M 2419 4116 
L 825 1625 
L 2419 1625 
L 2419 4116 
z
M 2253 4666 
L 3047 4666 
L 3047 1625 
L 3713 1625 
L 3713 1100 
L 3047 1100 
L 3047 0 
L 2419 0 
L 2419 1100 
L 313 1100 
L 313 1709 
L 2253 4666 
z
" transform="scale(0.015625)"/>
       </defs>
       <use xlink:href="#DejaVuSans-34"/>
       <use xlink:href="#DejaVuSans-30" x="63.623047"/>
       <use xlink:href="#DejaVuSans-30" x="127.246094"/>
       <use xlink:href="#DejaVuSans-30" x="190.869141"/>
      </g>
     </g>
    </g>
    <g id="ytick_4">
     <g id="line2d_11">
      <g>
       <use xlink:href="#m5fcbfa5b9e" x="144" y="336.533375" style="stroke: #000000; stroke-width: 0.8"/>
      </g>
     </g>
     <g id="text_12">
      <!-- 6000 -->
      <g transform="translate(111.55 340.332593) scale(0.1 -0.1)">
       <defs>
        <path id="DejaVuSans-36" d="M 2113 2584 
Q 1688 2584 1439 2293 
Q 1191 2003 1191 1497 
Q 1191 994 1439 701 
Q 1688 409 2113 409 
Q 2538 409 2786 701 
Q 3034 994 3034 1497 
Q 3034 2003 2786 2293 
Q 2538 2584 2113 2584 
z
M 3366 4563 
L 3366 3988 
Q 3128 4100 2886 4159 
Q 2644 4219 2406 4219 
Q 1781 4219 1451 3797 
Q 1122 3375 1075 2522 
Q 1259 2794 1537 2939 
Q 1816 3084 2150 3084 
Q 2853 3084 3261 2657 
Q 3669 2231 3669 1497 
Q 3669 778 3244 343 
Q 2819 -91 2113 -91 
Q 1303 -91 875 529 
Q 447 1150 447 2328 
Q 447 3434 972 4092 
Q 1497 4750 2381 4750 
Q 2619 4750 2861 4703 
Q 3103 4656 3366 4563 
z
" transform="scale(0.015625)"/>
       </defs>
       <use xlink:href="#DejaVuSans-36"/>
       <use xlink:href="#DejaVuSans-30" x="63.623047"/>
       <use xlink:href="#DejaVuSans-30" x="127.246094"/>
       <use xlink:href="#DejaVuSans-30" x="190.869141"/>
      </g>
     </g>
    </g>
    <g id="ytick_5">
     <g id="line2d_12">
      <g>
       <use xlink:href="#m5fcbfa5b9e" x="144" y="284.551166" style="stroke: #000000; stroke-width: 0.8"/>
      </g>
     </g>
     <g id="text_13">
      <!-- 8000 -->
      <g transform="translate(111.55 288.350385) scale(0.1 -0.1)">
       <defs>
        <path id="DejaVuSans-38" d="M 2034 2216 
Q 1584 2216 1326 1975 
Q 1069 1734 1069 1313 
Q 1069 891 1326 650 
Q 1584 409 2034 409 
Q 2484 409 2743 651 
Q 3003 894 3003 1313 
Q 3003 1734 2745 1975 
Q 2488 2216 2034 2216 
z
M 1403 2484 
Q 997 2584 770 2862 
Q 544 3141 544 3541 
Q 544 4100 942 4425 
Q 1341 4750 2034 4750 
Q 2731 4750 3128 4425 
Q 3525 4100 3525 3541 
Q 3525 3141 3298 2862 
Q 3072 2584 2669 2484 
Q 3125 2378 3379 2068 
Q 3634 1759 3634 1313 
Q 3634 634 3220 271 
Q 2806 -91 2034 -91 
Q 1263 -91 848 271 
Q 434 634 434 1313 
Q 434 1759 690 2068 
Q 947 2378 1403 2484 
z
M 1172 3481 
Q 1172 3119 1398 2916 
Q 1625 2713 2034 2713 
Q 2441 2713 2670 2916 
Q 2900 3119 2900 3481 
Q 2900 3844 2670 4047 
Q 2441 4250 2034 4250 
Q 1625 4250 1398 4047 
Q 1172 3844 1172 3481 
z
" transform="scale(0.015625)"/>
       </defs>
       <use xlink:href="#DejaVuSans-38"/>
       <use xlink:href="#DejaVuSans-30" x="63.623047"/>
       <use xlink:href="#DejaVuSans-30" x="127.246094"/>
       <use xlink:href="#DejaVuSans-30" x="190.869141"/>
      </g>
     </g>
    </g>
    <g id="ytick_6">
     <g id="line2d_13">
      <g>
       <use xlink:href="#m5fcbfa5b9e" x="144" y="232.568958" style="stroke: #000000; stroke-width: 0.8"/>
      </g>
     </g>
     <g id="text_14">
      <!-- 10000 -->
      <g transform="translate(105.1875 236.368176) scale(0.1 -0.1)">
       <use xlink:href="#DejaVuSans-31"/>
       <use xlink:href="#DejaVuSans-30" x="63.623047"/>
       <use xlink:href="#DejaVuSans-30" x="127.246094"/>
       <use xlink:href="#DejaVuSans-30" x="190.869141"/>
       <use xlink:href="#DejaVuSans-30" x="254.492188"/>
      </g>
     </g>
    </g>
    <g id="ytick_7">
     <g id="line2d_14">
      <g>
       <use xlink:href="#m5fcbfa5b9e" x="144" y="180.586749" style="stroke: #000000; stroke-width: 0.8"/>
      </g>
     </g>
     <g id="text_15">
      <!-- 12000 -->
      <g transform="translate(105.1875 184.385968) scale(0.1 -0.1)">
       <use xlink:href="#DejaVuSans-31"/>
       <use xlink:href="#DejaVuSans-32" x="63.623047"/>
       <use xlink:href="#DejaVuSans-30" x="127.246094"/>
       <use xlink:href="#DejaVuSans-30" x="190.869141"/>
       <use xlink:href="#DejaVuSans-30" x="254.492188"/>
      </g>
     </g>
    </g>
    <g id="ytick_8">
     <g id="line2d_15">
      <g>
       <use xlink:href="#m5fcbfa5b9e" x="144" y="128.604541" style="stroke: #000000; stroke-width: 0.8"/>
      </g>
     </g>
     <g id="text_16">
      <!-- 14000 -->
      <g transform="translate(105.1875 132.403759) scale(0.1 -0.1)">
       <use xlink:href="#DejaVuSans-31"/>
       <use xlink:href="#DejaVuSans-34" x="63.623047"/>
       <use xlink:href="#DejaVuSans-30" x="127.246094"/>
       <use xlink:href="#DejaVuSans-30" x="190.869141"/>
       <use xlink:href="#DejaVuSans-30" x="254.492188"/>
      </g>
     </g>
    </g>
    <g id="ytick_9">
     <g id="line2d_16">
      <g>
       <use xlink:href="#m5fcbfa5b9e" x="144" y="76.622332" style="stroke: #000000; stroke-width: 0.8"/>
      </g>
     </g>
     <g id="text_17">
      <!-- 16000 -->
      <g transform="translate(105.1875 80.421551) scale(0.1 -0.1)">
       <use xlink:href="#DejaVuSans-31"/>
       <use xlink:href="#DejaVuSans-36" x="63.623047"/>
       <use xlink:href="#DejaVuSans-30" x="127.246094"/>
       <use xlink:href="#DejaVuSans-30" x="190.869141"/>
       <use xlink:href="#DejaVuSans-30" x="254.492188"/>
      </g>
     </g>
    </g>
    <g id="text_18">
     <!-- Congestion Window Sizes -->
     <g transform="translate(98.483906 373.964219) rotate(-90) scale(0.13 -0.13)">
      <defs>
       <path id="DejaVuSans-43" d="M 4122 4306 
L 4122 3641 
Q 3803 3938 3442 4084 
Q 3081 4231 2675 4231 
Q 1875 4231 1450 3742 
Q 1025 3253 1025 2328 
Q 1025 1406 1450 917 
Q 1875 428 2675 428 
Q 3081 428 3442 575 
Q 3803 722 4122 1019 
L 4122 359 
Q 3791 134 3420 21 
Q 3050 -91 2638 -91 
Q 1578 -91 968 557 
Q 359 1206 359 2328 
Q 359 3453 968 4101 
Q 1578 4750 2638 4750 
Q 3056 4750 3426 4639 
Q 3797 4528 4122 4306 
z
" transform="scale(0.015625)"/>
       <path id="DejaVuSans-67" d="M 2906 1791 
Q 2906 2416 2648 2759 
Q 2391 3103 1925 3103 
Q 1463 3103 1205 2759 
Q 947 2416 947 1791 
Q 947 1169 1205 825 
Q 1463 481 1925 481 
Q 2391 481 2648 825 
Q 2906 1169 2906 1791 
z
M 3481 434 
Q 3481 -459 3084 -895 
Q 2688 -1331 1869 -1331 
Q 1566 -1331 1297 -1286 
Q 1028 -1241 775 -1147 
L 775 -588 
Q 1028 -725 1275 -790 
Q 1522 -856 1778 -856 
Q 2344 -856 2625 -561 
Q 2906 -266 2906 331 
L 2906 616 
Q 2728 306 2450 153 
Q 2172 0 1784 0 
Q 1141 0 747 490 
Q 353 981 353 1791 
Q 353 2603 747 3093 
Q 1141 3584 1784 3584 
Q 2172 3584 2450 3431 
Q 2728 3278 2906 2969 
L 2906 3500 
L 3481 3500 
L 3481 434 
z
" transform="scale(0.015625)"/>
       <path id="DejaVuSans-74" d="M 1172 4494 
L 1172 3500 
L 2356 3500 
L 2356 3053 
L 1172 3053 
L 1172 1153 
Q 1172 725 1289 603 
Q 1406 481 1766 481 
L 2356 481 
L 2356 0 
L 1766 0 
Q 1100 0 847 248 
Q 594 497 594 1153 
L 594 3053 
L 172 3053 
L 172 3500 
L 594 3500 
L 594 4494 
L 1172 4494 
z
" transform="scale(0.015625)"/>
       <path id="DejaVuSans-57" d="M 213 4666 
L 850 4666 
L 1831 722 
L 2809 4666 
L 3519 4666 
L 4500 722 
L 5478 4666 
L 6119 4666 
L 4947 0 
L 4153 0 
L 3169 4050 
L 2175 0 
L 1381 0 
L 213 4666 
z
" transform="scale(0.015625)"/>
       <path id="DejaVuSans-77" d="M 269 3500 
L 844 3500 
L 1563 769 
L 2278 3500 
L 2956 3500 
L 3675 769 
L 4391 3500 
L 4966 3500 
L 4050 0 
L 3372 0 
L 2619 2869 
L 1863 0 
L 1184 0 
L 269 3500 
z
" transform="scale(0.015625)"/>
       <path id="DejaVuSans-53" d="M 3425 4513 
L 3425 3897 
Q 3066 4069 2747 4153 
Q 2428 4238 2131 4238 
Q 1616 4238 1336 4038 
Q 1056 3838 1056 3469 
Q 1056 3159 1242 3001 
Q 1428 2844 1947 2747 
L 2328 2669 
Q 3034 2534 3370 2195 
Q 3706 1856 3706 1288 
Q 3706 609 3251 259 
Q 2797 -91 1919 -91 
Q 1588 -91 1214 -16 
Q 841 59 441 206 
L 441 856 
Q 825 641 1194 531 
Q 1563 422 1919 422 
Q 2459 422 2753 634 
Q 3047 847 3047 1241 
Q 3047 1584 2836 1778 
Q 2625 1972 2144 2069 
L 1759 2144 
Q 1053 2284 737 2584 
Q 422 2884 422 3419 
Q 422 4038 858 4394 
Q 1294 4750 2059 4750 
Q 2388 4750 2728 4690 
Q 3069 4631 3425 4513 
z
" transform="scale(0.015625)"/>
       <path id="DejaVuSans-7a" d="M 353 3500 
L 3084 3500 
L 3084 2975 
L 922 459 
L 3084 459 
L 3084 0 
L 275 0 
L 275 525 
L 2438 3041 
L 353 3041 
L 353 3500 
z
" transform="scale(0.015625)"/>
      </defs>
      <use xlink:href="#DejaVuSans-43"/>
      <use xlink:href="#DejaVuSans-6f" x="69.824219"/>
      <use xlink:href="#DejaVuSans-6e" x="131.005859"/>
      <use xlink:href="#DejaVuSans-67" x="194.384766"/>
      <use xlink:href="#DejaVuSans-65" x="257.861328"/>
      <use xlink:href="#DejaVuSans-73" x="319.384766"/>
      <use xlink:href="#DejaVuSans-74" x="371.484375"/>
      <use xlink:href="#DejaVuSans-69" x="410.693359"/>
      <use xlink:href="#DejaVuSans-6f" x="438.476562"/>
      <use xlink:href="#DejaVuSans-6e" x="499.658203"/>
      <use xlink:href="#DejaVuSans-20" x="563.037109"/>
      <use xlink:href="#DejaVuSans-57" x="594.824219"/>
      <use xlink:href="#DejaVuSans-69" x="691.451172"/>
      <use xlink:href="#DejaVuSans-6e" x="719.234375"/>
      <use xlink:href="#DejaVuSans-64" x="782.613281"/>
      <use xlink:href="#DejaVuSans-6f" x="846.089844"/>
      <use xlink:href="#DejaVuSans-77" x="907.271484"/>
      <use xlink:href="#DejaVuSans-20" x="989.058594"/>
      <use xlink:href="#DejaVuSans-53" x="1020.845703"/>
      <use xlink:href="#DejaVuSans-69" x="1084.322266"/>
      <use xlink:href="#DejaVuSans-7a" x="1112.105469"/>
      <use xlink:href="#DejaVuSans-65" x="1164.595703"/>
      <use xlink:href="#DejaVuSans-73" x="1226.119141"/>
     </g>
    </g>
   </g>
   <g id="line2d_17">
    <path d="M 184.581818 492.48 
L 184.952185 297.442754 
L 185.63189 116.33674 
L 185.711675 386.150393 
L 185.799857 400.393518 
L 185.901477 428.437919 
L 186.249728 419.782881 
L 186.486001 412.089515 
L 186.825854 405.097908 
L 187.127914 394.57151 
L 187.297841 390.672845 
L 187.534114 383.291371 
L 187.681925 379.782572 
L 187.962429 373.076867 
L 188.088404 433.948033 
L 188.495164 450.686304 
L 188.687206 464.617536 
L 188.687206 450.686304 
L 190.503206 404.812005 
L 190.761315 396.286923 
L 190.931521 392.310284 
L 191.167515 384.824846 
L 191.315326 381.264065 
L 191.721525 369.62005 
L 192.363438 350.620553 
L 193.436466 321.042676 
L 194.757804 290.191236 
L 195.902778 266.903206 
L 196.035751 266.0455 
L 196.233952 374.064529 
L 196.365246 394.961377 
L 196.492341 392.986053 
L 196.684103 464.617536 
L 196.684103 457.65192 
L 197.282624 443.018929 
L 197.880586 428.905759 
L 197.924537 425.8648 
L 198.094744 422.953796 
L 198.138695 420.172748 
L 198.308621 417.495664 
L 198.544615 410.010226 
L 198.736657 405.38381 
L 198.994766 396.858728 
L 199.164692 392.856097 
L 199.400685 385.344668 
L 199.548776 381.783887 
L 199.910744 371.72533 
L 200.552937 352.43993 
L 201.537502 324.88936 
L 202.903072 292.452462 
L 204.506035 259.677679 
L 205.013854 251.594446 
L 205.305557 247.69578 
L 205.809457 240.756155 
L 206.357588 233.270717 
L 206.649291 229.631963 
L 207.153191 223.160178 
L 207.701322 216.14258 
L 207.993025 212.737745 
L 208.541156 205.980058 
L 208.832858 202.679188 
L 209.38099 196.181412 
L 209.672692 192.958515 
L 210.220824 186.72065 
L 210.512526 183.601717 
L 210.892691 179.313185 
L 211.184393 176.324208 
L 211.732525 170.346254 
L 212.024227 167.357277 
L 212.572358 161.639234 
L 212.864061 158.780213 
L 213.412192 153.06217 
L 213.703894 150.333104 
L 214.252026 144.874972 
L 214.543728 142.145906 
L 215.09186 136.687774 
L 215.383562 134.088664 
L 215.931694 128.890443 
L 216.223396 126.291332 
L 216.771527 121.093112 
L 217.06323 118.519992 
L 217.611361 113.581682 
L 217.903063 111.112528 
L 218.07103 109.631035 
L 218.195326 109.137204 
L 218.297225 380.43235 
L 218.385408 394.467546 
L 218.487028 428.437919 
L 218.487028 421.472303 
L 218.835279 413.596999 
L 219.129221 404.240201 
L 219.299147 399.925678 
L 219.557256 391.868436 
L 219.713465 388.073734 
L 219.949458 380.874198 
L 220.097549 377.469364 
L 220.613767 361.692763 
L 221.233844 343.680928 
L 221.992214 324.239582 
L 222.248363 319.71713 
L 222.584297 313.167372 
L 222.664361 312.101737 
L 222.856403 456.300383 
L 222.856403 453.493344 
L 225.720796 377.079497 
L 226.237014 361.38087 
L 226.81286 344.746564 
L 227.958113 314.025078 
L 229.08489 287.956001 
L 229.201347 287.020321 
L 229.325083 427.138364 
L 229.597469 464.617536 
L 229.789511 478.548768 
L 229.789511 449.334767 
L 230.793672 427.164355 
L 230.837623 424.201369 
L 231.00755 421.368339 
L 231.243543 413.493034 
L 231.583676 406.371472 
L 231.885736 395.715119 
L 232.055662 391.764471 
L 232.291656 384.305024 
L 232.439746 380.770234 
L 232.845666 369.230184 
L 233.53181 348.90514 
L 234.633112 318.54753 
L 235.381964 301.705295 
L 235.580165 415.858225 
L 235.645952 422.823841 
L 235.645952 415.858225 
L 235.964249 408.528733 
L 236.266309 397.61247 
L 236.436235 393.583848 
L 236.694344 385.994446 
L 236.842435 382.407674 
L 237.248355 370.711677 
L 237.890547 351.530242 
L 238.963295 321.848401 
L 239.95094 299.651998 
L 240.242642 294.739679 
L 240.746542 286.188606 
L 241.126707 279.768803 
L 241.418409 275.324324 
L 241.798574 269.242406 
L 242.090276 264.979865 
L 242.638408 256.714693 
L 242.93011 252.686072 
L 243.310275 247.175958 
L 243.601977 243.277293 
L 243.828172 241.016067 
L 244.020214 456.300383 
L 244.020214 453.493344 
L 246.884607 377.079497 
L 247.400825 361.38087 
L 247.976671 344.746564 
L 249.121925 314.025078 
L 250.378596 285.148962 
L 250.634745 281.484216 
L 251.050463 274.336662 
L 251.306612 270.853854 
L 251.72233 264.044185 
L 251.978479 260.717324 
L 252.394197 254.219547 
L 252.650346 250.996651 
L 253.234031 242.445577 
L 253.49018 239.430609 
L 253.905898 233.452655 
L 254.162047 230.541652 
L 254.577765 224.745635 
L 254.833914 221.938596 
L 255.417599 214.27122 
L 255.673748 211.568145 
L 255.885946 209.540839 
L 256.009961 412.323435 
L 256.111581 442.369151 
L 257.07991 417.079807 
L 257.315903 409.646351 
L 257.507945 405.045925 
L 257.766054 396.520843 
L 257.93598 392.544204 
L 258.172253 385.058766 
L 258.320064 381.497985 
L 258.682033 371.439428 
L 259.220366 354.987059 
L 259.324505 353.583539 
L 259.472596 443.720688 
L 259.516547 450.686304 
L 259.516547 443.720688 
L 260.092673 429.425581 
L 260.136905 426.358631 
L 260.306831 423.447627 
L 260.350782 420.640588 
L 260.520709 417.963504 
L 260.712751 412.869248 
L 260.927188 410.452075 
L 261.11923 464.617536 
L 261.52543 452.089824 
L 262.529591 428.905759 
L 262.573542 425.8648 
L 262.743469 422.953796 
L 262.7877 420.172748 
L 262.957626 417.495664 
L 263.19362 410.010226 
L 263.429893 405.38381 
L 263.555868 436.755073 
L 263.621935 464.617536 
L 264.028414 452.089824 
L 265.032296 428.905759 
L 265.076527 425.8648 
L 265.246453 422.953796 
L 265.290405 420.172748 
L 265.460611 417.495664 
L 265.696604 410.010226 
L 265.888646 405.38381 
L 266.146475 396.858728 
L 266.316681 392.856097 
L 266.552675 385.344668 
L 266.700486 381.783887 
L 267.106685 370.139872 
L 267.704647 352.43993 
L 268.689492 324.88936 
L 269.966879 294.375804 
L 271.508254 263.004541 
L 272.301337 249.255247 
L 272.521653 353.895432 
L 272.653507 394.961377 
L 272.697459 386.150393 
L 272.911896 382.537629 
L 273.104218 464.617536 
L 273.104218 457.65192 
L 273.70246 443.018929 
L 274.300421 428.905759 
L 274.344653 425.8648 
L 274.514579 422.953796 
L 274.55853 420.172748 
L 274.987685 414.922545 
L 275.11338 450.686304 
L 275.305422 464.617536 
L 275.711622 452.089824 
L 276.715503 428.905759 
L 276.759735 425.8648 
L 276.929661 422.953796 
L 276.973612 420.172748 
L 277.143539 417.495664 
L 277.379812 410.010226 
L 277.571574 405.38381 
L 277.829683 396.858728 
L 277.999889 392.856097 
L 278.235882 385.344668 
L 278.383693 381.783887 
L 278.789893 370.139872 
L 279.387854 352.43993 
L 280.3727 324.88936 
L 281.033649 309.502626 
L 281.297916 422.823841 
L 281.358384 415.858225 
L 281.424171 422.823841 
L 281.424171 415.858225 
L 281.660165 408.528733 
L 282.428893 387.839814 
L 282.64277 464.617536 
L 282.64277 457.65192 
L 283.241012 443.018929 
L 283.839253 428.905759 
L 283.883205 425.8648 
L 284.053131 422.953796 
L 284.097362 420.172748 
L 284.267289 417.495664 
L 284.503282 410.010226 
L 284.695324 405.38381 
L 284.953433 396.858728 
L 285.123359 392.856097 
L 285.359353 385.344668 
L 285.507443 381.783887 
L 285.869412 371.72533 
L 286.511325 352.43993 
L 287.540121 323.745751 
L 288.86146 292.452462 
L 289.808792 274.128733 
L 290.006993 374.870253 
L 290.116731 408.892609 
L 290.160962 399.795722 
L 290.479259 391.73848 
L 290.759204 382.485647 
L 290.907295 379.02883 
L 291.423232 363.070292 
L 291.63739 357.222294 
L 292.153608 342.3034 
L 292.528174 333.570389 
L 292.74821 436.755073 
L 292.74821 429.789457 
L 293.110459 420.952481 
L 293.346452 413.129159 
L 293.686305 406.033587 
L 293.988645 395.377235 
L 294.158571 391.452578 
L 294.394564 384.019122 
L 294.542655 380.510323 
L 294.948575 368.996264 
L 295.590768 350.100731 
L 296.69179 319.535192 
L 297.969177 289.853351 
L 298.277676 284.239273 
L 298.453761 381.030145 
L 298.563779 408.892609 
L 298.623687 406.579401 
L 299.331947 386.33233 
L 299.6718 375.883906 
L 300.357944 355.974721 
L 301.012735 338.664645 
L 301.232771 436.755073 
L 301.232771 429.789457 
L 301.595019 420.952481 
L 301.831013 413.129159 
L 302.171145 406.033587 
L 302.473206 395.377235 
L 302.643132 391.452578 
L 302.879125 384.019122 
L 303.027216 380.510323 
L 303.433136 368.996264 
L 304.075328 350.100731 
L 305.176351 319.535192 
L 305.881531 303.602646 
L 306.079732 415.858225 
L 306.145239 422.823841 
L 306.145239 415.858225 
L 306.463536 408.528733 
L 306.721645 399.691758 
L 306.891851 397.61247 
L 306.958198 450.686304 
L 307.660859 464.617536 
L 307.852901 478.548768 
L 307.852901 464.617536 
L 308.495094 447.307461 
L 309.285097 428.905759 
L 309.329049 425.8648 
L 309.498975 422.953796 
L 309.543206 420.172748 
L 309.713133 417.495664 
L 309.949126 410.010226 
L 310.141168 405.38381 
L 310.399277 396.858728 
L 310.569203 392.856097 
L 310.805196 385.344668 
L 310.953287 381.783887 
L 311.315256 371.72533 
L 311.957168 352.43993 
L 312.985965 323.745751 
L 314.307303 292.452462 
L 315.540739 267.2151 
L 315.629202 266.357393 
L 315.849238 368.632388 
L 315.958976 394.961377 
L 316.003208 392.986053 
L 316.579054 376.741613 
L 317.139223 359.613475 
L 317.655441 344.486652 
L 318.844645 312.751514 
L 320.254166 281.328269 
L 321.795821 251.646428 
L 323.381147 224.589689 
L 324.350596 210.060661 
L 324.592748 318.339602 
L 324.768553 367.098913 
L 324.812784 365.565438 
L 325.682852 339.340414 
L 326.219786 327.25455 
L 326.635503 318.183655 
L 326.891653 313.817149 
L 327.30737 305.396032 
L 327.56352 301.341419 
L 327.979237 293.466115 
L 328.235387 289.645423 
L 328.651104 282.237958 
L 328.907254 278.599203 
L 329.411154 270.697908 
L 329.826872 263.888238 
L 330.083021 260.561377 
L 330.498739 254.063601 
L 330.754888 250.840704 
L 331.338573 242.289631 
L 331.594722 239.274663 
L 332.01044 233.296709 
L 332.266589 230.385705 
L 332.682307 224.589689 
L 332.938456 221.782649 
L 333.52214 214.115274 
L 333.77829 211.412199 
L 334.361974 204.004734 
L 334.618123 201.405624 
L 335.201808 194.25807 
L 335.457957 191.736933 
L 336.041642 184.875281 
L 336.297791 182.380135 
L 336.713509 177.54579 
L 336.969658 175.154608 
L 337.553343 168.578859 
L 337.809492 166.23966 
L 338.393176 159.949812 
L 338.649326 157.662595 
L 339.23301 151.42473 
L 339.489159 149.241477 
L 339.99306 144.329159 
L 340.139191 143.783346 
L 340.241091 380.43235 
L 340.329273 394.467546 
L 340.430893 428.437919 
L 340.430893 421.472303 
L 340.779144 413.596999 
L 341.073086 404.240201 
L 341.243012 399.925678 
L 341.501121 391.868436 
L 341.65733 388.073734 
L 341.893324 380.874198 
L 342.041414 377.469364 
L 342.343754 369.308157 
L 342.535796 450.686304 
L 343.090087 438.080619 
L 343.282129 434.519838 
L 343.32608 431.192976 
L 343.496006 428.048053 
L 343.540238 425.059076 
L 343.710164 422.200054 
L 343.946157 414.246776 
L 344.28629 407.073231 
L 344.58835 396.286923 
L 344.758277 392.310284 
L 344.99427 384.824846 
L 345.142361 381.264065 
L 345.504329 371.205508 
L 346.146242 351.998082 
L 347.175318 323.303903 
L 348.408474 294.037919 
L 349.646949 268.618619 
L 349.903098 265.213785 
L 350.486783 256.142889 
L 350.742932 252.919992 
L 351.15865 246.630145 
L 351.414799 243.511213 
L 351.998484 235.22005 
L 352.254633 232.283056 
L 352.838317 224.329778 
L 353.094467 221.522738 
L 353.598367 215.232891 
L 354.182051 207.799435 
L 354.438201 205.09636 
L 355.021885 197.948807 
L 355.278035 195.349696 
L 355.693752 190.281431 
L 355.949902 187.786285 
L 356.533586 180.924634 
L 356.789735 178.533452 
L 357.37342 171.957703 
L 357.629569 169.566521 
L 358.045287 164.914113 
L 358.301436 162.626896 
L 358.885121 156.337049 
L 359.14127 154.049832 
L 359.556988 149.631344 
L 359.813137 147.448091 
L 360.396821 141.444146 
L 360.652971 139.260893 
L 361.068688 134.972361 
L 361.324838 132.893073 
L 361.908522 127.17503 
L 362.164672 125.095742 
L 362.748356 119.377699 
L 363.004505 117.376384 
L 363.58819 111.944243 
L 363.844339 109.968919 
L 364.428024 104.536778 
L 364.684173 102.561454 
L 365.099891 98.636798 
L 365.35604 96.765438 
L 365.939724 91.619199 
L 366.275938 89.28 
L 366.430187 453.493344 
L 366.46798 456.300383 
L 366.46798 453.493344 
L 369.332373 377.079497 
L 369.848591 361.38087 
L 370.424437 344.746564 
L 371.56969 314.025078 
L 372.660914 289.82736 
L 372.768693 421.784196 
L 372.852956 442.369151 
L 374.244841 405.045925 
L 374.50295 396.520843 
L 374.672876 392.544204 
L 374.909149 385.058766 
L 375.05696 381.497985 
L 375.418928 371.439428 
L 376.105073 350.828482 
L 377.133869 322.368223 
L 378.201298 298.092531 
L 378.457447 294.167875 
L 378.873165 286.578472 
L 379.129314 282.887735 
L 379.545032 275.6882 
L 379.801181 272.153409 
L 380.305081 264.486034 
L 380.684966 258.664026 
L 380.809262 257.858302 
L 380.889046 386.150393 
L 380.977228 400.393518 
L 381.078848 428.437919 
L 381.427099 419.782881 
L 381.663372 412.089515 
L 382.003225 405.097908 
L 382.305285 394.57151 
L 382.475212 390.672845 
L 382.711485 383.291371 
L 382.859296 379.782572 
L 383.221264 369.879961 
L 383.863457 350.854473 
L 384.919968 321.276596 
L 385.176117 316.832118 
L 385.591835 308.281044 
L 385.847984 304.148459 
L 386.263702 296.143199 
L 386.519851 292.270524 
L 386.935569 284.733104 
L 387.191718 281.094349 
L 387.607436 273.946796 
L 387.863585 270.463988 
L 388.279303 263.680309 
L 388.535452 260.353448 
L 388.95117 253.855672 
L 389.207319 250.658766 
L 389.791004 242.107693 
L 390.047153 239.092725 
L 390.462871 233.114771 
L 390.7193 230.931518 
L 390.799084 386.150393 
L 390.887267 400.393518 
L 390.988887 428.437919 
L 391.337138 419.782881 
L 391.573411 412.089515 
L 391.913264 405.097908 
L 392.215324 394.57151 
L 392.429762 390.672845 
L 392.621804 464.617536 
L 392.621804 457.65192 
L 393.220045 443.018929 
L 393.818007 428.905759 
L 393.862238 425.8648 
L 394.032164 422.953796 
L 394.076116 420.172748 
L 394.246042 417.495664 
L 394.482035 410.010226 
L 394.674077 405.38381 
L 394.932186 396.858728 
L 395.102113 392.856097 
L 395.338386 385.344668 
L 395.486197 381.783887 
L 395.848165 371.72533 
L 396.534309 351.062402 
L 397.166984 334.350122 
L 397.38702 436.755073 
L 397.38702 429.789457 
L 397.941591 418.249406 
L 397.985822 450.686304 
L 398.133633 464.617536 
L 398.539552 452.089824 
L 399.543714 428.905759 
L 399.587665 425.8648 
L 399.757871 422.953796 
L 399.801823 420.172748 
L 399.971749 417.495664 
L 400.207742 410.010226 
L 400.399784 405.38381 
L 400.657893 396.858728 
L 400.827819 392.856097 
L 401.063813 385.344668 
L 401.38211 380.042483 
L 401.574152 450.686304 
L 402.128442 438.080619 
L 402.320484 434.519838 
L 402.364435 431.192976 
L 402.534362 428.048053 
L 402.578593 425.059076 
L 402.748519 422.200054 
L 402.940561 416.793904 
L 403.154719 414.246776 
L 403.346761 464.617536 
L 403.753241 452.089824 
L 404.757122 428.905759 
L 404.801353 425.8648 
L 404.971279 422.953796 
L 405.015231 420.172748 
L 405.185437 417.495664 
L 405.42143 410.010226 
L 405.613472 405.38381 
L 405.871301 396.858728 
L 406.041508 392.856097 
L 406.277501 385.344668 
L 406.425312 381.783887 
L 406.831511 370.139872 
L 407.429473 352.43993 
L 408.414318 324.88936 
L 409.691705 294.375804 
L 411.23308 263.004541 
L 413.039003 231.087465 
L 413.30355 227.44871 
L 413.633885 374.064529 
L 413.699672 381.030145 
L 413.699672 374.064529 
L 414.297914 355.818774 
L 415.32671 326.474817 
L 415.965823 312.049754 
L 416.119793 401.926993 
L 416.207696 422.823841 
L 416.525993 414.792589 
L 416.761986 407.541071 
L 416.954028 403.070601 
L 417.212137 394.727457 
L 417.382063 390.828791 
L 417.618056 383.447318 
L 417.766147 379.938519 
L 418.128115 370.035908 
L 418.81426 349.632891 
L 419.915282 319.171317 
L 421.192669 289.515467 
L 422.822226 257.156542 
L 424.62423 225.915235 
L 424.734528 225.187484 
L 424.858543 363.122274 
L 425.018392 414.506687 
L 425.018392 410.348111 
L 425.852627 385.578588 
L 427.013277 354.025388 
L 427.228554 450.686304 
L 427.228554 438.418503 
L 427.399041 434.831731 
L 427.442992 431.478878 
L 427.612918 428.307964 
L 427.65687 425.292996 
L 427.827076 422.407983 
L 428.063069 414.454705 
L 428.402922 407.255169 
L 428.704982 396.468861 
L 428.875188 392.492222 
L 429.111462 386.826161 
L 429.281668 457.65192 
L 429.303504 464.617536 
L 429.303504 457.65192 
L 429.901745 443.018929 
L 430.499707 428.905759 
L 430.543938 425.8648 
L 430.713865 422.953796 
L 430.757816 420.172748 
L 430.927742 417.495664 
L 431.164015 410.010226 
L 431.356057 405.38381 
L 431.613886 396.858728 
L 431.784093 392.856097 
L 432.020086 385.344668 
L 432.167897 381.783887 
L 432.574096 370.139872 
L 432.832205 362.446506 
L 432.95846 360.965013 
L 433.156661 450.686304 
L 433.156661 443.720688 
L 433.732787 429.425581 
L 433.777018 426.358631 
L 433.946945 423.447627 
L 433.990896 420.640588 
L 434.160822 417.963504 
L 434.396816 410.452075 
L 434.588858 405.799667 
L 434.846967 397.222603 
L 435.016893 393.219973 
L 435.275002 385.656562 
L 435.423093 382.09578 
L 435.785061 372.037223 
L 436.426974 352.725833 
L 437.543953 321.692454 
L 439.041656 286.968339 
L 440.760516 253.361841 
L 441.947481 232.672922 
L 443.271619 212.191932 
L 443.372399 380.43235 
L 443.461981 394.467546 
L 443.562762 428.437919 
L 443.562762 421.472303 
L 443.909893 413.596999 
L 444.203835 404.240201 
L 444.374601 399.925678 
L 444.63215 391.868436 
L 444.788919 388.073734 
L 445.024072 380.874198 
L 445.172443 377.469364 
L 445.69034 361.692763 
L 446.3986 341.107809 
L 446.986484 326.526799 
L 447.571568 314.233007 
L 447.826318 309.970466 
L 448.411402 298.742309 
L 448.666151 294.817652 
L 449.170052 286.266579 
L 449.251236 285.330899 
L 449.444397 456.300383 
L 449.444397 453.493344 
L 450.018284 440.133916 
L 450.211446 436.443179 
L 450.256237 432.986362 
L 450.427003 429.737474 
L 450.468995 426.644533 
L 450.639761 423.707538 
L 450.684552 420.900499 
L 450.852519 418.197424 
L 451.090472 410.634013 
L 451.280834 405.981605 
L 451.541182 397.352558 
L 451.709149 393.349928 
L 451.966698 385.786517 
L 452.115069 382.225736 
L 452.56578 368.970273 
L 453.206853 350.07474 
L 453.57638 339.600325 
L 454.942509 304.590307 
L 455.969906 282.393904 
L 456.224656 278.75515 
L 456.80974 269.138441 
L 457.064489 265.707616 
L 457.649574 256.63672 
L 457.904323 253.413823 
L 458.489407 244.758786 
L 458.744157 241.691835 
L 459.329241 233.452655 
L 459.583991 230.541652 
L 460.169075 222.640356 
L 460.423824 219.833317 
L 461.008909 212.243914 
L 461.263658 209.540839 
L 461.848742 202.211348 
L 462.103492 199.612237 
L 462.352643 196.363349 
L 462.484217 195.713572 
L 462.610192 412.323435 
L 462.710972 442.369151 
L 463.102894 434.909704 
L 463.296056 464.617536 
L 463.701976 452.089824 
L 464.706977 428.905759 
L 464.748968 425.8648 
L 464.919735 422.953796 
L 464.964526 420.172748 
L 465.132493 417.495664 
L 465.370445 410.010226 
L 465.560808 405.38381 
L 465.821156 396.858728 
L 465.989123 392.856097 
L 466.227076 385.344668 
L 466.372647 381.783887 
L 466.823358 368.554415 
L 467.46723 349.710864 
L 467.92354 336.793286 
L 468.93414 310.568261 
L 470.389852 278.547221 
L 471.76438 251.594446 
L 472.013531 248.475513 
L 472.598615 240.002413 
L 472.853364 236.987445 
L 473.357265 230.359714 
L 473.942349 222.458418 
L 474.197098 219.651379 
L 474.782183 212.061976 
L 475.036932 209.358902 
L 475.622016 202.02941 
L 475.876766 199.4303 
L 476.46185 192.334728 
L 476.7166 189.839582 
L 477.301684 182.977931 
L 477.556434 180.508776 
L 478.141518 173.933026 
L 478.396267 171.541845 
L 478.981352 165.07006 
L 479.236101 162.782843 
L 479.471255 161.06743 
L 479.59443 427.138364 
L 479.675614 456.300383 
L 479.675614 449.334767 
L 481.492455 404.136237 
L 481.750004 395.715119 
L 481.92077 391.764471 
L 482.155923 384.305024 
L 482.304294 380.770234 
L 482.584239 372.42709 
L 482.87818 364.603767 
L 483.835591 336.013553 
L 485.20172 301.705295 
L 486.189925 281.640162 
L 486.481067 277.143701 
L 487.029759 268.436681 
L 487.320901 264.200132 
L 487.869592 255.960951 
L 488.118743 252.738055 
L 488.54146 246.448207 
L 488.79061 243.329275 
L 489.213327 237.299339 
L 489.462477 234.284371 
L 489.885194 228.462363 
L 490.134344 225.55136 
L 490.557061 219.937281 
L 490.806211 217.130242 
L 491.228928 211.67211 
L 491.478078 208.969035 
L 491.900795 203.614868 
L 492.149945 201.015757 
L 492.572662 195.817536 
L 492.863804 192.594639 
L 493.412495 186.356774 
L 493.661646 183.861628 
L 494.084362 178.94931 
L 494.333513 176.558128 
L 494.756229 171.775765 
L 495.00538 169.384583 
L 495.428097 164.732176 
L 495.677247 162.444958 
L 496.099964 157.870524 
L 496.349114 155.583307 
L 496.771831 151.086846 
L 497.020981 148.903593 
L 497.443698 144.537088 
L 497.692848 142.353835 
L 498.115565 137.987329 
L 498.406707 135.336237 
L 498.955398 130.138016 
L 499.204549 128.058728 
L 499.627265 123.900151 
L 499.876416 121.820863 
L 500.299132 117.714268 
L 500.548283 115.738944 
L 500.970999 111.788296 
L 501.22015 109.812972 
L 501.642867 105.862325 
L 501.892017 103.887001 
L 502.314734 99.936353 
L 502.605876 97.571162 
L 503.154567 92.892763 
L 503.490501 90.553564 
L 503.613676 427.138364 
L 503.69486 456.300383 
L 503.69486 449.334767 
L 505.511701 404.136237 
L 505.76925 395.715119 
L 505.940016 391.764471 
L 506.175169 384.305024 
L 506.32354 380.770234 
L 506.603485 372.42709 
L 506.897427 364.603767 
L 507.854837 336.013553 
L 507.98921 333.570389 
L 508.162776 429.789457 
L 508.207567 436.755073 
L 508.207567 429.789457 
L 508.568696 420.952481 
L 508.806649 413.129159 
L 509.145382 406.033587 
L 509.447722 395.377235 
L 509.618488 391.452578 
L 509.853641 384.019122 
L 510.002012 380.510323 
L 510.407932 368.996264 
L 510.497514 367.436798 
L 510.687876 450.686304 
L 511.242167 438.080619 
L 511.435328 434.519838 
L 511.48012 431.192976 
L 511.648086 428.048053 
L 511.692877 425.059076 
L 511.863644 422.200054 
L 512.054006 416.793904 
L 512.291959 409.38644 
L 512.482321 404.812005 
L 512.73987 396.286923 
L 512.910636 392.310284 
L 513.14579 384.824846 
L 513.294161 381.264065 
L 513.744871 368.060584 
L 514.385944 349.269016 
L 514.755471 338.846583 
L 516.07681 304.980174 
L 517.750878 269.476326 
L 518.809069 250.528811 
L 518.982635 346.799861 
L 519.147802 400.575455 
L 519.147802 392.67416 
L 519.382955 385.162731 
L 519.721688 376.455711 
L 520.284377 359.353564 
L 521.040227 340.406049 
L 521.23059 432.596496 
L 521.294977 436.755073 
L 521.294977 432.596496 
L 521.656106 423.395645 
L 521.700897 420.588606 
L 521.871663 417.911522 
L 522.106816 410.400093 
L 522.299978 405.773676 
L 522.557527 397.196612 
L 522.728293 393.193982 
L 522.985842 385.63057 
L 523.134213 382.069789 
L 523.584924 368.840317 
L 524.032835 355.48089 
L 524.46115 343.369035 
L 525.494146 316.130358 
L 525.785288 310.750199 
L 526.166013 303.498681 
L 526.457155 298.482398 
L 527.005847 288.813707 
L 527.254997 285.070988 
L 527.677714 277.793479 
L 527.926864 274.258689 
L 528.349581 267.345055 
L 528.640723 263.134496 
L 529.189415 254.947298 
L 529.438565 251.724401 
L 529.861282 245.460545 
L 530.152424 241.613862 
L 530.701115 234.102433 
L 530.950266 231.191429 
L 531.372982 225.369422 
L 531.622133 222.562383 
L 531.832092 220.457103 
L 531.958067 397.092647 
L 532.072844 447.98323 
L 532.072844 435.403535 
L 532.450769 425.786827 
L 532.501159 422.901814 
L 532.666326 420.120766 
L 532.907079 412.375417 
L 533.240213 405.357819 
L 533.542553 394.80543 
L 533.713319 390.906765 
L 533.948473 383.525291 
L 534.096843 380.016492 
L 534.547554 366.968958 
L 535.27821 345.682243 
L 535.454575 341.809569 
L 535.563753 413.519025 
L 535.653335 436.755073 
L 536.014464 426.904444 
L 536.059255 423.967449 
L 536.227222 421.16041 
L 536.465175 413.337088 
L 536.803908 406.241516 
L 537.106248 395.585163 
L 537.44778 389.711174 
L 537.638142 464.617536 
L 537.638142 457.65192 
L 538.237224 443.018929 
L 538.620748 435.5075 
L 538.665539 432.102665 
L 538.836305 428.905759 
L 538.878297 425.8648 
L 539.264621 422.953796 
L 539.287016 450.686304 
L 539.454983 464.617536 
L 539.860903 452.089824 
L 540.865904 428.905759 
L 540.910695 425.8648 
L 541.078662 422.953796 
L 541.123453 420.172748 
L 541.294219 417.495664 
L 541.529372 410.010226 
L 541.722534 407.671027 
L 541.915696 464.617536 
L 542.321616 452.089824 
L 543.323817 428.905759 
L 543.368608 425.8648 
L 543.539374 422.953796 
L 543.584166 420.172748 
L 543.752132 417.495664 
L 543.990085 410.010226 
L 544.180448 405.38381 
L 544.437997 396.858728 
L 544.608763 392.856097 
L 544.843916 385.344668 
L 545.140658 380.042483 
L 545.333819 450.686304 
L 545.658555 441.901311 
L 546.254837 428.048053 
L 546.299628 425.059076 
L 546.470394 422.200054 
L 546.660757 416.793904 
L 546.89871 409.38644 
L 547.089072 404.812005 
L 547.346621 396.286923 
L 547.517387 392.310284 
L 547.752541 384.824846 
L 547.900911 381.264065 
L 548.351622 368.060584 
L 548.992695 349.269016 
L 549.362222 338.846583 
L 550.683561 304.980174 
L 552.399621 268.618619 
L 554.250055 235.22005 
L 555.308245 218.715699 
L 555.507006 316.338287 
L 555.702967 381.030145 
L 555.747758 372.42709 
L 556.198469 358.677795 
L 556.302049 357.248285 
L 556.49521 450.686304 
L 556.49521 443.720688 
L 557.071896 429.425581 
L 557.113888 426.358631 
L 557.284654 423.447627 
L 557.329445 420.640588 
L 557.500211 417.963504 
L 557.690574 412.869248 
L 557.735365 410.452075 
L 557.950922 408.086885 
L 558.099293 436.755073 
L 558.16368 464.617536 
L 558.740366 457.65192 
L 558.933528 478.548768 
L 558.933528 464.617536 
L 559.361843 452.089824 
L 560.364045 428.905759 
L 560.408836 425.8648 
L 560.579602 422.953796 
L 560.624393 420.172748 
L 560.79236 417.495664 
L 561.030313 410.010226 
L 561.220675 405.38381 
L 561.478224 396.858728 
L 561.64899 392.856097 
L 561.884144 385.344668 
L 562.032514 381.783887 
L 562.483225 368.554415 
L 563.124298 349.710864 
L 563.493825 339.288432 
L 564.859955 304.330396 
L 565.960137 280.366598 
L 567.678997 247.69578 
L 568.955544 225.993208 
L 570.937552 195.531634 
L 573.227499 163.926451 
L 574.042137 154.205778 
L 574.285689 260.457412 
L 574.548837 339.236449 
L 574.593628 337.988876 
L 575.517446 313.713185 
L 577.101932 278.495239 
L 578.739608 247.643798 
L 578.988758 244.524866 
L 579.411475 238.442947 
L 579.725013 235.427979 
L 579.850988 412.323435 
L 580.14493 464.617536 
L 580.14493 442.369151 
L 580.741212 428.385937 
L 580.786003 425.370969 
L 580.956769 422.485956 
L 581.147131 417.079807 
L 581.385084 409.646351 
L 581.575447 405.045925 
L 581.832996 396.520843 
L 582.003762 392.544204 
L 582.238915 385.058766 
L 582.387286 381.497985 
L 582.837997 368.294504 
L 583.347496 353.583539 
L 583.437078 352.20601 
L 583.649836 436.755073 
L 584.013764 426.904444 
L 584.055756 423.967449 
L 584.226522 421.16041 
L 584.461675 413.337088 
L 584.803208 406.241516 
L 585.105548 395.585163 
L 585.273515 391.634516 
L 585.511468 384.175069 
L 585.659838 380.66627 
L 585.939783 372.323125 
L 586.233725 364.499803 
L 587.191135 335.96157 
L 587.300313 334.739988 
L 587.52147 436.755073 
L 587.52147 429.789457 
L 587.882598 420.952481 
L 588.120551 413.129159 
L 588.459284 406.033587 
L 588.761624 395.377235 
L 588.93239 391.452578 
L 589.167544 384.019122 
L 589.315915 380.510323 
L 589.766625 367.436798 
L 590.539272 344.772555 
L 591.818619 310.854164 
L 592.829219 287.981992 
L 592.985988 286.110632 
L 593.181949 389.737165 
L 593.271532 408.892609 
L 593.33032 406.579401 
L 593.890209 390.049058 
L 594.164555 384.512953 
L 594.363316 464.617536 
L 594.363316 457.65192 
L 594.962397 443.018929 
L 595.561478 428.905759 
L 595.60347 425.8648 
L 595.774236 422.953796 
L 595.819027 420.172748 
L 595.986994 417.495664 
L 596.224947 410.010226 
L 596.415309 405.38381 
L 596.586076 401.017304 
L 596.779237 398.912025 
L 596.86602 450.686304 
L 596.9696 464.617536 
L 597.375519 452.089824 
L 598.380521 428.905759 
L 598.764045 425.8648 
L 598.78644 450.686304 
L 598.957206 464.617536 
L 599.363126 452.089824 
L 600.368127 428.905759 
L 600.410119 425.8648 
L 600.580885 422.953796 
L 600.625676 420.172748 
L 600.796442 417.495664 
L 600.986805 412.427399 
L 601.266749 403.174566 
L 601.437515 398.912025 
L 601.695065 390.932756 
L 601.865831 389.035405 
L 602.036597 449.126838 
L 602.078589 464.617536 
L 602.078589 457.65192 
L 602.67767 443.018929 
L 603.061194 435.5075 
L 603.105985 432.102665 
L 603.276751 428.905759 
L 603.321543 425.8648 
L 603.489509 422.953796 
L 603.534301 420.172748 
L 603.705067 417.495664 
L 603.895429 412.427399 
L 604.175374 403.174566 
L 604.34614 398.912025 
L 604.603689 390.932756 
L 604.752059 387.164046 
L 604.987213 380.042483 
L 605.135584 376.637648 
L 605.653481 360.965013 
L 606.31695 341.83556 
L 607.638288 307.423338 
L 609.180783 274.128733 
L 610.280965 253.205894 
L 610.896843 243.017382 
L 611.073208 337.027206 
L 611.249574 394.961377 
L 611.294365 386.150393 
L 611.655493 375.72796 
L 612.232179 358.703787 
L 612.615703 348.931131 
L 612.814464 436.755073 
L 613.175592 426.904444 
L 613.220383 423.967449 
L 613.39115 421.16041 
L 613.581512 415.858225 
L 613.819465 408.528733 
L 614.009827 404.006281 
L 614.267376 395.585163 
L 614.438142 391.634516 
L 614.673296 384.175069 
L 614.821667 380.66627 
L 615.272377 367.566753 
L 616.003033 346.176074 
L 617.192797 314.129043 
L 617.654706 304.694272 
L 617.853467 415.858225 
L 617.917854 422.823841 
L 617.917854 415.858225 
L 618.236991 408.528733 
L 618.539331 397.61247 
L 618.710097 393.583848 
L 618.967646 385.994446 
L 619.116017 382.407674 
L 619.395961 373.960565 
L 619.689903 366.033278 
L 620.532536 340.977853 
L 621.456353 316.312295 
L 622.270992 298.664336 
L 622.469753 415.858225 
L 622.53414 422.823841 
L 622.53414 415.858225 
L 622.853277 408.528733 
L 623.155617 397.61247 
L 623.326383 393.583848 
L 623.583932 385.994446 
L 623.925465 378.950857 
L 624.115827 450.686304 
L 624.670117 438.080619 
L 624.863279 434.519838 
L 624.905271 431.192976 
L 625.076037 428.048053 
L 625.120828 425.059076 
L 625.291594 422.200054 
L 625.481957 416.793904 
L 625.71991 409.38644 
L 625.910272 404.812005 
L 626.167821 396.286923 
L 626.338587 392.310284 
L 626.573741 384.824846 
L 626.722111 381.264065 
L 627.172822 368.060584 
L 627.813895 349.269016 
L 628.183422 338.846583 
L 629.504761 304.980174 
L 631.220821 268.618619 
L 633.071255 235.22005 
L 633.292411 232.283056 
L 633.491172 330.867314 
L 633.667537 381.030145 
L 633.709528 379.288741 
L 635.084056 339.9642 
L 635.193235 413.519025 
L 635.280017 436.755073 
L 635.643945 426.904444 
L 635.688737 423.967449 
L 635.856703 421.16041 
L 636.094656 413.337088 
L 636.433389 406.241516 
L 636.735729 395.585163 
L 636.906496 391.634516 
L 637.141649 384.175069 
L 637.29002 380.66627 
L 637.782722 366.033278 
L 637.953488 361.510826 
L 638.910899 333.518406 
L 640.363811 297.676674 
L 641.895108 265.81158 
L 642.144259 262.484719 
L 642.566975 255.908969 
L 642.712546 255.103245 
L 642.838522 412.323435 
L 642.939302 442.369151 
L 643.331224 431.556852 
L 643.714748 428.385937 
L 643.737144 450.686304 
L 643.90791 464.617536 
L 644.31383 452.089824 
L 645.318831 428.905759 
L 645.360822 425.8648 
L 645.531589 422.953796 
L 645.57638 420.172748 
L 645.747146 417.495664 
L 645.937508 412.427399 
L 646.217453 403.174566 
L 646.388219 398.912025 
L 646.645768 390.932756 
L 646.794139 387.164046 
L 647.029292 380.042483 
L 647.177663 376.637648 
L 647.69556 360.965013 
L 648.359029 341.83556 
L 649.680367 307.423338 
L 650.231858 296.325136 
L 650.427819 389.737165 
L 650.517402 408.892609 
L 650.57619 406.579401 
L 651.136079 390.049058 
L 653.25246 328.943972 
L 654.484217 298.794291 
L 654.596195 297.806629 
L 654.814551 410.348111 
L 654.878939 414.506687 
L 654.878939 410.348111 
L 654.926529 408.008911 
L 655.116891 405.721694 
L 655.220471 450.686304 
L 655.455624 464.617536 
L 655.861544 452.089824 
L 656.866545 428.905759 
L 656.911336 425.8648 
L 657.082103 422.953796 
L 657.124094 420.172748 
L 657.29486 417.495664 
L 657.530014 410.010226 
L 657.723176 405.38381 
L 657.980725 396.858728 
L 658.151491 392.856097 
L 658.386644 385.344668 
L 658.535015 381.783887 
L 658.985726 368.554415 
L 659.626799 349.710864 
L 659.996326 339.288432 
L 660.964934 313.765167 
L 662.54942 278.547221 
L 664.248684 246.916047 
L 664.503434 243.797115 
L 664.920551 237.741187 
L 665.175301 234.726219 
L 665.760385 226.720959 
L 666.015135 223.861938 
L 666.600219 216.14258 
L 666.854968 213.413514 
L 667.440052 205.980058 
L 667.694802 203.328965 
L 668.279886 196.181412 
L 668.534636 193.582301 
L 669.11972 186.72065 
L 669.37447 184.225504 
L 669.959554 177.519799 
L 670.214303 175.128617 
L 670.799388 168.552868 
L 671.054137 166.213669 
L 671.639221 159.923821 
L 671.893971 157.636604 
L 672.479055 151.42473 
L 672.733805 149.241477 
L 672.946563 147.058225 
L 673.092134 146.512412 
L 673.218109 397.092647 
L 673.332886 447.98323 
L 673.332886 435.403535 
L 673.710811 425.786827 
L 673.761201 422.901814 
L 673.926369 420.120766 
L 674.167121 412.375417 
L 674.382678 409.958244 
L 674.503055 436.755073 
L 674.743807 464.617536 
L 675.149727 452.089824 
L 676.154728 428.905759 
L 676.199519 425.8648 
L 676.367486 422.953796 
L 676.412277 420.172748 
L 676.583043 417.495664 
L 676.818196 410.010226 
L 677.011358 405.38381 
L 677.268907 396.858728 
L 677.439673 392.856097 
L 677.674827 385.344668 
L 677.823197 381.783887 
L 678.103142 373.336778 
L 678.399883 365.461474 
L 679.018561 347.033781 
L 680.253117 313.765167 
L 681.353299 288.657761 
L 682.123146 274.128733 
L 682.344303 401.926993 
L 682.411489 408.892609 
L 682.431086 401.926993 
L 682.579456 397.716434 
L 682.839805 389.815138 
L 682.985376 386.09841 
L 683.223329 379.02883 
L 683.371699 375.675978 
L 683.842006 361.588799 
L 684.799417 333.570389 
L 686.070365 301.705295 
L 686.361508 296.740994 
L 686.742232 289.983307 
L 686.991383 286.240588 
L 687.414099 278.911096 
L 687.66325 275.376306 
L 688.085966 268.436681 
L 688.377109 264.200132 
L 688.9258 255.960951 
L 689.174951 252.738055 
L 689.597667 246.448207 
L 689.846818 243.329275 
L 690.269534 237.299339 
L 690.518685 234.284371 
L 690.941401 228.462363 
L 691.190552 225.55136 
L 691.613268 219.937281 
L 691.862419 217.130242 
L 692.285135 211.67211 
L 692.534286 208.969035 
L 692.957002 203.614868 
L 693.206153 201.015757 
L 693.628869 195.817536 
L 693.920012 192.594639 
L 694.468703 186.356774 
L 694.717854 183.861628 
L 695.14057 178.94931 
L 695.389721 176.558128 
L 695.812437 171.775765 
L 696.061588 169.384583 
L 696.484304 164.732176 
L 696.733455 162.444958 
L 697.156171 157.870524 
L 697.405322 155.583307 
L 697.828038 151.086846 
L 698.077189 148.903593 
L 698.499905 144.537088 
L 698.749056 142.353835 
L 699.171772 137.987329 
L 699.462915 135.336237 
L 700.011606 130.138016 
L 700.260757 128.058728 
L 700.683473 123.900151 
L 700.932624 121.820863 
L 701.187373 119.221752 
L 701.332945 118.70193 
L 701.45892 412.323435 
L 701.5597 442.369151 
L 702.528308 417.079807 
L 702.763461 409.646351 
L 702.956623 405.045925 
L 703.214172 396.520843 
L 703.384938 392.544204 
L 703.620092 385.058766 
L 703.768462 381.497985 
L 704.219173 368.294504 
L 704.667085 354.987059 
L 705.0954 342.875204 
L 706.495123 306.175765 
L 706.91224 298.092531 
L 707.16699 294.167875 
L 707.752074 283.797424 
L 708.006824 280.15867 
L 708.510724 272.153409 
L 709.095808 262.822603 
L 709.350558 259.495742 
L 709.767675 253.023957 
L 710.022425 249.853042 
L 710.607509 241.32796 
L 710.862259 238.312992 
L 711.447343 230.177776 
L 711.702092 227.266772 
L 712.205993 220.872961 
L 712.791077 213.231576 
L 713.045826 210.528501 
L 713.594518 203.822796 
L 713.740089 203.173019 
L 713.866064 397.092647 
L 713.980841 447.98323 
L 713.980841 435.403535 
L 714.358766 425.786827 
L 714.409157 422.901814 
L 714.574324 420.120766 
L 714.815076 412.375417 
L 715.14821 405.357819 
L 715.45055 394.80543 
L 715.621317 390.906765 
L 715.85647 383.525291 
L 716.004841 380.016492 
L 716.368769 370.113881 
L 717.096625 349.684873 
L 718.345178 314.830803 
L 718.63352 309.476635 
L 718.924663 304.304405 
L 719.509747 293.388142 
L 719.912867 288.631769 
L 720.013647 380.43235 
L 720.10323 394.467546 
L 720.20401 428.437919 
L 720.20401 421.472303 
L 720.551141 413.596999 
L 720.845083 404.240201 
L 721.015849 399.925678 
L 721.172618 395.819083 
L 721.273398 393.817768 
L 721.385376 422.823841 
L 721.474958 464.617536 
L 721.474958 457.65192 
L 722.07124 443.018929 
L 722.457564 435.5075 
L 722.499555 432.102665 
L 722.670321 428.905759 
L 722.715113 425.8648 
L 722.885879 422.953796 
L 722.927871 420.172748 
L 723.098637 417.495664 
L 723.33379 410.010226 
L 723.526952 405.38381 
L 723.784501 396.858728 
L 723.955267 392.856097 
L 724.190421 385.344668 
L 724.338791 381.783887 
L 724.789502 368.554415 
L 725.430575 349.710864 
L 725.800102 339.288432 
L 726.76871 313.765167 
L 728.090049 284.005353 
L 728.176832 283.095664 
L 728.420383 401.926993 
L 728.484771 408.892609 
L 728.484771 401.926993 
L 728.745119 393.687813 
L 728.89349 389.815138 
L 729.128643 382.485647 
L 729.277014 379.02883 
L 729.747321 364.577776 
L 730.477976 343.602955 
L 730.998673 331.179207 
L 731.189036 432.596496 
L 731.253423 436.755073 
L 731.253423 432.596496 
L 731.614551 423.395645 
L 731.659342 420.588606 
L 731.830109 417.911522 
L 732.065262 410.400093 
L 732.258424 405.773676 
L 732.515973 397.196612 
L 732.686739 393.193982 
L 732.944288 385.63057 
L 733.092659 382.069789 
L 733.54337 368.840317 
L 733.991281 355.48089 
L 734.332813 347.293692 
L 734.531574 436.755073 
L 734.892702 426.904444 
L 734.937494 423.967449 
L 735.10546 421.16041 
L 735.343413 413.337088 
L 735.682146 406.241516 
L 735.984486 395.585163 
L 736.155253 391.634516 
L 736.390406 384.175069 
L 736.538777 380.66627 
L 736.989487 367.566753 
L 737.762135 344.850528 
L 739.041481 310.932137 
L 739.819727 293.778008 
L 740.068878 289.931325 
L 740.491594 282.497869 
L 740.740745 278.859114 
L 741.163461 271.815525 
L 741.412612 268.384699 
L 741.790537 262.484719 
L 741.916512 261.653003 
L 742.017292 380.43235 
L 742.106875 394.467546 
L 742.207655 428.437919 
L 742.207655 421.472303 
L 742.554786 413.596999 
L 742.848728 404.240201 
L 743.019494 399.925678 
L 743.277043 391.868436 
L 743.433812 388.073734 
L 743.668966 380.874198 
L 743.817336 377.469364 
L 744.335234 361.692763 
L 745.043493 341.107809 
L 745.631377 326.526799 
L 746.216461 314.233007 
L 746.471211 309.970466 
L 747.056295 298.742309 
L 747.311045 294.817652 
L 747.896129 284.395219 
L 748.19567 280.756465 
L 748.321645 412.323435 
L 748.422425 442.369151 
L 749.242662 422.485956 
L 749.391033 450.686304 
L 749.435824 464.617536 
L 749.841744 452.089824 
L 750.843945 428.905759 
L 750.888737 425.8648 
L 751.059503 422.953796 
L 751.104294 420.172748 
L 751.272261 417.495664 
L 751.510214 410.010226 
L 751.700576 405.38381 
L 751.958125 396.858728 
L 752.128891 392.856097 
L 752.366844 385.344668 
L 752.512415 381.783887 
L 752.963126 368.554415 
L 753.606999 349.710864 
L 754.060509 336.793286 
L 754.788365 319.24929 
L 754.942334 401.926993 
L 755.031917 422.823841 
L 755.348254 414.792589 
L 755.586207 407.541071 
L 755.776569 403.070601 
L 756.034118 394.727457 
L 756.204884 390.828791 
L 756.440038 383.447318 
L 756.588409 379.938519 
L 757.039119 366.916975 
L 757.769775 345.630261 
L 759.091113 310.490288 
L 760.544026 278.469248 
L 762.005336 251.516473 
L 762.260086 248.39754 
L 762.84517 239.92444 
L 763.09992 236.909472 
L 763.60382 230.28174 
L 764.188904 222.380445 
L 764.443654 219.573406 
L 765.028738 211.984003 
L 765.283488 209.280928 
L 765.868572 201.977428 
L 766.000146 201.32765 
L 766.126121 412.323435 
L 766.145717 421.784196 
L 766.361274 442.369151 
L 788.283736 450.686304 
L 788.294933 457.963814 
L 793.863031 465.241323 
L 799.921032 478.548768 
L 800.346548 457.65192 
L 801.161187 439.120263 
L 801.351549 435.5075 
L 801.39634 432.102665 
L 801.567107 428.905759 
L 801.609098 425.8648 
L 801.779864 422.953796 
L 801.824656 420.172748 
L 801.995422 417.495664 
L 802.185784 412.427399 
L 802.465729 403.174566 
L 802.636495 398.912025 
L 802.894044 390.932756 
L 803.042415 387.164046 
L 803.277568 380.042483 
L 803.425939 376.637648 
L 803.941037 360.965013 
L 804.43094 347.033781 
L 805.309966 322.602143 
L 806.85246 286.786401 
L 808.526529 254.011619 
L 809.450346 238.494929 
L 809.693898 347.579594 
L 809.825472 381.030145 
L 809.870263 379.288741 
L 812.56333 304.850219 
L 814.237399 269.398352 
L 814.920464 257.676364 
L 815.119224 360.133297 
L 815.250798 394.961377 
L 815.295589 392.986053 
L 815.869476 376.741613 
L 816.387373 361.068977 
L 816.490953 359.613475 
L 816.684115 464.617536 
L 816.896872 439.74405 
L 817.090034 436.079304 
L 817.132026 432.648478 
L 817.302792 429.425581 
L 817.347583 426.358631 
L 817.518349 423.447627 
L 817.560341 420.640588 
L 817.731107 417.963504 
L 817.966261 410.452075 
L 818.159423 405.799667 
L 818.416972 397.222603 
L 818.587738 393.219973 
L 818.845287 385.656562 
L 819.060844 382.09578 
L 819.273602 464.617536 
L 819.273602 457.65192 
L 819.872684 443.018929 
L 820.468966 428.905759 
L 820.513757 425.8648 
L 820.684523 422.953796 
L 820.729314 420.172748 
L 820.897281 417.495664 
L 821.135234 410.010226 
L 821.325596 405.38381 
L 821.583145 396.858728 
L 821.753911 392.856097 
L 821.989065 385.344668 
L 822.137435 381.783887 
L 822.588146 368.554415 
L 823.229219 349.710864 
L 823.598746 339.288432 
L 824.964876 304.330396 
L 826.065058 280.366598 
L 827.783918 247.69578 
L 829.060465 225.993208 
L 829.964686 212.737745 
L 830.205439 318.339602 
L 830.381804 367.098913 
L 830.426595 365.565438 
L 831.045272 347.111754 
L 832.279828 313.817149 
L 833.38001 288.709743 
L 834.149858 274.180716 
L 834.348619 374.870253 
L 834.457797 408.892609 
L 834.502588 399.795722 
L 834.821725 391.73848 
L 835.101669 382.485647 
L 835.25004 379.02883 
L 835.720347 364.577776 
L 836.451002 343.602955 
L 837.685558 310.984119 
L 838.416213 294.791661 
L 838.665364 290.944978 
L 839.08808 283.45954 
L 839.337231 279.820785 
L 839.759948 272.725214 
L 840.009098 269.294388 
L 840.431815 262.536701 
L 840.680965 259.209839 
L 841.103682 252.738055 
L 841.394824 248.787407 
L 841.943515 241.068049 
L 842.192666 238.053081 
L 842.615382 232.101118 
L 842.864533 229.190114 
L 843.074492 226.27911 
L 843.200467 225.55136 
L 843.301247 380.43235 
L 843.390829 394.467546 
L 843.491609 428.437919 
L 843.491609 421.472303 
L 843.83874 413.596999 
L 844.132682 404.240201 
L 844.303448 399.925678 
L 844.560997 391.868436 
L 844.717766 388.073734 
L 844.95292 380.874198 
L 845.10129 377.469364 
L 845.619188 361.692763 
L 846.327448 341.107809 
L 846.660582 331.231189 
L 846.814551 330.035599 
L 846.937727 427.138364 
L 847.018911 456.300383 
L 847.018911 449.334767 
L 848.835751 404.136237 
L 849.0933 395.715119 
L 849.264066 391.764471 
L 849.49922 384.305024 
L 849.647591 380.770234 
L 849.927535 372.42709 
L 850.221477 364.603767 
L 850.784166 347.553603 
L 850.893344 346.228056 
L 851.002522 413.519025 
L 851.106102 436.755073 
L 851.47003 426.904444 
L 851.514821 423.967449 
L 851.682788 421.16041 
L 851.920741 413.337088 
L 852.259474 406.241516 
L 852.561814 395.585163 
L 852.73258 391.634516 
L 852.967733 384.175069 
L 853.116104 380.66627 
L 853.608807 366.033278 
L 853.757177 364.499803 
L 853.972735 450.686304 
L 853.972735 443.720688 
L 854.54942 429.425581 
L 854.591412 426.358631 
L 854.762178 423.447627 
L 854.806969 420.640588 
L 854.977736 417.963504 
L 855.019727 415.364394 
L 855.235285 412.869248 
L 855.448043 464.617536 
L 855.856762 452.089824 
L 856.06952 447.307461 
L 856.497835 443.018929 
L 856.690997 464.617536 
L 857.096916 452.089824 
L 858.099118 428.905759 
L 858.143909 425.8648 
L 858.314675 422.953796 
L 858.359466 420.172748 
L 858.527433 417.495664 
L 858.765386 410.010226 
L 858.955748 405.38381 
L 859.213297 396.858728 
L 859.384064 392.856097 
L 859.622016 385.344668 
L 859.767588 381.783887 
L 860.218298 368.554415 
L 860.862171 349.710864 
L 861.318481 336.793286 
L 862.329081 310.568261 
L 863.784793 278.547221 
L 864.532245 263.836256 
L 864.641423 263.004541 
L 864.862579 368.632388 
L 864.971758 394.961377 
L 865.016549 392.986053 
L 865.593235 376.741613 
L 866.153124 359.613475 
L 866.713013 343.187097 
L 866.998557 336.845268 
L 867.219713 436.755073 
L 867.219713 429.789457 
L 867.580841 420.952481 
L 867.818794 413.129159 
L 868.157527 406.033587 
L 868.459867 395.377235 
L 868.630634 391.452578 
L 868.865787 384.019122 
L 869.014158 380.510323 
L 869.464868 367.436798 
L 870.237515 344.772555 
L 871.516862 310.854164 
L 872.527462 287.981992 
L 874.291113 253.439814 
L 876.22833 220.561067 
L 877.552468 200.937784 
L 877.801618 198.338673 
L 878.224335 193.166444 
L 878.473485 190.671298 
L 878.896202 185.681006 
L 879.145352 183.18586 
L 879.568069 178.325523 
L 879.81722 175.934342 
L 880.239936 171.151978 
L 880.489087 168.760797 
L 880.911803 164.13438 
L 881.160954 161.847163 
L 881.58367 157.272729 
L 881.832821 154.985512 
L 882.255537 150.515042 
L 882.401108 149.969228 
L 882.527083 412.323435 
L 882.627863 442.369151 
L 883.596472 417.079807 
L 883.831625 409.646351 
L 884.024787 405.045925 
L 884.282336 396.520843 
L 884.453102 392.544204 
L 884.688255 385.058766 
L 884.836626 381.497985 
L 885.287337 368.294504 
L 885.735248 354.987059 
L 886.163563 342.875204 
L 887.563286 306.175765 
L 887.980404 298.092531 
L 888.235153 294.167875 
L 888.820238 283.797424 
L 889.074987 280.15867 
L 889.578888 272.153409 
L 890.163972 262.822603 
L 890.418721 259.495742 
L 890.835839 253.023957 
L 891.090588 249.853042 
L 891.675673 241.32796 
L 891.930422 238.312992 
L 892.515506 230.177776 
L 892.770256 227.266772 
L 893.274156 220.872961 
L 893.654881 215.960642 
L 893.780856 215.258882 
L 893.85924 386.150393 
L 893.948823 400.393518 
L 894.049603 428.437919 
L 894.396734 419.782881 
L 894.634687 412.089515 
L 894.97342 407.359134 
L 895.166582 464.617536 
L 895.572501 452.089824 
L 896.574703 428.905759 
L 896.619494 425.8648 
L 896.79026 422.953796 
L 896.835051 420.172748 
L 897.003018 417.495664 
L 897.240971 410.010226 
L 897.431333 405.38381 
L 897.688882 396.858728 
L 897.859649 392.856097 
L 898.05281 389.035405 
L 898.243173 464.617536 
L 898.243173 457.65192 
L 898.842254 443.018929 
L 899.225778 435.5075 
L 899.270569 432.102665 
L 899.441336 428.905759 
L 899.486127 425.8648 
L 899.654093 422.953796 
L 899.698885 420.172748 
L 899.869651 417.495664 
L 900.060013 412.427399 
L 900.339958 403.174566 
L 900.510724 398.912025 
L 900.768273 390.932756 
L 900.916644 387.164046 
L 901.151797 380.042483 
L 901.300168 376.637648 
L 901.818065 360.965013 
L 902.481534 341.83556 
L 903.802872 307.423338 
L 905.345367 274.128733 
L 906.445549 253.205894 
L 908.382766 220.353139 
L 908.713101 216.14258 
L 908.911861 316.338287 
L 909.110622 381.030145 
L 909.155413 372.42709 
L 909.603324 358.677795 
L 910.03164 346.228056 
L 910.823883 325.331209 
L 911.078632 320.782765 
L 911.582533 310.984119 
L 911.99965 302.718948 
L 912.2544 298.716318 
L 912.839484 288.111947 
L 913.094233 284.369228 
L 913.679318 274.492609 
L 913.934067 271.009801 
L 914.102034 268.436681 
L 914.250405 267.578975 
L 914.351185 380.43235 
L 914.440767 394.467546 
L 914.541547 428.437919 
L 914.541547 421.472303 
L 914.888678 413.596999 
L 915.18262 404.240201 
L 915.353386 399.925678 
L 915.610935 391.868436 
L 915.767704 388.073734 
L 916.002858 380.874198 
L 916.151228 377.469364 
L 916.669126 361.692763 
L 917.377386 341.107809 
L 917.965269 326.526799 
L 918.550354 314.233007 
L 918.805103 309.970466 
L 919.390187 298.742309 
L 919.644937 294.817652 
L 920.230021 284.395219 
L 920.484771 280.756465 
L 920.988671 272.751205 
L 921.237822 268.462673 
L 921.391791 267.604966 
L 921.514967 427.138364 
L 921.596151 456.300383 
L 921.596151 449.334767 
L 922.858701 421.368339 
L 923.007072 436.755073 
L 923.071459 464.617536 
L 923.477378 452.089824 
L 923.886098 443.018929 
L 924.314413 439.120263 
L 924.504775 464.617536 
L 924.910695 452.089824 
L 925.915696 428.905759 
L 925.960487 425.8648 
L 926.128454 422.953796 
L 926.173245 420.172748 
L 926.344011 417.495664 
L 926.579165 410.010226 
L 926.772326 405.38381 
L 927.029875 396.858728 
L 927.200642 392.856097 
L 927.435795 385.344668 
L 927.584166 381.783887 
L 928.034876 368.554415 
L 928.482788 355.220979 
L 928.911103 343.109124 
L 929.882511 318.131673 
L 930.03648 401.926993 
L 930.123263 422.823841 
L 930.316425 420.042792 
L 930.487191 450.686304 
L 930.529183 464.617536 
L 930.935102 452.089824 
L 931.940104 428.905759 
L 931.984895 425.8648 
L 932.155661 422.953796 
L 932.197653 420.172748 
L 932.368419 417.495664 
L 932.603572 410.010226 
L 932.796734 405.38381 
L 933.054283 396.858728 
L 933.225049 392.856097 
L 933.460203 385.344668 
L 933.608573 381.783887 
L 934.059284 368.554415 
L 934.700357 349.710864 
L 934.871123 347.033781 
L 934.980302 413.519025 
L 935.083881 436.755073 
L 935.447809 426.904444 
L 935.4926 423.967449 
L 935.660567 421.16041 
L 935.89852 413.337088 
L 936.237253 406.241516 
L 936.539593 395.585163 
L 936.710359 391.634516 
L 936.945513 384.175069 
L 937.093884 380.66627 
L 937.329037 373.960565 
L 937.477408 372.323125 
L 937.625778 433.948033 
L 937.692965 450.686304 
L 938.247255 438.080619 
L 938.437618 434.519838 
L 938.482409 431.192976 
L 938.653175 428.048053 
L 938.695167 425.059076 
L 938.865933 422.200054 
L 939.101086 414.246776 
L 939.442619 407.073231 
L 939.744959 396.286923 
L 939.912926 392.310284 
L 940.150878 384.824846 
L 940.299249 381.264065 
L 940.579194 372.816956 
L 940.873136 364.967643 
L 941.75776 338.846583 
L 943.079099 304.980174 
L 944.753168 269.476326 
L 946.690384 234.466308 
L 949.246278 194.699919 
L 951.449442 164.342309 
L 951.933746 158.624266 
L 952.110112 250.632775 
L 952.418051 353.167681 
L 952.440446 346.202065 
L 952.57202 353.167681 
L 952.658803 343.576964 
L 953.473442 323.018 
L 953.716994 422.823841 
L 954.03613 414.792589 
L 954.226493 409.880271 
L 954.506437 400.91334 
L 954.677203 396.754763 
L 954.934752 388.931441 
L 955.231494 381.679923 
L 955.682205 368.476442 
L 956.174907 353.739486 
L 956.544434 343.031151 
L 957.381468 320.288934 
L 957.490647 319.171317 
L 957.644616 401.926993 
L 957.731399 422.823841 
L 958.050536 414.792589 
L 958.285689 407.541071 
L 958.478851 403.070601 
L 958.7364 394.727457 
L 958.907166 390.828791 
L 959.14232 383.447318 
L 959.29069 379.938519 
L 959.741401 366.916975 
L 960.472057 345.630261 
L 961.395874 320.288934 
L 961.485456 319.171317 
L 961.639426 401.926993 
L 961.726208 422.823841 
L 962.045345 414.792589 
L 962.280499 407.541071 
L 962.47366 403.070601 
L 962.731209 394.727457 
L 962.901976 390.828791 
L 963.137129 383.447318 
L 963.2855 379.938519 
L 963.736211 366.916975 
L 964.24571 352.361957 
L 965.124736 327.124595 
L 966.084946 304.252423 
L 966.339695 300.197811 
L 966.574849 297.234825 
L 966.698024 427.138364 
L 966.779208 456.300383 
L 966.779208 449.334767 
L 967.162732 440.783694 
L 967.546256 437.040975 
L 967.739418 464.617536 
L 968.145338 452.089824 
L 969.150339 428.905759 
L 969.192331 425.8648 
L 969.363097 422.953796 
L 969.407888 420.172748 
L 969.578654 417.495664 
L 969.769017 412.427399 
L 970.048961 403.174566 
L 970.219727 398.912025 
L 970.477276 390.932756 
L 970.625647 387.164046 
L 970.8608 380.042483 
L 971.009171 376.637648 
L 971.527069 360.965013 
L 972.190537 341.83556 
L 973.511876 307.423338 
L 974.788423 280.366598 
L 975.031975 401.926993 
L 975.096362 408.892609 
L 975.096362 401.926993 
L 975.353911 393.687813 
L 975.502282 389.815138 
L 975.740235 382.485647 
L 975.930597 379.02883 
L 976.123759 450.686304 
L 976.678049 438.080619 
L 976.871211 434.519838 
L 976.913203 431.192976 
L 977.083969 428.048053 
L 977.12876 425.059076 
L 977.489888 419.444997 
L 977.53468 450.686304 
L 977.68305 464.617536 
L 978.08897 452.089824 
L 979.091172 428.905759 
L 979.135963 425.8648 
L 979.306729 422.953796 
L 979.35152 420.172748 
L 979.519487 417.495664 
L 979.75744 410.010226 
L 979.947802 405.38381 
L 980.205351 396.858728 
L 980.376117 392.856097 
L 980.61407 385.344668 
L 980.759641 381.783887 
L 981.210352 368.554415 
L 981.851425 349.710864 
L 982.220952 339.288432 
L 982.705256 327.202568 
L 982.881621 429.789457 
L 982.926412 436.755073 
L 982.926412 429.789457 
L 983.287541 420.952481 
L 983.522694 413.129159 
L 983.864227 406.033587 
L 984.166567 395.377235 
L 984.337333 391.452578 
L 984.572487 384.019122 
L 984.720857 380.510323 
L 985.000802 372.19317 
L 985.294744 364.395838 
L 986.252154 335.883597 
L 987.618284 301.575339 
L 989.160779 269.164432 
L 990.347744 247.123976 
L 992.111395 217.754028 
L 992.220573 217.052268 
L 992.396938 299.755962 
L 992.682482 381.030145 
L 992.682482 374.064529 
L 993.623095 346.228056 
L 994.289364 327.644417 
L 994.580506 321.900383 
L 995.129197 310.984119 
L 995.42034 305.759907 
L 995.969031 295.753332 
L 996.218182 291.906649 
L 996.218182 291.906649 
" clip-path="url(#pf8f603cec0)" style="fill: none; stroke: #1f77b4; stroke-width: 1.5; stroke-linecap: square"/>
   </g>
   <g id="patch_3">
    <path d="M 144 512.64 
L 144 69.12 
" style="fill: none; stroke: #000000; stroke-width: 0.8; stroke-linejoin: miter; stroke-linecap: square"/>
   </g>
   <g id="patch_4">
    <path d="M 1036.8 512.64 
L 1036.8 69.12 
" style="fill: none; stroke: #000000; stroke-width: 0.8; stroke-linejoin: miter; stroke-linecap: square"/>
   </g>
   <g id="patch_5">
    <path d="M 144 512.64 
L 1036.8 512.64 
" style="fill: none; stroke: #000000; stroke-width: 0.8; stroke-linejoin: miter; stroke-linecap: square"/>
   </g>
   <g id="patch_6">
    <path d="M 144 69.12 
L 1036.8 69.12 
" style="fill: none; stroke: #000000; stroke-width: 0.8; stroke-linejoin: miter; stroke-linecap: square"/>
   </g>
   <g id="text_19">
    <!-- Graph of congestion window vs Time result/apprate4 -->
    <g transform="translate(418.222109 63.12) scale(0.13 -0.13)">
     <defs>
      <path id="DejaVuSans-47" d="M 3809 666 
L 3809 1919 
L 2778 1919 
L 2778 2438 
L 4434 2438 
L 4434 434 
Q 4069 175 3628 42 
Q 3188 -91 2688 -91 
Q 1594 -91 976 548 
Q 359 1188 359 2328 
Q 359 3472 976 4111 
Q 1594 4750 2688 4750 
Q 3144 4750 3555 4637 
Q 3966 4525 4313 4306 
L 4313 3634 
Q 3963 3931 3569 4081 
Q 3175 4231 2741 4231 
Q 1884 4231 1454 3753 
Q 1025 3275 1025 2328 
Q 1025 1384 1454 906 
Q 1884 428 2741 428 
Q 3075 428 3337 486 
Q 3600 544 3809 666 
z
" transform="scale(0.015625)"/>
      <path id="DejaVuSans-72" d="M 2631 2963 
Q 2534 3019 2420 3045 
Q 2306 3072 2169 3072 
Q 1681 3072 1420 2755 
Q 1159 2438 1159 1844 
L 1159 0 
L 581 0 
L 581 3500 
L 1159 3500 
L 1159 2956 
Q 1341 3275 1631 3429 
Q 1922 3584 2338 3584 
Q 2397 3584 2469 3576 
Q 2541 3569 2628 3553 
L 2631 2963 
z
" transform="scale(0.015625)"/>
      <path id="DejaVuSans-61" d="M 2194 1759 
Q 1497 1759 1228 1600 
Q 959 1441 959 1056 
Q 959 750 1161 570 
Q 1363 391 1709 391 
Q 2188 391 2477 730 
Q 2766 1069 2766 1631 
L 2766 1759 
L 2194 1759 
z
M 3341 1997 
L 3341 0 
L 2766 0 
L 2766 531 
Q 2569 213 2275 61 
Q 1981 -91 1556 -91 
Q 1019 -91 701 211 
Q 384 513 384 1019 
Q 384 1609 779 1909 
Q 1175 2209 1959 2209 
L 2766 2209 
L 2766 2266 
Q 2766 2663 2505 2880 
Q 2244 3097 1772 3097 
Q 1472 3097 1187 3025 
Q 903 2953 641 2809 
L 641 3341 
Q 956 3463 1253 3523 
Q 1550 3584 1831 3584 
Q 2591 3584 2966 3190 
Q 3341 2797 3341 1997 
z
" transform="scale(0.015625)"/>
      <path id="DejaVuSans-70" d="M 1159 525 
L 1159 -1331 
L 581 -1331 
L 581 3500 
L 1159 3500 
L 1159 2969 
Q 1341 3281 1617 3432 
Q 1894 3584 2278 3584 
Q 2916 3584 3314 3078 
Q 3713 2572 3713 1747 
Q 3713 922 3314 415 
Q 2916 -91 2278 -91 
Q 1894 -91 1617 61 
Q 1341 213 1159 525 
z
M 3116 1747 
Q 3116 2381 2855 2742 
Q 2594 3103 2138 3103 
Q 1681 3103 1420 2742 
Q 1159 2381 1159 1747 
Q 1159 1113 1420 752 
Q 1681 391 2138 391 
Q 2594 391 2855 752 
Q 3116 1113 3116 1747 
z
" transform="scale(0.015625)"/>
      <path id="DejaVuSans-68" d="M 3513 2113 
L 3513 0 
L 2938 0 
L 2938 2094 
Q 2938 2591 2744 2837 
Q 2550 3084 2163 3084 
Q 1697 3084 1428 2787 
Q 1159 2491 1159 1978 
L 1159 0 
L 581 0 
L 581 4863 
L 1159 4863 
L 1159 2956 
Q 1366 3272 1645 3428 
Q 1925 3584 2291 3584 
Q 2894 3584 3203 3211 
Q 3513 2838 3513 2113 
z
" transform="scale(0.015625)"/>
      <path id="DejaVuSans-66" d="M 2375 4863 
L 2375 4384 
L 1825 4384 
Q 1516 4384 1395 4259 
Q 1275 4134 1275 3809 
L 1275 3500 
L 2222 3500 
L 2222 3053 
L 1275 3053 
L 1275 0 
L 697 0 
L 697 3053 
L 147 3053 
L 147 3500 
L 697 3500 
L 697 3744 
Q 697 4328 969 4595 
Q 1241 4863 1831 4863 
L 2375 4863 
z
" transform="scale(0.015625)"/>
      <path id="DejaVuSans-76" d="M 191 3500 
L 800 3500 
L 1894 563 
L 2988 3500 
L 3597 3500 
L 2284 0 
L 1503 0 
L 191 3500 
z
" transform="scale(0.015625)"/>
      <path id="DejaVuSans-75" d="M 544 1381 
L 544 3500 
L 1119 3500 
L 1119 1403 
Q 1119 906 1312 657 
Q 1506 409 1894 409 
Q 2359 409 2629 706 
Q 2900 1003 2900 1516 
L 2900 3500 
L 3475 3500 
L 3475 0 
L 2900 0 
L 2900 538 
Q 2691 219 2414 64 
Q 2138 -91 1772 -91 
Q 1169 -91 856 284 
Q 544 659 544 1381 
z
M 1991 3584 
L 1991 3584 
z
" transform="scale(0.015625)"/>
      <path id="DejaVuSans-6c" d="M 603 4863 
L 1178 4863 
L 1178 0 
L 603 0 
L 603 4863 
z
" transform="scale(0.015625)"/>
      <path id="DejaVuSans-2f" d="M 1625 4666 
L 2156 4666 
L 531 -594 
L 0 -594 
L 1625 4666 
z
" transform="scale(0.015625)"/>
     </defs>
     <use xlink:href="#DejaVuSans-47"/>
     <use xlink:href="#DejaVuSans-72" x="77.490234"/>
     <use xlink:href="#DejaVuSans-61" x="118.603516"/>
     <use xlink:href="#DejaVuSans-70" x="179.882812"/>
     <use xlink:href="#DejaVuSans-68" x="243.359375"/>
     <use xlink:href="#DejaVuSans-20" x="306.738281"/>
     <use xlink:href="#DejaVuSans-6f" x="338.525391"/>
     <use xlink:href="#DejaVuSans-66" x="399.707031"/>
     <use xlink:href="#DejaVuSans-20" x="434.912109"/>
     <use xlink:href="#DejaVuSans-63" x="466.699219"/>
     <use xlink:href="#DejaVuSans-6f" x="521.679688"/>
     <use xlink:href="#DejaVuSans-6e" x="582.861328"/>
     <use xlink:href="#DejaVuSans-67" x="646.240234"/>
     <use xlink:href="#DejaVuSans-65" x="709.716797"/>
     <use xlink:href="#DejaVuSans-73" x="771.240234"/>
     <use xlink:href="#DejaVuSans-74" x="823.339844"/>
     <use xlink:href="#DejaVuSans-69" x="862.548828"/>
     <use xlink:href="#DejaVuSans-6f" x="890.332031"/>
     <use xlink:href="#DejaVuSans-6e" x="951.513672"/>
     <use xlink:href="#DejaVuSans-20" x="1014.892578"/>
     <use xlink:href="#DejaVuSans-77" x="1046.679688"/>
     <use xlink:href="#DejaVuSans-69" x="1128.466797"/>
     <use xlink:href="#DejaVuSans-6e" x="1156.25"/>
     <use xlink:href="#DejaVuSans-64" x="1219.628906"/>
     <use xlink:href="#DejaVuSans-6f" x="1283.105469"/>
     <use xlink:href="#DejaVuSans-77" x="1344.287109"/>
     <use xlink:href="#DejaVuSans-20" x="1426.074219"/>
     <use xlink:href="#DejaVuSans-76" x="1457.861328"/>
     <use xlink:href="#DejaVuSans-73" x="1517.041016"/>
     <use xlink:href="#DejaVuSans-20" x="1569.140625"/>
     <use xlink:href="#DejaVuSans-54" x="1600.927734"/>
     <use xlink:href="#DejaVuSans-69" x="1658.886719"/>
     <use xlink:href="#DejaVuSans-6d" x="1686.669922"/>
     <use xlink:href="#DejaVuSans-65" x="1784.082031"/>
     <use xlink:href="#DejaVuSans-20" x="1845.605469"/>
     <use xlink:href="#DejaVuSans-72" x="1877.392578"/>
     <use xlink:href="#DejaVuSans-65" x="1916.255859"/>
     <use xlink:href="#DejaVuSans-73" x="1977.779297"/>
     <use xlink:href="#DejaVuSans-75" x="2029.878906"/>
     <use xlink:href="#DejaVuSans-6c" x="2093.257812"/>
     <use xlink:href="#DejaVuSans-74" x="2121.041016"/>
     <use xlink:href="#DejaVuSans-2f" x="2160.25"/>
     <use xlink:href="#DejaVuSans-61" x="2193.941406"/>
     <use xlink:href="#DejaVuSans-70" x="2255.220703"/>
     <use xlink:href="#DejaVuSans-70" x="2318.697266"/>
     <use xlink:href="#DejaVuSans-72" x="2382.173828"/>
     <use xlink:href="#DejaVuSans-61" x="2423.287109"/>
     <use xlink:href="#DejaVuSans-74" x="2484.566406"/>
     <use xlink:href="#DejaVuSans-65" x="2523.775391"/>
     <use xlink:href="#DejaVuSans-34" x="2585.298828"/>
    </g>
   </g>
  </g>
 </g>
 <defs>
  <clipPath id="pf8f603cec0">
   <rect x="144" y="69.12" width="892.8" height="443.52"/>
  </clipPath>
 </defs>
</svg>
