<?xml version="1.0" encoding="utf-8" standalone="no"?>
<!DOCTYPE svg PUBLIC "-//W3C//DTD SVG 1.1//EN"
  "http://www.w3.org/Graphics/SVG/1.1/DTD/svg11.dtd">
<svg xmlns:xlink="http://www.w3.org/1999/xlink" width="1152pt" height="576pt" viewBox="0 0 1152 576" xmlns="http://www.w3.org/2000/svg" version="1.1">
 <metadata>
  <rdf:RDF xmlns:dc="http://purl.org/dc/elements/1.1/" xmlns:cc="http://creativecommons.org/ns#" xmlns:rdf="http://www.w3.org/1999/02/22-rdf-syntax-ns#">
   <cc:Work>
    <dc:type rdf:resource="http://purl.org/dc/dcmitype/StillImage"/>
    <dc:date>2023-01-05T15:16:14.181629</dc:date>
    <dc:format>image/svg+xml</dc:format>
    <dc:creator>
     <cc:Agent>
      <dc:title>Matplotlib v3.6.2, https://matplotlib.org/</dc:title>
     </cc:Agent>
    </dc:creator>
   </cc:Work>
  </rdf:RDF>
 </metadata>
 <defs>
  <style type="text/css">*{stroke-linejoin: round; stroke-linecap: butt}</style>
 </defs>
 <g id="figure_1">
  <g id="patch_1">
   <path d="M 0 576 
L 1152 576 
L 1152 0 
L 0 0 
z
" style="fill: #ffffff"/>
  </g>
  <g id="axes_1">
   <g id="patch_2">
    <path d="M 144 512.64 
L 1036.8 512.64 
L 1036.8 69.12 
L 144 69.12 
z
" style="fill: #ffffff"/>
   </g>
   <g id="matplotlib.axis_1">
    <g id="xtick_1">
     <g id="line2d_1">
      <defs>
       <path id="m0138fe6fad" d="M 0 0 
L 0 3.5 
" style="stroke: #000000; stroke-width: 0.8"/>
      </defs>
      <g>
       <use xlink:href="#m0138fe6fad" x="156.415873" y="512.64" style="stroke: #000000; stroke-width: 0.8"/>
      </g>
     </g>
     <g id="text_1">
      <!-- 0 -->
      <g transform="translate(153.234623 527.238438) scale(0.1 -0.1)">
       <defs>
        <path id="DejaVuSans-30" d="M 2034 4250 
Q 1547 4250 1301 3770 
Q 1056 3291 1056 2328 
Q 1056 1369 1301 889 
Q 1547 409 2034 409 
Q 2525 409 2770 889 
Q 3016 1369 3016 2328 
Q 3016 3291 2770 3770 
Q 2525 4250 2034 4250 
z
M 2034 4750 
Q 2819 4750 3233 4129 
Q 3647 3509 3647 2328 
Q 3647 1150 3233 529 
Q 2819 -91 2034 -91 
Q 1250 -91 836 529 
Q 422 1150 422 2328 
Q 422 3509 836 4129 
Q 1250 4750 2034 4750 
z
" transform="scale(0.015625)"/>
       </defs>
       <use xlink:href="#DejaVuSans-30"/>
      </g>
     </g>
    </g>
    <g id="xtick_2">
     <g id="line2d_2">
      <g>
       <use xlink:href="#m0138fe6fad" x="296.384791" y="512.64" style="stroke: #000000; stroke-width: 0.8"/>
      </g>
     </g>
     <g id="text_2">
      <!-- 5 -->
      <g transform="translate(293.203541 527.238438) scale(0.1 -0.1)">
       <defs>
        <path id="DejaVuSans-35" d="M 691 4666 
L 3169 4666 
L 3169 4134 
L 1269 4134 
L 1269 2991 
Q 1406 3038 1543 3061 
Q 1681 3084 1819 3084 
Q 2600 3084 3056 2656 
Q 3513 2228 3513 1497 
Q 3513 744 3044 326 
Q 2575 -91 1722 -91 
Q 1428 -91 1123 -41 
Q 819 9 494 109 
L 494 744 
Q 775 591 1075 516 
Q 1375 441 1709 441 
Q 2250 441 2565 725 
Q 2881 1009 2881 1497 
Q 2881 1984 2565 2268 
Q 2250 2553 1709 2553 
Q 1456 2553 1204 2497 
Q 953 2441 691 2322 
L 691 4666 
z
" transform="scale(0.015625)"/>
       </defs>
       <use xlink:href="#DejaVuSans-35"/>
      </g>
     </g>
    </g>
    <g id="xtick_3">
     <g id="line2d_3">
      <g>
       <use xlink:href="#m0138fe6fad" x="436.353708" y="512.64" style="stroke: #000000; stroke-width: 0.8"/>
      </g>
     </g>
     <g id="text_3">
      <!-- 10 -->
      <g transform="translate(429.991208 527.238438) scale(0.1 -0.1)">
       <defs>
        <path id="DejaVuSans-31" d="M 794 531 
L 1825 531 
L 1825 4091 
L 703 3866 
L 703 4441 
L 1819 4666 
L 2450 4666 
L 2450 531 
L 3481 531 
L 3481 0 
L 794 0 
L 794 531 
z
" transform="scale(0.015625)"/>
       </defs>
       <use xlink:href="#DejaVuSans-31"/>
       <use xlink:href="#DejaVuSans-30" x="63.623047"/>
      </g>
     </g>
    </g>
    <g id="xtick_4">
     <g id="line2d_4">
      <g>
       <use xlink:href="#m0138fe6fad" x="576.322626" y="512.64" style="stroke: #000000; stroke-width: 0.8"/>
      </g>
     </g>
     <g id="text_4">
      <!-- 15 -->
      <g transform="translate(569.960126 527.238438) scale(0.1 -0.1)">
       <use xlink:href="#DejaVuSans-31"/>
       <use xlink:href="#DejaVuSans-35" x="63.623047"/>
      </g>
     </g>
    </g>
    <g id="xtick_5">
     <g id="line2d_5">
      <g>
       <use xlink:href="#m0138fe6fad" x="716.291544" y="512.64" style="stroke: #000000; stroke-width: 0.8"/>
      </g>
     </g>
     <g id="text_5">
      <!-- 20 -->
      <g transform="translate(709.929044 527.238438) scale(0.1 -0.1)">
       <defs>
        <path id="DejaVuSans-32" d="M 1228 531 
L 3431 531 
L 3431 0 
L 469 0 
L 469 531 
Q 828 903 1448 1529 
Q 2069 2156 2228 2338 
Q 2531 2678 2651 2914 
Q 2772 3150 2772 3378 
Q 2772 3750 2511 3984 
Q 2250 4219 1831 4219 
Q 1534 4219 1204 4116 
Q 875 4013 500 3803 
L 500 4441 
Q 881 4594 1212 4672 
Q 1544 4750 1819 4750 
Q 2544 4750 2975 4387 
Q 3406 4025 3406 3419 
Q 3406 3131 3298 2873 
Q 3191 2616 2906 2266 
Q 2828 2175 2409 1742 
Q 1991 1309 1228 531 
z
" transform="scale(0.015625)"/>
       </defs>
       <use xlink:href="#DejaVuSans-32"/>
       <use xlink:href="#DejaVuSans-30" x="63.623047"/>
      </g>
     </g>
    </g>
    <g id="xtick_6">
     <g id="line2d_6">
      <g>
       <use xlink:href="#m0138fe6fad" x="856.260462" y="512.64" style="stroke: #000000; stroke-width: 0.8"/>
      </g>
     </g>
     <g id="text_6">
      <!-- 25 -->
      <g transform="translate(849.897962 527.238438) scale(0.1 -0.1)">
       <use xlink:href="#DejaVuSans-32"/>
       <use xlink:href="#DejaVuSans-35" x="63.623047"/>
      </g>
     </g>
    </g>
    <g id="xtick_7">
     <g id="line2d_7">
      <g>
       <use xlink:href="#m0138fe6fad" x="996.229379" y="512.64" style="stroke: #000000; stroke-width: 0.8"/>
      </g>
     </g>
     <g id="text_7">
      <!-- 30 -->
      <g transform="translate(989.866879 527.238438) scale(0.1 -0.1)">
       <defs>
        <path id="DejaVuSans-33" d="M 2597 2516 
Q 3050 2419 3304 2112 
Q 3559 1806 3559 1356 
Q 3559 666 3084 287 
Q 2609 -91 1734 -91 
Q 1441 -91 1130 -33 
Q 819 25 488 141 
L 488 750 
Q 750 597 1062 519 
Q 1375 441 1716 441 
Q 2309 441 2620 675 
Q 2931 909 2931 1356 
Q 2931 1769 2642 2001 
Q 2353 2234 1838 2234 
L 1294 2234 
L 1294 2753 
L 1863 2753 
Q 2328 2753 2575 2939 
Q 2822 3125 2822 3475 
Q 2822 3834 2567 4026 
Q 2313 4219 1838 4219 
Q 1578 4219 1281 4162 
Q 984 4106 628 3988 
L 628 4550 
Q 988 4650 1302 4700 
Q 1616 4750 1894 4750 
Q 2613 4750 3031 4423 
Q 3450 4097 3450 3541 
Q 3450 3153 3228 2886 
Q 3006 2619 2597 2516 
z
" transform="scale(0.015625)"/>
       </defs>
       <use xlink:href="#DejaVuSans-33"/>
       <use xlink:href="#DejaVuSans-30" x="63.623047"/>
      </g>
     </g>
    </g>
    <g id="text_8">
     <!-- Time in seconds -->
     <g transform="translate(537.870859 543.196094) scale(0.13 -0.13)">
      <defs>
       <path id="DejaVuSans-54" d="M -19 4666 
L 3928 4666 
L 3928 4134 
L 2272 4134 
L 2272 0 
L 1638 0 
L 1638 4134 
L -19 4134 
L -19 4666 
z
" transform="scale(0.015625)"/>
       <path id="DejaVuSans-69" d="M 603 3500 
L 1178 3500 
L 1178 0 
L 603 0 
L 603 3500 
z
M 603 4863 
L 1178 4863 
L 1178 4134 
L 603 4134 
L 603 4863 
z
" transform="scale(0.015625)"/>
       <path id="DejaVuSans-6d" d="M 3328 2828 
Q 3544 3216 3844 3400 
Q 4144 3584 4550 3584 
Q 5097 3584 5394 3201 
Q 5691 2819 5691 2113 
L 5691 0 
L 5113 0 
L 5113 2094 
Q 5113 2597 4934 2840 
Q 4756 3084 4391 3084 
Q 3944 3084 3684 2787 
Q 3425 2491 3425 1978 
L 3425 0 
L 2847 0 
L 2847 2094 
Q 2847 2600 2669 2842 
Q 2491 3084 2119 3084 
Q 1678 3084 1418 2786 
Q 1159 2488 1159 1978 
L 1159 0 
L 581 0 
L 581 3500 
L 1159 3500 
L 1159 2956 
Q 1356 3278 1631 3431 
Q 1906 3584 2284 3584 
Q 2666 3584 2933 3390 
Q 3200 3197 3328 2828 
z
" transform="scale(0.015625)"/>
       <path id="DejaVuSans-65" d="M 3597 1894 
L 3597 1613 
L 953 1613 
Q 991 1019 1311 708 
Q 1631 397 2203 397 
Q 2534 397 2845 478 
Q 3156 559 3463 722 
L 3463 178 
Q 3153 47 2828 -22 
Q 2503 -91 2169 -91 
Q 1331 -91 842 396 
Q 353 884 353 1716 
Q 353 2575 817 3079 
Q 1281 3584 2069 3584 
Q 2775 3584 3186 3129 
Q 3597 2675 3597 1894 
z
M 3022 2063 
Q 3016 2534 2758 2815 
Q 2500 3097 2075 3097 
Q 1594 3097 1305 2825 
Q 1016 2553 972 2059 
L 3022 2063 
z
" transform="scale(0.015625)"/>
       <path id="DejaVuSans-20" transform="scale(0.015625)"/>
       <path id="DejaVuSans-6e" d="M 3513 2113 
L 3513 0 
L 2938 0 
L 2938 2094 
Q 2938 2591 2744 2837 
Q 2550 3084 2163 3084 
Q 1697 3084 1428 2787 
Q 1159 2491 1159 1978 
L 1159 0 
L 581 0 
L 581 3500 
L 1159 3500 
L 1159 2956 
Q 1366 3272 1645 3428 
Q 1925 3584 2291 3584 
Q 2894 3584 3203 3211 
Q 3513 2838 3513 2113 
z
" transform="scale(0.015625)"/>
       <path id="DejaVuSans-73" d="M 2834 3397 
L 2834 2853 
Q 2591 2978 2328 3040 
Q 2066 3103 1784 3103 
Q 1356 3103 1142 2972 
Q 928 2841 928 2578 
Q 928 2378 1081 2264 
Q 1234 2150 1697 2047 
L 1894 2003 
Q 2506 1872 2764 1633 
Q 3022 1394 3022 966 
Q 3022 478 2636 193 
Q 2250 -91 1575 -91 
Q 1294 -91 989 -36 
Q 684 19 347 128 
L 347 722 
Q 666 556 975 473 
Q 1284 391 1588 391 
Q 1994 391 2212 530 
Q 2431 669 2431 922 
Q 2431 1156 2273 1281 
Q 2116 1406 1581 1522 
L 1381 1569 
Q 847 1681 609 1914 
Q 372 2147 372 2553 
Q 372 3047 722 3315 
Q 1072 3584 1716 3584 
Q 2034 3584 2315 3537 
Q 2597 3491 2834 3397 
z
" transform="scale(0.015625)"/>
       <path id="DejaVuSans-63" d="M 3122 3366 
L 3122 2828 
Q 2878 2963 2633 3030 
Q 2388 3097 2138 3097 
Q 1578 3097 1268 2742 
Q 959 2388 959 1747 
Q 959 1106 1268 751 
Q 1578 397 2138 397 
Q 2388 397 2633 464 
Q 2878 531 3122 666 
L 3122 134 
Q 2881 22 2623 -34 
Q 2366 -91 2075 -91 
Q 1284 -91 818 406 
Q 353 903 353 1747 
Q 353 2603 823 3093 
Q 1294 3584 2113 3584 
Q 2378 3584 2631 3529 
Q 2884 3475 3122 3366 
z
" transform="scale(0.015625)"/>
       <path id="DejaVuSans-6f" d="M 1959 3097 
Q 1497 3097 1228 2736 
Q 959 2375 959 1747 
Q 959 1119 1226 758 
Q 1494 397 1959 397 
Q 2419 397 2687 759 
Q 2956 1122 2956 1747 
Q 2956 2369 2687 2733 
Q 2419 3097 1959 3097 
z
M 1959 3584 
Q 2709 3584 3137 3096 
Q 3566 2609 3566 1747 
Q 3566 888 3137 398 
Q 2709 -91 1959 -91 
Q 1206 -91 779 398 
Q 353 888 353 1747 
Q 353 2609 779 3096 
Q 1206 3584 1959 3584 
z
" transform="scale(0.015625)"/>
       <path id="DejaVuSans-64" d="M 2906 2969 
L 2906 4863 
L 3481 4863 
L 3481 0 
L 2906 0 
L 2906 525 
Q 2725 213 2448 61 
Q 2172 -91 1784 -91 
Q 1150 -91 751 415 
Q 353 922 353 1747 
Q 353 2572 751 3078 
Q 1150 3584 1784 3584 
Q 2172 3584 2448 3432 
Q 2725 3281 2906 2969 
z
M 947 1747 
Q 947 1113 1208 752 
Q 1469 391 1925 391 
Q 2381 391 2643 752 
Q 2906 1113 2906 1747 
Q 2906 2381 2643 2742 
Q 2381 3103 1925 3103 
Q 1469 3103 1208 2742 
Q 947 2381 947 1747 
z
" transform="scale(0.015625)"/>
      </defs>
      <use xlink:href="#DejaVuSans-54"/>
      <use xlink:href="#DejaVuSans-69" x="57.958984"/>
      <use xlink:href="#DejaVuSans-6d" x="85.742188"/>
      <use xlink:href="#DejaVuSans-65" x="183.154297"/>
      <use xlink:href="#DejaVuSans-20" x="244.677734"/>
      <use xlink:href="#DejaVuSans-69" x="276.464844"/>
      <use xlink:href="#DejaVuSans-6e" x="304.248047"/>
      <use xlink:href="#DejaVuSans-20" x="367.626953"/>
      <use xlink:href="#DejaVuSans-73" x="399.414062"/>
      <use xlink:href="#DejaVuSans-65" x="451.513672"/>
      <use xlink:href="#DejaVuSans-63" x="513.037109"/>
      <use xlink:href="#DejaVuSans-6f" x="568.017578"/>
      <use xlink:href="#DejaVuSans-6e" x="629.199219"/>
      <use xlink:href="#DejaVuSans-64" x="692.578125"/>
      <use xlink:href="#DejaVuSans-73" x="756.054688"/>
     </g>
    </g>
   </g>
   <g id="matplotlib.axis_2">
    <g id="ytick_1">
     <g id="line2d_8">
      <defs>
       <path id="md30fcaf358" d="M 0 0 
L -3.5 0 
" style="stroke: #000000; stroke-width: 0.8"/>
      </defs>
      <g>
       <use xlink:href="#md30fcaf358" x="144" y="492.48" style="stroke: #000000; stroke-width: 0.8"/>
      </g>
     </g>
     <g id="text_9">
      <!-- 0 -->
      <g transform="translate(130.6375 496.279219) scale(0.1 -0.1)">
       <use xlink:href="#DejaVuSans-30"/>
      </g>
     </g>
    </g>
    <g id="ytick_2">
     <g id="line2d_9">
      <g>
       <use xlink:href="#md30fcaf358" x="144" y="434.30154" style="stroke: #000000; stroke-width: 0.8"/>
      </g>
     </g>
     <g id="text_10">
      <!-- 2500 -->
      <g transform="translate(111.55 438.100759) scale(0.1 -0.1)">
       <use xlink:href="#DejaVuSans-32"/>
       <use xlink:href="#DejaVuSans-35" x="63.623047"/>
       <use xlink:href="#DejaVuSans-30" x="127.246094"/>
       <use xlink:href="#DejaVuSans-30" x="190.869141"/>
      </g>
     </g>
    </g>
    <g id="ytick_3">
     <g id="line2d_10">
      <g>
       <use xlink:href="#md30fcaf358" x="144" y="376.12308" style="stroke: #000000; stroke-width: 0.8"/>
      </g>
     </g>
     <g id="text_11">
      <!-- 5000 -->
      <g transform="translate(111.55 379.922299) scale(0.1 -0.1)">
       <use xlink:href="#DejaVuSans-35"/>
       <use xlink:href="#DejaVuSans-30" x="63.623047"/>
       <use xlink:href="#DejaVuSans-30" x="127.246094"/>
       <use xlink:href="#DejaVuSans-30" x="190.869141"/>
      </g>
     </g>
    </g>
    <g id="ytick_4">
     <g id="line2d_11">
      <g>
       <use xlink:href="#md30fcaf358" x="144" y="317.94462" style="stroke: #000000; stroke-width: 0.8"/>
      </g>
     </g>
     <g id="text_12">
      <!-- 7500 -->
      <g transform="translate(111.55 321.743838) scale(0.1 -0.1)">
       <defs>
        <path id="DejaVuSans-37" d="M 525 4666 
L 3525 4666 
L 3525 4397 
L 1831 0 
L 1172 0 
L 2766 4134 
L 525 4134 
L 525 4666 
z
" transform="scale(0.015625)"/>
       </defs>
       <use xlink:href="#DejaVuSans-37"/>
       <use xlink:href="#DejaVuSans-35" x="63.623047"/>
       <use xlink:href="#DejaVuSans-30" x="127.246094"/>
       <use xlink:href="#DejaVuSans-30" x="190.869141"/>
      </g>
     </g>
    </g>
    <g id="ytick_5">
     <g id="line2d_12">
      <g>
       <use xlink:href="#md30fcaf358" x="144" y="259.76616" style="stroke: #000000; stroke-width: 0.8"/>
      </g>
     </g>
     <g id="text_13">
      <!-- 10000 -->
      <g transform="translate(105.1875 263.565378) scale(0.1 -0.1)">
       <use xlink:href="#DejaVuSans-31"/>
       <use xlink:href="#DejaVuSans-30" x="63.623047"/>
       <use xlink:href="#DejaVuSans-30" x="127.246094"/>
       <use xlink:href="#DejaVuSans-30" x="190.869141"/>
       <use xlink:href="#DejaVuSans-30" x="254.492188"/>
      </g>
     </g>
    </g>
    <g id="ytick_6">
     <g id="line2d_13">
      <g>
       <use xlink:href="#md30fcaf358" x="144" y="201.587699" style="stroke: #000000; stroke-width: 0.8"/>
      </g>
     </g>
     <g id="text_14">
      <!-- 12500 -->
      <g transform="translate(105.1875 205.386918) scale(0.1 -0.1)">
       <use xlink:href="#DejaVuSans-31"/>
       <use xlink:href="#DejaVuSans-32" x="63.623047"/>
       <use xlink:href="#DejaVuSans-35" x="127.246094"/>
       <use xlink:href="#DejaVuSans-30" x="190.869141"/>
       <use xlink:href="#DejaVuSans-30" x="254.492188"/>
      </g>
     </g>
    </g>
    <g id="ytick_7">
     <g id="line2d_14">
      <g>
       <use xlink:href="#md30fcaf358" x="144" y="143.409239" style="stroke: #000000; stroke-width: 0.8"/>
      </g>
     </g>
     <g id="text_15">
      <!-- 15000 -->
      <g transform="translate(105.1875 147.208458) scale(0.1 -0.1)">
       <use xlink:href="#DejaVuSans-31"/>
       <use xlink:href="#DejaVuSans-35" x="63.623047"/>
       <use xlink:href="#DejaVuSans-30" x="127.246094"/>
       <use xlink:href="#DejaVuSans-30" x="190.869141"/>
       <use xlink:href="#DejaVuSans-30" x="254.492188"/>
      </g>
     </g>
    </g>
    <g id="ytick_8">
     <g id="line2d_15">
      <g>
       <use xlink:href="#md30fcaf358" x="144" y="85.230779" style="stroke: #000000; stroke-width: 0.8"/>
      </g>
     </g>
     <g id="text_16">
      <!-- 17500 -->
      <g transform="translate(105.1875 89.029998) scale(0.1 -0.1)">
       <use xlink:href="#DejaVuSans-31"/>
       <use xlink:href="#DejaVuSans-37" x="63.623047"/>
       <use xlink:href="#DejaVuSans-35" x="127.246094"/>
       <use xlink:href="#DejaVuSans-30" x="190.869141"/>
       <use xlink:href="#DejaVuSans-30" x="254.492188"/>
      </g>
     </g>
    </g>
    <g id="text_17">
     <!-- Congestion Window Sizes -->
     <g transform="translate(98.483906 373.964219) rotate(-90) scale(0.13 -0.13)">
      <defs>
       <path id="DejaVuSans-43" d="M 4122 4306 
L 4122 3641 
Q 3803 3938 3442 4084 
Q 3081 4231 2675 4231 
Q 1875 4231 1450 3742 
Q 1025 3253 1025 2328 
Q 1025 1406 1450 917 
Q 1875 428 2675 428 
Q 3081 428 3442 575 
Q 3803 722 4122 1019 
L 4122 359 
Q 3791 134 3420 21 
Q 3050 -91 2638 -91 
Q 1578 -91 968 557 
Q 359 1206 359 2328 
Q 359 3453 968 4101 
Q 1578 4750 2638 4750 
Q 3056 4750 3426 4639 
Q 3797 4528 4122 4306 
z
" transform="scale(0.015625)"/>
       <path id="DejaVuSans-67" d="M 2906 1791 
Q 2906 2416 2648 2759 
Q 2391 3103 1925 3103 
Q 1463 3103 1205 2759 
Q 947 2416 947 1791 
Q 947 1169 1205 825 
Q 1463 481 1925 481 
Q 2391 481 2648 825 
Q 2906 1169 2906 1791 
z
M 3481 434 
Q 3481 -459 3084 -895 
Q 2688 -1331 1869 -1331 
Q 1566 -1331 1297 -1286 
Q 1028 -1241 775 -1147 
L 775 -588 
Q 1028 -725 1275 -790 
Q 1522 -856 1778 -856 
Q 2344 -856 2625 -561 
Q 2906 -266 2906 331 
L 2906 616 
Q 2728 306 2450 153 
Q 2172 0 1784 0 
Q 1141 0 747 490 
Q 353 981 353 1791 
Q 353 2603 747 3093 
Q 1141 3584 1784 3584 
Q 2172 3584 2450 3431 
Q 2728 3278 2906 2969 
L 2906 3500 
L 3481 3500 
L 3481 434 
z
" transform="scale(0.015625)"/>
       <path id="DejaVuSans-74" d="M 1172 4494 
L 1172 3500 
L 2356 3500 
L 2356 3053 
L 1172 3053 
L 1172 1153 
Q 1172 725 1289 603 
Q 1406 481 1766 481 
L 2356 481 
L 2356 0 
L 1766 0 
Q 1100 0 847 248 
Q 594 497 594 1153 
L 594 3053 
L 172 3053 
L 172 3500 
L 594 3500 
L 594 4494 
L 1172 4494 
z
" transform="scale(0.015625)"/>
       <path id="DejaVuSans-57" d="M 213 4666 
L 850 4666 
L 1831 722 
L 2809 4666 
L 3519 4666 
L 4500 722 
L 5478 4666 
L 6119 4666 
L 4947 0 
L 4153 0 
L 3169 4050 
L 2175 0 
L 1381 0 
L 213 4666 
z
" transform="scale(0.015625)"/>
       <path id="DejaVuSans-77" d="M 269 3500 
L 844 3500 
L 1563 769 
L 2278 3500 
L 2956 3500 
L 3675 769 
L 4391 3500 
L 4966 3500 
L 4050 0 
L 3372 0 
L 2619 2869 
L 1863 0 
L 1184 0 
L 269 3500 
z
" transform="scale(0.015625)"/>
       <path id="DejaVuSans-53" d="M 3425 4513 
L 3425 3897 
Q 3066 4069 2747 4153 
Q 2428 4238 2131 4238 
Q 1616 4238 1336 4038 
Q 1056 3838 1056 3469 
Q 1056 3159 1242 3001 
Q 1428 2844 1947 2747 
L 2328 2669 
Q 3034 2534 3370 2195 
Q 3706 1856 3706 1288 
Q 3706 609 3251 259 
Q 2797 -91 1919 -91 
Q 1588 -91 1214 -16 
Q 841 59 441 206 
L 441 856 
Q 825 641 1194 531 
Q 1563 422 1919 422 
Q 2459 422 2753 634 
Q 3047 847 3047 1241 
Q 3047 1584 2836 1778 
Q 2625 1972 2144 2069 
L 1759 2144 
Q 1053 2284 737 2584 
Q 422 2884 422 3419 
Q 422 4038 858 4394 
Q 1294 4750 2059 4750 
Q 2388 4750 2728 4690 
Q 3069 4631 3425 4513 
z
" transform="scale(0.015625)"/>
       <path id="DejaVuSans-7a" d="M 353 3500 
L 3084 3500 
L 3084 2975 
L 922 459 
L 3084 459 
L 3084 0 
L 275 0 
L 275 525 
L 2438 3041 
L 353 3041 
L 353 3500 
z
" transform="scale(0.015625)"/>
      </defs>
      <use xlink:href="#DejaVuSans-43"/>
      <use xlink:href="#DejaVuSans-6f" x="69.824219"/>
      <use xlink:href="#DejaVuSans-6e" x="131.005859"/>
      <use xlink:href="#DejaVuSans-67" x="194.384766"/>
      <use xlink:href="#DejaVuSans-65" x="257.861328"/>
      <use xlink:href="#DejaVuSans-73" x="319.384766"/>
      <use xlink:href="#DejaVuSans-74" x="371.484375"/>
      <use xlink:href="#DejaVuSans-69" x="410.693359"/>
      <use xlink:href="#DejaVuSans-6f" x="438.476562"/>
      <use xlink:href="#DejaVuSans-6e" x="499.658203"/>
      <use xlink:href="#DejaVuSans-20" x="563.037109"/>
      <use xlink:href="#DejaVuSans-57" x="594.824219"/>
      <use xlink:href="#DejaVuSans-69" x="691.451172"/>
      <use xlink:href="#DejaVuSans-6e" x="719.234375"/>
      <use xlink:href="#DejaVuSans-64" x="782.613281"/>
      <use xlink:href="#DejaVuSans-6f" x="846.089844"/>
      <use xlink:href="#DejaVuSans-77" x="907.271484"/>
      <use xlink:href="#DejaVuSans-20" x="989.058594"/>
      <use xlink:href="#DejaVuSans-53" x="1020.845703"/>
      <use xlink:href="#DejaVuSans-69" x="1084.322266"/>
      <use xlink:href="#DejaVuSans-7a" x="1112.105469"/>
      <use xlink:href="#DejaVuSans-65" x="1164.595703"/>
      <use xlink:href="#DejaVuSans-73" x="1226.119141"/>
     </g>
    </g>
   </g>
   <g id="line2d_16">
    <path d="M 184.581818 492.48 
L 184.863996 342.798458 
L 185.273545 330.324996 
L 185.361725 305.378072 
L 185.945395 292.90461 
L 186.033576 267.957687 
L 186.617246 255.484225 
L 186.705427 230.537301 
L 187.289097 218.063839 
L 187.377277 193.116916 
L 187.960948 180.643454 
L 188.004898 168.169992 
L 188.633079 155.69653 
L 188.734976 463.809655 
L 188.825116 465.112852 
L 188.825116 463.809655 
L 189.326764 458.387422 
L 189.998615 446.193217 
L 190.190373 442.842138 
L 190.226485 439.723772 
L 190.670466 436.791578 
L 190.714416 433.999012 
L 190.87622 431.346074 
L 191.342317 428.809493 
L 191.526236 424.015588 
L 192.014168 421.758264 
L 192.09395 417.453058 
L 192.686019 415.381905 
L 192.765801 411.425769 
L 193.357869 409.517516 
L 193.437652 405.840637 
L 194.02972 404.048741 
L 194.109502 400.581304 
L 194.701571 398.905765 
L 194.781353 395.6245 
L 195.417652 394.018774 
L 195.453484 467.533076 
L 195.609689 472.559695 
L 195.609689 467.533076 
L 196.465739 456.316269 
L 196.657777 480.006538 
L 196.657777 467.533076 
L 197.291836 452.034335 
L 198.266579 432.835443 
L 198.732676 430.229048 
L 198.776626 427.73901 
L 198.93843 425.342057 
L 199.404527 423.03819 
L 199.588446 418.639898 
L 200.076377 416.545474 
L 200.15616 412.519524 
L 200.748228 410.588 
L 200.82801 406.864578 
L 201.420079 405.04941 
L 201.499861 401.558703 
L 202.09193 399.859891 
L 202.171712 396.555355 
L 202.763781 394.949629 
L 202.843563 391.807993 
L 203.435631 390.272081 
L 203.515414 387.270073 
L 204.107482 385.803976 
L 204.187264 382.941595 
L 204.779333 381.522041 
L 204.859115 378.752746 
L 205.451184 377.403006 
L 205.530966 374.726797 
L 206.123035 373.423599 
L 206.202817 370.840476 
L 206.794885 369.583821 
L 206.874668 367.093783 
L 207.466736 365.860399 
L 207.546519 363.440175 
L 208.138587 362.253335 
L 208.218369 359.902925 
L 208.810438 358.739356 
L 208.89022 356.45876 
L 209.482289 355.318462 
L 209.562071 353.08441 
L 210.154139 351.990655 
L 210.233922 349.803144 
L 210.82599 348.732661 
L 210.905773 346.591693 
L 211.497841 345.544481 
L 211.577623 343.450057 
L 212.169692 342.426116 
L 212.249474 340.378234 
L 212.841543 339.377564 
L 212.921325 337.376225 
L 213.513393 336.375556 
L 213.593176 334.42076 
L 214.185244 333.443361 
L 214.265027 331.511837 
L 214.857095 330.55771 
L 214.936877 328.649456 
L 215.528946 327.718601 
L 215.608728 325.85689 
L 216.200797 324.926035 
L 216.280579 323.110867 
L 216.872648 322.203283 
L 216.95243 320.388115 
L 217.544498 319.503802 
L 217.624281 317.735177 
L 218.216349 316.850865 
L 218.296131 315.105511 
L 218.8882 314.24447 
L 218.967982 312.522387 
L 219.560051 311.661346 
L 219.639833 309.985806 
L 220.231902 309.148036 
L 220.311684 307.472497 
L 220.903752 306.634727 
L 220.983535 305.00573 
L 221.575603 304.191232 
L 221.655385 302.562235 
L 222.247454 301.747736 
L 222.327236 300.142011 
L 222.919305 299.350784 
L 222.999087 297.76833 
L 223.591156 296.977103 
L 223.670938 295.394649 
L 224.263006 294.626693 
L 224.342789 293.090781 
L 224.934857 292.322826 
L 224.978807 291.55487 
L 225.651218 290.786914 
L 225.68733 464.484525 
L 226.027455 485.033157 
L 226.027455 467.533076 
L 226.698466 452.034335 
L 227.142167 444.703849 
L 227.178279 441.469126 
L 227.62226 438.420575 
L 227.666211 435.558195 
L 227.828015 432.835443 
L 228.294111 430.229048 
L 228.338061 427.73901 
L 228.499866 425.342057 
L 228.965962 423.03819 
L 229.149881 418.639898 
L 229.637813 416.545474 
L 229.717595 412.519524 
L 230.309664 410.588 
L 230.389446 406.864578 
L 230.981514 405.04941 
L 231.061297 401.558703 
L 231.653365 399.859891 
L 231.733148 396.555355 
L 232.325216 394.949629 
L 232.404998 391.807993 
L 232.997067 390.272081 
L 233.076849 387.270073 
L 233.668918 385.803976 
L 233.7487 382.941595 
L 234.340768 381.522041 
L 234.420551 378.752746 
L 235.012619 377.403006 
L 235.092402 374.726797 
L 235.68447 373.423599 
L 235.764252 370.840476 
L 236.356321 369.583821 
L 236.436103 367.093783 
L 237.028172 365.860399 
L 237.107954 363.440175 
L 237.700022 362.253335 
L 237.779805 359.902925 
L 238.371873 358.739356 
L 238.451656 356.45876 
L 239.043724 355.318462 
L 239.123506 353.08441 
L 239.715575 351.990655 
L 239.795357 349.803144 
L 240.387426 348.732661 
L 240.467208 346.591693 
L 241.059276 345.544481 
L 241.139059 343.450057 
L 241.731127 342.426116 
L 241.81091 340.378234 
L 242.402978 339.377564 
L 242.48276 337.376225 
L 243.074829 336.375556 
L 243.154611 334.42076 
L 243.74668 333.443361 
L 243.826462 331.511837 
L 244.418531 330.55771 
L 244.498313 328.649456 
L 245.090381 327.718601 
L 245.170164 325.85689 
L 245.762232 324.926035 
L 245.842014 323.110867 
L 246.434083 322.203283 
L 246.513865 320.388115 
L 247.105934 319.503802 
L 247.185716 317.735177 
L 247.777785 316.850865 
L 247.857567 315.105511 
L 248.449635 314.24447 
L 248.529418 312.522387 
L 249.121486 311.661346 
L 249.201268 309.985806 
L 249.793337 309.148036 
L 249.873119 307.472497 
L 250.465188 306.634727 
L 250.54497 305.00573 
L 251.137039 304.191232 
L 251.216821 302.562235 
L 251.808889 301.747736 
L 251.888672 300.142011 
L 252.48074 299.350784 
L 252.560522 297.76833 
L 253.152591 296.977103 
L 253.232373 295.394649 
L 253.824442 294.626693 
L 253.904224 293.090781 
L 254.496293 292.322826 
L 254.576075 290.786914 
L 255.168143 290.018959 
L 255.247926 288.506319 
L 255.839994 287.761635 
L 255.919776 286.272266 
L 256.511845 285.527582 
L 256.591627 284.038213 
L 257.183696 283.293529 
L 257.263478 281.850703 
L 257.855547 281.12929 
L 257.935329 279.686464 
L 258.527397 278.965051 
L 258.60718 277.522226 
L 259.199248 276.800813 
L 259.279031 275.40453 
L 259.871099 274.706388 
L 259.950881 273.310105 
L 260.54295 272.611964 
L 260.622732 271.21568 
L 261.214801 270.517539 
L 261.294583 269.121256 
L 261.886651 268.446386 
L 261.966434 267.096646 
L 262.558502 266.421775 
L 262.638285 265.072035 
L 263.230353 264.397165 
L 263.310135 263.047425 
L 263.902204 262.372555 
L 263.981986 261.046086 
L 264.574055 260.394487 
L 264.653837 259.091289 
L 265.245905 258.439691 
L 265.325688 257.136493 
L 265.917756 256.484894 
L 265.997539 255.181697 
L 266.589607 254.530098 
L 266.669389 253.226901 
L 267.261458 252.598573 
L 267.34124 251.341919 
L 267.933309 250.713591 
L 268.013091 249.456936 
L 268.60516 248.828609 
L 268.684942 247.571954 
L 269.27701 246.943627 
L 269.356793 245.686972 
L 269.948861 245.058645 
L 270.028643 243.825261 
L 270.620712 243.220205 
L 270.700494 242.010094 
L 271.292563 241.405038 
L 271.372345 240.194926 
L 271.964414 239.58987 
L 272.044196 238.379758 
L 272.636264 237.774702 
L 272.716047 236.56459 
L 273.308115 235.959534 
L 273.387897 234.749422 
L 273.979966 234.167637 
L 274.059748 233.004068 
L 274.651817 232.422283 
L 274.731599 231.258714 
L 275.323668 230.676929 
L 275.40345 229.51336 
L 275.995518 228.931576 
L 276.075301 227.768006 
L 276.667369 227.186222 
L 276.747151 226.022653 
L 277.33922 225.440868 
L 277.419002 224.30057 
L 278.011071 223.742057 
L 278.090853 222.625031 
L 278.682922 222.066517 
L 278.762704 220.949491 
L 279.354772 220.390978 
L 279.434555 219.273951 
L 280.026623 218.715438 
L 280.106405 217.598412 
L 280.698474 217.039898 
L 280.778256 215.922872 
L 281.370325 215.364359 
L 281.450107 214.247332 
L 282.042176 213.688819 
L 282.121958 212.618335 
L 282.714026 212.083094 
L 282.793809 211.01261 
L 283.385877 210.477368 
L 283.46566 209.406884 
L 284.057728 208.871643 
L 284.13751 207.801159 
L 284.729579 207.265917 
L 284.809361 206.195433 
L 285.40143 205.660192 
L 285.481212 204.589708 
L 286.07328 204.054466 
L 286.153063 202.983982 
L 286.745131 202.448741 
L 286.824914 201.378257 
L 287.416982 200.866287 
L 287.496764 199.842346 
L 288.088833 199.330375 
L 288.168615 198.306434 
L 288.760684 197.794464 
L 288.840466 196.770523 
L 289.432534 196.258552 
L 289.512317 195.234612 
L 290.104385 194.722641 
L 290.184168 193.6987 
L 290.776236 193.18673 
L 290.856018 192.162789 
L 291.448087 191.650818 
L 291.527869 190.626878 
L 292.119938 190.114907 
L 292.19972 189.090966 
L 292.791788 188.578996 
L 292.871571 187.601598 
L 293.463639 187.112899 
L 293.543422 186.1355 
L 294.13549 185.646801 
L 294.215272 184.669403 
L 294.807341 184.180704 
L 294.887123 183.203306 
L 295.479192 182.714607 
L 295.558974 181.737209 
L 296.151043 181.24851 
L 296.230825 180.271112 
L 296.822893 179.782413 
L 296.902676 178.805014 
L 297.494744 178.316315 
L 297.574526 177.338917 
L 298.166595 176.850218 
L 298.246377 175.87282 
L 298.838446 175.384121 
L 298.918228 174.406723 
L 299.510297 173.918024 
L 299.590079 172.987168 
L 300.182147 172.521741 
L 300.26193 171.590885 
L 300.853998 171.125458 
L 300.93378 170.194602 
L 301.525849 169.729175 
L 301.605631 168.798319 
L 302.1977 168.332892 
L 302.277482 167.402036 
L 302.869551 166.936609 
L 302.949333 166.005753 
L 303.541401 165.540326 
L 303.621184 164.60947 
L 304.213252 164.144042 
L 304.293034 163.213187 
L 304.885103 162.747759 
L 304.964885 161.816904 
L 305.556954 161.351476 
L 305.636736 160.420621 
L 306.228805 159.955193 
L 306.308587 159.024338 
L 306.900655 158.55891 
L 306.980438 157.651326 
L 307.572506 157.20917 
L 307.652288 156.324857 
L 308.244357 155.882701 
L 308.324139 154.998389 
L 308.916208 154.556232 
L 308.99599 153.67192 
L 309.588059 153.229763 
L 309.667841 152.345451 
L 310.259909 151.903294 
L 310.339692 151.018982 
L 310.93176 150.576826 
L 311.011543 149.692513 
L 311.603611 149.250357 
L 311.683393 148.366044 
L 312.275462 147.923888 
L 312.355244 147.039575 
L 312.947313 146.597419 
L 313.027095 145.713106 
L 313.685509 145.27095 
L 313.877266 472.559695 
L 313.877266 467.533076 
L 314.291014 461.296345 
L 314.962865 448.194556 
L 315.154622 444.703849 
L 315.190734 441.469126 
L 315.634716 438.420575 
L 315.678666 435.558195 
L 315.84047 432.835443 
L 316.306567 430.229048 
L 316.350517 427.73901 
L 316.512321 425.342057 
L 316.978417 423.03819 
L 317.162337 418.639898 
L 317.650268 416.545474 
L 317.730051 412.519524 
L 318.322119 410.588 
L 318.401901 406.864578 
L 318.99397 405.04941 
L 319.073752 401.558703 
L 319.665821 399.859891 
L 319.745603 396.555355 
L 320.337672 394.949629 
L 320.417454 391.807993 
L 321.009522 390.272081 
L 321.089305 387.270073 
L 321.681373 385.803976 
L 321.761155 382.941595 
L 322.353224 381.522041 
L 322.433006 378.752746 
L 323.025075 377.403006 
L 323.104857 374.726797 
L 323.696926 373.423599 
L 323.776708 370.840476 
L 324.368776 369.583821 
L 324.448559 367.093783 
L 325.040627 365.860399 
L 325.120409 363.440175 
L 325.712478 362.253335 
L 325.79226 359.902925 
L 326.384329 358.739356 
L 326.464111 356.45876 
L 327.05618 355.318462 
L 327.135962 353.08441 
L 327.72803 351.990655 
L 327.807813 349.803144 
L 328.399881 348.732661 
L 328.479663 346.591693 
L 329.071732 345.544481 
L 329.151514 343.450057 
L 329.743583 342.426116 
L 329.823365 340.378234 
L 330.415434 339.377564 
L 330.495216 337.376225 
L 331.15363 336.375556 
L 331.345387 472.559695 
L 331.345387 467.533076 
L 331.759135 461.296345 
L 332.430986 448.194556 
L 332.622743 444.703849 
L 332.658855 441.469126 
L 333.102837 438.420575 
L 333.146787 435.558195 
L 333.308591 432.835443 
L 333.774688 430.229048 
L 333.818638 427.73901 
L 333.980442 425.342057 
L 334.446538 423.03819 
L 334.630458 418.639898 
L 335.118389 416.545474 
L 335.198171 412.519524 
L 335.79024 410.588 
L 335.870022 406.864578 
L 336.462091 405.04941 
L 336.541873 401.558703 
L 337.133942 399.859891 
L 337.213724 396.555355 
L 337.805792 394.949629 
L 337.885575 391.807993 
L 338.477643 390.272081 
L 338.557426 387.270073 
L 339.149494 385.803976 
L 339.229276 382.941595 
L 339.821345 381.522041 
L 339.901127 378.752746 
L 340.493196 377.403006 
L 340.572978 374.726797 
L 341.165046 373.423599 
L 341.244829 370.840476 
L 341.836897 369.583821 
L 341.91668 367.093783 
L 342.508748 365.860399 
L 342.58853 363.440175 
L 343.180599 362.253335 
L 343.260381 359.902925 
L 343.85245 358.739356 
L 343.932232 356.45876 
L 344.5243 355.318462 
L 344.604083 353.08441 
L 345.196151 351.990655 
L 345.275934 349.803144 
L 345.868002 348.732661 
L 345.947784 346.591693 
L 346.539853 345.544481 
L 346.619635 343.450057 
L 347.211704 342.426116 
L 347.291486 340.378234 
L 347.883555 339.377564 
L 347.963337 337.376225 
L 348.555405 336.375556 
L 348.635188 334.42076 
L 349.227256 333.443361 
L 349.307038 331.511837 
L 349.899107 330.55771 
L 349.978889 328.649456 
L 350.570958 327.718601 
L 350.65074 325.85689 
L 351.242809 324.926035 
L 351.322591 323.110867 
L 351.914659 322.203283 
L 351.994442 320.388115 
L 352.58651 319.503802 
L 352.666292 317.735177 
L 353.258361 316.850865 
L 353.338143 315.105511 
L 353.930212 314.24447 
L 354.009994 312.522387 
L 354.602063 311.661346 
L 354.681845 309.985806 
L 355.273913 309.148036 
L 355.317864 308.310267 
L 355.946044 307.472497 
L 356.025826 467.533076 
L 383.311647 472.559695 
L 389.294479 480.006538 
L 389.722504 461.296345 
L 390.534323 444.703849 
L 390.726361 441.469126 
L 390.770591 438.420575 
L 390.940513 435.558195 
L 390.984463 432.835443 
L 391.154386 430.229048 
L 391.198616 427.73901 
L 391.368538 425.342057 
L 391.604526 418.639898 
L 391.796563 414.497592 
L 392.054666 406.864578 
L 392.224588 403.280785 
L 392.460575 396.555355 
L 392.608663 393.367175 
L 392.970622 384.36115 
L 393.61252 367.093783 
L 394.641571 341.402175 
L 395.390125 324.926035 
L 395.5007 324.018451 
L 395.698896 423.87596 
L 395.764682 430.112691 
L 395.764682 423.87596 
L 396.082691 417.31343 
L 396.385024 407.539448 
L 396.554946 403.932384 
L 396.813049 397.13714 
L 396.960856 393.925689 
L 397.367046 383.453566 
L 398.008943 366.279284 
L 399.125895 338.702694 
L 399.169846 337.702025 
L 399.593951 336.701355 
L 399.682132 334.746559 
L 400.265802 333.769161 
L 400.353983 331.837636 
L 400.937653 330.883509 
L 401.025833 328.975256 
L 401.609504 328.0444 
L 401.697684 326.18269 
L 402.281355 325.251834 
L 402.369535 323.436666 
L 402.953205 322.529082 
L 403.041386 320.713914 
L 403.625056 319.829602 
L 403.713237 318.060977 
L 404.296907 317.176664 
L 404.385087 315.43131 
L 404.968758 314.570269 
L 405.056938 312.848187 
L 405.640609 311.987145 
L 405.728789 310.288334 
L 406.312459 309.450564 
L 406.40064 307.775025 
L 406.98431 306.937255 
L 407.072491 305.284987 
L 407.656161 304.470488 
L 407.744342 302.841491 
L 408.328012 302.026993 
L 408.416192 300.421267 
L 408.999863 299.63004 
L 409.088043 298.047586 
L 409.671714 297.256359 
L 409.759894 295.673905 
L 410.343564 294.905949 
L 410.431745 293.370038 
L 411.015415 292.602082 
L 411.103596 291.066171 
L 411.687266 290.298215 
L 411.775446 288.785575 
L 412.359117 288.040891 
L 412.447297 286.551523 
L 413.030968 285.806838 
L 413.119148 284.31747 
L 413.702818 283.572785 
L 413.790999 282.106688 
L 414.374669 281.385275 
L 414.46285 279.942449 
L 415.04652 279.221037 
L 415.1347 277.778211 
L 415.718371 277.056798 
L 415.806551 275.637243 
L 416.390222 274.939102 
L 416.478402 273.542819 
L 417.062072 272.844677 
L 417.150253 271.448394 
L 417.733923 270.750253 
L 417.822104 269.35397 
L 418.405774 268.6791 
L 418.449724 268.004229 
L 419.10002 267.329359 
L 419.179802 467.533076 
L 419.291777 472.559695 
L 419.291777 467.533076 
L 419.771591 461.296345 
L 420.443441 448.194556 
L 420.635199 444.703849 
L 420.671311 441.469126 
L 421.115292 438.420575 
L 421.159243 435.558195 
L 421.321047 432.835443 
L 421.787143 430.229048 
L 421.831093 427.73901 
L 421.992897 425.342057 
L 422.458994 423.03819 
L 422.642913 418.639898 
L 423.130845 416.545474 
L 423.210627 412.519524 
L 423.802695 410.588 
L 423.882478 406.864578 
L 424.474546 405.04941 
L 424.554329 401.558703 
L 425.146397 399.859891 
L 425.226179 396.555355 
L 425.818248 394.949629 
L 425.89803 391.807993 
L 426.490099 390.272081 
L 426.569881 387.270073 
L 427.16195 385.803976 
L 427.241732 382.941595 
L 427.8338 381.522041 
L 427.913583 378.752746 
L 428.505651 377.403006 
L 428.585433 374.726797 
L 429.177502 373.423599 
L 429.257284 370.840476 
L 429.849353 369.583821 
L 429.929135 367.093783 
L 430.521204 365.860399 
L 430.600986 363.440175 
L 431.193054 362.253335 
L 431.272837 359.902925 
L 431.864905 358.739356 
L 431.944687 356.45876 
L 432.536756 355.318462 
L 432.616538 353.08441 
L 433.208607 351.990655 
L 433.288389 349.803144 
L 433.880458 348.732661 
L 433.96024 346.591693 
L 434.552308 345.544481 
L 434.632091 343.450057 
L 435.224159 342.426116 
L 435.303941 340.378234 
L 435.89601 339.377564 
L 435.975792 337.376225 
L 436.566461 336.375556 
L 436.647643 334.42076 
L 437.238312 333.443361 
L 437.319494 331.511837 
L 437.910163 330.55771 
L 437.991345 328.649456 
L 438.582014 327.718601 
L 438.663195 325.85689 
L 439.253864 324.926035 
L 439.335046 323.110867 
L 439.925715 322.203283 
L 440.006897 320.388115 
L 440.597566 319.503802 
L 440.678748 317.735177 
L 441.269417 316.850865 
L 441.350599 315.105511 
L 441.941268 314.24447 
L 442.02245 312.522387 
L 442.613118 311.661346 
L 442.6943 309.985806 
L 443.284969 309.148036 
L 443.366151 307.472497 
L 443.95682 306.634727 
L 444.038002 305.00573 
L 444.628671 304.191232 
L 444.709853 302.562235 
L 445.300522 301.747736 
L 445.381704 300.142011 
L 445.972372 299.350784 
L 446.053554 297.76833 
L 446.644223 296.977103 
L 446.725405 295.394649 
L 447.316074 294.626693 
L 447.397256 293.090781 
L 447.987925 292.322826 
L 448.069107 290.786914 
L 448.659776 290.018959 
L 448.740958 288.506319 
L 449.331626 287.761635 
L 449.412808 286.272266 
L 450.003477 285.527582 
L 450.084659 284.038213 
L 450.675328 283.293529 
L 450.75651 281.850703 
L 451.347179 281.12929 
L 451.428361 279.686464 
L 452.01903 278.965051 
L 452.100212 277.522226 
L 452.69088 276.800813 
L 452.772062 275.40453 
L 453.362731 274.706388 
L 453.443913 273.310105 
L 454.034582 272.611964 
L 454.115764 271.21568 
L 454.706433 270.517539 
L 454.787615 269.121256 
L 455.378284 268.446386 
L 455.459466 267.096646 
L 456.050134 266.421775 
L 456.131316 265.072035 
L 456.721985 264.397165 
L 456.803167 263.047425 
L 457.393836 262.372555 
L 457.475018 261.046086 
L 458.065687 260.394487 
L 458.146869 259.091289 
L 458.737538 258.439691 
L 458.81872 257.136493 
L 459.409388 256.484894 
L 459.49057 255.181697 
L 460.081239 254.530098 
L 460.162421 253.226901 
L 460.75309 252.598573 
L 460.834272 251.341919 
L 461.424941 250.713591 
L 461.506123 249.456936 
L 462.096792 248.828609 
L 462.177974 247.571954 
L 462.768643 246.943627 
L 462.849824 245.686972 
L 463.440493 245.058645 
L 463.521675 243.825261 
L 464.112344 243.220205 
L 464.193526 242.010094 
L 464.784195 241.405038 
L 464.865377 240.194926 
L 465.500836 239.58987 
L 465.537228 467.533076 
L 465.693993 472.559695 
L 465.693993 467.533076 
L 466.127897 461.296345 
L 466.799747 448.194556 
L 466.992904 444.703849 
L 467.029296 441.469126 
L 467.471598 438.420575 
L 467.516388 435.558195 
L 467.678752 432.835443 
L 468.143449 430.229048 
L 468.188239 427.73901 
L 468.350603 425.342057 
L 468.8153 423.03819 
L 469.000059 418.639898 
L 469.487151 416.545474 
L 469.568333 412.519524 
L 470.159001 410.588 
L 470.240183 406.864578 
L 470.830852 405.04941 
L 470.912034 401.558703 
L 471.502703 399.859891 
L 471.583885 396.555355 
L 472.174554 394.949629 
L 472.255736 391.807993 
L 472.846405 390.272081 
L 472.927587 387.270073 
L 473.518255 385.803976 
L 473.599437 382.941595 
L 474.190106 381.522041 
L 474.271288 378.752746 
L 474.861957 377.403006 
L 474.943139 374.726797 
L 475.533808 373.423599 
L 475.61499 370.840476 
L 476.250449 369.583821 
L 476.286841 467.533076 
L 476.443606 472.559695 
L 476.443606 467.533076 
L 476.877509 461.296345 
L 477.54936 448.194556 
L 477.742517 444.703849 
L 477.778909 441.469126 
L 478.221211 438.420575 
L 478.266001 435.558195 
L 478.428365 432.835443 
L 478.893062 430.229048 
L 478.937852 427.73901 
L 479.100216 425.342057 
L 479.564913 423.03819 
L 479.749672 420.804137 
L 479.942829 480.006538 
L 479.942829 467.533076 
L 481.138163 441.469126 
L 481.580465 438.420575 
L 481.625255 435.558195 
L 481.787619 432.835443 
L 482.252316 430.229048 
L 482.297106 427.73901 
L 482.45947 425.342057 
L 482.924167 423.03819 
L 483.108926 418.639898 
L 483.596017 416.545474 
L 483.677199 412.519524 
L 484.267868 410.588 
L 484.34905 406.864578 
L 484.939719 405.04941 
L 485.020901 401.558703 
L 485.61157 399.859891 
L 485.692752 396.555355 
L 486.283421 394.949629 
L 486.364603 391.807993 
L 486.955271 390.272081 
L 487.036453 387.270073 
L 487.627122 385.803976 
L 487.708304 382.941595 
L 488.298973 381.522041 
L 488.380155 378.752746 
L 488.970824 377.403006 
L 489.052006 374.726797 
L 489.642675 373.423599 
L 489.723857 370.840476 
L 490.314526 369.583821 
L 490.395707 367.093783 
L 490.986376 365.860399 
L 491.067558 363.440175 
L 491.658227 362.253335 
L 491.739409 359.902925 
L 492.330078 358.739356 
L 492.41126 356.45876 
L 493.001929 355.318462 
L 493.083111 353.08441 
L 493.67378 351.990655 
L 493.754962 349.803144 
L 494.34563 348.732661 
L 494.426812 346.591693 
L 495.017481 345.544481 
L 495.098663 343.450057 
L 495.689332 342.426116 
L 495.770514 340.378234 
L 496.361183 339.377564 
L 496.442365 337.376225 
L 497.033034 336.375556 
L 497.114216 334.42076 
L 497.704884 333.443361 
L 497.786066 331.511837 
L 498.376735 330.55771 
L 498.457917 328.649456 
L 499.048586 327.718601 
L 499.129768 325.85689 
L 499.720437 324.926035 
L 499.801619 323.110867 
L 500.392288 322.203283 
L 500.47347 320.388115 
L 501.064138 319.503802 
L 501.14532 317.735177 
L 501.735989 316.850865 
L 501.817171 315.105511 
L 502.40784 314.24447 
L 502.489022 312.522387 
L 503.079691 311.661346 
L 503.160873 309.985806 
L 503.751542 309.148036 
L 503.832724 307.472497 
L 504.423392 306.634727 
L 504.504574 305.00573 
L 505.095243 304.191232 
L 505.176425 302.562235 
L 505.767094 301.747736 
L 505.848276 300.142011 
L 506.438945 299.350784 
L 506.520127 297.76833 
L 507.110796 296.977103 
L 507.191978 295.394649 
L 507.782646 294.626693 
L 507.863828 293.090781 
L 508.454497 292.322826 
L 508.535679 290.786914 
L 509.126348 290.018959 
L 509.20753 288.506319 
L 509.798199 287.761635 
L 509.879381 286.272266 
L 510.47005 285.527582 
L 510.551232 284.038213 
L 511.1419 283.293529 
L 511.223082 281.850703 
L 511.813751 281.12929 
L 511.894933 279.686464 
L 512.485602 278.965051 
L 512.566784 277.522226 
L 513.157453 276.800813 
L 513.238635 275.40453 
L 513.829304 274.706388 
L 513.910486 273.310105 
L 514.501155 272.611964 
L 514.582336 271.21568 
L 515.173005 270.517539 
L 515.254187 269.121256 
L 515.844856 268.446386 
L 515.926038 267.096646 
L 516.516707 266.421775 
L 516.597889 265.072035 
L 517.188558 264.397165 
L 517.26974 263.047425 
L 517.860409 262.372555 
L 517.941591 261.046086 
L 518.532259 260.394487 
L 518.613441 259.742888 
L 518.806598 480.006538 
L 518.806598 467.533076 
L 519.419662 456.316269 
L 520.10551 441.469126 
L 520.547812 438.420575 
L 520.592602 435.558195 
L 520.754966 432.835443 
L 521.219663 430.229048 
L 521.426817 427.73901 
L 521.619974 480.006538 
L 521.619974 467.533076 
L 522.563364 448.194556 
L 522.756521 444.703849 
L 522.792913 441.469126 
L 523.235215 438.420575 
L 523.280005 435.558195 
L 523.442369 432.835443 
L 523.907066 430.229048 
L 523.951856 427.73901 
L 524.11422 425.342057 
L 524.578917 423.03819 
L 524.623707 420.804137 
L 525.275962 418.639898 
L 525.295557 435.13931 
L 525.421529 447.612772 
L 525.46632 472.559695 
L 525.659477 480.006538 
L 525.659477 467.533076 
L 526.342525 452.034335 
L 526.787626 444.703849 
L 526.824018 441.469126 
L 527.26632 438.420575 
L 527.31111 435.558195 
L 527.473474 432.835443 
L 527.938171 430.229048 
L 527.982961 427.73901 
L 528.145325 425.342057 
L 528.610021 423.03819 
L 528.79478 418.639898 
L 529.281872 416.545474 
L 529.363054 412.519524 
L 529.953723 410.588 
L 530.034905 406.864578 
L 530.625574 405.04941 
L 530.706756 401.558703 
L 531.297425 399.859891 
L 531.378607 396.555355 
L 531.969275 394.949629 
L 532.050457 391.807993 
L 532.641126 390.272081 
L 532.722308 387.270073 
L 533.312977 385.803976 
L 533.394159 382.941595 
L 533.984828 381.522041 
L 534.06601 378.752746 
L 534.656679 377.403006 
L 534.737861 374.726797 
L 535.328529 373.423599 
L 535.409711 370.840476 
L 536.00038 369.583821 
L 536.081562 367.093783 
L 536.672231 365.860399 
L 536.753413 363.440175 
L 537.344082 362.253335 
L 537.425264 359.902925 
L 538.015933 358.739356 
L 538.097115 356.45876 
L 538.687783 355.318462 
L 538.768965 353.08441 
L 539.359634 351.990655 
L 539.440816 349.803144 
L 540.031485 348.732661 
L 540.112667 346.591693 
L 540.703336 345.544481 
L 540.784518 343.450057 
L 541.375187 342.426116 
L 541.456369 340.378234 
L 542.047038 339.377564 
L 542.128219 337.376225 
L 542.718888 336.375556 
L 542.80007 334.42076 
L 543.390739 333.443361 
L 543.471921 331.511837 
L 544.714845 329.603583 
L 544.801626 458.550322 
L 544.905203 463.809655 
L 545.089962 465.112852 
L 545.406292 463.809655 
L 545.826198 453.826231 
L 546.271299 446.193217 
L 546.307691 442.842138 
L 546.749993 439.723772 
L 546.794783 436.791578 
L 546.957147 433.999012 
L 547.421844 431.346074 
L 547.466634 428.809493 
L 547.628998 426.365998 
L 548.093695 424.015588 
L 548.278454 419.570754 
L 548.832731 417.453058 
L 549.025888 472.559695 
L 549.025888 467.533076 
L 549.437396 461.296345 
L 550.109247 448.194556 
L 550.302404 444.703849 
L 550.338796 441.469126 
L 550.781098 438.420575 
L 550.825888 435.558195 
L 550.988252 432.835443 
L 551.452949 430.229048 
L 551.497739 427.73901 
L 551.660103 425.342057 
L 552.1248 423.03819 
L 552.309559 418.639898 
L 552.79665 416.545474 
L 552.877832 412.519524 
L 553.468501 410.588 
L 553.549683 406.864578 
L 554.140352 405.04941 
L 554.221534 401.558703 
L 554.812203 399.859891 
L 554.893385 396.555355 
L 555.484054 394.949629 
L 555.565236 391.807993 
L 556.155904 390.272081 
L 556.237086 387.270073 
L 556.827755 385.803976 
L 556.908937 382.941595 
L 557.499606 381.522041 
L 557.580788 378.752746 
L 558.171457 377.403006 
L 558.252639 374.726797 
L 558.843308 373.423599 
L 558.92449 370.840476 
L 559.515158 369.583821 
L 559.59634 367.093783 
L 560.187009 365.860399 
L 560.268191 363.440175 
L 560.85886 362.253335 
L 560.940042 359.902925 
L 561.530711 358.739356 
L 561.611893 356.45876 
L 562.202562 355.318462 
L 562.283744 353.08441 
L 562.874412 351.990655 
L 562.955594 349.803144 
L 563.546263 348.732661 
L 563.627445 346.591693 
L 564.218114 345.544481 
L 564.299296 343.450057 
L 564.889965 342.426116 
L 564.971147 340.378234 
L 565.561816 339.377564 
L 565.642998 337.376225 
L 566.233667 336.375556 
L 566.314848 334.42076 
L 566.905517 333.443361 
L 566.986699 331.511837 
L 567.577368 330.55771 
L 567.65855 328.649456 
L 568.249219 327.718601 
L 568.330401 325.85689 
L 568.92107 324.926035 
L 569.002252 323.110867 
L 569.592921 322.203283 
L 569.674103 320.388115 
L 570.264771 319.503802 
L 570.345953 317.735177 
L 570.936622 316.850865 
L 571.017804 315.105511 
L 571.608473 314.24447 
L 571.689655 312.522387 
L 572.280324 311.661346 
L 572.361506 309.985806 
L 572.952175 309.148036 
L 573.033357 307.472497 
L 573.624025 306.634727 
L 573.705207 305.00573 
L 574.295876 304.191232 
L 574.377058 302.562235 
L 574.967727 301.747736 
L 575.048909 300.142011 
L 575.639578 299.350784 
L 575.72076 297.76833 
L 576.963684 296.185876 
L 577.064461 463.809655 
L 577.154041 465.112852 
L 577.154041 463.809655 
L 577.65513 458.387422 
L 578.326981 446.193217 
L 578.520138 442.842138 
L 578.55653 439.723772 
L 578.998832 436.791578 
L 579.043622 433.999012 
L 579.205986 431.346074 
L 579.670683 428.809493 
L 579.855442 424.015588 
L 580.342533 421.758264 
L 580.423715 417.453058 
L 581.014384 415.381905 
L 581.095566 411.425769 
L 581.686235 409.517516 
L 581.767417 405.840637 
L 582.358086 404.048741 
L 582.439268 400.581304 
L 583.029937 398.905765 
L 583.111119 395.6245 
L 583.701787 394.018774 
L 583.782969 390.92368 
L 584.373638 389.41104 
L 584.45482 386.455574 
L 585.045489 384.989477 
L 585.126671 382.127097 
L 585.71734 380.730814 
L 585.798522 377.98479 
L 586.389191 376.63505 
L 586.470373 373.982112 
L 587.061041 372.678915 
L 587.142223 370.119063 
L 587.732892 368.862408 
L 587.777682 367.605753 
L 588.407542 366.37237 
L 588.485925 467.533076 
L 588.5979 472.559695 
L 588.5979 467.533076 
L 589.076594 461.296345 
L 589.748445 448.194556 
L 589.941602 444.703849 
L 589.977994 441.469126 
L 590.420295 438.420575 
L 590.465086 435.558195 
L 590.627449 432.835443 
L 591.092146 430.229048 
L 591.136936 427.73901 
L 591.2993 425.342057 
L 591.763997 423.03819 
L 591.948756 418.639898 
L 592.435848 416.545474 
L 592.51703 412.519524 
L 593.107699 410.588 
L 593.188881 406.864578 
L 593.77955 405.04941 
L 593.860731 401.558703 
L 594.4514 399.859891 
L 594.532582 396.555355 
L 595.123251 394.949629 
L 595.204433 391.807993 
L 595.795102 390.272081 
L 595.876284 387.270073 
L 596.466953 385.803976 
L 596.548135 382.941595 
L 597.138804 381.522041 
L 597.219986 378.752746 
L 597.810654 377.403006 
L 597.891836 374.726797 
L 598.482505 373.423599 
L 598.563687 370.840476 
L 599.154356 369.583821 
L 599.235538 367.093783 
L 599.826207 365.860399 
L 599.907389 363.440175 
L 600.498058 362.253335 
L 600.57924 359.902925 
L 601.169908 358.739356 
L 601.25109 356.45876 
L 601.841759 355.318462 
L 601.922941 353.08441 
L 602.51361 351.990655 
L 602.594792 349.803144 
L 603.185461 348.732661 
L 603.266643 346.591693 
L 603.857312 345.544481 
L 603.938494 343.450057 
L 604.529162 342.426116 
L 604.610344 340.378234 
L 605.201013 339.377564 
L 605.282195 337.376225 
L 605.872864 336.375556 
L 605.954046 334.42076 
L 606.544715 333.443361 
L 606.625897 331.511837 
L 607.216566 330.55771 
L 607.297748 328.649456 
L 607.888416 327.718601 
L 607.969598 325.85689 
L 608.560267 324.926035 
L 608.641449 323.110867 
L 609.232118 322.203283 
L 609.3133 320.388115 
L 609.903969 319.503802 
L 609.985151 317.735177 
L 610.57582 316.850865 
L 610.657002 315.105511 
L 611.24767 314.24447 
L 611.328852 312.522387 
L 612.571776 310.823576 
L 612.672554 463.809655 
L 612.762134 465.112852 
L 612.762134 463.809655 
L 613.263223 458.387422 
L 613.935074 446.193217 
L 614.128231 442.842138 
L 614.164623 439.723772 
L 614.606924 436.791578 
L 614.651715 433.999012 
L 614.814078 431.346074 
L 615.278775 428.809493 
L 615.463534 424.015588 
L 615.950626 421.758264 
L 616.031808 417.453058 
L 616.622477 415.381905 
L 616.703659 411.425769 
L 617.294328 409.517516 
L 617.37551 405.840637 
L 617.966179 404.048741 
L 618.04736 400.581304 
L 618.638029 398.905765 
L 618.719211 395.6245 
L 619.30988 394.018774 
L 619.391062 390.92368 
L 619.981731 389.41104 
L 620.062913 386.455574 
L 620.653582 384.989477 
L 620.734764 382.127097 
L 621.325433 380.730814 
L 621.406615 377.98479 
L 621.997283 376.63505 
L 622.078465 373.982112 
L 622.669134 372.678915 
L 622.750316 370.119063 
L 623.40817 368.862408 
L 623.601327 472.559695 
L 623.601327 467.533076 
L 624.012836 461.296345 
L 624.684687 448.194556 
L 624.877844 444.703849 
L 624.914236 441.469126 
L 625.356537 438.420575 
L 625.401327 435.558195 
L 625.563691 432.835443 
L 626.028388 430.229048 
L 626.073178 427.73901 
L 626.235542 425.342057 
L 626.700239 423.03819 
L 626.884998 418.639898 
L 627.37209 416.545474 
L 627.453272 412.519524 
L 628.043941 410.588 
L 628.125123 406.864578 
L 628.715791 405.04941 
L 628.796973 401.558703 
L 629.387642 399.859891 
L 629.468824 396.555355 
L 630.059493 394.949629 
L 630.140675 391.807993 
L 630.731344 390.272081 
L 630.812526 387.270073 
L 631.403195 385.803976 
L 631.484377 382.941595 
L 632.075045 381.522041 
L 632.156227 378.752746 
L 632.746896 377.403006 
L 632.828078 374.726797 
L 633.418747 373.423599 
L 633.499929 370.840476 
L 634.090598 369.583821 
L 634.17178 367.093783 
L 634.762449 365.860399 
L 634.843631 363.440175 
L 635.434299 362.253335 
L 635.515481 359.902925 
L 636.10615 358.739356 
L 636.187332 356.45876 
L 636.778001 355.318462 
L 636.859183 353.08441 
L 637.449852 351.990655 
L 637.531034 349.803144 
L 638.121703 348.732661 
L 638.202885 346.591693 
L 638.793553 345.544481 
L 638.874735 343.450057 
L 639.465404 342.426116 
L 639.546586 340.378234 
L 640.137255 339.377564 
L 640.218437 337.376225 
L 640.809106 336.375556 
L 640.890288 334.42076 
L 641.480957 333.443361 
L 641.562139 331.511837 
L 642.152807 330.55771 
L 642.233989 328.649456 
L 642.824658 327.718601 
L 642.90584 326.787746 
L 643.098997 480.006538 
L 643.098997 467.533076 
L 643.712061 456.316269 
L 644.397909 441.469126 
L 644.840211 438.420575 
L 644.885001 435.558195 
L 645.047365 432.835443 
L 645.512062 430.229048 
L 645.556852 427.73901 
L 645.719216 425.342057 
L 646.251097 423.03819 
L 646.444255 472.559695 
L 646.444255 467.533076 
L 652.434924 461.296345 
L 653.011596 456.316269 
L 653.201954 480.006538 
L 653.201954 467.533076 
L 653.845811 452.034335 
L 654.635236 435.558195 
L 654.680026 432.835443 
L 654.847988 430.229048 
L 654.892778 427.73901 
L 655.06354 425.342057 
L 655.253898 420.804137 
L 655.533836 412.519524 
L 655.704598 408.703017 
L 655.962141 401.558703 
L 656.110508 398.184352 
L 656.345656 391.807993 
L 656.494023 388.759441 
L 657.011908 374.726797 
L 657.58578 373.423599 
L 657.672561 370.840476 
L 658.257631 369.583821 
L 658.344412 367.093783 
L 658.929482 365.860399 
L 659.016263 363.440175 
L 659.601333 362.253335 
L 659.688114 359.902925 
L 660.273184 358.739356 
L 660.359964 356.45876 
L 660.945034 355.318462 
L 661.031815 353.08441 
L 661.616885 351.990655 
L 661.703666 349.803144 
L 662.288736 348.732661 
L 662.375517 346.591693 
L 662.960587 345.544481 
L 663.047368 343.450057 
L 663.632438 342.426116 
L 663.719218 340.378234 
L 664.304288 339.377564 
L 664.391069 337.376225 
L 664.976139 336.375556 
L 665.06292 334.42076 
L 665.64799 333.443361 
L 665.734771 331.511837 
L 666.319841 330.55771 
L 666.406622 328.649456 
L 666.991692 327.718601 
L 667.078472 325.85689 
L 667.663542 324.926035 
L 667.750323 323.110867 
L 668.335393 322.203283 
L 668.422174 320.388115 
L 669.007244 319.503802 
L 669.094025 317.735177 
L 669.679095 316.850865 
L 669.765876 315.105511 
L 670.350946 314.24447 
L 670.437726 312.522387 
L 671.022796 311.661346 
L 671.109577 309.985806 
L 671.694647 309.148036 
L 671.781428 307.472497 
L 672.366498 306.634727 
L 672.453279 305.00573 
L 673.038349 304.191232 
L 673.12513 302.562235 
L 673.7102 301.747736 
L 673.79698 300.142011 
L 674.38205 299.350784 
L 674.468831 297.76833 
L 675.053901 296.977103 
L 675.140682 295.394649 
L 675.725752 294.626693 
L 675.812533 293.090781 
L 676.397603 292.322826 
L 676.484384 290.786914 
L 677.133839 290.018959 
L 677.170231 467.533076 
L 677.326997 472.559695 
L 677.326997 467.533076 
L 677.7609 461.296345 
L 678.432751 448.194556 
L 678.625908 444.703849 
L 678.6623 441.469126 
L 679.104602 438.420575 
L 679.149392 435.558195 
L 679.311756 432.835443 
L 679.776453 430.229048 
L 679.821243 427.73901 
L 679.983607 425.342057 
L 680.448303 423.03819 
L 680.633062 418.639898 
L 681.120154 416.545474 
L 681.201336 412.519524 
L 681.792005 410.588 
L 681.873187 406.864578 
L 682.463856 405.04941 
L 682.545038 401.558703 
L 683.135707 399.859891 
L 683.216889 396.555355 
L 683.807557 394.949629 
L 683.888739 391.807993 
L 684.479408 390.272081 
L 684.56059 387.270073 
L 685.151259 385.803976 
L 685.232441 382.941595 
L 685.82311 381.522041 
L 685.904292 378.752746 
L 686.494961 377.403006 
L 686.576143 374.726797 
L 687.166811 373.423599 
L 687.247993 370.840476 
L 687.838662 369.583821 
L 687.919844 367.093783 
L 688.510513 365.860399 
L 688.591695 363.440175 
L 689.182364 362.253335 
L 689.263546 359.902925 
L 689.854215 358.739356 
L 689.935397 356.45876 
L 690.526065 355.318462 
L 690.607247 353.08441 
L 691.197916 351.990655 
L 691.279098 349.803144 
L 691.869767 348.732661 
L 691.950949 346.591693 
L 692.541618 345.544481 
L 692.6228 343.450057 
L 693.213469 342.426116 
L 693.294651 340.378234 
L 693.885319 339.377564 
L 693.966501 337.376225 
L 694.55717 336.375556 
L 694.638352 334.42076 
L 695.229021 333.443361 
L 695.310203 331.511837 
L 695.900872 330.55771 
L 695.982054 328.649456 
L 696.572723 327.718601 
L 696.653905 325.85689 
L 697.244574 324.926035 
L 697.325755 323.110867 
L 697.916424 322.203283 
L 697.997606 320.388115 
L 698.588275 319.503802 
L 698.669457 317.735177 
L 699.260126 316.850865 
L 699.341308 315.105511 
L 699.931977 314.24447 
L 700.013159 312.522387 
L 700.603828 311.661346 
L 700.68501 309.985806 
L 701.275678 309.148036 
L 701.35686 307.472497 
L 701.947529 306.634727 
L 702.028711 305.00573 
L 702.61938 304.191232 
L 702.700562 302.562235 
L 703.291231 301.747736 
L 703.372413 300.142011 
L 703.963082 299.350784 
L 704.044264 297.76833 
L 704.634932 296.977103 
L 704.716114 295.394649 
L 705.306783 294.626693 
L 705.387965 293.090781 
L 705.978634 292.322826 
L 706.059816 290.786914 
L 706.650485 290.018959 
L 706.731667 288.506319 
L 707.322336 287.761635 
L 707.403518 286.272266 
L 707.994186 285.527582 
L 708.075368 284.038213 
L 708.666037 283.293529 
L 708.747219 281.850703 
L 709.337888 281.12929 
L 709.41907 279.686464 
L 710.009739 278.965051 
L 710.090921 277.522226 
L 710.68159 276.800813 
L 710.762772 275.40453 
L 711.35344 274.706388 
L 711.434622 273.310105 
L 712.025291 272.611964 
L 712.106473 271.21568 
L 712.697142 270.517539 
L 712.778324 269.121256 
L 713.368993 268.446386 
L 713.450175 267.096646 
L 714.040844 266.421775 
L 714.122026 265.072035 
L 714.712694 264.397165 
L 714.793876 263.047425 
L 715.384545 262.372555 
L 715.465727 261.046086 
L 716.056396 260.394487 
L 716.137578 259.091289 
L 716.728247 258.439691 
L 716.809429 257.136493 
L 717.400098 256.484894 
L 717.48128 255.181697 
L 718.071948 254.530098 
L 718.15313 253.226901 
L 718.743799 252.598573 
L 718.824981 251.341919 
L 720.067905 250.085264 
L 720.168683 463.809655 
L 720.258263 465.112852 
L 720.258263 463.809655 
L 720.759352 458.387422 
L 721.431203 446.193217 
L 721.62436 442.842138 
L 721.660752 439.723772 
L 722.103053 436.791578 
L 722.147843 433.999012 
L 722.310207 431.346074 
L 722.774904 428.809493 
L 722.959663 424.015588 
L 723.446755 421.758264 
L 723.527937 417.453058 
L 724.118606 415.381905 
L 724.199788 411.425769 
L 724.790457 409.517516 
L 724.871639 405.840637 
L 725.462307 404.048741 
L 725.543489 400.581304 
L 726.134158 398.905765 
L 726.21534 395.6245 
L 726.806009 394.018774 
L 726.887191 390.92368 
L 727.47786 389.41104 
L 727.559042 386.455574 
L 728.149711 384.989477 
L 728.230893 382.127097 
L 728.821561 380.730814 
L 728.902743 377.98479 
L 729.493412 376.63505 
L 729.574594 373.982112 
L 730.165263 372.678915 
L 730.246445 370.119063 
L 730.837114 368.862408 
L 730.918296 366.37237 
L 731.508965 365.138986 
L 731.590147 362.718763 
L 732.180815 361.531922 
L 732.261997 359.181512 
L 732.852666 358.017943 
L 732.933848 355.737347 
L 733.524517 354.620321 
L 733.605699 352.386268 
L 734.196368 351.292513 
L 734.27755 349.128274 
L 734.868219 348.057791 
L 734.949401 345.940095 
L 735.540069 344.892882 
L 735.621251 342.821729 
L 736.21192 341.797788 
L 736.293102 339.749906 
L 736.883771 338.749237 
L 736.964953 336.747898 
L 737.555622 335.7705 
L 737.636804 333.815704 
L 738.227473 332.838305 
L 738.308655 330.930052 
L 738.899323 329.975925 
L 738.980505 328.090943 
L 739.571174 327.160088 
L 739.652356 325.298377 
L 740.243025 324.390793 
L 740.324207 322.575625 
L 740.914876 321.668041 
L 740.996058 319.876145 
L 741.586727 318.991832 
L 741.667909 317.223207 
L 742.258577 316.338894 
L 742.339759 314.616812 
L 742.930428 313.755771 
L 743.01161 312.033688 
L 743.602279 311.172647 
L 743.683461 309.497107 
L 744.27413 308.659337 
L 744.355312 306.983798 
L 744.945981 306.146028 
L 745.027163 304.517031 
L 745.617831 303.702533 
L 745.699013 302.073536 
L 746.289682 301.259037 
L 746.370864 299.676583 
L 746.961533 298.885356 
L 747.042715 297.302902 
L 747.633384 296.511675 
L 747.714566 294.952492 
L 748.305235 294.184537 
L 748.386417 292.648625 
L 748.977086 291.88067 
L 749.058267 290.344758 
L 749.648936 289.576802 
L 749.730118 288.087434 
L 750.320787 287.34275 
L 750.401969 285.853381 
L 750.992638 285.108697 
L 751.07382 283.619328 
L 751.664489 282.874644 
L 751.745671 281.431818 
L 752.33634 280.710405 
L 752.417522 279.267579 
L 753.00819 278.546166 
L 753.089372 277.103341 
L 753.680041 276.381928 
L 753.761223 274.985645 
L 754.351892 274.287503 
L 754.433074 272.89122 
L 755.023743 272.193079 
L 755.104925 270.796796 
L 755.695594 270.098654 
L 755.776776 268.725642 
L 756.367444 268.050772 
L 756.448626 266.701032 
L 757.039295 266.026162 
L 757.120477 264.676422 
L 757.711146 264.001551 
L 757.792328 262.651811 
L 758.382997 261.976941 
L 758.464179 260.650472 
L 759.054848 259.998873 
L 759.13603 258.695676 
L 759.726698 258.044077 
L 759.80788 256.74088 
L 760.398549 256.089281 
L 760.479731 254.786083 
L 761.0704 254.134485 
L 761.151582 252.854558 
L 761.742251 252.226231 
L 761.823433 250.969576 
L 762.414102 250.341249 
L 762.495284 249.084594 
L 763.085952 248.456267 
L 763.167134 247.199612 
L 763.757803 246.571285 
L 763.838985 245.31463 
L 764.429654 244.686303 
L 764.510836 243.476191 
L 765.101505 242.871135 
L 765.182687 241.661023 
L 765.773356 241.055967 
L 765.854538 239.845855 
L 766.445206 239.240799 
L 766.526388 238.030687 
L 767.117057 237.425631 
L 767.198239 236.215519 
L 767.788908 235.610463 
L 767.87009 234.423622 
L 768.460759 233.841838 
L 768.541941 232.678268 
L 769.13261 232.096484 
L 769.213792 230.932915 
L 769.80446 230.35113 
L 769.885642 229.187561 
L 770.476311 228.605776 
L 770.557493 227.442207 
L 771.148162 226.860422 
L 771.229344 225.696853 
L 771.820013 225.115069 
L 771.901195 223.974771 
L 772.491864 223.416258 
L 772.573046 222.299231 
L 773.163715 221.740718 
L 773.244896 220.623692 
L 773.835565 220.065178 
L 773.916747 218.948152 
L 774.507416 218.389639 
L 774.588598 217.272612 
L 775.179267 216.714099 
L 775.260449 215.597073 
L 775.851118 215.038559 
L 775.9323 213.921533 
L 776.522969 213.36302 
L 776.60415 212.292536 
L 777.194819 211.757294 
L 777.276001 210.686811 
L 777.86667 210.151569 
L 777.947852 209.081085 
L 778.538521 208.545843 
L 778.619703 207.47536 
L 779.210372 206.940118 
L 779.291554 205.869634 
L 779.882223 205.334392 
L 779.963405 204.263909 
L 780.554073 203.728667 
L 780.635255 202.658183 
L 781.225924 202.122941 
L 781.307106 201.075729 
L 781.897775 200.563759 
L 781.978957 199.539818 
L 782.569626 199.027847 
L 782.650808 198.003906 
L 783.241477 197.491936 
L 783.322659 196.467995 
L 783.980512 195.956024 
L 784.17367 472.559695 
L 784.17367 467.533076 
L 784.585178 461.296345 
L 785.257029 448.194556 
L 785.450186 444.703849 
L 785.486578 441.469126 
L 785.92888 438.420575 
L 785.97367 435.558195 
L 786.136034 432.835443 
L 786.600731 430.229048 
L 786.645521 427.73901 
L 786.807885 425.342057 
L 787.272581 423.03819 
L 787.45734 418.639898 
L 787.944432 416.545474 
L 788.025614 412.519524 
L 788.616283 410.588 
L 788.697465 406.864578 
L 789.288134 405.04941 
L 789.369316 401.558703 
L 789.959985 399.859891 
L 790.041167 396.555355 
L 790.631835 394.949629 
L 790.713017 391.807993 
L 791.370871 390.272081 
L 791.564028 472.559695 
L 791.564028 467.533076 
L 791.975537 461.296345 
L 792.647388 448.194556 
L 792.840545 444.703849 
L 792.876937 441.469126 
L 793.319239 438.420575 
L 793.364029 435.558195 
L 793.526393 432.835443 
L 793.991089 430.229048 
L 794.03588 427.73901 
L 794.198243 425.342057 
L 794.66294 423.03819 
L 794.847699 418.639898 
L 795.334791 416.545474 
L 795.415973 412.519524 
L 796.006642 410.588 
L 796.087824 406.864578 
L 796.678493 405.04941 
L 796.759675 401.558703 
L 797.350343 399.859891 
L 797.431525 396.555355 
L 798.022194 394.949629 
L 798.103376 391.807993 
L 798.694045 390.272081 
L 798.775227 387.270073 
L 799.365896 385.803976 
L 799.447078 382.941595 
L 800.037747 381.522041 
L 800.118929 378.752746 
L 800.709598 377.403006 
L 800.790779 374.726797 
L 801.381448 373.423599 
L 801.46263 370.840476 
L 802.053299 369.583821 
L 802.134481 367.093783 
L 802.72515 365.860399 
L 802.806332 363.440175 
L 803.397001 362.253335 
L 803.478183 359.902925 
L 804.068852 358.739356 
L 804.150034 356.45876 
L 804.740702 355.318462 
L 804.821884 353.08441 
L 805.412553 351.990655 
L 805.493735 349.803144 
L 806.084404 348.732661 
L 806.165586 346.591693 
L 806.756255 345.544481 
L 806.837437 343.450057 
L 807.428106 342.426116 
L 807.509288 340.378234 
L 808.099956 339.377564 
L 808.181138 337.376225 
L 808.771807 336.375556 
L 808.852989 334.42076 
L 809.443658 333.443361 
L 809.52484 331.511837 
L 810.115509 330.55771 
L 810.196691 328.649456 
L 810.78736 327.718601 
L 810.868542 325.85689 
L 811.45921 324.926035 
L 811.540392 323.110867 
L 812.131061 322.203283 
L 812.212243 320.388115 
L 812.802912 319.503802 
L 812.884094 317.735177 
L 813.474763 316.850865 
L 813.555945 315.105511 
L 814.146614 314.24447 
L 814.227796 312.522387 
L 814.818464 311.661346 
L 814.899646 309.985806 
L 815.490315 309.148036 
L 815.571497 307.472497 
L 816.162166 306.634727 
L 816.243348 305.00573 
L 816.834017 304.191232 
L 816.915199 302.562235 
L 817.505868 301.747736 
L 817.58705 300.142011 
L 818.177718 299.350784 
L 818.2589 297.76833 
L 818.849569 296.977103 
L 818.930751 295.394649 
L 819.52142 294.626693 
L 819.602602 293.090781 
L 820.193271 292.322826 
L 820.274453 290.786914 
L 820.865122 290.018959 
L 820.946304 288.506319 
L 821.536972 287.761635 
L 821.618154 286.272266 
L 822.208823 285.527582 
L 822.290005 284.038213 
L 822.880674 283.293529 
L 822.961856 281.850703 
L 823.552525 281.12929 
L 823.633707 279.686464 
L 824.224376 278.965051 
L 824.305558 277.522226 
L 824.896226 276.800813 
L 824.977408 275.40453 
L 825.568077 274.706388 
L 825.649259 273.310105 
L 826.239928 272.611964 
L 826.32111 271.21568 
L 826.911779 270.517539 
L 826.992961 269.121256 
L 827.58363 268.446386 
L 827.664812 267.096646 
L 828.255481 266.421775 
L 828.336662 265.072035 
L 828.927331 264.397165 
L 829.008513 263.047425 
L 829.599182 262.372555 
L 829.680364 261.046086 
L 830.271033 260.394487 
L 830.352215 259.091289 
L 830.942884 258.439691 
L 831.024066 257.136493 
L 831.614735 256.484894 
L 831.695917 255.181697 
L 832.286585 254.530098 
L 832.367767 253.226901 
L 832.958436 252.598573 
L 833.039618 251.341919 
L 833.630287 250.713591 
L 833.711469 249.456936 
L 834.302138 248.828609 
L 834.38332 247.571954 
L 834.973989 246.943627 
L 835.055171 245.686972 
L 835.645839 245.058645 
L 835.727021 243.825261 
L 836.31769 243.220205 
L 836.398872 242.010094 
L 836.989541 241.405038 
L 837.070723 240.194926 
L 837.661392 239.58987 
L 837.742574 238.379758 
L 838.333243 237.774702 
L 838.414425 236.56459 
L 839.005093 235.959534 
L 839.086275 234.749422 
L 839.676944 234.167637 
L 839.758126 233.004068 
L 840.348795 232.422283 
L 840.429977 231.258714 
L 841.020646 230.676929 
L 841.101828 229.51336 
L 841.692497 228.931576 
L 841.773679 227.768006 
L 842.364347 227.186222 
L 842.445529 226.022653 
L 843.036198 225.440868 
L 843.11738 224.30057 
L 843.708049 223.742057 
L 843.789231 222.625031 
L 844.3799 222.066517 
L 844.461082 220.949491 
L 845.051751 220.390978 
L 845.132933 219.273951 
L 845.723601 218.715438 
L 845.804783 217.598412 
L 846.395452 217.039898 
L 846.476634 215.922872 
L 847.067303 215.364359 
L 847.148485 214.247332 
L 847.739154 213.688819 
L 847.820336 212.618335 
L 848.411005 212.083094 
L 848.492187 211.01261 
L 849.082855 210.477368 
L 849.164037 209.406884 
L 849.754706 208.871643 
L 849.835888 207.801159 
L 850.426557 207.265917 
L 850.507739 206.195433 
L 851.098408 205.660192 
L 851.17959 204.589708 
L 851.770259 204.054466 
L 851.851441 202.983982 
L 852.44211 202.448741 
L 852.523291 201.378257 
L 853.11396 200.866287 
L 853.195142 199.842346 
L 853.785811 199.330375 
L 853.866993 198.306434 
L 854.457662 197.794464 
L 854.538844 196.770523 
L 855.129513 196.258552 
L 855.210695 195.234612 
L 855.801364 194.722641 
L 855.882546 193.6987 
L 856.473214 193.18673 
L 856.554396 192.162789 
L 857.145065 191.650818 
L 857.226247 190.626878 
L 857.816916 190.114907 
L 857.898098 189.090966 
L 858.488767 188.578996 
L 858.569949 187.601598 
L 859.160618 187.112899 
L 859.2418 186.1355 
L 859.832468 185.646801 
L 859.91365 184.669403 
L 860.504319 184.180704 
L 860.585501 183.203306 
L 861.17617 182.714607 
L 861.257352 181.737209 
L 861.848021 181.24851 
L 861.929203 180.271112 
L 862.519872 179.782413 
L 862.601054 178.805014 
L 863.191722 178.316315 
L 863.272904 177.338917 
L 863.863573 176.850218 
L 863.944755 175.87282 
L 864.535424 175.384121 
L 864.616606 174.406723 
L 865.207275 173.918024 
L 865.288457 172.987168 
L 865.879126 172.521741 
L 865.960308 171.590885 
L 866.550976 171.125458 
L 866.632158 170.194602 
L 867.222827 169.729175 
L 867.304009 168.798319 
L 867.894678 168.332892 
L 867.97586 167.402036 
L 868.566529 166.936609 
L 868.647711 166.005753 
L 869.23838 165.540326 
L 869.319562 164.60947 
L 869.91023 164.144042 
L 869.991412 163.213187 
L 870.582081 162.747759 
L 870.663263 161.816904 
L 871.253932 161.351476 
L 871.335114 160.420621 
L 871.925783 159.955193 
L 872.006965 159.024338 
L 872.597634 158.55891 
L 872.678816 157.651326 
L 873.269484 157.20917 
L 873.350666 156.324857 
L 873.941335 155.882701 
L 874.022517 154.998389 
L 874.613186 154.556232 
L 874.694368 153.67192 
L 875.285037 153.229763 
L 875.366219 152.345451 
L 875.956888 151.903294 
L 876.03807 151.018982 
L 876.628738 150.576826 
L 876.70992 149.692513 
L 877.300589 149.250357 
L 877.381771 148.366044 
L 877.97244 147.923888 
L 878.053622 147.039575 
L 878.644291 146.597419 
L 878.725473 145.713106 
L 879.316142 145.27095 
L 879.397324 144.386637 
L 879.987993 143.944481 
L 880.069174 143.060169 
L 880.659843 142.618012 
L 880.741025 141.7337 
L 881.331694 141.291543 
L 881.412876 140.407231 
L 882.003545 139.988346 
L 882.084727 139.150576 
L 882.675396 138.731691 
L 882.756578 137.893921 
L 883.347247 137.475036 
L 883.428429 136.637267 
L 884.019097 136.218382 
L 884.100279 135.380612 
L 884.690948 134.961727 
L 884.77213 134.123957 
L 885.362799 133.705072 
L 885.443981 132.867302 
L 886.03465 132.448417 
L 886.115832 131.610648 
L 886.706501 131.191763 
L 886.787683 130.353993 
L 887.378351 129.935108 
L 887.459533 129.097338 
L 888.050202 128.678453 
L 888.131384 127.840683 
L 888.722053 127.421798 
L 888.803235 126.584029 
L 889.393904 126.165144 
L 889.475086 125.327374 
L 890.065755 124.908489 
L 890.146937 124.070719 
L 890.737605 123.651834 
L 890.818787 122.814064 
L 891.409456 122.395179 
L 891.490638 121.55741 
L 892.081307 121.138525 
L 892.162489 120.324026 
L 892.753158 119.928413 
L 892.83434 119.137186 
L 893.425009 118.741572 
L 893.506191 117.950345 
L 894.096859 117.554732 
L 894.178041 116.763505 
L 894.76871 116.367891 
L 894.849892 115.576664 
L 895.440561 115.18105 
L 895.521743 114.389823 
L 896.112412 113.99421 
L 896.193594 113.202983 
L 896.784263 112.807369 
L 896.865445 112.016142 
L 897.456113 111.620529 
L 897.537295 110.829302 
L 898.127964 110.433688 
L 898.209146 109.642461 
L 898.799815 109.246848 
L 898.880997 108.45562 
L 899.471666 108.060007 
L 899.552848 107.26878 
L 900.143517 106.873166 
L 900.224699 106.081939 
L 900.815367 105.686326 
L 900.896549 104.895099 
L 901.487218 104.499485 
L 901.5684 103.708258 
L 902.159069 103.312645 
L 902.240251 102.521418 
L 902.83092 102.125804 
L 902.912102 101.334577 
L 903.502771 100.938963 
L 903.583953 100.147736 
L 904.174622 99.752123 
L 904.255803 98.960896 
L 904.846472 98.588554 
L 904.927654 97.843869 
L 905.518323 97.471527 
L 905.599505 96.726843 
L 906.190174 96.354501 
L 906.271356 95.609816 
L 906.862025 95.237474 
L 906.943207 94.49279 
L 907.533876 94.120448 
L 907.615058 93.375764 
L 908.205726 93.003421 
L 908.286908 92.258737 
L 908.877577 91.886395 
L 908.958759 91.141711 
L 909.549428 90.769369 
L 909.63061 90.024684 
L 910.221279 89.652342 
L 910.302461 89.28 
L 910.495618 480.006538 
L 910.495618 467.533076 
L 911.108682 456.316269 
L 911.794529 441.469126 
L 912.236831 438.420575 
L 912.281621 435.558195 
L 912.443985 432.835443 
L 912.908682 430.229048 
L 912.953472 427.73901 
L 913.115836 425.342057 
L 913.580533 423.03819 
L 913.765292 418.639898 
L 914.252384 416.545474 
L 914.333566 412.519524 
L 914.924234 410.588 
L 915.005416 406.864578 
L 915.596085 405.04941 
L 915.677267 401.558703 
L 916.267936 399.859891 
L 916.349118 396.555355 
L 916.939787 394.949629 
L 917.020969 391.807993 
L 917.611638 390.272081 
L 917.69282 387.270073 
L 918.283488 385.803976 
L 918.36467 382.941595 
L 918.955339 381.522041 
L 919.036521 378.752746 
L 919.62719 377.403006 
L 919.708372 374.726797 
L 920.299041 373.423599 
L 920.380223 370.840476 
L 920.970892 369.583821 
L 921.052074 367.093783 
L 921.642742 365.860399 
L 921.723924 363.440175 
L 922.314593 362.253335 
L 922.395775 359.902925 
L 922.986444 358.739356 
L 923.067626 356.45876 
L 923.658295 355.318462 
L 923.739477 353.08441 
L 924.330146 351.990655 
L 924.411328 349.803144 
L 925.001996 348.732661 
L 925.083178 346.591693 
L 925.673847 345.544481 
L 925.755029 343.450057 
L 926.345698 342.426116 
L 926.42688 340.378234 
L 927.017549 339.377564 
L 927.098731 337.376225 
L 927.6894 336.375556 
L 927.770582 334.42076 
L 928.36125 333.443361 
L 928.442432 331.511837 
L 929.033101 330.55771 
L 929.114283 328.649456 
L 929.704952 327.718601 
L 929.786134 325.85689 
L 930.376803 324.926035 
L 930.457985 323.110867 
L 931.048654 322.203283 
L 931.129836 320.388115 
L 931.720505 319.503802 
L 931.801686 317.735177 
L 932.392355 316.850865 
L 932.473537 315.105511 
L 933.064206 314.24447 
L 933.145388 312.522387 
L 933.736057 311.661346 
L 933.817239 309.985806 
L 934.407908 309.148036 
L 934.48909 307.472497 
L 935.079759 306.634727 
L 935.160941 305.00573 
L 935.751609 304.191232 
L 935.832791 302.562235 
L 936.42346 301.747736 
L 936.504642 300.142011 
L 937.095311 299.350784 
L 937.176493 297.76833 
L 937.767162 296.977103 
L 937.848344 295.394649 
L 938.439013 294.626693 
L 938.520195 293.090781 
L 939.110863 292.322826 
L 939.192045 290.786914 
L 939.782714 290.018959 
L 939.863896 288.506319 
L 940.454565 287.761635 
L 940.535747 286.272266 
L 941.126416 285.527582 
L 941.207598 284.038213 
L 941.798267 283.293529 
L 941.879449 282.572116 
L 942.072606 480.006538 
L 942.072606 467.533076 
L 942.68567 456.316269 
L 943.371517 441.469126 
L 943.813819 438.420575 
L 943.858609 435.558195 
L 944.020973 432.835443 
L 944.48567 430.229048 
L 944.53046 427.73901 
L 944.692824 425.342057 
L 945.157521 423.03819 
L 945.34228 418.639898 
L 945.829371 416.545474 
L 945.910553 412.519524 
L 946.501222 410.588 
L 946.582404 406.864578 
L 947.173073 405.04941 
L 947.254255 401.558703 
L 947.844924 399.859891 
L 947.926106 396.555355 
L 948.516775 394.949629 
L 948.597957 391.807993 
L 949.188625 390.272081 
L 949.269807 387.270073 
L 949.860476 385.803976 
L 949.941658 382.941595 
L 950.532327 381.522041 
L 950.613509 378.752746 
L 951.204178 377.403006 
L 951.28536 374.726797 
L 951.876029 373.423599 
L 951.957211 370.840476 
L 952.547879 369.583821 
L 952.629061 367.093783 
L 953.21973 365.860399 
L 953.300912 363.440175 
L 953.891581 362.253335 
L 953.972763 359.902925 
L 954.563432 358.739356 
L 954.644614 356.45876 
L 955.235283 355.318462 
L 955.316465 353.08441 
L 955.907134 351.990655 
L 955.988315 349.803144 
L 956.578984 348.732661 
L 956.660166 346.591693 
L 957.250835 345.544481 
L 957.332017 343.450057 
L 957.922686 342.426116 
L 958.003868 340.378234 
L 958.594537 339.377564 
L 958.675719 337.376225 
L 959.266388 336.375556 
L 959.34757 334.42076 
L 959.938238 333.443361 
L 960.01942 331.511837 
L 960.610089 330.55771 
L 960.691271 328.649456 
L 961.28194 327.718601 
L 961.363122 325.85689 
L 961.953791 324.926035 
L 962.034973 323.110867 
L 962.625642 322.203283 
L 962.706824 320.388115 
L 963.297492 319.503802 
L 963.378674 317.735177 
L 963.969343 316.850865 
L 964.050525 315.105511 
L 964.641194 314.24447 
L 964.722376 312.522387 
L 965.313045 311.661346 
L 965.394227 309.985806 
L 965.984896 309.148036 
L 966.066078 307.472497 
L 966.656746 306.634727 
L 966.737928 305.00573 
L 967.328597 304.191232 
L 967.409779 302.562235 
L 968.000448 301.747736 
L 968.08163 300.142011 
L 968.672299 299.350784 
L 968.753481 297.76833 
L 969.34415 296.977103 
L 969.425332 295.394649 
L 970.016 294.626693 
L 970.097182 293.090781 
L 970.687851 292.322826 
L 970.769033 290.786914 
L 971.359702 290.018959 
L 971.440884 288.506319 
L 972.031553 287.761635 
L 972.112735 286.272266 
L 972.703404 285.527582 
L 972.784586 284.038213 
L 973.375254 283.293529 
L 973.456436 281.850703 
L 974.047105 281.12929 
L 974.128287 279.686464 
L 974.718956 278.965051 
L 974.800138 277.522226 
L 975.390807 276.800813 
L 975.471989 275.40453 
L 976.062658 274.706388 
L 976.14384 273.310105 
L 976.734508 272.611964 
L 976.81569 271.21568 
L 977.406359 270.517539 
L 977.487541 269.121256 
L 978.07821 268.446386 
L 978.159392 267.096646 
L 978.750061 266.421775 
L 978.831243 265.072035 
L 979.421912 264.397165 
L 979.503094 263.047425 
L 980.093762 262.372555 
L 980.174944 261.046086 
L 980.810403 260.394487 
L 980.846795 467.533076 
L 981.00356 472.559695 
L 981.00356 467.533076 
L 981.437464 461.296345 
L 982.109315 448.194556 
L 982.302472 444.703849 
L 982.338864 441.469126 
L 982.781166 438.420575 
L 982.825956 435.558195 
L 982.98832 432.835443 
L 983.453017 430.229048 
L 983.497807 427.73901 
L 983.660171 425.342057 
L 984.124867 423.03819 
L 984.309626 418.639898 
L 984.796718 416.545474 
L 984.8779 412.519524 
L 985.468569 410.588 
L 985.549751 408.703017 
L 985.742908 480.006538 
L 985.742908 467.533076 
L 986.355972 456.316269 
L 987.04182 441.469126 
L 987.484121 438.420575 
L 987.528911 435.558195 
L 987.691275 432.835443 
L 988.155972 430.229048 
L 988.200762 427.73901 
L 988.363126 425.342057 
L 988.827823 423.03819 
L 989.012582 418.639898 
L 989.499674 416.545474 
L 989.580856 412.519524 
L 990.171525 410.588 
L 990.252707 406.864578 
L 990.843375 405.04941 
L 990.924557 401.558703 
L 991.515226 399.859891 
L 991.596408 396.555355 
L 992.187077 394.949629 
L 992.268259 391.807993 
L 992.858928 390.272081 
L 992.94011 387.270073 
L 993.530779 385.803976 
L 993.611961 382.941595 
L 994.202629 381.522041 
L 994.283811 378.752746 
L 994.87448 377.403006 
L 994.955662 374.726797 
L 995.546331 373.423599 
L 995.627513 370.840476 
L 996.218182 369.583821 
L 996.218182 369.583821 
" clip-path="url(#pfc69a4fa5a)" style="fill: none; stroke: #1f77b4; stroke-width: 1.5; stroke-linecap: square"/>
   </g>
   <g id="patch_3">
    <path d="M 144 512.64 
L 144 69.12 
" style="fill: none; stroke: #000000; stroke-width: 0.8; stroke-linejoin: miter; stroke-linecap: square"/>
   </g>
   <g id="patch_4">
    <path d="M 1036.8 512.64 
L 1036.8 69.12 
" style="fill: none; stroke: #000000; stroke-width: 0.8; stroke-linejoin: miter; stroke-linecap: square"/>
   </g>
   <g id="patch_5">
    <path d="M 144 512.64 
L 1036.8 512.64 
" style="fill: none; stroke: #000000; stroke-width: 0.8; stroke-linejoin: miter; stroke-linecap: square"/>
   </g>
   <g id="patch_6">
    <path d="M 144 69.12 
L 1036.8 69.12 
" style="fill: none; stroke: #000000; stroke-width: 0.8; stroke-linejoin: miter; stroke-linecap: square"/>
   </g>
   <g id="text_18">
    <!-- Graph of congestion window vs Time result/apprate1 -->
    <g transform="translate(418.222109 63.12) scale(0.13 -0.13)">
     <defs>
      <path id="DejaVuSans-47" d="M 3809 666 
L 3809 1919 
L 2778 1919 
L 2778 2438 
L 4434 2438 
L 4434 434 
Q 4069 175 3628 42 
Q 3188 -91 2688 -91 
Q 1594 -91 976 548 
Q 359 1188 359 2328 
Q 359 3472 976 4111 
Q 1594 4750 2688 4750 
Q 3144 4750 3555 4637 
Q 3966 4525 4313 4306 
L 4313 3634 
Q 3963 3931 3569 4081 
Q 3175 4231 2741 4231 
Q 1884 4231 1454 3753 
Q 1025 3275 1025 2328 
Q 1025 1384 1454 906 
Q 1884 428 2741 428 
Q 3075 428 3337 486 
Q 3600 544 3809 666 
z
" transform="scale(0.015625)"/>
      <path id="DejaVuSans-72" d="M 2631 2963 
Q 2534 3019 2420 3045 
Q 2306 3072 2169 3072 
Q 1681 3072 1420 2755 
Q 1159 2438 1159 1844 
L 1159 0 
L 581 0 
L 581 3500 
L 1159 3500 
L 1159 2956 
Q 1341 3275 1631 3429 
Q 1922 3584 2338 3584 
Q 2397 3584 2469 3576 
Q 2541 3569 2628 3553 
L 2631 2963 
z
" transform="scale(0.015625)"/>
      <path id="DejaVuSans-61" d="M 2194 1759 
Q 1497 1759 1228 1600 
Q 959 1441 959 1056 
Q 959 750 1161 570 
Q 1363 391 1709 391 
Q 2188 391 2477 730 
Q 2766 1069 2766 1631 
L 2766 1759 
L 2194 1759 
z
M 3341 1997 
L 3341 0 
L 2766 0 
L 2766 531 
Q 2569 213 2275 61 
Q 1981 -91 1556 -91 
Q 1019 -91 701 211 
Q 384 513 384 1019 
Q 384 1609 779 1909 
Q 1175 2209 1959 2209 
L 2766 2209 
L 2766 2266 
Q 2766 2663 2505 2880 
Q 2244 3097 1772 3097 
Q 1472 3097 1187 3025 
Q 903 2953 641 2809 
L 641 3341 
Q 956 3463 1253 3523 
Q 1550 3584 1831 3584 
Q 2591 3584 2966 3190 
Q 3341 2797 3341 1997 
z
" transform="scale(0.015625)"/>
      <path id="DejaVuSans-70" d="M 1159 525 
L 1159 -1331 
L 581 -1331 
L 581 3500 
L 1159 3500 
L 1159 2969 
Q 1341 3281 1617 3432 
Q 1894 3584 2278 3584 
Q 2916 3584 3314 3078 
Q 3713 2572 3713 1747 
Q 3713 922 3314 415 
Q 2916 -91 2278 -91 
Q 1894 -91 1617 61 
Q 1341 213 1159 525 
z
M 3116 1747 
Q 3116 2381 2855 2742 
Q 2594 3103 2138 3103 
Q 1681 3103 1420 2742 
Q 1159 2381 1159 1747 
Q 1159 1113 1420 752 
Q 1681 391 2138 391 
Q 2594 391 2855 752 
Q 3116 1113 3116 1747 
z
" transform="scale(0.015625)"/>
      <path id="DejaVuSans-68" d="M 3513 2113 
L 3513 0 
L 2938 0 
L 2938 2094 
Q 2938 2591 2744 2837 
Q 2550 3084 2163 3084 
Q 1697 3084 1428 2787 
Q 1159 2491 1159 1978 
L 1159 0 
L 581 0 
L 581 4863 
L 1159 4863 
L 1159 2956 
Q 1366 3272 1645 3428 
Q 1925 3584 2291 3584 
Q 2894 3584 3203 3211 
Q 3513 2838 3513 2113 
z
" transform="scale(0.015625)"/>
      <path id="DejaVuSans-66" d="M 2375 4863 
L 2375 4384 
L 1825 4384 
Q 1516 4384 1395 4259 
Q 1275 4134 1275 3809 
L 1275 3500 
L 2222 3500 
L 2222 3053 
L 1275 3053 
L 1275 0 
L 697 0 
L 697 3053 
L 147 3053 
L 147 3500 
L 697 3500 
L 697 3744 
Q 697 4328 969 4595 
Q 1241 4863 1831 4863 
L 2375 4863 
z
" transform="scale(0.015625)"/>
      <path id="DejaVuSans-76" d="M 191 3500 
L 800 3500 
L 1894 563 
L 2988 3500 
L 3597 3500 
L 2284 0 
L 1503 0 
L 191 3500 
z
" transform="scale(0.015625)"/>
      <path id="DejaVuSans-75" d="M 544 1381 
L 544 3500 
L 1119 3500 
L 1119 1403 
Q 1119 906 1312 657 
Q 1506 409 1894 409 
Q 2359 409 2629 706 
Q 2900 1003 2900 1516 
L 2900 3500 
L 3475 3500 
L 3475 0 
L 2900 0 
L 2900 538 
Q 2691 219 2414 64 
Q 2138 -91 1772 -91 
Q 1169 -91 856 284 
Q 544 659 544 1381 
z
M 1991 3584 
L 1991 3584 
z
" transform="scale(0.015625)"/>
      <path id="DejaVuSans-6c" d="M 603 4863 
L 1178 4863 
L 1178 0 
L 603 0 
L 603 4863 
z
" transform="scale(0.015625)"/>
      <path id="DejaVuSans-2f" d="M 1625 4666 
L 2156 4666 
L 531 -594 
L 0 -594 
L 1625 4666 
z
" transform="scale(0.015625)"/>
     </defs>
     <use xlink:href="#DejaVuSans-47"/>
     <use xlink:href="#DejaVuSans-72" x="77.490234"/>
     <use xlink:href="#DejaVuSans-61" x="118.603516"/>
     <use xlink:href="#DejaVuSans-70" x="179.882812"/>
     <use xlink:href="#DejaVuSans-68" x="243.359375"/>
     <use xlink:href="#DejaVuSans-20" x="306.738281"/>
     <use xlink:href="#DejaVuSans-6f" x="338.525391"/>
     <use xlink:href="#DejaVuSans-66" x="399.707031"/>
     <use xlink:href="#DejaVuSans-20" x="434.912109"/>
     <use xlink:href="#DejaVuSans-63" x="466.699219"/>
     <use xlink:href="#DejaVuSans-6f" x="521.679688"/>
     <use xlink:href="#DejaVuSans-6e" x="582.861328"/>
     <use xlink:href="#DejaVuSans-67" x="646.240234"/>
     <use xlink:href="#DejaVuSans-65" x="709.716797"/>
     <use xlink:href="#DejaVuSans-73" x="771.240234"/>
     <use xlink:href="#DejaVuSans-74" x="823.339844"/>
     <use xlink:href="#DejaVuSans-69" x="862.548828"/>
     <use xlink:href="#DejaVuSans-6f" x="890.332031"/>
     <use xlink:href="#DejaVuSans-6e" x="951.513672"/>
     <use xlink:href="#DejaVuSans-20" x="1014.892578"/>
     <use xlink:href="#DejaVuSans-77" x="1046.679688"/>
     <use xlink:href="#DejaVuSans-69" x="1128.466797"/>
     <use xlink:href="#DejaVuSans-6e" x="1156.25"/>
     <use xlink:href="#DejaVuSans-64" x="1219.628906"/>
     <use xlink:href="#DejaVuSans-6f" x="1283.105469"/>
     <use xlink:href="#DejaVuSans-77" x="1344.287109"/>
     <use xlink:href="#DejaVuSans-20" x="1426.074219"/>
     <use xlink:href="#DejaVuSans-76" x="1457.861328"/>
     <use xlink:href="#DejaVuSans-73" x="1517.041016"/>
     <use xlink:href="#DejaVuSans-20" x="1569.140625"/>
     <use xlink:href="#DejaVuSans-54" x="1600.927734"/>
     <use xlink:href="#DejaVuSans-69" x="1658.886719"/>
     <use xlink:href="#DejaVuSans-6d" x="1686.669922"/>
     <use xlink:href="#DejaVuSans-65" x="1784.082031"/>
     <use xlink:href="#DejaVuSans-20" x="1845.605469"/>
     <use xlink:href="#DejaVuSans-72" x="1877.392578"/>
     <use xlink:href="#DejaVuSans-65" x="1916.255859"/>
     <use xlink:href="#DejaVuSans-73" x="1977.779297"/>
     <use xlink:href="#DejaVuSans-75" x="2029.878906"/>
     <use xlink:href="#DejaVuSans-6c" x="2093.257812"/>
     <use xlink:href="#DejaVuSans-74" x="2121.041016"/>
     <use xlink:href="#DejaVuSans-2f" x="2160.25"/>
     <use xlink:href="#DejaVuSans-61" x="2193.941406"/>
     <use xlink:href="#DejaVuSans-70" x="2255.220703"/>
     <use xlink:href="#DejaVuSans-70" x="2318.697266"/>
     <use xlink:href="#DejaVuSans-72" x="2382.173828"/>
     <use xlink:href="#DejaVuSans-61" x="2423.287109"/>
     <use xlink:href="#DejaVuSans-74" x="2484.566406"/>
     <use xlink:href="#DejaVuSans-65" x="2523.775391"/>
     <use xlink:href="#DejaVuSans-31" x="2585.298828"/>
    </g>
   </g>
  </g>
 </g>
 <defs>
  <clipPath id="pfc69a4fa5a">
   <rect x="144" y="69.12" width="892.8" height="443.52"/>
  </clipPath>
 </defs>
</svg>
