<?xml version="1.0" encoding="utf-8" standalone="no"?>
<!DOCTYPE svg PUBLIC "-//W3C//DTD SVG 1.1//EN"
  "http://www.w3.org/Graphics/SVG/1.1/DTD/svg11.dtd">
<svg xmlns:xlink="http://www.w3.org/1999/xlink" width="1152pt" height="576pt" viewBox="0 0 1152 576" xmlns="http://www.w3.org/2000/svg" version="1.1">
 <metadata>
  <rdf:RDF xmlns:dc="http://purl.org/dc/elements/1.1/" xmlns:cc="http://creativecommons.org/ns#" xmlns:rdf="http://www.w3.org/1999/02/22-rdf-syntax-ns#">
   <cc:Work>
    <dc:type rdf:resource="http://purl.org/dc/dcmitype/StillImage"/>
    <dc:date>2023-01-05T15:16:13.208828</dc:date>
    <dc:format>image/svg+xml</dc:format>
    <dc:creator>
     <cc:Agent>
      <dc:title>Matplotlib v3.6.2, https://matplotlib.org/</dc:title>
     </cc:Agent>
    </dc:creator>
   </cc:Work>
  </rdf:RDF>
 </metadata>
 <defs>
  <style type="text/css">*{stroke-linejoin: round; stroke-linecap: butt}</style>
 </defs>
 <g id="figure_1">
  <g id="patch_1">
   <path d="M 0 576 
L 1152 576 
L 1152 0 
L 0 0 
z
" style="fill: #ffffff"/>
  </g>
  <g id="axes_1">
   <g id="patch_2">
    <path d="M 144 512.64 
L 1036.8 512.64 
L 1036.8 69.12 
L 144 69.12 
z
" style="fill: #ffffff"/>
   </g>
   <g id="matplotlib.axis_1">
    <g id="xtick_1">
     <g id="line2d_1">
      <defs>
       <path id="md8f2138655" d="M 0 0 
L 0 3.5 
" style="stroke: #000000; stroke-width: 0.8"/>
      </defs>
      <g>
       <use xlink:href="#md8f2138655" x="250.794951" y="512.64" style="stroke: #000000; stroke-width: 0.8"/>
      </g>
     </g>
     <g id="text_1">
      <!-- 2 -->
      <g transform="translate(247.613701 527.238438) scale(0.1 -0.1)">
       <defs>
        <path id="DejaVuSans-32" d="M 1228 531 
L 3431 531 
L 3431 0 
L 469 0 
L 469 531 
Q 828 903 1448 1529 
Q 2069 2156 2228 2338 
Q 2531 2678 2651 2914 
Q 2772 3150 2772 3378 
Q 2772 3750 2511 3984 
Q 2250 4219 1831 4219 
Q 1534 4219 1204 4116 
Q 875 4013 500 3803 
L 500 4441 
Q 881 4594 1212 4672 
Q 1544 4750 1819 4750 
Q 2544 4750 2975 4387 
Q 3406 4025 3406 3419 
Q 3406 3131 3298 2873 
Q 3191 2616 2906 2266 
Q 2828 2175 2409 1742 
Q 1991 1309 1228 531 
z
" transform="scale(0.015625)"/>
       </defs>
       <use xlink:href="#DejaVuSans-32"/>
      </g>
     </g>
    </g>
    <g id="xtick_2">
     <g id="line2d_2">
      <g>
       <use xlink:href="#md8f2138655" x="384.040678" y="512.64" style="stroke: #000000; stroke-width: 0.8"/>
      </g>
     </g>
     <g id="text_2">
      <!-- 4 -->
      <g transform="translate(380.859428 527.238438) scale(0.1 -0.1)">
       <defs>
        <path id="DejaVuSans-34" d="M 2419 4116 
L 825 1625 
L 2419 1625 
L 2419 4116 
z
M 2253 4666 
L 3047 4666 
L 3047 1625 
L 3713 1625 
L 3713 1100 
L 3047 1100 
L 3047 0 
L 2419 0 
L 2419 1100 
L 313 1100 
L 313 1709 
L 2253 4666 
z
" transform="scale(0.015625)"/>
       </defs>
       <use xlink:href="#DejaVuSans-34"/>
      </g>
     </g>
    </g>
    <g id="xtick_3">
     <g id="line2d_3">
      <g>
       <use xlink:href="#md8f2138655" x="517.286404" y="512.64" style="stroke: #000000; stroke-width: 0.8"/>
      </g>
     </g>
     <g id="text_3">
      <!-- 6 -->
      <g transform="translate(514.105154 527.238438) scale(0.1 -0.1)">
       <defs>
        <path id="DejaVuSans-36" d="M 2113 2584 
Q 1688 2584 1439 2293 
Q 1191 2003 1191 1497 
Q 1191 994 1439 701 
Q 1688 409 2113 409 
Q 2538 409 2786 701 
Q 3034 994 3034 1497 
Q 3034 2003 2786 2293 
Q 2538 2584 2113 2584 
z
M 3366 4563 
L 3366 3988 
Q 3128 4100 2886 4159 
Q 2644 4219 2406 4219 
Q 1781 4219 1451 3797 
Q 1122 3375 1075 2522 
Q 1259 2794 1537 2939 
Q 1816 3084 2150 3084 
Q 2853 3084 3261 2657 
Q 3669 2231 3669 1497 
Q 3669 778 3244 343 
Q 2819 -91 2113 -91 
Q 1303 -91 875 529 
Q 447 1150 447 2328 
Q 447 3434 972 4092 
Q 1497 4750 2381 4750 
Q 2619 4750 2861 4703 
Q 3103 4656 3366 4563 
z
" transform="scale(0.015625)"/>
       </defs>
       <use xlink:href="#DejaVuSans-36"/>
      </g>
     </g>
    </g>
    <g id="xtick_4">
     <g id="line2d_4">
      <g>
       <use xlink:href="#md8f2138655" x="650.532131" y="512.64" style="stroke: #000000; stroke-width: 0.8"/>
      </g>
     </g>
     <g id="text_4">
      <!-- 8 -->
      <g transform="translate(647.350881 527.238438) scale(0.1 -0.1)">
       <defs>
        <path id="DejaVuSans-38" d="M 2034 2216 
Q 1584 2216 1326 1975 
Q 1069 1734 1069 1313 
Q 1069 891 1326 650 
Q 1584 409 2034 409 
Q 2484 409 2743 651 
Q 3003 894 3003 1313 
Q 3003 1734 2745 1975 
Q 2488 2216 2034 2216 
z
M 1403 2484 
Q 997 2584 770 2862 
Q 544 3141 544 3541 
Q 544 4100 942 4425 
Q 1341 4750 2034 4750 
Q 2731 4750 3128 4425 
Q 3525 4100 3525 3541 
Q 3525 3141 3298 2862 
Q 3072 2584 2669 2484 
Q 3125 2378 3379 2068 
Q 3634 1759 3634 1313 
Q 3634 634 3220 271 
Q 2806 -91 2034 -91 
Q 1263 -91 848 271 
Q 434 634 434 1313 
Q 434 1759 690 2068 
Q 947 2378 1403 2484 
z
M 1172 3481 
Q 1172 3119 1398 2916 
Q 1625 2713 2034 2713 
Q 2441 2713 2670 2916 
Q 2900 3119 2900 3481 
Q 2900 3844 2670 4047 
Q 2441 4250 2034 4250 
Q 1625 4250 1398 4047 
Q 1172 3844 1172 3481 
z
" transform="scale(0.015625)"/>
       </defs>
       <use xlink:href="#DejaVuSans-38"/>
      </g>
     </g>
    </g>
    <g id="xtick_5">
     <g id="line2d_5">
      <g>
       <use xlink:href="#md8f2138655" x="783.777858" y="512.64" style="stroke: #000000; stroke-width: 0.8"/>
      </g>
     </g>
     <g id="text_5">
      <!-- 10 -->
      <g transform="translate(777.415358 527.238438) scale(0.1 -0.1)">
       <defs>
        <path id="DejaVuSans-31" d="M 794 531 
L 1825 531 
L 1825 4091 
L 703 3866 
L 703 4441 
L 1819 4666 
L 2450 4666 
L 2450 531 
L 3481 531 
L 3481 0 
L 794 0 
L 794 531 
z
" transform="scale(0.015625)"/>
        <path id="DejaVuSans-30" d="M 2034 4250 
Q 1547 4250 1301 3770 
Q 1056 3291 1056 2328 
Q 1056 1369 1301 889 
Q 1547 409 2034 409 
Q 2525 409 2770 889 
Q 3016 1369 3016 2328 
Q 3016 3291 2770 3770 
Q 2525 4250 2034 4250 
z
M 2034 4750 
Q 2819 4750 3233 4129 
Q 3647 3509 3647 2328 
Q 3647 1150 3233 529 
Q 2819 -91 2034 -91 
Q 1250 -91 836 529 
Q 422 1150 422 2328 
Q 422 3509 836 4129 
Q 1250 4750 2034 4750 
z
" transform="scale(0.015625)"/>
       </defs>
       <use xlink:href="#DejaVuSans-31"/>
       <use xlink:href="#DejaVuSans-30" x="63.623047"/>
      </g>
     </g>
    </g>
    <g id="xtick_6">
     <g id="line2d_6">
      <g>
       <use xlink:href="#md8f2138655" x="917.023584" y="512.64" style="stroke: #000000; stroke-width: 0.8"/>
      </g>
     </g>
     <g id="text_6">
      <!-- 12 -->
      <g transform="translate(910.661084 527.238438) scale(0.1 -0.1)">
       <use xlink:href="#DejaVuSans-31"/>
       <use xlink:href="#DejaVuSans-32" x="63.623047"/>
      </g>
     </g>
    </g>
    <g id="text_7">
     <!-- Time in seconds -->
     <g transform="translate(537.870859 543.196094) scale(0.13 -0.13)">
      <defs>
       <path id="DejaVuSans-54" d="M -19 4666 
L 3928 4666 
L 3928 4134 
L 2272 4134 
L 2272 0 
L 1638 0 
L 1638 4134 
L -19 4134 
L -19 4666 
z
" transform="scale(0.015625)"/>
       <path id="DejaVuSans-69" d="M 603 3500 
L 1178 3500 
L 1178 0 
L 603 0 
L 603 3500 
z
M 603 4863 
L 1178 4863 
L 1178 4134 
L 603 4134 
L 603 4863 
z
" transform="scale(0.015625)"/>
       <path id="DejaVuSans-6d" d="M 3328 2828 
Q 3544 3216 3844 3400 
Q 4144 3584 4550 3584 
Q 5097 3584 5394 3201 
Q 5691 2819 5691 2113 
L 5691 0 
L 5113 0 
L 5113 2094 
Q 5113 2597 4934 2840 
Q 4756 3084 4391 3084 
Q 3944 3084 3684 2787 
Q 3425 2491 3425 1978 
L 3425 0 
L 2847 0 
L 2847 2094 
Q 2847 2600 2669 2842 
Q 2491 3084 2119 3084 
Q 1678 3084 1418 2786 
Q 1159 2488 1159 1978 
L 1159 0 
L 581 0 
L 581 3500 
L 1159 3500 
L 1159 2956 
Q 1356 3278 1631 3431 
Q 1906 3584 2284 3584 
Q 2666 3584 2933 3390 
Q 3200 3197 3328 2828 
z
" transform="scale(0.015625)"/>
       <path id="DejaVuSans-65" d="M 3597 1894 
L 3597 1613 
L 953 1613 
Q 991 1019 1311 708 
Q 1631 397 2203 397 
Q 2534 397 2845 478 
Q 3156 559 3463 722 
L 3463 178 
Q 3153 47 2828 -22 
Q 2503 -91 2169 -91 
Q 1331 -91 842 396 
Q 353 884 353 1716 
Q 353 2575 817 3079 
Q 1281 3584 2069 3584 
Q 2775 3584 3186 3129 
Q 3597 2675 3597 1894 
z
M 3022 2063 
Q 3016 2534 2758 2815 
Q 2500 3097 2075 3097 
Q 1594 3097 1305 2825 
Q 1016 2553 972 2059 
L 3022 2063 
z
" transform="scale(0.015625)"/>
       <path id="DejaVuSans-20" transform="scale(0.015625)"/>
       <path id="DejaVuSans-6e" d="M 3513 2113 
L 3513 0 
L 2938 0 
L 2938 2094 
Q 2938 2591 2744 2837 
Q 2550 3084 2163 3084 
Q 1697 3084 1428 2787 
Q 1159 2491 1159 1978 
L 1159 0 
L 581 0 
L 581 3500 
L 1159 3500 
L 1159 2956 
Q 1366 3272 1645 3428 
Q 1925 3584 2291 3584 
Q 2894 3584 3203 3211 
Q 3513 2838 3513 2113 
z
" transform="scale(0.015625)"/>
       <path id="DejaVuSans-73" d="M 2834 3397 
L 2834 2853 
Q 2591 2978 2328 3040 
Q 2066 3103 1784 3103 
Q 1356 3103 1142 2972 
Q 928 2841 928 2578 
Q 928 2378 1081 2264 
Q 1234 2150 1697 2047 
L 1894 2003 
Q 2506 1872 2764 1633 
Q 3022 1394 3022 966 
Q 3022 478 2636 193 
Q 2250 -91 1575 -91 
Q 1294 -91 989 -36 
Q 684 19 347 128 
L 347 722 
Q 666 556 975 473 
Q 1284 391 1588 391 
Q 1994 391 2212 530 
Q 2431 669 2431 922 
Q 2431 1156 2273 1281 
Q 2116 1406 1581 1522 
L 1381 1569 
Q 847 1681 609 1914 
Q 372 2147 372 2553 
Q 372 3047 722 3315 
Q 1072 3584 1716 3584 
Q 2034 3584 2315 3537 
Q 2597 3491 2834 3397 
z
" transform="scale(0.015625)"/>
       <path id="DejaVuSans-63" d="M 3122 3366 
L 3122 2828 
Q 2878 2963 2633 3030 
Q 2388 3097 2138 3097 
Q 1578 3097 1268 2742 
Q 959 2388 959 1747 
Q 959 1106 1268 751 
Q 1578 397 2138 397 
Q 2388 397 2633 464 
Q 2878 531 3122 666 
L 3122 134 
Q 2881 22 2623 -34 
Q 2366 -91 2075 -91 
Q 1284 -91 818 406 
Q 353 903 353 1747 
Q 353 2603 823 3093 
Q 1294 3584 2113 3584 
Q 2378 3584 2631 3529 
Q 2884 3475 3122 3366 
z
" transform="scale(0.015625)"/>
       <path id="DejaVuSans-6f" d="M 1959 3097 
Q 1497 3097 1228 2736 
Q 959 2375 959 1747 
Q 959 1119 1226 758 
Q 1494 397 1959 397 
Q 2419 397 2687 759 
Q 2956 1122 2956 1747 
Q 2956 2369 2687 2733 
Q 2419 3097 1959 3097 
z
M 1959 3584 
Q 2709 3584 3137 3096 
Q 3566 2609 3566 1747 
Q 3566 888 3137 398 
Q 2709 -91 1959 -91 
Q 1206 -91 779 398 
Q 353 888 353 1747 
Q 353 2609 779 3096 
Q 1206 3584 1959 3584 
z
" transform="scale(0.015625)"/>
       <path id="DejaVuSans-64" d="M 2906 2969 
L 2906 4863 
L 3481 4863 
L 3481 0 
L 2906 0 
L 2906 525 
Q 2725 213 2448 61 
Q 2172 -91 1784 -91 
Q 1150 -91 751 415 
Q 353 922 353 1747 
Q 353 2572 751 3078 
Q 1150 3584 1784 3584 
Q 2172 3584 2448 3432 
Q 2725 3281 2906 2969 
z
M 947 1747 
Q 947 1113 1208 752 
Q 1469 391 1925 391 
Q 2381 391 2643 752 
Q 2906 1113 2906 1747 
Q 2906 2381 2643 2742 
Q 2381 3103 1925 3103 
Q 1469 3103 1208 2742 
Q 947 2381 947 1747 
z
" transform="scale(0.015625)"/>
      </defs>
      <use xlink:href="#DejaVuSans-54"/>
      <use xlink:href="#DejaVuSans-69" x="57.958984"/>
      <use xlink:href="#DejaVuSans-6d" x="85.742188"/>
      <use xlink:href="#DejaVuSans-65" x="183.154297"/>
      <use xlink:href="#DejaVuSans-20" x="244.677734"/>
      <use xlink:href="#DejaVuSans-69" x="276.464844"/>
      <use xlink:href="#DejaVuSans-6e" x="304.248047"/>
      <use xlink:href="#DejaVuSans-20" x="367.626953"/>
      <use xlink:href="#DejaVuSans-73" x="399.414062"/>
      <use xlink:href="#DejaVuSans-65" x="451.513672"/>
      <use xlink:href="#DejaVuSans-63" x="513.037109"/>
      <use xlink:href="#DejaVuSans-6f" x="568.017578"/>
      <use xlink:href="#DejaVuSans-6e" x="629.199219"/>
      <use xlink:href="#DejaVuSans-64" x="692.578125"/>
      <use xlink:href="#DejaVuSans-73" x="756.054688"/>
     </g>
    </g>
   </g>
   <g id="matplotlib.axis_2">
    <g id="ytick_1">
     <g id="line2d_7">
      <defs>
       <path id="mb4acec4804" d="M 0 0 
L -3.5 0 
" style="stroke: #000000; stroke-width: 0.8"/>
      </defs>
      <g>
       <use xlink:href="#mb4acec4804" x="144" y="492.48" style="stroke: #000000; stroke-width: 0.8"/>
      </g>
     </g>
     <g id="text_8">
      <!-- 0 -->
      <g transform="translate(130.6375 496.279219) scale(0.1 -0.1)">
       <use xlink:href="#DejaVuSans-30"/>
      </g>
     </g>
    </g>
    <g id="ytick_2">
     <g id="line2d_8">
      <g>
       <use xlink:href="#mb4acec4804" x="144" y="442.772794" style="stroke: #000000; stroke-width: 0.8"/>
      </g>
     </g>
     <g id="text_9">
      <!-- 2000 -->
      <g transform="translate(111.55 446.572013) scale(0.1 -0.1)">
       <use xlink:href="#DejaVuSans-32"/>
       <use xlink:href="#DejaVuSans-30" x="63.623047"/>
       <use xlink:href="#DejaVuSans-30" x="127.246094"/>
       <use xlink:href="#DejaVuSans-30" x="190.869141"/>
      </g>
     </g>
    </g>
    <g id="ytick_3">
     <g id="line2d_9">
      <g>
       <use xlink:href="#mb4acec4804" x="144" y="393.065588" style="stroke: #000000; stroke-width: 0.8"/>
      </g>
     </g>
     <g id="text_10">
      <!-- 4000 -->
      <g transform="translate(111.55 396.864807) scale(0.1 -0.1)">
       <use xlink:href="#DejaVuSans-34"/>
       <use xlink:href="#DejaVuSans-30" x="63.623047"/>
       <use xlink:href="#DejaVuSans-30" x="127.246094"/>
       <use xlink:href="#DejaVuSans-30" x="190.869141"/>
      </g>
     </g>
    </g>
    <g id="ytick_4">
     <g id="line2d_10">
      <g>
       <use xlink:href="#mb4acec4804" x="144" y="343.358383" style="stroke: #000000; stroke-width: 0.8"/>
      </g>
     </g>
     <g id="text_11">
      <!-- 6000 -->
      <g transform="translate(111.55 347.157601) scale(0.1 -0.1)">
       <use xlink:href="#DejaVuSans-36"/>
       <use xlink:href="#DejaVuSans-30" x="63.623047"/>
       <use xlink:href="#DejaVuSans-30" x="127.246094"/>
       <use xlink:href="#DejaVuSans-30" x="190.869141"/>
      </g>
     </g>
    </g>
    <g id="ytick_5">
     <g id="line2d_11">
      <g>
       <use xlink:href="#mb4acec4804" x="144" y="293.651177" style="stroke: #000000; stroke-width: 0.8"/>
      </g>
     </g>
     <g id="text_12">
      <!-- 8000 -->
      <g transform="translate(111.55 297.450395) scale(0.1 -0.1)">
       <use xlink:href="#DejaVuSans-38"/>
       <use xlink:href="#DejaVuSans-30" x="63.623047"/>
       <use xlink:href="#DejaVuSans-30" x="127.246094"/>
       <use xlink:href="#DejaVuSans-30" x="190.869141"/>
      </g>
     </g>
    </g>
    <g id="ytick_6">
     <g id="line2d_12">
      <g>
       <use xlink:href="#mb4acec4804" x="144" y="243.943971" style="stroke: #000000; stroke-width: 0.8"/>
      </g>
     </g>
     <g id="text_13">
      <!-- 10000 -->
      <g transform="translate(105.1875 247.74319) scale(0.1 -0.1)">
       <use xlink:href="#DejaVuSans-31"/>
       <use xlink:href="#DejaVuSans-30" x="63.623047"/>
       <use xlink:href="#DejaVuSans-30" x="127.246094"/>
       <use xlink:href="#DejaVuSans-30" x="190.869141"/>
       <use xlink:href="#DejaVuSans-30" x="254.492188"/>
      </g>
     </g>
    </g>
    <g id="ytick_7">
     <g id="line2d_13">
      <g>
       <use xlink:href="#mb4acec4804" x="144" y="194.236765" style="stroke: #000000; stroke-width: 0.8"/>
      </g>
     </g>
     <g id="text_14">
      <!-- 12000 -->
      <g transform="translate(105.1875 198.035984) scale(0.1 -0.1)">
       <use xlink:href="#DejaVuSans-31"/>
       <use xlink:href="#DejaVuSans-32" x="63.623047"/>
       <use xlink:href="#DejaVuSans-30" x="127.246094"/>
       <use xlink:href="#DejaVuSans-30" x="190.869141"/>
       <use xlink:href="#DejaVuSans-30" x="254.492188"/>
      </g>
     </g>
    </g>
    <g id="ytick_8">
     <g id="line2d_14">
      <g>
       <use xlink:href="#mb4acec4804" x="144" y="144.529559" style="stroke: #000000; stroke-width: 0.8"/>
      </g>
     </g>
     <g id="text_15">
      <!-- 14000 -->
      <g transform="translate(105.1875 148.328778) scale(0.1 -0.1)">
       <use xlink:href="#DejaVuSans-31"/>
       <use xlink:href="#DejaVuSans-34" x="63.623047"/>
       <use xlink:href="#DejaVuSans-30" x="127.246094"/>
       <use xlink:href="#DejaVuSans-30" x="190.869141"/>
       <use xlink:href="#DejaVuSans-30" x="254.492188"/>
      </g>
     </g>
    </g>
    <g id="ytick_9">
     <g id="line2d_15">
      <g>
       <use xlink:href="#mb4acec4804" x="144" y="94.822353" style="stroke: #000000; stroke-width: 0.8"/>
      </g>
     </g>
     <g id="text_16">
      <!-- 16000 -->
      <g transform="translate(105.1875 98.621572) scale(0.1 -0.1)">
       <use xlink:href="#DejaVuSans-31"/>
       <use xlink:href="#DejaVuSans-36" x="63.623047"/>
       <use xlink:href="#DejaVuSans-30" x="127.246094"/>
       <use xlink:href="#DejaVuSans-30" x="190.869141"/>
       <use xlink:href="#DejaVuSans-30" x="254.492188"/>
      </g>
     </g>
    </g>
    <g id="text_17">
     <!-- Congestion Window Sizes -->
     <g transform="translate(98.483906 373.964219) rotate(-90) scale(0.13 -0.13)">
      <defs>
       <path id="DejaVuSans-43" d="M 4122 4306 
L 4122 3641 
Q 3803 3938 3442 4084 
Q 3081 4231 2675 4231 
Q 1875 4231 1450 3742 
Q 1025 3253 1025 2328 
Q 1025 1406 1450 917 
Q 1875 428 2675 428 
Q 3081 428 3442 575 
Q 3803 722 4122 1019 
L 4122 359 
Q 3791 134 3420 21 
Q 3050 -91 2638 -91 
Q 1578 -91 968 557 
Q 359 1206 359 2328 
Q 359 3453 968 4101 
Q 1578 4750 2638 4750 
Q 3056 4750 3426 4639 
Q 3797 4528 4122 4306 
z
" transform="scale(0.015625)"/>
       <path id="DejaVuSans-67" d="M 2906 1791 
Q 2906 2416 2648 2759 
Q 2391 3103 1925 3103 
Q 1463 3103 1205 2759 
Q 947 2416 947 1791 
Q 947 1169 1205 825 
Q 1463 481 1925 481 
Q 2391 481 2648 825 
Q 2906 1169 2906 1791 
z
M 3481 434 
Q 3481 -459 3084 -895 
Q 2688 -1331 1869 -1331 
Q 1566 -1331 1297 -1286 
Q 1028 -1241 775 -1147 
L 775 -588 
Q 1028 -725 1275 -790 
Q 1522 -856 1778 -856 
Q 2344 -856 2625 -561 
Q 2906 -266 2906 331 
L 2906 616 
Q 2728 306 2450 153 
Q 2172 0 1784 0 
Q 1141 0 747 490 
Q 353 981 353 1791 
Q 353 2603 747 3093 
Q 1141 3584 1784 3584 
Q 2172 3584 2450 3431 
Q 2728 3278 2906 2969 
L 2906 3500 
L 3481 3500 
L 3481 434 
z
" transform="scale(0.015625)"/>
       <path id="DejaVuSans-74" d="M 1172 4494 
L 1172 3500 
L 2356 3500 
L 2356 3053 
L 1172 3053 
L 1172 1153 
Q 1172 725 1289 603 
Q 1406 481 1766 481 
L 2356 481 
L 2356 0 
L 1766 0 
Q 1100 0 847 248 
Q 594 497 594 1153 
L 594 3053 
L 172 3053 
L 172 3500 
L 594 3500 
L 594 4494 
L 1172 4494 
z
" transform="scale(0.015625)"/>
       <path id="DejaVuSans-57" d="M 213 4666 
L 850 4666 
L 1831 722 
L 2809 4666 
L 3519 4666 
L 4500 722 
L 5478 4666 
L 6119 4666 
L 4947 0 
L 4153 0 
L 3169 4050 
L 2175 0 
L 1381 0 
L 213 4666 
z
" transform="scale(0.015625)"/>
       <path id="DejaVuSans-77" d="M 269 3500 
L 844 3500 
L 1563 769 
L 2278 3500 
L 2956 3500 
L 3675 769 
L 4391 3500 
L 4966 3500 
L 4050 0 
L 3372 0 
L 2619 2869 
L 1863 0 
L 1184 0 
L 269 3500 
z
" transform="scale(0.015625)"/>
       <path id="DejaVuSans-53" d="M 3425 4513 
L 3425 3897 
Q 3066 4069 2747 4153 
Q 2428 4238 2131 4238 
Q 1616 4238 1336 4038 
Q 1056 3838 1056 3469 
Q 1056 3159 1242 3001 
Q 1428 2844 1947 2747 
L 2328 2669 
Q 3034 2534 3370 2195 
Q 3706 1856 3706 1288 
Q 3706 609 3251 259 
Q 2797 -91 1919 -91 
Q 1588 -91 1214 -16 
Q 841 59 441 206 
L 441 856 
Q 825 641 1194 531 
Q 1563 422 1919 422 
Q 2459 422 2753 634 
Q 3047 847 3047 1241 
Q 3047 1584 2836 1778 
Q 2625 1972 2144 2069 
L 1759 2144 
Q 1053 2284 737 2584 
Q 422 2884 422 3419 
Q 422 4038 858 4394 
Q 1294 4750 2059 4750 
Q 2388 4750 2728 4690 
Q 3069 4631 3425 4513 
z
" transform="scale(0.015625)"/>
       <path id="DejaVuSans-7a" d="M 353 3500 
L 3084 3500 
L 3084 2975 
L 922 459 
L 3084 459 
L 3084 0 
L 275 0 
L 275 525 
L 2438 3041 
L 353 3041 
L 353 3500 
z
" transform="scale(0.015625)"/>
      </defs>
      <use xlink:href="#DejaVuSans-43"/>
      <use xlink:href="#DejaVuSans-6f" x="69.824219"/>
      <use xlink:href="#DejaVuSans-6e" x="131.005859"/>
      <use xlink:href="#DejaVuSans-67" x="194.384766"/>
      <use xlink:href="#DejaVuSans-65" x="257.861328"/>
      <use xlink:href="#DejaVuSans-73" x="319.384766"/>
      <use xlink:href="#DejaVuSans-74" x="371.484375"/>
      <use xlink:href="#DejaVuSans-69" x="410.693359"/>
      <use xlink:href="#DejaVuSans-6f" x="438.476562"/>
      <use xlink:href="#DejaVuSans-6e" x="499.658203"/>
      <use xlink:href="#DejaVuSans-20" x="563.037109"/>
      <use xlink:href="#DejaVuSans-57" x="594.824219"/>
      <use xlink:href="#DejaVuSans-69" x="691.451172"/>
      <use xlink:href="#DejaVuSans-6e" x="719.234375"/>
      <use xlink:href="#DejaVuSans-64" x="782.613281"/>
      <use xlink:href="#DejaVuSans-6f" x="846.089844"/>
      <use xlink:href="#DejaVuSans-77" x="907.271484"/>
      <use xlink:href="#DejaVuSans-20" x="989.058594"/>
      <use xlink:href="#DejaVuSans-53" x="1020.845703"/>
      <use xlink:href="#DejaVuSans-69" x="1084.322266"/>
      <use xlink:href="#DejaVuSans-7a" x="1112.105469"/>
      <use xlink:href="#DejaVuSans-65" x="1164.595703"/>
      <use xlink:href="#DejaVuSans-73" x="1226.119141"/>
     </g>
    </g>
   </g>
   <g id="line2d_16">
    <path d="M 184.581818 492.48 
L 185.148779 345.943157 
L 186.931607 132.798659 
L 187.298032 199.157778 
L 188.293378 332.621626 
L 188.397976 324.917009 
L 190.075539 308.886435 
L 190.338034 307.941998 
L 190.547896 366.347965 
L 190.966953 425.872344 
L 191.05756 419.211579 
L 191.267423 425.872344 
L 191.37202 416.800779 
L 191.514593 414.46454 
L 191.829053 412.202863 
L 192.585889 401.764349 
L 192.847717 399.825768 
L 193.566578 390.654789 
L 193.814415 388.915037 
L 194.02361 385.5598 
L 194.270781 383.919462 
L 194.990308 374.524801 
L 195.603905 367.242695 
L 196.20351 360.358247 
L 197.499325 345.197549 
L 199.280821 326.109982 
L 201.587304 304.313372 
L 204.102983 283.138103 
L 205.884479 269.369207 
L 206.200937 268.573891 
L 206.462765 346.663912 
L 206.672627 379.246985 
L 206.985088 399.229282 
L 207.28689 397.340408 
L 207.44412 439.193875 
L 207.692623 459.176172 
L 207.743923 465.836938 
L 207.743923 459.176172 
L 208.201622 453.857501 
L 209.625353 441.455553 
L 210.081719 438.000902 
L 210.186983 434.74508 
L 210.591384 431.688087 
L 210.695982 428.780216 
L 211.100383 425.996612 
L 211.205647 423.337277 
L 211.610048 420.777356 
L 211.714646 418.316849 
L 212.06708 415.930903 
L 212.171678 413.619518 
L 212.524113 411.382694 
L 212.733309 407.08302 
L 213.033112 405.020171 
L 213.242974 401.043595 
L 213.542777 399.105014 
L 213.751973 395.376973 
L 213.99981 393.56266 
L 214.209006 390.033449 
L 214.456843 388.31855 
L 214.666038 384.963314 
L 214.913209 383.322976 
L 215.632736 373.978021 
L 216.246333 366.720769 
L 216.845938 359.886028 
L 218.350949 342.438799 
L 220.237708 322.630478 
L 222.229732 303.965422 
L 224.640147 283.684882 
L 227.051229 265.218655 
L 229.671506 246.727574 
L 232.187185 230.249636 
L 235.017324 212.876967 
L 238.686245 191.875673 
L 242.878822 169.557137 
L 245.918824 154.346732 
L 248.539101 141.820517 
L 251.893562 126.386429 
L 252.10409 125.914211 
L 252.313286 176.416732 
L 253.465861 332.621626 
L 253.570459 324.917009 
L 255.771679 304.164251 
L 258.49722 281.32379 
L 260.06952 269.220085 
L 260.332014 268.449623 
L 260.541876 325.215252 
L 261.117497 399.229282 
L 261.523231 393.662075 
L 265.259441 349.720905 
L 266.937004 331.180117 
L 268.823764 312.614476 
L 271.024983 293.178958 
L 272.282823 282.889567 
L 272.545317 282.044544 
L 272.755179 338.884734 
L 272.965707 363.564362 
L 273.122937 405.890047 
L 273.278835 412.550813 
L 273.331467 405.890047 
L 273.422074 412.550813 
L 273.422074 405.890047 
L 273.736534 401.863764 
L 273.879107 399.925183 
L 274.141601 398.011455 
L 274.388772 394.308269 
L 274.703232 390.754203 
L 275.302837 383.994023 
L 275.617297 380.787909 
L 276.336158 371.641783 
L 276.635961 368.733911 
L 277.54936 357.773472 
L 279.12166 339.381806 
L 281.113684 318.927291 
L 283.000443 301.60433 
L 283.524765 297.95085 
L 283.787259 360.92988 
L 284.205651 412.550813 
L 284.857888 404.075734 
L 285.577415 396.371118 
L 285.824586 392.742492 
L 286.139046 389.238134 
L 290.085785 343.010432 
L 292.077808 322.083698 
L 294.279028 301.67889 
L 296.480247 283.262371 
L 298.576202 267.157236 
L 300.882686 250.704151 
L 301.092548 249.983396 
L 301.407008 313.95657 
L 301.983295 385.907751 
L 302.597558 377.880037 
L 303.459658 367.540938 
L 304.26846 357.997155 
L 305.564274 343.060139 
L 307.451034 323.152403 
L 309.337793 305.406931 
L 311.329151 288.357359 
L 314.054692 267.18209 
L 316.884831 247.125232 
L 319.190649 231.964534 
L 322.020788 214.492451 
L 323.279294 207.657711 
L 323.541122 265.144094 
L 324.326605 372.58622 
L 324.326605 365.925454 
L 325.727018 348.875882 
L 327.509179 329.365804 
L 328.138099 323.028135 
L 328.400593 321.984284 
L 328.610455 380.191422 
L 328.976215 425.872344 
L 329.276684 423.213009 
L 329.381948 420.653088 
L 329.733717 418.192581 
L 329.838981 415.806635 
L 330.19075 413.49525 
L 330.295347 411.258426 
L 330.647782 409.096162 
L 330.857644 404.920757 
L 331.262711 402.907615 
L 331.367309 439.193875 
L 331.615813 452.515407 
L 331.719744 465.836938 
L 332.177443 459.176172 
L 333.196107 449.284438 
L 334.110173 441.455553 
L 334.566539 438.000902 
L 334.671803 434.74508 
L 335.076204 431.688087 
L 335.180802 428.780216 
L 335.585203 425.996612 
L 335.690467 423.337277 
L 336.094868 420.777356 
L 336.199466 418.316849 
L 336.551901 415.930903 
L 336.656498 413.619518 
L 337.16683 411.382694 
L 337.218795 425.872344 
L 337.519265 439.193875 
L 337.675828 465.836938 
L 338.133527 459.176172 
L 339.152191 449.284438 
L 340.066257 441.455553 
L 340.523289 438.000902 
L 340.627887 434.74508 
L 341.032288 431.688087 
L 341.137552 428.780216 
L 341.541953 425.996612 
L 341.646551 423.337277 
L 342.051618 420.777356 
L 342.156216 418.316849 
L 342.507985 415.930903 
L 342.613249 413.619518 
L 342.965017 411.382694 
L 343.174879 407.08302 
L 343.474682 405.020171 
L 343.683878 401.043595 
L 343.983681 399.105014 
L 344.193543 395.376973 
L 344.440714 393.56266 
L 344.650576 390.033449 
L 344.897747 388.31855 
L 345.107609 384.963314 
L 345.35478 383.322976 
L 345.969042 375.494091 
L 346.583305 368.137425 
L 347.496705 357.251547 
L 349.002381 340.102561 
L 350.993739 319.548631 
L 352.985096 301.206672 
L 355.29158 281.994837 
L 358.121719 260.645592 
L 358.331581 259.899984 
L 358.594075 319.648045 
L 359.169696 399.229282 
L 359.169696 392.568516 
L 359.470166 389.064158 
L 359.784625 387.34926 
L 360.242325 465.836938 
L 360.242325 459.176172 
L 360.700024 453.857501 
L 362.123088 441.455553 
L 362.580121 438.000902 
L 362.684719 434.74508 
L 363.089119 431.688087 
L 363.194384 428.780216 
L 363.598784 425.996612 
L 363.703382 423.337277 
L 364.107783 420.777356 
L 364.724045 418.316849 
L 364.776677 439.193875 
L 365.023847 452.515407 
L 365.48088 465.836938 
L 365.937913 459.176172 
L 366.956577 449.284438 
L 367.870642 441.455553 
L 368.327675 438.000902 
L 368.432273 434.74508 
L 368.836674 431.688087 
L 368.941938 428.780216 
L 369.346339 425.996612 
L 369.450937 423.337277 
L 369.855337 420.777356 
L 369.960602 418.316849 
L 370.31237 415.930903 
L 370.417634 413.619518 
L 370.769403 411.382694 
L 370.979265 407.08302 
L 371.279068 405.020171 
L 371.488264 401.043595 
L 371.788067 399.105014 
L 371.997929 395.376973 
L 372.2451 393.56266 
L 372.454962 390.033449 
L 372.702132 388.31855 
L 372.911994 384.963314 
L 373.159165 383.322976 
L 373.773428 375.494091 
L 374.387025 368.137425 
L 375.30109 357.251547 
L 376.806101 340.102561 
L 378.902722 318.529633 
L 379.113251 317.510636 
L 379.322446 366.347965 
L 379.532975 391.673787 
L 379.585607 419.211579 
L 379.74217 425.872344 
L 379.886076 419.211579 
L 380.04264 425.872344 
L 380.147237 416.800779 
L 382.132599 394.208854 
L 382.433734 392.419395 
L 382.942733 465.836938 
L 382.942733 459.176172 
L 383.400432 453.857501 
L 384.823496 441.455553 
L 385.280529 438.000902 
L 385.385127 434.74508 
L 385.790194 431.688087 
L 385.894792 428.780216 
L 386.299193 425.996612 
L 386.404457 423.337277 
L 386.808858 420.777356 
L 386.913455 418.316849 
L 387.26589 415.930903 
L 387.370488 413.619518 
L 387.722257 411.382694 
L 387.932119 407.08302 
L 388.231922 405.020171 
L 388.441784 401.043595 
L 388.741587 399.105014 
L 388.950783 395.376973 
L 389.197953 393.56266 
L 389.407815 390.033449 
L 389.654986 388.31855 
L 389.864848 384.963314 
L 390.112019 383.322976 
L 390.726282 375.494091 
L 391.340545 368.137425 
L 392.25461 357.251547 
L 393.654357 341.27068 
L 395.436518 322.630478 
L 397.323278 304.909859 
L 399.314635 287.909994 
L 399.734359 284.529904 
L 399.996853 283.684882 
L 400.206715 338.884734 
L 400.729705 412.550813 
L 400.729705 405.890047 
L 400.834969 403.852052 
L 401.082806 401.863764 
L 401.343968 398.011455 
L 401.592471 396.147435 
L 401.801667 392.518809 
L 402.048838 390.754203 
L 402.2587 387.299552 
L 402.50587 385.634361 
L 403.225397 376.115431 
L 403.838994 368.733911 
L 404.138797 365.9006 
L 405.15746 353.89631 
L 406.206104 341.693191 
L 406.468598 340.525072 
L 406.730426 402.808201 
L 406.992254 439.193875 
L 406.992254 432.53311 
L 407.344689 429.575531 
L 407.449953 426.767074 
L 407.854354 424.082885 
L 407.958952 421.49811 
L 408.311387 419.01275 
L 408.415985 416.60195 
L 408.76842 414.265712 
L 408.873017 412.004034 
L 409.224786 409.816917 
L 409.434648 405.591804 
L 409.734451 403.553809 
L 409.944313 399.62694 
L 410.24345 397.738066 
L 410.453312 394.059732 
L 410.700483 392.270273 
L 410.910345 388.765915 
L 411.157515 387.07587 
L 411.367377 383.770341 
L 411.614548 382.154857 
L 412.333409 372.909316 
L 412.947672 365.751479 
L 413.547277 358.941592 
L 415.119577 340.400804 
L 417.110934 319.822021 
L 419.207556 300.560478 
L 419.941074 294.247663 
L 420.151602 293.352933 
L 420.361464 352.603923 
L 420.832488 412.550813 
L 421.484725 404.075734 
L 422.203586 396.371118 
L 422.450757 392.742492 
L 422.765217 389.238134 
L 426.398162 346.589351 
L 426.660656 345.396378 
L 427.08038 432.53311 
L 427.184311 439.193875 
L 427.184311 432.53311 
L 427.537413 429.575531 
L 427.64201 426.767074 
L 428.046411 424.082885 
L 428.151009 421.49811 
L 428.503444 419.01275 
L 428.608042 416.60195 
L 428.960477 414.265712 
L 429.065075 412.004034 
L 429.41751 409.816917 
L 429.626706 405.591804 
L 429.926508 403.553809 
L 430.13637 399.62694 
L 430.436173 397.738066 
L 430.645369 394.059732 
L 430.893206 392.270273 
L 431.102402 388.765915 
L 431.349573 387.07587 
L 431.559435 383.770341 
L 431.806606 382.154857 
L 432.526133 372.909316 
L 433.139729 365.751479 
L 433.739335 358.941592 
L 435.311634 340.400804 
L 437.302992 319.822021 
L 438.037176 312.838158 
L 438.247704 311.868868 
L 438.509532 374.79819 
L 438.875291 425.872344 
L 438.875291 419.211579 
L 439.175761 416.800779 
L 439.281025 414.46454 
L 439.632793 412.202863 
L 439.842655 407.878336 
L 440.142458 405.790633 
L 440.247056 403.752638 
L 440.652123 401.764349 
L 440.810019 452.515407 
L 442.482253 465.836938 
L 442.939286 479.158469 
L 442.939286 465.836938 
L 443.95795 453.857501 
L 445.381014 441.455553 
L 445.838047 438.000902 
L 445.942645 434.74508 
L 446.347712 431.688087 
L 446.45231 428.780216 
L 446.85671 425.996612 
L 446.961975 423.337277 
L 447.366375 420.777356 
L 447.470973 418.316849 
L 447.823408 415.930903 
L 447.928006 413.619518 
L 448.279775 411.382694 
L 448.489637 407.08302 
L 448.78944 405.020171 
L 448.999302 401.043595 
L 449.299105 399.105014 
L 449.5083 395.376973 
L 449.755471 393.56266 
L 449.965333 390.033449 
L 450.212504 388.31855 
L 450.422366 384.963314 
L 450.669537 383.322976 
L 451.2838 375.494091 
L 451.898063 368.137425 
L 452.812128 357.251547 
L 454.211875 341.27068 
L 455.994036 322.630478 
L 457.880796 304.909859 
L 459.872153 287.909994 
L 461.235257 277.073824 
L 461.445785 276.253655 
L 461.760245 341.494362 
L 462.230602 399.229282 
L 462.636336 393.662075 
L 466.373212 349.720905 
L 467.945512 332.273676 
L 469.936869 312.614476 
L 472.138088 293.178958 
L 474.758366 272.301932 
L 477.274045 253.959973 
L 480.628506 231.616584 
L 481.990944 223.066944 
L 482.201472 222.420751 
L 482.4633 278.714161 
L 483.196151 372.58622 
L 484.072908 361.302684 
L 484.671848 354.741333 
L 486.454009 334.485646 
L 488.236171 316.566199 
L 490.332126 297.627753 
L 492.847805 277.123531 
L 495.258887 259.179229 
L 498.089026 239.768566 
L 500.709303 223.066944 
L 504.168362 202.513015 
L 508.256341 179.970797 
L 512.239722 159.565989 
L 512.502216 159.044063 
L 512.869308 226.273059 
L 513.75939 345.943157 
L 513.864654 338.139126 
L 515.646149 319.846874 
L 515.751413 318.827876 
L 516.013908 317.808879 
L 516.380999 391.673787 
L 516.642161 425.872344 
L 516.642161 419.211579 
L 516.94263 416.800779 
L 517.047228 414.46454 
L 517.399663 412.202863 
L 517.609525 407.878336 
L 517.908662 405.790633 
L 518.118524 401.764349 
L 518.418327 399.825768 
L 518.628189 396.048021 
L 518.927325 394.208854 
L 519.137187 390.654789 
L 519.384358 388.915037 
L 519.59422 385.5598 
L 519.841391 383.919462 
L 520.560252 374.524801 
L 521.174515 367.242695 
L 521.77412 360.358247 
L 522.964671 346.390522 
L 524.956694 325.066131 
L 527.05265 305.257809 
L 529.044007 288.208238 
L 531.97941 265.492045 
L 534.599688 246.97611 
L 536.905505 231.840266 
L 540.050104 212.504163 
L 543.614427 192.099355 
L 547.807004 169.78082 
L 550.532545 156.111338 
L 553.467283 142.019345 
L 557.03094 125.615967 
L 561.433378 106.354425 
L 561.9577 104.117601 
L 562.220861 103.670236 
L 562.482688 157.055775 
L 563.68723 319.300095 
L 563.791828 311.670039 
L 565.993047 292.333936 
L 568.613991 271.53147 
L 571.024406 253.984826 
L 573.121027 239.793419 
L 573.384188 239.097518 
L 573.750613 308.190534 
L 574.326235 385.907751 
L 574.326235 379.246985 
L 575.045762 370.200274 
L 575.645368 363.166704 
L 576.941182 347.658056 
L 578.61808 329.365804 
L 580.819299 308.140827 
L 583.334978 286.5679 
L 586.06052 265.541752 
L 588.157141 250.62959 
L 588.419635 249.908836 
L 588.734095 313.95657 
L 589.309717 385.907751 
L 589.92398 377.880037 
L 590.786079 367.540938 
L 591.700145 356.679914 
L 593.100558 340.723901 
L 594.777455 323.152403 
L 596.769479 304.462494 
L 599.285158 283.287224 
L 601.381113 267.18209 
L 604.421115 245.683723 
L 606.726932 230.62244 
L 606.93746 229.951392 
L 607.147322 284.405636 
L 607.880174 385.907751 
L 607.984772 377.681208 
L 608.599034 370.200274 
L 609.461801 361.799756 
L 609.657006 412.550813 
L 609.971465 452.515407 
L 609.971465 445.854641 
L 610.833565 438.547682 
L 610.938163 435.267006 
L 611.342564 432.185159 
L 611.447828 429.252434 
L 611.852229 426.468831 
L 611.956827 423.784642 
L 612.361894 421.22472 
L 612.466492 418.73936 
L 612.81826 416.353414 
L 612.923525 414.042029 
L 613.275293 411.780351 
L 613.485155 407.455824 
L 613.784958 405.392975 
L 613.994154 401.391545 
L 614.293957 399.452964 
L 614.503819 395.70007 
L 614.803622 393.885757 
L 615.013484 390.331692 
L 615.260655 388.616793 
L 615.46985 385.261557 
L 615.717687 383.621219 
L 616.331284 375.792334 
L 617.050811 367.019013 
L 617.64975 360.159418 
L 619.155427 342.662482 
L 619.575151 339.182977 
L 619.836979 402.808201 
L 620.098807 439.193875 
L 620.098807 432.53311 
L 620.451242 429.575531 
L 620.556506 426.767074 
L 621.418606 421.49811 
L 621.52387 452.515407 
L 621.875639 465.836938 
L 622.332005 459.176172 
L 623.350669 449.284438 
L 624.264735 441.455553 
L 624.721767 438.000902 
L 624.826365 434.74508 
L 625.231432 431.688087 
L 625.33603 428.780216 
L 625.740431 425.996612 
L 625.845029 423.337277 
L 626.250096 420.777356 
L 626.354694 418.316849 
L 626.707129 415.930903 
L 626.811727 413.619518 
L 627.163495 411.382694 
L 627.373357 407.08302 
L 627.67316 405.020171 
L 627.883022 401.043595 
L 628.182159 399.105014 
L 628.392021 395.376973 
L 628.639192 393.56266 
L 628.849054 390.033449 
L 629.096225 388.31855 
L 629.201489 386.628505 
L 629.606556 384.963314 
L 629.817084 436.509686 
L 630.063589 452.515407 
L 630.925688 444.114889 
L 631.839754 437.056466 
L 631.944352 433.875204 
L 632.348753 430.867918 
L 632.453351 428.009754 
L 632.858418 425.275858 
L 632.963016 422.641376 
L 633.314784 420.106308 
L 633.825115 417.670655 
L 633.983012 452.515407 
L 634.282148 465.836938 
L 634.739847 459.176172 
L 635.758511 449.284438 
L 636.672577 441.455553 
L 637.129609 438.000902 
L 637.234207 434.74508 
L 637.638608 431.688087 
L 637.743206 428.780216 
L 638.148273 425.996612 
L 638.252871 423.337277 
L 638.657272 420.777356 
L 638.76187 418.316849 
L 639.114305 415.930903 
L 639.218902 413.619518 
L 639.571337 411.382694 
L 639.781199 407.08302 
L 640.080336 405.020171 
L 640.290198 401.043595 
L 640.590001 399.105014 
L 640.799863 395.376973 
L 641.047034 393.56266 
L 641.25623 390.033449 
L 641.504067 388.31855 
L 641.713262 384.963314 
L 641.9611 383.322976 
L 642.574696 375.494091 
L 643.294223 366.720769 
L 643.893163 359.886028 
L 645.398839 342.438799 
L 647.180335 323.674329 
L 649.276956 303.965422 
L 651.688038 283.684882 
L 653.889257 266.759578 
L 656.719396 246.727574 
L 657.767374 239.743712 
L 657.977902 239.047811 
L 658.344328 308.190534 
L 658.920616 385.907751 
L 658.920616 379.246985 
L 659.534212 371.666636 
L 660.448944 360.457661 
L 661.744759 345.247256 
L 663.526254 326.159689 
L 664.050576 320.965286 
L 664.31307 319.946289 
L 664.522932 380.191422 
L 664.889358 425.872344 
L 665.189827 423.213009 
L 665.294425 420.653088 
L 665.64686 418.192581 
L 665.751458 415.806635 
L 666.103226 413.49525 
L 666.208491 411.258426 
L 666.560259 409.096162 
L 666.770121 404.920757 
L 667.069924 402.907615 
L 667.27912 399.005599 
L 667.578923 397.116726 
L 667.788785 393.463246 
L 668.035956 391.673787 
L 668.245818 388.219136 
L 668.492989 386.529091 
L 668.702851 383.223562 
L 668.950021 381.608077 
L 669.564284 373.903461 
L 670.178547 366.646208 
L 671.091946 355.884598 
L 672.76951 336.598203 
L 674.760868 316.441931 
L 676.857489 297.503485 
L 679.267904 277.819432 
L 681.783584 259.079815 
L 684.928183 237.581449 
L 685.191343 236.885548 
L 685.505803 300.262235 
L 686.134057 385.907751 
L 686.134057 379.246985 
L 686.748319 371.666636 
L 687.557787 361.799756 
L 688.9582 345.247256 
L 689.377258 340.525072 
L 689.640418 339.381806 
L 689.902246 402.808201 
L 690.163407 439.193875 
L 690.163407 432.53311 
L 690.516509 429.575531 
L 690.621106 426.767074 
L 691.025507 424.082885 
L 691.130771 421.49811 
L 691.48254 419.01275 
L 691.587804 416.60195 
L 691.939573 414.265712 
L 692.044171 412.004034 
L 692.396606 409.816917 
L 692.606468 405.591804 
L 692.905604 403.553809 
L 693.115466 399.62694 
L 693.415269 397.738066 
L 693.625131 394.059732 
L 693.872302 392.270273 
L 693.9769 390.505667 
L 694.381967 388.765915 
L 694.592495 439.193875 
L 694.7877 459.176172 
L 694.839 465.836938 
L 694.839 459.176172 
L 695.296699 453.857501 
L 696.72043 441.455553 
L 697.176796 438.000902 
L 697.28206 434.74508 
L 697.686461 431.688087 
L 697.791059 428.780216 
L 698.19546 425.996612 
L 698.300724 423.337277 
L 698.705125 420.777356 
L 698.809723 418.316849 
L 699.162157 415.930903 
L 699.266755 413.619518 
L 699.61919 411.382694 
L 699.828386 407.08302 
L 700.128189 405.020171 
L 700.338051 401.043595 
L 700.637854 399.105014 
L 700.84705 395.376973 
L 701.094887 393.56266 
L 701.304083 390.033449 
L 701.55192 388.31855 
L 701.761115 384.963314 
L 702.008286 383.322976 
L 702.727813 373.978021 
L 703.236812 368.137425 
L 703.537281 366.720769 
L 703.747143 422.218865 
L 703.852407 431.315283 
L 704.008971 452.515407 
L 704.008971 445.854641 
L 704.871071 438.547682 
L 704.976335 435.267006 
L 705.380736 432.185159 
L 705.485333 429.252434 
L 705.889734 426.468831 
L 705.994998 423.784642 
L 706.399399 421.22472 
L 706.503997 418.73936 
L 706.856432 416.353414 
L 706.96103 414.042029 
L 707.313465 411.780351 
L 707.522661 407.455824 
L 707.822464 405.392975 
L 708.032326 401.391545 
L 708.332128 399.452964 
L 708.541324 395.70007 
L 708.841127 393.885757 
L 709.050989 390.331692 
L 709.29816 388.616793 
L 709.508022 385.261557 
L 709.755193 383.621219 
L 710.369456 375.792334 
L 710.983718 368.435668 
L 711.897118 357.524936 
L 713.402795 340.326243 
L 715.394152 319.74746 
L 717.385509 301.405501 
L 719.691993 282.143959 
L 722.522132 260.76986 
L 725.561467 239.86798 
L 727.867951 225.10494 
L 728.077813 224.458746 
L 728.392273 286.592753 
L 729.073158 372.58622 
L 729.949249 361.302684 
L 730.548855 354.741333 
L 732.33035 334.485646 
L 734.217109 315.572054 
L 736.418329 295.838294 
L 738.724812 277.123531 
L 739.039272 274.687878 
L 739.249801 273.892562 
L 739.511628 333.342381 
L 740.034618 399.229282 
L 740.440351 393.662075 
L 744.177228 349.720905 
L 745.749527 332.273676 
L 747.740885 312.614476 
L 749.942104 293.178958 
L 752.562381 272.301932 
L 755.07806 253.959973 
L 758.432522 231.616584 
L 761.157397 214.765841 
L 761.420557 214.144501 
L 761.630419 270.835569 
L 762.154075 349.571783 
L 762.415236 372.58622 
L 763.291993 361.302684 
L 764.101461 353.473799 
L 764.363289 416.974754 
L 764.572485 439.193875 
L 764.925586 435.863493 
L 765.435251 432.731939 
L 765.488549 452.515407 
L 765.892284 465.836938 
L 766.349983 459.176172 
L 767.368646 449.284438 
L 768.282712 441.455553 
L 768.739745 438.000902 
L 768.844343 434.74508 
L 769.248743 431.688087 
L 769.354008 428.780216 
L 769.758408 425.996612 
L 769.863006 423.337277 
L 770.267407 420.777356 
L 770.372671 418.316849 
L 770.72444 415.930903 
L 770.829704 413.619518 
L 771.181473 411.382694 
L 771.391335 407.08302 
L 771.691138 405.020171 
L 771.900333 401.043595 
L 772.200136 399.105014 
L 772.409998 395.376973 
L 772.657169 393.56266 
L 772.867031 390.033449 
L 773.114202 388.31855 
L 773.324064 384.963314 
L 773.571235 383.322976 
L 774.185498 375.494091 
L 774.799094 368.137425 
L 775.71316 357.251547 
L 777.21817 340.102561 
L 779.314792 318.529633 
L 781.201551 301.206672 
L 783.298173 283.684882 
L 785.496727 266.759578 
L 788.961116 242.527316 
L 790.739947 230.920683 
L 794.30427 209.148927 
L 797.868593 189.017508 
L 800.280341 176.118489 
L 800.54017 175.571709 
L 800.753363 230.299343 
L 801.692745 359.264688 
L 801.692745 352.603923 
L 803.478238 332.621626 
L 804.837345 318.902437 
L 807.142496 297.925996 
L 810.080564 274.165952 
L 813.538291 249.163228 
L 816.996017 226.521595 
L 821.819512 197.939952 
L 825.590367 177.43573 
L 831.146713 149.475426 
L 838.588487 115.301722 
L 844.877685 89.28 
L 845.144177 143.609976 
L 846.396687 305.978564 
L 848.915031 284.654172 
L 851.433375 265.342923 
L 851.693204 264.572461 
L 852.05963 335.75318 
L 852.532652 399.229282 
L 852.532652 392.568516 
L 852.939052 387.34926 
L 854.005018 374.649069 
L 854.62461 367.366963 
L 855.224216 360.482515 
L 855.783848 353.921164 
L 855.990379 352.65363 
L 856.256871 416.974754 
L 856.463401 439.193875 
L 856.816503 435.863493 
L 856.923099 432.731939 
L 857.329499 429.77436 
L 857.429433 426.965903 
L 857.835832 424.281714 
L 857.942429 421.696939 
L 858.29553 419.211579 
L 858.395464 416.800779 
L 858.748566 414.46454 
L 858.855162 412.202863 
L 859.208263 410.015746 
L 859.414794 405.790633 
L 859.714597 403.752638 
L 859.92779 399.825768 
L 860.227593 397.912041 
L 860.434124 394.208854 
L 860.680629 392.419395 
L 860.893822 388.915037 
L 861.140326 387.224992 
L 861.346857 383.919462 
L 861.593362 382.303978 
L 862.419485 371.567222 
L 862.719288 368.65935 
L 863.945149 353.846603 
L 865.837238 332.596772 
L 867.196345 318.877584 
L 869.501496 297.901143 
L 872.439564 274.141098 
L 874.324991 260.14852 
L 874.538184 259.402912 
L 874.798013 319.648045 
L 875.37097 399.229282 
L 875.37097 392.568516 
L 875.777369 387.34926 
L 876.743401 376.165138 
L 877.462928 367.366963 
L 877.816029 363.191558 
L 879.04189 348.900736 
L 879.56821 344.079137 
L 879.987934 432.53311 
L 880.094531 439.193875 
L 880.094531 432.53311 
L 880.447632 429.575531 
L 880.547567 426.767074 
L 880.953966 424.082885 
L 881.060563 421.49811 
L 881.413664 419.01275 
L 881.513598 416.60195 
L 881.866699 414.265712 
L 881.973296 412.004034 
L 882.326397 409.816917 
L 882.532928 405.591804 
L 882.832731 403.553809 
L 883.045924 399.62694 
L 883.345727 397.738066 
L 883.552258 394.059732 
L 883.798762 392.270273 
L 884.011955 388.765915 
L 884.25846 387.07587 
L 884.464991 383.770341 
L 884.718158 382.154857 
L 885.031285 377.457526 
L 885.331088 374.400533 
L 886.050615 365.751479 
L 886.650221 358.941592 
L 887.802796 345.122988 
L 888.955372 332.522212 
L 891.260523 309.930287 
L 893.672271 289.003553 
L 896.290549 268.524184 
L 900.068065 242.030243 
L 901.533768 232.461606 
L 901.740299 231.790559 
L 901.953492 284.405636 
L 902.686344 385.907751 
L 902.686344 379.246985 
L 903.405871 370.200274 
L 904.112073 361.799756 
L 905.091429 350.118563 
L 906.976856 329.365804 
L 907.816304 321.984284 
L 908.029498 380.191422 
L 908.389261 425.872344 
L 908.695726 423.213009 
L 908.795661 420.653088 
L 909.148762 418.192581 
L 909.255358 415.806635 
L 909.608459 413.49525 
L 909.708394 411.258426 
L 910.061495 409.096162 
L 910.274688 404.920757 
L 910.574491 402.907615 
L 910.781022 399.005599 
L 911.080825 397.116726 
L 911.294018 393.463246 
L 911.540523 391.673787 
L 911.647119 389.934034 
L 912.046856 388.219136 
L 912.260049 439.193875 
L 912.453256 459.176172 
L 912.506554 465.836938 
L 912.506554 459.176172 
L 913.472586 449.284438 
L 914.845017 438.000902 
L 914.951613 434.74508 
L 915.35135 431.688087 
L 915.457947 428.780216 
L 916.37068 425.996612 
L 916.423978 452.515407 
L 916.830378 465.836938 
L 917.290076 459.176172 
L 918.309405 449.284438 
L 919.222139 441.455553 
L 919.675174 438.000902 
L 919.781771 434.74508 
L 920.18817 431.688087 
L 920.288104 428.780216 
L 920.694504 425.996612 
L 920.801101 423.337277 
L 921.2075 420.777356 
L 921.307434 418.316849 
L 921.660535 415.930903 
L 921.767132 413.619518 
L 922.22683 411.382694 
L 922.326764 439.193875 
L 922.579931 452.515407 
L 922.679865 465.836938 
L 923.139563 459.176172 
L 924.158893 449.284438 
L 925.071626 441.455553 
L 925.531324 438.000902 
L 925.631258 434.74508 
L 926.037658 431.688087 
L 926.144254 428.780216 
L 926.550654 425.996612 
L 926.650588 423.337277 
L 927.056987 420.777356 
L 927.163584 418.316849 
L 927.516685 415.930903 
L 927.616619 413.619518 
L 927.969721 411.382694 
L 928.182914 407.08302 
L 928.482717 405.020171 
L 928.689248 401.043595 
L 928.98905 399.105014 
L 929.202244 395.376973 
L 929.448748 393.56266 
L 929.655279 390.033449 
L 929.901784 388.31855 
L 930.00838 386.628505 
L 930.361481 384.963314 
L 930.568012 436.509686 
L 930.814517 452.515407 
L 931.134307 448.091465 
L 932.500075 437.056466 
L 932.606672 433.875204 
L 933.013071 430.867918 
L 933.119668 428.009754 
L 933.519405 425.275858 
L 933.626002 422.641376 
L 933.979103 420.106308 
L 934.085699 417.670655 
L 934.438801 415.309563 
L 934.538735 413.023031 
L 934.891836 410.811061 
L 935.105029 406.536241 
L 935.404832 404.473392 
L 935.611363 400.496816 
L 935.911166 398.583088 
L 936.117697 394.855048 
L 936.370864 393.040735 
L 936.577395 389.536377 
L 936.823899 387.821478 
L 937.037092 384.466242 
L 937.283597 382.825904 
L 938.103058 372.014587 
L 938.402861 369.106715 
L 939.528787 355.536648 
L 939.988485 350.466513 
L 941.240995 336.250252 
L 943.446212 314.180253 
L 945.751363 293.67603 
L 949.002559 268.027112 
L 950.781389 255.152946 
L 953.612861 236.065379 
L 954.558905 230.697001 
L 954.818735 292.333936 
L 955.498288 385.907751 
L 955.498288 379.246985 
L 956.217815 370.200274 
L 956.570916 365.925454 
L 956.677512 364.533652 
L 956.924017 363.166704 
L 957.183846 431.315283 
L 957.383715 452.515407 
L 957.383715 445.854641 
L 958.24315 438.547682 
L 958.349746 435.267006 
L 958.749483 432.185159 
L 958.85608 429.252434 
L 959.26248 426.468831 
L 959.369076 423.784642 
L 959.768813 421.22472 
L 959.87541 418.73936 
L 960.228511 416.353414 
L 960.335108 414.042029 
L 960.841441 411.780351 
L 960.89474 425.872344 
L 961.194543 439.193875 
L 961.354437 465.836938 
L 962.726868 459.176172 
L 963.179904 479.158469 
L 963.179904 465.836938 
L 964.199234 453.857501 
L 966.084661 438.000902 
L 966.184595 434.74508 
L 966.590994 431.688087 
L 966.697591 428.780216 
L 967.103991 425.996612 
L 967.203925 423.337277 
L 967.610324 420.777356 
L 967.716921 418.316849 
L 968.070022 415.930903 
L 968.169956 413.619518 
L 968.523058 411.382694 
L 968.736251 407.08302 
L 969.036054 405.020171 
L 969.242584 401.043595 
L 969.542387 399.105014 
L 969.755581 395.376973 
L 970.002085 393.56266 
L 970.208616 390.033449 
L 970.455121 388.31855 
L 970.668314 384.963314 
L 970.914818 383.322976 
L 971.73428 372.486805 
L 972.034082 369.578934 
L 973.053412 357.251547 
L 974.665686 338.959295 
L 976.86424 316.516491 
L 979.382584 293.999127 
L 982.733714 267.53004 
L 986.298037 242.527316 
L 990.282085 217.226348 
L 995.525304 187.30261 
L 996.218182 183.30118 
L 996.218182 183.30118 
" clip-path="url(#p8d842d3315)" style="fill: none; stroke: #1f77b4; stroke-width: 1.5; stroke-linecap: square"/>
   </g>
   <g id="patch_3">
    <path d="M 144 512.64 
L 144 69.12 
" style="fill: none; stroke: #000000; stroke-width: 0.8; stroke-linejoin: miter; stroke-linecap: square"/>
   </g>
   <g id="patch_4">
    <path d="M 1036.8 512.64 
L 1036.8 69.12 
" style="fill: none; stroke: #000000; stroke-width: 0.8; stroke-linejoin: miter; stroke-linecap: square"/>
   </g>
   <g id="patch_5">
    <path d="M 144 512.64 
L 1036.8 512.64 
" style="fill: none; stroke: #000000; stroke-width: 0.8; stroke-linejoin: miter; stroke-linecap: square"/>
   </g>
   <g id="patch_6">
    <path d="M 144 69.12 
L 1036.8 69.12 
" style="fill: none; stroke: #000000; stroke-width: 0.8; stroke-linejoin: miter; stroke-linecap: square"/>
   </g>
   <g id="text_18">
    <!-- Graph of congestion window vs Time result/apprate10 -->
    <g transform="translate(414.086484 63.12) scale(0.13 -0.13)">
     <defs>
      <path id="DejaVuSans-47" d="M 3809 666 
L 3809 1919 
L 2778 1919 
L 2778 2438 
L 4434 2438 
L 4434 434 
Q 4069 175 3628 42 
Q 3188 -91 2688 -91 
Q 1594 -91 976 548 
Q 359 1188 359 2328 
Q 359 3472 976 4111 
Q 1594 4750 2688 4750 
Q 3144 4750 3555 4637 
Q 3966 4525 4313 4306 
L 4313 3634 
Q 3963 3931 3569 4081 
Q 3175 4231 2741 4231 
Q 1884 4231 1454 3753 
Q 1025 3275 1025 2328 
Q 1025 1384 1454 906 
Q 1884 428 2741 428 
Q 3075 428 3337 486 
Q 3600 544 3809 666 
z
" transform="scale(0.015625)"/>
      <path id="DejaVuSans-72" d="M 2631 2963 
Q 2534 3019 2420 3045 
Q 2306 3072 2169 3072 
Q 1681 3072 1420 2755 
Q 1159 2438 1159 1844 
L 1159 0 
L 581 0 
L 581 3500 
L 1159 3500 
L 1159 2956 
Q 1341 3275 1631 3429 
Q 1922 3584 2338 3584 
Q 2397 3584 2469 3576 
Q 2541 3569 2628 3553 
L 2631 2963 
z
" transform="scale(0.015625)"/>
      <path id="DejaVuSans-61" d="M 2194 1759 
Q 1497 1759 1228 1600 
Q 959 1441 959 1056 
Q 959 750 1161 570 
Q 1363 391 1709 391 
Q 2188 391 2477 730 
Q 2766 1069 2766 1631 
L 2766 1759 
L 2194 1759 
z
M 3341 1997 
L 3341 0 
L 2766 0 
L 2766 531 
Q 2569 213 2275 61 
Q 1981 -91 1556 -91 
Q 1019 -91 701 211 
Q 384 513 384 1019 
Q 384 1609 779 1909 
Q 1175 2209 1959 2209 
L 2766 2209 
L 2766 2266 
Q 2766 2663 2505 2880 
Q 2244 3097 1772 3097 
Q 1472 3097 1187 3025 
Q 903 2953 641 2809 
L 641 3341 
Q 956 3463 1253 3523 
Q 1550 3584 1831 3584 
Q 2591 3584 2966 3190 
Q 3341 2797 3341 1997 
z
" transform="scale(0.015625)"/>
      <path id="DejaVuSans-70" d="M 1159 525 
L 1159 -1331 
L 581 -1331 
L 581 3500 
L 1159 3500 
L 1159 2969 
Q 1341 3281 1617 3432 
Q 1894 3584 2278 3584 
Q 2916 3584 3314 3078 
Q 3713 2572 3713 1747 
Q 3713 922 3314 415 
Q 2916 -91 2278 -91 
Q 1894 -91 1617 61 
Q 1341 213 1159 525 
z
M 3116 1747 
Q 3116 2381 2855 2742 
Q 2594 3103 2138 3103 
Q 1681 3103 1420 2742 
Q 1159 2381 1159 1747 
Q 1159 1113 1420 752 
Q 1681 391 2138 391 
Q 2594 391 2855 752 
Q 3116 1113 3116 1747 
z
" transform="scale(0.015625)"/>
      <path id="DejaVuSans-68" d="M 3513 2113 
L 3513 0 
L 2938 0 
L 2938 2094 
Q 2938 2591 2744 2837 
Q 2550 3084 2163 3084 
Q 1697 3084 1428 2787 
Q 1159 2491 1159 1978 
L 1159 0 
L 581 0 
L 581 4863 
L 1159 4863 
L 1159 2956 
Q 1366 3272 1645 3428 
Q 1925 3584 2291 3584 
Q 2894 3584 3203 3211 
Q 3513 2838 3513 2113 
z
" transform="scale(0.015625)"/>
      <path id="DejaVuSans-66" d="M 2375 4863 
L 2375 4384 
L 1825 4384 
Q 1516 4384 1395 4259 
Q 1275 4134 1275 3809 
L 1275 3500 
L 2222 3500 
L 2222 3053 
L 1275 3053 
L 1275 0 
L 697 0 
L 697 3053 
L 147 3053 
L 147 3500 
L 697 3500 
L 697 3744 
Q 697 4328 969 4595 
Q 1241 4863 1831 4863 
L 2375 4863 
z
" transform="scale(0.015625)"/>
      <path id="DejaVuSans-76" d="M 191 3500 
L 800 3500 
L 1894 563 
L 2988 3500 
L 3597 3500 
L 2284 0 
L 1503 0 
L 191 3500 
z
" transform="scale(0.015625)"/>
      <path id="DejaVuSans-75" d="M 544 1381 
L 544 3500 
L 1119 3500 
L 1119 1403 
Q 1119 906 1312 657 
Q 1506 409 1894 409 
Q 2359 409 2629 706 
Q 2900 1003 2900 1516 
L 2900 3500 
L 3475 3500 
L 3475 0 
L 2900 0 
L 2900 538 
Q 2691 219 2414 64 
Q 2138 -91 1772 -91 
Q 1169 -91 856 284 
Q 544 659 544 1381 
z
M 1991 3584 
L 1991 3584 
z
" transform="scale(0.015625)"/>
      <path id="DejaVuSans-6c" d="M 603 4863 
L 1178 4863 
L 1178 0 
L 603 0 
L 603 4863 
z
" transform="scale(0.015625)"/>
      <path id="DejaVuSans-2f" d="M 1625 4666 
L 2156 4666 
L 531 -594 
L 0 -594 
L 1625 4666 
z
" transform="scale(0.015625)"/>
     </defs>
     <use xlink:href="#DejaVuSans-47"/>
     <use xlink:href="#DejaVuSans-72" x="77.490234"/>
     <use xlink:href="#DejaVuSans-61" x="118.603516"/>
     <use xlink:href="#DejaVuSans-70" x="179.882812"/>
     <use xlink:href="#DejaVuSans-68" x="243.359375"/>
     <use xlink:href="#DejaVuSans-20" x="306.738281"/>
     <use xlink:href="#DejaVuSans-6f" x="338.525391"/>
     <use xlink:href="#DejaVuSans-66" x="399.707031"/>
     <use xlink:href="#DejaVuSans-20" x="434.912109"/>
     <use xlink:href="#DejaVuSans-63" x="466.699219"/>
     <use xlink:href="#DejaVuSans-6f" x="521.679688"/>
     <use xlink:href="#DejaVuSans-6e" x="582.861328"/>
     <use xlink:href="#DejaVuSans-67" x="646.240234"/>
     <use xlink:href="#DejaVuSans-65" x="709.716797"/>
     <use xlink:href="#DejaVuSans-73" x="771.240234"/>
     <use xlink:href="#DejaVuSans-74" x="823.339844"/>
     <use xlink:href="#DejaVuSans-69" x="862.548828"/>
     <use xlink:href="#DejaVuSans-6f" x="890.332031"/>
     <use xlink:href="#DejaVuSans-6e" x="951.513672"/>
     <use xlink:href="#DejaVuSans-20" x="1014.892578"/>
     <use xlink:href="#DejaVuSans-77" x="1046.679688"/>
     <use xlink:href="#DejaVuSans-69" x="1128.466797"/>
     <use xlink:href="#DejaVuSans-6e" x="1156.25"/>
     <use xlink:href="#DejaVuSans-64" x="1219.628906"/>
     <use xlink:href="#DejaVuSans-6f" x="1283.105469"/>
     <use xlink:href="#DejaVuSans-77" x="1344.287109"/>
     <use xlink:href="#DejaVuSans-20" x="1426.074219"/>
     <use xlink:href="#DejaVuSans-76" x="1457.861328"/>
     <use xlink:href="#DejaVuSans-73" x="1517.041016"/>
     <use xlink:href="#DejaVuSans-20" x="1569.140625"/>
     <use xlink:href="#DejaVuSans-54" x="1600.927734"/>
     <use xlink:href="#DejaVuSans-69" x="1658.886719"/>
     <use xlink:href="#DejaVuSans-6d" x="1686.669922"/>
     <use xlink:href="#DejaVuSans-65" x="1784.082031"/>
     <use xlink:href="#DejaVuSans-20" x="1845.605469"/>
     <use xlink:href="#DejaVuSans-72" x="1877.392578"/>
     <use xlink:href="#DejaVuSans-65" x="1916.255859"/>
     <use xlink:href="#DejaVuSans-73" x="1977.779297"/>
     <use xlink:href="#DejaVuSans-75" x="2029.878906"/>
     <use xlink:href="#DejaVuSans-6c" x="2093.257812"/>
     <use xlink:href="#DejaVuSans-74" x="2121.041016"/>
     <use xlink:href="#DejaVuSans-2f" x="2160.25"/>
     <use xlink:href="#DejaVuSans-61" x="2193.941406"/>
     <use xlink:href="#DejaVuSans-70" x="2255.220703"/>
     <use xlink:href="#DejaVuSans-70" x="2318.697266"/>
     <use xlink:href="#DejaVuSans-72" x="2382.173828"/>
     <use xlink:href="#DejaVuSans-61" x="2423.287109"/>
     <use xlink:href="#DejaVuSans-74" x="2484.566406"/>
     <use xlink:href="#DejaVuSans-65" x="2523.775391"/>
     <use xlink:href="#DejaVuSans-31" x="2585.298828"/>
     <use xlink:href="#DejaVuSans-30" x="2648.921875"/>
    </g>
   </g>
  </g>
 </g>
 <defs>
  <clipPath id="p8d842d3315">
   <rect x="144" y="69.12" width="892.8" height="443.52"/>
  </clipPath>
 </defs>
</svg>
