<?xml version="1.0" encoding="utf-8" standalone="no"?>
<!DOCTYPE svg PUBLIC "-//W3C//DTD SVG 1.1//EN"
  "http://www.w3.org/Graphics/SVG/1.1/DTD/svg11.dtd">
<svg xmlns:xlink="http://www.w3.org/1999/xlink" width="1152pt" height="576pt" viewBox="0 0 1152 576" xmlns="http://www.w3.org/2000/svg" version="1.1">
 <metadata>
  <rdf:RDF xmlns:dc="http://purl.org/dc/elements/1.1/" xmlns:cc="http://creativecommons.org/ns#" xmlns:rdf="http://www.w3.org/1999/02/22-rdf-syntax-ns#">
   <cc:Work>
    <dc:type rdf:resource="http://purl.org/dc/dcmitype/StillImage"/>
    <dc:date>2023-01-05T15:16:20.528626</dc:date>
    <dc:format>image/svg+xml</dc:format>
    <dc:creator>
     <cc:Agent>
      <dc:title>Matplotlib v3.6.2, https://matplotlib.org/</dc:title>
     </cc:Agent>
    </dc:creator>
   </cc:Work>
  </rdf:RDF>
 </metadata>
 <defs>
  <style type="text/css">*{stroke-linejoin: round; stroke-linecap: butt}</style>
 </defs>
 <g id="figure_1">
  <g id="patch_1">
   <path d="M 0 576 
L 1152 576 
L 1152 0 
L 0 0 
z
" style="fill: #ffffff"/>
  </g>
  <g id="axes_1">
   <g id="patch_2">
    <path d="M 144 512.64 
L 1036.8 512.64 
L 1036.8 69.12 
L 144 69.12 
z
" style="fill: #ffffff"/>
   </g>
   <g id="matplotlib.axis_1">
    <g id="xtick_1">
     <g id="line2d_1">
      <defs>
       <path id="m9c894d811a" d="M 0 0 
L 0 3.5 
" style="stroke: #000000; stroke-width: 0.8"/>
      </defs>
      <g>
       <use xlink:href="#m9c894d811a" x="156.395279" y="512.64" style="stroke: #000000; stroke-width: 0.8"/>
      </g>
     </g>
     <g id="text_1">
      <!-- 0 -->
      <g transform="translate(153.214029 527.238438) scale(0.1 -0.1)">
       <defs>
        <path id="DejaVuSans-30" d="M 2034 4250 
Q 1547 4250 1301 3770 
Q 1056 3291 1056 2328 
Q 1056 1369 1301 889 
Q 1547 409 2034 409 
Q 2525 409 2770 889 
Q 3016 1369 3016 2328 
Q 3016 3291 2770 3770 
Q 2525 4250 2034 4250 
z
M 2034 4750 
Q 2819 4750 3233 4129 
Q 3647 3509 3647 2328 
Q 3647 1150 3233 529 
Q 2819 -91 2034 -91 
Q 1250 -91 836 529 
Q 422 1150 422 2328 
Q 422 3509 836 4129 
Q 1250 4750 2034 4750 
z
" transform="scale(0.015625)"/>
       </defs>
       <use xlink:href="#DejaVuSans-30"/>
      </g>
     </g>
    </g>
    <g id="xtick_2">
     <g id="line2d_2">
      <g>
       <use xlink:href="#m9c894d811a" x="296.455401" y="512.64" style="stroke: #000000; stroke-width: 0.8"/>
      </g>
     </g>
     <g id="text_2">
      <!-- 5 -->
      <g transform="translate(293.274151 527.238438) scale(0.1 -0.1)">
       <defs>
        <path id="DejaVuSans-35" d="M 691 4666 
L 3169 4666 
L 3169 4134 
L 1269 4134 
L 1269 2991 
Q 1406 3038 1543 3061 
Q 1681 3084 1819 3084 
Q 2600 3084 3056 2656 
Q 3513 2228 3513 1497 
Q 3513 744 3044 326 
Q 2575 -91 1722 -91 
Q 1428 -91 1123 -41 
Q 819 9 494 109 
L 494 744 
Q 775 591 1075 516 
Q 1375 441 1709 441 
Q 2250 441 2565 725 
Q 2881 1009 2881 1497 
Q 2881 1984 2565 2268 
Q 2250 2553 1709 2553 
Q 1456 2553 1204 2497 
Q 953 2441 691 2322 
L 691 4666 
z
" transform="scale(0.015625)"/>
       </defs>
       <use xlink:href="#DejaVuSans-35"/>
      </g>
     </g>
    </g>
    <g id="xtick_3">
     <g id="line2d_3">
      <g>
       <use xlink:href="#m9c894d811a" x="436.515523" y="512.64" style="stroke: #000000; stroke-width: 0.8"/>
      </g>
     </g>
     <g id="text_3">
      <!-- 10 -->
      <g transform="translate(430.153023 527.238438) scale(0.1 -0.1)">
       <defs>
        <path id="DejaVuSans-31" d="M 794 531 
L 1825 531 
L 1825 4091 
L 703 3866 
L 703 4441 
L 1819 4666 
L 2450 4666 
L 2450 531 
L 3481 531 
L 3481 0 
L 794 0 
L 794 531 
z
" transform="scale(0.015625)"/>
       </defs>
       <use xlink:href="#DejaVuSans-31"/>
       <use xlink:href="#DejaVuSans-30" x="63.623047"/>
      </g>
     </g>
    </g>
    <g id="xtick_4">
     <g id="line2d_4">
      <g>
       <use xlink:href="#m9c894d811a" x="576.575646" y="512.64" style="stroke: #000000; stroke-width: 0.8"/>
      </g>
     </g>
     <g id="text_4">
      <!-- 15 -->
      <g transform="translate(570.213146 527.238438) scale(0.1 -0.1)">
       <use xlink:href="#DejaVuSans-31"/>
       <use xlink:href="#DejaVuSans-35" x="63.623047"/>
      </g>
     </g>
    </g>
    <g id="xtick_5">
     <g id="line2d_5">
      <g>
       <use xlink:href="#m9c894d811a" x="716.635768" y="512.64" style="stroke: #000000; stroke-width: 0.8"/>
      </g>
     </g>
     <g id="text_5">
      <!-- 20 -->
      <g transform="translate(710.273268 527.238438) scale(0.1 -0.1)">
       <defs>
        <path id="DejaVuSans-32" d="M 1228 531 
L 3431 531 
L 3431 0 
L 469 0 
L 469 531 
Q 828 903 1448 1529 
Q 2069 2156 2228 2338 
Q 2531 2678 2651 2914 
Q 2772 3150 2772 3378 
Q 2772 3750 2511 3984 
Q 2250 4219 1831 4219 
Q 1534 4219 1204 4116 
Q 875 4013 500 3803 
L 500 4441 
Q 881 4594 1212 4672 
Q 1544 4750 1819 4750 
Q 2544 4750 2975 4387 
Q 3406 4025 3406 3419 
Q 3406 3131 3298 2873 
Q 3191 2616 2906 2266 
Q 2828 2175 2409 1742 
Q 1991 1309 1228 531 
z
" transform="scale(0.015625)"/>
       </defs>
       <use xlink:href="#DejaVuSans-32"/>
       <use xlink:href="#DejaVuSans-30" x="63.623047"/>
      </g>
     </g>
    </g>
    <g id="xtick_6">
     <g id="line2d_6">
      <g>
       <use xlink:href="#m9c894d811a" x="856.69589" y="512.64" style="stroke: #000000; stroke-width: 0.8"/>
      </g>
     </g>
     <g id="text_6">
      <!-- 25 -->
      <g transform="translate(850.33339 527.238438) scale(0.1 -0.1)">
       <use xlink:href="#DejaVuSans-32"/>
       <use xlink:href="#DejaVuSans-35" x="63.623047"/>
      </g>
     </g>
    </g>
    <g id="xtick_7">
     <g id="line2d_7">
      <g>
       <use xlink:href="#m9c894d811a" x="996.756013" y="512.64" style="stroke: #000000; stroke-width: 0.8"/>
      </g>
     </g>
     <g id="text_7">
      <!-- 30 -->
      <g transform="translate(990.393513 527.238438) scale(0.1 -0.1)">
       <defs>
        <path id="DejaVuSans-33" d="M 2597 2516 
Q 3050 2419 3304 2112 
Q 3559 1806 3559 1356 
Q 3559 666 3084 287 
Q 2609 -91 1734 -91 
Q 1441 -91 1130 -33 
Q 819 25 488 141 
L 488 750 
Q 750 597 1062 519 
Q 1375 441 1716 441 
Q 2309 441 2620 675 
Q 2931 909 2931 1356 
Q 2931 1769 2642 2001 
Q 2353 2234 1838 2234 
L 1294 2234 
L 1294 2753 
L 1863 2753 
Q 2328 2753 2575 2939 
Q 2822 3125 2822 3475 
Q 2822 3834 2567 4026 
Q 2313 4219 1838 4219 
Q 1578 4219 1281 4162 
Q 984 4106 628 3988 
L 628 4550 
Q 988 4650 1302 4700 
Q 1616 4750 1894 4750 
Q 2613 4750 3031 4423 
Q 3450 4097 3450 3541 
Q 3450 3153 3228 2886 
Q 3006 2619 2597 2516 
z
" transform="scale(0.015625)"/>
       </defs>
       <use xlink:href="#DejaVuSans-33"/>
       <use xlink:href="#DejaVuSans-30" x="63.623047"/>
      </g>
     </g>
    </g>
    <g id="text_8">
     <!-- Time in seconds -->
     <g transform="translate(537.870859 543.196094) scale(0.13 -0.13)">
      <defs>
       <path id="DejaVuSans-54" d="M -19 4666 
L 3928 4666 
L 3928 4134 
L 2272 4134 
L 2272 0 
L 1638 0 
L 1638 4134 
L -19 4134 
L -19 4666 
z
" transform="scale(0.015625)"/>
       <path id="DejaVuSans-69" d="M 603 3500 
L 1178 3500 
L 1178 0 
L 603 0 
L 603 3500 
z
M 603 4863 
L 1178 4863 
L 1178 4134 
L 603 4134 
L 603 4863 
z
" transform="scale(0.015625)"/>
       <path id="DejaVuSans-6d" d="M 3328 2828 
Q 3544 3216 3844 3400 
Q 4144 3584 4550 3584 
Q 5097 3584 5394 3201 
Q 5691 2819 5691 2113 
L 5691 0 
L 5113 0 
L 5113 2094 
Q 5113 2597 4934 2840 
Q 4756 3084 4391 3084 
Q 3944 3084 3684 2787 
Q 3425 2491 3425 1978 
L 3425 0 
L 2847 0 
L 2847 2094 
Q 2847 2600 2669 2842 
Q 2491 3084 2119 3084 
Q 1678 3084 1418 2786 
Q 1159 2488 1159 1978 
L 1159 0 
L 581 0 
L 581 3500 
L 1159 3500 
L 1159 2956 
Q 1356 3278 1631 3431 
Q 1906 3584 2284 3584 
Q 2666 3584 2933 3390 
Q 3200 3197 3328 2828 
z
" transform="scale(0.015625)"/>
       <path id="DejaVuSans-65" d="M 3597 1894 
L 3597 1613 
L 953 1613 
Q 991 1019 1311 708 
Q 1631 397 2203 397 
Q 2534 397 2845 478 
Q 3156 559 3463 722 
L 3463 178 
Q 3153 47 2828 -22 
Q 2503 -91 2169 -91 
Q 1331 -91 842 396 
Q 353 884 353 1716 
Q 353 2575 817 3079 
Q 1281 3584 2069 3584 
Q 2775 3584 3186 3129 
Q 3597 2675 3597 1894 
z
M 3022 2063 
Q 3016 2534 2758 2815 
Q 2500 3097 2075 3097 
Q 1594 3097 1305 2825 
Q 1016 2553 972 2059 
L 3022 2063 
z
" transform="scale(0.015625)"/>
       <path id="DejaVuSans-20" transform="scale(0.015625)"/>
       <path id="DejaVuSans-6e" d="M 3513 2113 
L 3513 0 
L 2938 0 
L 2938 2094 
Q 2938 2591 2744 2837 
Q 2550 3084 2163 3084 
Q 1697 3084 1428 2787 
Q 1159 2491 1159 1978 
L 1159 0 
L 581 0 
L 581 3500 
L 1159 3500 
L 1159 2956 
Q 1366 3272 1645 3428 
Q 1925 3584 2291 3584 
Q 2894 3584 3203 3211 
Q 3513 2838 3513 2113 
z
" transform="scale(0.015625)"/>
       <path id="DejaVuSans-73" d="M 2834 3397 
L 2834 2853 
Q 2591 2978 2328 3040 
Q 2066 3103 1784 3103 
Q 1356 3103 1142 2972 
Q 928 2841 928 2578 
Q 928 2378 1081 2264 
Q 1234 2150 1697 2047 
L 1894 2003 
Q 2506 1872 2764 1633 
Q 3022 1394 3022 966 
Q 3022 478 2636 193 
Q 2250 -91 1575 -91 
Q 1294 -91 989 -36 
Q 684 19 347 128 
L 347 722 
Q 666 556 975 473 
Q 1284 391 1588 391 
Q 1994 391 2212 530 
Q 2431 669 2431 922 
Q 2431 1156 2273 1281 
Q 2116 1406 1581 1522 
L 1381 1569 
Q 847 1681 609 1914 
Q 372 2147 372 2553 
Q 372 3047 722 3315 
Q 1072 3584 1716 3584 
Q 2034 3584 2315 3537 
Q 2597 3491 2834 3397 
z
" transform="scale(0.015625)"/>
       <path id="DejaVuSans-63" d="M 3122 3366 
L 3122 2828 
Q 2878 2963 2633 3030 
Q 2388 3097 2138 3097 
Q 1578 3097 1268 2742 
Q 959 2388 959 1747 
Q 959 1106 1268 751 
Q 1578 397 2138 397 
Q 2388 397 2633 464 
Q 2878 531 3122 666 
L 3122 134 
Q 2881 22 2623 -34 
Q 2366 -91 2075 -91 
Q 1284 -91 818 406 
Q 353 903 353 1747 
Q 353 2603 823 3093 
Q 1294 3584 2113 3584 
Q 2378 3584 2631 3529 
Q 2884 3475 3122 3366 
z
" transform="scale(0.015625)"/>
       <path id="DejaVuSans-6f" d="M 1959 3097 
Q 1497 3097 1228 2736 
Q 959 2375 959 1747 
Q 959 1119 1226 758 
Q 1494 397 1959 397 
Q 2419 397 2687 759 
Q 2956 1122 2956 1747 
Q 2956 2369 2687 2733 
Q 2419 3097 1959 3097 
z
M 1959 3584 
Q 2709 3584 3137 3096 
Q 3566 2609 3566 1747 
Q 3566 888 3137 398 
Q 2709 -91 1959 -91 
Q 1206 -91 779 398 
Q 353 888 353 1747 
Q 353 2609 779 3096 
Q 1206 3584 1959 3584 
z
" transform="scale(0.015625)"/>
       <path id="DejaVuSans-64" d="M 2906 2969 
L 2906 4863 
L 3481 4863 
L 3481 0 
L 2906 0 
L 2906 525 
Q 2725 213 2448 61 
Q 2172 -91 1784 -91 
Q 1150 -91 751 415 
Q 353 922 353 1747 
Q 353 2572 751 3078 
Q 1150 3584 1784 3584 
Q 2172 3584 2448 3432 
Q 2725 3281 2906 2969 
z
M 947 1747 
Q 947 1113 1208 752 
Q 1469 391 1925 391 
Q 2381 391 2643 752 
Q 2906 1113 2906 1747 
Q 2906 2381 2643 2742 
Q 2381 3103 1925 3103 
Q 1469 3103 1208 2742 
Q 947 2381 947 1747 
z
" transform="scale(0.015625)"/>
      </defs>
      <use xlink:href="#DejaVuSans-54"/>
      <use xlink:href="#DejaVuSans-69" x="57.958984"/>
      <use xlink:href="#DejaVuSans-6d" x="85.742188"/>
      <use xlink:href="#DejaVuSans-65" x="183.154297"/>
      <use xlink:href="#DejaVuSans-20" x="244.677734"/>
      <use xlink:href="#DejaVuSans-69" x="276.464844"/>
      <use xlink:href="#DejaVuSans-6e" x="304.248047"/>
      <use xlink:href="#DejaVuSans-20" x="367.626953"/>
      <use xlink:href="#DejaVuSans-73" x="399.414062"/>
      <use xlink:href="#DejaVuSans-65" x="451.513672"/>
      <use xlink:href="#DejaVuSans-63" x="513.037109"/>
      <use xlink:href="#DejaVuSans-6f" x="568.017578"/>
      <use xlink:href="#DejaVuSans-6e" x="629.199219"/>
      <use xlink:href="#DejaVuSans-64" x="692.578125"/>
      <use xlink:href="#DejaVuSans-73" x="756.054688"/>
     </g>
    </g>
   </g>
   <g id="matplotlib.axis_2">
    <g id="ytick_1">
     <g id="line2d_8">
      <defs>
       <path id="m2c92c215f9" d="M 0 0 
L -3.5 0 
" style="stroke: #000000; stroke-width: 0.8"/>
      </defs>
      <g>
       <use xlink:href="#m2c92c215f9" x="144" y="492.48" style="stroke: #000000; stroke-width: 0.8"/>
      </g>
     </g>
     <g id="text_9">
      <!-- 0 -->
      <g transform="translate(130.6375 496.279219) scale(0.1 -0.1)">
       <use xlink:href="#DejaVuSans-30"/>
      </g>
     </g>
    </g>
    <g id="ytick_2">
     <g id="line2d_9">
      <g>
       <use xlink:href="#m2c92c215f9" x="144" y="434.30154" style="stroke: #000000; stroke-width: 0.8"/>
      </g>
     </g>
     <g id="text_10">
      <!-- 2500 -->
      <g transform="translate(111.55 438.100759) scale(0.1 -0.1)">
       <use xlink:href="#DejaVuSans-32"/>
       <use xlink:href="#DejaVuSans-35" x="63.623047"/>
       <use xlink:href="#DejaVuSans-30" x="127.246094"/>
       <use xlink:href="#DejaVuSans-30" x="190.869141"/>
      </g>
     </g>
    </g>
    <g id="ytick_3">
     <g id="line2d_10">
      <g>
       <use xlink:href="#m2c92c215f9" x="144" y="376.12308" style="stroke: #000000; stroke-width: 0.8"/>
      </g>
     </g>
     <g id="text_11">
      <!-- 5000 -->
      <g transform="translate(111.55 379.922299) scale(0.1 -0.1)">
       <use xlink:href="#DejaVuSans-35"/>
       <use xlink:href="#DejaVuSans-30" x="63.623047"/>
       <use xlink:href="#DejaVuSans-30" x="127.246094"/>
       <use xlink:href="#DejaVuSans-30" x="190.869141"/>
      </g>
     </g>
    </g>
    <g id="ytick_4">
     <g id="line2d_11">
      <g>
       <use xlink:href="#m2c92c215f9" x="144" y="317.94462" style="stroke: #000000; stroke-width: 0.8"/>
      </g>
     </g>
     <g id="text_12">
      <!-- 7500 -->
      <g transform="translate(111.55 321.743838) scale(0.1 -0.1)">
       <defs>
        <path id="DejaVuSans-37" d="M 525 4666 
L 3525 4666 
L 3525 4397 
L 1831 0 
L 1172 0 
L 2766 4134 
L 525 4134 
L 525 4666 
z
" transform="scale(0.015625)"/>
       </defs>
       <use xlink:href="#DejaVuSans-37"/>
       <use xlink:href="#DejaVuSans-35" x="63.623047"/>
       <use xlink:href="#DejaVuSans-30" x="127.246094"/>
       <use xlink:href="#DejaVuSans-30" x="190.869141"/>
      </g>
     </g>
    </g>
    <g id="ytick_5">
     <g id="line2d_12">
      <g>
       <use xlink:href="#m2c92c215f9" x="144" y="259.76616" style="stroke: #000000; stroke-width: 0.8"/>
      </g>
     </g>
     <g id="text_13">
      <!-- 10000 -->
      <g transform="translate(105.1875 263.565378) scale(0.1 -0.1)">
       <use xlink:href="#DejaVuSans-31"/>
       <use xlink:href="#DejaVuSans-30" x="63.623047"/>
       <use xlink:href="#DejaVuSans-30" x="127.246094"/>
       <use xlink:href="#DejaVuSans-30" x="190.869141"/>
       <use xlink:href="#DejaVuSans-30" x="254.492188"/>
      </g>
     </g>
    </g>
    <g id="ytick_6">
     <g id="line2d_13">
      <g>
       <use xlink:href="#m2c92c215f9" x="144" y="201.587699" style="stroke: #000000; stroke-width: 0.8"/>
      </g>
     </g>
     <g id="text_14">
      <!-- 12500 -->
      <g transform="translate(105.1875 205.386918) scale(0.1 -0.1)">
       <use xlink:href="#DejaVuSans-31"/>
       <use xlink:href="#DejaVuSans-32" x="63.623047"/>
       <use xlink:href="#DejaVuSans-35" x="127.246094"/>
       <use xlink:href="#DejaVuSans-30" x="190.869141"/>
       <use xlink:href="#DejaVuSans-30" x="254.492188"/>
      </g>
     </g>
    </g>
    <g id="ytick_7">
     <g id="line2d_14">
      <g>
       <use xlink:href="#m2c92c215f9" x="144" y="143.409239" style="stroke: #000000; stroke-width: 0.8"/>
      </g>
     </g>
     <g id="text_15">
      <!-- 15000 -->
      <g transform="translate(105.1875 147.208458) scale(0.1 -0.1)">
       <use xlink:href="#DejaVuSans-31"/>
       <use xlink:href="#DejaVuSans-35" x="63.623047"/>
       <use xlink:href="#DejaVuSans-30" x="127.246094"/>
       <use xlink:href="#DejaVuSans-30" x="190.869141"/>
       <use xlink:href="#DejaVuSans-30" x="254.492188"/>
      </g>
     </g>
    </g>
    <g id="ytick_8">
     <g id="line2d_15">
      <g>
       <use xlink:href="#m2c92c215f9" x="144" y="85.230779" style="stroke: #000000; stroke-width: 0.8"/>
      </g>
     </g>
     <g id="text_16">
      <!-- 17500 -->
      <g transform="translate(105.1875 89.029998) scale(0.1 -0.1)">
       <use xlink:href="#DejaVuSans-31"/>
       <use xlink:href="#DejaVuSans-37" x="63.623047"/>
       <use xlink:href="#DejaVuSans-35" x="127.246094"/>
       <use xlink:href="#DejaVuSans-30" x="190.869141"/>
       <use xlink:href="#DejaVuSans-30" x="254.492188"/>
      </g>
     </g>
    </g>
    <g id="text_17">
     <!-- Congestion Window Sizes -->
     <g transform="translate(98.483906 373.964219) rotate(-90) scale(0.13 -0.13)">
      <defs>
       <path id="DejaVuSans-43" d="M 4122 4306 
L 4122 3641 
Q 3803 3938 3442 4084 
Q 3081 4231 2675 4231 
Q 1875 4231 1450 3742 
Q 1025 3253 1025 2328 
Q 1025 1406 1450 917 
Q 1875 428 2675 428 
Q 3081 428 3442 575 
Q 3803 722 4122 1019 
L 4122 359 
Q 3791 134 3420 21 
Q 3050 -91 2638 -91 
Q 1578 -91 968 557 
Q 359 1206 359 2328 
Q 359 3453 968 4101 
Q 1578 4750 2638 4750 
Q 3056 4750 3426 4639 
Q 3797 4528 4122 4306 
z
" transform="scale(0.015625)"/>
       <path id="DejaVuSans-67" d="M 2906 1791 
Q 2906 2416 2648 2759 
Q 2391 3103 1925 3103 
Q 1463 3103 1205 2759 
Q 947 2416 947 1791 
Q 947 1169 1205 825 
Q 1463 481 1925 481 
Q 2391 481 2648 825 
Q 2906 1169 2906 1791 
z
M 3481 434 
Q 3481 -459 3084 -895 
Q 2688 -1331 1869 -1331 
Q 1566 -1331 1297 -1286 
Q 1028 -1241 775 -1147 
L 775 -588 
Q 1028 -725 1275 -790 
Q 1522 -856 1778 -856 
Q 2344 -856 2625 -561 
Q 2906 -266 2906 331 
L 2906 616 
Q 2728 306 2450 153 
Q 2172 0 1784 0 
Q 1141 0 747 490 
Q 353 981 353 1791 
Q 353 2603 747 3093 
Q 1141 3584 1784 3584 
Q 2172 3584 2450 3431 
Q 2728 3278 2906 2969 
L 2906 3500 
L 3481 3500 
L 3481 434 
z
" transform="scale(0.015625)"/>
       <path id="DejaVuSans-74" d="M 1172 4494 
L 1172 3500 
L 2356 3500 
L 2356 3053 
L 1172 3053 
L 1172 1153 
Q 1172 725 1289 603 
Q 1406 481 1766 481 
L 2356 481 
L 2356 0 
L 1766 0 
Q 1100 0 847 248 
Q 594 497 594 1153 
L 594 3053 
L 172 3053 
L 172 3500 
L 594 3500 
L 594 4494 
L 1172 4494 
z
" transform="scale(0.015625)"/>
       <path id="DejaVuSans-57" d="M 213 4666 
L 850 4666 
L 1831 722 
L 2809 4666 
L 3519 4666 
L 4500 722 
L 5478 4666 
L 6119 4666 
L 4947 0 
L 4153 0 
L 3169 4050 
L 2175 0 
L 1381 0 
L 213 4666 
z
" transform="scale(0.015625)"/>
       <path id="DejaVuSans-77" d="M 269 3500 
L 844 3500 
L 1563 769 
L 2278 3500 
L 2956 3500 
L 3675 769 
L 4391 3500 
L 4966 3500 
L 4050 0 
L 3372 0 
L 2619 2869 
L 1863 0 
L 1184 0 
L 269 3500 
z
" transform="scale(0.015625)"/>
       <path id="DejaVuSans-53" d="M 3425 4513 
L 3425 3897 
Q 3066 4069 2747 4153 
Q 2428 4238 2131 4238 
Q 1616 4238 1336 4038 
Q 1056 3838 1056 3469 
Q 1056 3159 1242 3001 
Q 1428 2844 1947 2747 
L 2328 2669 
Q 3034 2534 3370 2195 
Q 3706 1856 3706 1288 
Q 3706 609 3251 259 
Q 2797 -91 1919 -91 
Q 1588 -91 1214 -16 
Q 841 59 441 206 
L 441 856 
Q 825 641 1194 531 
Q 1563 422 1919 422 
Q 2459 422 2753 634 
Q 3047 847 3047 1241 
Q 3047 1584 2836 1778 
Q 2625 1972 2144 2069 
L 1759 2144 
Q 1053 2284 737 2584 
Q 422 2884 422 3419 
Q 422 4038 858 4394 
Q 1294 4750 2059 4750 
Q 2388 4750 2728 4690 
Q 3069 4631 3425 4513 
z
" transform="scale(0.015625)"/>
       <path id="DejaVuSans-7a" d="M 353 3500 
L 3084 3500 
L 3084 2975 
L 922 459 
L 3084 459 
L 3084 0 
L 275 0 
L 275 525 
L 2438 3041 
L 353 3041 
L 353 3500 
z
" transform="scale(0.015625)"/>
      </defs>
      <use xlink:href="#DejaVuSans-43"/>
      <use xlink:href="#DejaVuSans-6f" x="69.824219"/>
      <use xlink:href="#DejaVuSans-6e" x="131.005859"/>
      <use xlink:href="#DejaVuSans-67" x="194.384766"/>
      <use xlink:href="#DejaVuSans-65" x="257.861328"/>
      <use xlink:href="#DejaVuSans-73" x="319.384766"/>
      <use xlink:href="#DejaVuSans-74" x="371.484375"/>
      <use xlink:href="#DejaVuSans-69" x="410.693359"/>
      <use xlink:href="#DejaVuSans-6f" x="438.476562"/>
      <use xlink:href="#DejaVuSans-6e" x="499.658203"/>
      <use xlink:href="#DejaVuSans-20" x="563.037109"/>
      <use xlink:href="#DejaVuSans-57" x="594.824219"/>
      <use xlink:href="#DejaVuSans-69" x="691.451172"/>
      <use xlink:href="#DejaVuSans-6e" x="719.234375"/>
      <use xlink:href="#DejaVuSans-64" x="782.613281"/>
      <use xlink:href="#DejaVuSans-6f" x="846.089844"/>
      <use xlink:href="#DejaVuSans-77" x="907.271484"/>
      <use xlink:href="#DejaVuSans-20" x="989.058594"/>
      <use xlink:href="#DejaVuSans-53" x="1020.845703"/>
      <use xlink:href="#DejaVuSans-69" x="1084.322266"/>
      <use xlink:href="#DejaVuSans-7a" x="1112.105469"/>
      <use xlink:href="#DejaVuSans-65" x="1164.595703"/>
      <use xlink:href="#DejaVuSans-73" x="1226.119141"/>
     </g>
    </g>
   </g>
   <g id="line2d_16">
    <path d="M 184.581818 492.48 
L 184.921324 342.798458 
L 185.2838 330.324996 
L 185.416016 305.378072 
L 185.956088 292.90461 
L 186.088305 267.957687 
L 186.628377 255.484225 
L 186.760593 230.537301 
L 187.300665 218.063839 
L 187.432882 193.116916 
L 187.972954 180.643454 
L 188.039062 168.169992 
L 188.645523 155.69653 
L 188.777739 458.550322 
L 188.84973 465.112852 
L 188.84973 463.809655 
L 189.350585 458.387422 
L 190.280865 439.723772 
L 190.695162 436.791578 
L 190.920099 431.346074 
L 191.367451 428.809493 
L 191.559333 424.015588 
L 192.03974 421.758264 
L 192.159911 417.453058 
L 192.712028 415.381905 
L 192.8322 411.425769 
L 193.384317 409.517516 
L 193.504488 405.840637 
L 194.056605 404.048741 
L 194.176777 400.581304 
L 194.728894 398.905765 
L 194.849066 395.6245 
L 195.467571 394.018774 
L 195.521634 467.533076 
L 195.671779 472.559695 
L 195.671779 467.533076 
L 196.073471 461.296345 
L 196.53651 456.316269 
L 196.752763 467.533076 
L 197.194792 456.316269 
L 197.807135 444.703849 
L 198.057283 441.469126 
L 198.294545 435.558195 
L 198.729571 432.835443 
L 198.933779 427.73901 
L 199.40186 425.342057 
L 199.606068 420.804137 
L 200.074148 418.639898 
L 200.206365 414.497592 
L 200.746437 412.519524 
L 200.878654 408.703017 
L 201.418726 406.864578 
L 201.550942 403.280785 
L 202.091014 401.558703 
L 202.223231 398.184352 
L 202.763303 396.555355 
L 202.89552 393.367175 
L 203.435591 391.807993 
L 203.567808 388.759441 
L 204.10788 387.270073 
L 204.240097 384.36115 
L 204.780169 382.941595 
L 204.912385 380.125758 
L 205.452457 378.752746 
L 205.584674 376.053266 
L 206.124746 374.726797 
L 206.256962 372.120402 
L 206.797034 370.840476 
L 206.929251 368.327166 
L 207.469323 367.093783 
L 207.60154 364.650287 
L 208.141611 363.440175 
L 208.273828 361.066494 
L 208.8139 359.902925 
L 208.946117 357.599058 
L 209.486189 356.45876 
L 209.618405 354.201436 
L 210.158477 353.08441 
L 210.290694 350.896899 
L 210.830766 349.803144 
L 210.962983 347.662177 
L 211.503054 346.591693 
L 211.635271 344.497269 
L 212.175343 343.450057 
L 212.30756 341.402175 
L 212.847632 340.378234 
L 212.979848 338.376895 
L 213.51992 337.376225 
L 213.652137 335.398158 
L 214.192209 334.42076 
L 214.324426 332.465963 
L 214.864497 331.511837 
L 214.996714 329.603583 
L 215.536786 328.649456 
L 215.669003 326.787746 
L 216.209075 325.85689 
L 216.341291 324.018451 
L 216.881363 323.110867 
L 217.01358 321.295699 
L 217.553652 320.388115 
L 217.685868 318.61949 
L 218.22594 317.735177 
L 218.358157 315.966552 
L 218.898229 315.105511 
L 219.030446 313.383428 
L 219.570517 312.522387 
L 219.702734 310.823576 
L 220.242806 309.985806 
L 220.375023 308.310267 
L 220.915095 307.472497 
L 221.047311 305.820229 
L 221.587383 305.00573 
L 221.7196 303.376733 
L 222.259672 302.562235 
L 222.391889 300.933238 
L 222.93196 300.142011 
L 223.064177 298.559557 
L 223.604249 297.76833 
L 223.736466 296.185876 
L 224.276538 295.394649 
L 224.408754 293.858737 
L 224.948826 293.090781 
L 225.081043 291.55487 
L 225.721118 290.786914 
L 225.775181 464.484525 
L 225.91356 477.586314 
L 226.117768 485.033157 
L 226.117768 467.533076 
L 226.817228 452.034335 
L 227.279707 441.469126 
L 227.671035 438.420575 
L 227.895971 432.835443 
L 228.343323 430.229048 
L 228.56826 425.342057 
L 229.015612 423.03819 
L 229.207494 418.639898 
L 229.6879 416.545474 
L 229.808072 412.519524 
L 230.360189 410.588 
L 230.480361 406.864578 
L 231.032478 405.04941 
L 231.152649 401.558703 
L 231.704766 399.859891 
L 231.824938 396.555355 
L 232.377055 394.949629 
L 232.497226 391.807993 
L 233.049343 390.272081 
L 233.169515 387.270073 
L 233.721632 385.803976 
L 233.841804 382.941595 
L 234.393921 381.522041 
L 234.514092 378.752746 
L 235.066209 377.403006 
L 235.186381 374.726797 
L 235.738498 373.423599 
L 235.858669 370.840476 
L 236.410786 369.583821 
L 236.530958 367.093783 
L 237.083075 365.860399 
L 237.203246 363.440175 
L 237.755363 362.253335 
L 237.875535 359.902925 
L 238.427652 358.739356 
L 238.547824 356.45876 
L 239.099941 355.318462 
L 239.220112 353.08441 
L 239.772229 351.990655 
L 239.892401 349.803144 
L 240.444518 348.732661 
L 240.564689 346.591693 
L 241.116806 345.544481 
L 241.236978 343.450057 
L 241.789095 342.426116 
L 241.909267 340.378234 
L 242.461384 339.377564 
L 242.581555 337.376225 
L 243.133672 336.375556 
L 243.253844 334.42076 
L 243.805961 333.443361 
L 243.926132 331.511837 
L 244.478249 330.55771 
L 244.598421 328.649456 
L 245.150538 327.718601 
L 245.27071 325.85689 
L 245.822827 324.926035 
L 245.942998 323.110867 
L 246.495115 322.203283 
L 246.615287 320.388115 
L 247.167404 319.503802 
L 247.287575 317.735177 
L 247.839692 316.850865 
L 247.959864 315.105511 
L 248.511981 314.24447 
L 248.632152 312.522387 
L 249.184269 311.661346 
L 249.304441 309.985806 
L 249.856558 309.148036 
L 249.97673 307.472497 
L 250.528847 306.634727 
L 250.649018 305.00573 
L 251.201135 304.191232 
L 251.321307 302.562235 
L 251.873424 301.747736 
L 251.993595 300.142011 
L 252.545712 299.350784 
L 252.665884 297.76833 
L 253.218001 296.977103 
L 253.338173 295.394649 
L 253.89029 294.626693 
L 254.010461 293.090781 
L 254.562578 292.322826 
L 254.68275 290.786914 
L 255.234867 290.018959 
L 255.355038 288.506319 
L 255.907155 287.761635 
L 256.027327 286.272266 
L 256.579444 285.527582 
L 256.699616 284.038213 
L 257.251733 283.293529 
L 257.371904 281.850703 
L 257.924021 281.12929 
L 258.044193 279.686464 
L 258.59631 278.965051 
L 258.716481 277.522226 
L 259.268598 276.800813 
L 259.38877 275.40453 
L 259.940887 274.706388 
L 260.061058 273.310105 
L 260.613175 272.611964 
L 260.733347 271.21568 
L 261.285464 270.517539 
L 261.405636 269.121256 
L 261.957753 268.446386 
L 262.077924 267.096646 
L 262.630041 266.421775 
L 262.750213 265.072035 
L 263.30233 264.397165 
L 263.422501 263.047425 
L 263.974618 262.372555 
L 264.09479 261.046086 
L 264.646907 260.394487 
L 264.767079 259.091289 
L 265.319196 258.439691 
L 265.439367 257.136493 
L 265.991484 256.484894 
L 266.111656 255.181697 
L 266.663773 254.530098 
L 266.783944 253.226901 
L 267.336061 252.598573 
L 267.456233 251.341919 
L 268.00835 250.713591 
L 268.128522 249.456936 
L 268.680639 248.828609 
L 268.80081 247.571954 
L 269.352927 246.943627 
L 269.473099 245.686972 
L 270.025216 245.058645 
L 270.145387 243.825261 
L 270.697504 243.220205 
L 270.817676 242.010094 
L 271.369793 241.405038 
L 271.489964 240.194926 
L 272.042081 239.58987 
L 272.162253 238.379758 
L 272.71437 237.774702 
L 272.834542 236.56459 
L 273.386659 235.959534 
L 273.50683 234.749422 
L 274.058947 234.167637 
L 274.179119 233.004068 
L 274.731236 232.422283 
L 274.851407 231.258714 
L 275.403524 230.676929 
L 275.523696 229.51336 
L 276.075813 228.931576 
L 276.195985 227.768006 
L 276.748102 227.186222 
L 276.868273 226.022653 
L 277.42039 225.440868 
L 277.540562 224.30057 
L 278.092679 223.742057 
L 278.21285 222.625031 
L 278.764967 222.066517 
L 278.885139 220.949491 
L 279.437256 220.390978 
L 279.557427 219.273951 
L 280.109544 218.715438 
L 280.229716 217.598412 
L 280.781833 217.039898 
L 280.902005 215.922872 
L 281.454122 215.364359 
L 281.574293 214.247332 
L 282.12641 213.688819 
L 282.246582 212.618335 
L 282.798699 212.083094 
L 282.91887 211.01261 
L 283.470987 210.477368 
L 283.591159 209.406884 
L 284.143276 208.871643 
L 284.263448 207.801159 
L 284.815565 207.265917 
L 284.935736 206.195433 
L 285.487853 205.660192 
L 285.608025 204.589708 
L 286.160142 204.054466 
L 286.280313 202.983982 
L 286.83243 202.448741 
L 286.952602 201.378257 
L 287.504719 200.866287 
L 287.624891 199.842346 
L 288.177008 199.330375 
L 288.297179 198.306434 
L 288.849296 197.794464 
L 288.969468 196.770523 
L 289.521585 196.258552 
L 289.641756 195.234612 
L 290.193873 194.722641 
L 290.314045 193.6987 
L 290.866162 193.18673 
L 290.986333 192.162789 
L 291.53845 191.650818 
L 291.658622 190.626878 
L 292.210739 190.114907 
L 292.330911 189.090966 
L 292.883028 188.578996 
L 293.003199 187.601598 
L 293.555316 187.112899 
L 293.675488 186.1355 
L 294.227605 185.646801 
L 294.347776 184.669403 
L 294.899893 184.180704 
L 295.020065 183.203306 
L 295.572182 182.714607 
L 295.692354 181.737209 
L 296.244471 181.24851 
L 296.364642 180.271112 
L 296.916759 179.782413 
L 297.036931 178.805014 
L 297.589048 178.316315 
L 297.709219 177.338917 
L 298.261336 176.850218 
L 298.381508 175.87282 
L 298.933625 175.384121 
L 299.053797 174.406723 
L 299.605914 173.918024 
L 299.726085 172.987168 
L 300.278202 172.521741 
L 300.398374 171.590885 
L 300.950491 171.125458 
L 301.070662 170.194602 
L 301.622779 169.729175 
L 301.742951 168.798319 
L 302.295068 168.332892 
L 302.415239 167.402036 
L 302.967356 166.936609 
L 303.087528 166.005753 
L 303.639645 165.540326 
L 303.759817 164.60947 
L 304.311934 164.144042 
L 304.432105 163.213187 
L 304.984222 162.747759 
L 305.104394 161.816904 
L 305.656511 161.351476 
L 305.776682 160.420621 
L 306.328799 159.955193 
L 306.448971 159.024338 
L 307.001088 158.55891 
L 307.12126 157.651326 
L 307.673377 157.20917 
L 307.793548 156.324857 
L 308.345665 155.882701 
L 308.465837 154.998389 
L 309.017954 154.556232 
L 309.138125 153.67192 
L 309.690242 153.229763 
L 309.810414 152.345451 
L 310.362531 151.903294 
L 310.482702 151.018982 
L 311.034819 150.576826 
L 311.154991 149.692513 
L 311.707108 149.250357 
L 311.82728 148.366044 
L 312.379397 147.923888 
L 312.499568 147.039575 
L 313.051685 146.597419 
L 313.171857 145.713106 
L 313.823417 145.27095 
L 314.027624 472.559695 
L 314.027624 467.533076 
L 315.272759 444.703849 
L 315.326542 441.469126 
L 315.74084 438.420575 
L 315.965776 432.835443 
L 316.413128 430.229048 
L 316.638065 425.342057 
L 317.085417 423.03819 
L 317.277299 418.639898 
L 317.757705 416.545474 
L 317.877877 412.519524 
L 318.429994 410.588 
L 318.550166 406.864578 
L 319.102283 405.04941 
L 319.222454 401.558703 
L 319.774571 399.859891 
L 319.894743 396.555355 
L 320.44686 394.949629 
L 320.567031 391.807993 
L 321.119148 390.272081 
L 321.23932 387.270073 
L 321.791437 385.803976 
L 321.911608 382.941595 
L 322.463725 381.522041 
L 322.583897 378.752746 
L 323.136014 377.403006 
L 323.256186 374.726797 
L 323.808303 373.423599 
L 323.928474 370.840476 
L 324.480591 369.583821 
L 324.600763 367.093783 
L 325.15288 365.860399 
L 325.273051 363.440175 
L 325.825168 362.253335 
L 325.94534 359.902925 
L 326.497457 358.739356 
L 326.617629 356.45876 
L 327.169746 355.318462 
L 327.289917 353.08441 
L 327.842034 351.990655 
L 327.962206 349.803144 
L 328.514323 348.732661 
L 328.634494 346.591693 
L 329.186611 345.544481 
L 329.306783 343.450057 
L 329.8589 342.426116 
L 329.979072 340.378234 
L 330.531189 339.377564 
L 330.65136 337.376225 
L 331.30292 336.375556 
L 331.507127 472.559695 
L 331.507127 467.533076 
L 332.752262 444.703849 
L 332.806045 441.469126 
L 333.220343 438.420575 
L 333.445279 432.835443 
L 333.892631 430.229048 
L 334.117568 425.342057 
L 334.56492 423.03819 
L 334.756802 418.639898 
L 335.237209 416.545474 
L 335.35738 412.519524 
L 335.909497 410.588 
L 336.029669 406.864578 
L 336.581786 405.04941 
L 336.701957 401.558703 
L 337.254074 399.859891 
L 337.374246 396.555355 
L 337.926363 394.949629 
L 338.046535 391.807993 
L 338.598652 390.272081 
L 338.718823 387.270073 
L 339.27094 385.803976 
L 339.391112 382.941595 
L 339.943229 381.522041 
L 340.0634 378.752746 
L 340.615517 377.403006 
L 340.735689 374.726797 
L 341.287806 373.423599 
L 341.407977 370.840476 
L 341.960094 369.583821 
L 342.080266 367.093783 
L 342.632383 365.860399 
L 342.752555 363.440175 
L 343.304672 362.253335 
L 343.424843 359.902925 
L 343.97696 358.739356 
L 344.097132 356.45876 
L 344.649249 355.318462 
L 344.76942 353.08441 
L 345.321537 351.990655 
L 345.441709 349.803144 
L 345.993826 348.732661 
L 346.113998 346.591693 
L 346.666115 345.544481 
L 346.786286 343.450057 
L 347.338403 342.426116 
L 347.458575 340.378234 
L 348.010692 339.377564 
L 348.130863 337.376225 
L 348.68298 336.375556 
L 348.803152 334.42076 
L 349.355269 333.443361 
L 349.475441 331.511837 
L 350.027558 330.55771 
L 350.147729 328.649456 
L 350.699846 327.718601 
L 350.820018 325.85689 
L 351.372135 324.926035 
L 351.492306 323.110867 
L 352.044423 322.203283 
L 352.164595 320.388115 
L 352.716712 319.503802 
L 352.836883 317.735177 
L 353.389 316.850865 
L 353.509172 315.105511 
L 354.061289 314.24447 
L 354.181461 312.522387 
L 354.733578 311.661346 
L 354.853749 309.985806 
L 355.405866 309.148036 
L 355.471975 308.310267 
L 356.078435 307.472497 
L 356.198607 467.533076 
L 383.483999 472.559695 
L 389.494539 480.006538 
L 389.731801 467.533076 
L 390.206325 456.316269 
L 391.293191 435.558195 
L 391.530453 430.229048 
L 391.767435 425.342057 
L 392.037751 418.639898 
L 392.241959 414.497592 
L 392.782591 401.558703 
L 394.188234 370.840476 
L 395.510402 347.662177 
L 396.964786 325.85689 
L 397.196725 324.018451 
L 397.428105 398.091266 
L 397.592815 430.112691 
L 397.592815 423.87596 
L 398.88417 393.925689 
L 399.947786 371.305903 
L 401.203846 349.081732 
L 402.724338 326.18269 
L 402.856555 324.34425 
L 403.105302 323.436666 
L 403.237518 321.621498 
L 403.77759 320.713914 
L 403.909807 318.945289 
L 404.449879 318.060977 
L 404.582096 316.292351 
L 405.122167 315.43131 
L 405.254384 313.709228 
L 405.794456 312.848187 
L 405.926673 311.126104 
L 406.466745 310.288334 
L 406.598961 308.612795 
L 407.139033 307.775025 
L 407.27125 306.099485 
L 407.811322 305.284987 
L 407.943539 303.65599 
L 408.48361 302.841491 
L 408.615827 301.212495 
L 409.155899 300.421267 
L 409.288116 298.838813 
L 409.828188 298.047586 
L 409.960404 296.465132 
L 410.500476 295.673905 
L 410.632693 294.137994 
L 411.172765 293.370038 
L 411.304982 291.834127 
L 411.845053 291.066171 
L 411.97727 289.53026 
L 412.517342 288.785575 
L 412.649559 287.296207 
L 413.189631 286.551523 
L 413.321847 285.062154 
L 413.861919 284.31747 
L 413.994136 282.828101 
L 414.534208 282.106688 
L 414.666424 280.663862 
L 415.206496 279.942449 
L 415.338713 278.499624 
L 415.878785 277.778211 
L 416.011002 276.335385 
L 416.551073 275.637243 
L 416.68329 274.24096 
L 417.223362 273.542819 
L 417.355579 272.146536 
L 417.895651 271.448394 
L 418.027867 270.052111 
L 418.567939 269.35397 
L 418.700156 268.004229 
L 419.339671 267.329359 
L 419.393734 467.533076 
L 419.543878 472.559695 
L 419.543878 467.533076 
L 420.182832 456.316269 
L 420.87585 441.469126 
L 421.290148 438.420575 
L 421.515084 432.835443 
L 421.962436 430.229048 
L 422.187373 425.342057 
L 422.634725 423.03819 
L 422.826607 418.639898 
L 423.307014 416.545474 
L 423.427185 412.519524 
L 423.979302 410.588 
L 424.099474 406.864578 
L 424.651591 405.04941 
L 424.771762 401.558703 
L 425.323879 399.859891 
L 425.444051 396.555355 
L 425.996168 394.949629 
L 426.116339 391.807993 
L 426.668456 390.272081 
L 426.788628 387.270073 
L 427.340745 385.803976 
L 427.460917 382.941595 
L 428.013034 381.522041 
L 428.133205 378.752746 
L 428.685322 377.403006 
L 428.805494 374.726797 
L 429.357611 373.423599 
L 429.477782 370.840476 
L 430.029899 369.583821 
L 430.150071 367.093783 
L 430.702188 365.860399 
L 430.82236 363.440175 
L 431.374477 362.253335 
L 431.494648 359.902925 
L 432.046765 358.739356 
L 432.166937 356.45876 
L 432.719054 355.318462 
L 432.839225 353.08441 
L 433.391342 351.990655 
L 433.511514 349.803144 
L 434.063631 348.732661 
L 434.183803 346.591693 
L 434.73592 345.544481 
L 434.856091 343.450057 
L 435.408208 342.426116 
L 435.52838 340.378234 
L 436.080497 339.377564 
L 436.200668 337.376225 
L 436.753626 336.375556 
L 436.874077 334.42076 
L 437.425914 333.443361 
L 437.546366 331.511837 
L 438.098203 330.55771 
L 438.218655 328.649456 
L 438.770491 327.718601 
L 438.890943 325.85689 
L 439.44278 324.926035 
L 439.563232 323.110867 
L 440.115069 322.203283 
L 440.23552 320.388115 
L 440.787357 319.503802 
L 440.907809 317.735177 
L 441.459646 316.850865 
L 441.580097 315.105511 
L 442.131934 314.24447 
L 442.252386 312.522387 
L 442.804223 311.661346 
L 442.924675 309.985806 
L 443.476512 309.148036 
L 443.596963 307.472497 
L 444.1488 306.634727 
L 444.269252 305.00573 
L 444.821089 304.191232 
L 444.94154 302.562235 
L 445.493377 301.747736 
L 445.613829 300.142011 
L 446.165666 299.350784 
L 446.286118 297.76833 
L 446.837954 296.977103 
L 446.958406 295.394649 
L 447.510243 294.626693 
L 447.630695 293.090781 
L 448.182532 292.322826 
L 448.302983 290.786914 
L 448.85482 290.018959 
L 448.975272 288.506319 
L 449.527109 287.761635 
L 449.647561 286.272266 
L 450.199397 285.527582 
L 450.319849 284.038213 
L 450.871686 283.293529 
L 450.992138 281.850703 
L 451.543975 281.12929 
L 451.664426 279.686464 
L 452.216263 278.965051 
L 452.336715 277.522226 
L 452.888552 276.800813 
L 453.009003 275.40453 
L 453.56084 274.706388 
L 453.681292 273.310105 
L 454.233129 272.611964 
L 454.353581 271.21568 
L 454.905417 270.517539 
L 455.025869 269.121256 
L 455.577706 268.446386 
L 455.698158 267.096646 
L 456.249995 266.421775 
L 456.370446 265.072035 
L 456.922283 264.397165 
L 457.042735 263.047425 
L 457.594572 262.372555 
L 457.715024 261.046086 
L 458.26686 260.394487 
L 458.387312 259.091289 
L 458.939149 258.439691 
L 459.059601 257.136493 
L 459.611438 256.484894 
L 459.731889 255.181697 
L 460.283726 254.530098 
L 460.404178 253.226901 
L 460.956015 252.598573 
L 461.076466 251.341919 
L 461.628303 250.713591 
L 461.748755 249.456936 
L 462.300592 248.828609 
L 462.421044 247.571954 
L 462.972881 246.943627 
L 463.093332 245.686972 
L 463.645169 245.058645 
L 463.765621 243.825261 
L 464.317458 243.220205 
L 464.437909 242.010094 
L 464.989746 241.405038 
L 465.110198 240.194926 
L 465.662035 239.58987 
L 465.782487 238.984814 
L 465.986974 480.006538 
L 465.986974 467.533076 
L 467.2111 444.703849 
L 467.264323 441.469126 
L 467.678901 438.420575 
L 467.902997 432.835443 
L 468.351189 430.229048 
L 468.575285 425.342057 
L 469.023478 423.03819 
L 469.21396 418.639898 
L 469.695766 416.545474 
L 469.816218 412.519524 
L 470.368055 410.588 
L 470.488507 406.864578 
L 471.040344 405.04941 
L 471.160795 401.558703 
L 471.712632 399.859891 
L 471.833084 396.555355 
L 472.384921 394.949629 
L 472.505372 391.807993 
L 473.057209 390.272081 
L 473.177661 387.270073 
L 473.729498 385.803976 
L 473.84995 382.941595 
L 474.401787 381.522041 
L 474.522238 378.752746 
L 475.074075 377.403006 
L 475.194527 374.726797 
L 475.746364 373.423599 
L 475.866815 370.840476 
L 476.418652 369.583821 
L 476.539104 368.327166 
L 476.743592 480.006538 
L 476.743592 467.533076 
L 477.967717 444.703849 
L 478.02094 441.469126 
L 478.435518 438.420575 
L 478.659614 432.835443 
L 479.107807 430.229048 
L 479.331903 425.342057 
L 479.780095 423.03819 
L 479.844523 420.804137 
L 480.452384 418.639898 
L 480.645667 467.533076 
L 480.67648 472.559695 
L 480.67648 467.533076 
L 481.124672 461.296345 
L 482.054672 441.469126 
L 482.46925 438.420575 
L 482.693346 432.835443 
L 483.141538 430.229048 
L 483.365634 425.342057 
L 483.813827 423.03819 
L 484.004309 418.639898 
L 484.584157 416.545474 
L 484.788645 472.559695 
L 484.788645 467.533076 
L 486.03518 444.703849 
L 486.088403 441.469126 
L 486.502981 438.420575 
L 486.727077 432.835443 
L 487.17527 430.229048 
L 487.399366 425.342057 
L 487.847558 423.03819 
L 488.03804 418.639898 
L 488.519847 416.545474 
L 488.640299 412.519524 
L 489.192135 410.588 
L 489.312587 406.864578 
L 489.864424 405.04941 
L 489.984876 401.558703 
L 490.536713 399.859891 
L 490.657164 396.555355 
L 491.209001 394.949629 
L 491.329453 391.807993 
L 491.88129 390.272081 
L 492.001741 387.270073 
L 492.553578 385.803976 
L 492.67403 382.941595 
L 493.225867 381.522041 
L 493.346319 378.752746 
L 493.898156 377.403006 
L 494.018607 374.726797 
L 494.570444 373.423599 
L 494.690896 370.840476 
L 495.242733 369.583821 
L 495.363184 367.093783 
L 495.915021 365.860399 
L 496.035473 363.440175 
L 496.58731 362.253335 
L 496.707762 359.902925 
L 497.259598 358.739356 
L 497.38005 356.45876 
L 497.931887 355.318462 
L 498.052339 353.08441 
L 498.604176 351.990655 
L 498.724627 349.803144 
L 499.276464 348.732661 
L 499.396916 346.591693 
L 499.948753 345.544481 
L 500.069205 343.450057 
L 500.621041 342.426116 
L 500.741493 340.378234 
L 501.29333 339.377564 
L 501.413782 337.376225 
L 501.965619 336.375556 
L 502.08607 334.42076 
L 502.637907 333.443361 
L 502.758359 331.511837 
L 503.310196 330.55771 
L 503.430647 328.649456 
L 503.982484 327.718601 
L 504.102936 325.85689 
L 504.654773 324.926035 
L 504.775225 323.110867 
L 505.327062 322.203283 
L 505.447513 320.388115 
L 505.99935 319.503802 
L 506.119802 317.735177 
L 506.671639 316.850865 
L 506.79209 315.105511 
L 507.343927 314.24447 
L 507.464379 312.522387 
L 508.016216 311.661346 
L 508.136668 309.985806 
L 508.688504 309.148036 
L 508.808956 307.472497 
L 509.360793 306.634727 
L 509.481245 305.00573 
L 510.033082 304.191232 
L 510.153533 302.562235 
L 510.70537 301.747736 
L 510.825822 300.142011 
L 511.377659 299.350784 
L 511.498111 297.76833 
L 512.049947 296.977103 
L 512.170399 295.394649 
L 512.722236 294.626693 
L 512.842688 293.090781 
L 513.394525 292.322826 
L 513.514976 290.786914 
L 514.066813 290.018959 
L 514.187265 288.506319 
L 514.739102 287.761635 
L 514.859553 286.272266 
L 515.41139 285.527582 
L 515.531842 284.038213 
L 516.083679 283.293529 
L 516.204131 281.850703 
L 516.755968 281.12929 
L 516.876419 279.686464 
L 517.428256 278.965051 
L 517.548708 277.522226 
L 518.100545 276.800813 
L 518.220996 275.40453 
L 519.411507 274.008247 
L 519.543164 458.550322 
L 519.615995 465.112852 
L 519.615995 463.809655 
L 520.11741 458.387422 
L 521.04741 439.723772 
L 521.461988 436.791578 
L 521.686084 433.999012 
L 521.890572 480.006538 
L 521.890572 467.533076 
L 522.596475 452.034335 
L 523.064275 441.469126 
L 523.478853 438.420575 
L 523.70295 432.835443 
L 524.151142 430.229048 
L 524.375238 425.342057 
L 524.823431 423.03819 
L 524.887858 420.804137 
L 525.529334 418.639898 
L 525.733821 472.559695 
L 525.938309 480.006538 
L 525.938309 467.533076 
L 526.411712 456.316269 
L 527.098007 441.469126 
L 527.512585 438.420575 
L 527.736681 432.835443 
L 528.184873 430.229048 
L 528.40897 425.342057 
L 528.857162 423.03819 
L 529.047644 418.639898 
L 529.529451 416.545474 
L 529.649902 412.519524 
L 530.201739 410.588 
L 530.322191 406.864578 
L 530.874028 405.04941 
L 530.99448 401.558703 
L 531.546316 399.859891 
L 531.666768 396.555355 
L 532.218605 394.949629 
L 532.339057 391.807993 
L 532.890894 390.272081 
L 533.011345 387.270073 
L 533.563182 385.803976 
L 533.683634 382.941595 
L 534.235471 381.522041 
L 534.355922 378.752746 
L 534.907759 377.403006 
L 535.028211 374.726797 
L 535.580048 373.423599 
L 535.7005 370.840476 
L 536.252337 369.583821 
L 536.372788 367.093783 
L 536.924625 365.860399 
L 537.045077 363.440175 
L 537.596914 362.253335 
L 537.717365 359.902925 
L 538.269202 358.739356 
L 538.389654 356.45876 
L 538.941491 355.318462 
L 539.061943 353.08441 
L 539.613779 351.990655 
L 539.734231 349.803144 
L 540.286068 348.732661 
L 540.40652 346.591693 
L 540.958357 345.544481 
L 541.078808 343.450057 
L 541.630645 342.426116 
L 541.751097 340.378234 
L 542.302934 339.377564 
L 542.423386 337.376225 
L 542.975222 336.375556 
L 543.095674 334.42076 
L 543.647511 333.443361 
L 543.767963 331.511837 
L 544.958474 329.603583 
L 545.09013 458.550322 
L 545.162962 463.809655 
L 545.353443 465.112852 
L 545.664377 463.809655 
L 546.336665 449.823553 
L 546.541153 446.193217 
L 546.594376 442.842138 
L 547.008954 439.723772 
L 547.23305 433.999012 
L 547.681243 431.346074 
L 547.905339 426.365998 
L 548.353531 424.015588 
L 548.544013 419.570754 
L 549.123862 417.453058 
L 549.32835 472.559695 
L 549.32835 467.533076 
L 550.574885 444.703849 
L 550.628107 441.469126 
L 551.042685 438.420575 
L 551.266782 432.835443 
L 551.714974 430.229048 
L 551.93907 425.342057 
L 552.387263 423.03819 
L 552.577744 418.639898 
L 553.059551 416.545474 
L 553.180003 412.519524 
L 553.73184 410.588 
L 553.852292 406.864578 
L 554.404128 405.04941 
L 554.52458 401.558703 
L 555.076417 399.859891 
L 555.196869 396.555355 
L 555.748706 394.949629 
L 555.869157 391.807993 
L 556.420994 390.272081 
L 556.541446 387.270073 
L 557.093283 385.803976 
L 557.213734 382.941595 
L 557.765571 381.522041 
L 557.886023 378.752746 
L 558.43786 377.403006 
L 558.558312 374.726797 
L 559.110148 373.423599 
L 559.2306 370.840476 
L 559.782437 369.583821 
L 559.902889 367.093783 
L 560.454726 365.860399 
L 560.575177 363.440175 
L 561.127014 362.253335 
L 561.247466 359.902925 
L 561.799303 358.739356 
L 561.919755 356.45876 
L 562.471591 355.318462 
L 562.592043 353.08441 
L 563.14388 351.990655 
L 563.264332 349.803144 
L 563.816169 348.732661 
L 563.93662 346.591693 
L 564.488457 345.544481 
L 564.608909 343.450057 
L 565.160746 342.426116 
L 565.281197 340.378234 
L 565.833034 339.377564 
L 565.953486 337.376225 
L 566.505323 336.375556 
L 566.625775 334.42076 
L 567.177612 333.443361 
L 567.298063 331.511837 
L 567.8499 330.55771 
L 567.970352 328.649456 
L 568.522189 327.718601 
L 568.64264 325.85689 
L 569.194477 324.926035 
L 569.314929 323.110867 
L 569.866766 322.203283 
L 569.987218 320.388115 
L 570.539054 319.503802 
L 570.659506 317.735177 
L 571.211343 316.850865 
L 571.331795 315.105511 
L 571.883632 314.24447 
L 572.004083 312.522387 
L 572.55592 311.661346 
L 572.676372 309.985806 
L 573.228209 309.148036 
L 573.348661 307.472497 
L 573.900497 306.634727 
L 574.020949 305.00573 
L 574.572786 304.191232 
L 574.693238 302.562235 
L 575.245075 301.747736 
L 575.365526 300.142011 
L 575.917363 299.350784 
L 576.037815 297.76833 
L 577.228326 296.185876 
L 577.382392 463.809655 
L 577.432814 465.112852 
L 577.432814 463.809655 
L 577.934229 458.387422 
L 578.864228 439.723772 
L 579.278806 436.791578 
L 579.502902 431.346074 
L 579.951095 428.809493 
L 580.141576 424.015588 
L 580.623383 421.758264 
L 580.743835 417.453058 
L 581.295672 415.381905 
L 581.416124 411.425769 
L 581.96796 409.517516 
L 582.088412 405.840637 
L 582.640249 404.048741 
L 582.760701 400.581304 
L 583.312538 398.905765 
L 583.432989 395.6245 
L 583.984826 394.018774 
L 584.105278 390.92368 
L 584.657115 389.41104 
L 584.777567 386.455574 
L 585.329403 384.989477 
L 585.449855 382.127097 
L 586.001692 380.730814 
L 586.122144 377.98479 
L 586.673981 376.63505 
L 586.794432 373.982112 
L 587.346269 372.678915 
L 587.466721 370.119063 
L 588.018558 368.862408 
L 588.082985 367.605753 
L 588.690846 366.37237 
L 588.811298 467.533076 
L 588.895334 472.559695 
L 588.895334 467.533076 
L 589.363135 461.296345 
L 590.293134 441.469126 
L 590.707712 438.420575 
L 590.931808 432.835443 
L 591.380001 430.229048 
L 591.604097 425.342057 
L 592.052289 423.03819 
L 592.242771 418.639898 
L 592.724578 416.545474 
L 592.84503 412.519524 
L 593.396866 410.588 
L 593.517318 406.864578 
L 594.069155 405.04941 
L 594.189607 401.558703 
L 594.741444 399.859891 
L 594.861895 396.555355 
L 595.413732 394.949629 
L 595.534184 391.807993 
L 596.086021 390.272081 
L 596.206472 387.270073 
L 596.758309 385.803976 
L 596.878761 382.941595 
L 597.430598 381.522041 
L 597.55105 378.752746 
L 598.102887 377.403006 
L 598.223338 374.726797 
L 598.775175 373.423599 
L 598.895627 370.840476 
L 599.447464 369.583821 
L 599.567915 367.093783 
L 600.119752 365.860399 
L 600.240204 363.440175 
L 600.792041 362.253335 
L 600.912493 359.902925 
L 601.464329 358.739356 
L 601.584781 356.45876 
L 602.136618 355.318462 
L 602.25707 353.08441 
L 602.808907 351.990655 
L 602.929358 349.803144 
L 603.481195 348.732661 
L 603.601647 346.591693 
L 604.153484 345.544481 
L 604.273936 343.450057 
L 604.825772 342.426116 
L 604.946224 340.378234 
L 605.498061 339.377564 
L 605.618513 337.376225 
L 606.17035 336.375556 
L 606.290801 334.42076 
L 606.842638 333.443361 
L 606.96309 331.511837 
L 607.514927 330.55771 
L 607.635378 328.649456 
L 608.187215 327.718601 
L 608.307667 325.85689 
L 608.859504 324.926035 
L 608.979956 323.110867 
L 609.531793 322.203283 
L 609.652244 320.388115 
L 610.204081 319.503802 
L 610.324533 317.735177 
L 610.87637 316.850865 
L 610.996821 315.105511 
L 611.548658 314.24447 
L 611.66911 312.522387 
L 612.859621 310.823576 
L 613.013687 463.809655 
L 613.064109 465.112852 
L 613.064109 463.809655 
L 613.565524 458.387422 
L 614.495523 439.723772 
L 614.910101 436.791578 
L 615.134197 431.346074 
L 615.58239 428.809493 
L 615.772872 424.015588 
L 616.254678 421.758264 
L 616.37513 417.453058 
L 616.926967 415.381905 
L 617.047419 411.425769 
L 617.599256 409.517516 
L 617.719707 405.840637 
L 618.271544 404.048741 
L 618.391996 400.581304 
L 618.943833 398.905765 
L 619.064284 395.6245 
L 619.616121 394.018774 
L 619.736573 390.92368 
L 620.28841 389.41104 
L 620.408862 386.455574 
L 620.960699 384.989477 
L 621.08115 382.127097 
L 621.632987 380.730814 
L 621.753439 377.98479 
L 622.305276 376.63505 
L 622.425727 373.982112 
L 622.977564 372.678915 
L 623.098016 370.119063 
L 623.747895 368.862408 
L 623.952383 472.559695 
L 623.952383 467.533076 
L 625.198918 444.703849 
L 625.252141 441.469126 
L 625.666719 438.420575 
L 625.890815 432.835443 
L 626.339007 430.229048 
L 626.563103 425.342057 
L 627.011296 423.03819 
L 627.201778 418.639898 
L 627.683584 416.545474 
L 627.804036 412.519524 
L 628.355873 410.588 
L 628.476325 406.864578 
L 629.028162 405.04941 
L 629.148613 401.558703 
L 629.70045 399.859891 
L 629.820902 396.555355 
L 630.372739 394.949629 
L 630.49319 391.807993 
L 631.045027 390.272081 
L 631.165479 387.270073 
L 631.717316 385.803976 
L 631.837768 382.941595 
L 632.389604 381.522041 
L 632.510056 378.752746 
L 633.061893 377.403006 
L 633.182345 374.726797 
L 633.734182 373.423599 
L 633.854633 370.840476 
L 634.40647 369.583821 
L 634.526922 367.093783 
L 635.078759 365.860399 
L 635.199211 363.440175 
L 635.751047 362.253335 
L 635.871499 359.902925 
L 636.423336 358.739356 
L 636.543788 356.45876 
L 637.095625 355.318462 
L 637.216076 353.08441 
L 637.767913 351.990655 
L 637.888365 349.803144 
L 638.440202 348.732661 
L 638.560653 346.591693 
L 639.11249 345.544481 
L 639.232942 343.450057 
L 639.784779 342.426116 
L 639.905231 340.378234 
L 640.457068 339.377564 
L 640.577519 337.376225 
L 641.129356 336.375556 
L 641.249808 334.42076 
L 641.801645 333.443361 
L 641.922096 331.511837 
L 642.473933 330.55771 
L 642.594385 328.649456 
L 643.146222 327.718601 
L 643.266674 326.787746 
L 643.471161 480.006538 
L 643.471161 467.533076 
L 644.695287 444.703849 
L 644.74851 441.469126 
L 645.163088 438.420575 
L 645.387184 432.835443 
L 645.835376 430.229048 
L 646.059472 425.342057 
L 646.605707 423.03819 
L 646.810195 472.559695 
L 646.810195 467.533076 
L 652.748744 461.296345 
L 653.362207 456.316269 
L 653.566695 480.006538 
L 653.566695 467.533076 
L 654.040098 456.316269 
L 655.126965 435.558195 
L 655.365067 430.229048 
L 655.667597 423.03819 
L 656.009344 416.545474 
L 656.549976 403.280785 
L 657.56121 380.125758 
L 658.034613 370.840476 
L 658.575245 369.583821 
L 658.706901 367.093783 
L 659.247534 365.860399 
L 659.37919 363.440175 
L 659.919822 362.253335 
L 660.051479 359.902925 
L 660.592111 358.739356 
L 660.723767 356.45876 
L 661.264399 355.318462 
L 661.396056 353.08441 
L 661.936688 351.990655 
L 662.068344 349.803144 
L 662.608976 348.732661 
L 662.740633 346.591693 
L 663.281265 345.544481 
L 663.412922 343.450057 
L 663.953554 342.426116 
L 664.08521 340.378234 
L 664.625842 339.377564 
L 664.757499 337.376225 
L 665.298131 336.375556 
L 665.429787 334.42076 
L 665.970419 333.443361 
L 666.102076 331.511837 
L 666.642708 330.55771 
L 666.774365 328.649456 
L 667.314997 327.718601 
L 667.446653 325.85689 
L 667.987285 324.926035 
L 668.118942 323.110867 
L 668.659574 322.203283 
L 668.79123 320.388115 
L 669.331862 319.503802 
L 669.463519 317.735177 
L 670.004151 316.850865 
L 670.135807 315.105511 
L 670.67644 314.24447 
L 670.808096 312.522387 
L 671.348728 311.661346 
L 671.480385 309.985806 
L 672.021017 309.148036 
L 672.152673 307.472497 
L 672.693305 306.634727 
L 672.824962 305.00573 
L 673.365594 304.191232 
L 673.49725 302.562235 
L 674.037882 301.747736 
L 674.169539 300.142011 
L 674.710171 299.350784 
L 674.841828 297.76833 
L 675.38246 296.977103 
L 675.514116 295.394649 
L 676.054748 294.626693 
L 676.186405 293.090781 
L 676.727037 292.322826 
L 676.858693 290.786914 
L 677.497367 290.018959 
L 677.553392 467.533076 
L 677.701855 472.559695 
L 677.701855 467.533076 
L 678.340529 456.316269 
L 679.035228 441.469126 
L 679.449806 438.420575 
L 679.673902 432.835443 
L 680.122094 430.229048 
L 680.34619 425.342057 
L 680.794383 423.03819 
L 680.984865 418.639898 
L 681.466671 416.545474 
L 681.587123 412.519524 
L 682.13896 410.588 
L 682.259412 406.864578 
L 682.811249 405.04941 
L 682.9317 401.558703 
L 683.483537 399.859891 
L 683.603989 396.555355 
L 684.155826 394.949629 
L 684.276277 391.807993 
L 684.828114 390.272081 
L 684.948566 387.270073 
L 685.500403 385.803976 
L 685.620855 382.941595 
L 686.172691 381.522041 
L 686.293143 378.752746 
L 686.84498 377.403006 
L 686.965432 374.726797 
L 687.517269 373.423599 
L 687.63772 370.840476 
L 688.189557 369.583821 
L 688.310009 367.093783 
L 688.861846 365.860399 
L 688.982298 363.440175 
L 689.534134 362.253335 
L 689.654586 359.902925 
L 690.206423 358.739356 
L 690.326875 356.45876 
L 690.878712 355.318462 
L 690.999163 353.08441 
L 691.551 351.990655 
L 691.671452 349.803144 
L 692.223289 348.732661 
L 692.34374 346.591693 
L 692.895577 345.544481 
L 693.016029 343.450057 
L 693.567866 342.426116 
L 693.688318 340.378234 
L 694.240155 339.377564 
L 694.360606 337.376225 
L 694.912443 336.375556 
L 695.032895 334.42076 
L 695.584732 333.443361 
L 695.705183 331.511837 
L 696.25702 330.55771 
L 696.377472 328.649456 
L 696.929309 327.718601 
L 697.049761 325.85689 
L 697.601597 324.926035 
L 697.722049 323.110867 
L 698.273886 322.203283 
L 698.394338 320.388115 
L 698.946175 319.503802 
L 699.066626 317.735177 
L 699.618463 316.850865 
L 699.738915 315.105511 
L 700.290752 314.24447 
L 700.411203 312.522387 
L 700.96304 311.661346 
L 701.083492 309.985806 
L 701.635329 309.148036 
L 701.755781 307.472497 
L 702.307618 306.634727 
L 702.428069 305.00573 
L 702.979906 304.191232 
L 703.100358 302.562235 
L 703.652195 301.747736 
L 703.772646 300.142011 
L 704.324483 299.350784 
L 704.444935 297.76833 
L 704.996772 296.977103 
L 705.117224 295.394649 
L 705.66906 294.626693 
L 705.789512 293.090781 
L 706.341349 292.322826 
L 706.461801 290.786914 
L 707.013638 290.018959 
L 707.134089 288.506319 
L 707.685926 287.761635 
L 707.806378 286.272266 
L 708.358215 285.527582 
L 708.478667 284.038213 
L 709.030503 283.293529 
L 709.150955 281.850703 
L 709.702792 281.12929 
L 709.823244 279.686464 
L 710.375081 278.965051 
L 710.495532 277.522226 
L 711.047369 276.800813 
L 711.167821 275.40453 
L 711.719658 274.706388 
L 711.840109 273.310105 
L 712.391946 272.611964 
L 712.512398 271.21568 
L 713.064235 270.517539 
L 713.184687 269.121256 
L 713.736524 268.446386 
L 713.856975 267.096646 
L 714.408812 266.421775 
L 714.529264 265.072035 
L 715.081101 264.397165 
L 715.201552 263.047425 
L 715.753389 262.372555 
L 715.873841 261.046086 
L 716.425678 260.394487 
L 716.54613 259.091289 
L 717.097966 258.439691 
L 717.218418 257.136493 
L 717.770255 256.484894 
L 717.890707 255.181697 
L 718.442544 254.530098 
L 718.562995 253.226901 
L 719.114832 252.598573 
L 719.235284 251.341919 
L 720.425795 250.085264 
L 720.557451 458.550322 
L 720.630283 465.112852 
L 720.630283 463.809655 
L 721.131698 458.387422 
L 722.061697 439.723772 
L 722.476275 436.791578 
L 722.700371 431.346074 
L 723.148564 428.809493 
L 723.339046 424.015588 
L 723.820852 421.758264 
L 723.941304 417.453058 
L 724.493141 415.381905 
L 724.613593 411.425769 
L 725.16543 409.517516 
L 725.285881 405.840637 
L 725.837718 404.048741 
L 725.95817 400.581304 
L 726.510007 398.905765 
L 726.630458 395.6245 
L 727.182295 394.018774 
L 727.302747 390.92368 
L 727.854584 389.41104 
L 727.975036 386.455574 
L 728.526872 384.989477 
L 728.647324 382.127097 
L 729.199161 380.730814 
L 729.319613 377.98479 
L 729.87145 376.63505 
L 729.991901 373.982112 
L 730.543738 372.678915 
L 730.66419 370.119063 
L 731.216027 368.862408 
L 731.336478 366.37237 
L 731.888315 365.138986 
L 732.008767 362.718763 
L 732.560604 361.531922 
L 732.681056 359.181512 
L 733.232893 358.017943 
L 733.353344 355.737347 
L 733.905181 354.620321 
L 734.025633 352.386268 
L 734.57747 351.292513 
L 734.697921 349.128274 
L 735.249758 348.057791 
L 735.37021 345.940095 
L 735.922047 344.892882 
L 736.042499 342.821729 
L 736.594335 341.797788 
L 736.714787 339.749906 
L 737.266624 338.749237 
L 737.387076 336.747898 
L 737.938913 335.7705 
L 738.059364 333.815704 
L 738.611201 332.838305 
L 738.731653 330.930052 
L 739.28349 329.975925 
L 739.403942 328.090943 
L 739.955778 327.160088 
L 740.07623 325.298377 
L 740.628067 324.390793 
L 740.748519 322.575625 
L 741.300356 321.668041 
L 741.420807 319.876145 
L 741.972644 318.991832 
L 742.093096 317.223207 
L 742.644933 316.338894 
L 742.765384 314.616812 
L 743.317221 313.755771 
L 743.437673 312.033688 
L 743.98951 311.172647 
L 744.109962 309.497107 
L 744.661799 308.659337 
L 744.78225 306.983798 
L 745.334087 306.146028 
L 745.454539 304.517031 
L 746.006376 303.702533 
L 746.126827 302.073536 
L 746.678664 301.259037 
L 746.799116 299.676583 
L 747.350953 298.885356 
L 747.471405 297.302902 
L 748.023241 296.511675 
L 748.143693 294.952492 
L 748.69553 294.184537 
L 748.815982 292.648625 
L 749.367819 291.88067 
L 749.48827 290.344758 
L 750.040107 289.576802 
L 750.160559 288.087434 
L 750.712396 287.34275 
L 750.832848 285.853381 
L 751.384684 285.108697 
L 751.505136 283.619328 
L 752.056973 282.874644 
L 752.177425 281.431818 
L 752.729262 280.710405 
L 752.849713 279.267579 
L 753.40155 278.546166 
L 753.522002 277.103341 
L 754.073839 276.381928 
L 754.19429 274.985645 
L 754.746127 274.287503 
L 754.866579 272.89122 
L 755.418416 272.193079 
L 755.538868 270.796796 
L 756.090705 270.098654 
L 756.211156 268.725642 
L 756.762993 268.050772 
L 756.883445 266.701032 
L 757.435282 266.026162 
L 757.555733 264.676422 
L 758.10757 264.001551 
L 758.228022 262.651811 
L 758.779859 261.976941 
L 758.900311 260.650472 
L 759.452147 259.998873 
L 759.572599 258.695676 
L 760.124436 258.044077 
L 760.244888 256.74088 
L 760.796725 256.089281 
L 760.917176 254.786083 
L 761.469013 254.134485 
L 761.589465 252.854558 
L 762.141302 252.226231 
L 762.261754 250.969576 
L 762.81359 250.341249 
L 762.934042 249.084594 
L 763.485879 248.456267 
L 763.606331 247.199612 
L 764.158168 246.571285 
L 764.278619 245.31463 
L 764.830456 244.686303 
L 764.950908 243.476191 
L 765.502745 242.871135 
L 765.623196 241.661023 
L 766.175033 241.055967 
L 766.295485 239.845855 
L 766.847322 239.240799 
L 766.967774 238.030687 
L 767.51961 237.425631 
L 767.640062 236.215519 
L 768.191899 235.610463 
L 768.312351 234.423622 
L 768.864188 233.841838 
L 768.984639 232.678268 
L 769.536476 232.096484 
L 769.656928 230.932915 
L 770.208765 230.35113 
L 770.329217 229.187561 
L 770.881053 228.605776 
L 771.001505 227.442207 
L 771.553342 226.860422 
L 771.673794 225.696853 
L 772.225631 225.115069 
L 772.346082 223.974771 
L 772.897919 223.416258 
L 773.018371 222.299231 
L 773.570208 221.740718 
L 773.690659 220.623692 
L 774.242496 220.065178 
L 774.362948 218.948152 
L 774.914785 218.389639 
L 775.035237 217.272612 
L 775.587074 216.714099 
L 775.707525 215.597073 
L 776.259362 215.038559 
L 776.379814 213.921533 
L 776.931651 213.36302 
L 777.052102 212.292536 
L 777.603939 211.757294 
L 777.724391 210.686811 
L 778.276228 210.151569 
L 778.39668 209.081085 
L 778.948516 208.545843 
L 779.068968 207.47536 
L 779.620805 206.940118 
L 779.741257 205.869634 
L 780.293094 205.334392 
L 780.413545 204.263909 
L 780.965382 203.728667 
L 781.085834 202.658183 
L 781.637671 202.122941 
L 781.758123 201.075729 
L 782.309959 200.563759 
L 782.430411 199.539818 
L 782.982248 199.027847 
L 783.1027 198.003906 
L 783.654537 197.491936 
L 783.774988 196.467995 
L 784.424867 195.956024 
L 784.629355 472.559695 
L 784.629355 467.533076 
L 785.87589 444.703849 
L 785.929113 441.469126 
L 786.343691 438.420575 
L 786.567787 432.835443 
L 787.01598 430.229048 
L 787.240076 425.342057 
L 787.688268 423.03819 
L 787.87875 418.639898 
L 788.360557 416.545474 
L 788.481008 412.519524 
L 789.032845 410.588 
L 789.153297 406.864578 
L 789.705134 405.04941 
L 789.825586 401.558703 
L 790.377422 399.859891 
L 790.497874 396.555355 
L 791.049711 394.949629 
L 791.170163 391.807993 
L 791.820042 390.272081 
L 792.024529 472.559695 
L 792.024529 467.533076 
L 793.271065 444.703849 
L 793.324287 441.469126 
L 793.738865 438.420575 
L 793.962962 432.835443 
L 794.411154 430.229048 
L 794.63525 425.342057 
L 795.083443 423.03819 
L 795.273924 418.639898 
L 795.755731 416.545474 
L 795.876183 412.519524 
L 796.42802 410.588 
L 796.548471 406.864578 
L 797.100308 405.04941 
L 797.22076 401.558703 
L 797.772597 399.859891 
L 797.893049 396.555355 
L 798.444886 394.949629 
L 798.565337 391.807993 
L 799.117174 390.272081 
L 799.237626 387.270073 
L 799.789463 385.803976 
L 799.909914 382.941595 
L 800.461751 381.522041 
L 800.582203 378.752746 
L 801.13404 377.403006 
L 801.254492 374.726797 
L 801.806328 373.423599 
L 801.92678 370.840476 
L 802.478617 369.583821 
L 802.599069 367.093783 
L 803.150906 365.860399 
L 803.271357 363.440175 
L 803.823194 362.253335 
L 803.943646 359.902925 
L 804.495483 358.739356 
L 804.615934 356.45876 
L 805.167771 355.318462 
L 805.288223 353.08441 
L 805.84006 351.990655 
L 805.960512 349.803144 
L 806.512349 348.732661 
L 806.6328 346.591693 
L 807.184637 345.544481 
L 807.305089 343.450057 
L 807.856926 342.426116 
L 807.977377 340.378234 
L 808.529214 339.377564 
L 808.649666 337.376225 
L 809.201503 336.375556 
L 809.321955 334.42076 
L 809.873791 333.443361 
L 809.994243 331.511837 
L 810.54608 330.55771 
L 810.666532 328.649456 
L 811.218369 327.718601 
L 811.33882 325.85689 
L 811.890657 324.926035 
L 812.011109 323.110867 
L 812.562946 322.203283 
L 812.683398 320.388115 
L 813.235234 319.503802 
L 813.355686 317.735177 
L 813.907523 316.850865 
L 814.027975 315.105511 
L 814.579812 314.24447 
L 814.700263 312.522387 
L 815.2521 311.661346 
L 815.372552 309.985806 
L 815.924389 309.148036 
L 816.04484 307.472497 
L 816.596677 306.634727 
L 816.717129 305.00573 
L 817.268966 304.191232 
L 817.389418 302.562235 
L 817.941255 301.747736 
L 818.061706 300.142011 
L 818.613543 299.350784 
L 818.733995 297.76833 
L 819.285832 296.977103 
L 819.406283 295.394649 
L 819.95812 294.626693 
L 820.078572 293.090781 
L 820.630409 292.322826 
L 820.750861 290.786914 
L 821.302697 290.018959 
L 821.423149 288.506319 
L 821.974986 287.761635 
L 822.095438 286.272266 
L 822.647275 285.527582 
L 822.767726 284.038213 
L 823.319563 283.293529 
L 823.440015 281.850703 
L 823.991852 281.12929 
L 824.112304 279.686464 
L 824.66414 278.965051 
L 824.784592 277.522226 
L 825.336429 276.800813 
L 825.456881 275.40453 
L 826.008718 274.706388 
L 826.129169 273.310105 
L 826.681006 272.611964 
L 826.801458 271.21568 
L 827.353295 270.517539 
L 827.473746 269.121256 
L 828.025583 268.446386 
L 828.146035 267.096646 
L 828.697872 266.421775 
L 828.818324 265.072035 
L 829.370161 264.397165 
L 829.490612 263.047425 
L 830.042449 262.372555 
L 830.162901 261.046086 
L 830.714738 260.394487 
L 830.835189 259.091289 
L 831.387026 258.439691 
L 831.507478 257.136493 
L 832.059315 256.484894 
L 832.179767 255.181697 
L 832.731603 254.530098 
L 832.852055 253.226901 
L 833.403892 252.598573 
L 833.524344 251.341919 
L 834.076181 250.713591 
L 834.196632 249.456936 
L 834.748469 248.828609 
L 834.868921 247.571954 
L 835.420758 246.943627 
L 835.54121 245.686972 
L 836.093046 245.058645 
L 836.213498 243.825261 
L 836.765335 243.220205 
L 836.885787 242.010094 
L 837.437624 241.405038 
L 837.558075 240.194926 
L 838.109912 239.58987 
L 838.230364 238.379758 
L 838.782201 237.774702 
L 838.902652 236.56459 
L 839.454489 235.959534 
L 839.574941 234.749422 
L 840.126778 234.167637 
L 840.24723 233.004068 
L 840.799066 232.422283 
L 840.919518 231.258714 
L 841.471355 230.676929 
L 841.591807 229.51336 
L 842.143644 228.931576 
L 842.264095 227.768006 
L 842.815932 227.186222 
L 842.936384 226.022653 
L 843.488221 225.440868 
L 843.608673 224.30057 
L 844.160509 223.742057 
L 844.280961 222.625031 
L 844.832798 222.066517 
L 844.95325 220.949491 
L 845.505087 220.390978 
L 845.625538 219.273951 
L 846.177375 218.715438 
L 846.297827 217.598412 
L 846.849664 217.039898 
L 846.970115 215.922872 
L 847.521952 215.364359 
L 847.642404 214.247332 
L 848.194241 213.688819 
L 848.314693 212.618335 
L 848.86653 212.083094 
L 848.986981 211.01261 
L 849.538818 210.477368 
L 849.65927 209.406884 
L 850.211107 208.871643 
L 850.331558 207.801159 
L 850.883395 207.265917 
L 851.003847 206.195433 
L 851.555684 205.660192 
L 851.676136 204.589708 
L 852.227972 204.054466 
L 852.348424 202.983982 
L 852.900261 202.448741 
L 853.020713 201.378257 
L 853.57255 200.866287 
L 853.693001 199.842346 
L 854.244838 199.330375 
L 854.36529 198.306434 
L 854.917127 197.794464 
L 855.037579 196.770523 
L 855.589415 196.258552 
L 855.709867 195.234612 
L 856.261704 194.722641 
L 856.382156 193.6987 
L 856.933993 193.18673 
L 857.054444 192.162789 
L 857.606281 191.650818 
L 857.726733 190.626878 
L 858.27857 190.114907 
L 858.399021 189.090966 
L 858.950858 188.578996 
L 859.07131 187.601598 
L 859.623147 187.112899 
L 859.743599 186.1355 
L 860.295436 185.646801 
L 860.415887 184.669403 
L 860.967724 184.180704 
L 861.088176 183.203306 
L 861.640013 182.714607 
L 861.760464 181.737209 
L 862.312301 181.24851 
L 862.432753 180.271112 
L 862.98459 179.782413 
L 863.105042 178.805014 
L 863.656878 178.316315 
L 863.77733 177.338917 
L 864.329167 176.850218 
L 864.449619 175.87282 
L 865.001456 175.384121 
L 865.121907 174.406723 
L 865.673744 173.918024 
L 865.794196 172.987168 
L 866.346033 172.521741 
L 866.466485 171.590885 
L 867.018321 171.125458 
L 867.138773 170.194602 
L 867.69061 169.729175 
L 867.811062 168.798319 
L 868.362899 168.332892 
L 868.48335 167.402036 
L 869.035187 166.936609 
L 869.155639 166.005753 
L 869.707476 165.540326 
L 869.827927 164.60947 
L 870.379764 164.144042 
L 870.500216 163.213187 
L 871.052053 162.747759 
L 871.172505 161.816904 
L 871.724341 161.351476 
L 871.844793 160.420621 
L 872.39663 159.955193 
L 872.517082 159.024338 
L 873.068919 158.55891 
L 873.18937 157.651326 
L 873.741207 157.20917 
L 873.861659 156.324857 
L 874.413496 155.882701 
L 874.533948 154.998389 
L 875.085784 154.556232 
L 875.206236 153.67192 
L 875.758073 153.229763 
L 875.878525 152.345451 
L 876.430362 151.903294 
L 876.550813 151.018982 
L 877.10265 150.576826 
L 877.223102 149.692513 
L 877.774939 149.250357 
L 877.89539 148.366044 
L 878.447227 147.923888 
L 878.567679 147.039575 
L 879.119516 146.597419 
L 879.239968 145.713106 
L 879.791805 145.27095 
L 879.912256 144.386637 
L 880.464093 143.944481 
L 880.584545 143.060169 
L 881.136382 142.618012 
L 881.256833 141.7337 
L 881.80867 141.291543 
L 881.929122 140.407231 
L 882.480959 139.988346 
L 882.601411 139.150576 
L 883.153247 138.731691 
L 883.273699 137.893921 
L 883.825536 137.475036 
L 883.945988 136.637267 
L 884.497825 136.218382 
L 884.618276 135.380612 
L 885.170113 134.961727 
L 885.290565 134.123957 
L 885.842402 133.705072 
L 885.962854 132.867302 
L 886.51469 132.448417 
L 886.635142 131.610648 
L 887.186979 131.191763 
L 887.307431 130.353993 
L 887.859268 129.935108 
L 887.979719 129.097338 
L 888.531556 128.678453 
L 888.652008 127.840683 
L 889.203845 127.421798 
L 889.324296 126.584029 
L 889.876133 126.165144 
L 889.996585 125.327374 
L 890.548422 124.908489 
L 890.668874 124.070719 
L 891.220711 123.651834 
L 891.341162 122.814064 
L 891.892999 122.395179 
L 892.013451 121.55741 
L 892.565288 121.138525 
L 892.685739 120.324026 
L 893.237576 119.928413 
L 893.358028 119.137186 
L 893.909865 118.741572 
L 894.030317 117.950345 
L 894.582153 117.554732 
L 894.702605 116.763505 
L 895.254442 116.367891 
L 895.374894 115.576664 
L 895.926731 115.18105 
L 896.047182 114.389823 
L 896.599019 113.99421 
L 896.719471 113.202983 
L 897.271308 112.807369 
L 897.39176 112.016142 
L 897.943596 111.620529 
L 898.064048 110.829302 
L 898.615885 110.433688 
L 898.736337 109.642461 
L 899.288174 109.246848 
L 899.408625 108.45562 
L 899.960462 108.060007 
L 900.080914 107.26878 
L 900.632751 106.873166 
L 900.753202 106.081939 
L 901.305039 105.686326 
L 901.425491 104.895099 
L 901.977328 104.499485 
L 902.09778 103.708258 
L 902.649617 103.312645 
L 902.770068 102.521418 
L 903.321905 102.125804 
L 903.442357 101.334577 
L 903.994194 100.938963 
L 904.114645 100.147736 
L 904.666482 99.752123 
L 904.786934 98.960896 
L 905.338771 98.588554 
L 905.459223 97.843869 
L 906.011059 97.471527 
L 906.131511 96.726843 
L 906.683348 96.354501 
L 906.8038 95.609816 
L 907.355637 95.237474 
L 907.476088 94.49279 
L 908.027925 94.120448 
L 908.148377 93.375764 
L 908.700214 93.003421 
L 908.820665 92.258737 
L 909.372502 91.886395 
L 909.492954 91.141711 
L 910.044791 90.769369 
L 910.165243 90.024684 
L 910.71708 89.652342 
L 910.837531 89.28 
L 911.042019 480.006538 
L 911.042019 467.533076 
L 912.266145 444.703849 
L 912.319367 441.469126 
L 912.733945 438.420575 
L 912.958042 432.835443 
L 913.406234 430.229048 
L 913.63033 425.342057 
L 914.078522 423.03819 
L 914.269004 418.639898 
L 914.750811 416.545474 
L 914.871263 412.519524 
L 915.4231 410.588 
L 915.543551 406.864578 
L 916.095388 405.04941 
L 916.21584 401.558703 
L 916.767677 399.859891 
L 916.888129 396.555355 
L 917.439965 394.949629 
L 917.560417 391.807993 
L 918.112254 390.272081 
L 918.232706 387.270073 
L 918.784543 385.803976 
L 918.904994 382.941595 
L 919.456831 381.522041 
L 919.577283 378.752746 
L 920.12912 377.403006 
L 920.249571 374.726797 
L 920.801408 373.423599 
L 920.92186 370.840476 
L 921.473697 369.583821 
L 921.594149 367.093783 
L 922.145986 365.860399 
L 922.266437 363.440175 
L 922.818274 362.253335 
L 922.938726 359.902925 
L 923.490563 358.739356 
L 923.611014 356.45876 
L 924.162851 355.318462 
L 924.283303 353.08441 
L 924.83514 351.990655 
L 924.955592 349.803144 
L 925.507428 348.732661 
L 925.62788 346.591693 
L 926.179717 345.544481 
L 926.300169 343.450057 
L 926.852006 342.426116 
L 926.972457 340.378234 
L 927.524294 339.377564 
L 927.644746 337.376225 
L 928.196583 336.375556 
L 928.317035 334.42076 
L 928.868871 333.443361 
L 928.989323 331.511837 
L 929.54116 330.55771 
L 929.661612 328.649456 
L 930.213449 327.718601 
L 930.3339 325.85689 
L 930.885737 324.926035 
L 931.006189 323.110867 
L 931.558026 322.203283 
L 931.678477 320.388115 
L 932.230314 319.503802 
L 932.350766 317.735177 
L 932.902603 316.850865 
L 933.023055 315.105511 
L 933.574892 314.24447 
L 933.695343 312.522387 
L 934.24718 311.661346 
L 934.367632 309.985806 
L 934.919469 309.148036 
L 935.03992 307.472497 
L 935.591757 306.634727 
L 935.712209 305.00573 
L 936.264046 304.191232 
L 936.384498 302.562235 
L 936.936334 301.747736 
L 937.056786 300.142011 
L 937.608623 299.350784 
L 937.729075 297.76833 
L 938.280912 296.977103 
L 938.401363 295.394649 
L 938.9532 294.626693 
L 939.073652 293.090781 
L 939.625489 292.322826 
L 939.745941 290.786914 
L 940.297777 290.018959 
L 940.418229 288.506319 
L 940.970066 287.761635 
L 941.090518 286.272266 
L 941.642355 285.527582 
L 941.762806 284.038213 
L 942.314643 283.293529 
L 942.435095 282.572116 
L 942.639583 480.006538 
L 942.639583 467.533076 
L 943.863708 444.703849 
L 943.916931 441.469126 
L 944.331509 438.420575 
L 944.555605 432.835443 
L 945.003797 430.229048 
L 945.227894 425.342057 
L 945.676086 423.03819 
L 945.866568 418.639898 
L 946.348375 416.545474 
L 946.468826 412.519524 
L 947.020663 410.588 
L 947.141115 406.864578 
L 947.692952 405.04941 
L 947.813404 401.558703 
L 948.36524 399.859891 
L 948.485692 396.555355 
L 949.037529 394.949629 
L 949.157981 391.807993 
L 949.709818 390.272081 
L 949.830269 387.270073 
L 950.382106 385.803976 
L 950.502558 382.941595 
L 951.054395 381.522041 
L 951.174846 378.752746 
L 951.726683 377.403006 
L 951.847135 374.726797 
L 952.398972 373.423599 
L 952.519424 370.840476 
L 953.071261 369.583821 
L 953.191712 367.093783 
L 953.743549 365.860399 
L 953.864001 363.440175 
L 954.415838 362.253335 
L 954.536289 359.902925 
L 955.088126 358.739356 
L 955.208578 356.45876 
L 955.760415 355.318462 
L 955.880867 353.08441 
L 956.432703 351.990655 
L 956.553155 349.803144 
L 957.104992 348.732661 
L 957.225444 346.591693 
L 957.777281 345.544481 
L 957.897732 343.450057 
L 958.449569 342.426116 
L 958.570021 340.378234 
L 959.121858 339.377564 
L 959.24231 337.376225 
L 959.794146 336.375556 
L 959.914598 334.42076 
L 960.466435 333.443361 
L 960.586887 331.511837 
L 961.138724 330.55771 
L 961.259175 328.649456 
L 961.811012 327.718601 
L 961.931464 325.85689 
L 962.483301 324.926035 
L 962.603752 323.110867 
L 963.155589 322.203283 
L 963.276041 320.388115 
L 963.827878 319.503802 
L 963.94833 317.735177 
L 964.500167 316.850865 
L 964.620618 315.105511 
L 965.172455 314.24447 
L 965.292907 312.522387 
L 965.844744 311.661346 
L 965.965195 309.985806 
L 966.517032 309.148036 
L 966.637484 307.472497 
L 967.189321 306.634727 
L 967.309773 305.00573 
L 967.861609 304.191232 
L 967.982061 302.562235 
L 968.533898 301.747736 
L 968.65435 300.142011 
L 969.206187 299.350784 
L 969.326638 297.76833 
L 969.878475 296.977103 
L 969.998927 295.394649 
L 970.550764 294.626693 
L 970.671216 293.090781 
L 971.223052 292.322826 
L 971.343504 290.786914 
L 971.895341 290.018959 
L 972.015793 288.506319 
L 972.56763 287.761635 
L 972.688081 286.272266 
L 973.239918 285.527582 
L 973.36037 284.038213 
L 973.912207 283.293529 
L 974.032658 281.850703 
L 974.584495 281.12929 
L 974.704947 279.686464 
L 975.256784 278.965051 
L 975.377236 277.522226 
L 975.929072 276.800813 
L 976.049524 275.40453 
L 976.601361 274.706388 
L 976.721813 273.310105 
L 977.27365 272.611964 
L 977.394101 271.21568 
L 977.945938 270.517539 
L 978.06639 269.121256 
L 978.618227 268.446386 
L 978.738679 267.096646 
L 979.290515 266.421775 
L 979.410967 265.072035 
L 979.962804 264.397165 
L 980.083256 263.047425 
L 980.635093 262.372555 
L 980.755544 261.046086 
L 981.371809 260.394487 
L 981.427833 467.533076 
L 981.576297 472.559695 
L 981.576297 467.533076 
L 982.214971 456.316269 
L 982.909669 441.469126 
L 983.324247 438.420575 
L 983.548343 432.835443 
L 983.996536 430.229048 
L 984.220632 425.342057 
L 984.668824 423.03819 
L 984.859306 418.639898 
L 985.341113 416.545474 
L 985.461564 412.519524 
L 986.013401 410.588 
L 986.133853 408.703017 
L 986.338341 480.006538 
L 986.338341 467.533076 
L 987.562466 444.703849 
L 987.615689 441.469126 
L 988.030267 438.420575 
L 988.254363 432.835443 
L 988.702556 430.229048 
L 988.926652 425.342057 
L 989.374844 423.03819 
L 989.565326 418.639898 
L 990.047133 416.545474 
L 990.167585 412.519524 
L 990.719421 410.588 
L 990.839873 406.864578 
L 991.39171 405.04941 
L 991.512162 401.558703 
L 992.063999 399.859891 
L 992.18445 396.555355 
L 992.736287 394.949629 
L 992.856739 391.807993 
L 993.408576 390.272081 
L 993.529027 387.270073 
L 994.080864 385.803976 
L 994.201316 382.941595 
L 994.753153 381.522041 
L 994.873605 378.752746 
L 995.425442 377.403006 
L 995.545893 374.726797 
L 996.09773 373.423599 
L 996.218182 370.840476 
L 996.218182 370.840476 
" clip-path="url(#p5e782a05e3)" style="fill: none; stroke: #1f77b4; stroke-width: 1.5; stroke-linecap: square"/>
   </g>
   <g id="patch_3">
    <path d="M 144 512.64 
L 144 69.12 
" style="fill: none; stroke: #000000; stroke-width: 0.8; stroke-linejoin: miter; stroke-linecap: square"/>
   </g>
   <g id="patch_4">
    <path d="M 1036.8 512.64 
L 1036.8 69.12 
" style="fill: none; stroke: #000000; stroke-width: 0.8; stroke-linejoin: miter; stroke-linecap: square"/>
   </g>
   <g id="patch_5">
    <path d="M 144 512.64 
L 1036.8 512.64 
" style="fill: none; stroke: #000000; stroke-width: 0.8; stroke-linejoin: miter; stroke-linecap: square"/>
   </g>
   <g id="patch_6">
    <path d="M 144 69.12 
L 1036.8 69.12 
" style="fill: none; stroke: #000000; stroke-width: 0.8; stroke-linejoin: miter; stroke-linecap: square"/>
   </g>
   <g id="text_18">
    <!-- Graph of congestion window vs Time result/channelbw4 -->
    <g transform="translate(408.498516 63.12) scale(0.13 -0.13)">
     <defs>
      <path id="DejaVuSans-47" d="M 3809 666 
L 3809 1919 
L 2778 1919 
L 2778 2438 
L 4434 2438 
L 4434 434 
Q 4069 175 3628 42 
Q 3188 -91 2688 -91 
Q 1594 -91 976 548 
Q 359 1188 359 2328 
Q 359 3472 976 4111 
Q 1594 4750 2688 4750 
Q 3144 4750 3555 4637 
Q 3966 4525 4313 4306 
L 4313 3634 
Q 3963 3931 3569 4081 
Q 3175 4231 2741 4231 
Q 1884 4231 1454 3753 
Q 1025 3275 1025 2328 
Q 1025 1384 1454 906 
Q 1884 428 2741 428 
Q 3075 428 3337 486 
Q 3600 544 3809 666 
z
" transform="scale(0.015625)"/>
      <path id="DejaVuSans-72" d="M 2631 2963 
Q 2534 3019 2420 3045 
Q 2306 3072 2169 3072 
Q 1681 3072 1420 2755 
Q 1159 2438 1159 1844 
L 1159 0 
L 581 0 
L 581 3500 
L 1159 3500 
L 1159 2956 
Q 1341 3275 1631 3429 
Q 1922 3584 2338 3584 
Q 2397 3584 2469 3576 
Q 2541 3569 2628 3553 
L 2631 2963 
z
" transform="scale(0.015625)"/>
      <path id="DejaVuSans-61" d="M 2194 1759 
Q 1497 1759 1228 1600 
Q 959 1441 959 1056 
Q 959 750 1161 570 
Q 1363 391 1709 391 
Q 2188 391 2477 730 
Q 2766 1069 2766 1631 
L 2766 1759 
L 2194 1759 
z
M 3341 1997 
L 3341 0 
L 2766 0 
L 2766 531 
Q 2569 213 2275 61 
Q 1981 -91 1556 -91 
Q 1019 -91 701 211 
Q 384 513 384 1019 
Q 384 1609 779 1909 
Q 1175 2209 1959 2209 
L 2766 2209 
L 2766 2266 
Q 2766 2663 2505 2880 
Q 2244 3097 1772 3097 
Q 1472 3097 1187 3025 
Q 903 2953 641 2809 
L 641 3341 
Q 956 3463 1253 3523 
Q 1550 3584 1831 3584 
Q 2591 3584 2966 3190 
Q 3341 2797 3341 1997 
z
" transform="scale(0.015625)"/>
      <path id="DejaVuSans-70" d="M 1159 525 
L 1159 -1331 
L 581 -1331 
L 581 3500 
L 1159 3500 
L 1159 2969 
Q 1341 3281 1617 3432 
Q 1894 3584 2278 3584 
Q 2916 3584 3314 3078 
Q 3713 2572 3713 1747 
Q 3713 922 3314 415 
Q 2916 -91 2278 -91 
Q 1894 -91 1617 61 
Q 1341 213 1159 525 
z
M 3116 1747 
Q 3116 2381 2855 2742 
Q 2594 3103 2138 3103 
Q 1681 3103 1420 2742 
Q 1159 2381 1159 1747 
Q 1159 1113 1420 752 
Q 1681 391 2138 391 
Q 2594 391 2855 752 
Q 3116 1113 3116 1747 
z
" transform="scale(0.015625)"/>
      <path id="DejaVuSans-68" d="M 3513 2113 
L 3513 0 
L 2938 0 
L 2938 2094 
Q 2938 2591 2744 2837 
Q 2550 3084 2163 3084 
Q 1697 3084 1428 2787 
Q 1159 2491 1159 1978 
L 1159 0 
L 581 0 
L 581 4863 
L 1159 4863 
L 1159 2956 
Q 1366 3272 1645 3428 
Q 1925 3584 2291 3584 
Q 2894 3584 3203 3211 
Q 3513 2838 3513 2113 
z
" transform="scale(0.015625)"/>
      <path id="DejaVuSans-66" d="M 2375 4863 
L 2375 4384 
L 1825 4384 
Q 1516 4384 1395 4259 
Q 1275 4134 1275 3809 
L 1275 3500 
L 2222 3500 
L 2222 3053 
L 1275 3053 
L 1275 0 
L 697 0 
L 697 3053 
L 147 3053 
L 147 3500 
L 697 3500 
L 697 3744 
Q 697 4328 969 4595 
Q 1241 4863 1831 4863 
L 2375 4863 
z
" transform="scale(0.015625)"/>
      <path id="DejaVuSans-76" d="M 191 3500 
L 800 3500 
L 1894 563 
L 2988 3500 
L 3597 3500 
L 2284 0 
L 1503 0 
L 191 3500 
z
" transform="scale(0.015625)"/>
      <path id="DejaVuSans-75" d="M 544 1381 
L 544 3500 
L 1119 3500 
L 1119 1403 
Q 1119 906 1312 657 
Q 1506 409 1894 409 
Q 2359 409 2629 706 
Q 2900 1003 2900 1516 
L 2900 3500 
L 3475 3500 
L 3475 0 
L 2900 0 
L 2900 538 
Q 2691 219 2414 64 
Q 2138 -91 1772 -91 
Q 1169 -91 856 284 
Q 544 659 544 1381 
z
M 1991 3584 
L 1991 3584 
z
" transform="scale(0.015625)"/>
      <path id="DejaVuSans-6c" d="M 603 4863 
L 1178 4863 
L 1178 0 
L 603 0 
L 603 4863 
z
" transform="scale(0.015625)"/>
      <path id="DejaVuSans-2f" d="M 1625 4666 
L 2156 4666 
L 531 -594 
L 0 -594 
L 1625 4666 
z
" transform="scale(0.015625)"/>
      <path id="DejaVuSans-62" d="M 3116 1747 
Q 3116 2381 2855 2742 
Q 2594 3103 2138 3103 
Q 1681 3103 1420 2742 
Q 1159 2381 1159 1747 
Q 1159 1113 1420 752 
Q 1681 391 2138 391 
Q 2594 391 2855 752 
Q 3116 1113 3116 1747 
z
M 1159 2969 
Q 1341 3281 1617 3432 
Q 1894 3584 2278 3584 
Q 2916 3584 3314 3078 
Q 3713 2572 3713 1747 
Q 3713 922 3314 415 
Q 2916 -91 2278 -91 
Q 1894 -91 1617 61 
Q 1341 213 1159 525 
L 1159 0 
L 581 0 
L 581 4863 
L 1159 4863 
L 1159 2969 
z
" transform="scale(0.015625)"/>
      <path id="DejaVuSans-34" d="M 2419 4116 
L 825 1625 
L 2419 1625 
L 2419 4116 
z
M 2253 4666 
L 3047 4666 
L 3047 1625 
L 3713 1625 
L 3713 1100 
L 3047 1100 
L 3047 0 
L 2419 0 
L 2419 1100 
L 313 1100 
L 313 1709 
L 2253 4666 
z
" transform="scale(0.015625)"/>
     </defs>
     <use xlink:href="#DejaVuSans-47"/>
     <use xlink:href="#DejaVuSans-72" x="77.490234"/>
     <use xlink:href="#DejaVuSans-61" x="118.603516"/>
     <use xlink:href="#DejaVuSans-70" x="179.882812"/>
     <use xlink:href="#DejaVuSans-68" x="243.359375"/>
     <use xlink:href="#DejaVuSans-20" x="306.738281"/>
     <use xlink:href="#DejaVuSans-6f" x="338.525391"/>
     <use xlink:href="#DejaVuSans-66" x="399.707031"/>
     <use xlink:href="#DejaVuSans-20" x="434.912109"/>
     <use xlink:href="#DejaVuSans-63" x="466.699219"/>
     <use xlink:href="#DejaVuSans-6f" x="521.679688"/>
     <use xlink:href="#DejaVuSans-6e" x="582.861328"/>
     <use xlink:href="#DejaVuSans-67" x="646.240234"/>
     <use xlink:href="#DejaVuSans-65" x="709.716797"/>
     <use xlink:href="#DejaVuSans-73" x="771.240234"/>
     <use xlink:href="#DejaVuSans-74" x="823.339844"/>
     <use xlink:href="#DejaVuSans-69" x="862.548828"/>
     <use xlink:href="#DejaVuSans-6f" x="890.332031"/>
     <use xlink:href="#DejaVuSans-6e" x="951.513672"/>
     <use xlink:href="#DejaVuSans-20" x="1014.892578"/>
     <use xlink:href="#DejaVuSans-77" x="1046.679688"/>
     <use xlink:href="#DejaVuSans-69" x="1128.466797"/>
     <use xlink:href="#DejaVuSans-6e" x="1156.25"/>
     <use xlink:href="#DejaVuSans-64" x="1219.628906"/>
     <use xlink:href="#DejaVuSans-6f" x="1283.105469"/>
     <use xlink:href="#DejaVuSans-77" x="1344.287109"/>
     <use xlink:href="#DejaVuSans-20" x="1426.074219"/>
     <use xlink:href="#DejaVuSans-76" x="1457.861328"/>
     <use xlink:href="#DejaVuSans-73" x="1517.041016"/>
     <use xlink:href="#DejaVuSans-20" x="1569.140625"/>
     <use xlink:href="#DejaVuSans-54" x="1600.927734"/>
     <use xlink:href="#DejaVuSans-69" x="1658.886719"/>
     <use xlink:href="#DejaVuSans-6d" x="1686.669922"/>
     <use xlink:href="#DejaVuSans-65" x="1784.082031"/>
     <use xlink:href="#DejaVuSans-20" x="1845.605469"/>
     <use xlink:href="#DejaVuSans-72" x="1877.392578"/>
     <use xlink:href="#DejaVuSans-65" x="1916.255859"/>
     <use xlink:href="#DejaVuSans-73" x="1977.779297"/>
     <use xlink:href="#DejaVuSans-75" x="2029.878906"/>
     <use xlink:href="#DejaVuSans-6c" x="2093.257812"/>
     <use xlink:href="#DejaVuSans-74" x="2121.041016"/>
     <use xlink:href="#DejaVuSans-2f" x="2160.25"/>
     <use xlink:href="#DejaVuSans-63" x="2193.941406"/>
     <use xlink:href="#DejaVuSans-68" x="2248.921875"/>
     <use xlink:href="#DejaVuSans-61" x="2312.300781"/>
     <use xlink:href="#DejaVuSans-6e" x="2373.580078"/>
     <use xlink:href="#DejaVuSans-6e" x="2436.958984"/>
     <use xlink:href="#DejaVuSans-65" x="2500.337891"/>
     <use xlink:href="#DejaVuSans-6c" x="2561.861328"/>
     <use xlink:href="#DejaVuSans-62" x="2589.644531"/>
     <use xlink:href="#DejaVuSans-77" x="2653.121094"/>
     <use xlink:href="#DejaVuSans-34" x="2734.908203"/>
    </g>
   </g>
  </g>
 </g>
 <defs>
  <clipPath id="p5e782a05e3">
   <rect x="144" y="69.12" width="892.8" height="443.52"/>
  </clipPath>
 </defs>
</svg>
