<?xml version="1.0" encoding="utf-8" standalone="no"?>
<!DOCTYPE svg PUBLIC "-//W3C//DTD SVG 1.1//EN"
  "http://www.w3.org/Graphics/SVG/1.1/DTD/svg11.dtd">
<svg xmlns:xlink="http://www.w3.org/1999/xlink" width="1152pt" height="576pt" viewBox="0 0 1152 576" xmlns="http://www.w3.org/2000/svg" version="1.1">
 <metadata>
  <rdf:RDF xmlns:dc="http://purl.org/dc/elements/1.1/" xmlns:cc="http://creativecommons.org/ns#" xmlns:rdf="http://www.w3.org/1999/02/22-rdf-syntax-ns#">
   <cc:Work>
    <dc:type rdf:resource="http://purl.org/dc/dcmitype/StillImage"/>
    <dc:date>2023-01-05T15:16:21.430613</dc:date>
    <dc:format>image/svg+xml</dc:format>
    <dc:creator>
     <cc:Agent>
      <dc:title>Matplotlib v3.6.2, https://matplotlib.org/</dc:title>
     </cc:Agent>
    </dc:creator>
   </cc:Work>
  </rdf:RDF>
 </metadata>
 <defs>
  <style type="text/css">*{stroke-linejoin: round; stroke-linecap: butt}</style>
 </defs>
 <g id="figure_1">
  <g id="patch_1">
   <path d="M 0 576 
L 1152 576 
L 1152 0 
L 0 0 
z
" style="fill: #ffffff"/>
  </g>
  <g id="axes_1">
   <g id="patch_2">
    <path d="M 144 512.64 
L 1036.8 512.64 
L 1036.8 69.12 
L 144 69.12 
z
" style="fill: #ffffff"/>
   </g>
   <g id="matplotlib.axis_1">
    <g id="xtick_1">
     <g id="line2d_1">
      <defs>
       <path id="mba66497acd" d="M 0 0 
L 0 3.5 
" style="stroke: #000000; stroke-width: 0.8"/>
      </defs>
      <g>
       <use xlink:href="#mba66497acd" x="156.41857" y="512.64" style="stroke: #000000; stroke-width: 0.8"/>
      </g>
     </g>
     <g id="text_1">
      <!-- 0 -->
      <g transform="translate(153.23732 527.238438) scale(0.1 -0.1)">
       <defs>
        <path id="DejaVuSans-30" d="M 2034 4250 
Q 1547 4250 1301 3770 
Q 1056 3291 1056 2328 
Q 1056 1369 1301 889 
Q 1547 409 2034 409 
Q 2525 409 2770 889 
Q 3016 1369 3016 2328 
Q 3016 3291 2770 3770 
Q 2525 4250 2034 4250 
z
M 2034 4750 
Q 2819 4750 3233 4129 
Q 3647 3509 3647 2328 
Q 3647 1150 3233 529 
Q 2819 -91 2034 -91 
Q 1250 -91 836 529 
Q 422 1150 422 2328 
Q 422 3509 836 4129 
Q 1250 4750 2034 4750 
z
" transform="scale(0.015625)"/>
       </defs>
       <use xlink:href="#DejaVuSans-30"/>
      </g>
     </g>
    </g>
    <g id="xtick_2">
     <g id="line2d_2">
      <g>
       <use xlink:href="#mba66497acd" x="296.392171" y="512.64" style="stroke: #000000; stroke-width: 0.8"/>
      </g>
     </g>
     <g id="text_2">
      <!-- 5 -->
      <g transform="translate(293.210921 527.238438) scale(0.1 -0.1)">
       <defs>
        <path id="DejaVuSans-35" d="M 691 4666 
L 3169 4666 
L 3169 4134 
L 1269 4134 
L 1269 2991 
Q 1406 3038 1543 3061 
Q 1681 3084 1819 3084 
Q 2600 3084 3056 2656 
Q 3513 2228 3513 1497 
Q 3513 744 3044 326 
Q 2575 -91 1722 -91 
Q 1428 -91 1123 -41 
Q 819 9 494 109 
L 494 744 
Q 775 591 1075 516 
Q 1375 441 1709 441 
Q 2250 441 2565 725 
Q 2881 1009 2881 1497 
Q 2881 1984 2565 2268 
Q 2250 2553 1709 2553 
Q 1456 2553 1204 2497 
Q 953 2441 691 2322 
L 691 4666 
z
" transform="scale(0.015625)"/>
       </defs>
       <use xlink:href="#DejaVuSans-35"/>
      </g>
     </g>
    </g>
    <g id="xtick_3">
     <g id="line2d_3">
      <g>
       <use xlink:href="#mba66497acd" x="436.365771" y="512.64" style="stroke: #000000; stroke-width: 0.8"/>
      </g>
     </g>
     <g id="text_3">
      <!-- 10 -->
      <g transform="translate(430.003271 527.238438) scale(0.1 -0.1)">
       <defs>
        <path id="DejaVuSans-31" d="M 794 531 
L 1825 531 
L 1825 4091 
L 703 3866 
L 703 4441 
L 1819 4666 
L 2450 4666 
L 2450 531 
L 3481 531 
L 3481 0 
L 794 0 
L 794 531 
z
" transform="scale(0.015625)"/>
       </defs>
       <use xlink:href="#DejaVuSans-31"/>
       <use xlink:href="#DejaVuSans-30" x="63.623047"/>
      </g>
     </g>
    </g>
    <g id="xtick_4">
     <g id="line2d_4">
      <g>
       <use xlink:href="#mba66497acd" x="576.339372" y="512.64" style="stroke: #000000; stroke-width: 0.8"/>
      </g>
     </g>
     <g id="text_4">
      <!-- 15 -->
      <g transform="translate(569.976872 527.238438) scale(0.1 -0.1)">
       <use xlink:href="#DejaVuSans-31"/>
       <use xlink:href="#DejaVuSans-35" x="63.623047"/>
      </g>
     </g>
    </g>
    <g id="xtick_5">
     <g id="line2d_5">
      <g>
       <use xlink:href="#mba66497acd" x="716.312973" y="512.64" style="stroke: #000000; stroke-width: 0.8"/>
      </g>
     </g>
     <g id="text_5">
      <!-- 20 -->
      <g transform="translate(709.950473 527.238438) scale(0.1 -0.1)">
       <defs>
        <path id="DejaVuSans-32" d="M 1228 531 
L 3431 531 
L 3431 0 
L 469 0 
L 469 531 
Q 828 903 1448 1529 
Q 2069 2156 2228 2338 
Q 2531 2678 2651 2914 
Q 2772 3150 2772 3378 
Q 2772 3750 2511 3984 
Q 2250 4219 1831 4219 
Q 1534 4219 1204 4116 
Q 875 4013 500 3803 
L 500 4441 
Q 881 4594 1212 4672 
Q 1544 4750 1819 4750 
Q 2544 4750 2975 4387 
Q 3406 4025 3406 3419 
Q 3406 3131 3298 2873 
Q 3191 2616 2906 2266 
Q 2828 2175 2409 1742 
Q 1991 1309 1228 531 
z
" transform="scale(0.015625)"/>
       </defs>
       <use xlink:href="#DejaVuSans-32"/>
       <use xlink:href="#DejaVuSans-30" x="63.623047"/>
      </g>
     </g>
    </g>
    <g id="xtick_6">
     <g id="line2d_6">
      <g>
       <use xlink:href="#mba66497acd" x="856.286573" y="512.64" style="stroke: #000000; stroke-width: 0.8"/>
      </g>
     </g>
     <g id="text_6">
      <!-- 25 -->
      <g transform="translate(849.924073 527.238438) scale(0.1 -0.1)">
       <use xlink:href="#DejaVuSans-32"/>
       <use xlink:href="#DejaVuSans-35" x="63.623047"/>
      </g>
     </g>
    </g>
    <g id="xtick_7">
     <g id="line2d_7">
      <g>
       <use xlink:href="#mba66497acd" x="996.260174" y="512.64" style="stroke: #000000; stroke-width: 0.8"/>
      </g>
     </g>
     <g id="text_7">
      <!-- 30 -->
      <g transform="translate(989.897674 527.238438) scale(0.1 -0.1)">
       <defs>
        <path id="DejaVuSans-33" d="M 2597 2516 
Q 3050 2419 3304 2112 
Q 3559 1806 3559 1356 
Q 3559 666 3084 287 
Q 2609 -91 1734 -91 
Q 1441 -91 1130 -33 
Q 819 25 488 141 
L 488 750 
Q 750 597 1062 519 
Q 1375 441 1716 441 
Q 2309 441 2620 675 
Q 2931 909 2931 1356 
Q 2931 1769 2642 2001 
Q 2353 2234 1838 2234 
L 1294 2234 
L 1294 2753 
L 1863 2753 
Q 2328 2753 2575 2939 
Q 2822 3125 2822 3475 
Q 2822 3834 2567 4026 
Q 2313 4219 1838 4219 
Q 1578 4219 1281 4162 
Q 984 4106 628 3988 
L 628 4550 
Q 988 4650 1302 4700 
Q 1616 4750 1894 4750 
Q 2613 4750 3031 4423 
Q 3450 4097 3450 3541 
Q 3450 3153 3228 2886 
Q 3006 2619 2597 2516 
z
" transform="scale(0.015625)"/>
       </defs>
       <use xlink:href="#DejaVuSans-33"/>
       <use xlink:href="#DejaVuSans-30" x="63.623047"/>
      </g>
     </g>
    </g>
    <g id="text_8">
     <!-- Time in seconds -->
     <g transform="translate(537.870859 543.196094) scale(0.13 -0.13)">
      <defs>
       <path id="DejaVuSans-54" d="M -19 4666 
L 3928 4666 
L 3928 4134 
L 2272 4134 
L 2272 0 
L 1638 0 
L 1638 4134 
L -19 4134 
L -19 4666 
z
" transform="scale(0.015625)"/>
       <path id="DejaVuSans-69" d="M 603 3500 
L 1178 3500 
L 1178 0 
L 603 0 
L 603 3500 
z
M 603 4863 
L 1178 4863 
L 1178 4134 
L 603 4134 
L 603 4863 
z
" transform="scale(0.015625)"/>
       <path id="DejaVuSans-6d" d="M 3328 2828 
Q 3544 3216 3844 3400 
Q 4144 3584 4550 3584 
Q 5097 3584 5394 3201 
Q 5691 2819 5691 2113 
L 5691 0 
L 5113 0 
L 5113 2094 
Q 5113 2597 4934 2840 
Q 4756 3084 4391 3084 
Q 3944 3084 3684 2787 
Q 3425 2491 3425 1978 
L 3425 0 
L 2847 0 
L 2847 2094 
Q 2847 2600 2669 2842 
Q 2491 3084 2119 3084 
Q 1678 3084 1418 2786 
Q 1159 2488 1159 1978 
L 1159 0 
L 581 0 
L 581 3500 
L 1159 3500 
L 1159 2956 
Q 1356 3278 1631 3431 
Q 1906 3584 2284 3584 
Q 2666 3584 2933 3390 
Q 3200 3197 3328 2828 
z
" transform="scale(0.015625)"/>
       <path id="DejaVuSans-65" d="M 3597 1894 
L 3597 1613 
L 953 1613 
Q 991 1019 1311 708 
Q 1631 397 2203 397 
Q 2534 397 2845 478 
Q 3156 559 3463 722 
L 3463 178 
Q 3153 47 2828 -22 
Q 2503 -91 2169 -91 
Q 1331 -91 842 396 
Q 353 884 353 1716 
Q 353 2575 817 3079 
Q 1281 3584 2069 3584 
Q 2775 3584 3186 3129 
Q 3597 2675 3597 1894 
z
M 3022 2063 
Q 3016 2534 2758 2815 
Q 2500 3097 2075 3097 
Q 1594 3097 1305 2825 
Q 1016 2553 972 2059 
L 3022 2063 
z
" transform="scale(0.015625)"/>
       <path id="DejaVuSans-20" transform="scale(0.015625)"/>
       <path id="DejaVuSans-6e" d="M 3513 2113 
L 3513 0 
L 2938 0 
L 2938 2094 
Q 2938 2591 2744 2837 
Q 2550 3084 2163 3084 
Q 1697 3084 1428 2787 
Q 1159 2491 1159 1978 
L 1159 0 
L 581 0 
L 581 3500 
L 1159 3500 
L 1159 2956 
Q 1366 3272 1645 3428 
Q 1925 3584 2291 3584 
Q 2894 3584 3203 3211 
Q 3513 2838 3513 2113 
z
" transform="scale(0.015625)"/>
       <path id="DejaVuSans-73" d="M 2834 3397 
L 2834 2853 
Q 2591 2978 2328 3040 
Q 2066 3103 1784 3103 
Q 1356 3103 1142 2972 
Q 928 2841 928 2578 
Q 928 2378 1081 2264 
Q 1234 2150 1697 2047 
L 1894 2003 
Q 2506 1872 2764 1633 
Q 3022 1394 3022 966 
Q 3022 478 2636 193 
Q 2250 -91 1575 -91 
Q 1294 -91 989 -36 
Q 684 19 347 128 
L 347 722 
Q 666 556 975 473 
Q 1284 391 1588 391 
Q 1994 391 2212 530 
Q 2431 669 2431 922 
Q 2431 1156 2273 1281 
Q 2116 1406 1581 1522 
L 1381 1569 
Q 847 1681 609 1914 
Q 372 2147 372 2553 
Q 372 3047 722 3315 
Q 1072 3584 1716 3584 
Q 2034 3584 2315 3537 
Q 2597 3491 2834 3397 
z
" transform="scale(0.015625)"/>
       <path id="DejaVuSans-63" d="M 3122 3366 
L 3122 2828 
Q 2878 2963 2633 3030 
Q 2388 3097 2138 3097 
Q 1578 3097 1268 2742 
Q 959 2388 959 1747 
Q 959 1106 1268 751 
Q 1578 397 2138 397 
Q 2388 397 2633 464 
Q 2878 531 3122 666 
L 3122 134 
Q 2881 22 2623 -34 
Q 2366 -91 2075 -91 
Q 1284 -91 818 406 
Q 353 903 353 1747 
Q 353 2603 823 3093 
Q 1294 3584 2113 3584 
Q 2378 3584 2631 3529 
Q 2884 3475 3122 3366 
z
" transform="scale(0.015625)"/>
       <path id="DejaVuSans-6f" d="M 1959 3097 
Q 1497 3097 1228 2736 
Q 959 2375 959 1747 
Q 959 1119 1226 758 
Q 1494 397 1959 397 
Q 2419 397 2687 759 
Q 2956 1122 2956 1747 
Q 2956 2369 2687 2733 
Q 2419 3097 1959 3097 
z
M 1959 3584 
Q 2709 3584 3137 3096 
Q 3566 2609 3566 1747 
Q 3566 888 3137 398 
Q 2709 -91 1959 -91 
Q 1206 -91 779 398 
Q 353 888 353 1747 
Q 353 2609 779 3096 
Q 1206 3584 1959 3584 
z
" transform="scale(0.015625)"/>
       <path id="DejaVuSans-64" d="M 2906 2969 
L 2906 4863 
L 3481 4863 
L 3481 0 
L 2906 0 
L 2906 525 
Q 2725 213 2448 61 
Q 2172 -91 1784 -91 
Q 1150 -91 751 415 
Q 353 922 353 1747 
Q 353 2572 751 3078 
Q 1150 3584 1784 3584 
Q 2172 3584 2448 3432 
Q 2725 3281 2906 2969 
z
M 947 1747 
Q 947 1113 1208 752 
Q 1469 391 1925 391 
Q 2381 391 2643 752 
Q 2906 1113 2906 1747 
Q 2906 2381 2643 2742 
Q 2381 3103 1925 3103 
Q 1469 3103 1208 2742 
Q 947 2381 947 1747 
z
" transform="scale(0.015625)"/>
      </defs>
      <use xlink:href="#DejaVuSans-54"/>
      <use xlink:href="#DejaVuSans-69" x="57.958984"/>
      <use xlink:href="#DejaVuSans-6d" x="85.742188"/>
      <use xlink:href="#DejaVuSans-65" x="183.154297"/>
      <use xlink:href="#DejaVuSans-20" x="244.677734"/>
      <use xlink:href="#DejaVuSans-69" x="276.464844"/>
      <use xlink:href="#DejaVuSans-6e" x="304.248047"/>
      <use xlink:href="#DejaVuSans-20" x="367.626953"/>
      <use xlink:href="#DejaVuSans-73" x="399.414062"/>
      <use xlink:href="#DejaVuSans-65" x="451.513672"/>
      <use xlink:href="#DejaVuSans-63" x="513.037109"/>
      <use xlink:href="#DejaVuSans-6f" x="568.017578"/>
      <use xlink:href="#DejaVuSans-6e" x="629.199219"/>
      <use xlink:href="#DejaVuSans-64" x="692.578125"/>
      <use xlink:href="#DejaVuSans-73" x="756.054688"/>
     </g>
    </g>
   </g>
   <g id="matplotlib.axis_2">
    <g id="ytick_1">
     <g id="line2d_8">
      <defs>
       <path id="md885485c51" d="M 0 0 
L -3.5 0 
" style="stroke: #000000; stroke-width: 0.8"/>
      </defs>
      <g>
       <use xlink:href="#md885485c51" x="144" y="492.48" style="stroke: #000000; stroke-width: 0.8"/>
      </g>
     </g>
     <g id="text_9">
      <!-- 0 -->
      <g transform="translate(130.6375 496.279219) scale(0.1 -0.1)">
       <use xlink:href="#DejaVuSans-30"/>
      </g>
     </g>
    </g>
    <g id="ytick_2">
     <g id="line2d_9">
      <g>
       <use xlink:href="#md885485c51" x="144" y="440.477678" style="stroke: #000000; stroke-width: 0.8"/>
      </g>
     </g>
     <g id="text_10">
      <!-- 2000 -->
      <g transform="translate(111.55 444.276897) scale(0.1 -0.1)">
       <use xlink:href="#DejaVuSans-32"/>
       <use xlink:href="#DejaVuSans-30" x="63.623047"/>
       <use xlink:href="#DejaVuSans-30" x="127.246094"/>
       <use xlink:href="#DejaVuSans-30" x="190.869141"/>
      </g>
     </g>
    </g>
    <g id="ytick_3">
     <g id="line2d_10">
      <g>
       <use xlink:href="#md885485c51" x="144" y="388.475357" style="stroke: #000000; stroke-width: 0.8"/>
      </g>
     </g>
     <g id="text_11">
      <!-- 4000 -->
      <g transform="translate(111.55 392.274576) scale(0.1 -0.1)">
       <defs>
        <path id="DejaVuSans-34" d="M 2419 4116 
L 825 1625 
L 2419 1625 
L 2419 4116 
z
M 2253 4666 
L 3047 4666 
L 3047 1625 
L 3713 1625 
L 3713 1100 
L 3047 1100 
L 3047 0 
L 2419 0 
L 2419 1100 
L 313 1100 
L 313 1709 
L 2253 4666 
z
" transform="scale(0.015625)"/>
       </defs>
       <use xlink:href="#DejaVuSans-34"/>
       <use xlink:href="#DejaVuSans-30" x="63.623047"/>
       <use xlink:href="#DejaVuSans-30" x="127.246094"/>
       <use xlink:href="#DejaVuSans-30" x="190.869141"/>
      </g>
     </g>
    </g>
    <g id="ytick_4">
     <g id="line2d_11">
      <g>
       <use xlink:href="#md885485c51" x="144" y="336.473035" style="stroke: #000000; stroke-width: 0.8"/>
      </g>
     </g>
     <g id="text_12">
      <!-- 6000 -->
      <g transform="translate(111.55 340.272254) scale(0.1 -0.1)">
       <defs>
        <path id="DejaVuSans-36" d="M 2113 2584 
Q 1688 2584 1439 2293 
Q 1191 2003 1191 1497 
Q 1191 994 1439 701 
Q 1688 409 2113 409 
Q 2538 409 2786 701 
Q 3034 994 3034 1497 
Q 3034 2003 2786 2293 
Q 2538 2584 2113 2584 
z
M 3366 4563 
L 3366 3988 
Q 3128 4100 2886 4159 
Q 2644 4219 2406 4219 
Q 1781 4219 1451 3797 
Q 1122 3375 1075 2522 
Q 1259 2794 1537 2939 
Q 1816 3084 2150 3084 
Q 2853 3084 3261 2657 
Q 3669 2231 3669 1497 
Q 3669 778 3244 343 
Q 2819 -91 2113 -91 
Q 1303 -91 875 529 
Q 447 1150 447 2328 
Q 447 3434 972 4092 
Q 1497 4750 2381 4750 
Q 2619 4750 2861 4703 
Q 3103 4656 3366 4563 
z
" transform="scale(0.015625)"/>
       </defs>
       <use xlink:href="#DejaVuSans-36"/>
       <use xlink:href="#DejaVuSans-30" x="63.623047"/>
       <use xlink:href="#DejaVuSans-30" x="127.246094"/>
       <use xlink:href="#DejaVuSans-30" x="190.869141"/>
      </g>
     </g>
    </g>
    <g id="ytick_5">
     <g id="line2d_12">
      <g>
       <use xlink:href="#md885485c51" x="144" y="284.470714" style="stroke: #000000; stroke-width: 0.8"/>
      </g>
     </g>
     <g id="text_13">
      <!-- 8000 -->
      <g transform="translate(111.55 288.269933) scale(0.1 -0.1)">
       <defs>
        <path id="DejaVuSans-38" d="M 2034 2216 
Q 1584 2216 1326 1975 
Q 1069 1734 1069 1313 
Q 1069 891 1326 650 
Q 1584 409 2034 409 
Q 2484 409 2743 651 
Q 3003 894 3003 1313 
Q 3003 1734 2745 1975 
Q 2488 2216 2034 2216 
z
M 1403 2484 
Q 997 2584 770 2862 
Q 544 3141 544 3541 
Q 544 4100 942 4425 
Q 1341 4750 2034 4750 
Q 2731 4750 3128 4425 
Q 3525 4100 3525 3541 
Q 3525 3141 3298 2862 
Q 3072 2584 2669 2484 
Q 3125 2378 3379 2068 
Q 3634 1759 3634 1313 
Q 3634 634 3220 271 
Q 2806 -91 2034 -91 
Q 1263 -91 848 271 
Q 434 634 434 1313 
Q 434 1759 690 2068 
Q 947 2378 1403 2484 
z
M 1172 3481 
Q 1172 3119 1398 2916 
Q 1625 2713 2034 2713 
Q 2441 2713 2670 2916 
Q 2900 3119 2900 3481 
Q 2900 3844 2670 4047 
Q 2441 4250 2034 4250 
Q 1625 4250 1398 4047 
Q 1172 3844 1172 3481 
z
" transform="scale(0.015625)"/>
       </defs>
       <use xlink:href="#DejaVuSans-38"/>
       <use xlink:href="#DejaVuSans-30" x="63.623047"/>
       <use xlink:href="#DejaVuSans-30" x="127.246094"/>
       <use xlink:href="#DejaVuSans-30" x="190.869141"/>
      </g>
     </g>
    </g>
    <g id="ytick_6">
     <g id="line2d_13">
      <g>
       <use xlink:href="#md885485c51" x="144" y="232.468392" style="stroke: #000000; stroke-width: 0.8"/>
      </g>
     </g>
     <g id="text_14">
      <!-- 10000 -->
      <g transform="translate(105.1875 236.267611) scale(0.1 -0.1)">
       <use xlink:href="#DejaVuSans-31"/>
       <use xlink:href="#DejaVuSans-30" x="63.623047"/>
       <use xlink:href="#DejaVuSans-30" x="127.246094"/>
       <use xlink:href="#DejaVuSans-30" x="190.869141"/>
       <use xlink:href="#DejaVuSans-30" x="254.492188"/>
      </g>
     </g>
    </g>
    <g id="ytick_7">
     <g id="line2d_14">
      <g>
       <use xlink:href="#md885485c51" x="144" y="180.466071" style="stroke: #000000; stroke-width: 0.8"/>
      </g>
     </g>
     <g id="text_15">
      <!-- 12000 -->
      <g transform="translate(105.1875 184.26529) scale(0.1 -0.1)">
       <use xlink:href="#DejaVuSans-31"/>
       <use xlink:href="#DejaVuSans-32" x="63.623047"/>
       <use xlink:href="#DejaVuSans-30" x="127.246094"/>
       <use xlink:href="#DejaVuSans-30" x="190.869141"/>
       <use xlink:href="#DejaVuSans-30" x="254.492188"/>
      </g>
     </g>
    </g>
    <g id="ytick_8">
     <g id="line2d_15">
      <g>
       <use xlink:href="#md885485c51" x="144" y="128.463749" style="stroke: #000000; stroke-width: 0.8"/>
      </g>
     </g>
     <g id="text_16">
      <!-- 14000 -->
      <g transform="translate(105.1875 132.262968) scale(0.1 -0.1)">
       <use xlink:href="#DejaVuSans-31"/>
       <use xlink:href="#DejaVuSans-34" x="63.623047"/>
       <use xlink:href="#DejaVuSans-30" x="127.246094"/>
       <use xlink:href="#DejaVuSans-30" x="190.869141"/>
       <use xlink:href="#DejaVuSans-30" x="254.492188"/>
      </g>
     </g>
    </g>
    <g id="ytick_9">
     <g id="line2d_16">
      <g>
       <use xlink:href="#md885485c51" x="144" y="76.461428" style="stroke: #000000; stroke-width: 0.8"/>
      </g>
     </g>
     <g id="text_17">
      <!-- 16000 -->
      <g transform="translate(105.1875 80.260646) scale(0.1 -0.1)">
       <use xlink:href="#DejaVuSans-31"/>
       <use xlink:href="#DejaVuSans-36" x="63.623047"/>
       <use xlink:href="#DejaVuSans-30" x="127.246094"/>
       <use xlink:href="#DejaVuSans-30" x="190.869141"/>
       <use xlink:href="#DejaVuSans-30" x="254.492188"/>
      </g>
     </g>
    </g>
    <g id="text_18">
     <!-- Congestion Window Sizes -->
     <g transform="translate(98.483906 373.964219) rotate(-90) scale(0.13 -0.13)">
      <defs>
       <path id="DejaVuSans-43" d="M 4122 4306 
L 4122 3641 
Q 3803 3938 3442 4084 
Q 3081 4231 2675 4231 
Q 1875 4231 1450 3742 
Q 1025 3253 1025 2328 
Q 1025 1406 1450 917 
Q 1875 428 2675 428 
Q 3081 428 3442 575 
Q 3803 722 4122 1019 
L 4122 359 
Q 3791 134 3420 21 
Q 3050 -91 2638 -91 
Q 1578 -91 968 557 
Q 359 1206 359 2328 
Q 359 3453 968 4101 
Q 1578 4750 2638 4750 
Q 3056 4750 3426 4639 
Q 3797 4528 4122 4306 
z
" transform="scale(0.015625)"/>
       <path id="DejaVuSans-67" d="M 2906 1791 
Q 2906 2416 2648 2759 
Q 2391 3103 1925 3103 
Q 1463 3103 1205 2759 
Q 947 2416 947 1791 
Q 947 1169 1205 825 
Q 1463 481 1925 481 
Q 2391 481 2648 825 
Q 2906 1169 2906 1791 
z
M 3481 434 
Q 3481 -459 3084 -895 
Q 2688 -1331 1869 -1331 
Q 1566 -1331 1297 -1286 
Q 1028 -1241 775 -1147 
L 775 -588 
Q 1028 -725 1275 -790 
Q 1522 -856 1778 -856 
Q 2344 -856 2625 -561 
Q 2906 -266 2906 331 
L 2906 616 
Q 2728 306 2450 153 
Q 2172 0 1784 0 
Q 1141 0 747 490 
Q 353 981 353 1791 
Q 353 2603 747 3093 
Q 1141 3584 1784 3584 
Q 2172 3584 2450 3431 
Q 2728 3278 2906 2969 
L 2906 3500 
L 3481 3500 
L 3481 434 
z
" transform="scale(0.015625)"/>
       <path id="DejaVuSans-74" d="M 1172 4494 
L 1172 3500 
L 2356 3500 
L 2356 3053 
L 1172 3053 
L 1172 1153 
Q 1172 725 1289 603 
Q 1406 481 1766 481 
L 2356 481 
L 2356 0 
L 1766 0 
Q 1100 0 847 248 
Q 594 497 594 1153 
L 594 3053 
L 172 3053 
L 172 3500 
L 594 3500 
L 594 4494 
L 1172 4494 
z
" transform="scale(0.015625)"/>
       <path id="DejaVuSans-57" d="M 213 4666 
L 850 4666 
L 1831 722 
L 2809 4666 
L 3519 4666 
L 4500 722 
L 5478 4666 
L 6119 4666 
L 4947 0 
L 4153 0 
L 3169 4050 
L 2175 0 
L 1381 0 
L 213 4666 
z
" transform="scale(0.015625)"/>
       <path id="DejaVuSans-77" d="M 269 3500 
L 844 3500 
L 1563 769 
L 2278 3500 
L 2956 3500 
L 3675 769 
L 4391 3500 
L 4966 3500 
L 4050 0 
L 3372 0 
L 2619 2869 
L 1863 0 
L 1184 0 
L 269 3500 
z
" transform="scale(0.015625)"/>
       <path id="DejaVuSans-53" d="M 3425 4513 
L 3425 3897 
Q 3066 4069 2747 4153 
Q 2428 4238 2131 4238 
Q 1616 4238 1336 4038 
Q 1056 3838 1056 3469 
Q 1056 3159 1242 3001 
Q 1428 2844 1947 2747 
L 2328 2669 
Q 3034 2534 3370 2195 
Q 3706 1856 3706 1288 
Q 3706 609 3251 259 
Q 2797 -91 1919 -91 
Q 1588 -91 1214 -16 
Q 841 59 441 206 
L 441 856 
Q 825 641 1194 531 
Q 1563 422 1919 422 
Q 2459 422 2753 634 
Q 3047 847 3047 1241 
Q 3047 1584 2836 1778 
Q 2625 1972 2144 2069 
L 1759 2144 
Q 1053 2284 737 2584 
Q 422 2884 422 3419 
Q 422 4038 858 4394 
Q 1294 4750 2059 4750 
Q 2388 4750 2728 4690 
Q 3069 4631 3425 4513 
z
" transform="scale(0.015625)"/>
       <path id="DejaVuSans-7a" d="M 353 3500 
L 3084 3500 
L 3084 2975 
L 922 459 
L 3084 459 
L 3084 0 
L 275 0 
L 275 525 
L 2438 3041 
L 353 3041 
L 353 3500 
z
" transform="scale(0.015625)"/>
      </defs>
      <use xlink:href="#DejaVuSans-43"/>
      <use xlink:href="#DejaVuSans-6f" x="69.824219"/>
      <use xlink:href="#DejaVuSans-6e" x="131.005859"/>
      <use xlink:href="#DejaVuSans-67" x="194.384766"/>
      <use xlink:href="#DejaVuSans-65" x="257.861328"/>
      <use xlink:href="#DejaVuSans-73" x="319.384766"/>
      <use xlink:href="#DejaVuSans-74" x="371.484375"/>
      <use xlink:href="#DejaVuSans-69" x="410.693359"/>
      <use xlink:href="#DejaVuSans-6f" x="438.476562"/>
      <use xlink:href="#DejaVuSans-6e" x="499.658203"/>
      <use xlink:href="#DejaVuSans-20" x="563.037109"/>
      <use xlink:href="#DejaVuSans-57" x="594.824219"/>
      <use xlink:href="#DejaVuSans-69" x="691.451172"/>
      <use xlink:href="#DejaVuSans-6e" x="719.234375"/>
      <use xlink:href="#DejaVuSans-64" x="782.613281"/>
      <use xlink:href="#DejaVuSans-6f" x="846.089844"/>
      <use xlink:href="#DejaVuSans-77" x="907.271484"/>
      <use xlink:href="#DejaVuSans-20" x="989.058594"/>
      <use xlink:href="#DejaVuSans-53" x="1020.845703"/>
      <use xlink:href="#DejaVuSans-69" x="1084.322266"/>
      <use xlink:href="#DejaVuSans-7a" x="1112.105469"/>
      <use xlink:href="#DejaVuSans-65" x="1164.595703"/>
      <use xlink:href="#DejaVuSans-73" x="1226.119141"/>
     </g>
    </g>
   </g>
   <g id="line2d_17">
    <path d="M 184.581818 492.48 
L 184.763504 325.240534 
L 185.255931 311.303912 
L 185.266569 283.430667 
L 185.927804 269.494045 
L 185.938442 241.620801 
L 186.599678 227.684179 
L 186.610316 199.810934 
L 187.271551 185.874312 
L 187.282189 158.001068 
L 187.943424 144.064446 
L 187.948743 130.127824 
L 188.615297 116.191201 
L 188.627615 460.44657 
L 188.786345 461.902635 
L 188.786345 460.44657 
L 189.28997 454.388299 
L 189.633185 444.819872 
L 189.961843 440.763691 
L 190.132611 437.019524 
L 190.13681 433.535369 
L 190.633717 430.259222 
L 190.639036 427.139083 
L 190.806164 424.174951 
L 191.30559 421.340824 
L 191.310909 418.610702 
L 191.475518 415.984585 
L 191.977463 413.462472 
L 191.986982 408.652258 
L 192.649337 406.338154 
L 192.658855 401.917957 
L 193.32121 399.785862 
L 193.330728 395.677678 
L 193.993083 393.675589 
L 194.002601 389.801416 
L 194.664956 387.929333 
L 194.674475 384.263169 
L 195.342149 382.469089 
L 195.346348 464.606756 
L 195.512917 470.223006 
L 195.512917 464.606756 
L 196.354718 452.074196 
L 196.525486 478.543378 
L 196.525486 464.606756 
L 197.045068 447.289983 
L 197.523217 439.099617 
L 197.527417 435.485456 
L 198.024323 432.079304 
L 198.029642 428.881161 
L 198.19677 425.839025 
L 198.696196 422.926895 
L 198.701515 420.144771 
L 198.868644 417.466651 
L 199.368069 414.892536 
L 199.373388 412.396425 
L 199.537997 409.978317 
L 200.039943 407.638212 
L 200.049461 403.140012 
L 200.711816 400.981915 
L 200.721334 396.82173 
L 201.383689 394.793639 
L 201.393208 390.893465 
L 202.055563 388.99538 
L 202.065081 385.303215 
L 202.727436 383.509135 
L 202.736954 379.998979 
L 203.399309 378.282902 
L 203.408827 374.928752 
L 204.071182 373.290679 
L 204.080701 370.092536 
L 204.743056 368.506465 
L 204.752574 365.412327 
L 205.414929 363.90426 
L 205.424447 360.914127 
L 206.086802 359.458062 
L 206.096321 356.571933 
L 206.758676 355.16787 
L 206.768194 352.385746 
L 207.430549 351.007684 
L 207.440067 348.303564 
L 208.102422 346.977504 
L 208.11194 344.351387 
L 208.774295 343.051329 
L 208.783814 340.503215 
L 209.446169 339.229158 
L 209.455687 336.733047 
L 210.118042 335.510992 
L 210.12756 333.066883 
L 210.789915 331.87083 
L 210.799433 329.478723 
L 211.461789 328.308671 
L 211.471307 325.968566 
L 212.133662 324.824515 
L 212.14318 322.536413 
L 212.805535 321.418363 
L 212.815053 319.182263 
L 213.477408 318.064214 
L 213.486927 315.880116 
L 214.149282 314.788067 
L 214.1588 312.629971 
L 214.821155 311.563923 
L 214.830673 309.431828 
L 215.493028 308.391782 
L 215.502546 306.311689 
L 216.164902 305.271642 
L 216.17442 303.243552 
L 216.836775 302.229507 
L 216.846293 300.201416 
L 217.508648 299.213372 
L 217.518166 297.237284 
L 218.180521 296.24924 
L 218.19004 294.299153 
L 218.852395 293.33711 
L 218.861913 291.413024 
L 219.524268 290.450981 
L 219.533786 288.578897 
L 220.196141 287.642855 
L 220.205659 285.770772 
L 220.868015 284.83473 
L 220.877533 283.014649 
L 221.539888 282.104608 
L 221.549406 280.284527 
L 222.211761 279.374486 
L 222.221279 277.580406 
L 222.883634 276.696367 
L 222.893153 274.928288 
L 223.555508 274.044248 
L 223.565026 272.276169 
L 224.227381 271.418131 
L 224.236899 269.702055 
L 224.899254 268.844016 
L 224.904573 267.985978 
L 225.576447 267.12794 
L 225.580646 461.200604 
L 225.917142 484.159629 
L 225.917142 464.606756 
L 226.416288 452.074196 
L 226.589016 447.289983 
L 226.914874 442.999791 
L 227.085642 439.099617 
L 227.089841 435.485456 
L 227.586747 432.079304 
L 227.592066 428.881161 
L 227.759195 425.839025 
L 228.258621 422.926895 
L 228.26394 420.144771 
L 228.431068 417.466651 
L 228.930494 414.892536 
L 228.935813 412.396425 
L 229.100422 409.978317 
L 229.602367 407.638212 
L 229.611885 403.140012 
L 230.27424 400.981915 
L 230.283759 396.82173 
L 230.946114 394.793639 
L 230.955632 390.893465 
L 231.617987 388.99538 
L 231.627505 385.303215 
L 232.28986 383.509135 
L 232.299379 379.998979 
L 232.961734 378.282902 
L 232.971252 374.928752 
L 233.633607 373.290679 
L 233.643125 370.092536 
L 234.30548 368.506465 
L 234.314998 365.412327 
L 234.977353 363.90426 
L 234.986872 360.914127 
L 235.649227 359.458062 
L 235.658745 356.571933 
L 236.3211 355.16787 
L 236.330618 352.385746 
L 236.992973 351.007684 
L 237.002492 348.303564 
L 237.664847 346.977504 
L 237.674365 344.351387 
L 238.33672 343.051329 
L 238.346238 340.503215 
L 239.008593 339.229158 
L 239.018111 336.733047 
L 239.680466 335.510992 
L 239.689985 333.066883 
L 240.35234 331.87083 
L 240.361858 329.478723 
L 241.024213 328.308671 
L 241.033731 325.968566 
L 241.696086 324.824515 
L 241.705605 322.536413 
L 242.36796 321.418363 
L 242.377478 319.182263 
L 243.039833 318.064214 
L 243.049351 315.880116 
L 243.711706 314.788067 
L 243.721224 312.629971 
L 244.383579 311.563923 
L 244.393098 309.431828 
L 245.055453 308.391782 
L 245.064971 306.311689 
L 245.727326 305.271642 
L 245.736844 303.243552 
L 246.399199 302.229507 
L 246.408717 300.201416 
L 247.071073 299.213372 
L 247.080591 297.237284 
L 247.742946 296.24924 
L 247.752464 294.299153 
L 248.414819 293.33711 
L 248.424337 291.413024 
L 249.086692 290.450981 
L 249.096211 288.578897 
L 249.758566 287.642855 
L 249.768084 285.770772 
L 250.430439 284.83473 
L 250.439957 283.014649 
L 251.102312 282.104608 
L 251.11183 280.284527 
L 251.774186 279.374486 
L 251.783704 277.580406 
L 252.446059 276.696367 
L 252.455577 274.928288 
L 253.117932 274.044248 
L 253.12745 272.276169 
L 253.789805 271.418131 
L 253.799324 269.702055 
L 254.461679 268.844016 
L 254.471197 267.12794 
L 255.133552 266.269901 
L 255.14307 264.579826 
L 255.805425 263.747789 
L 255.814943 262.083714 
L 256.477299 261.251677 
L 256.486817 259.587603 
L 257.149172 258.755566 
L 257.15869 257.143494 
L 257.821045 256.337458 
L 257.830563 254.725386 
L 258.492918 253.91935 
L 258.502437 252.307278 
L 259.164792 251.501242 
L 259.17431 249.941172 
L 259.836665 249.161138 
L 259.846183 247.601068 
L 260.508538 246.821033 
L 260.518056 245.260963 
L 261.180412 244.480929 
L 261.18993 242.920859 
L 261.852285 242.166825 
L 261.861803 240.658758 
L 262.524158 239.904724 
L 262.533676 238.396657 
L 263.196031 237.642623 
L 263.20555 236.134556 
L 263.867905 235.380522 
L 263.877423 233.898456 
L 264.539778 233.170424 
L 264.549296 231.714359 
L 265.211651 230.986326 
L 265.221169 229.530261 
L 265.883525 228.802229 
L 265.893043 227.346164 
L 266.555398 226.618131 
L 266.564916 225.162066 
L 267.227271 224.460035 
L 267.236789 223.055972 
L 267.899144 222.353941 
L 267.908663 220.949878 
L 268.571018 220.247847 
L 268.580536 218.843784 
L 269.242891 218.141753 
L 269.252409 216.73769 
L 269.914764 216.035659 
L 269.924282 214.657597 
L 270.586637 213.981567 
L 270.596156 212.629507 
L 271.258511 211.953476 
L 271.268029 210.601416 
L 271.930384 209.925386 
L 271.939902 208.573326 
L 272.602257 207.897295 
L 272.611776 206.545235 
L 273.274131 205.869205 
L 273.283649 204.517145 
L 273.946004 203.867115 
L 273.955522 202.567057 
L 274.617877 201.917028 
L 274.627395 200.61697 
L 275.28975 199.966941 
L 275.299269 198.666883 
L 275.961624 198.016854 
L 275.971142 196.716796 
L 276.633497 196.066767 
L 276.643015 194.766709 
L 277.30537 194.11668 
L 277.314889 192.842623 
L 277.977244 192.218595 
L 277.986762 190.97054 
L 278.649117 190.346512 
L 278.658635 189.098456 
L 279.32099 188.474428 
L 279.330508 187.226373 
L 279.992863 186.602345 
L 280.002382 185.354289 
L 280.664737 184.730261 
L 280.674255 183.482205 
L 281.33661 182.858178 
L 281.346128 181.610122 
L 282.008483 180.986094 
L 282.018002 179.790041 
L 282.680357 179.192014 
L 282.689875 177.995961 
L 283.35223 177.397934 
L 283.361748 176.20188 
L 284.024103 175.603854 
L 284.033621 174.4078 
L 284.695976 173.809774 
L 284.705495 172.61372 
L 285.36785 172.015694 
L 285.377368 170.81964 
L 286.039723 170.221613 
L 286.049241 169.02556 
L 286.711596 168.427533 
L 286.721114 167.23148 
L 287.38347 166.659454 
L 287.392988 165.515403 
L 288.055343 164.943378 
L 288.064861 163.799327 
L 288.727216 163.227301 
L 288.736734 162.08325 
L 289.399089 161.511225 
L 289.408608 160.367174 
L 290.070963 159.795148 
L 290.080481 158.651097 
L 290.742836 158.079071 
L 290.752354 156.93502 
L 291.414709 156.362995 
L 291.424227 155.218944 
L 292.086583 154.646918 
L 292.096101 153.502867 
L 292.758456 152.930842 
L 292.767974 151.838793 
L 293.430329 151.292768 
L 293.439847 150.20072 
L 294.102202 149.654695 
L 294.111721 148.562647 
L 294.774076 148.016622 
L 294.783594 146.924573 
L 295.445949 146.378549 
L 295.455467 145.2865 
L 296.117822 144.740476 
L 296.12734 143.648427 
L 296.789696 143.102403 
L 296.799214 142.010354 
L 297.461569 141.46433 
L 297.471087 140.372281 
L 298.133442 139.826257 
L 298.14296 138.734208 
L 298.805315 138.188183 
L 298.814834 137.096135 
L 299.477189 136.55011 
L 299.486707 135.510064 
L 300.149062 134.990041 
L 300.15858 133.949994 
L 300.820935 133.429971 
L 300.830453 132.389925 
L 301.492809 131.869901 
L 301.502327 130.829855 
L 302.164682 130.309832 
L 302.1742 129.269785 
L 302.836555 128.749762 
L 302.846073 127.709716 
L 303.508428 127.189692 
L 303.517947 126.149646 
L 304.180302 125.629623 
L 304.18982 124.589576 
L 304.852175 124.069553 
L 304.861693 123.029507 
L 305.524048 122.509483 
L 305.533566 121.469437 
L 306.195922 120.949414 
L 306.20544 119.909367 
L 306.867795 119.389344 
L 306.877313 118.375299 
L 307.539668 117.881277 
L 307.549186 116.893233 
L 308.211541 116.399211 
L 308.22106 115.411167 
L 308.883415 114.917145 
L 308.892933 113.9291 
L 309.555288 113.435078 
L 309.564806 112.447034 
L 310.227161 111.953012 
L 310.236679 110.964968 
L 310.899034 110.470946 
L 310.908553 109.482902 
L 311.570908 108.98888 
L 311.580426 108.000836 
L 312.242781 107.506814 
L 312.252299 106.51877 
L 312.914654 106.024748 
L 312.924173 105.036703 
L 313.594366 104.542681 
L 313.765134 470.223006 
L 313.765134 464.606756 
L 314.258401 457.638445 
L 314.604416 447.289983 
L 314.930274 442.999791 
L 315.101042 439.099617 
L 315.105241 435.485456 
L 315.602147 432.079304 
L 315.607466 428.881161 
L 315.774595 425.839025 
L 316.274021 422.926895 
L 316.27934 420.144771 
L 316.446468 417.466651 
L 316.945894 414.892536 
L 316.951213 412.396425 
L 317.115822 409.978317 
L 317.617767 407.638212 
L 317.627286 403.140012 
L 318.289641 400.981915 
L 318.299159 396.82173 
L 318.961514 394.793639 
L 318.971032 390.893465 
L 319.633387 388.99538 
L 319.642905 385.303215 
L 320.30526 383.509135 
L 320.314779 379.998979 
L 320.977134 378.282902 
L 320.986652 374.928752 
L 321.649007 373.290679 
L 321.658525 370.092536 
L 322.32088 368.506465 
L 322.330399 365.412327 
L 322.992754 363.90426 
L 323.002272 360.914127 
L 323.664627 359.458062 
L 323.674145 356.571933 
L 324.3365 355.16787 
L 324.346018 352.385746 
L 325.008373 351.007684 
L 325.017892 348.303564 
L 325.680247 346.977504 
L 325.689765 344.351387 
L 326.35212 343.051329 
L 326.361638 340.503215 
L 327.023993 339.229158 
L 327.033511 336.733047 
L 327.695867 335.510992 
L 327.705385 333.066883 
L 328.36774 331.87083 
L 328.377258 329.478723 
L 329.039613 328.308671 
L 329.049131 325.968566 
L 329.711486 324.824515 
L 329.721005 322.536413 
L 330.38336 321.418363 
L 330.392878 319.182263 
L 331.063072 318.064214 
L 331.233839 470.223006 
L 331.233839 464.606756 
L 331.727106 457.638445 
L 332.073121 447.289983 
L 332.39898 442.999791 
L 332.569747 439.099617 
L 332.573947 435.485456 
L 333.070853 432.079304 
L 333.076172 428.881161 
L 333.2433 425.839025 
L 333.742726 422.926895 
L 333.748045 420.144771 
L 333.915174 417.466651 
L 334.414599 414.892536 
L 334.419918 412.396425 
L 334.584527 409.978317 
L 335.086473 407.638212 
L 335.095991 403.140012 
L 335.758346 400.981915 
L 335.767864 396.82173 
L 336.430219 394.793639 
L 336.439737 390.893465 
L 337.102093 388.99538 
L 337.111611 385.303215 
L 337.773966 383.509135 
L 337.783484 379.998979 
L 338.445839 378.282902 
L 338.455357 374.928752 
L 339.117712 373.290679 
L 339.127231 370.092536 
L 339.789586 368.506465 
L 339.799104 365.412327 
L 340.461459 363.90426 
L 340.470977 360.914127 
L 341.133332 359.458062 
L 341.14285 356.571933 
L 341.805206 355.16787 
L 341.814724 352.385746 
L 342.477079 351.007684 
L 342.486597 348.303564 
L 343.148952 346.977504 
L 343.15847 344.351387 
L 343.820825 343.051329 
L 343.830344 340.503215 
L 344.492699 339.229158 
L 344.502217 336.733047 
L 345.164572 335.510992 
L 345.17409 333.066883 
L 345.836445 331.87083 
L 345.845963 329.478723 
L 346.508318 328.308671 
L 346.517837 325.968566 
L 347.180192 324.824515 
L 347.18971 322.536413 
L 347.852065 321.418363 
L 347.861583 319.182263 
L 348.523938 318.064214 
L 348.533457 315.880116 
L 349.195812 314.788067 
L 349.20533 312.629971 
L 349.867685 311.563923 
L 349.877203 309.431828 
L 350.539558 308.391782 
L 350.549076 306.311689 
L 351.211431 305.271642 
L 351.22095 303.243552 
L 351.883305 302.229507 
L 351.892823 300.201416 
L 352.555178 299.213372 
L 352.564696 297.237284 
L 353.227051 296.24924 
L 353.23657 294.299153 
L 353.898925 293.33711 
L 353.908443 291.413024 
L 354.570798 290.450981 
L 354.580316 288.578897 
L 355.242671 287.642855 
L 355.24799 286.706814 
L 355.914544 285.770772 
L 355.924063 464.606756 
L 383.24271 470.223006 
L 389.18319 478.543378 
L 389.530324 457.638445 
L 390.048227 442.999791 
L 390.389762 435.485456 
L 390.395081 432.079304 
L 390.56333 428.881161 
L 390.568649 425.839025 
L 390.736897 422.926895 
L 390.741936 420.144771 
L 390.910184 417.466651 
L 390.915503 414.892536 
L 391.081232 412.396425 
L 391.086551 409.978317 
L 391.252 407.638212 
L 391.262638 403.140012 
L 391.425567 400.981915 
L 391.435925 396.82173 
L 391.598854 394.793639 
L 391.609492 390.893465 
L 391.769902 388.99538 
L 391.78054 385.303215 
L 391.94067 383.509135 
L 391.951308 379.998979 
L 392.111438 378.282902 
L 392.127395 373.290679 
L 392.285005 371.678607 
L 392.300962 366.946396 
L 392.458572 365.412327 
L 392.474249 360.914127 
L 392.62934 359.458062 
L 392.645297 355.16787 
L 392.800108 353.763807 
L 392.816065 349.655624 
L 392.971156 348.303564 
L 392.992152 343.051329 
L 393.144723 341.777272 
L 393.165719 336.733047 
L 393.31801 335.510992 
L 393.339286 330.674777 
L 393.489058 329.478723 
L 393.510054 324.824515 
L 393.659826 323.680464 
L 393.686141 318.064214 
L 393.833393 316.972165 
L 393.859708 311.563923 
L 394.00668 310.497876 
L 394.033275 305.271642 
L 394.185566 304.257597 
L 394.206842 395.833685 
L 394.359134 422.796889 
L 394.359134 415.828578 
L 394.522063 413.306465 
L 394.527382 410.862356 
L 394.692831 408.496251 
L 394.703469 403.972049 
L 394.866398 401.787951 
L 394.877036 397.575763 
L 395.039965 395.547673 
L 395.050603 391.595496 
L 395.213253 389.67141 
L 395.223891 385.953244 
L 395.3843 384.133163 
L 395.394938 380.623006 
L 395.555068 378.90693 
L 395.571025 373.914707 
L 395.728635 372.276634 
L 395.744312 367.518421 
L 395.902203 365.984353 
L 395.91788 361.460151 
L 396.07297 359.978085 
L 396.088927 355.661892 
L 396.243738 354.257829 
L 396.259695 350.123645 
L 396.414506 348.771584 
L 396.435782 343.493349 
L 396.588073 342.193291 
L 396.609349 337.149066 
L 396.761641 335.90101 
L 396.776758 332.260847 
L 396.932408 329.868741 
L 396.936888 328.698688 
L 397.570688 327.528636 
L 397.580206 325.214533 
L 398.242561 324.070482 
L 398.25208 321.78238 
L 398.914435 320.66433 
L 398.923953 318.42823 
L 399.586308 317.336181 
L 399.595826 315.152084 
L 400.258181 314.060035 
L 400.267699 311.92794 
L 400.930054 310.861892 
L 400.939573 308.755798 
L 401.601928 307.715752 
L 401.611446 305.635659 
L 402.273801 304.621613 
L 402.283319 302.593523 
L 402.945674 301.579478 
L 402.955192 299.577388 
L 403.617548 298.589344 
L 403.627066 296.613256 
L 404.289421 295.625212 
L 404.298939 293.701126 
L 404.961294 292.739083 
L 404.970812 290.814997 
L 405.633167 289.852954 
L 405.642686 287.980871 
L 406.305041 287.044829 
L 406.314559 285.172745 
L 406.976914 284.236703 
L 406.986432 282.416622 
L 407.648787 281.506582 
L 407.658305 279.6865 
L 408.320661 278.77646 
L 408.330179 277.008381 
L 408.992534 276.124341 
L 409.002052 274.356262 
L 409.664407 273.472223 
L 409.673925 271.730145 
L 410.33628 270.872107 
L 410.345799 269.15603 
L 411.008154 268.297992 
L 411.017672 266.581915 
L 411.680027 265.723877 
L 411.689545 264.059803 
L 412.3519 263.227766 
L 412.361418 261.563691 
L 413.023774 260.731654 
L 413.033292 259.06758 
L 413.695647 258.235543 
L 413.705165 256.623471 
L 414.36752 255.817435 
L 414.377038 254.205363 
L 415.039393 253.399327 
L 415.048912 251.787255 
L 415.711267 250.981219 
L 415.720785 249.421149 
L 416.38314 248.641114 
L 416.392658 247.081045 
L 417.055013 246.30101 
L 417.064531 244.74094 
L 417.726887 243.960905 
L 417.736405 242.426837 
L 419.067834 240.91877 
L 419.080151 460.44657 
L 419.238881 461.902635 
L 419.238881 460.44657 
L 419.742506 454.388299 
L 420.085722 444.819872 
L 420.41438 440.763691 
L 420.585147 437.019524 
L 420.589347 433.535369 
L 421.086253 430.259222 
L 421.091572 427.139083 
L 421.2587 424.174951 
L 421.758126 421.340824 
L 421.763445 418.610702 
L 421.928054 415.984585 
L 422.43 413.462472 
L 422.439518 408.652258 
L 423.101873 406.338154 
L 423.111391 401.917957 
L 423.773746 399.785862 
L 423.783264 395.677678 
L 424.445619 393.675589 
L 424.455138 389.801416 
L 425.117493 387.929333 
L 425.127011 384.263169 
L 425.789366 382.469089 
L 425.798884 379.010934 
L 426.461239 377.320859 
L 426.470757 374.018712 
L 427.133112 372.380638 
L 427.142631 369.182496 
L 427.804986 367.622426 
L 427.814504 364.554289 
L 428.476859 363.046222 
L 428.486377 360.082089 
L 429.148732 358.626024 
L 429.158251 355.765897 
L 429.820606 354.361834 
L 429.830124 351.57971 
L 430.492479 350.201648 
L 430.501997 347.497528 
L 431.164352 346.171468 
L 431.17387 343.545351 
L 431.836225 342.245293 
L 431.845744 339.697179 
L 432.508099 338.449124 
L 432.517617 335.953012 
L 433.179972 334.730958 
L 433.18949 332.31285 
L 433.851845 331.116796 
L 433.861364 328.750691 
L 434.523719 327.580638 
L 434.533237 325.266535 
L 435.195592 324.122484 
L 435.20511 321.834382 
L 435.867465 320.716332 
L 435.876983 318.480232 
L 436.539338 317.388183 
L 436.547737 315.204086 
L 437.211212 314.112037 
L 437.21961 311.979942 
L 437.883085 310.913894 
L 437.891483 308.8078 
L 438.554958 307.767754 
L 438.563357 305.687661 
L 439.226832 304.673616 
L 439.23523 302.645525 
L 439.898705 301.63148 
L 439.907103 299.629391 
L 440.570578 298.641346 
L 440.578977 296.665258 
L 441.242451 295.677214 
L 441.25085 293.753128 
L 441.914325 292.791085 
L 441.922723 290.866999 
L 442.586198 289.904956 
L 442.594596 288.032873 
L 443.258071 287.096831 
L 443.26647 285.224748 
L 443.929945 284.288706 
L 443.938343 282.468624 
L 444.601818 281.558584 
L 444.610216 279.738503 
L 445.273691 278.828462 
L 445.28209 277.060383 
L 445.945564 276.176344 
L 445.953963 274.408265 
L 446.617438 273.524225 
L 446.625836 271.782147 
L 447.289311 270.924109 
L 447.297709 269.208033 
L 447.961184 268.349994 
L 447.969583 266.633918 
L 448.633058 265.775879 
L 448.641456 264.111805 
L 449.304931 263.279768 
L 449.313329 261.615694 
L 449.976804 260.783656 
L 449.985203 259.119582 
L 450.648677 258.287545 
L 450.657076 256.675473 
L 451.320551 255.869437 
L 451.328949 254.257365 
L 451.992424 253.451329 
L 452.000822 251.839257 
L 452.664297 251.033221 
L 452.672696 249.473151 
L 453.336171 248.693117 
L 453.344569 247.133047 
L 454.008044 246.353012 
L 454.016442 244.792943 
L 454.679917 244.012908 
L 454.688316 242.478839 
L 455.35179 241.724806 
L 455.360189 240.216738 
L 456.023664 239.462705 
L 456.032062 237.954637 
L 456.695537 237.200604 
L 456.703935 235.692536 
L 457.36741 234.938503 
L 457.375809 233.456436 
L 458.039284 232.728404 
L 458.047682 231.272339 
L 458.711157 230.544306 
L 458.719555 229.088241 
L 459.38303 228.360209 
L 459.391428 226.904144 
L 460.054903 226.176111 
L 460.063302 224.746048 
L 460.726777 224.044016 
L 460.735175 222.639954 
L 461.39865 221.937922 
L 461.407048 220.53386 
L 462.070523 219.831828 
L 462.078922 218.427766 
L 462.742396 217.725734 
L 462.750795 216.321672 
L 463.41427 215.61964 
L 463.422668 214.26758 
L 464.086143 213.59155 
L 464.094541 212.239489 
L 464.758016 211.563459 
L 464.763615 210.887429 
L 465.42989 210.211399 
L 465.438288 464.606756 
L 465.600657 470.223006 
L 465.600657 464.606756 
L 466.101763 457.638445 
L 466.448897 447.289983 
L 466.773636 442.999791 
L 466.944404 439.099617 
L 466.950003 435.485456 
L 467.445509 432.079304 
L 467.451108 428.881161 
L 467.619077 425.839025 
L 468.117383 422.926895 
L 468.122982 420.144771 
L 468.29095 417.466651 
L 468.789256 414.892536 
L 468.794855 412.396425 
L 468.960024 409.978317 
L 469.461129 407.638212 
L 469.469528 403.140012 
L 470.133003 400.981915 
L 470.141401 396.82173 
L 470.804876 394.793639 
L 470.813274 390.893465 
L 471.476749 388.99538 
L 471.485148 385.303215 
L 472.148622 383.509135 
L 472.157021 379.998979 
L 472.820496 378.282902 
L 472.828894 374.928752 
L 473.492369 373.290679 
L 473.500767 370.092536 
L 474.164242 368.506465 
L 474.172641 365.412327 
L 474.836116 363.90426 
L 474.844514 360.914127 
L 475.507989 359.458062 
L 475.513588 358.001997 
L 476.179862 356.571933 
L 476.188261 464.606756 
L 476.35063 470.223006 
L 476.35063 464.606756 
L 476.851735 457.638445 
L 477.19887 447.289983 
L 477.523609 442.999791 
L 477.694377 439.099617 
L 477.699975 435.485456 
L 478.195482 432.079304 
L 478.201081 428.881161 
L 478.369049 425.839025 
L 478.867355 422.926895 
L 478.872954 420.144771 
L 479.040923 417.466651 
L 479.544828 414.892536 
L 479.547627 456.286384 
L 479.715595 470.223006 
L 479.715595 464.606756 
L 480.211102 457.638445 
L 480.558236 447.289983 
L 480.882975 442.999791 
L 481.053743 439.099617 
L 481.059342 435.485456 
L 481.554848 432.079304 
L 481.560447 428.881161 
L 481.728416 425.839025 
L 482.226722 422.926895 
L 482.232321 420.144771 
L 482.400289 417.466651 
L 482.898595 414.892536 
L 482.904194 412.396425 
L 483.069363 409.978317 
L 483.570468 407.638212 
L 484.239542 405.35011 
L 484.247941 450.670133 
L 484.41031 464.606756 
L 484.911415 457.638445 
L 485.25855 447.289983 
L 485.583289 442.999791 
L 485.924824 435.485456 
L 486.255162 432.079304 
L 486.260761 428.881161 
L 486.428729 425.839025 
L 486.927035 422.926895 
L 486.932634 420.144771 
L 487.097803 417.466651 
L 487.598909 414.892536 
L 487.604507 412.396425 
L 487.769676 409.978317 
L 488.270782 407.638212 
L 488.28198 403.140012 
L 488.942655 400.981915 
L 488.953853 396.82173 
L 489.614528 394.793639 
L 489.625726 390.893465 
L 490.286402 388.99538 
L 490.2976 385.303215 
L 490.958275 383.509135 
L 490.969473 379.998979 
L 491.630148 378.282902 
L 491.641346 374.928752 
L 492.302021 373.290679 
L 492.313219 370.092536 
L 492.973895 368.506465 
L 492.985093 365.412327 
L 493.645768 363.90426 
L 493.656966 360.914127 
L 494.317641 359.458062 
L 494.328839 356.571933 
L 494.989515 355.16787 
L 495.000713 352.385746 
L 495.661388 351.007684 
L 495.672586 348.303564 
L 496.333261 346.977504 
L 496.344459 344.351387 
L 497.005134 343.051329 
L 497.016332 340.503215 
L 497.677008 339.229158 
L 497.688206 336.733047 
L 498.348881 335.510992 
L 498.360079 333.066883 
L 499.020754 331.87083 
L 499.031952 329.478723 
L 499.692628 328.308671 
L 499.703825 325.968566 
L 500.364501 324.824515 
L 500.375699 322.536413 
L 501.036374 321.418363 
L 501.047572 319.182263 
L 501.708247 318.064214 
L 501.719445 315.880116 
L 502.380121 314.788067 
L 502.391319 312.629971 
L 503.051994 311.563923 
L 503.063192 309.431828 
L 503.723867 308.391782 
L 503.735065 306.311689 
L 504.395741 305.271642 
L 504.406938 303.243552 
L 505.067614 302.229507 
L 505.078812 300.201416 
L 505.739487 299.213372 
L 505.750685 297.237284 
L 506.41136 296.24924 
L 506.422558 294.299153 
L 507.083234 293.33711 
L 507.094432 291.413024 
L 507.755107 290.450981 
L 507.766305 288.578897 
L 508.42698 287.642855 
L 508.438178 285.770772 
L 509.098854 284.83473 
L 509.110051 283.014649 
L 509.770727 282.104608 
L 509.781925 280.284527 
L 510.4426 279.374486 
L 510.453798 277.580406 
L 511.114473 276.696367 
L 511.125671 274.928288 
L 511.786347 274.044248 
L 511.797545 272.276169 
L 512.45822 271.418131 
L 512.469418 269.702055 
L 513.130093 268.844016 
L 513.141291 267.12794 
L 513.801967 266.269901 
L 513.813164 264.579826 
L 514.47384 263.747789 
L 514.485038 262.083714 
L 515.145713 261.251677 
L 515.156911 259.587603 
L 515.817586 258.755566 
L 515.828784 257.143494 
L 516.48946 256.337458 
L 516.500658 254.725386 
L 517.161333 253.91935 
L 517.172531 252.307278 
L 517.833206 251.501242 
L 517.844404 249.941172 
L 518.510678 249.161138 
L 518.516277 464.606756 
L 518.681446 467.518886 
L 518.681446 464.606756 
L 519.179752 457.638445 
L 519.526887 447.289983 
L 519.851626 442.999791 
L 520.022393 439.099617 
L 520.027992 435.485456 
L 520.523499 432.079304 
L 520.529098 428.881161 
L 521.195372 425.839025 
L 521.198172 450.670133 
L 521.36614 464.606756 
L 521.536908 457.638445 
L 522.040813 447.289983 
L 522.21158 442.999791 
L 522.539119 439.099617 
L 522.709887 435.485456 
L 522.715485 432.079304 
L 523.210992 428.881161 
L 523.216591 425.839025 
L 523.384559 422.926895 
L 523.882865 420.144771 
L 523.888464 417.466651 
L 524.053633 414.892536 
L 524.563137 412.396425 
L 524.563137 456.286384 
L 524.904673 464.606756 
L 525.400179 452.074196 
L 525.573746 447.289983 
L 525.898485 442.999791 
L 526.069253 439.099617 
L 526.074852 435.485456 
L 526.570358 432.079304 
L 526.575957 428.881161 
L 526.743926 425.839025 
L 527.242232 422.926895 
L 527.247831 420.144771 
L 527.415799 417.466651 
L 527.914105 414.892536 
L 527.919704 412.396425 
L 528.084873 409.978317 
L 528.585978 407.638212 
L 528.594377 403.140012 
L 529.257852 400.981915 
L 529.26625 396.82173 
L 529.929725 394.793639 
L 529.938123 390.893465 
L 530.601598 388.99538 
L 530.609997 385.303215 
L 531.273471 383.509135 
L 531.28187 379.998979 
L 531.945345 378.282902 
L 531.953743 374.928752 
L 532.617218 373.290679 
L 532.625616 370.092536 
L 533.289091 368.506465 
L 533.29749 365.412327 
L 533.960965 363.90426 
L 533.969363 360.914127 
L 534.632838 359.458062 
L 534.641236 356.571933 
L 535.304711 355.16787 
L 535.31311 352.385746 
L 535.976584 351.007684 
L 535.984983 348.303564 
L 536.648458 346.977504 
L 536.656856 344.351387 
L 537.320331 343.051329 
L 537.328729 340.503215 
L 537.992204 339.229158 
L 538.000603 336.733047 
L 538.664078 335.510992 
L 538.672476 333.066883 
L 539.335951 331.87083 
L 539.344349 329.478723 
L 540.007824 328.308671 
L 540.016222 325.968566 
L 540.679697 324.824515 
L 540.688096 322.536413 
L 541.351571 321.418363 
L 541.359969 319.182263 
L 542.023444 318.064214 
L 542.031842 315.880116 
L 542.695317 314.788067 
L 542.703716 312.629971 
L 543.36719 311.563923 
L 543.375589 309.431828 
L 544.039064 308.391782 
L 544.047462 306.311689 
L 544.719335 305.271642 
L 544.890103 470.223006 
L 544.890103 464.606756 
L 545.38281 457.638445 
L 545.729945 447.289983 
L 546.054684 442.999791 
L 546.225451 439.099617 
L 546.23105 435.485456 
L 546.726557 432.079304 
L 546.732156 428.881161 
L 546.900124 425.839025 
L 547.39843 422.926895 
L 547.404029 420.144771 
L 547.571997 417.466651 
L 548.070303 414.892536 
L 548.075902 412.396425 
L 548.241071 409.978317 
L 548.742177 407.638212 
L 548.750575 403.140012 
L 549.41405 400.981915 
L 549.422448 396.82173 
L 550.085923 394.793639 
L 550.094322 390.893465 
L 550.757797 388.99538 
L 550.766195 385.303215 
L 551.42967 383.509135 
L 551.438068 379.998979 
L 552.101543 378.282902 
L 552.109942 374.928752 
L 552.773416 373.290679 
L 552.781815 370.092536 
L 553.44529 368.506465 
L 553.453688 365.412327 
L 554.117163 363.90426 
L 554.125561 360.914127 
L 554.789036 359.458062 
L 554.797435 356.571933 
L 555.46091 355.16787 
L 555.469308 352.385746 
L 556.132783 351.007684 
L 556.141181 348.303564 
L 556.804656 346.977504 
L 556.813055 344.351387 
L 557.476529 343.051329 
L 557.484928 340.503215 
L 558.148403 339.229158 
L 558.156801 336.733047 
L 558.820276 335.510992 
L 558.828674 333.066883 
L 559.492149 331.87083 
L 559.500548 329.478723 
L 560.164023 328.308671 
L 560.172421 325.968566 
L 560.835896 324.824515 
L 560.844294 322.536413 
L 561.507769 321.418363 
L 561.516168 319.182263 
L 562.179642 318.064214 
L 562.188041 315.880116 
L 562.851516 314.788067 
L 562.859914 312.629971 
L 563.523389 311.563923 
L 563.531787 309.431828 
L 564.195262 308.391782 
L 564.203661 306.311689 
L 564.867136 305.271642 
L 564.875534 303.243552 
L 565.539009 302.229507 
L 565.547407 300.201416 
L 566.210882 299.213372 
L 566.219281 297.237284 
L 566.882755 296.24924 
L 566.891154 294.299153 
L 567.554629 293.33711 
L 567.563027 291.413024 
L 568.226502 290.450981 
L 568.2349 288.578897 
L 568.898375 287.642855 
L 568.906774 285.770772 
L 569.570249 284.83473 
L 569.578647 283.014649 
L 570.242122 282.104608 
L 570.25052 280.284527 
L 570.913995 279.374486 
L 570.922394 277.580406 
L 571.585868 276.696367 
L 571.594267 274.928288 
L 572.257742 274.044248 
L 572.26614 272.276169 
L 572.929615 271.418131 
L 572.938013 269.702055 
L 573.601488 268.844016 
L 573.609887 267.12794 
L 574.273362 266.269901 
L 574.28176 264.579826 
L 574.945235 263.747789 
L 574.953633 262.083714 
L 575.617108 261.251677 
L 575.625507 259.587603 
L 576.288981 258.755566 
L 576.29738 257.94953 
L 576.468148 478.543378 
L 576.468148 464.606756 
L 576.960855 457.638445 
L 577.307989 447.289983 
L 577.632728 442.999791 
L 577.803496 439.099617 
L 577.809095 435.485456 
L 578.304601 432.079304 
L 578.3102 428.881161 
L 578.478168 425.839025 
L 578.976475 422.926895 
L 578.982073 420.144771 
L 579.150042 417.466651 
L 579.648348 414.892536 
L 579.653947 412.396425 
L 579.819116 409.978317 
L 580.320221 407.638212 
L 580.328619 403.140012 
L 580.992094 400.981915 
L 581.000493 396.82173 
L 581.663968 394.793639 
L 581.672366 390.893465 
L 582.335841 388.99538 
L 582.344239 385.303215 
L 583.007714 383.509135 
L 583.016113 379.998979 
L 583.679587 378.282902 
L 583.687986 374.928752 
L 584.351461 373.290679 
L 584.359859 370.092536 
L 585.023334 368.506465 
L 585.031732 365.412327 
L 585.695207 363.90426 
L 585.703606 360.914127 
L 586.367081 359.458062 
L 586.375479 356.571933 
L 587.038954 355.16787 
L 587.047352 352.385746 
L 587.710827 351.007684 
L 587.716426 349.655624 
L 588.3827 348.303564 
L 588.391099 464.606756 
L 588.553468 470.223006 
L 588.553468 464.606756 
L 589.054574 457.638445 
L 589.401708 447.289983 
L 589.726447 442.999791 
L 589.897215 439.099617 
L 589.902814 435.485456 
L 590.39832 432.079304 
L 590.403919 428.881161 
L 590.571888 425.839025 
L 591.070194 422.926895 
L 591.075793 420.144771 
L 591.243761 417.466651 
L 591.742067 414.892536 
L 591.747666 412.396425 
L 591.912835 409.978317 
L 592.41394 407.638212 
L 592.422339 403.140012 
L 593.085813 400.981915 
L 593.094212 396.82173 
L 593.757687 394.793639 
L 593.766085 390.893465 
L 594.42956 388.99538 
L 594.437958 385.303215 
L 595.101433 383.509135 
L 595.109832 379.998979 
L 595.773307 378.282902 
L 595.781705 374.928752 
L 596.44518 373.290679 
L 596.453578 370.092536 
L 597.117053 368.506465 
L 597.125452 365.412327 
L 597.788926 363.90426 
L 597.797325 360.914127 
L 598.4608 359.458062 
L 598.469198 356.571933 
L 599.132673 355.16787 
L 599.141071 352.385746 
L 599.804546 351.007684 
L 599.812945 348.303564 
L 600.47642 346.977504 
L 600.484818 344.351387 
L 601.148293 343.051329 
L 601.156691 340.503215 
L 601.820166 339.229158 
L 601.828565 336.733047 
L 602.492039 335.510992 
L 602.500438 333.066883 
L 603.163913 331.87083 
L 603.172311 329.478723 
L 603.835786 328.308671 
L 603.844184 325.968566 
L 604.507659 324.824515 
L 604.516058 322.536413 
L 605.179533 321.418363 
L 605.187931 319.182263 
L 605.851406 318.064214 
L 605.859804 315.880116 
L 606.523279 314.788067 
L 606.531678 312.629971 
L 607.195152 311.563923 
L 607.203551 309.431828 
L 607.867026 308.391782 
L 607.875424 306.311689 
L 608.538899 305.271642 
L 608.547297 303.243552 
L 609.210772 302.229507 
L 609.219171 300.201416 
L 609.882646 299.213372 
L 609.891044 297.237284 
L 610.554519 296.24924 
L 610.562917 294.299153 
L 611.226392 293.33711 
L 611.234791 291.413024 
L 612.567339 289.514939 
L 612.578537 460.44657 
L 612.738107 461.902635 
L 612.738107 460.44657 
L 613.242012 454.388299 
L 613.586347 444.819872 
L 613.913885 440.763691 
L 614.084653 437.019524 
L 614.090252 433.535369 
L 614.585759 430.259222 
L 614.591357 427.139083 
L 614.759326 424.174951 
L 615.257632 421.340824 
L 615.263231 418.610702 
L 615.4284 415.984585 
L 615.929505 413.462472 
L 615.937903 408.652258 
L 616.601378 406.338154 
L 616.609777 401.917957 
L 617.273252 399.785862 
L 617.28165 395.677678 
L 617.945125 393.675589 
L 617.953523 389.801416 
L 618.616998 387.929333 
L 618.625397 384.263169 
L 619.288871 382.469089 
L 619.29727 379.010934 
L 619.960745 377.320859 
L 619.969143 374.018712 
L 620.632618 372.380638 
L 620.641016 369.182496 
L 621.304491 367.622426 
L 621.31289 364.554289 
L 621.976365 363.046222 
L 621.984763 360.082089 
L 622.648238 358.626024 
L 622.656636 355.765897 
L 623.32851 354.361834 
L 623.499277 470.223006 
L 623.499277 464.606756 
L 623.991984 457.638445 
L 624.339119 447.289983 
L 624.663858 442.999791 
L 624.834626 439.099617 
L 624.840224 435.485456 
L 625.335731 432.079304 
L 625.34133 428.881161 
L 625.509298 425.839025 
L 626.007604 422.926895 
L 626.013203 420.144771 
L 626.181172 417.466651 
L 626.679478 414.892536 
L 626.685077 412.396425 
L 626.850245 409.978317 
L 627.351351 407.638212 
L 627.359749 403.140012 
L 628.023224 400.981915 
L 628.031623 396.82173 
L 628.695097 394.793639 
L 628.703496 390.893465 
L 629.366971 388.99538 
L 629.375369 385.303215 
L 630.038844 383.509135 
L 630.047242 379.998979 
L 630.710717 378.282902 
L 630.719116 374.928752 
L 631.382591 373.290679 
L 631.390989 370.092536 
L 632.054464 368.506465 
L 632.062862 365.412327 
L 632.726337 363.90426 
L 632.734736 360.914127 
L 633.39821 359.458062 
L 633.406609 356.571933 
L 634.070084 355.16787 
L 634.078482 352.385746 
L 634.741957 351.007684 
L 634.750355 348.303564 
L 635.41383 346.977504 
L 635.422229 344.351387 
L 636.085704 343.051329 
L 636.094102 340.503215 
L 636.757577 339.229158 
L 636.765975 336.733047 
L 637.42945 335.510992 
L 637.437849 333.066883 
L 638.101323 331.87083 
L 638.109722 329.478723 
L 638.773197 328.308671 
L 638.781595 325.968566 
L 639.44507 324.824515 
L 639.453468 322.536413 
L 640.116943 321.418363 
L 640.125342 319.182263 
L 640.788817 318.064214 
L 640.797215 315.880116 
L 641.46069 314.788067 
L 641.469088 312.629971 
L 642.132563 311.563923 
L 642.140962 309.431828 
L 642.804436 308.391782 
L 642.812835 307.351735 
L 642.983603 478.543378 
L 642.983603 464.606756 
L 643.47631 457.638445 
L 643.823444 447.289983 
L 644.148183 442.999791 
L 644.318951 439.099617 
L 644.32455 435.485456 
L 644.820056 432.079304 
L 644.825655 428.881161 
L 644.993624 425.839025 
L 645.49193 422.926895 
L 645.497528 420.144771 
L 645.665497 417.466651 
L 646.172201 414.892536 
L 646.342969 470.223006 
L 646.342969 464.606756 
L 652.431821 457.638445 
L 652.944124 452.074196 
L 653.114892 478.543378 
L 653.114892 464.606756 
L 653.635594 447.289983 
L 654.321464 428.881161 
L 654.327063 425.839025 
L 654.495032 422.926895 
L 654.50063 420.144771 
L 654.668599 417.466651 
L 654.674198 414.892536 
L 654.839367 412.396425 
L 654.844966 409.978317 
L 655.010134 407.638212 
L 655.021332 403.140012 
L 655.183702 400.981915 
L 655.1949 396.82173 
L 655.357269 394.793639 
L 655.368467 390.893465 
L 655.528037 388.99538 
L 655.539235 385.303215 
L 655.698805 383.509135 
L 655.710002 379.998979 
L 655.869572 378.282902 
L 655.886369 373.290679 
L 656.04314 371.678607 
L 656.051538 368.506465 
L 656.241902 366.946396 
L 656.2503 363.90426 
L 656.913775 362.396193 
L 656.922174 359.458062 
L 657.585649 358.001997 
L 657.594047 355.16787 
L 658.257522 353.763807 
L 658.26592 351.007684 
L 658.929395 349.655624 
L 658.937794 346.977504 
L 659.601268 345.651445 
L 659.609667 343.051329 
L 660.273142 341.777272 
L 660.28154 339.229158 
L 660.945015 337.981103 
L 660.953413 335.510992 
L 661.616888 334.288938 
L 661.625287 331.87083 
L 662.288762 330.674777 
L 662.29716 328.308671 
L 662.960635 327.138619 
L 662.969033 324.824515 
L 663.632508 323.680464 
L 663.640907 321.418363 
L 664.304381 320.300313 
L 664.31278 318.064214 
L 664.976255 316.972165 
L 664.984653 314.788067 
L 665.648128 313.696019 
L 665.656526 311.563923 
L 666.320001 310.497876 
L 666.3284 308.391782 
L 666.991875 307.351735 
L 667.000273 305.271642 
L 667.663748 304.257597 
L 667.672146 302.229507 
L 668.335621 301.215461 
L 668.34402 299.213372 
L 669.007494 298.225328 
L 669.015893 296.24924 
L 669.679368 295.261196 
L 669.687766 293.33711 
L 670.351241 292.375067 
L 670.359639 290.450981 
L 671.023114 289.514939 
L 671.031513 287.642855 
L 671.694988 286.706814 
L 671.703386 284.83473 
L 672.366861 283.924689 
L 672.375259 282.104608 
L 673.038734 281.194568 
L 673.047133 279.374486 
L 673.710607 278.464446 
L 673.719006 276.696367 
L 674.382481 275.812327 
L 674.390879 274.044248 
L 675.054354 273.160209 
L 675.062752 271.418131 
L 675.726227 270.560093 
L 675.734626 268.844016 
L 676.398101 267.985978 
L 676.4037 267.12794 
L 677.072773 266.269901 
L 677.078372 464.606756 
L 677.243541 467.518886 
L 677.243541 464.606756 
L 677.741847 457.638445 
L 678.088982 447.289983 
L 678.41372 442.999791 
L 678.584488 439.099617 
L 678.590087 435.485456 
L 679.085594 432.079304 
L 679.091193 428.881161 
L 679.259161 425.839025 
L 679.757467 422.926895 
L 679.763066 420.144771 
L 679.931034 417.466651 
L 680.42934 414.892536 
L 680.434939 412.396425 
L 680.600108 409.978317 
L 681.101214 407.638212 
L 681.109612 403.140012 
L 681.773087 400.981915 
L 681.781485 396.82173 
L 682.44496 394.793639 
L 682.453359 390.893465 
L 683.116833 388.99538 
L 683.125232 385.303215 
L 683.788707 383.509135 
L 683.797105 379.998979 
L 684.46058 378.282902 
L 684.468978 374.928752 
L 685.132453 373.290679 
L 685.140852 370.092536 
L 685.804327 368.506465 
L 685.812725 365.412327 
L 686.4762 363.90426 
L 686.484598 360.914127 
L 687.148073 359.458062 
L 687.156472 356.571933 
L 687.819946 355.16787 
L 687.828345 352.385746 
L 688.49182 351.007684 
L 688.500218 348.303564 
L 689.163693 346.977504 
L 689.172091 344.351387 
L 689.835566 343.051329 
L 689.843965 340.503215 
L 690.50744 339.229158 
L 690.515838 336.733047 
L 691.179313 335.510992 
L 691.187711 333.066883 
L 691.851186 331.87083 
L 691.859585 329.478723 
L 692.523059 328.308671 
L 692.531458 325.968566 
L 693.194933 324.824515 
L 693.203331 322.536413 
L 693.866806 321.418363 
L 693.875204 319.182263 
L 694.538679 318.064214 
L 694.547078 315.880116 
L 695.210553 314.788067 
L 695.218951 312.629971 
L 695.882426 311.563923 
L 695.890824 309.431828 
L 696.554299 308.391782 
L 696.562697 306.311689 
L 697.226172 305.271642 
L 697.234571 303.243552 
L 697.898046 302.229507 
L 697.906444 300.201416 
L 698.569919 299.213372 
L 698.578317 297.237284 
L 699.241792 296.24924 
L 699.250191 294.299153 
L 699.913665 293.33711 
L 699.922064 291.413024 
L 700.585539 290.450981 
L 700.593937 288.578897 
L 701.257412 287.642855 
L 701.26581 285.770772 
L 701.929285 284.83473 
L 701.937684 283.014649 
L 702.601159 282.104608 
L 702.609557 280.284527 
L 703.273032 279.374486 
L 703.28143 277.580406 
L 703.944905 276.696367 
L 703.953304 274.928288 
L 704.616778 274.044248 
L 704.625177 272.276169 
L 705.288652 271.418131 
L 705.29705 269.702055 
L 705.960525 268.844016 
L 705.968923 267.12794 
L 706.632398 266.269901 
L 706.640797 264.579826 
L 707.304272 263.747789 
L 707.31267 262.083714 
L 707.976145 261.251677 
L 707.984543 259.587603 
L 708.648018 258.755566 
L 708.656417 257.143494 
L 709.319891 256.337458 
L 709.32829 254.725386 
L 709.991765 253.91935 
L 710.000163 252.307278 
L 710.663638 251.501242 
L 710.672036 249.941172 
L 711.335511 249.161138 
L 711.34391 247.601068 
L 712.007385 246.821033 
L 712.015783 245.260963 
L 712.679258 244.480929 
L 712.687656 242.920859 
L 713.351131 242.166825 
L 713.35953 240.658758 
L 714.023004 239.904724 
L 714.031403 238.396657 
L 714.694878 237.642623 
L 714.703276 236.134556 
L 715.366751 235.380522 
L 715.375149 233.898456 
L 716.038624 233.170424 
L 716.047023 231.714359 
L 716.710498 230.986326 
L 716.718896 229.530261 
L 717.382371 228.802229 
L 717.390769 227.346164 
L 718.054244 226.618131 
L 718.062643 225.162066 
L 718.726117 224.460035 
L 718.734516 223.055972 
L 719.406389 222.353941 
L 719.577157 470.223006 
L 719.577157 464.606756 
L 720.069864 457.638445 
L 720.416999 447.289983 
L 720.741737 442.999791 
L 720.912505 439.099617 
L 720.918104 435.485456 
L 721.413611 432.079304 
L 721.419209 428.881161 
L 721.587178 425.839025 
L 722.085484 422.926895 
L 722.091083 420.144771 
L 722.259051 417.466651 
L 722.757357 414.892536 
L 722.762956 412.396425 
L 722.928125 409.978317 
L 723.42923 407.638212 
L 723.437629 403.140012 
L 724.101104 400.981915 
L 724.109502 396.82173 
L 724.772977 394.793639 
L 724.781375 390.893465 
L 725.44485 388.99538 
L 725.453249 385.303215 
L 726.116724 383.509135 
L 726.125122 379.998979 
L 726.788597 378.282902 
L 726.796995 374.928752 
L 727.46047 373.290679 
L 727.468869 370.092536 
L 728.132343 368.506465 
L 728.140742 365.412327 
L 728.804217 363.90426 
L 728.812615 360.914127 
L 729.47609 359.458062 
L 729.484488 356.571933 
L 730.147963 355.16787 
L 730.156362 352.385746 
L 730.819837 351.007684 
L 730.828235 348.303564 
L 731.49171 346.977504 
L 731.500108 344.351387 
L 732.163583 343.051329 
L 732.171981 340.503215 
L 732.835456 339.229158 
L 732.843855 336.733047 
L 733.50733 335.510992 
L 733.515728 333.066883 
L 734.179203 331.87083 
L 734.187601 329.478723 
L 734.851076 328.308671 
L 734.859475 325.968566 
L 735.522949 324.824515 
L 735.531348 322.536413 
L 736.194823 321.418363 
L 736.203221 319.182263 
L 736.866696 318.064214 
L 736.875094 315.880116 
L 737.538569 314.788067 
L 737.546968 312.629971 
L 738.210443 311.563923 
L 738.218841 309.431828 
L 738.882316 308.391782 
L 738.890714 306.311689 
L 739.554189 305.271642 
L 739.562588 303.243552 
L 740.226062 302.229507 
L 740.234461 300.201416 
L 740.897936 299.213372 
L 740.906334 297.237284 
L 741.569809 296.24924 
L 741.578207 294.299153 
L 742.241682 293.33711 
L 742.250081 291.413024 
L 742.913556 290.450981 
L 742.921954 288.578897 
L 743.585429 287.642855 
L 743.593827 285.770772 
L 744.257302 284.83473 
L 744.265701 283.014649 
L 744.929175 282.104608 
L 744.937574 280.284527 
L 745.601049 279.374486 
L 745.609447 277.580406 
L 746.272922 276.696367 
L 746.28132 274.928288 
L 746.944795 274.044248 
L 746.953194 272.276169 
L 747.616669 271.418131 
L 747.625067 269.702055 
L 748.288542 268.844016 
L 748.29694 267.12794 
L 748.960415 266.269901 
L 748.968814 264.579826 
L 749.632288 263.747789 
L 749.640687 262.083714 
L 750.304162 261.251677 
L 750.31256 259.587603 
L 750.976035 258.755566 
L 750.984433 257.143494 
L 751.647908 256.337458 
L 751.656307 254.725386 
L 752.319782 253.91935 
L 752.32818 252.307278 
L 752.991655 251.501242 
L 753.000053 249.941172 
L 753.663528 249.161138 
L 753.671927 247.601068 
L 754.335401 246.821033 
L 754.3438 245.260963 
L 755.007275 244.480929 
L 755.015673 242.920859 
L 755.679148 242.166825 
L 755.687546 240.658758 
L 756.351021 239.904724 
L 756.35942 238.396657 
L 757.022895 237.642623 
L 757.031293 236.134556 
L 757.694768 235.380522 
L 757.703166 233.898456 
L 758.366641 233.170424 
L 758.37504 231.714359 
L 759.038514 230.986326 
L 759.046913 229.530261 
L 759.710388 228.802229 
L 759.718786 227.346164 
L 760.382261 226.618131 
L 760.390659 225.162066 
L 761.054134 224.460035 
L 761.062533 223.055972 
L 761.726008 222.353941 
L 761.734406 220.949878 
L 762.397881 220.247847 
L 762.406279 218.843784 
L 763.069754 218.141753 
L 763.078153 216.73769 
L 763.741627 216.035659 
L 763.750026 214.657597 
L 764.413501 213.981567 
L 764.421899 212.629507 
L 765.085374 211.953476 
L 765.093772 210.601416 
L 765.757247 209.925386 
L 765.765646 208.573326 
L 766.429121 207.897295 
L 766.437519 206.545235 
L 767.100994 205.869205 
L 767.109392 204.517145 
L 767.772867 203.867115 
L 767.781266 202.567057 
L 768.44474 201.917028 
L 768.453139 200.61697 
L 769.116614 199.966941 
L 769.125012 198.666883 
L 769.788487 198.016854 
L 769.796885 196.716796 
L 770.46036 196.066767 
L 770.468759 194.766709 
L 771.132234 194.11668 
L 771.140632 192.842623 
L 771.804107 192.218595 
L 771.812505 190.97054 
L 772.47598 190.346512 
L 772.484378 189.098456 
L 773.147853 188.474428 
L 773.156252 187.226373 
L 773.819727 186.602345 
L 773.828125 185.354289 
L 774.4916 184.730261 
L 774.499998 183.482205 
L 775.163473 182.858178 
L 775.171872 181.610122 
L 775.835346 180.986094 
L 775.843745 179.790041 
L 776.50722 179.192014 
L 776.515618 177.995961 
L 777.179093 177.397934 
L 777.187491 176.20188 
L 777.850966 175.603854 
L 777.859365 174.4078 
L 778.52284 173.809774 
L 778.531238 172.61372 
L 779.194713 172.015694 
L 779.203111 170.81964 
L 779.866586 170.221613 
L 779.874985 169.02556 
L 780.538459 168.427533 
L 780.546858 167.23148 
L 781.210333 166.659454 
L 781.218731 165.515403 
L 781.882206 164.943378 
L 781.890604 163.799327 
L 782.554079 163.227301 
L 782.562478 162.08325 
L 783.225953 161.511225 
L 783.234351 160.367174 
L 783.903425 159.795148 
L 783.906224 464.606756 
L 784.074193 470.223006 
L 784.074193 464.606756 
L 784.569699 457.638445 
L 784.916834 447.289983 
L 785.241572 442.999791 
L 785.41234 439.099617 
L 785.417939 435.485456 
L 785.913446 432.079304 
L 785.919045 428.881161 
L 786.087013 425.839025 
L 786.585319 422.926895 
L 786.590918 420.144771 
L 786.758886 417.466651 
L 787.257192 414.892536 
L 787.262791 412.396425 
L 787.42796 409.978317 
L 787.929066 407.638212 
L 787.937464 403.140012 
L 788.600939 400.981915 
L 788.609337 396.82173 
L 789.272812 394.793639 
L 789.281211 390.893465 
L 789.944685 388.99538 
L 789.953084 385.303215 
L 790.616559 383.509135 
L 790.624957 379.998979 
L 791.294031 378.282902 
L 791.29683 464.606756 
L 791.464799 470.223006 
L 791.464799 464.606756 
L 791.960305 457.638445 
L 792.30744 447.289983 
L 792.632179 442.999791 
L 792.802946 439.099617 
L 792.808545 435.485456 
L 793.304052 432.079304 
L 793.309651 428.881161 
L 793.477619 425.839025 
L 793.975925 422.926895 
L 793.981524 420.144771 
L 794.149492 417.466651 
L 794.647798 414.892536 
L 794.653397 412.396425 
L 794.818566 409.978317 
L 795.319672 407.638212 
L 795.32807 403.140012 
L 795.991545 400.981915 
L 795.999943 396.82173 
L 796.663418 394.793639 
L 796.671817 390.893465 
L 797.335292 388.99538 
L 797.34369 385.303215 
L 798.007165 383.509135 
L 798.015563 379.998979 
L 798.679038 378.282902 
L 798.687437 374.928752 
L 799.350911 373.290679 
L 799.35931 370.092536 
L 800.022785 368.506465 
L 800.031183 365.412327 
L 800.694658 363.90426 
L 800.703056 360.914127 
L 801.366531 359.458062 
L 801.37493 356.571933 
L 802.038405 355.16787 
L 802.046803 352.385746 
L 802.710278 351.007684 
L 802.718676 348.303564 
L 803.382151 346.977504 
L 803.39055 344.351387 
L 804.054024 343.051329 
L 804.062423 340.503215 
L 804.725898 339.229158 
L 804.734296 336.733047 
L 805.397771 335.510992 
L 805.406169 333.066883 
L 806.069644 331.87083 
L 806.078043 329.478723 
L 806.741518 328.308671 
L 806.749916 325.968566 
L 807.413391 324.824515 
L 807.421789 322.536413 
L 808.085264 321.418363 
L 808.093663 319.182263 
L 808.757137 318.064214 
L 808.765536 315.880116 
L 809.429011 314.788067 
L 809.437409 312.629971 
L 810.100884 311.563923 
L 810.109282 309.431828 
L 810.772757 308.391782 
L 810.781156 306.311689 
L 811.444631 305.271642 
L 811.453029 303.243552 
L 812.116504 302.229507 
L 812.124902 300.201416 
L 812.788377 299.213372 
L 812.796775 297.237284 
L 813.46025 296.24924 
L 813.468649 294.299153 
L 814.132124 293.33711 
L 814.140522 291.413024 
L 814.803997 290.450981 
L 814.812395 288.578897 
L 815.47587 287.642855 
L 815.484269 285.770772 
L 816.147743 284.83473 
L 816.156142 283.014649 
L 816.819617 282.104608 
L 816.828015 280.284527 
L 817.49149 279.374486 
L 817.499888 277.580406 
L 818.163363 276.696367 
L 818.171762 274.928288 
L 818.835237 274.044248 
L 818.843635 272.276169 
L 819.50711 271.418131 
L 819.515508 269.702055 
L 820.178983 268.844016 
L 820.187382 267.12794 
L 820.850856 266.269901 
L 820.859255 264.579826 
L 821.52273 263.747789 
L 821.531128 262.083714 
L 822.194603 261.251677 
L 822.203001 259.587603 
L 822.866476 258.755566 
L 822.874875 257.143494 
L 823.53835 256.337458 
L 823.546748 254.725386 
L 824.210223 253.91935 
L 824.218621 252.307278 
L 824.882096 251.501242 
L 824.890495 249.941172 
L 825.553969 249.161138 
L 825.562368 247.601068 
L 826.225843 246.821033 
L 826.234241 245.260963 
L 826.897716 244.480929 
L 826.906114 242.920859 
L 827.569589 242.166825 
L 827.577988 240.658758 
L 828.241463 239.904724 
L 828.249861 238.396657 
L 828.913336 237.642623 
L 828.921734 236.134556 
L 829.585209 235.380522 
L 829.593608 233.898456 
L 830.257082 233.170424 
L 830.265481 231.714359 
L 830.928956 230.986326 
L 830.937354 229.530261 
L 831.600829 228.802229 
L 831.609227 227.346164 
L 832.272702 226.618131 
L 832.281101 225.162066 
L 832.944576 224.460035 
L 832.952974 223.055972 
L 833.616449 222.353941 
L 833.624847 220.949878 
L 834.288322 220.247847 
L 834.296721 218.843784 
L 834.960195 218.141753 
L 834.968594 216.73769 
L 835.632069 216.035659 
L 835.640467 214.657597 
L 836.303942 213.981567 
L 836.31234 212.629507 
L 836.975815 211.953476 
L 836.984214 210.601416 
L 837.647689 209.925386 
L 837.656087 208.573326 
L 838.319562 207.897295 
L 838.32796 206.545235 
L 838.991435 205.869205 
L 838.999834 204.517145 
L 839.663308 203.867115 
L 839.671707 202.567057 
L 840.335182 201.917028 
L 840.34358 200.61697 
L 841.007055 199.966941 
L 841.015453 198.666883 
L 841.678928 198.016854 
L 841.687327 196.716796 
L 842.350802 196.066767 
L 842.3592 194.766709 
L 843.022675 194.11668 
L 843.031073 192.842623 
L 843.694548 192.218595 
L 843.702947 190.97054 
L 844.366421 190.346512 
L 844.37482 189.098456 
L 845.038295 188.474428 
L 845.046693 187.226373 
L 845.710168 186.602345 
L 845.718566 185.354289 
L 846.382041 184.730261 
L 846.39044 183.482205 
L 847.053915 182.858178 
L 847.062313 181.610122 
L 847.725788 180.986094 
L 847.734186 179.790041 
L 848.397661 179.192014 
L 848.40606 177.995961 
L 849.069534 177.397934 
L 849.077933 176.20188 
L 849.741408 175.603854 
L 849.749806 174.4078 
L 850.413281 173.809774 
L 850.421679 172.61372 
L 851.085154 172.015694 
L 851.093553 170.81964 
L 851.757028 170.221613 
L 851.765426 169.02556 
L 852.428901 168.427533 
L 852.437299 167.23148 
L 853.100774 166.659454 
L 853.109172 165.515403 
L 853.772647 164.943378 
L 853.781046 163.799327 
L 854.444521 163.227301 
L 854.452919 162.08325 
L 855.116394 161.511225 
L 855.124792 160.367174 
L 855.788267 159.795148 
L 855.796666 158.651097 
L 856.46014 158.079071 
L 856.468539 156.93502 
L 857.132014 156.362995 
L 857.140412 155.218944 
L 857.803887 154.646918 
L 857.812285 153.502867 
L 858.47576 152.930842 
L 858.484159 151.838793 
L 859.147634 151.292768 
L 859.156032 150.20072 
L 859.819507 149.654695 
L 859.827905 148.562647 
L 860.49138 148.016622 
L 860.499779 146.924573 
L 861.163253 146.378549 
L 861.171652 145.2865 
L 861.835127 144.740476 
L 861.843525 143.648427 
L 862.507 143.102403 
L 862.515398 142.010354 
L 863.178873 141.46433 
L 863.187272 140.372281 
L 863.850747 139.826257 
L 863.859145 138.734208 
L 864.52262 138.188183 
L 864.531018 137.096135 
L 865.194493 136.55011 
L 865.202892 135.510064 
L 865.866366 134.990041 
L 865.874765 133.949994 
L 866.53824 133.429971 
L 866.546638 132.389925 
L 867.210113 131.869901 
L 867.218511 130.829855 
L 867.881986 130.309832 
L 867.890385 129.269785 
L 868.55386 128.749762 
L 868.562258 127.709716 
L 869.225733 127.189692 
L 869.234131 126.149646 
L 869.897606 125.629623 
L 869.906005 124.589576 
L 870.569479 124.069553 
L 870.577878 123.029507 
L 871.241353 122.509483 
L 871.249751 121.469437 
L 871.913226 120.949414 
L 871.921624 119.909367 
L 872.585099 119.389344 
L 872.593498 118.375299 
L 873.256973 117.881277 
L 873.265371 116.893233 
L 873.928846 116.399211 
L 873.937244 115.411167 
L 874.600719 114.917145 
L 874.609118 113.9291 
L 875.272592 113.435078 
L 875.280991 112.447034 
L 875.944466 111.953012 
L 875.952864 110.964968 
L 876.616339 110.470946 
L 876.624737 109.482902 
L 877.288212 108.98888 
L 877.296611 108.000836 
L 877.960086 107.506814 
L 877.968484 106.51877 
L 878.631959 106.024748 
L 878.640357 105.036703 
L 879.303832 104.542681 
L 879.312231 103.554637 
L 879.975705 103.060615 
L 879.984104 102.072571 
L 880.647579 101.578549 
L 880.655977 100.590505 
L 881.319452 100.096483 
L 881.32785 99.108439 
L 881.991325 98.640418 
L 881.999724 97.704376 
L 882.663199 97.236355 
L 882.671597 96.300313 
L 883.335072 95.832293 
L 883.34347 94.896251 
L 884.006945 94.42823 
L 884.015344 93.492188 
L 884.678818 93.024167 
L 884.687217 92.088125 
L 885.350692 91.620104 
L 885.35909 90.684063 
L 886.022565 90.216042 
L 886.028164 89.748021 
L 886.694438 89.28 
L 886.702837 464.606756 
L 886.865206 470.223006 
L 886.865206 464.606756 
L 887.366312 457.638445 
L 887.713446 447.289983 
L 888.038185 442.999791 
L 888.208953 439.099617 
L 888.214552 435.485456 
L 888.710058 432.079304 
L 888.715657 428.881161 
L 888.883625 425.839025 
L 889.381931 422.926895 
L 889.38753 420.144771 
L 889.555499 417.466651 
L 890.053805 414.892536 
L 890.059404 412.396425 
L 890.224572 409.978317 
L 890.725678 407.638212 
L 890.734076 403.140012 
L 891.397551 400.981915 
L 891.40595 396.82173 
L 892.069424 394.793639 
L 892.077823 390.893465 
L 892.741298 388.99538 
L 892.749696 385.303215 
L 893.413171 383.509135 
L 893.421569 379.998979 
L 894.085044 378.282902 
L 894.093443 374.928752 
L 894.756918 373.290679 
L 894.765316 370.092536 
L 895.428791 368.506465 
L 895.437189 365.412327 
L 896.100664 363.90426 
L 896.109063 360.914127 
L 896.772537 359.458062 
L 896.780936 356.571933 
L 897.444411 355.16787 
L 897.452809 352.385746 
L 898.116284 351.007684 
L 898.124682 348.303564 
L 898.788157 346.977504 
L 898.796556 344.351387 
L 899.460031 343.051329 
L 899.468429 340.503215 
L 900.131904 339.229158 
L 900.140302 336.733047 
L 900.803777 335.510992 
L 900.812176 333.066883 
L 901.47565 331.87083 
L 901.484049 329.478723 
L 902.147524 328.308671 
L 902.155922 325.968566 
L 902.819397 324.824515 
L 902.827795 322.536413 
L 903.49127 321.418363 
L 903.499669 319.182263 
L 904.163144 318.064214 
L 904.171542 315.880116 
L 904.835017 314.788067 
L 904.843415 312.629971 
L 905.50689 311.563923 
L 905.515289 309.431828 
L 906.178763 308.391782 
L 906.187162 306.311689 
L 906.850637 305.271642 
L 906.859035 303.243552 
L 907.52251 302.229507 
L 907.530908 300.201416 
L 908.194383 299.213372 
L 908.202782 297.237284 
L 908.866257 296.24924 
L 908.874655 294.299153 
L 909.53813 293.33711 
L 909.546528 291.413024 
L 910.215602 290.450981 
L 910.218402 464.606756 
L 910.38637 470.223006 
L 910.38637 464.606756 
L 910.881876 457.638445 
L 911.229011 447.289983 
L 911.55375 442.999791 
L 911.724518 439.099617 
L 911.730116 435.485456 
L 912.225623 432.079304 
L 912.231222 428.881161 
L 912.39919 425.839025 
L 912.897496 422.926895 
L 912.903095 420.144771 
L 913.071064 417.466651 
L 913.56937 414.892536 
L 913.574969 412.396425 
L 913.740137 409.978317 
L 914.241243 407.638212 
L 914.249641 403.140012 
L 914.913116 400.981915 
L 914.921515 396.82173 
L 915.584989 394.793639 
L 915.593388 390.893465 
L 916.256863 388.99538 
L 916.265261 385.303215 
L 916.928736 383.509135 
L 916.937134 379.998979 
L 917.600609 378.282902 
L 917.609008 374.928752 
L 918.272483 373.290679 
L 918.280881 370.092536 
L 918.944356 368.506465 
L 918.952754 365.412327 
L 919.616229 363.90426 
L 919.624628 360.914127 
L 920.288102 359.458062 
L 920.296501 356.571933 
L 920.959976 355.16787 
L 920.968374 352.385746 
L 921.631849 351.007684 
L 921.640247 348.303564 
L 922.303722 346.977504 
L 922.312121 344.351387 
L 922.975596 343.051329 
L 922.983994 340.503215 
L 923.647469 339.229158 
L 923.655867 336.733047 
L 924.319342 335.510992 
L 924.327741 333.066883 
L 924.991215 331.87083 
L 924.999614 329.478723 
L 925.663089 328.308671 
L 925.671487 325.968566 
L 926.334962 324.824515 
L 926.34336 322.536413 
L 927.006835 321.418363 
L 927.015234 319.182263 
L 927.678709 318.064214 
L 927.687107 315.880116 
L 928.350582 314.788067 
L 928.35898 312.629971 
L 929.022455 311.563923 
L 929.030853 309.431828 
L 929.694328 308.391782 
L 929.702727 306.311689 
L 930.366202 305.271642 
L 930.3746 303.243552 
L 931.038075 302.229507 
L 931.046473 300.201416 
L 931.709948 299.213372 
L 931.718347 297.237284 
L 932.381821 296.24924 
L 932.39022 294.299153 
L 933.053695 293.33711 
L 933.062093 291.413024 
L 933.725568 290.450981 
L 933.733966 288.578897 
L 934.397441 287.642855 
L 934.40584 285.770772 
L 935.069315 284.83473 
L 935.077713 283.014649 
L 935.741188 282.104608 
L 935.749586 280.284527 
L 936.413061 279.374486 
L 936.42146 277.580406 
L 937.084934 276.696367 
L 937.093333 274.928288 
L 937.756808 274.044248 
L 937.765206 272.276169 
L 938.428681 271.418131 
L 938.437079 269.702055 
L 939.100554 268.844016 
L 939.108953 267.12794 
L 939.772428 266.269901 
L 939.780826 264.579826 
L 940.444301 263.747789 
L 940.452699 262.083714 
L 941.116174 261.251677 
L 941.124573 259.587603 
L 941.793646 258.755566 
L 941.796446 464.606756 
L 941.964414 470.223006 
L 941.964414 464.606756 
L 942.459921 457.638445 
L 942.807055 447.289983 
L 943.131794 442.999791 
L 943.302562 439.099617 
L 943.308161 435.485456 
L 943.803667 432.079304 
L 943.809266 428.881161 
L 943.977235 425.839025 
L 944.475541 422.926895 
L 944.48114 420.144771 
L 944.649108 417.466651 
L 945.147414 414.892536 
L 945.153013 412.396425 
L 945.318182 409.978317 
L 945.819287 407.638212 
L 945.827686 403.140012 
L 946.49116 400.981915 
L 946.499559 396.82173 
L 947.163034 394.793639 
L 947.171432 390.893465 
L 947.834907 388.99538 
L 947.843305 385.303215 
L 948.50678 383.509135 
L 948.515179 379.998979 
L 949.178654 378.282902 
L 949.187052 374.928752 
L 949.850527 373.290679 
L 949.858925 370.092536 
L 950.5224 368.506465 
L 950.530799 365.412327 
L 951.194273 363.90426 
L 951.202672 360.914127 
L 951.866147 359.458062 
L 951.874545 356.571933 
L 952.53802 355.16787 
L 952.546418 352.385746 
L 953.209893 351.007684 
L 953.218292 348.303564 
L 953.881767 346.977504 
L 953.890165 344.351387 
L 954.55364 343.051329 
L 954.562038 340.503215 
L 955.225513 339.229158 
L 955.233912 336.733047 
L 955.897386 335.510992 
L 955.905785 333.066883 
L 956.56926 331.87083 
L 956.577658 329.478723 
L 957.241133 328.308671 
L 957.249531 325.968566 
L 957.913006 324.824515 
L 957.921405 322.536413 
L 958.58488 321.418363 
L 958.593278 319.182263 
L 959.256753 318.064214 
L 959.265151 315.880116 
L 959.928626 314.788067 
L 959.937025 312.629971 
L 960.600499 311.563923 
L 960.608898 309.431828 
L 961.272373 308.391782 
L 961.280771 306.311689 
L 961.944246 305.271642 
L 961.952644 303.243552 
L 962.616119 302.229507 
L 962.624518 300.201416 
L 963.287993 299.213372 
L 963.296391 297.237284 
L 963.959866 296.24924 
L 963.968264 294.299153 
L 964.631739 293.33711 
L 964.640138 291.413024 
L 965.303612 290.450981 
L 965.312011 288.578897 
L 965.975486 287.642855 
L 965.983884 285.770772 
L 966.647359 284.83473 
L 966.655757 283.014649 
L 967.319232 282.104608 
L 967.327631 280.284527 
L 967.991106 279.374486 
L 967.999504 277.580406 
L 968.662979 276.696367 
L 968.671377 274.928288 
L 969.334852 274.044248 
L 969.34325 272.276169 
L 970.006725 271.418131 
L 970.015124 269.702055 
L 970.678599 268.844016 
L 970.686997 267.12794 
L 971.350472 266.269901 
L 971.35887 264.579826 
L 972.022345 263.747789 
L 972.030744 262.083714 
L 972.694218 261.251677 
L 972.702617 259.587603 
L 973.366092 258.755566 
L 973.37449 257.143494 
L 974.037965 256.337458 
L 974.046363 254.725386 
L 974.709838 253.91935 
L 974.718237 252.307278 
L 975.381712 251.501242 
L 975.39011 249.941172 
L 976.053585 249.161138 
L 976.061983 247.601068 
L 976.725458 246.821033 
L 976.733857 245.260963 
L 977.397331 244.480929 
L 977.40573 242.920859 
L 978.069205 242.166825 
L 978.077603 240.658758 
L 978.741078 239.904724 
L 978.749476 238.396657 
L 979.412951 237.642623 
L 979.42135 236.134556 
L 980.084825 235.380522 
L 980.090424 234.626489 
L 980.756698 233.898456 
L 980.765096 464.606756 
L 980.927466 470.223006 
L 980.927466 464.606756 
L 981.428571 457.638445 
L 981.775706 447.289983 
L 982.100444 442.999791 
L 982.271212 439.099617 
L 982.276811 435.485456 
L 982.772318 432.079304 
L 982.777917 428.881161 
L 982.945885 425.839025 
L 983.444191 422.926895 
L 983.44979 420.144771 
L 983.617758 417.466651 
L 984.116064 414.892536 
L 984.121663 412.396425 
L 984.286832 409.978317 
L 984.787938 407.638212 
L 984.796336 403.140012 
L 985.46541 400.981915 
L 985.468209 464.606756 
L 985.636178 470.223006 
L 985.636178 464.606756 
L 986.131684 457.638445 
L 986.478819 447.289983 
L 986.803557 442.999791 
L 986.974325 439.099617 
L 986.979924 435.485456 
L 987.475431 432.079304 
L 987.48103 428.881161 
L 987.648998 425.839025 
L 988.147304 422.926895 
L 988.152903 420.144771 
L 988.320871 417.466651 
L 988.819177 414.892536 
L 988.824776 412.396425 
L 988.989945 409.978317 
L 989.491051 407.638212 
L 989.499449 403.140012 
L 990.162924 400.981915 
L 990.171322 396.82173 
L 990.834797 394.793639 
L 990.843196 390.893465 
L 991.50667 388.99538 
L 991.515069 385.303215 
L 992.178544 383.509135 
L 992.186942 379.998979 
L 992.850417 378.282902 
L 992.858815 374.928752 
L 993.52229 373.290679 
L 993.530689 370.092536 
L 994.194164 368.506465 
L 994.202562 365.412327 
L 994.866037 363.90426 
L 994.874435 360.914127 
L 995.53791 359.458062 
L 995.546309 356.571933 
L 996.209783 355.16787 
L 996.218182 352.385746 
L 996.218182 352.385746 
" clip-path="url(#pae567a69cb)" style="fill: none; stroke: #1f77b4; stroke-width: 1.5; stroke-linecap: square"/>
   </g>
   <g id="patch_3">
    <path d="M 144 512.64 
L 144 69.12 
" style="fill: none; stroke: #000000; stroke-width: 0.8; stroke-linejoin: miter; stroke-linecap: square"/>
   </g>
   <g id="patch_4">
    <path d="M 1036.8 512.64 
L 1036.8 69.12 
" style="fill: none; stroke: #000000; stroke-width: 0.8; stroke-linejoin: miter; stroke-linecap: square"/>
   </g>
   <g id="patch_5">
    <path d="M 144 512.64 
L 1036.8 512.64 
" style="fill: none; stroke: #000000; stroke-width: 0.8; stroke-linejoin: miter; stroke-linecap: square"/>
   </g>
   <g id="patch_6">
    <path d="M 144 69.12 
L 1036.8 69.12 
" style="fill: none; stroke: #000000; stroke-width: 0.8; stroke-linejoin: miter; stroke-linecap: square"/>
   </g>
   <g id="text_19">
    <!-- Graph of congestion window vs Time result/channelbw50 -->
    <g transform="translate(404.362891 63.12) scale(0.13 -0.13)">
     <defs>
      <path id="DejaVuSans-47" d="M 3809 666 
L 3809 1919 
L 2778 1919 
L 2778 2438 
L 4434 2438 
L 4434 434 
Q 4069 175 3628 42 
Q 3188 -91 2688 -91 
Q 1594 -91 976 548 
Q 359 1188 359 2328 
Q 359 3472 976 4111 
Q 1594 4750 2688 4750 
Q 3144 4750 3555 4637 
Q 3966 4525 4313 4306 
L 4313 3634 
Q 3963 3931 3569 4081 
Q 3175 4231 2741 4231 
Q 1884 4231 1454 3753 
Q 1025 3275 1025 2328 
Q 1025 1384 1454 906 
Q 1884 428 2741 428 
Q 3075 428 3337 486 
Q 3600 544 3809 666 
z
" transform="scale(0.015625)"/>
      <path id="DejaVuSans-72" d="M 2631 2963 
Q 2534 3019 2420 3045 
Q 2306 3072 2169 3072 
Q 1681 3072 1420 2755 
Q 1159 2438 1159 1844 
L 1159 0 
L 581 0 
L 581 3500 
L 1159 3500 
L 1159 2956 
Q 1341 3275 1631 3429 
Q 1922 3584 2338 3584 
Q 2397 3584 2469 3576 
Q 2541 3569 2628 3553 
L 2631 2963 
z
" transform="scale(0.015625)"/>
      <path id="DejaVuSans-61" d="M 2194 1759 
Q 1497 1759 1228 1600 
Q 959 1441 959 1056 
Q 959 750 1161 570 
Q 1363 391 1709 391 
Q 2188 391 2477 730 
Q 2766 1069 2766 1631 
L 2766 1759 
L 2194 1759 
z
M 3341 1997 
L 3341 0 
L 2766 0 
L 2766 531 
Q 2569 213 2275 61 
Q 1981 -91 1556 -91 
Q 1019 -91 701 211 
Q 384 513 384 1019 
Q 384 1609 779 1909 
Q 1175 2209 1959 2209 
L 2766 2209 
L 2766 2266 
Q 2766 2663 2505 2880 
Q 2244 3097 1772 3097 
Q 1472 3097 1187 3025 
Q 903 2953 641 2809 
L 641 3341 
Q 956 3463 1253 3523 
Q 1550 3584 1831 3584 
Q 2591 3584 2966 3190 
Q 3341 2797 3341 1997 
z
" transform="scale(0.015625)"/>
      <path id="DejaVuSans-70" d="M 1159 525 
L 1159 -1331 
L 581 -1331 
L 581 3500 
L 1159 3500 
L 1159 2969 
Q 1341 3281 1617 3432 
Q 1894 3584 2278 3584 
Q 2916 3584 3314 3078 
Q 3713 2572 3713 1747 
Q 3713 922 3314 415 
Q 2916 -91 2278 -91 
Q 1894 -91 1617 61 
Q 1341 213 1159 525 
z
M 3116 1747 
Q 3116 2381 2855 2742 
Q 2594 3103 2138 3103 
Q 1681 3103 1420 2742 
Q 1159 2381 1159 1747 
Q 1159 1113 1420 752 
Q 1681 391 2138 391 
Q 2594 391 2855 752 
Q 3116 1113 3116 1747 
z
" transform="scale(0.015625)"/>
      <path id="DejaVuSans-68" d="M 3513 2113 
L 3513 0 
L 2938 0 
L 2938 2094 
Q 2938 2591 2744 2837 
Q 2550 3084 2163 3084 
Q 1697 3084 1428 2787 
Q 1159 2491 1159 1978 
L 1159 0 
L 581 0 
L 581 4863 
L 1159 4863 
L 1159 2956 
Q 1366 3272 1645 3428 
Q 1925 3584 2291 3584 
Q 2894 3584 3203 3211 
Q 3513 2838 3513 2113 
z
" transform="scale(0.015625)"/>
      <path id="DejaVuSans-66" d="M 2375 4863 
L 2375 4384 
L 1825 4384 
Q 1516 4384 1395 4259 
Q 1275 4134 1275 3809 
L 1275 3500 
L 2222 3500 
L 2222 3053 
L 1275 3053 
L 1275 0 
L 697 0 
L 697 3053 
L 147 3053 
L 147 3500 
L 697 3500 
L 697 3744 
Q 697 4328 969 4595 
Q 1241 4863 1831 4863 
L 2375 4863 
z
" transform="scale(0.015625)"/>
      <path id="DejaVuSans-76" d="M 191 3500 
L 800 3500 
L 1894 563 
L 2988 3500 
L 3597 3500 
L 2284 0 
L 1503 0 
L 191 3500 
z
" transform="scale(0.015625)"/>
      <path id="DejaVuSans-75" d="M 544 1381 
L 544 3500 
L 1119 3500 
L 1119 1403 
Q 1119 906 1312 657 
Q 1506 409 1894 409 
Q 2359 409 2629 706 
Q 2900 1003 2900 1516 
L 2900 3500 
L 3475 3500 
L 3475 0 
L 2900 0 
L 2900 538 
Q 2691 219 2414 64 
Q 2138 -91 1772 -91 
Q 1169 -91 856 284 
Q 544 659 544 1381 
z
M 1991 3584 
L 1991 3584 
z
" transform="scale(0.015625)"/>
      <path id="DejaVuSans-6c" d="M 603 4863 
L 1178 4863 
L 1178 0 
L 603 0 
L 603 4863 
z
" transform="scale(0.015625)"/>
      <path id="DejaVuSans-2f" d="M 1625 4666 
L 2156 4666 
L 531 -594 
L 0 -594 
L 1625 4666 
z
" transform="scale(0.015625)"/>
      <path id="DejaVuSans-62" d="M 3116 1747 
Q 3116 2381 2855 2742 
Q 2594 3103 2138 3103 
Q 1681 3103 1420 2742 
Q 1159 2381 1159 1747 
Q 1159 1113 1420 752 
Q 1681 391 2138 391 
Q 2594 391 2855 752 
Q 3116 1113 3116 1747 
z
M 1159 2969 
Q 1341 3281 1617 3432 
Q 1894 3584 2278 3584 
Q 2916 3584 3314 3078 
Q 3713 2572 3713 1747 
Q 3713 922 3314 415 
Q 2916 -91 2278 -91 
Q 1894 -91 1617 61 
Q 1341 213 1159 525 
L 1159 0 
L 581 0 
L 581 4863 
L 1159 4863 
L 1159 2969 
z
" transform="scale(0.015625)"/>
     </defs>
     <use xlink:href="#DejaVuSans-47"/>
     <use xlink:href="#DejaVuSans-72" x="77.490234"/>
     <use xlink:href="#DejaVuSans-61" x="118.603516"/>
     <use xlink:href="#DejaVuSans-70" x="179.882812"/>
     <use xlink:href="#DejaVuSans-68" x="243.359375"/>
     <use xlink:href="#DejaVuSans-20" x="306.738281"/>
     <use xlink:href="#DejaVuSans-6f" x="338.525391"/>
     <use xlink:href="#DejaVuSans-66" x="399.707031"/>
     <use xlink:href="#DejaVuSans-20" x="434.912109"/>
     <use xlink:href="#DejaVuSans-63" x="466.699219"/>
     <use xlink:href="#DejaVuSans-6f" x="521.679688"/>
     <use xlink:href="#DejaVuSans-6e" x="582.861328"/>
     <use xlink:href="#DejaVuSans-67" x="646.240234"/>
     <use xlink:href="#DejaVuSans-65" x="709.716797"/>
     <use xlink:href="#DejaVuSans-73" x="771.240234"/>
     <use xlink:href="#DejaVuSans-74" x="823.339844"/>
     <use xlink:href="#DejaVuSans-69" x="862.548828"/>
     <use xlink:href="#DejaVuSans-6f" x="890.332031"/>
     <use xlink:href="#DejaVuSans-6e" x="951.513672"/>
     <use xlink:href="#DejaVuSans-20" x="1014.892578"/>
     <use xlink:href="#DejaVuSans-77" x="1046.679688"/>
     <use xlink:href="#DejaVuSans-69" x="1128.466797"/>
     <use xlink:href="#DejaVuSans-6e" x="1156.25"/>
     <use xlink:href="#DejaVuSans-64" x="1219.628906"/>
     <use xlink:href="#DejaVuSans-6f" x="1283.105469"/>
     <use xlink:href="#DejaVuSans-77" x="1344.287109"/>
     <use xlink:href="#DejaVuSans-20" x="1426.074219"/>
     <use xlink:href="#DejaVuSans-76" x="1457.861328"/>
     <use xlink:href="#DejaVuSans-73" x="1517.041016"/>
     <use xlink:href="#DejaVuSans-20" x="1569.140625"/>
     <use xlink:href="#DejaVuSans-54" x="1600.927734"/>
     <use xlink:href="#DejaVuSans-69" x="1658.886719"/>
     <use xlink:href="#DejaVuSans-6d" x="1686.669922"/>
     <use xlink:href="#DejaVuSans-65" x="1784.082031"/>
     <use xlink:href="#DejaVuSans-20" x="1845.605469"/>
     <use xlink:href="#DejaVuSans-72" x="1877.392578"/>
     <use xlink:href="#DejaVuSans-65" x="1916.255859"/>
     <use xlink:href="#DejaVuSans-73" x="1977.779297"/>
     <use xlink:href="#DejaVuSans-75" x="2029.878906"/>
     <use xlink:href="#DejaVuSans-6c" x="2093.257812"/>
     <use xlink:href="#DejaVuSans-74" x="2121.041016"/>
     <use xlink:href="#DejaVuSans-2f" x="2160.25"/>
     <use xlink:href="#DejaVuSans-63" x="2193.941406"/>
     <use xlink:href="#DejaVuSans-68" x="2248.921875"/>
     <use xlink:href="#DejaVuSans-61" x="2312.300781"/>
     <use xlink:href="#DejaVuSans-6e" x="2373.580078"/>
     <use xlink:href="#DejaVuSans-6e" x="2436.958984"/>
     <use xlink:href="#DejaVuSans-65" x="2500.337891"/>
     <use xlink:href="#DejaVuSans-6c" x="2561.861328"/>
     <use xlink:href="#DejaVuSans-62" x="2589.644531"/>
     <use xlink:href="#DejaVuSans-77" x="2653.121094"/>
     <use xlink:href="#DejaVuSans-35" x="2734.908203"/>
     <use xlink:href="#DejaVuSans-30" x="2798.53125"/>
    </g>
   </g>
  </g>
 </g>
 <defs>
  <clipPath id="pae567a69cb">
   <rect x="144" y="69.12" width="892.8" height="443.52"/>
  </clipPath>
 </defs>
</svg>
