<?xml version="1.0" encoding="utf-8" standalone="no"?>
<!DOCTYPE svg PUBLIC "-//W3C//DTD SVG 1.1//EN"
  "http://www.w3.org/Graphics/SVG/1.1/DTD/svg11.dtd">
<svg xmlns:xlink="http://www.w3.org/1999/xlink" width="1152pt" height="576pt" viewBox="0 0 1152 576" xmlns="http://www.w3.org/2000/svg" version="1.1">
 <metadata>
  <rdf:RDF xmlns:dc="http://purl.org/dc/elements/1.1/" xmlns:cc="http://creativecommons.org/ns#" xmlns:rdf="http://www.w3.org/1999/02/22-rdf-syntax-ns#">
   <cc:Work>
    <dc:type rdf:resource="http://purl.org/dc/dcmitype/StillImage"/>
    <dc:date>2023-01-05T15:16:19.609040</dc:date>
    <dc:format>image/svg+xml</dc:format>
    <dc:creator>
     <cc:Agent>
      <dc:title>Matplotlib v3.6.2, https://matplotlib.org/</dc:title>
     </cc:Agent>
    </dc:creator>
   </cc:Work>
  </rdf:RDF>
 </metadata>
 <defs>
  <style type="text/css">*{stroke-linejoin: round; stroke-linecap: butt}</style>
 </defs>
 <g id="figure_1">
  <g id="patch_1">
   <path d="M 0 576 
L 1152 576 
L 1152 0 
L 0 0 
z
" style="fill: #ffffff"/>
  </g>
  <g id="axes_1">
   <g id="patch_2">
    <path d="M 144 512.64 
L 1036.8 512.64 
L 1036.8 69.12 
L 144 69.12 
z
" style="fill: #ffffff"/>
   </g>
   <g id="matplotlib.axis_1">
    <g id="xtick_1">
     <g id="line2d_1">
      <defs>
       <path id="mc1b09da44e" d="M 0 0 
L 0 3.5 
" style="stroke: #000000; stroke-width: 0.8"/>
      </defs>
      <g>
       <use xlink:href="#mc1b09da44e" x="157.017539" y="512.64" style="stroke: #000000; stroke-width: 0.8"/>
      </g>
     </g>
     <g id="text_1">
      <!-- 0 -->
      <g transform="translate(153.836289 527.238438) scale(0.1 -0.1)">
       <defs>
        <path id="DejaVuSans-30" d="M 2034 4250 
Q 1547 4250 1301 3770 
Q 1056 3291 1056 2328 
Q 1056 1369 1301 889 
Q 1547 409 2034 409 
Q 2525 409 2770 889 
Q 3016 1369 3016 2328 
Q 3016 3291 2770 3770 
Q 2525 4250 2034 4250 
z
M 2034 4750 
Q 2819 4750 3233 4129 
Q 3647 3509 3647 2328 
Q 3647 1150 3233 529 
Q 2819 -91 2034 -91 
Q 1250 -91 836 529 
Q 422 1150 422 2328 
Q 422 3509 836 4129 
Q 1250 4750 2034 4750 
z
" transform="scale(0.015625)"/>
       </defs>
       <use xlink:href="#DejaVuSans-30"/>
      </g>
     </g>
    </g>
    <g id="xtick_2">
     <g id="line2d_2">
      <g>
       <use xlink:href="#mc1b09da44e" x="293.954322" y="512.64" style="stroke: #000000; stroke-width: 0.8"/>
      </g>
     </g>
     <g id="text_2">
      <!-- 5 -->
      <g transform="translate(290.773072 527.238438) scale(0.1 -0.1)">
       <defs>
        <path id="DejaVuSans-35" d="M 691 4666 
L 3169 4666 
L 3169 4134 
L 1269 4134 
L 1269 2991 
Q 1406 3038 1543 3061 
Q 1681 3084 1819 3084 
Q 2600 3084 3056 2656 
Q 3513 2228 3513 1497 
Q 3513 744 3044 326 
Q 2575 -91 1722 -91 
Q 1428 -91 1123 -41 
Q 819 9 494 109 
L 494 744 
Q 775 591 1075 516 
Q 1375 441 1709 441 
Q 2250 441 2565 725 
Q 2881 1009 2881 1497 
Q 2881 1984 2565 2268 
Q 2250 2553 1709 2553 
Q 1456 2553 1204 2497 
Q 953 2441 691 2322 
L 691 4666 
z
" transform="scale(0.015625)"/>
       </defs>
       <use xlink:href="#DejaVuSans-35"/>
      </g>
     </g>
    </g>
    <g id="xtick_3">
     <g id="line2d_3">
      <g>
       <use xlink:href="#mc1b09da44e" x="430.891105" y="512.64" style="stroke: #000000; stroke-width: 0.8"/>
      </g>
     </g>
     <g id="text_3">
      <!-- 10 -->
      <g transform="translate(424.528605 527.238438) scale(0.1 -0.1)">
       <defs>
        <path id="DejaVuSans-31" d="M 794 531 
L 1825 531 
L 1825 4091 
L 703 3866 
L 703 4441 
L 1819 4666 
L 2450 4666 
L 2450 531 
L 3481 531 
L 3481 0 
L 794 0 
L 794 531 
z
" transform="scale(0.015625)"/>
       </defs>
       <use xlink:href="#DejaVuSans-31"/>
       <use xlink:href="#DejaVuSans-30" x="63.623047"/>
      </g>
     </g>
    </g>
    <g id="xtick_4">
     <g id="line2d_4">
      <g>
       <use xlink:href="#mc1b09da44e" x="567.827888" y="512.64" style="stroke: #000000; stroke-width: 0.8"/>
      </g>
     </g>
     <g id="text_4">
      <!-- 15 -->
      <g transform="translate(561.465388 527.238438) scale(0.1 -0.1)">
       <use xlink:href="#DejaVuSans-31"/>
       <use xlink:href="#DejaVuSans-35" x="63.623047"/>
      </g>
     </g>
    </g>
    <g id="xtick_5">
     <g id="line2d_5">
      <g>
       <use xlink:href="#mc1b09da44e" x="704.764671" y="512.64" style="stroke: #000000; stroke-width: 0.8"/>
      </g>
     </g>
     <g id="text_5">
      <!-- 20 -->
      <g transform="translate(698.402171 527.238438) scale(0.1 -0.1)">
       <defs>
        <path id="DejaVuSans-32" d="M 1228 531 
L 3431 531 
L 3431 0 
L 469 0 
L 469 531 
Q 828 903 1448 1529 
Q 2069 2156 2228 2338 
Q 2531 2678 2651 2914 
Q 2772 3150 2772 3378 
Q 2772 3750 2511 3984 
Q 2250 4219 1831 4219 
Q 1534 4219 1204 4116 
Q 875 4013 500 3803 
L 500 4441 
Q 881 4594 1212 4672 
Q 1544 4750 1819 4750 
Q 2544 4750 2975 4387 
Q 3406 4025 3406 3419 
Q 3406 3131 3298 2873 
Q 3191 2616 2906 2266 
Q 2828 2175 2409 1742 
Q 1991 1309 1228 531 
z
" transform="scale(0.015625)"/>
       </defs>
       <use xlink:href="#DejaVuSans-32"/>
       <use xlink:href="#DejaVuSans-30" x="63.623047"/>
      </g>
     </g>
    </g>
    <g id="xtick_6">
     <g id="line2d_6">
      <g>
       <use xlink:href="#mc1b09da44e" x="841.701455" y="512.64" style="stroke: #000000; stroke-width: 0.8"/>
      </g>
     </g>
     <g id="text_6">
      <!-- 25 -->
      <g transform="translate(835.338955 527.238438) scale(0.1 -0.1)">
       <use xlink:href="#DejaVuSans-32"/>
       <use xlink:href="#DejaVuSans-35" x="63.623047"/>
      </g>
     </g>
    </g>
    <g id="xtick_7">
     <g id="line2d_7">
      <g>
       <use xlink:href="#mc1b09da44e" x="978.638238" y="512.64" style="stroke: #000000; stroke-width: 0.8"/>
      </g>
     </g>
     <g id="text_7">
      <!-- 30 -->
      <g transform="translate(972.275738 527.238438) scale(0.1 -0.1)">
       <defs>
        <path id="DejaVuSans-33" d="M 2597 2516 
Q 3050 2419 3304 2112 
Q 3559 1806 3559 1356 
Q 3559 666 3084 287 
Q 2609 -91 1734 -91 
Q 1441 -91 1130 -33 
Q 819 25 488 141 
L 488 750 
Q 750 597 1062 519 
Q 1375 441 1716 441 
Q 2309 441 2620 675 
Q 2931 909 2931 1356 
Q 2931 1769 2642 2001 
Q 2353 2234 1838 2234 
L 1294 2234 
L 1294 2753 
L 1863 2753 
Q 2328 2753 2575 2939 
Q 2822 3125 2822 3475 
Q 2822 3834 2567 4026 
Q 2313 4219 1838 4219 
Q 1578 4219 1281 4162 
Q 984 4106 628 3988 
L 628 4550 
Q 988 4650 1302 4700 
Q 1616 4750 1894 4750 
Q 2613 4750 3031 4423 
Q 3450 4097 3450 3541 
Q 3450 3153 3228 2886 
Q 3006 2619 2597 2516 
z
" transform="scale(0.015625)"/>
       </defs>
       <use xlink:href="#DejaVuSans-33"/>
       <use xlink:href="#DejaVuSans-30" x="63.623047"/>
      </g>
     </g>
    </g>
    <g id="text_8">
     <!-- Time in seconds -->
     <g transform="translate(537.870859 543.196094) scale(0.13 -0.13)">
      <defs>
       <path id="DejaVuSans-54" d="M -19 4666 
L 3928 4666 
L 3928 4134 
L 2272 4134 
L 2272 0 
L 1638 0 
L 1638 4134 
L -19 4134 
L -19 4666 
z
" transform="scale(0.015625)"/>
       <path id="DejaVuSans-69" d="M 603 3500 
L 1178 3500 
L 1178 0 
L 603 0 
L 603 3500 
z
M 603 4863 
L 1178 4863 
L 1178 4134 
L 603 4134 
L 603 4863 
z
" transform="scale(0.015625)"/>
       <path id="DejaVuSans-6d" d="M 3328 2828 
Q 3544 3216 3844 3400 
Q 4144 3584 4550 3584 
Q 5097 3584 5394 3201 
Q 5691 2819 5691 2113 
L 5691 0 
L 5113 0 
L 5113 2094 
Q 5113 2597 4934 2840 
Q 4756 3084 4391 3084 
Q 3944 3084 3684 2787 
Q 3425 2491 3425 1978 
L 3425 0 
L 2847 0 
L 2847 2094 
Q 2847 2600 2669 2842 
Q 2491 3084 2119 3084 
Q 1678 3084 1418 2786 
Q 1159 2488 1159 1978 
L 1159 0 
L 581 0 
L 581 3500 
L 1159 3500 
L 1159 2956 
Q 1356 3278 1631 3431 
Q 1906 3584 2284 3584 
Q 2666 3584 2933 3390 
Q 3200 3197 3328 2828 
z
" transform="scale(0.015625)"/>
       <path id="DejaVuSans-65" d="M 3597 1894 
L 3597 1613 
L 953 1613 
Q 991 1019 1311 708 
Q 1631 397 2203 397 
Q 2534 397 2845 478 
Q 3156 559 3463 722 
L 3463 178 
Q 3153 47 2828 -22 
Q 2503 -91 2169 -91 
Q 1331 -91 842 396 
Q 353 884 353 1716 
Q 353 2575 817 3079 
Q 1281 3584 2069 3584 
Q 2775 3584 3186 3129 
Q 3597 2675 3597 1894 
z
M 3022 2063 
Q 3016 2534 2758 2815 
Q 2500 3097 2075 3097 
Q 1594 3097 1305 2825 
Q 1016 2553 972 2059 
L 3022 2063 
z
" transform="scale(0.015625)"/>
       <path id="DejaVuSans-20" transform="scale(0.015625)"/>
       <path id="DejaVuSans-6e" d="M 3513 2113 
L 3513 0 
L 2938 0 
L 2938 2094 
Q 2938 2591 2744 2837 
Q 2550 3084 2163 3084 
Q 1697 3084 1428 2787 
Q 1159 2491 1159 1978 
L 1159 0 
L 581 0 
L 581 3500 
L 1159 3500 
L 1159 2956 
Q 1366 3272 1645 3428 
Q 1925 3584 2291 3584 
Q 2894 3584 3203 3211 
Q 3513 2838 3513 2113 
z
" transform="scale(0.015625)"/>
       <path id="DejaVuSans-73" d="M 2834 3397 
L 2834 2853 
Q 2591 2978 2328 3040 
Q 2066 3103 1784 3103 
Q 1356 3103 1142 2972 
Q 928 2841 928 2578 
Q 928 2378 1081 2264 
Q 1234 2150 1697 2047 
L 1894 2003 
Q 2506 1872 2764 1633 
Q 3022 1394 3022 966 
Q 3022 478 2636 193 
Q 2250 -91 1575 -91 
Q 1294 -91 989 -36 
Q 684 19 347 128 
L 347 722 
Q 666 556 975 473 
Q 1284 391 1588 391 
Q 1994 391 2212 530 
Q 2431 669 2431 922 
Q 2431 1156 2273 1281 
Q 2116 1406 1581 1522 
L 1381 1569 
Q 847 1681 609 1914 
Q 372 2147 372 2553 
Q 372 3047 722 3315 
Q 1072 3584 1716 3584 
Q 2034 3584 2315 3537 
Q 2597 3491 2834 3397 
z
" transform="scale(0.015625)"/>
       <path id="DejaVuSans-63" d="M 3122 3366 
L 3122 2828 
Q 2878 2963 2633 3030 
Q 2388 3097 2138 3097 
Q 1578 3097 1268 2742 
Q 959 2388 959 1747 
Q 959 1106 1268 751 
Q 1578 397 2138 397 
Q 2388 397 2633 464 
Q 2878 531 3122 666 
L 3122 134 
Q 2881 22 2623 -34 
Q 2366 -91 2075 -91 
Q 1284 -91 818 406 
Q 353 903 353 1747 
Q 353 2603 823 3093 
Q 1294 3584 2113 3584 
Q 2378 3584 2631 3529 
Q 2884 3475 3122 3366 
z
" transform="scale(0.015625)"/>
       <path id="DejaVuSans-6f" d="M 1959 3097 
Q 1497 3097 1228 2736 
Q 959 2375 959 1747 
Q 959 1119 1226 758 
Q 1494 397 1959 397 
Q 2419 397 2687 759 
Q 2956 1122 2956 1747 
Q 2956 2369 2687 2733 
Q 2419 3097 1959 3097 
z
M 1959 3584 
Q 2709 3584 3137 3096 
Q 3566 2609 3566 1747 
Q 3566 888 3137 398 
Q 2709 -91 1959 -91 
Q 1206 -91 779 398 
Q 353 888 353 1747 
Q 353 2609 779 3096 
Q 1206 3584 1959 3584 
z
" transform="scale(0.015625)"/>
       <path id="DejaVuSans-64" d="M 2906 2969 
L 2906 4863 
L 3481 4863 
L 3481 0 
L 2906 0 
L 2906 525 
Q 2725 213 2448 61 
Q 2172 -91 1784 -91 
Q 1150 -91 751 415 
Q 353 922 353 1747 
Q 353 2572 751 3078 
Q 1150 3584 1784 3584 
Q 2172 3584 2448 3432 
Q 2725 3281 2906 2969 
z
M 947 1747 
Q 947 1113 1208 752 
Q 1469 391 1925 391 
Q 2381 391 2643 752 
Q 2906 1113 2906 1747 
Q 2906 2381 2643 2742 
Q 2381 3103 1925 3103 
Q 1469 3103 1208 2742 
Q 947 2381 947 1747 
z
" transform="scale(0.015625)"/>
      </defs>
      <use xlink:href="#DejaVuSans-54"/>
      <use xlink:href="#DejaVuSans-69" x="57.958984"/>
      <use xlink:href="#DejaVuSans-6d" x="85.742188"/>
      <use xlink:href="#DejaVuSans-65" x="183.154297"/>
      <use xlink:href="#DejaVuSans-20" x="244.677734"/>
      <use xlink:href="#DejaVuSans-69" x="276.464844"/>
      <use xlink:href="#DejaVuSans-6e" x="304.248047"/>
      <use xlink:href="#DejaVuSans-20" x="367.626953"/>
      <use xlink:href="#DejaVuSans-73" x="399.414062"/>
      <use xlink:href="#DejaVuSans-65" x="451.513672"/>
      <use xlink:href="#DejaVuSans-63" x="513.037109"/>
      <use xlink:href="#DejaVuSans-6f" x="568.017578"/>
      <use xlink:href="#DejaVuSans-6e" x="629.199219"/>
      <use xlink:href="#DejaVuSans-64" x="692.578125"/>
      <use xlink:href="#DejaVuSans-73" x="756.054688"/>
     </g>
    </g>
   </g>
   <g id="matplotlib.axis_2">
    <g id="ytick_1">
     <g id="line2d_8">
      <defs>
       <path id="mfc3a5e5bb4" d="M 0 0 
L -3.5 0 
" style="stroke: #000000; stroke-width: 0.8"/>
      </defs>
      <g>
       <use xlink:href="#mfc3a5e5bb4" x="144" y="492.48" style="stroke: #000000; stroke-width: 0.8"/>
      </g>
     </g>
     <g id="text_9">
      <!-- 0 -->
      <g transform="translate(130.6375 496.279219) scale(0.1 -0.1)">
       <use xlink:href="#DejaVuSans-30"/>
      </g>
     </g>
    </g>
    <g id="ytick_2">
     <g id="line2d_9">
      <g>
       <use xlink:href="#mfc3a5e5bb4" x="144" y="442.772794" style="stroke: #000000; stroke-width: 0.8"/>
      </g>
     </g>
     <g id="text_10">
      <!-- 2000 -->
      <g transform="translate(111.55 446.572013) scale(0.1 -0.1)">
       <use xlink:href="#DejaVuSans-32"/>
       <use xlink:href="#DejaVuSans-30" x="63.623047"/>
       <use xlink:href="#DejaVuSans-30" x="127.246094"/>
       <use xlink:href="#DejaVuSans-30" x="190.869141"/>
      </g>
     </g>
    </g>
    <g id="ytick_3">
     <g id="line2d_10">
      <g>
       <use xlink:href="#mfc3a5e5bb4" x="144" y="393.065588" style="stroke: #000000; stroke-width: 0.8"/>
      </g>
     </g>
     <g id="text_11">
      <!-- 4000 -->
      <g transform="translate(111.55 396.864807) scale(0.1 -0.1)">
       <defs>
        <path id="DejaVuSans-34" d="M 2419 4116 
L 825 1625 
L 2419 1625 
L 2419 4116 
z
M 2253 4666 
L 3047 4666 
L 3047 1625 
L 3713 1625 
L 3713 1100 
L 3047 1100 
L 3047 0 
L 2419 0 
L 2419 1100 
L 313 1100 
L 313 1709 
L 2253 4666 
z
" transform="scale(0.015625)"/>
       </defs>
       <use xlink:href="#DejaVuSans-34"/>
       <use xlink:href="#DejaVuSans-30" x="63.623047"/>
       <use xlink:href="#DejaVuSans-30" x="127.246094"/>
       <use xlink:href="#DejaVuSans-30" x="190.869141"/>
      </g>
     </g>
    </g>
    <g id="ytick_4">
     <g id="line2d_11">
      <g>
       <use xlink:href="#mfc3a5e5bb4" x="144" y="343.358383" style="stroke: #000000; stroke-width: 0.8"/>
      </g>
     </g>
     <g id="text_12">
      <!-- 6000 -->
      <g transform="translate(111.55 347.157601) scale(0.1 -0.1)">
       <defs>
        <path id="DejaVuSans-36" d="M 2113 2584 
Q 1688 2584 1439 2293 
Q 1191 2003 1191 1497 
Q 1191 994 1439 701 
Q 1688 409 2113 409 
Q 2538 409 2786 701 
Q 3034 994 3034 1497 
Q 3034 2003 2786 2293 
Q 2538 2584 2113 2584 
z
M 3366 4563 
L 3366 3988 
Q 3128 4100 2886 4159 
Q 2644 4219 2406 4219 
Q 1781 4219 1451 3797 
Q 1122 3375 1075 2522 
Q 1259 2794 1537 2939 
Q 1816 3084 2150 3084 
Q 2853 3084 3261 2657 
Q 3669 2231 3669 1497 
Q 3669 778 3244 343 
Q 2819 -91 2113 -91 
Q 1303 -91 875 529 
Q 447 1150 447 2328 
Q 447 3434 972 4092 
Q 1497 4750 2381 4750 
Q 2619 4750 2861 4703 
Q 3103 4656 3366 4563 
z
" transform="scale(0.015625)"/>
       </defs>
       <use xlink:href="#DejaVuSans-36"/>
       <use xlink:href="#DejaVuSans-30" x="63.623047"/>
       <use xlink:href="#DejaVuSans-30" x="127.246094"/>
       <use xlink:href="#DejaVuSans-30" x="190.869141"/>
      </g>
     </g>
    </g>
    <g id="ytick_5">
     <g id="line2d_12">
      <g>
       <use xlink:href="#mfc3a5e5bb4" x="144" y="293.651177" style="stroke: #000000; stroke-width: 0.8"/>
      </g>
     </g>
     <g id="text_13">
      <!-- 8000 -->
      <g transform="translate(111.55 297.450395) scale(0.1 -0.1)">
       <defs>
        <path id="DejaVuSans-38" d="M 2034 2216 
Q 1584 2216 1326 1975 
Q 1069 1734 1069 1313 
Q 1069 891 1326 650 
Q 1584 409 2034 409 
Q 2484 409 2743 651 
Q 3003 894 3003 1313 
Q 3003 1734 2745 1975 
Q 2488 2216 2034 2216 
z
M 1403 2484 
Q 997 2584 770 2862 
Q 544 3141 544 3541 
Q 544 4100 942 4425 
Q 1341 4750 2034 4750 
Q 2731 4750 3128 4425 
Q 3525 4100 3525 3541 
Q 3525 3141 3298 2862 
Q 3072 2584 2669 2484 
Q 3125 2378 3379 2068 
Q 3634 1759 3634 1313 
Q 3634 634 3220 271 
Q 2806 -91 2034 -91 
Q 1263 -91 848 271 
Q 434 634 434 1313 
Q 434 1759 690 2068 
Q 947 2378 1403 2484 
z
M 1172 3481 
Q 1172 3119 1398 2916 
Q 1625 2713 2034 2713 
Q 2441 2713 2670 2916 
Q 2900 3119 2900 3481 
Q 2900 3844 2670 4047 
Q 2441 4250 2034 4250 
Q 1625 4250 1398 4047 
Q 1172 3844 1172 3481 
z
" transform="scale(0.015625)"/>
       </defs>
       <use xlink:href="#DejaVuSans-38"/>
       <use xlink:href="#DejaVuSans-30" x="63.623047"/>
       <use xlink:href="#DejaVuSans-30" x="127.246094"/>
       <use xlink:href="#DejaVuSans-30" x="190.869141"/>
      </g>
     </g>
    </g>
    <g id="ytick_6">
     <g id="line2d_13">
      <g>
       <use xlink:href="#mfc3a5e5bb4" x="144" y="243.943971" style="stroke: #000000; stroke-width: 0.8"/>
      </g>
     </g>
     <g id="text_14">
      <!-- 10000 -->
      <g transform="translate(105.1875 247.74319) scale(0.1 -0.1)">
       <use xlink:href="#DejaVuSans-31"/>
       <use xlink:href="#DejaVuSans-30" x="63.623047"/>
       <use xlink:href="#DejaVuSans-30" x="127.246094"/>
       <use xlink:href="#DejaVuSans-30" x="190.869141"/>
       <use xlink:href="#DejaVuSans-30" x="254.492188"/>
      </g>
     </g>
    </g>
    <g id="ytick_7">
     <g id="line2d_14">
      <g>
       <use xlink:href="#mfc3a5e5bb4" x="144" y="194.236765" style="stroke: #000000; stroke-width: 0.8"/>
      </g>
     </g>
     <g id="text_15">
      <!-- 12000 -->
      <g transform="translate(105.1875 198.035984) scale(0.1 -0.1)">
       <use xlink:href="#DejaVuSans-31"/>
       <use xlink:href="#DejaVuSans-32" x="63.623047"/>
       <use xlink:href="#DejaVuSans-30" x="127.246094"/>
       <use xlink:href="#DejaVuSans-30" x="190.869141"/>
       <use xlink:href="#DejaVuSans-30" x="254.492188"/>
      </g>
     </g>
    </g>
    <g id="ytick_8">
     <g id="line2d_15">
      <g>
       <use xlink:href="#mfc3a5e5bb4" x="144" y="144.529559" style="stroke: #000000; stroke-width: 0.8"/>
      </g>
     </g>
     <g id="text_16">
      <!-- 14000 -->
      <g transform="translate(105.1875 148.328778) scale(0.1 -0.1)">
       <use xlink:href="#DejaVuSans-31"/>
       <use xlink:href="#DejaVuSans-34" x="63.623047"/>
       <use xlink:href="#DejaVuSans-30" x="127.246094"/>
       <use xlink:href="#DejaVuSans-30" x="190.869141"/>
       <use xlink:href="#DejaVuSans-30" x="254.492188"/>
      </g>
     </g>
    </g>
    <g id="ytick_9">
     <g id="line2d_16">
      <g>
       <use xlink:href="#mfc3a5e5bb4" x="144" y="94.822353" style="stroke: #000000; stroke-width: 0.8"/>
      </g>
     </g>
     <g id="text_17">
      <!-- 16000 -->
      <g transform="translate(105.1875 98.621572) scale(0.1 -0.1)">
       <use xlink:href="#DejaVuSans-31"/>
       <use xlink:href="#DejaVuSans-36" x="63.623047"/>
       <use xlink:href="#DejaVuSans-30" x="127.246094"/>
       <use xlink:href="#DejaVuSans-30" x="190.869141"/>
       <use xlink:href="#DejaVuSans-30" x="254.492188"/>
      </g>
     </g>
    </g>
    <g id="text_18">
     <!-- Congestion Window Sizes -->
     <g transform="translate(98.483906 373.964219) rotate(-90) scale(0.13 -0.13)">
      <defs>
       <path id="DejaVuSans-43" d="M 4122 4306 
L 4122 3641 
Q 3803 3938 3442 4084 
Q 3081 4231 2675 4231 
Q 1875 4231 1450 3742 
Q 1025 3253 1025 2328 
Q 1025 1406 1450 917 
Q 1875 428 2675 428 
Q 3081 428 3442 575 
Q 3803 722 4122 1019 
L 4122 359 
Q 3791 134 3420 21 
Q 3050 -91 2638 -91 
Q 1578 -91 968 557 
Q 359 1206 359 2328 
Q 359 3453 968 4101 
Q 1578 4750 2638 4750 
Q 3056 4750 3426 4639 
Q 3797 4528 4122 4306 
z
" transform="scale(0.015625)"/>
       <path id="DejaVuSans-67" d="M 2906 1791 
Q 2906 2416 2648 2759 
Q 2391 3103 1925 3103 
Q 1463 3103 1205 2759 
Q 947 2416 947 1791 
Q 947 1169 1205 825 
Q 1463 481 1925 481 
Q 2391 481 2648 825 
Q 2906 1169 2906 1791 
z
M 3481 434 
Q 3481 -459 3084 -895 
Q 2688 -1331 1869 -1331 
Q 1566 -1331 1297 -1286 
Q 1028 -1241 775 -1147 
L 775 -588 
Q 1028 -725 1275 -790 
Q 1522 -856 1778 -856 
Q 2344 -856 2625 -561 
Q 2906 -266 2906 331 
L 2906 616 
Q 2728 306 2450 153 
Q 2172 0 1784 0 
Q 1141 0 747 490 
Q 353 981 353 1791 
Q 353 2603 747 3093 
Q 1141 3584 1784 3584 
Q 2172 3584 2450 3431 
Q 2728 3278 2906 2969 
L 2906 3500 
L 3481 3500 
L 3481 434 
z
" transform="scale(0.015625)"/>
       <path id="DejaVuSans-74" d="M 1172 4494 
L 1172 3500 
L 2356 3500 
L 2356 3053 
L 1172 3053 
L 1172 1153 
Q 1172 725 1289 603 
Q 1406 481 1766 481 
L 2356 481 
L 2356 0 
L 1766 0 
Q 1100 0 847 248 
Q 594 497 594 1153 
L 594 3053 
L 172 3053 
L 172 3500 
L 594 3500 
L 594 4494 
L 1172 4494 
z
" transform="scale(0.015625)"/>
       <path id="DejaVuSans-57" d="M 213 4666 
L 850 4666 
L 1831 722 
L 2809 4666 
L 3519 4666 
L 4500 722 
L 5478 4666 
L 6119 4666 
L 4947 0 
L 4153 0 
L 3169 4050 
L 2175 0 
L 1381 0 
L 213 4666 
z
" transform="scale(0.015625)"/>
       <path id="DejaVuSans-77" d="M 269 3500 
L 844 3500 
L 1563 769 
L 2278 3500 
L 2956 3500 
L 3675 769 
L 4391 3500 
L 4966 3500 
L 4050 0 
L 3372 0 
L 2619 2869 
L 1863 0 
L 1184 0 
L 269 3500 
z
" transform="scale(0.015625)"/>
       <path id="DejaVuSans-53" d="M 3425 4513 
L 3425 3897 
Q 3066 4069 2747 4153 
Q 2428 4238 2131 4238 
Q 1616 4238 1336 4038 
Q 1056 3838 1056 3469 
Q 1056 3159 1242 3001 
Q 1428 2844 1947 2747 
L 2328 2669 
Q 3034 2534 3370 2195 
Q 3706 1856 3706 1288 
Q 3706 609 3251 259 
Q 2797 -91 1919 -91 
Q 1588 -91 1214 -16 
Q 841 59 441 206 
L 441 856 
Q 825 641 1194 531 
Q 1563 422 1919 422 
Q 2459 422 2753 634 
Q 3047 847 3047 1241 
Q 3047 1584 2836 1778 
Q 2625 1972 2144 2069 
L 1759 2144 
Q 1053 2284 737 2584 
Q 422 2884 422 3419 
Q 422 4038 858 4394 
Q 1294 4750 2059 4750 
Q 2388 4750 2728 4690 
Q 3069 4631 3425 4513 
z
" transform="scale(0.015625)"/>
       <path id="DejaVuSans-7a" d="M 353 3500 
L 3084 3500 
L 3084 2975 
L 922 459 
L 3084 459 
L 3084 0 
L 275 0 
L 275 525 
L 2438 3041 
L 353 3041 
L 353 3500 
z
" transform="scale(0.015625)"/>
      </defs>
      <use xlink:href="#DejaVuSans-43"/>
      <use xlink:href="#DejaVuSans-6f" x="69.824219"/>
      <use xlink:href="#DejaVuSans-6e" x="131.005859"/>
      <use xlink:href="#DejaVuSans-67" x="194.384766"/>
      <use xlink:href="#DejaVuSans-65" x="257.861328"/>
      <use xlink:href="#DejaVuSans-73" x="319.384766"/>
      <use xlink:href="#DejaVuSans-74" x="371.484375"/>
      <use xlink:href="#DejaVuSans-69" x="410.693359"/>
      <use xlink:href="#DejaVuSans-6f" x="438.476562"/>
      <use xlink:href="#DejaVuSans-6e" x="499.658203"/>
      <use xlink:href="#DejaVuSans-20" x="563.037109"/>
      <use xlink:href="#DejaVuSans-57" x="594.824219"/>
      <use xlink:href="#DejaVuSans-69" x="691.451172"/>
      <use xlink:href="#DejaVuSans-6e" x="719.234375"/>
      <use xlink:href="#DejaVuSans-64" x="782.613281"/>
      <use xlink:href="#DejaVuSans-6f" x="846.089844"/>
      <use xlink:href="#DejaVuSans-77" x="907.271484"/>
      <use xlink:href="#DejaVuSans-20" x="989.058594"/>
      <use xlink:href="#DejaVuSans-53" x="1020.845703"/>
      <use xlink:href="#DejaVuSans-69" x="1084.322266"/>
      <use xlink:href="#DejaVuSans-7a" x="1112.105469"/>
      <use xlink:href="#DejaVuSans-65" x="1164.595703"/>
      <use xlink:href="#DejaVuSans-73" x="1226.119141"/>
     </g>
    </g>
   </g>
   <g id="line2d_17">
    <path d="M 184.581818 492.48 
L 184.952095 345.943157 
L 186.537823 172.763252 
L 186.772807 146.12019 
L 187.008338 132.798659 
L 187.137606 356.679914 
L 187.566492 424.579957 
L 187.735746 431.240722 
L 187.735746 424.579957 
L 188.640624 408.102018 
L 189.804039 390.878471 
L 190.838186 377.755769 
L 191.162452 376.214846 
L 191.420989 436.509686 
L 191.956959 452.515407 
L 192.191943 465.836938 
L 192.191943 452.515407 
L 192.89662 440.461409 
L 193.260598 433.875204 
L 195.669316 393.040735 
L 197.091267 374.997019 
L 198.771755 356.829035 
L 200.71078 338.536784 
L 202.779073 321.213822 
L 205.235172 302.722742 
L 207.820538 285.076684 
L 209.113221 276.77558 
L 209.502943 275.955411 
L 209.890748 354.815893 
L 210.084651 379.246985 
L 210.470539 399.229282 
L 210.730171 397.340408 
L 211.11688 465.836938 
L 211.11688 459.176172 
L 211.652303 449.284438 
L 214.935773 393.56266 
L 216.228456 377.010161 
L 217.908945 358.568788 
L 219.589433 342.438799 
L 221.657726 324.71818 
L 223.984556 306.798733 
L 226.440654 289.649747 
L 228.896752 273.842855 
L 231.999192 255.426335 
L 234.584558 241.135514 
L 237.816266 224.334478 
L 241.694316 205.470594 
L 246.735781 182.729547 
L 249.579684 170.650696 
L 252.682124 158.000212 
L 256.430905 143.311733 
L 260.69676 127.330866 
L 260.955296 126.386429 
L 261.214928 125.914211 
L 261.473465 176.416732 
L 262.894321 332.621626 
L 262.894321 325.960861 
L 265.350419 306.997561 
L 267.806517 289.798868 
L 270.262616 273.991977 
L 271.038226 269.220085 
L 271.362492 268.449623 
L 271.621028 325.215252 
L 272.008833 374.052582 
L 272.330909 399.229282 
L 273.623592 381.806906 
L 275.174812 364.03658 
L 276.984568 346.042572 
L 279.052862 327.949149 
L 281.250423 310.675895 
L 283.577253 294.048834 
L 285.257741 282.889567 
L 285.582007 282.044544 
L 285.840544 338.884734 
L 286.035268 355.337819 
L 286.229171 393.338978 
L 286.293805 405.890047 
L 286.486886 412.550813 
L 286.55152 405.890047 
L 286.615058 412.550813 
L 286.615058 405.890047 
L 287.778473 389.014451 
L 289.071157 373.108145 
L 290.751645 355.163844 
L 292.819938 335.976862 
L 295.017499 317.908293 
L 297.602866 298.84558 
L 297.862498 297.95085 
L 298.121035 352.603923 
L 298.444206 394.233708 
L 298.701647 412.550813 
L 299.865062 394.531951 
L 301.287013 376.289406 
L 302.838233 359.264688 
L 304.64799 341.842313 
L 306.587014 325.215252 
L 308.913844 307.270951 
L 311.369942 290.072258 
L 313.826041 274.265366 
L 317.057749 255.053531 
L 317.833359 250.704151 
L 318.092991 249.983396 
L 318.416161 305.978564 
L 318.868601 361.924024 
L 319.190676 385.907751 
L 320.612627 368.957594 
L 322.422384 350.317391 
L 324.232141 333.88916 
L 326.171165 318.032561 
L 328.756532 298.944994 
L 331.600435 279.981695 
L 334.573606 261.788858 
L 338.322388 240.812417 
L 341.424828 224.707282 
L 344.785804 208.279051 
L 345.045436 207.657711 
L 345.303973 257.315209 
L 346.337024 372.58622 
L 346.337024 365.925454 
L 348.017512 348.875882 
L 349.956537 331.552921 
L 350.990683 323.028135 
L 351.31495 321.984284 
L 351.573486 380.191422 
L 352.02483 425.872344 
L 352.929708 409.096162 
L 353.188245 404.920757 
L 353.447877 402.907615 
L 353.64178 452.515407 
L 353.769952 465.836938 
L 354.005758 459.176172 
L 356.59578 413.619518 
L 356.919772 411.382694 
L 357.242121 465.836938 
L 357.77727 453.857501 
L 358.781565 438.000902 
L 359.210177 428.780216 
L 361.877705 386.628505 
L 363.299657 369.578934 
L 364.850877 353.399238 
L 366.660633 336.672763 
L 368.858195 318.529633 
L 370.926488 303.045839 
L 373.641123 284.529904 
L 376.226489 268.300502 
L 377.519173 260.645592 
L 377.778531 259.899984 
L 378.037067 311.570624 
L 378.811856 399.229282 
L 378.811856 392.568516 
L 379.070392 389.064158 
L 379.394385 387.34926 
L 379.652922 451.02419 
L 379.781368 465.836938 
L 379.781368 459.176172 
L 380.316517 449.284438 
L 381.919773 420.777356 
L 382.351124 418.316849 
L 382.480392 452.515407 
L 382.715102 465.836938 
L 382.950085 459.176172 
L 386.444986 399.105014 
L 387.737669 381.707492 
L 389.288889 363.937166 
L 390.969377 347.210691 
L 392.779134 331.13041 
L 394.330354 318.529633 
L 394.589712 317.510636 
L 394.848249 366.347965 
L 395.042973 383.223562 
L 395.107607 391.673787 
L 395.172241 419.211579 
L 395.365322 425.872344 
L 395.429956 419.211579 
L 395.493769 425.872344 
L 395.493769 419.211579 
L 396.527915 401.764349 
L 397.044988 394.208854 
L 397.368981 392.419395 
L 397.692152 459.176172 
L 397.755964 465.836938 
L 397.755964 459.176172 
L 398.291113 449.284438 
L 401.574857 393.56266 
L 402.86754 377.010161 
L 404.548029 358.568788 
L 406.228517 342.438799 
L 408.29681 324.71818 
L 410.62364 306.798733 
L 413.079738 289.649747 
L 413.855348 284.529904 
L 414.17934 283.684882 
L 414.437877 338.884734 
L 415.083397 412.550813 
L 415.083397 405.890047 
L 416.246812 389.014451 
L 417.539495 373.108145 
L 419.219983 355.163844 
L 420.641935 341.693191 
L 420.965927 340.525072 
L 421.289098 402.808201 
L 421.611447 439.193875 
L 421.611447 432.53311 
L 422.298596 419.01275 
L 423.332743 401.565521 
L 424.625426 383.770341 
L 426.176646 365.751479 
L 427.857134 348.751614 
L 429.796159 331.428653 
L 431.863357 314.801593 
L 434.448723 296.037123 
L 434.708903 294.247663 
L 434.969083 293.352933 
L 435.160794 344.277966 
L 435.807136 412.550813 
L 436.842378 396.371118 
L 438.135061 379.396107 
L 439.556465 363.315826 
L 441.23531 346.589351 
L 441.56122 345.396378 
L 441.947381 411.506962 
L 442.204822 439.193875 
L 442.204822 432.53311 
L 443.023704 416.60195 
L 444.056208 399.62694 
L 445.348891 382.154857 
L 446.770295 365.751479 
L 448.70932 346.315961 
L 451.165965 324.99157 
L 452.718829 312.838158 
L 452.97627 311.868868 
L 453.23645 366.347965 
L 453.751332 425.872344 
L 453.751332 419.211579 
L 454.657853 403.752638 
L 454.915295 401.764349 
L 455.109745 452.515407 
L 455.945059 465.836938 
L 456.18059 479.158469 
L 456.18059 465.836938 
L 456.780374 453.857501 
L 457.782751 438.000902 
L 458.212732 428.780216 
L 460.880261 386.628505 
L 462.301665 369.578934 
L 463.851789 353.399238 
L 465.922273 334.435939 
L 467.861298 318.529633 
L 469.929043 303.045839 
L 472.51441 285.374927 
L 473.807093 277.073824 
L 474.067273 276.253655 
L 474.390444 333.342381 
L 474.713615 374.052582 
L 475.034047 399.229282 
L 476.32673 381.806906 
L 477.748134 365.428382 
L 479.687159 346.042572 
L 482.015084 325.811739 
L 484.343009 307.792877 
L 486.796916 290.56933 
L 490.028624 269.915986 
L 493.131612 251.797709 
L 496.36332 234.300773 
L 498.562525 223.066944 
L 498.819966 222.420751 
L 499.143137 278.714161 
L 499.726487 349.571783 
L 500.04692 372.58622 
L 501.857224 353.473799 
L 503.667528 336.722471 
L 505.863994 318.57934 
L 508.32064 300.336796 
L 510.519845 285.424634 
L 513.105211 269.120671 
L 516.46564 249.635446 
L 519.308447 234.300773 
L 522.929056 216.008521 
L 527.193267 195.951664 
L 530.942597 179.424018 
L 535.727168 159.565989 
L 536.050339 159.044063 
L 536.439239 218.643003 
L 537.600463 345.943157 
L 537.600463 339.282392 
L 539.668208 321.88487 
L 540.057109 318.827876 
L 540.38028 317.808879 
L 540.76918 383.223562 
L 541.155342 425.872344 
L 541.155342 419.211579 
L 542.190584 401.764349 
L 543.483267 383.919462 
L 545.033392 365.82604 
L 546.714975 348.826175 
L 548.654 331.503214 
L 550.721745 314.876154 
L 552.789491 299.715456 
L 554.857236 285.67317 
L 557.571323 268.573891 
L 561.966994 243.471752 
L 565.327423 225.875402 
L 570.758336 199.729411 
L 574.118764 184.668128 
L 576.961572 172.514716 
L 582.132305 151.463714 
L 591.569988 116.196452 
L 595.059137 104.117601 
L 595.385047 103.670236 
L 595.708217 157.055775 
L 597.000901 312.639329 
L 597.192612 319.300095 
L 597.192612 312.639329 
L 599.649258 294.968418 
L 601.845724 280.42906 
L 605.595053 257.712867 
L 608.4406 241.881122 
L 608.826761 239.793419 
L 609.152671 239.097518 
L 609.538833 300.262235 
L 610.313895 385.907751 
L 610.313895 379.246985 
L 611.735299 363.166704 
L 613.416882 346.440229 
L 615.484628 328.297099 
L 617.552373 311.993136 
L 619.880298 295.266661 
L 622.205485 279.882281 
L 625.826094 257.961403 
L 627.118777 250.62959 
L 627.441948 249.908836 
L 627.765118 305.978564 
L 628.219748 361.924024 
L 628.540181 385.907751 
L 629.961584 368.957594 
L 631.900609 349.074711 
L 634.228535 328.421367 
L 636.29628 312.09255 
L 638.624205 295.366075 
L 640.949392 279.981695 
L 644.57 258.060817 
L 647.412808 242.204219 
L 649.612013 230.62244 
L 649.872193 229.951392 
L 650.129634 284.405636 
L 651.033417 385.907751 
L 651.033417 379.246985 
L 652.45482 363.166704 
L 652.78073 361.799756 
L 653.038171 422.218865 
L 653.295612 452.515407 
L 653.295612 445.854641 
L 654.130927 429.252434 
L 656.798455 386.926748 
L 658.219859 369.877177 
L 659.769983 353.672628 
L 661.194126 340.326243 
L 661.451567 339.182977 
L 661.711747 394.084586 
L 662.097909 439.193875 
L 662.097909 432.53311 
L 662.52789 424.082885 
L 662.785331 421.49811 
L 663.042772 465.836938 
L 663.278304 459.176172 
L 666.77293 399.105014 
L 667.679452 386.628505 
L 668.002623 384.963314 
L 668.262803 436.509686 
L 668.454514 452.515407 
L 668.859847 444.114889 
L 669.629432 430.867918 
L 670.188134 420.106308 
L 670.511305 417.670655 
L 670.812565 465.836938 
L 671.346619 453.857501 
L 672.351735 438.000902 
L 672.778978 428.780216 
L 675.446506 386.628505 
L 676.86791 369.578934 
L 678.678214 350.889024 
L 680.488519 334.435939 
L 682.427543 318.529633 
L 684.495289 303.045839 
L 687.080655 285.374927 
L 689.666022 269.070963 
L 693.02645 249.610592 
L 694.836755 239.743712 
L 695.096935 239.047811 
L 695.485835 300.262235 
L 696.258159 385.907751 
L 696.258159 379.246985 
L 697.939742 360.457661 
L 699.621326 344.054283 
L 701.428891 328.297099 
L 702.335413 320.965286 
L 702.658584 319.946289 
L 702.918764 380.191422 
L 703.110475 405.890047 
L 703.367916 425.872344 
L 704.403158 406.983606 
L 705.572599 389.934034 
L 706.994002 372.412244 
L 708.546865 355.884598 
L 710.22571 340.028 
L 712.293456 322.555917 
L 714.750102 303.890861 
L 717.464189 285.300366 
L 720.827356 264.373632 
L 723.412723 249.536032 
L 725.609189 237.581449 
L 725.869368 236.885548 
L 726.192539 292.333936 
L 727.030592 385.907751 
L 727.030592 379.246985 
L 728.451996 363.166704 
L 730.391021 344.054283 
L 730.779922 340.525072 
L 731.103092 339.381806 
L 731.363272 394.084586 
L 731.749434 439.193875 
L 731.749434 432.53311 
L 732.436857 419.01275 
L 733.472099 401.565521 
L 734.247161 390.505667 
L 734.570332 388.765915 
L 734.827773 451.02419 
L 734.956493 465.836938 
L 734.956493 459.176172 
L 735.493286 449.284438 
L 738.90575 391.773201 
L 740.327154 373.978021 
L 740.844775 368.137425 
L 741.167946 366.720769 
L 741.491117 431.315283 
L 741.685567 452.515407 
L 741.685567 445.854641 
L 742.520881 429.252434 
L 745.185671 386.926748 
L 746.867255 367.019013 
L 748.548839 349.919734 
L 750.356404 333.541209 
L 753.07323 311.794307 
L 755.398416 295.067832 
L 757.597621 280.503621 
L 760.569149 262.28593 
L 762.897075 249.014106 
L 765.611162 234.400187 
L 767.421466 225.10494 
L 767.681646 224.458746 
L 768.004817 278.714161 
L 768.585429 349.571783 
L 768.908599 372.58622 
L 770.458724 356.03372 
L 772.140307 340.152268 
L 774.336773 321.636334 
L 776.664699 304.015129 
L 779.378786 285.424634 
L 781.057631 274.687878 
L 781.317811 273.892562 
L 781.577991 325.215252 
L 781.964152 374.052582 
L 782.287323 399.229282 
L 783.580006 381.806906 
L 785.00141 365.428382 
L 786.551535 349.720905 
L 788.622019 331.180117 
L 790.561044 315.572054 
L 792.75751 299.417213 
L 795.600317 280.404206 
L 799.349646 257.688013 
L 802.195193 241.856268 
L 805.295441 225.651719 
L 807.494646 214.765841 
L 807.817817 214.144501 
L 808.012267 262.981831 
L 808.724338 349.571783 
L 809.044771 372.58622 
L 810.597634 356.03372 
L 810.726354 354.741333 
L 810.986534 353.473799 
L 811.243975 408.102018 
L 811.567146 439.193875 
L 811.695867 435.863493 
L 811.997128 432.731939 
L 812.060118 452.515407 
L 812.22992 465.836938 
L 812.465451 459.176172 
L 815.960078 399.105014 
L 817.384221 380.116861 
L 818.934345 362.570218 
L 820.744649 344.799892 
L 822.554954 328.968146 
L 824.75142 311.595478 
L 827.079345 294.893857 
L 829.275811 280.354499 
L 832.118618 262.90727 
L 835.350327 244.615018 
L 840.392339 218.518735 
L 842.977705 206.06708 
L 847.630817 185.016078 
L 849.701301 176.118489 
L 850.024472 175.571709 
L 850.281913 230.299343 
L 851.445876 359.264688 
L 851.445876 352.603923 
L 853.124721 337.070421 
L 855.841547 314.901007 
L 857.909292 299.740309 
L 859.977038 285.698024 
L 862.691125 268.598745 
L 865.922833 249.883982 
L 868.8971 233.853408 
L 872.386249 216.232204 
L 876.78192 195.554006 
L 879.367286 184.096495 
L 882.210094 171.967937 
L 887.252106 151.463714 
L 893.197901 128.921497 
L 901.21418 100.538682 
L 904.445889 89.702511 
L 904.706068 89.28 
L 904.96351 136.129041 
L 906.256193 285.996267 
L 906.579364 305.978564 
L 908.77583 290.643891 
L 911.232476 274.762439 
L 912.7826 265.342923 
L 913.108509 264.572461 
L 913.43168 319.648045 
L 914.141013 399.229282 
L 914.141013 392.568516 
L 915.433696 376.165138 
L 916.98382 359.14042 
L 917.501441 353.921164 
L 917.761621 352.65363 
L 918.019062 408.102018 
L 918.342233 439.193875 
L 918.900935 426.965903 
L 919.588358 414.46454 
L 920.620861 397.912041 
L 921.913545 380.713348 
L 923.466408 363.06729 
L 925.145253 346.390522 
L 927.212998 328.247392 
L 929.798365 308.09112 
L 933.030073 285.67317 
L 936.39324 264.721583 
L 937.168302 260.14852 
L 937.425743 259.402912 
L 937.685923 311.570624 
L 938.460985 399.229282 
L 938.460985 392.568516 
L 939.753669 376.165138 
L 941.303793 359.14042 
L 942.725197 345.27211 
L 942.985377 344.079137 
L 943.374277 411.506962 
L 943.631718 439.193875 
L 943.631718 432.53311 
L 944.319141 419.01275 
L 945.351644 401.565521 
L 946.775787 382.154857 
L 948.325911 364.359677 
L 950.136216 346.315961 
L 952.203961 328.172831 
L 954.271706 311.868868 
L 956.599632 295.142393 
L 958.924818 279.758013 
L 962.545427 257.861989 
L 965.388234 242.030243 
L 967.198539 232.461606 
L 967.458719 231.790559 
L 967.71616 284.405636 
L 968.619943 385.907751 
L 968.619943 379.246985 
L 970.301526 360.457661 
L 971.98311 344.054283 
L 973.790675 328.297099 
L 974.437017 323.028135 
L 974.697197 321.984284 
L 974.954638 380.191422 
L 975.40653 425.872344 
L 976.441772 406.983606 
L 977.605734 389.934034 
L 977.928905 388.219136 
L 978.186346 451.02419 
L 978.315067 465.836938 
L 978.315067 459.176172 
L 978.851859 449.284438 
L 979.985696 428.780216 
L 980.456758 425.996612 
L 980.519749 452.515407 
L 980.692289 465.836938 
L 980.925082 459.176172 
L 983.515926 413.619518 
L 983.776106 411.382694 
L 984.096538 465.836938 
L 984.332069 459.176172 
L 987.829434 399.105014 
L 988.733217 386.628505 
L 988.993397 384.963314 
L 989.250838 436.509686 
L 989.445289 452.515407 
L 989.850621 444.114889 
L 990.620206 430.867918 
L 991.307629 417.670655 
L 992.340132 400.496816 
L 993.632815 382.825904 
L 995.054219 366.273404 
L 996.218182 354.244261 
L 996.218182 354.244261 
" clip-path="url(#pba41d51f9f)" style="fill: none; stroke: #1f77b4; stroke-width: 1.5; stroke-linecap: square"/>
   </g>
   <g id="patch_3">
    <path d="M 144 512.64 
L 144 69.12 
" style="fill: none; stroke: #000000; stroke-width: 0.8; stroke-linejoin: miter; stroke-linecap: square"/>
   </g>
   <g id="patch_4">
    <path d="M 1036.8 512.64 
L 1036.8 69.12 
" style="fill: none; stroke: #000000; stroke-width: 0.8; stroke-linejoin: miter; stroke-linecap: square"/>
   </g>
   <g id="patch_5">
    <path d="M 144 512.64 
L 1036.8 512.64 
" style="fill: none; stroke: #000000; stroke-width: 0.8; stroke-linejoin: miter; stroke-linecap: square"/>
   </g>
   <g id="patch_6">
    <path d="M 144 69.12 
L 1036.8 69.12 
" style="fill: none; stroke: #000000; stroke-width: 0.8; stroke-linejoin: miter; stroke-linecap: square"/>
   </g>
   <g id="text_19">
    <!-- Graph of congestion window vs Time result/channelbw2 -->
    <g transform="translate(408.498516 63.12) scale(0.13 -0.13)">
     <defs>
      <path id="DejaVuSans-47" d="M 3809 666 
L 3809 1919 
L 2778 1919 
L 2778 2438 
L 4434 2438 
L 4434 434 
Q 4069 175 3628 42 
Q 3188 -91 2688 -91 
Q 1594 -91 976 548 
Q 359 1188 359 2328 
Q 359 3472 976 4111 
Q 1594 4750 2688 4750 
Q 3144 4750 3555 4637 
Q 3966 4525 4313 4306 
L 4313 3634 
Q 3963 3931 3569 4081 
Q 3175 4231 2741 4231 
Q 1884 4231 1454 3753 
Q 1025 3275 1025 2328 
Q 1025 1384 1454 906 
Q 1884 428 2741 428 
Q 3075 428 3337 486 
Q 3600 544 3809 666 
z
" transform="scale(0.015625)"/>
      <path id="DejaVuSans-72" d="M 2631 2963 
Q 2534 3019 2420 3045 
Q 2306 3072 2169 3072 
Q 1681 3072 1420 2755 
Q 1159 2438 1159 1844 
L 1159 0 
L 581 0 
L 581 3500 
L 1159 3500 
L 1159 2956 
Q 1341 3275 1631 3429 
Q 1922 3584 2338 3584 
Q 2397 3584 2469 3576 
Q 2541 3569 2628 3553 
L 2631 2963 
z
" transform="scale(0.015625)"/>
      <path id="DejaVuSans-61" d="M 2194 1759 
Q 1497 1759 1228 1600 
Q 959 1441 959 1056 
Q 959 750 1161 570 
Q 1363 391 1709 391 
Q 2188 391 2477 730 
Q 2766 1069 2766 1631 
L 2766 1759 
L 2194 1759 
z
M 3341 1997 
L 3341 0 
L 2766 0 
L 2766 531 
Q 2569 213 2275 61 
Q 1981 -91 1556 -91 
Q 1019 -91 701 211 
Q 384 513 384 1019 
Q 384 1609 779 1909 
Q 1175 2209 1959 2209 
L 2766 2209 
L 2766 2266 
Q 2766 2663 2505 2880 
Q 2244 3097 1772 3097 
Q 1472 3097 1187 3025 
Q 903 2953 641 2809 
L 641 3341 
Q 956 3463 1253 3523 
Q 1550 3584 1831 3584 
Q 2591 3584 2966 3190 
Q 3341 2797 3341 1997 
z
" transform="scale(0.015625)"/>
      <path id="DejaVuSans-70" d="M 1159 525 
L 1159 -1331 
L 581 -1331 
L 581 3500 
L 1159 3500 
L 1159 2969 
Q 1341 3281 1617 3432 
Q 1894 3584 2278 3584 
Q 2916 3584 3314 3078 
Q 3713 2572 3713 1747 
Q 3713 922 3314 415 
Q 2916 -91 2278 -91 
Q 1894 -91 1617 61 
Q 1341 213 1159 525 
z
M 3116 1747 
Q 3116 2381 2855 2742 
Q 2594 3103 2138 3103 
Q 1681 3103 1420 2742 
Q 1159 2381 1159 1747 
Q 1159 1113 1420 752 
Q 1681 391 2138 391 
Q 2594 391 2855 752 
Q 3116 1113 3116 1747 
z
" transform="scale(0.015625)"/>
      <path id="DejaVuSans-68" d="M 3513 2113 
L 3513 0 
L 2938 0 
L 2938 2094 
Q 2938 2591 2744 2837 
Q 2550 3084 2163 3084 
Q 1697 3084 1428 2787 
Q 1159 2491 1159 1978 
L 1159 0 
L 581 0 
L 581 4863 
L 1159 4863 
L 1159 2956 
Q 1366 3272 1645 3428 
Q 1925 3584 2291 3584 
Q 2894 3584 3203 3211 
Q 3513 2838 3513 2113 
z
" transform="scale(0.015625)"/>
      <path id="DejaVuSans-66" d="M 2375 4863 
L 2375 4384 
L 1825 4384 
Q 1516 4384 1395 4259 
Q 1275 4134 1275 3809 
L 1275 3500 
L 2222 3500 
L 2222 3053 
L 1275 3053 
L 1275 0 
L 697 0 
L 697 3053 
L 147 3053 
L 147 3500 
L 697 3500 
L 697 3744 
Q 697 4328 969 4595 
Q 1241 4863 1831 4863 
L 2375 4863 
z
" transform="scale(0.015625)"/>
      <path id="DejaVuSans-76" d="M 191 3500 
L 800 3500 
L 1894 563 
L 2988 3500 
L 3597 3500 
L 2284 0 
L 1503 0 
L 191 3500 
z
" transform="scale(0.015625)"/>
      <path id="DejaVuSans-75" d="M 544 1381 
L 544 3500 
L 1119 3500 
L 1119 1403 
Q 1119 906 1312 657 
Q 1506 409 1894 409 
Q 2359 409 2629 706 
Q 2900 1003 2900 1516 
L 2900 3500 
L 3475 3500 
L 3475 0 
L 2900 0 
L 2900 538 
Q 2691 219 2414 64 
Q 2138 -91 1772 -91 
Q 1169 -91 856 284 
Q 544 659 544 1381 
z
M 1991 3584 
L 1991 3584 
z
" transform="scale(0.015625)"/>
      <path id="DejaVuSans-6c" d="M 603 4863 
L 1178 4863 
L 1178 0 
L 603 0 
L 603 4863 
z
" transform="scale(0.015625)"/>
      <path id="DejaVuSans-2f" d="M 1625 4666 
L 2156 4666 
L 531 -594 
L 0 -594 
L 1625 4666 
z
" transform="scale(0.015625)"/>
      <path id="DejaVuSans-62" d="M 3116 1747 
Q 3116 2381 2855 2742 
Q 2594 3103 2138 3103 
Q 1681 3103 1420 2742 
Q 1159 2381 1159 1747 
Q 1159 1113 1420 752 
Q 1681 391 2138 391 
Q 2594 391 2855 752 
Q 3116 1113 3116 1747 
z
M 1159 2969 
Q 1341 3281 1617 3432 
Q 1894 3584 2278 3584 
Q 2916 3584 3314 3078 
Q 3713 2572 3713 1747 
Q 3713 922 3314 415 
Q 2916 -91 2278 -91 
Q 1894 -91 1617 61 
Q 1341 213 1159 525 
L 1159 0 
L 581 0 
L 581 4863 
L 1159 4863 
L 1159 2969 
z
" transform="scale(0.015625)"/>
     </defs>
     <use xlink:href="#DejaVuSans-47"/>
     <use xlink:href="#DejaVuSans-72" x="77.490234"/>
     <use xlink:href="#DejaVuSans-61" x="118.603516"/>
     <use xlink:href="#DejaVuSans-70" x="179.882812"/>
     <use xlink:href="#DejaVuSans-68" x="243.359375"/>
     <use xlink:href="#DejaVuSans-20" x="306.738281"/>
     <use xlink:href="#DejaVuSans-6f" x="338.525391"/>
     <use xlink:href="#DejaVuSans-66" x="399.707031"/>
     <use xlink:href="#DejaVuSans-20" x="434.912109"/>
     <use xlink:href="#DejaVuSans-63" x="466.699219"/>
     <use xlink:href="#DejaVuSans-6f" x="521.679688"/>
     <use xlink:href="#DejaVuSans-6e" x="582.861328"/>
     <use xlink:href="#DejaVuSans-67" x="646.240234"/>
     <use xlink:href="#DejaVuSans-65" x="709.716797"/>
     <use xlink:href="#DejaVuSans-73" x="771.240234"/>
     <use xlink:href="#DejaVuSans-74" x="823.339844"/>
     <use xlink:href="#DejaVuSans-69" x="862.548828"/>
     <use xlink:href="#DejaVuSans-6f" x="890.332031"/>
     <use xlink:href="#DejaVuSans-6e" x="951.513672"/>
     <use xlink:href="#DejaVuSans-20" x="1014.892578"/>
     <use xlink:href="#DejaVuSans-77" x="1046.679688"/>
     <use xlink:href="#DejaVuSans-69" x="1128.466797"/>
     <use xlink:href="#DejaVuSans-6e" x="1156.25"/>
     <use xlink:href="#DejaVuSans-64" x="1219.628906"/>
     <use xlink:href="#DejaVuSans-6f" x="1283.105469"/>
     <use xlink:href="#DejaVuSans-77" x="1344.287109"/>
     <use xlink:href="#DejaVuSans-20" x="1426.074219"/>
     <use xlink:href="#DejaVuSans-76" x="1457.861328"/>
     <use xlink:href="#DejaVuSans-73" x="1517.041016"/>
     <use xlink:href="#DejaVuSans-20" x="1569.140625"/>
     <use xlink:href="#DejaVuSans-54" x="1600.927734"/>
     <use xlink:href="#DejaVuSans-69" x="1658.886719"/>
     <use xlink:href="#DejaVuSans-6d" x="1686.669922"/>
     <use xlink:href="#DejaVuSans-65" x="1784.082031"/>
     <use xlink:href="#DejaVuSans-20" x="1845.605469"/>
     <use xlink:href="#DejaVuSans-72" x="1877.392578"/>
     <use xlink:href="#DejaVuSans-65" x="1916.255859"/>
     <use xlink:href="#DejaVuSans-73" x="1977.779297"/>
     <use xlink:href="#DejaVuSans-75" x="2029.878906"/>
     <use xlink:href="#DejaVuSans-6c" x="2093.257812"/>
     <use xlink:href="#DejaVuSans-74" x="2121.041016"/>
     <use xlink:href="#DejaVuSans-2f" x="2160.25"/>
     <use xlink:href="#DejaVuSans-63" x="2193.941406"/>
     <use xlink:href="#DejaVuSans-68" x="2248.921875"/>
     <use xlink:href="#DejaVuSans-61" x="2312.300781"/>
     <use xlink:href="#DejaVuSans-6e" x="2373.580078"/>
     <use xlink:href="#DejaVuSans-6e" x="2436.958984"/>
     <use xlink:href="#DejaVuSans-65" x="2500.337891"/>
     <use xlink:href="#DejaVuSans-6c" x="2561.861328"/>
     <use xlink:href="#DejaVuSans-62" x="2589.644531"/>
     <use xlink:href="#DejaVuSans-77" x="2653.121094"/>
     <use xlink:href="#DejaVuSans-32" x="2734.908203"/>
    </g>
   </g>
  </g>
 </g>
 <defs>
  <clipPath id="pba41d51f9f">
   <rect x="144" y="69.12" width="892.8" height="443.52"/>
  </clipPath>
 </defs>
</svg>
