<?xml version="1.0" encoding="utf-8" standalone="no"?>
<!DOCTYPE svg PUBLIC "-//W3C//DTD SVG 1.1//EN"
  "http://www.w3.org/Graphics/SVG/1.1/DTD/svg11.dtd">
<svg xmlns:xlink="http://www.w3.org/1999/xlink" width="1152pt" height="576pt" viewBox="0 0 1152 576" xmlns="http://www.w3.org/2000/svg" version="1.1">
 <metadata>
  <rdf:RDF xmlns:dc="http://purl.org/dc/elements/1.1/" xmlns:cc="http://creativecommons.org/ns#" xmlns:rdf="http://www.w3.org/1999/02/22-rdf-syntax-ns#">
   <cc:Work>
    <dc:type rdf:resource="http://purl.org/dc/dcmitype/StillImage"/>
    <dc:date>2023-01-05T15:16:18.695443</dc:date>
    <dc:format>image/svg+xml</dc:format>
    <dc:creator>
     <cc:Agent>
      <dc:title>Matplotlib v3.6.2, https://matplotlib.org/</dc:title>
     </cc:Agent>
    </dc:creator>
   </cc:Work>
  </rdf:RDF>
 </metadata>
 <defs>
  <style type="text/css">*{stroke-linejoin: round; stroke-linecap: butt}</style>
 </defs>
 <g id="figure_1">
  <g id="patch_1">
   <path d="M 0 576 
L 1152 576 
L 1152 0 
L 0 0 
z
" style="fill: #ffffff"/>
  </g>
  <g id="axes_1">
   <g id="patch_2">
    <path d="M 144 512.64 
L 1036.8 512.64 
L 1036.8 69.12 
L 144 69.12 
z
" style="fill: #ffffff"/>
   </g>
   <g id="matplotlib.axis_1">
    <g id="xtick_1">
     <g id="line2d_1">
      <defs>
       <path id="ma588fead8a" d="M 0 0 
L 0 3.5 
" style="stroke: #000000; stroke-width: 0.8"/>
      </defs>
      <g>
       <use xlink:href="#ma588fead8a" x="156.418575" y="512.64" style="stroke: #000000; stroke-width: 0.8"/>
      </g>
     </g>
     <g id="text_1">
      <!-- 0 -->
      <g transform="translate(153.237325 527.238438) scale(0.1 -0.1)">
       <defs>
        <path id="DejaVuSans-30" d="M 2034 4250 
Q 1547 4250 1301 3770 
Q 1056 3291 1056 2328 
Q 1056 1369 1301 889 
Q 1547 409 2034 409 
Q 2525 409 2770 889 
Q 3016 1369 3016 2328 
Q 3016 3291 2770 3770 
Q 2525 4250 2034 4250 
z
M 2034 4750 
Q 2819 4750 3233 4129 
Q 3647 3509 3647 2328 
Q 3647 1150 3233 529 
Q 2819 -91 2034 -91 
Q 1250 -91 836 529 
Q 422 1150 422 2328 
Q 422 3509 836 4129 
Q 1250 4750 2034 4750 
z
" transform="scale(0.015625)"/>
       </defs>
       <use xlink:href="#DejaVuSans-30"/>
      </g>
     </g>
    </g>
    <g id="xtick_2">
     <g id="line2d_2">
      <g>
       <use xlink:href="#ma588fead8a" x="296.387976" y="512.64" style="stroke: #000000; stroke-width: 0.8"/>
      </g>
     </g>
     <g id="text_2">
      <!-- 5 -->
      <g transform="translate(293.206726 527.238438) scale(0.1 -0.1)">
       <defs>
        <path id="DejaVuSans-35" d="M 691 4666 
L 3169 4666 
L 3169 4134 
L 1269 4134 
L 1269 2991 
Q 1406 3038 1543 3061 
Q 1681 3084 1819 3084 
Q 2600 3084 3056 2656 
Q 3513 2228 3513 1497 
Q 3513 744 3044 326 
Q 2575 -91 1722 -91 
Q 1428 -91 1123 -41 
Q 819 9 494 109 
L 494 744 
Q 775 591 1075 516 
Q 1375 441 1709 441 
Q 2250 441 2565 725 
Q 2881 1009 2881 1497 
Q 2881 1984 2565 2268 
Q 2250 2553 1709 2553 
Q 1456 2553 1204 2497 
Q 953 2441 691 2322 
L 691 4666 
z
" transform="scale(0.015625)"/>
       </defs>
       <use xlink:href="#DejaVuSans-35"/>
      </g>
     </g>
    </g>
    <g id="xtick_3">
     <g id="line2d_3">
      <g>
       <use xlink:href="#ma588fead8a" x="436.357376" y="512.64" style="stroke: #000000; stroke-width: 0.8"/>
      </g>
     </g>
     <g id="text_3">
      <!-- 10 -->
      <g transform="translate(429.994876 527.238438) scale(0.1 -0.1)">
       <defs>
        <path id="DejaVuSans-31" d="M 794 531 
L 1825 531 
L 1825 4091 
L 703 3866 
L 703 4441 
L 1819 4666 
L 2450 4666 
L 2450 531 
L 3481 531 
L 3481 0 
L 794 0 
L 794 531 
z
" transform="scale(0.015625)"/>
       </defs>
       <use xlink:href="#DejaVuSans-31"/>
       <use xlink:href="#DejaVuSans-30" x="63.623047"/>
      </g>
     </g>
    </g>
    <g id="xtick_4">
     <g id="line2d_4">
      <g>
       <use xlink:href="#ma588fead8a" x="576.326777" y="512.64" style="stroke: #000000; stroke-width: 0.8"/>
      </g>
     </g>
     <g id="text_4">
      <!-- 15 -->
      <g transform="translate(569.964277 527.238438) scale(0.1 -0.1)">
       <use xlink:href="#DejaVuSans-31"/>
       <use xlink:href="#DejaVuSans-35" x="63.623047"/>
      </g>
     </g>
    </g>
    <g id="xtick_5">
     <g id="line2d_5">
      <g>
       <use xlink:href="#ma588fead8a" x="716.296177" y="512.64" style="stroke: #000000; stroke-width: 0.8"/>
      </g>
     </g>
     <g id="text_5">
      <!-- 20 -->
      <g transform="translate(709.933677 527.238438) scale(0.1 -0.1)">
       <defs>
        <path id="DejaVuSans-32" d="M 1228 531 
L 3431 531 
L 3431 0 
L 469 0 
L 469 531 
Q 828 903 1448 1529 
Q 2069 2156 2228 2338 
Q 2531 2678 2651 2914 
Q 2772 3150 2772 3378 
Q 2772 3750 2511 3984 
Q 2250 4219 1831 4219 
Q 1534 4219 1204 4116 
Q 875 4013 500 3803 
L 500 4441 
Q 881 4594 1212 4672 
Q 1544 4750 1819 4750 
Q 2544 4750 2975 4387 
Q 3406 4025 3406 3419 
Q 3406 3131 3298 2873 
Q 3191 2616 2906 2266 
Q 2828 2175 2409 1742 
Q 1991 1309 1228 531 
z
" transform="scale(0.015625)"/>
       </defs>
       <use xlink:href="#DejaVuSans-32"/>
       <use xlink:href="#DejaVuSans-30" x="63.623047"/>
      </g>
     </g>
    </g>
    <g id="xtick_6">
     <g id="line2d_6">
      <g>
       <use xlink:href="#ma588fead8a" x="856.265578" y="512.64" style="stroke: #000000; stroke-width: 0.8"/>
      </g>
     </g>
     <g id="text_6">
      <!-- 25 -->
      <g transform="translate(849.903078 527.238438) scale(0.1 -0.1)">
       <use xlink:href="#DejaVuSans-32"/>
       <use xlink:href="#DejaVuSans-35" x="63.623047"/>
      </g>
     </g>
    </g>
    <g id="xtick_7">
     <g id="line2d_7">
      <g>
       <use xlink:href="#ma588fead8a" x="996.234978" y="512.64" style="stroke: #000000; stroke-width: 0.8"/>
      </g>
     </g>
     <g id="text_7">
      <!-- 30 -->
      <g transform="translate(989.872478 527.238438) scale(0.1 -0.1)">
       <defs>
        <path id="DejaVuSans-33" d="M 2597 2516 
Q 3050 2419 3304 2112 
Q 3559 1806 3559 1356 
Q 3559 666 3084 287 
Q 2609 -91 1734 -91 
Q 1441 -91 1130 -33 
Q 819 25 488 141 
L 488 750 
Q 750 597 1062 519 
Q 1375 441 1716 441 
Q 2309 441 2620 675 
Q 2931 909 2931 1356 
Q 2931 1769 2642 2001 
Q 2353 2234 1838 2234 
L 1294 2234 
L 1294 2753 
L 1863 2753 
Q 2328 2753 2575 2939 
Q 2822 3125 2822 3475 
Q 2822 3834 2567 4026 
Q 2313 4219 1838 4219 
Q 1578 4219 1281 4162 
Q 984 4106 628 3988 
L 628 4550 
Q 988 4650 1302 4700 
Q 1616 4750 1894 4750 
Q 2613 4750 3031 4423 
Q 3450 4097 3450 3541 
Q 3450 3153 3228 2886 
Q 3006 2619 2597 2516 
z
" transform="scale(0.015625)"/>
       </defs>
       <use xlink:href="#DejaVuSans-33"/>
       <use xlink:href="#DejaVuSans-30" x="63.623047"/>
      </g>
     </g>
    </g>
    <g id="text_8">
     <!-- Time in seconds -->
     <g transform="translate(537.870859 543.196094) scale(0.13 -0.13)">
      <defs>
       <path id="DejaVuSans-54" d="M -19 4666 
L 3928 4666 
L 3928 4134 
L 2272 4134 
L 2272 0 
L 1638 0 
L 1638 4134 
L -19 4134 
L -19 4666 
z
" transform="scale(0.015625)"/>
       <path id="DejaVuSans-69" d="M 603 3500 
L 1178 3500 
L 1178 0 
L 603 0 
L 603 3500 
z
M 603 4863 
L 1178 4863 
L 1178 4134 
L 603 4134 
L 603 4863 
z
" transform="scale(0.015625)"/>
       <path id="DejaVuSans-6d" d="M 3328 2828 
Q 3544 3216 3844 3400 
Q 4144 3584 4550 3584 
Q 5097 3584 5394 3201 
Q 5691 2819 5691 2113 
L 5691 0 
L 5113 0 
L 5113 2094 
Q 5113 2597 4934 2840 
Q 4756 3084 4391 3084 
Q 3944 3084 3684 2787 
Q 3425 2491 3425 1978 
L 3425 0 
L 2847 0 
L 2847 2094 
Q 2847 2600 2669 2842 
Q 2491 3084 2119 3084 
Q 1678 3084 1418 2786 
Q 1159 2488 1159 1978 
L 1159 0 
L 581 0 
L 581 3500 
L 1159 3500 
L 1159 2956 
Q 1356 3278 1631 3431 
Q 1906 3584 2284 3584 
Q 2666 3584 2933 3390 
Q 3200 3197 3328 2828 
z
" transform="scale(0.015625)"/>
       <path id="DejaVuSans-65" d="M 3597 1894 
L 3597 1613 
L 953 1613 
Q 991 1019 1311 708 
Q 1631 397 2203 397 
Q 2534 397 2845 478 
Q 3156 559 3463 722 
L 3463 178 
Q 3153 47 2828 -22 
Q 2503 -91 2169 -91 
Q 1331 -91 842 396 
Q 353 884 353 1716 
Q 353 2575 817 3079 
Q 1281 3584 2069 3584 
Q 2775 3584 3186 3129 
Q 3597 2675 3597 1894 
z
M 3022 2063 
Q 3016 2534 2758 2815 
Q 2500 3097 2075 3097 
Q 1594 3097 1305 2825 
Q 1016 2553 972 2059 
L 3022 2063 
z
" transform="scale(0.015625)"/>
       <path id="DejaVuSans-20" transform="scale(0.015625)"/>
       <path id="DejaVuSans-6e" d="M 3513 2113 
L 3513 0 
L 2938 0 
L 2938 2094 
Q 2938 2591 2744 2837 
Q 2550 3084 2163 3084 
Q 1697 3084 1428 2787 
Q 1159 2491 1159 1978 
L 1159 0 
L 581 0 
L 581 3500 
L 1159 3500 
L 1159 2956 
Q 1366 3272 1645 3428 
Q 1925 3584 2291 3584 
Q 2894 3584 3203 3211 
Q 3513 2838 3513 2113 
z
" transform="scale(0.015625)"/>
       <path id="DejaVuSans-73" d="M 2834 3397 
L 2834 2853 
Q 2591 2978 2328 3040 
Q 2066 3103 1784 3103 
Q 1356 3103 1142 2972 
Q 928 2841 928 2578 
Q 928 2378 1081 2264 
Q 1234 2150 1697 2047 
L 1894 2003 
Q 2506 1872 2764 1633 
Q 3022 1394 3022 966 
Q 3022 478 2636 193 
Q 2250 -91 1575 -91 
Q 1294 -91 989 -36 
Q 684 19 347 128 
L 347 722 
Q 666 556 975 473 
Q 1284 391 1588 391 
Q 1994 391 2212 530 
Q 2431 669 2431 922 
Q 2431 1156 2273 1281 
Q 2116 1406 1581 1522 
L 1381 1569 
Q 847 1681 609 1914 
Q 372 2147 372 2553 
Q 372 3047 722 3315 
Q 1072 3584 1716 3584 
Q 2034 3584 2315 3537 
Q 2597 3491 2834 3397 
z
" transform="scale(0.015625)"/>
       <path id="DejaVuSans-63" d="M 3122 3366 
L 3122 2828 
Q 2878 2963 2633 3030 
Q 2388 3097 2138 3097 
Q 1578 3097 1268 2742 
Q 959 2388 959 1747 
Q 959 1106 1268 751 
Q 1578 397 2138 397 
Q 2388 397 2633 464 
Q 2878 531 3122 666 
L 3122 134 
Q 2881 22 2623 -34 
Q 2366 -91 2075 -91 
Q 1284 -91 818 406 
Q 353 903 353 1747 
Q 353 2603 823 3093 
Q 1294 3584 2113 3584 
Q 2378 3584 2631 3529 
Q 2884 3475 3122 3366 
z
" transform="scale(0.015625)"/>
       <path id="DejaVuSans-6f" d="M 1959 3097 
Q 1497 3097 1228 2736 
Q 959 2375 959 1747 
Q 959 1119 1226 758 
Q 1494 397 1959 397 
Q 2419 397 2687 759 
Q 2956 1122 2956 1747 
Q 2956 2369 2687 2733 
Q 2419 3097 1959 3097 
z
M 1959 3584 
Q 2709 3584 3137 3096 
Q 3566 2609 3566 1747 
Q 3566 888 3137 398 
Q 2709 -91 1959 -91 
Q 1206 -91 779 398 
Q 353 888 353 1747 
Q 353 2609 779 3096 
Q 1206 3584 1959 3584 
z
" transform="scale(0.015625)"/>
       <path id="DejaVuSans-64" d="M 2906 2969 
L 2906 4863 
L 3481 4863 
L 3481 0 
L 2906 0 
L 2906 525 
Q 2725 213 2448 61 
Q 2172 -91 1784 -91 
Q 1150 -91 751 415 
Q 353 922 353 1747 
Q 353 2572 751 3078 
Q 1150 3584 1784 3584 
Q 2172 3584 2448 3432 
Q 2725 3281 2906 2969 
z
M 947 1747 
Q 947 1113 1208 752 
Q 1469 391 1925 391 
Q 2381 391 2643 752 
Q 2906 1113 2906 1747 
Q 2906 2381 2643 2742 
Q 2381 3103 1925 3103 
Q 1469 3103 1208 2742 
Q 947 2381 947 1747 
z
" transform="scale(0.015625)"/>
      </defs>
      <use xlink:href="#DejaVuSans-54"/>
      <use xlink:href="#DejaVuSans-69" x="57.958984"/>
      <use xlink:href="#DejaVuSans-6d" x="85.742188"/>
      <use xlink:href="#DejaVuSans-65" x="183.154297"/>
      <use xlink:href="#DejaVuSans-20" x="244.677734"/>
      <use xlink:href="#DejaVuSans-69" x="276.464844"/>
      <use xlink:href="#DejaVuSans-6e" x="304.248047"/>
      <use xlink:href="#DejaVuSans-20" x="367.626953"/>
      <use xlink:href="#DejaVuSans-73" x="399.414062"/>
      <use xlink:href="#DejaVuSans-65" x="451.513672"/>
      <use xlink:href="#DejaVuSans-63" x="513.037109"/>
      <use xlink:href="#DejaVuSans-6f" x="568.017578"/>
      <use xlink:href="#DejaVuSans-6e" x="629.199219"/>
      <use xlink:href="#DejaVuSans-64" x="692.578125"/>
      <use xlink:href="#DejaVuSans-73" x="756.054688"/>
     </g>
    </g>
   </g>
   <g id="matplotlib.axis_2">
    <g id="ytick_1">
     <g id="line2d_8">
      <defs>
       <path id="md162a4998a" d="M 0 0 
L -3.5 0 
" style="stroke: #000000; stroke-width: 0.8"/>
      </defs>
      <g>
       <use xlink:href="#md162a4998a" x="144" y="492.48" style="stroke: #000000; stroke-width: 0.8"/>
      </g>
     </g>
     <g id="text_9">
      <!-- 0 -->
      <g transform="translate(130.6375 496.279219) scale(0.1 -0.1)">
       <use xlink:href="#DejaVuSans-30"/>
      </g>
     </g>
    </g>
    <g id="ytick_2">
     <g id="line2d_9">
      <g>
       <use xlink:href="#md162a4998a" x="144" y="440.477678" style="stroke: #000000; stroke-width: 0.8"/>
      </g>
     </g>
     <g id="text_10">
      <!-- 2000 -->
      <g transform="translate(111.55 444.276897) scale(0.1 -0.1)">
       <use xlink:href="#DejaVuSans-32"/>
       <use xlink:href="#DejaVuSans-30" x="63.623047"/>
       <use xlink:href="#DejaVuSans-30" x="127.246094"/>
       <use xlink:href="#DejaVuSans-30" x="190.869141"/>
      </g>
     </g>
    </g>
    <g id="ytick_3">
     <g id="line2d_10">
      <g>
       <use xlink:href="#md162a4998a" x="144" y="388.475357" style="stroke: #000000; stroke-width: 0.8"/>
      </g>
     </g>
     <g id="text_11">
      <!-- 4000 -->
      <g transform="translate(111.55 392.274576) scale(0.1 -0.1)">
       <defs>
        <path id="DejaVuSans-34" d="M 2419 4116 
L 825 1625 
L 2419 1625 
L 2419 4116 
z
M 2253 4666 
L 3047 4666 
L 3047 1625 
L 3713 1625 
L 3713 1100 
L 3047 1100 
L 3047 0 
L 2419 0 
L 2419 1100 
L 313 1100 
L 313 1709 
L 2253 4666 
z
" transform="scale(0.015625)"/>
       </defs>
       <use xlink:href="#DejaVuSans-34"/>
       <use xlink:href="#DejaVuSans-30" x="63.623047"/>
       <use xlink:href="#DejaVuSans-30" x="127.246094"/>
       <use xlink:href="#DejaVuSans-30" x="190.869141"/>
      </g>
     </g>
    </g>
    <g id="ytick_4">
     <g id="line2d_11">
      <g>
       <use xlink:href="#md162a4998a" x="144" y="336.473035" style="stroke: #000000; stroke-width: 0.8"/>
      </g>
     </g>
     <g id="text_12">
      <!-- 6000 -->
      <g transform="translate(111.55 340.272254) scale(0.1 -0.1)">
       <defs>
        <path id="DejaVuSans-36" d="M 2113 2584 
Q 1688 2584 1439 2293 
Q 1191 2003 1191 1497 
Q 1191 994 1439 701 
Q 1688 409 2113 409 
Q 2538 409 2786 701 
Q 3034 994 3034 1497 
Q 3034 2003 2786 2293 
Q 2538 2584 2113 2584 
z
M 3366 4563 
L 3366 3988 
Q 3128 4100 2886 4159 
Q 2644 4219 2406 4219 
Q 1781 4219 1451 3797 
Q 1122 3375 1075 2522 
Q 1259 2794 1537 2939 
Q 1816 3084 2150 3084 
Q 2853 3084 3261 2657 
Q 3669 2231 3669 1497 
Q 3669 778 3244 343 
Q 2819 -91 2113 -91 
Q 1303 -91 875 529 
Q 447 1150 447 2328 
Q 447 3434 972 4092 
Q 1497 4750 2381 4750 
Q 2619 4750 2861 4703 
Q 3103 4656 3366 4563 
z
" transform="scale(0.015625)"/>
       </defs>
       <use xlink:href="#DejaVuSans-36"/>
       <use xlink:href="#DejaVuSans-30" x="63.623047"/>
       <use xlink:href="#DejaVuSans-30" x="127.246094"/>
       <use xlink:href="#DejaVuSans-30" x="190.869141"/>
      </g>
     </g>
    </g>
    <g id="ytick_5">
     <g id="line2d_12">
      <g>
       <use xlink:href="#md162a4998a" x="144" y="284.470714" style="stroke: #000000; stroke-width: 0.8"/>
      </g>
     </g>
     <g id="text_13">
      <!-- 8000 -->
      <g transform="translate(111.55 288.269933) scale(0.1 -0.1)">
       <defs>
        <path id="DejaVuSans-38" d="M 2034 2216 
Q 1584 2216 1326 1975 
Q 1069 1734 1069 1313 
Q 1069 891 1326 650 
Q 1584 409 2034 409 
Q 2484 409 2743 651 
Q 3003 894 3003 1313 
Q 3003 1734 2745 1975 
Q 2488 2216 2034 2216 
z
M 1403 2484 
Q 997 2584 770 2862 
Q 544 3141 544 3541 
Q 544 4100 942 4425 
Q 1341 4750 2034 4750 
Q 2731 4750 3128 4425 
Q 3525 4100 3525 3541 
Q 3525 3141 3298 2862 
Q 3072 2584 2669 2484 
Q 3125 2378 3379 2068 
Q 3634 1759 3634 1313 
Q 3634 634 3220 271 
Q 2806 -91 2034 -91 
Q 1263 -91 848 271 
Q 434 634 434 1313 
Q 434 1759 690 2068 
Q 947 2378 1403 2484 
z
M 1172 3481 
Q 1172 3119 1398 2916 
Q 1625 2713 2034 2713 
Q 2441 2713 2670 2916 
Q 2900 3119 2900 3481 
Q 2900 3844 2670 4047 
Q 2441 4250 2034 4250 
Q 1625 4250 1398 4047 
Q 1172 3844 1172 3481 
z
" transform="scale(0.015625)"/>
       </defs>
       <use xlink:href="#DejaVuSans-38"/>
       <use xlink:href="#DejaVuSans-30" x="63.623047"/>
       <use xlink:href="#DejaVuSans-30" x="127.246094"/>
       <use xlink:href="#DejaVuSans-30" x="190.869141"/>
      </g>
     </g>
    </g>
    <g id="ytick_6">
     <g id="line2d_13">
      <g>
       <use xlink:href="#md162a4998a" x="144" y="232.468392" style="stroke: #000000; stroke-width: 0.8"/>
      </g>
     </g>
     <g id="text_14">
      <!-- 10000 -->
      <g transform="translate(105.1875 236.267611) scale(0.1 -0.1)">
       <use xlink:href="#DejaVuSans-31"/>
       <use xlink:href="#DejaVuSans-30" x="63.623047"/>
       <use xlink:href="#DejaVuSans-30" x="127.246094"/>
       <use xlink:href="#DejaVuSans-30" x="190.869141"/>
       <use xlink:href="#DejaVuSans-30" x="254.492188"/>
      </g>
     </g>
    </g>
    <g id="ytick_7">
     <g id="line2d_14">
      <g>
       <use xlink:href="#md162a4998a" x="144" y="180.466071" style="stroke: #000000; stroke-width: 0.8"/>
      </g>
     </g>
     <g id="text_15">
      <!-- 12000 -->
      <g transform="translate(105.1875 184.26529) scale(0.1 -0.1)">
       <use xlink:href="#DejaVuSans-31"/>
       <use xlink:href="#DejaVuSans-32" x="63.623047"/>
       <use xlink:href="#DejaVuSans-30" x="127.246094"/>
       <use xlink:href="#DejaVuSans-30" x="190.869141"/>
       <use xlink:href="#DejaVuSans-30" x="254.492188"/>
      </g>
     </g>
    </g>
    <g id="ytick_8">
     <g id="line2d_15">
      <g>
       <use xlink:href="#md162a4998a" x="144" y="128.463749" style="stroke: #000000; stroke-width: 0.8"/>
      </g>
     </g>
     <g id="text_16">
      <!-- 14000 -->
      <g transform="translate(105.1875 132.262968) scale(0.1 -0.1)">
       <use xlink:href="#DejaVuSans-31"/>
       <use xlink:href="#DejaVuSans-34" x="63.623047"/>
       <use xlink:href="#DejaVuSans-30" x="127.246094"/>
       <use xlink:href="#DejaVuSans-30" x="190.869141"/>
       <use xlink:href="#DejaVuSans-30" x="254.492188"/>
      </g>
     </g>
    </g>
    <g id="ytick_9">
     <g id="line2d_16">
      <g>
       <use xlink:href="#md162a4998a" x="144" y="76.461428" style="stroke: #000000; stroke-width: 0.8"/>
      </g>
     </g>
     <g id="text_17">
      <!-- 16000 -->
      <g transform="translate(105.1875 80.260646) scale(0.1 -0.1)">
       <use xlink:href="#DejaVuSans-31"/>
       <use xlink:href="#DejaVuSans-36" x="63.623047"/>
       <use xlink:href="#DejaVuSans-30" x="127.246094"/>
       <use xlink:href="#DejaVuSans-30" x="190.869141"/>
       <use xlink:href="#DejaVuSans-30" x="254.492188"/>
      </g>
     </g>
    </g>
    <g id="text_18">
     <!-- Congestion Window Sizes -->
     <g transform="translate(98.483906 373.964219) rotate(-90) scale(0.13 -0.13)">
      <defs>
       <path id="DejaVuSans-43" d="M 4122 4306 
L 4122 3641 
Q 3803 3938 3442 4084 
Q 3081 4231 2675 4231 
Q 1875 4231 1450 3742 
Q 1025 3253 1025 2328 
Q 1025 1406 1450 917 
Q 1875 428 2675 428 
Q 3081 428 3442 575 
Q 3803 722 4122 1019 
L 4122 359 
Q 3791 134 3420 21 
Q 3050 -91 2638 -91 
Q 1578 -91 968 557 
Q 359 1206 359 2328 
Q 359 3453 968 4101 
Q 1578 4750 2638 4750 
Q 3056 4750 3426 4639 
Q 3797 4528 4122 4306 
z
" transform="scale(0.015625)"/>
       <path id="DejaVuSans-67" d="M 2906 1791 
Q 2906 2416 2648 2759 
Q 2391 3103 1925 3103 
Q 1463 3103 1205 2759 
Q 947 2416 947 1791 
Q 947 1169 1205 825 
Q 1463 481 1925 481 
Q 2391 481 2648 825 
Q 2906 1169 2906 1791 
z
M 3481 434 
Q 3481 -459 3084 -895 
Q 2688 -1331 1869 -1331 
Q 1566 -1331 1297 -1286 
Q 1028 -1241 775 -1147 
L 775 -588 
Q 1028 -725 1275 -790 
Q 1522 -856 1778 -856 
Q 2344 -856 2625 -561 
Q 2906 -266 2906 331 
L 2906 616 
Q 2728 306 2450 153 
Q 2172 0 1784 0 
Q 1141 0 747 490 
Q 353 981 353 1791 
Q 353 2603 747 3093 
Q 1141 3584 1784 3584 
Q 2172 3584 2450 3431 
Q 2728 3278 2906 2969 
L 2906 3500 
L 3481 3500 
L 3481 434 
z
" transform="scale(0.015625)"/>
       <path id="DejaVuSans-74" d="M 1172 4494 
L 1172 3500 
L 2356 3500 
L 2356 3053 
L 1172 3053 
L 1172 1153 
Q 1172 725 1289 603 
Q 1406 481 1766 481 
L 2356 481 
L 2356 0 
L 1766 0 
Q 1100 0 847 248 
Q 594 497 594 1153 
L 594 3053 
L 172 3053 
L 172 3500 
L 594 3500 
L 594 4494 
L 1172 4494 
z
" transform="scale(0.015625)"/>
       <path id="DejaVuSans-57" d="M 213 4666 
L 850 4666 
L 1831 722 
L 2809 4666 
L 3519 4666 
L 4500 722 
L 5478 4666 
L 6119 4666 
L 4947 0 
L 4153 0 
L 3169 4050 
L 2175 0 
L 1381 0 
L 213 4666 
z
" transform="scale(0.015625)"/>
       <path id="DejaVuSans-77" d="M 269 3500 
L 844 3500 
L 1563 769 
L 2278 3500 
L 2956 3500 
L 3675 769 
L 4391 3500 
L 4966 3500 
L 4050 0 
L 3372 0 
L 2619 2869 
L 1863 0 
L 1184 0 
L 269 3500 
z
" transform="scale(0.015625)"/>
       <path id="DejaVuSans-53" d="M 3425 4513 
L 3425 3897 
Q 3066 4069 2747 4153 
Q 2428 4238 2131 4238 
Q 1616 4238 1336 4038 
Q 1056 3838 1056 3469 
Q 1056 3159 1242 3001 
Q 1428 2844 1947 2747 
L 2328 2669 
Q 3034 2534 3370 2195 
Q 3706 1856 3706 1288 
Q 3706 609 3251 259 
Q 2797 -91 1919 -91 
Q 1588 -91 1214 -16 
Q 841 59 441 206 
L 441 856 
Q 825 641 1194 531 
Q 1563 422 1919 422 
Q 2459 422 2753 634 
Q 3047 847 3047 1241 
Q 3047 1584 2836 1778 
Q 2625 1972 2144 2069 
L 1759 2144 
Q 1053 2284 737 2584 
Q 422 2884 422 3419 
Q 422 4038 858 4394 
Q 1294 4750 2059 4750 
Q 2388 4750 2728 4690 
Q 3069 4631 3425 4513 
z
" transform="scale(0.015625)"/>
       <path id="DejaVuSans-7a" d="M 353 3500 
L 3084 3500 
L 3084 2975 
L 922 459 
L 3084 459 
L 3084 0 
L 275 0 
L 275 525 
L 2438 3041 
L 353 3041 
L 353 3500 
z
" transform="scale(0.015625)"/>
      </defs>
      <use xlink:href="#DejaVuSans-43"/>
      <use xlink:href="#DejaVuSans-6f" x="69.824219"/>
      <use xlink:href="#DejaVuSans-6e" x="131.005859"/>
      <use xlink:href="#DejaVuSans-67" x="194.384766"/>
      <use xlink:href="#DejaVuSans-65" x="257.861328"/>
      <use xlink:href="#DejaVuSans-73" x="319.384766"/>
      <use xlink:href="#DejaVuSans-74" x="371.484375"/>
      <use xlink:href="#DejaVuSans-69" x="410.693359"/>
      <use xlink:href="#DejaVuSans-6f" x="438.476562"/>
      <use xlink:href="#DejaVuSans-6e" x="499.658203"/>
      <use xlink:href="#DejaVuSans-20" x="563.037109"/>
      <use xlink:href="#DejaVuSans-57" x="594.824219"/>
      <use xlink:href="#DejaVuSans-69" x="691.451172"/>
      <use xlink:href="#DejaVuSans-6e" x="719.234375"/>
      <use xlink:href="#DejaVuSans-64" x="782.613281"/>
      <use xlink:href="#DejaVuSans-6f" x="846.089844"/>
      <use xlink:href="#DejaVuSans-77" x="907.271484"/>
      <use xlink:href="#DejaVuSans-20" x="989.058594"/>
      <use xlink:href="#DejaVuSans-53" x="1020.845703"/>
      <use xlink:href="#DejaVuSans-69" x="1084.322266"/>
      <use xlink:href="#DejaVuSans-7a" x="1112.105469"/>
      <use xlink:href="#DejaVuSans-65" x="1164.595703"/>
      <use xlink:href="#DejaVuSans-73" x="1226.119141"/>
     </g>
    </g>
   </g>
   <g id="line2d_17">
    <path d="M 184.581818 492.48 
L 184.783934 325.240534 
L 185.25955 311.303912 
L 185.285864 283.430667 
L 185.931403 269.494045 
L 185.957717 241.620801 
L 186.603256 227.684179 
L 186.629571 199.810934 
L 187.275109 185.874312 
L 187.301424 158.001068 
L 187.946963 144.064446 
L 187.96012 130.127824 
L 188.618816 116.191201 
L 188.649329 460.44657 
L 188.794057 461.902635 
L 188.794057 460.44657 
L 189.297107 454.388299 
L 189.65179 444.819872 
L 189.96896 440.763691 
L 190.144202 437.019524 
L 190.15512 433.535369 
L 190.640814 430.259222 
L 190.654251 427.139083 
L 190.820254 424.174951 
L 191.312667 421.340824 
L 191.326104 418.610702 
L 191.485389 415.984585 
L 191.98452 413.462472 
L 192.008595 408.652258 
L 192.656373 406.338154 
L 192.680448 401.917957 
L 193.328226 399.785862 
L 193.352301 395.677678 
L 194.000079 393.675589 
L 194.024154 389.801416 
L 194.671932 387.929333 
L 194.696007 384.263169 
L 195.357223 382.469089 
L 195.36786 464.606756 
L 195.532464 470.223006 
L 195.532464 464.606756 
L 196.37704 452.074196 
L 196.552281 478.543378 
L 196.552281 464.606756 
L 197.095083 447.289983 
L 197.534587 439.099617 
L 197.545504 435.485456 
L 198.031198 432.079304 
L 198.044635 428.881161 
L 198.210639 425.839025 
L 198.703051 422.926895 
L 198.716488 420.144771 
L 198.882492 417.466651 
L 199.374904 414.892536 
L 199.388341 412.396425 
L 199.547626 409.978317 
L 200.046757 407.638212 
L 200.070832 403.140012 
L 200.71861 400.981915 
L 200.742685 396.82173 
L 201.390464 394.793639 
L 201.414538 390.893465 
L 202.062317 388.99538 
L 202.086391 385.303215 
L 202.73417 383.509135 
L 202.758245 379.998979 
L 203.406023 378.282902 
L 203.430098 374.928752 
L 204.077876 373.290679 
L 204.101951 370.092536 
L 204.749729 368.506465 
L 204.773804 365.412327 
L 205.421582 363.90426 
L 205.445657 360.914127 
L 206.093435 359.458062 
L 206.11751 356.571933 
L 206.765289 355.16787 
L 206.789363 352.385746 
L 207.437142 351.007684 
L 207.461216 348.303564 
L 208.108995 346.977504 
L 208.13307 344.351387 
L 208.780848 343.051329 
L 208.804923 340.503215 
L 209.452701 339.229158 
L 209.476776 336.733047 
L 210.124554 335.510992 
L 210.148629 333.066883 
L 210.796407 331.87083 
L 210.820482 329.478723 
L 211.46826 328.308671 
L 211.492335 325.968566 
L 212.140114 324.824515 
L 212.164188 322.536413 
L 212.811967 321.418363 
L 212.836041 319.182263 
L 213.48382 318.064214 
L 213.507894 315.880116 
L 214.155673 314.788067 
L 214.179748 312.629971 
L 214.827526 311.563923 
L 214.851601 309.431828 
L 215.499379 308.391782 
L 215.523454 306.311689 
L 216.171232 305.271642 
L 216.195307 303.243552 
L 216.843085 302.229507 
L 216.86716 300.201416 
L 217.514938 299.213372 
L 217.539013 297.237284 
L 218.186792 296.24924 
L 218.210866 294.299153 
L 218.858645 293.33711 
L 218.882719 291.413024 
L 219.530498 290.450981 
L 219.554573 288.578897 
L 220.202351 287.642855 
L 220.226426 285.770772 
L 220.874204 284.83473 
L 220.898279 283.014649 
L 221.546057 282.104608 
L 221.570132 280.284527 
L 222.21791 279.374486 
L 222.241985 277.580406 
L 222.889763 276.696367 
L 222.913838 274.928288 
L 223.561617 274.044248 
L 223.585691 272.276169 
L 224.23347 271.418131 
L 224.257544 269.702055 
L 224.905323 268.844016 
L 224.91876 267.985978 
L 225.590613 267.12794 
L 225.601531 461.200604 
L 225.938577 484.159629 
L 225.938577 464.606756 
L 227.096124 439.099617 
L 227.107042 435.485456 
L 227.592735 432.079304 
L 227.606172 428.881161 
L 227.772176 425.839025 
L 228.264588 422.926895 
L 228.278026 420.144771 
L 228.444029 417.466651 
L 228.936442 414.892536 
L 228.949879 412.396425 
L 229.109164 409.978317 
L 229.608295 407.638212 
L 229.632369 403.140012 
L 230.280148 400.981915 
L 230.304223 396.82173 
L 230.952001 394.793639 
L 230.976076 390.893465 
L 231.623854 388.99538 
L 231.647929 385.303215 
L 232.295707 383.509135 
L 232.319782 379.998979 
L 232.96756 378.282902 
L 232.991635 374.928752 
L 233.639413 373.290679 
L 233.663488 370.092536 
L 234.311267 368.506465 
L 234.335341 365.412327 
L 234.98312 363.90426 
L 235.007194 360.914127 
L 235.654973 359.458062 
L 235.679048 356.571933 
L 236.326826 355.16787 
L 236.350901 352.385746 
L 236.998679 351.007684 
L 237.022754 348.303564 
L 237.670532 346.977504 
L 237.694607 344.351387 
L 238.342385 343.051329 
L 238.36646 340.503215 
L 239.014238 339.229158 
L 239.038313 336.733047 
L 239.686092 335.510992 
L 239.710166 333.066883 
L 240.357945 331.87083 
L 240.382019 329.478723 
L 241.029798 328.308671 
L 241.053873 325.968566 
L 241.701651 324.824515 
L 241.725726 322.536413 
L 242.373504 321.418363 
L 242.397579 319.182263 
L 243.045357 318.064214 
L 243.069432 315.880116 
L 243.71721 314.788067 
L 243.741285 312.629971 
L 244.389063 311.563923 
L 244.413138 309.431828 
L 245.060917 308.391782 
L 245.084991 306.311689 
L 245.73277 305.271642 
L 245.756844 303.243552 
L 246.404623 302.229507 
L 246.428697 300.201416 
L 247.076476 299.213372 
L 247.100551 297.237284 
L 247.748329 296.24924 
L 247.772404 294.299153 
L 248.420182 293.33711 
L 248.444257 291.413024 
L 249.092035 290.450981 
L 249.11611 288.578897 
L 249.763888 287.642855 
L 249.787963 285.770772 
L 250.435741 284.83473 
L 250.459816 283.014649 
L 251.107595 282.104608 
L 251.131669 280.284527 
L 251.779448 279.374486 
L 251.803522 277.580406 
L 252.451301 276.696367 
L 252.475376 274.928288 
L 253.123154 274.044248 
L 253.147229 272.276169 
L 253.795007 271.418131 
L 253.819082 269.702055 
L 254.46686 268.844016 
L 254.490935 267.12794 
L 255.138713 266.269901 
L 255.162788 264.579826 
L 255.810566 263.747789 
L 255.834641 262.083714 
L 256.48242 261.251677 
L 256.506494 259.587603 
L 257.154273 258.755566 
L 257.178347 257.143494 
L 257.826126 256.337458 
L 257.850201 254.725386 
L 258.497979 253.91935 
L 258.522054 252.307278 
L 259.169832 251.501242 
L 259.193907 249.941172 
L 259.841685 249.161138 
L 259.86576 247.601068 
L 260.513538 246.821033 
L 260.537613 245.260963 
L 261.185391 244.480929 
L 261.209466 242.920859 
L 261.857245 242.166825 
L 261.881319 240.658758 
L 262.529098 239.904724 
L 262.553172 238.396657 
L 263.200951 237.642623 
L 263.225026 236.134556 
L 263.872804 235.380522 
L 263.896879 233.898456 
L 264.544657 233.170424 
L 264.568732 231.714359 
L 265.21651 230.986326 
L 265.240585 229.530261 
L 265.888363 228.802229 
L 265.912438 227.346164 
L 266.560216 226.618131 
L 266.584291 225.162066 
L 267.23207 224.460035 
L 267.256144 223.055972 
L 267.903923 222.353941 
L 267.927997 220.949878 
L 268.575776 220.247847 
L 268.599851 218.843784 
L 269.247629 218.141753 
L 269.271704 216.73769 
L 269.919482 216.035659 
L 269.943557 214.657597 
L 270.591335 213.981567 
L 270.61541 212.629507 
L 271.263188 211.953476 
L 271.287263 210.601416 
L 271.935041 209.925386 
L 271.959116 208.573326 
L 272.606895 207.897295 
L 272.630969 206.545235 
L 273.278748 205.869205 
L 273.302822 204.517145 
L 273.950601 203.867115 
L 273.974676 202.567057 
L 274.622454 201.917028 
L 274.646529 200.61697 
L 275.294307 199.966941 
L 275.318382 198.666883 
L 275.96616 198.016854 
L 275.990235 196.716796 
L 276.638013 196.066767 
L 276.662088 194.766709 
L 277.309866 194.11668 
L 277.333941 192.842623 
L 277.98172 192.218595 
L 278.005794 190.97054 
L 278.653573 190.346512 
L 278.677647 189.098456 
L 279.325426 188.474428 
L 279.3495 187.226373 
L 279.997279 186.602345 
L 280.021354 185.354289 
L 280.669132 184.730261 
L 280.693207 183.482205 
L 281.340985 182.858178 
L 281.36506 181.610122 
L 282.012838 180.986094 
L 282.036913 179.790041 
L 282.684691 179.192014 
L 282.708766 177.995961 
L 283.356544 177.397934 
L 283.380619 176.20188 
L 284.028398 175.603854 
L 284.052472 174.4078 
L 284.700251 173.809774 
L 284.724325 172.61372 
L 285.372104 172.015694 
L 285.396179 170.81964 
L 286.043957 170.221613 
L 286.068032 169.02556 
L 286.71581 168.427533 
L 286.739885 167.23148 
L 287.387663 166.659454 
L 287.411738 165.515403 
L 288.059516 164.943378 
L 288.083591 163.799327 
L 288.731369 163.227301 
L 288.755444 162.08325 
L 289.403223 161.511225 
L 289.427297 160.367174 
L 290.075076 159.795148 
L 290.09915 158.651097 
L 290.746929 158.079071 
L 290.771004 156.93502 
L 291.418782 156.362995 
L 291.442857 155.218944 
L 292.090635 154.646918 
L 292.11471 153.502867 
L 292.762488 152.930842 
L 292.786563 151.838793 
L 293.434341 151.292768 
L 293.458416 150.20072 
L 294.106194 149.654695 
L 294.130269 148.562647 
L 294.778048 148.016622 
L 294.802122 146.924573 
L 295.449901 146.378549 
L 295.473975 145.2865 
L 296.121754 144.740476 
L 296.145829 143.648427 
L 296.793607 143.102403 
L 296.817682 142.010354 
L 297.46546 141.46433 
L 297.489535 140.372281 
L 298.137313 139.826257 
L 298.161388 138.734208 
L 298.809166 138.188183 
L 298.833241 137.096135 
L 299.481019 136.55011 
L 299.505094 135.510064 
L 300.152873 134.990041 
L 300.176947 133.949994 
L 300.824726 133.429971 
L 300.8488 132.389925 
L 301.496579 131.869901 
L 301.520654 130.829855 
L 302.168432 130.309832 
L 302.192507 129.269785 
L 302.840285 128.749762 
L 302.86436 127.709716 
L 303.512138 127.189692 
L 303.536213 126.149646 
L 304.183991 125.629623 
L 304.208066 124.589576 
L 304.855844 124.069553 
L 304.879919 123.029507 
L 305.527698 122.509483 
L 305.551772 121.469437 
L 306.199551 120.949414 
L 306.223625 119.909367 
L 306.871404 119.389344 
L 306.895479 118.375299 
L 307.543257 117.881277 
L 307.567332 116.893233 
L 308.21511 116.399211 
L 308.239185 115.411167 
L 308.886963 114.917145 
L 308.911038 113.9291 
L 309.558816 113.435078 
L 309.582891 112.447034 
L 310.230669 111.953012 
L 310.254744 110.964968 
L 310.902523 110.470946 
L 310.926597 109.482902 
L 311.574376 108.98888 
L 311.59845 108.000836 
L 312.246229 107.506814 
L 312.270303 106.51877 
L 312.918082 106.024748 
L 312.942157 105.036703 
L 313.609811 104.542681 
L 313.785052 470.223006 
L 313.785052 464.606756 
L 314.261788 457.638445 
L 314.622909 447.289983 
L 315.108883 439.099617 
L 315.119801 435.485456 
L 315.605494 432.079304 
L 315.618931 428.881161 
L 315.784935 425.839025 
L 316.277347 422.926895 
L 316.290785 420.144771 
L 316.456788 417.466651 
L 316.949201 414.892536 
L 316.962638 412.396425 
L 317.121923 409.978317 
L 317.621054 407.638212 
L 317.645128 403.140012 
L 318.292907 400.981915 
L 318.316982 396.82173 
L 318.96476 394.793639 
L 318.988835 390.893465 
L 319.636613 388.99538 
L 319.660688 385.303215 
L 320.308466 383.509135 
L 320.332541 379.998979 
L 320.980319 378.282902 
L 321.004394 374.928752 
L 321.652172 373.290679 
L 321.676247 370.092536 
L 322.324026 368.506465 
L 322.3481 365.412327 
L 322.995879 363.90426 
L 323.019953 360.914127 
L 323.667732 359.458062 
L 323.691807 356.571933 
L 324.339585 355.16787 
L 324.36366 352.385746 
L 325.011438 351.007684 
L 325.035513 348.303564 
L 325.683291 346.977504 
L 325.707366 344.351387 
L 326.355144 343.051329 
L 326.379219 340.503215 
L 327.026997 339.229158 
L 327.051072 336.733047 
L 327.698851 335.510992 
L 327.722925 333.066883 
L 328.370704 331.87083 
L 328.394778 329.478723 
L 329.042557 328.308671 
L 329.066632 325.968566 
L 329.71441 324.824515 
L 329.738485 322.536413 
L 330.386263 321.418363 
L 330.410338 319.182263 
L 331.077992 318.064214 
L 331.253234 470.223006 
L 331.253234 464.606756 
L 331.729969 457.638445 
L 332.09109 447.289983 
L 332.577064 439.099617 
L 332.587982 435.485456 
L 333.073676 432.079304 
L 333.087113 428.881161 
L 333.253116 425.839025 
L 333.745529 422.926895 
L 333.758966 420.144771 
L 333.924969 417.466651 
L 334.417382 414.892536 
L 334.430819 412.396425 
L 334.590104 409.978317 
L 335.089235 407.638212 
L 335.11331 403.140012 
L 335.761088 400.981915 
L 335.785163 396.82173 
L 336.432941 394.793639 
L 336.457016 390.893465 
L 337.104794 388.99538 
L 337.128869 385.303215 
L 337.776647 383.509135 
L 337.800722 379.998979 
L 338.448501 378.282902 
L 338.472575 374.928752 
L 339.120354 373.290679 
L 339.144428 370.092536 
L 339.792207 368.506465 
L 339.816282 365.412327 
L 340.46406 363.90426 
L 340.488135 360.914127 
L 341.135913 359.458062 
L 341.159988 356.571933 
L 341.807766 355.16787 
L 341.831841 352.385746 
L 342.479619 351.007684 
L 342.503694 348.303564 
L 343.151472 346.977504 
L 343.175547 344.351387 
L 343.823326 343.051329 
L 343.8474 340.503215 
L 344.495179 339.229158 
L 344.519253 336.733047 
L 345.167032 335.510992 
L 345.191106 333.066883 
L 345.838885 331.87083 
L 345.86296 329.478723 
L 346.510738 328.308671 
L 346.534813 325.968566 
L 347.182591 324.824515 
L 347.206666 322.536413 
L 347.854444 321.418363 
L 347.878519 319.182263 
L 348.526297 318.064214 
L 348.550372 315.880116 
L 349.19815 314.788067 
L 349.222225 312.629971 
L 349.870004 311.563923 
L 349.894078 309.431828 
L 350.541857 308.391782 
L 350.565931 306.311689 
L 351.21371 305.271642 
L 351.237785 303.243552 
L 351.885563 302.229507 
L 351.909638 300.201416 
L 352.557416 299.213372 
L 352.581491 297.237284 
L 353.229269 296.24924 
L 353.253344 294.299153 
L 353.901122 293.33711 
L 353.925197 291.413024 
L 354.572975 290.450981 
L 354.59705 288.578897 
L 355.244829 287.642855 
L 355.258266 286.706814 
L 355.916962 285.770772 
L 355.940756 464.606756 
L 383.252146 470.223006 
L 389.201125 478.543378 
L 389.564766 457.638445 
L 390.27861 439.099617 
L 390.453851 435.485456 
L 390.467008 432.079304 
L 390.635532 428.881161 
L 390.648689 425.839025 
L 390.817492 422.926895 
L 390.830649 420.144771 
L 390.999172 417.466651 
L 391.012329 414.892536 
L 391.174414 412.396425 
L 391.187571 409.978317 
L 391.349376 407.638212 
L 391.37597 403.140012 
L 391.531336 400.981915 
L 391.55765 396.82173 
L 391.713016 394.793639 
L 391.73961 390.893465 
L 391.888258 388.99538 
L 391.914572 385.303215 
L 392.063499 383.509135 
L 392.089814 379.998979 
L 392.238461 378.282902 
L 392.278213 373.290679 
L 392.420421 371.678607 
L 392.459893 366.946396 
L 392.602102 365.412327 
L 392.641853 360.914127 
L 392.777343 359.458062 
L 392.816815 355.16787 
L 392.952585 353.763807 
L 392.992056 349.655624 
L 393.127547 348.303564 
L 393.180455 343.051329 
L 393.309507 341.777272 
L 393.362415 336.733047 
L 393.491187 335.510992 
L 393.679586 328.308671 
L 393.867985 321.418363 
L 394.089417 311.563923 
L 394.218468 309.431828 
L 394.271097 305.271642 
L 394.400149 304.257597 
L 394.453057 395.833685 
L 394.582109 422.796889 
L 394.582109 415.828578 
L 394.737475 413.306465 
L 394.750632 410.862356 
L 394.912717 408.496251 
L 394.939031 403.972049 
L 395.094397 401.787951 
L 395.120711 397.575763 
L 395.276077 395.547673 
L 395.302671 391.595496 
L 395.458037 389.67141 
L 395.484352 385.953244 
L 395.632999 384.133163 
L 395.659593 380.623006 
L 395.808241 378.90693 
L 395.847992 373.914707 
L 395.990201 372.276634 
L 396.029672 367.518421 
L 396.171881 365.984353 
L 396.211633 361.460151 
L 396.347123 359.978085 
L 396.386594 355.661892 
L 396.522085 354.257829 
L 396.561836 350.123645 
L 396.697326 348.771584 
L 396.750235 343.493349 
L 396.879287 342.193291 
L 396.931915 337.149066 
L 397.060967 335.90101 
L 397.244887 328.698688 
L 397.571575 327.528636 
L 397.59565 325.214533 
L 398.243428 324.070482 
L 398.267503 321.78238 
L 398.915282 320.66433 
L 398.939356 318.42823 
L 399.587135 317.336181 
L 399.611209 315.152084 
L 400.258988 314.060035 
L 400.283063 311.92794 
L 400.930841 310.861892 
L 400.954916 308.755798 
L 401.602694 307.715752 
L 401.626769 305.635659 
L 402.274547 304.621613 
L 402.298622 302.593523 
L 402.9464 301.579478 
L 402.970475 299.577388 
L 403.618253 298.589344 
L 403.642328 296.613256 
L 404.290107 295.625212 
L 404.314181 293.701126 
L 404.96196 292.739083 
L 404.986034 290.814997 
L 405.633813 289.852954 
L 405.657888 287.980871 
L 406.305666 287.044829 
L 406.329741 285.172745 
L 406.977519 284.236703 
L 407.001594 282.416622 
L 407.649372 281.506582 
L 407.673447 279.6865 
L 408.321225 278.77646 
L 408.3453 277.008381 
L 408.993078 276.124341 
L 409.017153 274.356262 
L 409.664932 273.472223 
L 409.689006 271.730145 
L 410.336785 270.872107 
L 410.360859 269.15603 
L 411.008638 268.297992 
L 411.032712 266.581915 
L 411.680491 265.723877 
L 411.704566 264.059803 
L 412.352344 263.227766 
L 412.376419 261.563691 
L 413.024197 260.731654 
L 413.048272 259.06758 
L 413.69605 258.235543 
L 413.720125 256.623471 
L 414.367903 255.817435 
L 414.391978 254.205363 
L 415.039756 253.399327 
L 415.063831 251.787255 
L 415.71161 250.981219 
L 415.735684 249.421149 
L 416.383463 248.641114 
L 416.407537 247.081045 
L 417.055316 246.30101 
L 417.079391 244.74094 
L 417.727169 243.960905 
L 417.751244 242.426837 
L 419.064437 240.91877 
L 419.09495 460.44657 
L 419.239678 461.902635 
L 419.239678 460.44657 
L 419.742728 454.388299 
L 420.097411 444.819872 
L 420.414581 440.763691 
L 420.589823 437.019524 
L 420.600741 433.535369 
L 421.086435 430.259222 
L 421.099872 427.139083 
L 421.265875 424.174951 
L 421.758288 421.340824 
L 421.771725 418.610702 
L 421.93101 415.984585 
L 422.430141 413.462472 
L 422.454216 408.652258 
L 423.101994 406.338154 
L 423.126069 401.917957 
L 423.773847 399.785862 
L 423.797922 395.677678 
L 424.4457 393.675589 
L 424.469775 389.801416 
L 425.117553 387.929333 
L 425.141628 384.263169 
L 425.789406 382.469089 
L 425.813481 379.010934 
L 426.46126 377.320859 
L 426.485334 374.018712 
L 427.133113 372.380638 
L 427.157187 369.182496 
L 427.804966 367.622426 
L 427.829041 364.554289 
L 428.476819 363.046222 
L 428.500894 360.082089 
L 429.148672 358.626024 
L 429.172747 355.765897 
L 429.820525 354.361834 
L 429.8446 351.57971 
L 430.492378 350.201648 
L 430.516453 347.497528 
L 431.164231 346.171468 
L 431.188306 343.545351 
L 431.836085 342.245293 
L 431.860159 339.697179 
L 432.507938 338.449124 
L 432.532012 335.953012 
L 433.179791 334.730958 
L 433.203866 332.31285 
L 433.851644 331.116796 
L 433.875719 328.750691 
L 434.523497 327.580638 
L 434.547572 325.266535 
L 435.19535 324.122484 
L 435.219425 321.834382 
L 435.867203 320.716332 
L 435.891278 318.480232 
L 436.539336 317.388183 
L 436.564531 315.204086 
L 437.211189 314.112037 
L 437.236384 311.979942 
L 437.883043 310.913894 
L 437.908237 308.8078 
L 438.554896 307.767754 
L 438.58009 305.687661 
L 439.226749 304.673616 
L 439.251943 302.645525 
L 439.898602 301.63148 
L 439.923796 299.629391 
L 440.570455 298.641346 
L 440.59565 296.665258 
L 441.242308 295.677214 
L 441.267503 293.753128 
L 441.914161 292.791085 
L 441.939356 290.866999 
L 442.586014 289.904956 
L 442.611209 288.032873 
L 443.257868 287.096831 
L 443.283062 285.224748 
L 443.929721 284.288706 
L 443.954915 282.468624 
L 444.601574 281.558584 
L 444.626768 279.738503 
L 445.273427 278.828462 
L 445.298621 277.060383 
L 445.94528 276.176344 
L 445.970475 274.408265 
L 446.617133 273.524225 
L 446.642328 271.782147 
L 447.288986 270.924109 
L 447.314181 269.208033 
L 447.960839 268.349994 
L 447.986034 266.633918 
L 448.632693 265.775879 
L 448.657887 264.111805 
L 449.304546 263.279768 
L 449.32974 261.615694 
L 449.976399 260.783656 
L 450.001593 259.119582 
L 450.648252 258.287545 
L 450.673446 256.675473 
L 451.320105 255.869437 
L 451.3453 254.257365 
L 451.991958 253.451329 
L 452.017153 251.839257 
L 452.663811 251.033221 
L 452.689006 249.473151 
L 453.335664 248.693117 
L 453.360859 247.133047 
L 454.007518 246.353012 
L 454.032712 244.792943 
L 454.679371 244.012908 
L 454.704565 242.478839 
L 455.351224 241.724806 
L 455.376418 240.216738 
L 456.023077 239.462705 
L 456.048271 237.954637 
L 456.69493 237.200604 
L 456.720125 235.692536 
L 457.366783 234.938503 
L 457.391978 233.456436 
L 458.038636 232.728404 
L 458.063831 231.272339 
L 458.710489 230.544306 
L 458.735684 229.088241 
L 459.382343 228.360209 
L 459.407537 226.904144 
L 460.054196 226.176111 
L 460.07939 224.746048 
L 460.726049 224.044016 
L 460.751243 222.639954 
L 461.397902 221.937922 
L 461.423096 220.53386 
L 462.069755 219.831828 
L 462.094949 218.427766 
L 462.741608 217.725734 
L 462.766803 216.321672 
L 463.413461 215.61964 
L 463.438656 214.26758 
L 464.085314 213.59155 
L 464.110509 212.239489 
L 464.757167 211.563459 
L 464.771164 210.887429 
L 465.429021 210.211399 
L 465.454215 464.606756 
L 465.605382 470.223006 
L 465.605382 464.606756 
L 466.100874 457.638445 
L 466.461995 447.289983 
L 466.949088 439.099617 
L 466.957486 435.485456 
L 467.44458 432.079304 
L 467.458577 428.881161 
L 467.623741 425.839025 
L 468.116433 422.926895 
L 468.13043 420.144771 
L 468.295594 417.466651 
L 468.788286 414.892536 
L 468.802283 412.396425 
L 468.961848 409.978317 
L 469.460139 407.638212 
L 469.485334 403.140012 
L 470.131992 400.981915 
L 470.157187 396.82173 
L 470.803846 394.793639 
L 470.82904 390.893465 
L 471.475699 388.99538 
L 471.500893 385.303215 
L 472.147552 383.509135 
L 472.172746 379.998979 
L 472.819405 378.282902 
L 472.844599 374.928752 
L 473.491258 373.290679 
L 473.516453 370.092536 
L 474.163111 368.506465 
L 474.188306 365.412327 
L 474.834964 363.90426 
L 474.860159 360.914127 
L 475.506817 359.458062 
L 475.520814 358.001997 
L 476.178671 356.571933 
L 476.203865 464.606756 
L 476.355032 470.223006 
L 476.355032 464.606756 
L 476.850524 457.638445 
L 477.211645 447.289983 
L 477.698738 439.099617 
L 477.707136 435.485456 
L 478.19423 432.079304 
L 478.208227 428.881161 
L 478.373391 425.839025 
L 478.866083 422.926895 
L 478.88008 420.144771 
L 479.045244 417.466651 
L 479.551933 414.892536 
L 479.557532 456.286384 
L 479.725495 470.223006 
L 479.725495 464.606756 
L 480.209789 457.638445 
L 480.57091 447.289983 
L 481.058004 439.099617 
L 481.066402 435.485456 
L 481.553496 432.079304 
L 481.567492 428.881161 
L 481.732656 425.839025 
L 482.225349 422.926895 
L 482.239346 420.144771 
L 482.404509 417.466651 
L 482.897202 414.892536 
L 482.911199 412.396425 
L 483.070764 409.978317 
L 483.569055 407.638212 
L 484.235309 405.35011 
L 484.254905 450.670133 
L 484.408871 464.606756 
L 484.907162 457.638445 
L 485.268283 447.289983 
L 485.752578 439.099617 
L 485.928939 435.485456 
L 486.250869 432.079304 
L 486.262066 428.881161 
L 486.432829 425.839025 
L 486.922722 422.926895 
L 486.933919 420.144771 
L 487.096284 417.466651 
L 487.594575 414.892536 
L 487.605772 412.396425 
L 487.768137 409.978317 
L 488.266428 407.638212 
L 488.291622 403.140012 
L 488.938281 400.981915 
L 488.963476 396.82173 
L 489.610134 394.793639 
L 489.635329 390.893465 
L 490.281987 388.99538 
L 490.307182 385.303215 
L 490.95384 383.509135 
L 490.979035 379.998979 
L 491.625694 378.282902 
L 491.650888 374.928752 
L 492.297547 373.290679 
L 492.322741 370.092536 
L 492.9694 368.506465 
L 492.994594 365.412327 
L 493.641253 363.90426 
L 493.666447 360.914127 
L 494.313106 359.458062 
L 494.338301 356.571933 
L 494.984959 355.16787 
L 495.010154 352.385746 
L 495.656812 351.007684 
L 495.682007 348.303564 
L 496.328665 346.977504 
L 496.35386 344.351387 
L 497.000519 343.051329 
L 497.025713 340.503215 
L 497.672372 339.229158 
L 497.697566 336.733047 
L 498.344225 335.510992 
L 498.369419 333.066883 
L 499.016078 331.87083 
L 499.041272 329.478723 
L 499.687931 328.308671 
L 499.713126 325.968566 
L 500.359784 324.824515 
L 500.384979 322.536413 
L 501.031637 321.418363 
L 501.056832 319.182263 
L 501.70349 318.064214 
L 501.728685 315.880116 
L 502.375344 314.788067 
L 502.400538 312.629971 
L 503.047197 311.563923 
L 503.072391 309.431828 
L 503.71905 308.391782 
L 503.744244 306.311689 
L 504.390903 305.271642 
L 504.416097 303.243552 
L 505.062756 302.229507 
L 505.087951 300.201416 
L 505.734609 299.213372 
L 505.759804 297.237284 
L 506.406462 296.24924 
L 506.431657 294.299153 
L 507.078315 293.33711 
L 507.10351 291.413024 
L 507.750169 290.450981 
L 507.775363 288.578897 
L 508.422022 287.642855 
L 508.447216 285.770772 
L 509.093875 284.83473 
L 509.119069 283.014649 
L 509.765728 282.104608 
L 509.790922 280.284527 
L 510.437581 279.374486 
L 510.462776 277.580406 
L 511.109434 276.696367 
L 511.134629 274.928288 
L 511.781287 274.044248 
L 511.806482 272.276169 
L 512.45314 271.418131 
L 512.478335 269.702055 
L 513.124994 268.844016 
L 513.150188 267.12794 
L 513.796847 266.269901 
L 513.822041 264.579826 
L 514.4687 263.747789 
L 514.493894 262.083714 
L 515.140553 261.251677 
L 515.165747 259.587603 
L 515.812406 258.755566 
L 515.837601 257.143494 
L 516.484259 256.337458 
L 516.509454 254.725386 
L 517.156112 253.91935 
L 517.181307 252.307278 
L 517.827965 251.501242 
L 517.85316 249.941172 
L 518.511016 249.161138 
L 518.530612 464.606756 
L 518.684578 467.518886 
L 518.684578 464.606756 
L 519.17727 457.638445 
L 519.538391 447.289983 
L 520.025485 439.099617 
L 520.033883 435.485456 
L 520.520977 432.079304 
L 520.534974 428.881161 
L 521.19283 425.839025 
L 521.198429 450.670133 
L 521.369191 464.606756 
L 521.539954 457.638445 
L 522.046643 447.289983 
L 522.220205 442.999791 
L 522.536536 439.099617 
L 522.712897 435.485456 
L 522.721296 432.079304 
L 523.208389 428.881161 
L 523.222386 425.839025 
L 523.38755 422.926895 
L 523.880242 420.144771 
L 523.894239 417.466651 
L 524.053804 414.892536 
L 524.571691 412.396425 
L 524.57729 456.286384 
L 524.921615 464.606756 
L 526.080561 435.485456 
L 526.567655 432.079304 
L 526.581652 428.881161 
L 526.746816 425.839025 
L 527.239508 422.926895 
L 527.253505 420.144771 
L 527.418669 417.466651 
L 527.911361 414.892536 
L 527.925358 412.396425 
L 528.084923 409.978317 
L 528.583214 407.638212 
L 528.608409 403.140012 
L 529.255067 400.981915 
L 529.280262 396.82173 
L 529.92692 394.793639 
L 529.952115 390.893465 
L 530.598773 388.99538 
L 530.623968 385.303215 
L 531.270627 383.509135 
L 531.295821 379.998979 
L 531.94248 378.282902 
L 531.967674 374.928752 
L 532.614333 373.290679 
L 532.639527 370.092536 
L 533.286186 368.506465 
L 533.31138 365.412327 
L 533.958039 363.90426 
L 533.983234 360.914127 
L 534.629892 359.458062 
L 534.655087 356.571933 
L 535.301745 355.16787 
L 535.32694 352.385746 
L 535.973598 351.007684 
L 535.998793 348.303564 
L 536.645452 346.977504 
L 536.670646 344.351387 
L 537.317305 343.051329 
L 537.342499 340.503215 
L 537.989158 339.229158 
L 538.014352 336.733047 
L 538.661011 335.510992 
L 538.686205 333.066883 
L 539.332864 331.87083 
L 539.358059 329.478723 
L 540.004717 328.308671 
L 540.029912 325.968566 
L 540.67657 324.824515 
L 540.701765 322.536413 
L 541.348423 321.418363 
L 541.373618 319.182263 
L 542.020277 318.064214 
L 542.045471 315.880116 
L 542.69213 314.788067 
L 542.717324 312.629971 
L 543.363983 311.563923 
L 543.389177 309.431828 
L 544.035836 308.391782 
L 544.06103 306.311689 
L 544.727285 305.271642 
L 544.903646 470.223006 
L 544.903646 464.606756 
L 545.379542 457.638445 
L 545.740663 447.289983 
L 546.227757 439.099617 
L 546.236155 435.485456 
L 546.723248 432.079304 
L 546.737245 428.881161 
L 546.902409 425.839025 
L 547.395102 422.926895 
L 547.409098 420.144771 
L 547.574262 417.466651 
L 548.066955 414.892536 
L 548.080952 412.396425 
L 548.240517 409.978317 
L 548.738808 407.638212 
L 548.764002 403.140012 
L 549.410661 400.981915 
L 549.435855 396.82173 
L 550.082514 394.793639 
L 550.107709 390.893465 
L 550.754367 388.99538 
L 550.779562 385.303215 
L 551.42622 383.509135 
L 551.451415 379.998979 
L 552.098073 378.282902 
L 552.123268 374.928752 
L 552.769927 373.290679 
L 552.795121 370.092536 
L 553.44178 368.506465 
L 553.466974 365.412327 
L 554.113633 363.90426 
L 554.138827 360.914127 
L 554.785486 359.458062 
L 554.81068 356.571933 
L 555.457339 355.16787 
L 555.482534 352.385746 
L 556.129192 351.007684 
L 556.154387 348.303564 
L 556.801045 346.977504 
L 556.82624 344.351387 
L 557.472898 343.051329 
L 557.498093 340.503215 
L 558.144752 339.229158 
L 558.169946 336.733047 
L 558.816605 335.510992 
L 558.841799 333.066883 
L 559.488458 331.87083 
L 559.513652 329.478723 
L 560.160311 328.308671 
L 560.185505 325.968566 
L 560.832164 324.824515 
L 560.857358 322.536413 
L 561.504017 321.418363 
L 561.529212 319.182263 
L 562.17587 318.064214 
L 562.201065 315.880116 
L 562.847723 314.788067 
L 562.872918 312.629971 
L 563.519576 311.563923 
L 563.544771 309.431828 
L 564.19143 308.391782 
L 564.216624 306.311689 
L 564.863283 305.271642 
L 564.888477 303.243552 
L 565.535136 302.229507 
L 565.56033 300.201416 
L 566.206989 299.213372 
L 566.232183 297.237284 
L 566.878842 296.24924 
L 566.904037 294.299153 
L 567.550695 293.33711 
L 567.57589 291.413024 
L 568.222548 290.450981 
L 568.247743 288.578897 
L 568.894401 287.642855 
L 568.919596 285.770772 
L 569.566255 284.83473 
L 569.591449 283.014649 
L 570.238108 282.104608 
L 570.263302 280.284527 
L 570.909961 279.374486 
L 570.935155 277.580406 
L 571.581814 276.696367 
L 571.607008 274.928288 
L 572.253667 274.044248 
L 572.278862 272.276169 
L 572.92552 271.418131 
L 572.950715 269.702055 
L 573.597373 268.844016 
L 573.622568 267.12794 
L 574.269226 266.269901 
L 574.294421 264.579826 
L 574.94108 263.747789 
L 574.966274 262.083714 
L 575.612933 261.251677 
L 575.638127 259.587603 
L 576.284786 258.755566 
L 576.30998 257.94953 
L 576.483542 478.543378 
L 576.483542 464.606756 
L 576.956639 457.638445 
L 577.31776 447.289983 
L 577.804853 439.099617 
L 577.813252 435.485456 
L 578.300345 432.079304 
L 578.314342 428.881161 
L 578.479506 425.839025 
L 578.972198 422.926895 
L 578.986195 420.144771 
L 579.151359 417.466651 
L 579.644051 414.892536 
L 579.658048 412.396425 
L 579.817613 409.978317 
L 580.315905 407.638212 
L 580.341099 403.140012 
L 580.987758 400.981915 
L 581.012952 396.82173 
L 581.659611 394.793639 
L 581.684805 390.893465 
L 582.331464 388.99538 
L 582.356658 385.303215 
L 583.003317 383.509135 
L 583.028512 379.998979 
L 583.67517 378.282902 
L 583.700365 374.928752 
L 584.347023 373.290679 
L 584.372218 370.092536 
L 585.018876 368.506465 
L 585.044071 365.412327 
L 585.69073 363.90426 
L 585.715924 360.914127 
L 586.362583 359.458062 
L 586.387777 356.571933 
L 587.034436 355.16787 
L 587.05963 352.385746 
L 587.706289 351.007684 
L 587.720286 349.655624 
L 588.378142 348.303564 
L 588.403337 464.606756 
L 588.554503 470.223006 
L 588.554503 464.606756 
L 589.049995 457.638445 
L 589.411116 447.289983 
L 589.89821 439.099617 
L 589.906608 435.485456 
L 590.393701 432.079304 
L 590.407698 428.881161 
L 590.572862 425.839025 
L 591.065554 422.926895 
L 591.079551 420.144771 
L 591.244715 417.466651 
L 591.737408 414.892536 
L 591.751405 412.396425 
L 591.91097 409.978317 
L 592.409261 407.638212 
L 592.434455 403.140012 
L 593.081114 400.981915 
L 593.106308 396.82173 
L 593.752967 394.793639 
L 593.778161 390.893465 
L 594.42482 388.99538 
L 594.450015 385.303215 
L 595.096673 383.509135 
L 595.121868 379.998979 
L 595.768526 378.282902 
L 595.793721 374.928752 
L 596.440379 373.290679 
L 596.465574 370.092536 
L 597.112233 368.506465 
L 597.137427 365.412327 
L 597.784086 363.90426 
L 597.80928 360.914127 
L 598.455939 359.458062 
L 598.481133 356.571933 
L 599.127792 355.16787 
L 599.152986 352.385746 
L 599.799645 351.007684 
L 599.82484 348.303564 
L 600.471498 346.977504 
L 600.496693 344.351387 
L 601.143351 343.051329 
L 601.168546 340.503215 
L 601.815204 339.229158 
L 601.840399 336.733047 
L 602.487058 335.510992 
L 602.512252 333.066883 
L 603.158911 331.87083 
L 603.184105 329.478723 
L 603.830764 328.308671 
L 603.855958 325.968566 
L 604.502617 324.824515 
L 604.527811 322.536413 
L 605.17447 321.418363 
L 605.199665 319.182263 
L 605.846323 318.064214 
L 605.871518 315.880116 
L 606.518176 314.788067 
L 606.543371 312.629971 
L 607.190029 311.563923 
L 607.215224 309.431828 
L 607.861883 308.391782 
L 607.887077 306.311689 
L 608.533736 305.271642 
L 608.55893 303.243552 
L 609.205589 302.229507 
L 609.230783 300.201416 
L 609.877442 299.213372 
L 609.902636 297.237284 
L 610.549295 296.24924 
L 610.57449 294.299153 
L 611.221148 293.33711 
L 611.246343 291.413024 
L 612.559256 289.514939 
L 612.590049 460.44657 
L 612.732818 461.902635 
L 612.732818 460.44657 
L 613.236708 454.388299 
L 613.59223 444.819872 
L 613.908561 440.763691 
L 614.084922 437.019524 
L 614.09332 433.535369 
L 614.580414 430.259222 
L 614.594411 427.139083 
L 614.759575 424.174951 
L 615.252267 421.340824 
L 615.266264 418.610702 
L 615.425829 415.984585 
L 615.92412 413.462472 
L 615.949315 408.652258 
L 616.595973 406.338154 
L 616.621168 401.917957 
L 617.267826 399.785862 
L 617.293021 395.677678 
L 617.939679 393.675589 
L 617.964874 389.801416 
L 618.611533 387.929333 
L 618.636727 384.263169 
L 619.283386 382.469089 
L 619.30858 379.010934 
L 619.955239 377.320859 
L 619.980433 374.018712 
L 620.627092 372.380638 
L 620.652286 369.182496 
L 621.298945 367.622426 
L 621.32414 364.554289 
L 621.970798 363.046222 
L 621.995993 360.082089 
L 622.642651 358.626024 
L 622.667846 355.765897 
L 623.3341 354.361834 
L 623.510462 470.223006 
L 623.510462 464.606756 
L 623.986357 457.638445 
L 624.347479 447.289983 
L 624.834572 439.099617 
L 624.84297 435.485456 
L 625.330064 432.079304 
L 625.344061 428.881161 
L 625.509225 425.839025 
L 626.001917 422.926895 
L 626.015914 420.144771 
L 626.181078 417.466651 
L 626.67377 414.892536 
L 626.687767 412.396425 
L 626.847332 409.978317 
L 627.345623 407.638212 
L 627.370818 403.140012 
L 628.017476 400.981915 
L 628.042671 396.82173 
L 628.689329 394.793639 
L 628.714524 390.893465 
L 629.361182 388.99538 
L 629.386377 385.303215 
L 630.033036 383.509135 
L 630.05823 379.998979 
L 630.704889 378.282902 
L 630.730083 374.928752 
L 631.376742 373.290679 
L 631.401936 370.092536 
L 632.048595 368.506465 
L 632.073789 365.412327 
L 632.720448 363.90426 
L 632.745643 360.914127 
L 633.392301 359.458062 
L 633.417496 356.571933 
L 634.064154 355.16787 
L 634.089349 352.385746 
L 634.736007 351.007684 
L 634.761202 348.303564 
L 635.407861 346.977504 
L 635.433055 344.351387 
L 636.079714 343.051329 
L 636.104908 340.503215 
L 636.751567 339.229158 
L 636.776761 336.733047 
L 637.42342 335.510992 
L 637.448614 333.066883 
L 638.095273 331.87083 
L 638.120468 329.478723 
L 638.767126 328.308671 
L 638.792321 325.968566 
L 639.438979 324.824515 
L 639.464174 322.536413 
L 640.110832 321.418363 
L 640.136027 319.182263 
L 640.782686 318.064214 
L 640.80788 315.880116 
L 641.454539 314.788067 
L 641.479733 312.629971 
L 642.126392 311.563923 
L 642.151586 309.431828 
L 642.798245 308.391782 
L 642.823439 307.351735 
L 642.997001 478.543378 
L 642.997001 464.606756 
L 643.470098 457.638445 
L 643.831219 447.289983 
L 644.318313 439.099617 
L 644.326711 435.485456 
L 644.813804 432.079304 
L 644.827801 428.881161 
L 644.992965 425.839025 
L 645.485657 422.926895 
L 645.499654 420.144771 
L 645.664818 417.466651 
L 646.177106 414.892536 
L 646.353468 470.223006 
L 646.353468 464.606756 
L 652.422541 457.638445 
L 652.946026 452.074196 
L 653.122388 478.543378 
L 653.122388 464.606756 
L 653.668269 447.289983 
L 654.373714 428.881161 
L 654.387711 425.839025 
L 654.555675 422.926895 
L 654.569672 420.144771 
L 654.737635 417.466651 
L 654.751632 414.892536 
L 654.913996 412.396425 
L 654.927993 409.978317 
L 655.087558 407.638212 
L 655.115552 403.140012 
L 655.269519 400.981915 
L 655.297512 396.82173 
L 655.451479 394.793639 
L 655.479473 390.893465 
L 655.62784 388.99538 
L 655.653035 385.303215 
L 655.801402 383.509135 
L 655.829396 379.998979 
L 655.977764 378.282902 
L 656.016955 373.290679 
L 656.159724 371.678607 
L 656.235307 366.946396 
L 656.344484 363.90426 
L 656.90716 362.396193 
L 656.932355 359.458062 
L 657.579014 358.001997 
L 657.604208 355.16787 
L 658.250867 353.763807 
L 658.276061 351.007684 
L 658.92272 349.655624 
L 658.947914 346.977504 
L 659.594573 345.651445 
L 659.619767 343.051329 
L 660.266426 341.777272 
L 660.291621 339.229158 
L 660.938279 337.981103 
L 660.963474 335.510992 
L 661.610132 334.288938 
L 661.635327 331.87083 
L 662.281985 330.674777 
L 662.30718 328.308671 
L 662.953839 327.138619 
L 662.979033 324.824515 
L 663.625692 323.680464 
L 663.650886 321.418363 
L 664.297545 320.300313 
L 664.322739 318.064214 
L 664.969398 316.972165 
L 664.994592 314.788067 
L 665.641251 313.696019 
L 665.666446 311.563923 
L 666.313104 310.497876 
L 666.338299 308.391782 
L 666.984957 307.351735 
L 667.010152 305.271642 
L 667.65681 304.257597 
L 667.682005 302.229507 
L 668.328664 301.215461 
L 668.353858 299.213372 
L 669.000517 298.225328 
L 669.025711 296.24924 
L 669.67237 295.261196 
L 669.697564 293.33711 
L 670.344223 292.375067 
L 670.369417 290.450981 
L 671.016076 289.514939 
L 671.041271 287.642855 
L 671.687929 286.706814 
L 671.713124 284.83473 
L 672.359782 283.924689 
L 672.384977 282.104608 
L 673.031635 281.194568 
L 673.05683 279.374486 
L 673.703489 278.464446 
L 673.728683 276.696367 
L 674.375342 275.812327 
L 674.400536 274.044248 
L 675.047195 273.160209 
L 675.072389 271.418131 
L 675.719048 270.560093 
L 675.744242 268.844016 
L 676.390901 267.985978 
L 676.404898 267.12794 
L 677.068353 266.269901 
L 677.087949 464.606756 
L 677.241915 467.518886 
L 677.241915 464.606756 
L 677.734607 457.638445 
L 678.095728 447.289983 
L 678.582822 439.099617 
L 678.59122 435.485456 
L 679.078314 432.079304 
L 679.09231 428.881161 
L 679.257474 425.839025 
L 679.750167 422.926895 
L 679.764164 420.144771 
L 679.929327 417.466651 
L 680.42202 414.892536 
L 680.436017 412.396425 
L 680.595582 409.978317 
L 681.093873 407.638212 
L 681.119067 403.140012 
L 681.765726 400.981915 
L 681.790921 396.82173 
L 682.437579 394.793639 
L 682.462774 390.893465 
L 683.109432 388.99538 
L 683.134627 385.303215 
L 683.781285 383.509135 
L 683.80648 379.998979 
L 684.453139 378.282902 
L 684.478333 374.928752 
L 685.124992 373.290679 
L 685.150186 370.092536 
L 685.796845 368.506465 
L 685.822039 365.412327 
L 686.468698 363.90426 
L 686.493892 360.914127 
L 687.140551 359.458062 
L 687.165745 356.571933 
L 687.812404 355.16787 
L 687.837599 352.385746 
L 688.484257 351.007684 
L 688.509452 348.303564 
L 689.15611 346.977504 
L 689.181305 344.351387 
L 689.827963 343.051329 
L 689.853158 340.503215 
L 690.499817 339.229158 
L 690.525011 336.733047 
L 691.17167 335.510992 
L 691.196864 333.066883 
L 691.843523 331.87083 
L 691.868717 329.478723 
L 692.515376 328.308671 
L 692.54057 325.968566 
L 693.187229 324.824515 
L 693.212424 322.536413 
L 693.859082 321.418363 
L 693.884277 319.182263 
L 694.530935 318.064214 
L 694.55613 315.880116 
L 695.202788 314.788067 
L 695.227983 312.629971 
L 695.874642 311.563923 
L 695.899836 309.431828 
L 696.546495 308.391782 
L 696.571689 306.311689 
L 697.218348 305.271642 
L 697.243542 303.243552 
L 697.890201 302.229507 
L 697.915395 300.201416 
L 698.562054 299.213372 
L 698.587249 297.237284 
L 699.233907 296.24924 
L 699.259102 294.299153 
L 699.90576 293.33711 
L 699.930955 291.413024 
L 700.577613 290.450981 
L 700.602808 288.578897 
L 701.249467 287.642855 
L 701.274661 285.770772 
L 701.92132 284.83473 
L 701.946514 283.014649 
L 702.593173 282.104608 
L 702.618367 280.284527 
L 703.265026 279.374486 
L 703.29022 277.580406 
L 703.936879 276.696367 
L 703.962074 274.928288 
L 704.608732 274.044248 
L 704.633927 272.276169 
L 705.280585 271.418131 
L 705.30578 269.702055 
L 705.952438 268.844016 
L 705.977633 267.12794 
L 706.624292 266.269901 
L 706.649486 264.579826 
L 707.296145 263.747789 
L 707.321339 262.083714 
L 707.967998 261.251677 
L 707.993192 259.587603 
L 708.639851 258.755566 
L 708.665045 257.143494 
L 709.311704 256.337458 
L 709.336899 254.725386 
L 709.983557 253.91935 
L 710.008752 252.307278 
L 710.65541 251.501242 
L 710.680605 249.941172 
L 711.327263 249.161138 
L 711.352458 247.601068 
L 711.999117 246.821033 
L 712.024311 245.260963 
L 712.67097 244.480929 
L 712.696164 242.920859 
L 713.342823 242.166825 
L 713.368017 240.658758 
L 714.014676 239.904724 
L 714.03987 238.396657 
L 714.686529 237.642623 
L 714.711724 236.134556 
L 715.358382 235.380522 
L 715.383577 233.898456 
L 716.030235 233.170424 
L 716.05543 231.714359 
L 716.702088 230.986326 
L 716.727283 229.530261 
L 717.373942 228.802229 
L 717.399136 227.346164 
L 718.045795 226.618131 
L 718.070989 225.162066 
L 718.717648 224.460035 
L 718.742842 223.055972 
L 719.409097 222.353941 
L 719.585458 470.223006 
L 719.585458 464.606756 
L 720.061354 457.638445 
L 720.422475 447.289983 
L 720.909569 439.099617 
L 720.917967 435.485456 
L 721.40506 432.079304 
L 721.419057 428.881161 
L 721.584221 425.839025 
L 722.076913 422.926895 
L 722.09091 420.144771 
L 722.256074 417.466651 
L 722.748766 414.892536 
L 722.762763 412.396425 
L 722.922329 409.978317 
L 723.42062 407.638212 
L 723.445814 403.140012 
L 724.092473 400.981915 
L 724.117667 396.82173 
L 724.764326 394.793639 
L 724.78952 390.893465 
L 725.436179 388.99538 
L 725.461373 385.303215 
L 726.108032 383.509135 
L 726.133227 379.998979 
L 726.779885 378.282902 
L 726.80508 374.928752 
L 727.451738 373.290679 
L 727.476933 370.092536 
L 728.123591 368.506465 
L 728.148786 365.412327 
L 728.795445 363.90426 
L 728.820639 360.914127 
L 729.467298 359.458062 
L 729.492492 356.571933 
L 730.139151 355.16787 
L 730.164345 352.385746 
L 730.811004 351.007684 
L 730.836198 348.303564 
L 731.482857 346.977504 
L 731.508052 344.351387 
L 732.15471 343.051329 
L 732.179905 340.503215 
L 732.826563 339.229158 
L 732.851758 336.733047 
L 733.498416 335.510992 
L 733.523611 333.066883 
L 734.17027 331.87083 
L 734.195464 329.478723 
L 734.842123 328.308671 
L 734.867317 325.968566 
L 735.513976 324.824515 
L 735.53917 322.536413 
L 736.185829 321.418363 
L 736.211023 319.182263 
L 736.857682 318.064214 
L 736.882877 315.880116 
L 737.529535 314.788067 
L 737.55473 312.629971 
L 738.201388 311.563923 
L 738.226583 309.431828 
L 738.873241 308.391782 
L 738.898436 306.311689 
L 739.545095 305.271642 
L 739.570289 303.243552 
L 740.216948 302.229507 
L 740.242142 300.201416 
L 740.888801 299.213372 
L 740.913995 297.237284 
L 741.560654 296.24924 
L 741.585848 294.299153 
L 742.232507 293.33711 
L 742.257702 291.413024 
L 742.90436 290.450981 
L 742.929555 288.578897 
L 743.576213 287.642855 
L 743.601408 285.770772 
L 744.248066 284.83473 
L 744.273261 283.014649 
L 744.91992 282.104608 
L 744.945114 280.284527 
L 745.591773 279.374486 
L 745.616967 277.580406 
L 746.263626 276.696367 
L 746.28882 274.928288 
L 746.935479 274.044248 
L 746.960673 272.276169 
L 747.607332 271.418131 
L 747.632527 269.702055 
L 748.279185 268.844016 
L 748.30438 267.12794 
L 748.951038 266.269901 
L 748.976233 264.579826 
L 749.622891 263.747789 
L 749.648086 262.083714 
L 750.294745 261.251677 
L 750.319939 259.587603 
L 750.966598 258.755566 
L 750.991792 257.143494 
L 751.638451 256.337458 
L 751.663645 254.725386 
L 752.310304 253.91935 
L 752.335498 252.307278 
L 752.982157 251.501242 
L 753.007351 249.941172 
L 753.65401 249.161138 
L 753.679205 247.601068 
L 754.325863 246.821033 
L 754.351058 245.260963 
L 754.997716 244.480929 
L 755.022911 242.920859 
L 755.669569 242.166825 
L 755.694764 240.658758 
L 756.341423 239.904724 
L 756.366617 238.396657 
L 757.013276 237.642623 
L 757.03847 236.134556 
L 757.685129 235.380522 
L 757.710323 233.898456 
L 758.356982 233.170424 
L 758.382176 231.714359 
L 759.028835 230.986326 
L 759.05403 229.530261 
L 759.700688 228.802229 
L 759.725883 227.346164 
L 760.372541 226.618131 
L 760.397736 225.162066 
L 761.044394 224.460035 
L 761.069589 223.055972 
L 761.716248 222.353941 
L 761.741442 220.949878 
L 762.388101 220.247847 
L 762.413295 218.843784 
L 763.059954 218.141753 
L 763.085148 216.73769 
L 763.731807 216.035659 
L 763.757001 214.657597 
L 764.40366 213.981567 
L 764.428855 212.629507 
L 765.075513 211.953476 
L 765.100708 210.601416 
L 765.747366 209.925386 
L 765.772561 208.573326 
L 766.419219 207.897295 
L 766.444414 206.545235 
L 767.091073 205.869205 
L 767.116267 204.517145 
L 767.762926 203.867115 
L 767.78812 202.567057 
L 768.434779 201.917028 
L 768.459973 200.61697 
L 769.106632 199.966941 
L 769.131826 198.666883 
L 769.778485 198.016854 
L 769.80368 196.716796 
L 770.450338 196.066767 
L 770.475533 194.766709 
L 771.122191 194.11668 
L 771.147386 192.842623 
L 771.794044 192.218595 
L 771.819239 190.97054 
L 772.465898 190.346512 
L 772.491092 189.098456 
L 773.137751 188.474428 
L 773.162945 187.226373 
L 773.809604 186.602345 
L 773.834798 185.354289 
L 774.481457 184.730261 
L 774.506651 183.482205 
L 775.15331 182.858178 
L 775.178505 181.610122 
L 775.825163 180.986094 
L 775.850358 179.790041 
L 776.497016 179.192014 
L 776.522211 177.995961 
L 777.168869 177.397934 
L 777.194064 176.20188 
L 777.840723 175.603854 
L 777.865917 174.4078 
L 778.512576 173.809774 
L 778.53777 172.61372 
L 779.184429 172.015694 
L 779.209623 170.81964 
L 779.856282 170.221613 
L 779.881476 169.02556 
L 780.528135 168.427533 
L 780.55333 167.23148 
L 781.199988 166.659454 
L 781.225183 165.515403 
L 781.871841 164.943378 
L 781.897036 163.799327 
L 782.543694 163.227301 
L 782.568889 162.08325 
L 783.215548 161.511225 
L 783.240742 160.367174 
L 783.901398 159.795148 
L 783.912595 464.606756 
L 784.07496 470.223006 
L 784.07496 464.606756 
L 784.559254 457.638445 
L 784.920375 447.289983 
L 785.407468 439.099617 
L 785.415866 435.485456 
L 785.90296 432.079304 
L 785.916957 428.881161 
L 786.082121 425.839025 
L 786.574813 422.926895 
L 786.58881 420.144771 
L 786.753974 417.466651 
L 787.246666 414.892536 
L 787.260663 412.396425 
L 787.420228 409.978317 
L 787.918519 407.638212 
L 787.943714 403.140012 
L 788.590372 400.981915 
L 788.615567 396.82173 
L 789.262226 394.793639 
L 789.28742 390.893465 
L 789.934079 388.99538 
L 789.959273 385.303215 
L 790.605932 383.509135 
L 790.631126 379.998979 
L 791.291782 378.282902 
L 791.302979 464.606756 
L 791.465344 470.223006 
L 791.465344 464.606756 
L 791.949638 457.638445 
L 792.310759 447.289983 
L 792.797853 439.099617 
L 792.806251 435.485456 
L 793.293344 432.079304 
L 793.307341 428.881161 
L 793.472505 425.839025 
L 793.965197 422.926895 
L 793.979194 420.144771 
L 794.144358 417.466651 
L 794.637051 414.892536 
L 794.651048 412.396425 
L 794.810613 409.978317 
L 795.308904 407.638212 
L 795.334098 403.140012 
L 795.980757 400.981915 
L 796.005951 396.82173 
L 796.65261 394.793639 
L 796.677804 390.893465 
L 797.324463 388.99538 
L 797.349658 385.303215 
L 797.996316 383.509135 
L 798.021511 379.998979 
L 798.668169 378.282902 
L 798.693364 374.928752 
L 799.340022 373.290679 
L 799.365217 370.092536 
L 800.011876 368.506465 
L 800.03707 365.412327 
L 800.683729 363.90426 
L 800.708923 360.914127 
L 801.355582 359.458062 
L 801.380776 356.571933 
L 802.027435 355.16787 
L 802.052629 352.385746 
L 802.699288 351.007684 
L 802.724483 348.303564 
L 803.371141 346.977504 
L 803.396336 344.351387 
L 804.042994 343.051329 
L 804.068189 340.503215 
L 804.714847 339.229158 
L 804.740042 336.733047 
L 805.386701 335.510992 
L 805.411895 333.066883 
L 806.058554 331.87083 
L 806.083748 329.478723 
L 806.730407 328.308671 
L 806.755601 325.968566 
L 807.40226 324.824515 
L 807.427454 322.536413 
L 808.074113 321.418363 
L 808.099308 319.182263 
L 808.745966 318.064214 
L 808.771161 315.880116 
L 809.417819 314.788067 
L 809.443014 312.629971 
L 810.089672 311.563923 
L 810.114867 309.431828 
L 810.761526 308.391782 
L 810.78672 306.311689 
L 811.433379 305.271642 
L 811.458573 303.243552 
L 812.105232 302.229507 
L 812.130426 300.201416 
L 812.777085 299.213372 
L 812.802279 297.237284 
L 813.448938 296.24924 
L 813.474133 294.299153 
L 814.120791 293.33711 
L 814.145986 291.413024 
L 814.792644 290.450981 
L 814.817839 288.578897 
L 815.464497 287.642855 
L 815.489692 285.770772 
L 816.136351 284.83473 
L 816.161545 283.014649 
L 816.808204 282.104608 
L 816.833398 280.284527 
L 817.480057 279.374486 
L 817.505251 277.580406 
L 818.15191 276.696367 
L 818.177104 274.928288 
L 818.823763 274.044248 
L 818.848957 272.276169 
L 819.495616 271.418131 
L 819.520811 269.702055 
L 820.167469 268.844016 
L 820.192664 267.12794 
L 820.839322 266.269901 
L 820.864517 264.579826 
L 821.511175 263.747789 
L 821.53637 262.083714 
L 822.183029 261.251677 
L 822.208223 259.587603 
L 822.854882 258.755566 
L 822.880076 257.143494 
L 823.526735 256.337458 
L 823.551929 254.725386 
L 824.198588 253.91935 
L 824.223782 252.307278 
L 824.870441 251.501242 
L 824.895636 249.941172 
L 825.542294 249.161138 
L 825.567489 247.601068 
L 826.214147 246.821033 
L 826.239342 245.260963 
L 826.886 244.480929 
L 826.911195 242.920859 
L 827.557854 242.166825 
L 827.583048 240.658758 
L 828.229707 239.904724 
L 828.254901 238.396657 
L 828.90156 237.642623 
L 828.926754 236.134556 
L 829.573413 235.380522 
L 829.598607 233.898456 
L 830.245266 233.170424 
L 830.270461 231.714359 
L 830.917119 230.986326 
L 830.942314 229.530261 
L 831.588972 228.802229 
L 831.614167 227.346164 
L 832.260825 226.618131 
L 832.28602 225.162066 
L 832.932679 224.460035 
L 832.957873 223.055972 
L 833.604532 222.353941 
L 833.629726 220.949878 
L 834.276385 220.247847 
L 834.301579 218.843784 
L 834.948238 218.141753 
L 834.973432 216.73769 
L 835.620091 216.035659 
L 835.645286 214.657597 
L 836.291944 213.981567 
L 836.317139 212.629507 
L 836.963797 211.953476 
L 836.988992 210.601416 
L 837.63565 209.925386 
L 837.660845 208.573326 
L 838.307504 207.897295 
L 838.332698 206.545235 
L 838.979357 205.869205 
L 839.004551 204.517145 
L 839.65121 203.867115 
L 839.676404 202.567057 
L 840.323063 201.917028 
L 840.348257 200.61697 
L 840.994916 199.966941 
L 841.020111 198.666883 
L 841.666769 198.016854 
L 841.691964 196.716796 
L 842.338622 196.066767 
L 842.363817 194.766709 
L 843.010475 194.11668 
L 843.03567 192.842623 
L 843.682329 192.218595 
L 843.707523 190.97054 
L 844.354182 190.346512 
L 844.379376 189.098456 
L 845.026035 188.474428 
L 845.051229 187.226373 
L 845.697888 186.602345 
L 845.723082 185.354289 
L 846.369741 184.730261 
L 846.394936 183.482205 
L 847.041594 182.858178 
L 847.066789 181.610122 
L 847.713447 180.986094 
L 847.738642 179.790041 
L 848.3853 179.192014 
L 848.410495 177.995961 
L 849.057154 177.397934 
L 849.082348 176.20188 
L 849.729007 175.603854 
L 849.754201 174.4078 
L 850.40086 173.809774 
L 850.426054 172.61372 
L 851.072713 172.015694 
L 851.097907 170.81964 
L 851.744566 170.221613 
L 851.76976 169.02556 
L 852.416419 168.427533 
L 852.441614 167.23148 
L 853.088272 166.659454 
L 853.113467 165.515403 
L 853.760125 164.943378 
L 853.78532 163.799327 
L 854.431978 163.227301 
L 854.457173 162.08325 
L 855.103832 161.511225 
L 855.129026 160.367174 
L 855.775685 159.795148 
L 855.800879 158.651097 
L 856.447538 158.079071 
L 856.472732 156.93502 
L 857.119391 156.362995 
L 857.144585 155.218944 
L 857.791244 154.646918 
L 857.816439 153.502867 
L 858.463097 152.930842 
L 858.488292 151.838793 
L 859.13495 151.292768 
L 859.160145 150.20072 
L 859.806803 149.654695 
L 859.831998 148.562647 
L 860.478657 148.016622 
L 860.503851 146.924573 
L 861.15051 146.378549 
L 861.175704 145.2865 
L 861.822363 144.740476 
L 861.847557 143.648427 
L 862.494216 143.102403 
L 862.51941 142.010354 
L 863.166069 141.46433 
L 863.191264 140.372281 
L 863.837922 139.826257 
L 863.863117 138.734208 
L 864.509775 138.188183 
L 864.53497 137.096135 
L 865.181628 136.55011 
L 865.206823 135.510064 
L 865.853482 134.990041 
L 865.878676 133.949994 
L 866.525335 133.429971 
L 866.550529 132.389925 
L 867.197188 131.869901 
L 867.222382 130.829855 
L 867.869041 130.309832 
L 867.894235 129.269785 
L 868.540894 128.749762 
L 868.566089 127.709716 
L 869.212747 127.189692 
L 869.237942 126.149646 
L 869.8846 125.629623 
L 869.909795 124.589576 
L 870.556453 124.069553 
L 870.581648 123.029507 
L 871.228307 122.509483 
L 871.253501 121.469437 
L 871.90016 120.949414 
L 871.925354 119.909367 
L 872.572013 119.389344 
L 872.597207 118.375299 
L 873.243866 117.881277 
L 873.26906 116.893233 
L 873.915719 116.399211 
L 873.940914 115.411167 
L 874.587572 114.917145 
L 874.612767 113.9291 
L 875.259425 113.435078 
L 875.28462 112.447034 
L 875.931278 111.953012 
L 875.956473 110.964968 
L 876.603132 110.470946 
L 876.628326 109.482902 
L 877.274985 108.98888 
L 877.300179 108.000836 
L 877.946838 107.506814 
L 877.972032 106.51877 
L 878.618691 106.024748 
L 878.643885 105.036703 
L 879.290544 104.542681 
L 879.315739 103.554637 
L 879.962397 103.060615 
L 879.987592 102.072571 
L 880.63425 101.578549 
L 880.659445 100.590505 
L 881.306103 100.096483 
L 881.331298 99.108439 
L 881.977957 98.640418 
L 882.003151 97.704376 
L 882.64981 97.236355 
L 882.675004 96.300313 
L 883.321663 95.832293 
L 883.346857 94.896251 
L 883.993516 94.42823 
L 884.01871 93.492188 
L 884.665369 93.024167 
L 884.690563 92.088125 
L 885.337222 91.620104 
L 885.362417 90.684063 
L 886.009075 90.216042 
L 886.023072 89.748021 
L 886.680928 89.28 
L 886.706123 464.606756 
L 886.85729 470.223006 
L 886.85729 464.606756 
L 887.352781 457.638445 
L 887.713903 447.289983 
L 888.200996 439.099617 
L 888.209394 435.485456 
L 888.696488 432.079304 
L 888.710485 428.881161 
L 888.875649 425.839025 
L 889.368341 422.926895 
L 889.382338 420.144771 
L 889.547502 417.466651 
L 890.040194 414.892536 
L 890.054191 412.396425 
L 890.213756 409.978317 
L 890.712047 407.638212 
L 890.737242 403.140012 
L 891.3839 400.981915 
L 891.409095 396.82173 
L 892.055753 394.793639 
L 892.080948 390.893465 
L 892.727606 388.99538 
L 892.752801 385.303215 
L 893.39946 383.509135 
L 893.424654 379.998979 
L 894.071313 378.282902 
L 894.096507 374.928752 
L 894.743166 373.290679 
L 894.76836 370.092536 
L 895.415019 368.506465 
L 895.440213 365.412327 
L 896.086872 363.90426 
L 896.112067 360.914127 
L 896.758725 359.458062 
L 896.78392 356.571933 
L 897.430578 355.16787 
L 897.455773 352.385746 
L 898.102431 351.007684 
L 898.127626 348.303564 
L 898.774285 346.977504 
L 898.799479 344.351387 
L 899.446138 343.051329 
L 899.471332 340.503215 
L 900.117991 339.229158 
L 900.143185 336.733047 
L 900.789844 335.510992 
L 900.815038 333.066883 
L 901.461697 331.87083 
L 901.486892 329.478723 
L 902.13355 328.308671 
L 902.158745 325.968566 
L 902.805403 324.824515 
L 902.830598 322.536413 
L 903.477256 321.418363 
L 903.502451 319.182263 
L 904.14911 318.064214 
L 904.174304 315.880116 
L 904.820963 314.788067 
L 904.846157 312.629971 
L 905.492816 311.563923 
L 905.51801 309.431828 
L 906.164669 308.391782 
L 906.189863 306.311689 
L 906.836522 305.271642 
L 906.861717 303.243552 
L 907.508375 302.229507 
L 907.53357 300.201416 
L 908.180228 299.213372 
L 908.205423 297.237284 
L 908.852081 296.24924 
L 908.877276 294.299153 
L 909.523935 293.33711 
L 909.549129 291.413024 
L 910.209785 290.450981 
L 910.220982 464.606756 
L 910.383347 470.223006 
L 910.383347 464.606756 
L 910.867641 457.638445 
L 911.228762 447.289983 
L 911.715855 439.099617 
L 911.724254 435.485456 
L 912.211347 432.079304 
L 912.225344 428.881161 
L 912.390508 425.839025 
L 912.8832 422.926895 
L 912.897197 420.144771 
L 913.062361 417.466651 
L 913.555053 414.892536 
L 913.56905 412.396425 
L 913.728615 409.978317 
L 914.226906 407.638212 
L 914.252101 403.140012 
L 914.89876 400.981915 
L 914.923954 396.82173 
L 915.570613 394.793639 
L 915.595807 390.893465 
L 916.242466 388.99538 
L 916.26766 385.303215 
L 916.914319 383.509135 
L 916.939513 379.998979 
L 917.586172 378.282902 
L 917.611366 374.928752 
L 918.258025 373.290679 
L 918.28322 370.092536 
L 918.929878 368.506465 
L 918.955073 365.412327 
L 919.601731 363.90426 
L 919.626926 360.914127 
L 920.273584 359.458062 
L 920.298779 356.571933 
L 920.945438 355.16787 
L 920.970632 352.385746 
L 921.617291 351.007684 
L 921.642485 348.303564 
L 922.289144 346.977504 
L 922.314338 344.351387 
L 922.960997 343.051329 
L 922.986191 340.503215 
L 923.63285 339.229158 
L 923.658045 336.733047 
L 924.304703 335.510992 
L 924.329898 333.066883 
L 924.976556 331.87083 
L 925.001751 329.478723 
L 925.648409 328.308671 
L 925.673604 325.968566 
L 926.320263 324.824515 
L 926.345457 322.536413 
L 926.992116 321.418363 
L 927.01731 319.182263 
L 927.663969 318.064214 
L 927.689163 315.880116 
L 928.335822 314.788067 
L 928.361016 312.629971 
L 929.007675 311.563923 
L 929.03287 309.431828 
L 929.679528 308.391782 
L 929.704723 306.311689 
L 930.351381 305.271642 
L 930.376576 303.243552 
L 931.023234 302.229507 
L 931.048429 300.201416 
L 931.695088 299.213372 
L 931.720282 297.237284 
L 932.366941 296.24924 
L 932.392135 294.299153 
L 933.038794 293.33711 
L 933.063988 291.413024 
L 933.710647 290.450981 
L 933.735841 288.578897 
L 934.3825 287.642855 
L 934.407695 285.770772 
L 935.054353 284.83473 
L 935.079548 283.014649 
L 935.726206 282.104608 
L 935.751401 280.284527 
L 936.398059 279.374486 
L 936.423254 277.580406 
L 937.069913 276.696367 
L 937.095107 274.928288 
L 937.741766 274.044248 
L 937.76696 272.276169 
L 938.413619 271.418131 
L 938.438813 269.702055 
L 939.085472 268.844016 
L 939.110666 267.12794 
L 939.757325 266.269901 
L 939.78252 264.579826 
L 940.429178 263.747789 
L 940.454373 262.083714 
L 941.101031 261.251677 
L 941.126226 259.587603 
L 941.786881 258.755566 
L 941.798079 464.606756 
L 941.960443 470.223006 
L 941.960443 464.606756 
L 942.444738 457.638445 
L 942.805859 447.289983 
L 943.292952 439.099617 
L 943.30135 435.485456 
L 943.788444 432.079304 
L 943.802441 428.881161 
L 943.967605 425.839025 
L 944.460297 422.926895 
L 944.474294 420.144771 
L 944.639458 417.466651 
L 945.13215 414.892536 
L 945.146147 412.396425 
L 945.305712 409.978317 
L 945.804003 407.638212 
L 945.829198 403.140012 
L 946.475856 400.981915 
L 946.501051 396.82173 
L 947.147709 394.793639 
L 947.172904 390.893465 
L 947.819563 388.99538 
L 947.844757 385.303215 
L 948.491416 383.509135 
L 948.51661 379.998979 
L 949.163269 378.282902 
L 949.188463 374.928752 
L 949.835122 373.290679 
L 949.860316 370.092536 
L 950.506975 368.506465 
L 950.532169 365.412327 
L 951.178828 363.90426 
L 951.204023 360.914127 
L 951.850681 359.458062 
L 951.875876 356.571933 
L 952.522534 355.16787 
L 952.547729 352.385746 
L 953.194387 351.007684 
L 953.219582 348.303564 
L 953.866241 346.977504 
L 953.891435 344.351387 
L 954.538094 343.051329 
L 954.563288 340.503215 
L 955.209947 339.229158 
L 955.235141 336.733047 
L 955.8818 335.510992 
L 955.906994 333.066883 
L 956.553653 331.87083 
L 956.578848 329.478723 
L 957.225506 328.308671 
L 957.250701 325.968566 
L 957.897359 324.824515 
L 957.922554 322.536413 
L 958.569212 321.418363 
L 958.594407 319.182263 
L 959.241066 318.064214 
L 959.26626 315.880116 
L 959.912919 314.788067 
L 959.938113 312.629971 
L 960.584772 311.563923 
L 960.609966 309.431828 
L 961.256625 308.391782 
L 961.281819 306.311689 
L 961.928478 305.271642 
L 961.953673 303.243552 
L 962.600331 302.229507 
L 962.625526 300.201416 
L 963.272184 299.213372 
L 963.297379 297.237284 
L 963.944037 296.24924 
L 963.969232 294.299153 
L 964.615891 293.33711 
L 964.641085 291.413024 
L 965.287744 290.450981 
L 965.312938 288.578897 
L 965.959597 287.642855 
L 965.984791 285.770772 
L 966.63145 284.83473 
L 966.656644 283.014649 
L 967.303303 282.104608 
L 967.328498 280.284527 
L 967.975156 279.374486 
L 968.000351 277.580406 
L 968.647009 276.696367 
L 968.672204 274.928288 
L 969.318862 274.044248 
L 969.344057 272.276169 
L 969.990716 271.418131 
L 970.01591 269.702055 
L 970.662569 268.844016 
L 970.687763 267.12794 
L 971.334422 266.269901 
L 971.359616 264.579826 
L 972.006275 263.747789 
L 972.031469 262.083714 
L 972.678128 261.251677 
L 972.703323 259.587603 
L 973.349981 258.755566 
L 973.375176 257.143494 
L 974.021834 256.337458 
L 974.047029 254.725386 
L 974.693687 253.91935 
L 974.718882 252.307278 
L 975.365541 251.501242 
L 975.390735 249.941172 
L 976.037394 249.161138 
L 976.062588 247.601068 
L 976.709247 246.821033 
L 976.734441 245.260963 
L 977.3811 244.480929 
L 977.406294 242.920859 
L 978.052953 242.166825 
L 978.078148 240.658758 
L 978.724806 239.904724 
L 978.750001 238.396657 
L 979.396659 237.642623 
L 979.421854 236.134556 
L 980.068512 235.380522 
L 980.082509 234.626489 
L 980.740366 233.898456 
L 980.76556 464.606756 
L 980.916727 470.223006 
L 980.916727 464.606756 
L 981.412219 457.638445 
L 981.77334 447.289983 
L 982.260433 439.099617 
L 982.268831 435.485456 
L 982.755925 432.079304 
L 982.769922 428.881161 
L 982.935086 425.839025 
L 983.427778 422.926895 
L 983.441775 420.144771 
L 983.606939 417.466651 
L 984.099631 414.892536 
L 984.113628 412.396425 
L 984.273193 409.978317 
L 984.771484 407.638212 
L 984.796679 403.140012 
L 985.457334 400.981915 
L 985.468532 464.606756 
L 985.630896 470.223006 
L 985.630896 464.606756 
L 986.11519 457.638445 
L 986.476312 447.289983 
L 986.963405 439.099617 
L 986.971803 435.485456 
L 987.458897 432.079304 
L 987.472894 428.881161 
L 987.638058 425.839025 
L 988.13075 422.926895 
L 988.144747 420.144771 
L 988.309911 417.466651 
L 988.802603 414.892536 
L 988.8166 412.396425 
L 988.976165 409.978317 
L 989.474456 407.638212 
L 989.499651 403.140012 
L 990.146309 400.981915 
L 990.171504 396.82173 
L 990.818162 394.793639 
L 990.843357 390.893465 
L 991.490015 388.99538 
L 991.51521 385.303215 
L 992.161869 383.509135 
L 992.187063 379.998979 
L 992.833722 378.282902 
L 992.858916 374.928752 
L 993.505575 373.290679 
L 993.530769 370.092536 
L 994.177428 368.506465 
L 994.202622 365.412327 
L 994.849281 363.90426 
L 994.874476 360.914127 
L 995.521134 359.458062 
L 995.546329 356.571933 
L 996.192987 355.16787 
L 996.218182 352.385746 
L 996.218182 352.385746 
" clip-path="url(#p493c564464)" style="fill: none; stroke: #1f77b4; stroke-width: 1.5; stroke-linecap: square"/>
   </g>
   <g id="patch_3">
    <path d="M 144 512.64 
L 144 69.12 
" style="fill: none; stroke: #000000; stroke-width: 0.8; stroke-linejoin: miter; stroke-linecap: square"/>
   </g>
   <g id="patch_4">
    <path d="M 1036.8 512.64 
L 1036.8 69.12 
" style="fill: none; stroke: #000000; stroke-width: 0.8; stroke-linejoin: miter; stroke-linecap: square"/>
   </g>
   <g id="patch_5">
    <path d="M 144 512.64 
L 1036.8 512.64 
" style="fill: none; stroke: #000000; stroke-width: 0.8; stroke-linejoin: miter; stroke-linecap: square"/>
   </g>
   <g id="patch_6">
    <path d="M 144 69.12 
L 1036.8 69.12 
" style="fill: none; stroke: #000000; stroke-width: 0.8; stroke-linejoin: miter; stroke-linecap: square"/>
   </g>
   <g id="text_19">
    <!-- Graph of congestion window vs Time result/channelbw20 -->
    <g transform="translate(404.362891 63.12) scale(0.13 -0.13)">
     <defs>
      <path id="DejaVuSans-47" d="M 3809 666 
L 3809 1919 
L 2778 1919 
L 2778 2438 
L 4434 2438 
L 4434 434 
Q 4069 175 3628 42 
Q 3188 -91 2688 -91 
Q 1594 -91 976 548 
Q 359 1188 359 2328 
Q 359 3472 976 4111 
Q 1594 4750 2688 4750 
Q 3144 4750 3555 4637 
Q 3966 4525 4313 4306 
L 4313 3634 
Q 3963 3931 3569 4081 
Q 3175 4231 2741 4231 
Q 1884 4231 1454 3753 
Q 1025 3275 1025 2328 
Q 1025 1384 1454 906 
Q 1884 428 2741 428 
Q 3075 428 3337 486 
Q 3600 544 3809 666 
z
" transform="scale(0.015625)"/>
      <path id="DejaVuSans-72" d="M 2631 2963 
Q 2534 3019 2420 3045 
Q 2306 3072 2169 3072 
Q 1681 3072 1420 2755 
Q 1159 2438 1159 1844 
L 1159 0 
L 581 0 
L 581 3500 
L 1159 3500 
L 1159 2956 
Q 1341 3275 1631 3429 
Q 1922 3584 2338 3584 
Q 2397 3584 2469 3576 
Q 2541 3569 2628 3553 
L 2631 2963 
z
" transform="scale(0.015625)"/>
      <path id="DejaVuSans-61" d="M 2194 1759 
Q 1497 1759 1228 1600 
Q 959 1441 959 1056 
Q 959 750 1161 570 
Q 1363 391 1709 391 
Q 2188 391 2477 730 
Q 2766 1069 2766 1631 
L 2766 1759 
L 2194 1759 
z
M 3341 1997 
L 3341 0 
L 2766 0 
L 2766 531 
Q 2569 213 2275 61 
Q 1981 -91 1556 -91 
Q 1019 -91 701 211 
Q 384 513 384 1019 
Q 384 1609 779 1909 
Q 1175 2209 1959 2209 
L 2766 2209 
L 2766 2266 
Q 2766 2663 2505 2880 
Q 2244 3097 1772 3097 
Q 1472 3097 1187 3025 
Q 903 2953 641 2809 
L 641 3341 
Q 956 3463 1253 3523 
Q 1550 3584 1831 3584 
Q 2591 3584 2966 3190 
Q 3341 2797 3341 1997 
z
" transform="scale(0.015625)"/>
      <path id="DejaVuSans-70" d="M 1159 525 
L 1159 -1331 
L 581 -1331 
L 581 3500 
L 1159 3500 
L 1159 2969 
Q 1341 3281 1617 3432 
Q 1894 3584 2278 3584 
Q 2916 3584 3314 3078 
Q 3713 2572 3713 1747 
Q 3713 922 3314 415 
Q 2916 -91 2278 -91 
Q 1894 -91 1617 61 
Q 1341 213 1159 525 
z
M 3116 1747 
Q 3116 2381 2855 2742 
Q 2594 3103 2138 3103 
Q 1681 3103 1420 2742 
Q 1159 2381 1159 1747 
Q 1159 1113 1420 752 
Q 1681 391 2138 391 
Q 2594 391 2855 752 
Q 3116 1113 3116 1747 
z
" transform="scale(0.015625)"/>
      <path id="DejaVuSans-68" d="M 3513 2113 
L 3513 0 
L 2938 0 
L 2938 2094 
Q 2938 2591 2744 2837 
Q 2550 3084 2163 3084 
Q 1697 3084 1428 2787 
Q 1159 2491 1159 1978 
L 1159 0 
L 581 0 
L 581 4863 
L 1159 4863 
L 1159 2956 
Q 1366 3272 1645 3428 
Q 1925 3584 2291 3584 
Q 2894 3584 3203 3211 
Q 3513 2838 3513 2113 
z
" transform="scale(0.015625)"/>
      <path id="DejaVuSans-66" d="M 2375 4863 
L 2375 4384 
L 1825 4384 
Q 1516 4384 1395 4259 
Q 1275 4134 1275 3809 
L 1275 3500 
L 2222 3500 
L 2222 3053 
L 1275 3053 
L 1275 0 
L 697 0 
L 697 3053 
L 147 3053 
L 147 3500 
L 697 3500 
L 697 3744 
Q 697 4328 969 4595 
Q 1241 4863 1831 4863 
L 2375 4863 
z
" transform="scale(0.015625)"/>
      <path id="DejaVuSans-76" d="M 191 3500 
L 800 3500 
L 1894 563 
L 2988 3500 
L 3597 3500 
L 2284 0 
L 1503 0 
L 191 3500 
z
" transform="scale(0.015625)"/>
      <path id="DejaVuSans-75" d="M 544 1381 
L 544 3500 
L 1119 3500 
L 1119 1403 
Q 1119 906 1312 657 
Q 1506 409 1894 409 
Q 2359 409 2629 706 
Q 2900 1003 2900 1516 
L 2900 3500 
L 3475 3500 
L 3475 0 
L 2900 0 
L 2900 538 
Q 2691 219 2414 64 
Q 2138 -91 1772 -91 
Q 1169 -91 856 284 
Q 544 659 544 1381 
z
M 1991 3584 
L 1991 3584 
z
" transform="scale(0.015625)"/>
      <path id="DejaVuSans-6c" d="M 603 4863 
L 1178 4863 
L 1178 0 
L 603 0 
L 603 4863 
z
" transform="scale(0.015625)"/>
      <path id="DejaVuSans-2f" d="M 1625 4666 
L 2156 4666 
L 531 -594 
L 0 -594 
L 1625 4666 
z
" transform="scale(0.015625)"/>
      <path id="DejaVuSans-62" d="M 3116 1747 
Q 3116 2381 2855 2742 
Q 2594 3103 2138 3103 
Q 1681 3103 1420 2742 
Q 1159 2381 1159 1747 
Q 1159 1113 1420 752 
Q 1681 391 2138 391 
Q 2594 391 2855 752 
Q 3116 1113 3116 1747 
z
M 1159 2969 
Q 1341 3281 1617 3432 
Q 1894 3584 2278 3584 
Q 2916 3584 3314 3078 
Q 3713 2572 3713 1747 
Q 3713 922 3314 415 
Q 2916 -91 2278 -91 
Q 1894 -91 1617 61 
Q 1341 213 1159 525 
L 1159 0 
L 581 0 
L 581 4863 
L 1159 4863 
L 1159 2969 
z
" transform="scale(0.015625)"/>
     </defs>
     <use xlink:href="#DejaVuSans-47"/>
     <use xlink:href="#DejaVuSans-72" x="77.490234"/>
     <use xlink:href="#DejaVuSans-61" x="118.603516"/>
     <use xlink:href="#DejaVuSans-70" x="179.882812"/>
     <use xlink:href="#DejaVuSans-68" x="243.359375"/>
     <use xlink:href="#DejaVuSans-20" x="306.738281"/>
     <use xlink:href="#DejaVuSans-6f" x="338.525391"/>
     <use xlink:href="#DejaVuSans-66" x="399.707031"/>
     <use xlink:href="#DejaVuSans-20" x="434.912109"/>
     <use xlink:href="#DejaVuSans-63" x="466.699219"/>
     <use xlink:href="#DejaVuSans-6f" x="521.679688"/>
     <use xlink:href="#DejaVuSans-6e" x="582.861328"/>
     <use xlink:href="#DejaVuSans-67" x="646.240234"/>
     <use xlink:href="#DejaVuSans-65" x="709.716797"/>
     <use xlink:href="#DejaVuSans-73" x="771.240234"/>
     <use xlink:href="#DejaVuSans-74" x="823.339844"/>
     <use xlink:href="#DejaVuSans-69" x="862.548828"/>
     <use xlink:href="#DejaVuSans-6f" x="890.332031"/>
     <use xlink:href="#DejaVuSans-6e" x="951.513672"/>
     <use xlink:href="#DejaVuSans-20" x="1014.892578"/>
     <use xlink:href="#DejaVuSans-77" x="1046.679688"/>
     <use xlink:href="#DejaVuSans-69" x="1128.466797"/>
     <use xlink:href="#DejaVuSans-6e" x="1156.25"/>
     <use xlink:href="#DejaVuSans-64" x="1219.628906"/>
     <use xlink:href="#DejaVuSans-6f" x="1283.105469"/>
     <use xlink:href="#DejaVuSans-77" x="1344.287109"/>
     <use xlink:href="#DejaVuSans-20" x="1426.074219"/>
     <use xlink:href="#DejaVuSans-76" x="1457.861328"/>
     <use xlink:href="#DejaVuSans-73" x="1517.041016"/>
     <use xlink:href="#DejaVuSans-20" x="1569.140625"/>
     <use xlink:href="#DejaVuSans-54" x="1600.927734"/>
     <use xlink:href="#DejaVuSans-69" x="1658.886719"/>
     <use xlink:href="#DejaVuSans-6d" x="1686.669922"/>
     <use xlink:href="#DejaVuSans-65" x="1784.082031"/>
     <use xlink:href="#DejaVuSans-20" x="1845.605469"/>
     <use xlink:href="#DejaVuSans-72" x="1877.392578"/>
     <use xlink:href="#DejaVuSans-65" x="1916.255859"/>
     <use xlink:href="#DejaVuSans-73" x="1977.779297"/>
     <use xlink:href="#DejaVuSans-75" x="2029.878906"/>
     <use xlink:href="#DejaVuSans-6c" x="2093.257812"/>
     <use xlink:href="#DejaVuSans-74" x="2121.041016"/>
     <use xlink:href="#DejaVuSans-2f" x="2160.25"/>
     <use xlink:href="#DejaVuSans-63" x="2193.941406"/>
     <use xlink:href="#DejaVuSans-68" x="2248.921875"/>
     <use xlink:href="#DejaVuSans-61" x="2312.300781"/>
     <use xlink:href="#DejaVuSans-6e" x="2373.580078"/>
     <use xlink:href="#DejaVuSans-6e" x="2436.958984"/>
     <use xlink:href="#DejaVuSans-65" x="2500.337891"/>
     <use xlink:href="#DejaVuSans-6c" x="2561.861328"/>
     <use xlink:href="#DejaVuSans-62" x="2589.644531"/>
     <use xlink:href="#DejaVuSans-77" x="2653.121094"/>
     <use xlink:href="#DejaVuSans-32" x="2734.908203"/>
     <use xlink:href="#DejaVuSans-30" x="2798.53125"/>
    </g>
   </g>
  </g>
 </g>
 <defs>
  <clipPath id="p493c564464">
   <rect x="144" y="69.12" width="892.8" height="443.52"/>
  </clipPath>
 </defs>
</svg>
