<?xml version="1.0" encoding="utf-8" standalone="no"?>
<!DOCTYPE svg PUBLIC "-//W3C//DTD SVG 1.1//EN"
  "http://www.w3.org/Graphics/SVG/1.1/DTD/svg11.dtd">
<svg xmlns:xlink="http://www.w3.org/1999/xlink" width="1152pt" height="576pt" viewBox="0 0 1152 576" xmlns="http://www.w3.org/2000/svg" version="1.1">
 <metadata>
  <rdf:RDF xmlns:dc="http://purl.org/dc/elements/1.1/" xmlns:cc="http://creativecommons.org/ns#" xmlns:rdf="http://www.w3.org/1999/02/22-rdf-syntax-ns#">
   <cc:Work>
    <dc:type rdf:resource="http://purl.org/dc/dcmitype/StillImage"/>
    <dc:date>2023-01-05T15:16:17.782832</dc:date>
    <dc:format>image/svg+xml</dc:format>
    <dc:creator>
     <cc:Agent>
      <dc:title>Matplotlib v3.6.2, https://matplotlib.org/</dc:title>
     </cc:Agent>
    </dc:creator>
   </cc:Work>
  </rdf:RDF>
 </metadata>
 <defs>
  <style type="text/css">*{stroke-linejoin: round; stroke-linecap: butt}</style>
 </defs>
 <g id="figure_1">
  <g id="patch_1">
   <path d="M 0 576 
L 1152 576 
L 1152 0 
L 0 0 
z
" style="fill: #ffffff"/>
  </g>
  <g id="axes_1">
   <g id="patch_2">
    <path d="M 144 512.64 
L 1036.8 512.64 
L 1036.8 69.12 
L 144 69.12 
z
" style="fill: #ffffff"/>
   </g>
   <g id="matplotlib.axis_1">
    <g id="xtick_1">
     <g id="line2d_1">
      <defs>
       <path id="m50aea75f95" d="M 0 0 
L 0 3.5 
" style="stroke: #000000; stroke-width: 0.8"/>
      </defs>
      <g>
       <use xlink:href="#m50aea75f95" x="156.417902" y="512.64" style="stroke: #000000; stroke-width: 0.8"/>
      </g>
     </g>
     <g id="text_1">
      <!-- 0 -->
      <g transform="translate(153.236652 527.238438) scale(0.1 -0.1)">
       <defs>
        <path id="DejaVuSans-30" d="M 2034 4250 
Q 1547 4250 1301 3770 
Q 1056 3291 1056 2328 
Q 1056 1369 1301 889 
Q 1547 409 2034 409 
Q 2525 409 2770 889 
Q 3016 1369 3016 2328 
Q 3016 3291 2770 3770 
Q 2525 4250 2034 4250 
z
M 2034 4750 
Q 2819 4750 3233 4129 
Q 3647 3509 3647 2328 
Q 3647 1150 3233 529 
Q 2819 -91 2034 -91 
Q 1250 -91 836 529 
Q 422 1150 422 2328 
Q 422 3509 836 4129 
Q 1250 4750 2034 4750 
z
" transform="scale(0.015625)"/>
       </defs>
       <use xlink:href="#DejaVuSans-30"/>
      </g>
     </g>
    </g>
    <g id="xtick_2">
     <g id="line2d_2">
      <g>
       <use xlink:href="#m50aea75f95" x="296.385082" y="512.64" style="stroke: #000000; stroke-width: 0.8"/>
      </g>
     </g>
     <g id="text_2">
      <!-- 5 -->
      <g transform="translate(293.203832 527.238438) scale(0.1 -0.1)">
       <defs>
        <path id="DejaVuSans-35" d="M 691 4666 
L 3169 4666 
L 3169 4134 
L 1269 4134 
L 1269 2991 
Q 1406 3038 1543 3061 
Q 1681 3084 1819 3084 
Q 2600 3084 3056 2656 
Q 3513 2228 3513 1497 
Q 3513 744 3044 326 
Q 2575 -91 1722 -91 
Q 1428 -91 1123 -41 
Q 819 9 494 109 
L 494 744 
Q 775 591 1075 516 
Q 1375 441 1709 441 
Q 2250 441 2565 725 
Q 2881 1009 2881 1497 
Q 2881 1984 2565 2268 
Q 2250 2553 1709 2553 
Q 1456 2553 1204 2497 
Q 953 2441 691 2322 
L 691 4666 
z
" transform="scale(0.015625)"/>
       </defs>
       <use xlink:href="#DejaVuSans-35"/>
      </g>
     </g>
    </g>
    <g id="xtick_3">
     <g id="line2d_3">
      <g>
       <use xlink:href="#m50aea75f95" x="436.352262" y="512.64" style="stroke: #000000; stroke-width: 0.8"/>
      </g>
     </g>
     <g id="text_3">
      <!-- 10 -->
      <g transform="translate(429.989762 527.238438) scale(0.1 -0.1)">
       <defs>
        <path id="DejaVuSans-31" d="M 794 531 
L 1825 531 
L 1825 4091 
L 703 3866 
L 703 4441 
L 1819 4666 
L 2450 4666 
L 2450 531 
L 3481 531 
L 3481 0 
L 794 0 
L 794 531 
z
" transform="scale(0.015625)"/>
       </defs>
       <use xlink:href="#DejaVuSans-31"/>
       <use xlink:href="#DejaVuSans-30" x="63.623047"/>
      </g>
     </g>
    </g>
    <g id="xtick_4">
     <g id="line2d_4">
      <g>
       <use xlink:href="#m50aea75f95" x="576.319442" y="512.64" style="stroke: #000000; stroke-width: 0.8"/>
      </g>
     </g>
     <g id="text_4">
      <!-- 15 -->
      <g transform="translate(569.956942 527.238438) scale(0.1 -0.1)">
       <use xlink:href="#DejaVuSans-31"/>
       <use xlink:href="#DejaVuSans-35" x="63.623047"/>
      </g>
     </g>
    </g>
    <g id="xtick_5">
     <g id="line2d_5">
      <g>
       <use xlink:href="#m50aea75f95" x="716.286622" y="512.64" style="stroke: #000000; stroke-width: 0.8"/>
      </g>
     </g>
     <g id="text_5">
      <!-- 20 -->
      <g transform="translate(709.924122 527.238438) scale(0.1 -0.1)">
       <defs>
        <path id="DejaVuSans-32" d="M 1228 531 
L 3431 531 
L 3431 0 
L 469 0 
L 469 531 
Q 828 903 1448 1529 
Q 2069 2156 2228 2338 
Q 2531 2678 2651 2914 
Q 2772 3150 2772 3378 
Q 2772 3750 2511 3984 
Q 2250 4219 1831 4219 
Q 1534 4219 1204 4116 
Q 875 4013 500 3803 
L 500 4441 
Q 881 4594 1212 4672 
Q 1544 4750 1819 4750 
Q 2544 4750 2975 4387 
Q 3406 4025 3406 3419 
Q 3406 3131 3298 2873 
Q 3191 2616 2906 2266 
Q 2828 2175 2409 1742 
Q 1991 1309 1228 531 
z
" transform="scale(0.015625)"/>
       </defs>
       <use xlink:href="#DejaVuSans-32"/>
       <use xlink:href="#DejaVuSans-30" x="63.623047"/>
      </g>
     </g>
    </g>
    <g id="xtick_6">
     <g id="line2d_6">
      <g>
       <use xlink:href="#m50aea75f95" x="856.253801" y="512.64" style="stroke: #000000; stroke-width: 0.8"/>
      </g>
     </g>
     <g id="text_6">
      <!-- 25 -->
      <g transform="translate(849.891301 527.238438) scale(0.1 -0.1)">
       <use xlink:href="#DejaVuSans-32"/>
       <use xlink:href="#DejaVuSans-35" x="63.623047"/>
      </g>
     </g>
    </g>
    <g id="xtick_7">
     <g id="line2d_7">
      <g>
       <use xlink:href="#m50aea75f95" x="996.220981" y="512.64" style="stroke: #000000; stroke-width: 0.8"/>
      </g>
     </g>
     <g id="text_7">
      <!-- 30 -->
      <g transform="translate(989.858481 527.238438) scale(0.1 -0.1)">
       <defs>
        <path id="DejaVuSans-33" d="M 2597 2516 
Q 3050 2419 3304 2112 
Q 3559 1806 3559 1356 
Q 3559 666 3084 287 
Q 2609 -91 1734 -91 
Q 1441 -91 1130 -33 
Q 819 25 488 141 
L 488 750 
Q 750 597 1062 519 
Q 1375 441 1716 441 
Q 2309 441 2620 675 
Q 2931 909 2931 1356 
Q 2931 1769 2642 2001 
Q 2353 2234 1838 2234 
L 1294 2234 
L 1294 2753 
L 1863 2753 
Q 2328 2753 2575 2939 
Q 2822 3125 2822 3475 
Q 2822 3834 2567 4026 
Q 2313 4219 1838 4219 
Q 1578 4219 1281 4162 
Q 984 4106 628 3988 
L 628 4550 
Q 988 4650 1302 4700 
Q 1616 4750 1894 4750 
Q 2613 4750 3031 4423 
Q 3450 4097 3450 3541 
Q 3450 3153 3228 2886 
Q 3006 2619 2597 2516 
z
" transform="scale(0.015625)"/>
       </defs>
       <use xlink:href="#DejaVuSans-33"/>
       <use xlink:href="#DejaVuSans-30" x="63.623047"/>
      </g>
     </g>
    </g>
    <g id="text_8">
     <!-- Time in seconds -->
     <g transform="translate(537.870859 543.196094) scale(0.13 -0.13)">
      <defs>
       <path id="DejaVuSans-54" d="M -19 4666 
L 3928 4666 
L 3928 4134 
L 2272 4134 
L 2272 0 
L 1638 0 
L 1638 4134 
L -19 4134 
L -19 4666 
z
" transform="scale(0.015625)"/>
       <path id="DejaVuSans-69" d="M 603 3500 
L 1178 3500 
L 1178 0 
L 603 0 
L 603 3500 
z
M 603 4863 
L 1178 4863 
L 1178 4134 
L 603 4134 
L 603 4863 
z
" transform="scale(0.015625)"/>
       <path id="DejaVuSans-6d" d="M 3328 2828 
Q 3544 3216 3844 3400 
Q 4144 3584 4550 3584 
Q 5097 3584 5394 3201 
Q 5691 2819 5691 2113 
L 5691 0 
L 5113 0 
L 5113 2094 
Q 5113 2597 4934 2840 
Q 4756 3084 4391 3084 
Q 3944 3084 3684 2787 
Q 3425 2491 3425 1978 
L 3425 0 
L 2847 0 
L 2847 2094 
Q 2847 2600 2669 2842 
Q 2491 3084 2119 3084 
Q 1678 3084 1418 2786 
Q 1159 2488 1159 1978 
L 1159 0 
L 581 0 
L 581 3500 
L 1159 3500 
L 1159 2956 
Q 1356 3278 1631 3431 
Q 1906 3584 2284 3584 
Q 2666 3584 2933 3390 
Q 3200 3197 3328 2828 
z
" transform="scale(0.015625)"/>
       <path id="DejaVuSans-65" d="M 3597 1894 
L 3597 1613 
L 953 1613 
Q 991 1019 1311 708 
Q 1631 397 2203 397 
Q 2534 397 2845 478 
Q 3156 559 3463 722 
L 3463 178 
Q 3153 47 2828 -22 
Q 2503 -91 2169 -91 
Q 1331 -91 842 396 
Q 353 884 353 1716 
Q 353 2575 817 3079 
Q 1281 3584 2069 3584 
Q 2775 3584 3186 3129 
Q 3597 2675 3597 1894 
z
M 3022 2063 
Q 3016 2534 2758 2815 
Q 2500 3097 2075 3097 
Q 1594 3097 1305 2825 
Q 1016 2553 972 2059 
L 3022 2063 
z
" transform="scale(0.015625)"/>
       <path id="DejaVuSans-20" transform="scale(0.015625)"/>
       <path id="DejaVuSans-6e" d="M 3513 2113 
L 3513 0 
L 2938 0 
L 2938 2094 
Q 2938 2591 2744 2837 
Q 2550 3084 2163 3084 
Q 1697 3084 1428 2787 
Q 1159 2491 1159 1978 
L 1159 0 
L 581 0 
L 581 3500 
L 1159 3500 
L 1159 2956 
Q 1366 3272 1645 3428 
Q 1925 3584 2291 3584 
Q 2894 3584 3203 3211 
Q 3513 2838 3513 2113 
z
" transform="scale(0.015625)"/>
       <path id="DejaVuSans-73" d="M 2834 3397 
L 2834 2853 
Q 2591 2978 2328 3040 
Q 2066 3103 1784 3103 
Q 1356 3103 1142 2972 
Q 928 2841 928 2578 
Q 928 2378 1081 2264 
Q 1234 2150 1697 2047 
L 1894 2003 
Q 2506 1872 2764 1633 
Q 3022 1394 3022 966 
Q 3022 478 2636 193 
Q 2250 -91 1575 -91 
Q 1294 -91 989 -36 
Q 684 19 347 128 
L 347 722 
Q 666 556 975 473 
Q 1284 391 1588 391 
Q 1994 391 2212 530 
Q 2431 669 2431 922 
Q 2431 1156 2273 1281 
Q 2116 1406 1581 1522 
L 1381 1569 
Q 847 1681 609 1914 
Q 372 2147 372 2553 
Q 372 3047 722 3315 
Q 1072 3584 1716 3584 
Q 2034 3584 2315 3537 
Q 2597 3491 2834 3397 
z
" transform="scale(0.015625)"/>
       <path id="DejaVuSans-63" d="M 3122 3366 
L 3122 2828 
Q 2878 2963 2633 3030 
Q 2388 3097 2138 3097 
Q 1578 3097 1268 2742 
Q 959 2388 959 1747 
Q 959 1106 1268 751 
Q 1578 397 2138 397 
Q 2388 397 2633 464 
Q 2878 531 3122 666 
L 3122 134 
Q 2881 22 2623 -34 
Q 2366 -91 2075 -91 
Q 1284 -91 818 406 
Q 353 903 353 1747 
Q 353 2603 823 3093 
Q 1294 3584 2113 3584 
Q 2378 3584 2631 3529 
Q 2884 3475 3122 3366 
z
" transform="scale(0.015625)"/>
       <path id="DejaVuSans-6f" d="M 1959 3097 
Q 1497 3097 1228 2736 
Q 959 2375 959 1747 
Q 959 1119 1226 758 
Q 1494 397 1959 397 
Q 2419 397 2687 759 
Q 2956 1122 2956 1747 
Q 2956 2369 2687 2733 
Q 2419 3097 1959 3097 
z
M 1959 3584 
Q 2709 3584 3137 3096 
Q 3566 2609 3566 1747 
Q 3566 888 3137 398 
Q 2709 -91 1959 -91 
Q 1206 -91 779 398 
Q 353 888 353 1747 
Q 353 2609 779 3096 
Q 1206 3584 1959 3584 
z
" transform="scale(0.015625)"/>
       <path id="DejaVuSans-64" d="M 2906 2969 
L 2906 4863 
L 3481 4863 
L 3481 0 
L 2906 0 
L 2906 525 
Q 2725 213 2448 61 
Q 2172 -91 1784 -91 
Q 1150 -91 751 415 
Q 353 922 353 1747 
Q 353 2572 751 3078 
Q 1150 3584 1784 3584 
Q 2172 3584 2448 3432 
Q 2725 3281 2906 2969 
z
M 947 1747 
Q 947 1113 1208 752 
Q 1469 391 1925 391 
Q 2381 391 2643 752 
Q 2906 1113 2906 1747 
Q 2906 2381 2643 2742 
Q 2381 3103 1925 3103 
Q 1469 3103 1208 2742 
Q 947 2381 947 1747 
z
" transform="scale(0.015625)"/>
      </defs>
      <use xlink:href="#DejaVuSans-54"/>
      <use xlink:href="#DejaVuSans-69" x="57.958984"/>
      <use xlink:href="#DejaVuSans-6d" x="85.742188"/>
      <use xlink:href="#DejaVuSans-65" x="183.154297"/>
      <use xlink:href="#DejaVuSans-20" x="244.677734"/>
      <use xlink:href="#DejaVuSans-69" x="276.464844"/>
      <use xlink:href="#DejaVuSans-6e" x="304.248047"/>
      <use xlink:href="#DejaVuSans-20" x="367.626953"/>
      <use xlink:href="#DejaVuSans-73" x="399.414062"/>
      <use xlink:href="#DejaVuSans-65" x="451.513672"/>
      <use xlink:href="#DejaVuSans-63" x="513.037109"/>
      <use xlink:href="#DejaVuSans-6f" x="568.017578"/>
      <use xlink:href="#DejaVuSans-6e" x="629.199219"/>
      <use xlink:href="#DejaVuSans-64" x="692.578125"/>
      <use xlink:href="#DejaVuSans-73" x="756.054688"/>
     </g>
    </g>
   </g>
   <g id="matplotlib.axis_2">
    <g id="ytick_1">
     <g id="line2d_8">
      <defs>
       <path id="m3bc12cee31" d="M 0 0 
L -3.5 0 
" style="stroke: #000000; stroke-width: 0.8"/>
      </defs>
      <g>
       <use xlink:href="#m3bc12cee31" x="144" y="492.48" style="stroke: #000000; stroke-width: 0.8"/>
      </g>
     </g>
     <g id="text_9">
      <!-- 0 -->
      <g transform="translate(130.6375 496.279219) scale(0.1 -0.1)">
       <use xlink:href="#DejaVuSans-30"/>
      </g>
     </g>
    </g>
    <g id="ytick_2">
     <g id="line2d_9">
      <g>
       <use xlink:href="#m3bc12cee31" x="144" y="434.30154" style="stroke: #000000; stroke-width: 0.8"/>
      </g>
     </g>
     <g id="text_10">
      <!-- 2500 -->
      <g transform="translate(111.55 438.100759) scale(0.1 -0.1)">
       <use xlink:href="#DejaVuSans-32"/>
       <use xlink:href="#DejaVuSans-35" x="63.623047"/>
       <use xlink:href="#DejaVuSans-30" x="127.246094"/>
       <use xlink:href="#DejaVuSans-30" x="190.869141"/>
      </g>
     </g>
    </g>
    <g id="ytick_3">
     <g id="line2d_10">
      <g>
       <use xlink:href="#m3bc12cee31" x="144" y="376.12308" style="stroke: #000000; stroke-width: 0.8"/>
      </g>
     </g>
     <g id="text_11">
      <!-- 5000 -->
      <g transform="translate(111.55 379.922299) scale(0.1 -0.1)">
       <use xlink:href="#DejaVuSans-35"/>
       <use xlink:href="#DejaVuSans-30" x="63.623047"/>
       <use xlink:href="#DejaVuSans-30" x="127.246094"/>
       <use xlink:href="#DejaVuSans-30" x="190.869141"/>
      </g>
     </g>
    </g>
    <g id="ytick_4">
     <g id="line2d_11">
      <g>
       <use xlink:href="#m3bc12cee31" x="144" y="317.94462" style="stroke: #000000; stroke-width: 0.8"/>
      </g>
     </g>
     <g id="text_12">
      <!-- 7500 -->
      <g transform="translate(111.55 321.743838) scale(0.1 -0.1)">
       <defs>
        <path id="DejaVuSans-37" d="M 525 4666 
L 3525 4666 
L 3525 4397 
L 1831 0 
L 1172 0 
L 2766 4134 
L 525 4134 
L 525 4666 
z
" transform="scale(0.015625)"/>
       </defs>
       <use xlink:href="#DejaVuSans-37"/>
       <use xlink:href="#DejaVuSans-35" x="63.623047"/>
       <use xlink:href="#DejaVuSans-30" x="127.246094"/>
       <use xlink:href="#DejaVuSans-30" x="190.869141"/>
      </g>
     </g>
    </g>
    <g id="ytick_5">
     <g id="line2d_12">
      <g>
       <use xlink:href="#m3bc12cee31" x="144" y="259.76616" style="stroke: #000000; stroke-width: 0.8"/>
      </g>
     </g>
     <g id="text_13">
      <!-- 10000 -->
      <g transform="translate(105.1875 263.565378) scale(0.1 -0.1)">
       <use xlink:href="#DejaVuSans-31"/>
       <use xlink:href="#DejaVuSans-30" x="63.623047"/>
       <use xlink:href="#DejaVuSans-30" x="127.246094"/>
       <use xlink:href="#DejaVuSans-30" x="190.869141"/>
       <use xlink:href="#DejaVuSans-30" x="254.492188"/>
      </g>
     </g>
    </g>
    <g id="ytick_6">
     <g id="line2d_13">
      <g>
       <use xlink:href="#m3bc12cee31" x="144" y="201.587699" style="stroke: #000000; stroke-width: 0.8"/>
      </g>
     </g>
     <g id="text_14">
      <!-- 12500 -->
      <g transform="translate(105.1875 205.386918) scale(0.1 -0.1)">
       <use xlink:href="#DejaVuSans-31"/>
       <use xlink:href="#DejaVuSans-32" x="63.623047"/>
       <use xlink:href="#DejaVuSans-35" x="127.246094"/>
       <use xlink:href="#DejaVuSans-30" x="190.869141"/>
       <use xlink:href="#DejaVuSans-30" x="254.492188"/>
      </g>
     </g>
    </g>
    <g id="ytick_7">
     <g id="line2d_14">
      <g>
       <use xlink:href="#m3bc12cee31" x="144" y="143.409239" style="stroke: #000000; stroke-width: 0.8"/>
      </g>
     </g>
     <g id="text_15">
      <!-- 15000 -->
      <g transform="translate(105.1875 147.208458) scale(0.1 -0.1)">
       <use xlink:href="#DejaVuSans-31"/>
       <use xlink:href="#DejaVuSans-35" x="63.623047"/>
       <use xlink:href="#DejaVuSans-30" x="127.246094"/>
       <use xlink:href="#DejaVuSans-30" x="190.869141"/>
       <use xlink:href="#DejaVuSans-30" x="254.492188"/>
      </g>
     </g>
    </g>
    <g id="ytick_8">
     <g id="line2d_15">
      <g>
       <use xlink:href="#m3bc12cee31" x="144" y="85.230779" style="stroke: #000000; stroke-width: 0.8"/>
      </g>
     </g>
     <g id="text_16">
      <!-- 17500 -->
      <g transform="translate(105.1875 89.029998) scale(0.1 -0.1)">
       <use xlink:href="#DejaVuSans-31"/>
       <use xlink:href="#DejaVuSans-37" x="63.623047"/>
       <use xlink:href="#DejaVuSans-35" x="127.246094"/>
       <use xlink:href="#DejaVuSans-30" x="190.869141"/>
       <use xlink:href="#DejaVuSans-30" x="254.492188"/>
      </g>
     </g>
    </g>
    <g id="text_17">
     <!-- Congestion Window Sizes -->
     <g transform="translate(98.483906 373.964219) rotate(-90) scale(0.13 -0.13)">
      <defs>
       <path id="DejaVuSans-43" d="M 4122 4306 
L 4122 3641 
Q 3803 3938 3442 4084 
Q 3081 4231 2675 4231 
Q 1875 4231 1450 3742 
Q 1025 3253 1025 2328 
Q 1025 1406 1450 917 
Q 1875 428 2675 428 
Q 3081 428 3442 575 
Q 3803 722 4122 1019 
L 4122 359 
Q 3791 134 3420 21 
Q 3050 -91 2638 -91 
Q 1578 -91 968 557 
Q 359 1206 359 2328 
Q 359 3453 968 4101 
Q 1578 4750 2638 4750 
Q 3056 4750 3426 4639 
Q 3797 4528 4122 4306 
z
" transform="scale(0.015625)"/>
       <path id="DejaVuSans-67" d="M 2906 1791 
Q 2906 2416 2648 2759 
Q 2391 3103 1925 3103 
Q 1463 3103 1205 2759 
Q 947 2416 947 1791 
Q 947 1169 1205 825 
Q 1463 481 1925 481 
Q 2391 481 2648 825 
Q 2906 1169 2906 1791 
z
M 3481 434 
Q 3481 -459 3084 -895 
Q 2688 -1331 1869 -1331 
Q 1566 -1331 1297 -1286 
Q 1028 -1241 775 -1147 
L 775 -588 
Q 1028 -725 1275 -790 
Q 1522 -856 1778 -856 
Q 2344 -856 2625 -561 
Q 2906 -266 2906 331 
L 2906 616 
Q 2728 306 2450 153 
Q 2172 0 1784 0 
Q 1141 0 747 490 
Q 353 981 353 1791 
Q 353 2603 747 3093 
Q 1141 3584 1784 3584 
Q 2172 3584 2450 3431 
Q 2728 3278 2906 2969 
L 2906 3500 
L 3481 3500 
L 3481 434 
z
" transform="scale(0.015625)"/>
       <path id="DejaVuSans-74" d="M 1172 4494 
L 1172 3500 
L 2356 3500 
L 2356 3053 
L 1172 3053 
L 1172 1153 
Q 1172 725 1289 603 
Q 1406 481 1766 481 
L 2356 481 
L 2356 0 
L 1766 0 
Q 1100 0 847 248 
Q 594 497 594 1153 
L 594 3053 
L 172 3053 
L 172 3500 
L 594 3500 
L 594 4494 
L 1172 4494 
z
" transform="scale(0.015625)"/>
       <path id="DejaVuSans-57" d="M 213 4666 
L 850 4666 
L 1831 722 
L 2809 4666 
L 3519 4666 
L 4500 722 
L 5478 4666 
L 6119 4666 
L 4947 0 
L 4153 0 
L 3169 4050 
L 2175 0 
L 1381 0 
L 213 4666 
z
" transform="scale(0.015625)"/>
       <path id="DejaVuSans-77" d="M 269 3500 
L 844 3500 
L 1563 769 
L 2278 3500 
L 2956 3500 
L 3675 769 
L 4391 3500 
L 4966 3500 
L 4050 0 
L 3372 0 
L 2619 2869 
L 1863 0 
L 1184 0 
L 269 3500 
z
" transform="scale(0.015625)"/>
       <path id="DejaVuSans-53" d="M 3425 4513 
L 3425 3897 
Q 3066 4069 2747 4153 
Q 2428 4238 2131 4238 
Q 1616 4238 1336 4038 
Q 1056 3838 1056 3469 
Q 1056 3159 1242 3001 
Q 1428 2844 1947 2747 
L 2328 2669 
Q 3034 2534 3370 2195 
Q 3706 1856 3706 1288 
Q 3706 609 3251 259 
Q 2797 -91 1919 -91 
Q 1588 -91 1214 -16 
Q 841 59 441 206 
L 441 856 
Q 825 641 1194 531 
Q 1563 422 1919 422 
Q 2459 422 2753 634 
Q 3047 847 3047 1241 
Q 3047 1584 2836 1778 
Q 2625 1972 2144 2069 
L 1759 2144 
Q 1053 2284 737 2584 
Q 422 2884 422 3419 
Q 422 4038 858 4394 
Q 1294 4750 2059 4750 
Q 2388 4750 2728 4690 
Q 3069 4631 3425 4513 
z
" transform="scale(0.015625)"/>
       <path id="DejaVuSans-7a" d="M 353 3500 
L 3084 3500 
L 3084 2975 
L 922 459 
L 3084 459 
L 3084 0 
L 275 0 
L 275 525 
L 2438 3041 
L 353 3041 
L 353 3500 
z
" transform="scale(0.015625)"/>
      </defs>
      <use xlink:href="#DejaVuSans-43"/>
      <use xlink:href="#DejaVuSans-6f" x="69.824219"/>
      <use xlink:href="#DejaVuSans-6e" x="131.005859"/>
      <use xlink:href="#DejaVuSans-67" x="194.384766"/>
      <use xlink:href="#DejaVuSans-65" x="257.861328"/>
      <use xlink:href="#DejaVuSans-73" x="319.384766"/>
      <use xlink:href="#DejaVuSans-74" x="371.484375"/>
      <use xlink:href="#DejaVuSans-69" x="410.693359"/>
      <use xlink:href="#DejaVuSans-6f" x="438.476562"/>
      <use xlink:href="#DejaVuSans-6e" x="499.658203"/>
      <use xlink:href="#DejaVuSans-20" x="563.037109"/>
      <use xlink:href="#DejaVuSans-57" x="594.824219"/>
      <use xlink:href="#DejaVuSans-69" x="691.451172"/>
      <use xlink:href="#DejaVuSans-6e" x="719.234375"/>
      <use xlink:href="#DejaVuSans-64" x="782.613281"/>
      <use xlink:href="#DejaVuSans-6f" x="846.089844"/>
      <use xlink:href="#DejaVuSans-77" x="907.271484"/>
      <use xlink:href="#DejaVuSans-20" x="989.058594"/>
      <use xlink:href="#DejaVuSans-53" x="1020.845703"/>
      <use xlink:href="#DejaVuSans-69" x="1084.322266"/>
      <use xlink:href="#DejaVuSans-7a" x="1112.105469"/>
      <use xlink:href="#DejaVuSans-65" x="1164.595703"/>
      <use xlink:href="#DejaVuSans-73" x="1226.119141"/>
     </g>
    </g>
   </g>
   <g id="line2d_16">
    <path d="M 184.581818 492.48 
L 184.818363 342.798458 
L 185.265698 330.324996 
L 185.318325 305.378072 
L 185.93754 292.90461 
L 185.990168 267.957687 
L 186.609383 255.484225 
L 186.66201 230.537301 
L 187.281225 218.063839 
L 187.333853 193.116916 
L 187.953068 180.643454 
L 187.979382 168.169992 
L 188.62491 155.69653 
L 188.686216 463.809655 
L 188.807427 465.112852 
L 188.807427 463.809655 
L 189.30991 458.387422 
L 189.683062 449.823553 
L 190.163989 442.842138 
L 190.185544 439.723772 
L 190.653594 436.791578 
L 190.679908 433.999012 
L 190.84423 431.346074 
L 191.325437 428.809493 
L 191.351751 426.365998 
L 191.502915 424.015588 
L 191.997279 421.758264 
L 192.045148 417.453058 
L 192.669122 415.381905 
L 192.716991 411.425769 
L 193.340964 409.517516 
L 193.388833 405.840637 
L 194.012807 404.048741 
L 194.060676 400.581304 
L 194.684649 398.905765 
L 194.732518 395.6245 
L 195.383085 394.018774 
L 195.40464 467.533076 
L 195.565323 472.559695 
L 195.565323 467.533076 
L 196.414923 456.316269 
L 196.597441 480.006538 
L 196.597441 467.533076 
L 197.179424 452.034335 
L 197.554256 444.703849 
L 197.575811 441.469126 
L 198.043862 438.420575 
L 198.070175 435.558195 
L 198.234497 432.835443 
L 198.715704 430.229048 
L 198.742018 427.73901 
L 198.906339 425.342057 
L 199.387546 423.03819 
L 199.41386 420.804137 
L 199.565025 418.639898 
L 200.059389 416.545474 
L 200.107258 412.519524 
L 200.731231 410.588 
L 200.7791 406.864578 
L 201.403074 405.04941 
L 201.450943 401.558703 
L 202.074916 399.859891 
L 202.122785 396.555355 
L 202.746759 394.949629 
L 202.794628 391.807993 
L 203.418601 390.272081 
L 203.46647 387.270073 
L 204.090444 385.803976 
L 204.138312 382.941595 
L 204.762286 381.522041 
L 204.810155 378.752746 
L 205.434129 377.403006 
L 205.481997 374.726797 
L 206.105971 373.423599 
L 206.15384 370.840476 
L 206.777814 369.583821 
L 206.825682 367.093783 
L 207.449656 365.860399 
L 207.497525 363.440175 
L 208.121498 362.253335 
L 208.169367 359.902925 
L 208.793341 358.739356 
L 208.84121 356.45876 
L 209.465183 355.318462 
L 209.513052 353.08441 
L 210.137026 351.990655 
L 210.184895 349.803144 
L 210.808868 348.732661 
L 210.856737 346.591693 
L 211.480711 345.544481 
L 211.52858 343.450057 
L 212.152553 342.426116 
L 212.200422 340.378234 
L 212.824396 339.377564 
L 212.872265 337.376225 
L 213.496238 336.375556 
L 213.544107 334.42076 
L 214.168081 333.443361 
L 214.215949 331.511837 
L 214.839923 330.55771 
L 214.887792 328.649456 
L 215.511766 327.718601 
L 215.559634 325.85689 
L 216.183608 324.926035 
L 216.231477 323.110867 
L 216.855451 322.203283 
L 216.903319 320.388115 
L 217.527293 319.503802 
L 217.575162 317.735177 
L 218.199135 316.850865 
L 218.247004 315.105511 
L 218.870978 314.24447 
L 218.918847 312.522387 
L 219.54282 311.661346 
L 219.590689 309.985806 
L 220.214663 309.148036 
L 220.262532 307.472497 
L 220.886505 306.634727 
L 220.934374 305.00573 
L 221.558348 304.191232 
L 221.606217 302.562235 
L 222.23019 301.747736 
L 222.278059 300.142011 
L 222.902033 299.350784 
L 222.949901 297.76833 
L 223.573875 296.977103 
L 223.621744 295.394649 
L 224.245718 294.626693 
L 224.293586 293.090781 
L 224.91756 292.322826 
L 224.943874 291.55487 
L 225.615996 290.786914 
L 225.637831 464.484525 
L 225.976272 485.033157 
L 225.976272 467.533076 
L 227.13688 441.469126 
L 227.60493 438.420575 
L 227.631244 435.558195 
L 227.795565 432.835443 
L 228.276772 430.229048 
L 228.303086 427.73901 
L 228.467408 425.342057 
L 228.948615 423.03819 
L 228.974929 420.804137 
L 229.126093 418.639898 
L 229.620457 416.545474 
L 229.668326 412.519524 
L 230.2923 410.588 
L 230.340169 406.864578 
L 230.964142 405.04941 
L 231.012011 401.558703 
L 231.635985 399.859891 
L 231.683853 396.555355 
L 232.307827 394.949629 
L 232.355696 391.807993 
L 232.97967 390.272081 
L 233.027538 387.270073 
L 233.651512 385.803976 
L 233.699381 382.941595 
L 234.323355 381.522041 
L 234.371223 378.752746 
L 234.995197 377.403006 
L 235.043066 374.726797 
L 235.667039 373.423599 
L 235.714908 370.840476 
L 236.338882 369.583821 
L 236.386751 367.093783 
L 237.010724 365.860399 
L 237.058593 363.440175 
L 237.682567 362.253335 
L 237.730436 359.902925 
L 238.354409 358.739356 
L 238.402278 356.45876 
L 239.026252 355.318462 
L 239.074121 353.08441 
L 239.698094 351.990655 
L 239.745963 349.803144 
L 240.369937 348.732661 
L 240.417805 346.591693 
L 241.041779 345.544481 
L 241.089648 343.450057 
L 241.713622 342.426116 
L 241.76149 340.378234 
L 242.385464 339.377564 
L 242.433333 337.376225 
L 243.057307 336.375556 
L 243.105175 334.42076 
L 243.729149 333.443361 
L 243.777018 331.511837 
L 244.400991 330.55771 
L 244.44886 328.649456 
L 245.072834 327.718601 
L 245.120703 325.85689 
L 245.744676 324.926035 
L 245.792545 323.110867 
L 246.416519 322.203283 
L 246.464388 320.388115 
L 247.088361 319.503802 
L 247.13623 317.735177 
L 247.760204 316.850865 
L 247.808073 315.105511 
L 248.432046 314.24447 
L 248.479915 312.522387 
L 249.103889 311.661346 
L 249.151758 309.985806 
L 249.775731 309.148036 
L 249.8236 307.472497 
L 250.447574 306.634727 
L 250.495442 305.00573 
L 251.119416 304.191232 
L 251.167285 302.562235 
L 251.791259 301.747736 
L 251.839127 300.142011 
L 252.463101 299.350784 
L 252.51097 297.76833 
L 253.134944 296.977103 
L 253.182812 295.394649 
L 253.806786 294.626693 
L 253.854655 293.090781 
L 254.478628 292.322826 
L 254.526497 290.786914 
L 255.150471 290.018959 
L 255.19834 288.506319 
L 255.822313 287.761635 
L 255.870182 286.272266 
L 256.494156 285.527582 
L 256.542025 284.038213 
L 257.165998 283.293529 
L 257.213867 281.850703 
L 257.837841 281.12929 
L 257.88571 279.686464 
L 258.509683 278.965051 
L 258.557552 277.522226 
L 259.181526 276.800813 
L 259.229394 275.40453 
L 259.853368 274.706388 
L 259.901237 273.310105 
L 260.525211 272.611964 
L 260.573079 271.21568 
L 261.197053 270.517539 
L 261.244922 269.121256 
L 261.868896 268.446386 
L 261.916764 267.096646 
L 262.540738 266.421775 
L 262.588607 265.072035 
L 263.21258 264.397165 
L 263.260449 263.047425 
L 263.884423 262.372555 
L 263.932292 261.046086 
L 264.556265 260.394487 
L 264.604134 259.091289 
L 265.228108 258.439691 
L 265.275977 257.136493 
L 265.89995 256.484894 
L 265.947819 255.181697 
L 266.571793 254.530098 
L 266.619662 253.226901 
L 267.243635 252.598573 
L 267.291504 251.341919 
L 267.915478 250.713591 
L 267.963346 249.456936 
L 268.58732 248.828609 
L 268.635189 247.571954 
L 269.259163 246.943627 
L 269.307031 245.686972 
L 269.931005 245.058645 
L 269.978874 243.825261 
L 270.602848 243.220205 
L 270.650716 242.010094 
L 271.27469 241.405038 
L 271.322559 240.194926 
L 271.946532 239.58987 
L 271.994401 238.379758 
L 272.618375 237.774702 
L 272.666244 236.56459 
L 273.290217 235.959534 
L 273.338086 234.749422 
L 273.96206 234.167637 
L 274.009929 233.004068 
L 274.633902 232.422283 
L 274.681771 231.258714 
L 275.305745 230.676929 
L 275.353614 229.51336 
L 275.977587 228.931576 
L 276.025456 227.768006 
L 276.64943 227.186222 
L 276.697299 226.022653 
L 277.321272 225.440868 
L 277.369141 224.30057 
L 277.993115 223.742057 
L 278.040983 222.625031 
L 278.664957 222.066517 
L 278.712826 220.949491 
L 279.3368 220.390978 
L 279.384668 219.273951 
L 280.008642 218.715438 
L 280.056511 217.598412 
L 280.680485 217.039898 
L 280.728353 215.922872 
L 281.352327 215.364359 
L 281.400196 214.247332 
L 282.024169 213.688819 
L 282.072038 212.618335 
L 282.696012 212.083094 
L 282.743881 211.01261 
L 283.367854 210.477368 
L 283.415723 209.406884 
L 284.039697 208.871643 
L 284.087566 207.801159 
L 284.711539 207.265917 
L 284.759408 206.195433 
L 285.383382 205.660192 
L 285.431251 204.589708 
L 286.055224 204.054466 
L 286.103093 202.983982 
L 286.727067 202.448741 
L 286.774935 201.378257 
L 287.398909 200.866287 
L 287.446778 199.842346 
L 288.070752 199.330375 
L 288.11862 198.306434 
L 288.742594 197.794464 
L 288.790463 196.770523 
L 289.414437 196.258552 
L 289.462305 195.234612 
L 290.086279 194.722641 
L 290.134148 193.6987 
L 290.758121 193.18673 
L 290.80599 192.162789 
L 291.429964 191.650818 
L 291.477833 190.626878 
L 292.101806 190.114907 
L 292.149675 189.090966 
L 292.773649 188.578996 
L 292.821518 187.601598 
L 293.445491 187.112899 
L 293.49336 186.1355 
L 294.117334 185.646801 
L 294.165203 184.669403 
L 294.789176 184.180704 
L 294.837045 183.203306 
L 295.461019 182.714607 
L 295.508887 181.737209 
L 296.132861 181.24851 
L 296.18073 180.271112 
L 296.804704 179.782413 
L 296.852572 178.805014 
L 297.476546 178.316315 
L 297.524415 177.338917 
L 298.148389 176.850218 
L 298.196257 175.87282 
L 298.820231 175.384121 
L 298.8681 174.406723 
L 299.492073 173.918024 
L 299.539942 172.987168 
L 300.163916 172.521741 
L 300.211785 171.590885 
L 300.835758 171.125458 
L 300.883627 170.194602 
L 301.507601 169.729175 
L 301.55547 168.798319 
L 302.179443 168.332892 
L 302.227312 167.402036 
L 302.851286 166.936609 
L 302.899155 166.005753 
L 303.523128 165.540326 
L 303.570997 164.60947 
L 304.194971 164.144042 
L 304.242839 163.213187 
L 304.866813 162.747759 
L 304.914682 161.816904 
L 305.538656 161.351476 
L 305.586524 160.420621 
L 306.210498 159.955193 
L 306.258367 159.024338 
L 306.882341 158.55891 
L 306.930209 157.651326 
L 307.554183 157.20917 
L 307.602052 156.324857 
L 308.226025 155.882701 
L 308.273894 154.998389 
L 308.897868 154.556232 
L 308.945737 153.67192 
L 309.56971 153.229763 
L 309.617579 152.345451 
L 310.241553 151.903294 
L 310.289422 151.018982 
L 310.913395 150.576826 
L 310.961264 149.692513 
L 311.585238 149.250357 
L 311.633107 148.366044 
L 312.25708 147.923888 
L 312.304949 147.039575 
L 312.928923 146.597419 
L 312.976792 145.713106 
L 313.640516 145.27095 
L 313.822753 472.559695 
L 313.822753 467.533076 
L 314.272608 461.296345 
L 314.658917 452.034335 
L 315.126687 444.703849 
L 315.148242 441.469126 
L 315.616293 438.420575 
L 315.642606 435.558195 
L 315.806928 432.835443 
L 316.288135 430.229048 
L 316.314449 427.73901 
L 316.47877 425.342057 
L 316.959978 423.03819 
L 316.986291 420.804137 
L 317.137456 418.639898 
L 317.63182 416.545474 
L 317.679689 412.519524 
L 318.303662 410.588 
L 318.351531 406.864578 
L 318.975505 405.04941 
L 319.023374 401.558703 
L 319.647347 399.859891 
L 319.695216 396.555355 
L 320.31919 394.949629 
L 320.367059 391.807993 
L 320.991032 390.272081 
L 321.038901 387.270073 
L 321.662875 385.803976 
L 321.710744 382.941595 
L 322.334717 381.522041 
L 322.382586 378.752746 
L 323.00656 377.403006 
L 323.054428 374.726797 
L 323.678402 373.423599 
L 323.726271 370.840476 
L 324.350245 369.583821 
L 324.398113 367.093783 
L 325.022087 365.860399 
L 325.069956 363.440175 
L 325.69393 362.253335 
L 325.741798 359.902925 
L 326.365772 358.739356 
L 326.413641 356.45876 
L 327.037614 355.318462 
L 327.085483 353.08441 
L 327.709457 351.990655 
L 327.757326 349.803144 
L 328.381299 348.732661 
L 328.429168 346.591693 
L 329.053142 345.544481 
L 329.101011 343.450057 
L 329.724984 342.426116 
L 329.772853 340.378234 
L 330.396827 339.377564 
L 330.444696 337.376225 
L 331.10842 336.375556 
L 331.290657 472.559695 
L 331.290657 467.533076 
L 331.740512 461.296345 
L 332.126821 452.034335 
L 332.594591 444.703849 
L 332.616146 441.469126 
L 333.084197 438.420575 
L 333.11051 435.558195 
L 333.274832 432.835443 
L 333.756039 430.229048 
L 333.782353 427.73901 
L 333.946674 425.342057 
L 334.427882 423.03819 
L 334.454195 420.804137 
L 334.60536 418.639898 
L 335.099724 416.545474 
L 335.147593 412.519524 
L 335.771566 410.588 
L 335.819435 406.864578 
L 336.443409 405.04941 
L 336.491278 401.558703 
L 337.115251 399.859891 
L 337.16312 396.555355 
L 337.787094 394.949629 
L 337.834963 391.807993 
L 338.458936 390.272081 
L 338.506805 387.270073 
L 339.130779 385.803976 
L 339.178648 382.941595 
L 339.802621 381.522041 
L 339.85049 378.752746 
L 340.474464 377.403006 
L 340.522333 374.726797 
L 341.146306 373.423599 
L 341.194175 370.840476 
L 341.818149 369.583821 
L 341.866017 367.093783 
L 342.489991 365.860399 
L 342.53786 363.440175 
L 343.161834 362.253335 
L 343.209702 359.902925 
L 343.833676 358.739356 
L 343.881545 356.45876 
L 344.505519 355.318462 
L 344.553387 353.08441 
L 345.177361 351.990655 
L 345.22523 349.803144 
L 345.849203 348.732661 
L 345.897072 346.591693 
L 346.521046 345.544481 
L 346.568915 343.450057 
L 347.192888 342.426116 
L 347.240757 340.378234 
L 347.864731 339.377564 
L 347.9126 337.376225 
L 348.536573 336.375556 
L 348.584442 334.42076 
L 349.208416 333.443361 
L 349.256285 331.511837 
L 349.880258 330.55771 
L 349.928127 328.649456 
L 350.552101 327.718601 
L 350.599969 325.85689 
L 351.223943 324.926035 
L 351.271812 323.110867 
L 351.895786 322.203283 
L 351.943654 320.388115 
L 352.567628 319.503802 
L 352.615497 317.735177 
L 353.239471 316.850865 
L 353.287339 315.105511 
L 353.911313 314.24447 
L 353.959182 312.522387 
L 354.583155 311.661346 
L 354.631024 309.985806 
L 355.254998 309.148036 
L 355.281312 308.310267 
L 355.92684 307.472497 
L 355.974989 467.533076 
L 383.274748 472.559695 
L 389.238189 480.006538 
L 389.629538 461.296345 
L 390.38536 444.703849 
L 390.567878 441.469126 
L 390.594191 438.420575 
L 390.763272 435.558195 
L 390.789866 432.835443 
L 390.958946 430.229048 
L 390.98526 427.73901 
L 391.15462 425.342057 
L 391.180934 423.03819 
L 391.336857 420.804137 
L 391.363451 418.639898 
L 391.519374 416.545474 
L 391.572282 412.519524 
L 391.715049 410.588 
L 391.767676 406.864578 
L 391.910443 405.04941 
L 392.145868 396.555355 
L 392.301791 393.367175 
L 392.536936 385.803976 
L 392.679702 382.941595 
L 392.928004 374.726797 
L 393.057614 372.120402 
L 393.292759 364.650287 
L 393.422368 362.253335 
L 393.697264 353.08441 
L 393.813716 350.896899 
L 394.151877 341.402175 
L 394.675354 324.926035 
L 394.765213 324.018451 
L 394.921417 423.87596 
L 394.960887 430.112691 
L 394.960887 423.87596 
L 395.103934 421.618636 
L 395.130248 419.431125 
L 395.286171 417.31343 
L 395.339079 413.264209 
L 395.481845 411.309412 
L 395.534753 407.539448 
L 395.677519 405.72428 
L 395.730427 402.18703 
L 395.872914 400.464947 
L 396.108338 392.366506 
L 396.264262 389.317955 
L 396.512564 380.637728 
L 396.65533 377.891705 
L 396.890755 370.025977 
L 397.020085 367.512668 
L 397.281823 359.134969 
L 397.398276 356.831102 
L 397.673172 348.011248 
L 397.802501 344.84634 
L 397.829095 343.799127 
L 398.239759 342.775186 
L 398.292386 340.727305 
L 398.911601 339.703364 
L 398.964229 337.702025 
L 399.583444 336.701355 
L 399.636071 334.746559 
L 400.255286 333.769161 
L 400.307914 331.837636 
L 400.927129 330.883509 
L 400.979756 328.975256 
L 401.598971 328.0444 
L 401.651599 326.18269 
L 402.270813 325.251834 
L 402.323441 323.436666 
L 402.942656 322.529082 
L 402.995284 320.713914 
L 403.614498 319.829602 
L 403.667126 318.060977 
L 404.286341 317.176664 
L 404.338968 315.43131 
L 404.958183 314.570269 
L 405.010811 312.848187 
L 405.630026 311.987145 
L 405.682653 310.288334 
L 406.301868 309.450564 
L 406.354496 307.775025 
L 406.973711 306.937255 
L 407.026338 305.284987 
L 407.645553 304.470488 
L 407.698181 302.841491 
L 408.317396 302.026993 
L 408.370023 300.421267 
L 408.989238 299.63004 
L 409.041866 298.047586 
L 409.661081 297.256359 
L 409.713708 295.673905 
L 410.332923 294.905949 
L 410.385551 293.370038 
L 411.004765 292.602082 
L 411.057393 291.066171 
L 411.676608 290.298215 
L 411.729236 288.785575 
L 412.34845 288.040891 
L 412.401078 286.551523 
L 413.020293 285.806838 
L 413.07292 284.31747 
L 413.692135 283.572785 
L 413.744763 282.106688 
L 414.363978 281.385275 
L 414.416605 279.942449 
L 415.03582 279.221037 
L 415.088448 277.778211 
L 415.707663 277.056798 
L 415.76029 275.637243 
L 416.379505 274.939102 
L 416.432133 273.542819 
L 417.051348 272.844677 
L 417.103975 271.448394 
L 417.72319 270.750253 
L 417.775818 269.35397 
L 418.395033 268.6791 
L 418.421346 268.004229 
L 419.080032 267.329359 
L 419.128181 467.533076 
L 419.262549 472.559695 
L 419.262549 467.533076 
L 419.751874 461.296345 
L 420.138184 452.034335 
L 420.605954 444.703849 
L 420.627509 441.469126 
L 421.095559 438.420575 
L 421.121873 435.558195 
L 421.286195 432.835443 
L 421.767402 430.229048 
L 421.793716 427.73901 
L 421.958037 425.342057 
L 422.439244 423.03819 
L 422.465558 420.804137 
L 422.616723 418.639898 
L 423.111087 416.545474 
L 423.158955 412.519524 
L 423.782929 410.588 
L 423.830798 406.864578 
L 424.454772 405.04941 
L 424.50264 401.558703 
L 425.126614 399.859891 
L 425.174483 396.555355 
L 425.798457 394.949629 
L 425.846325 391.807993 
L 426.470299 390.272081 
L 426.518168 387.270073 
L 427.142141 385.803976 
L 427.19001 382.941595 
L 427.813984 381.522041 
L 427.861853 378.752746 
L 428.485826 377.403006 
L 428.533695 374.726797 
L 429.157669 373.423599 
L 429.205538 370.840476 
L 429.829511 369.583821 
L 429.87738 367.093783 
L 430.501354 365.860399 
L 430.549223 363.440175 
L 431.173196 362.253335 
L 431.221065 359.902925 
L 431.845039 358.739356 
L 431.892907 356.45876 
L 432.516881 355.318462 
L 432.56475 353.08441 
L 433.188724 351.990655 
L 433.236592 349.803144 
L 433.860566 348.732661 
L 433.908435 346.591693 
L 434.532409 345.544481 
L 434.580277 343.450057 
L 435.204251 342.426116 
L 435.25212 340.378234 
L 435.876094 339.377564 
L 435.923962 337.376225 
L 436.548216 336.375556 
L 436.595805 334.42076 
L 437.220058 333.443361 
L 437.267647 331.511837 
L 437.891901 330.55771 
L 437.93949 328.649456 
L 438.563743 327.718601 
L 438.611332 325.85689 
L 439.235586 324.926035 
L 439.283175 323.110867 
L 439.907428 322.203283 
L 439.955017 320.388115 
L 440.579271 319.503802 
L 440.62686 317.735177 
L 441.251113 316.850865 
L 441.298702 315.105511 
L 441.922956 314.24447 
L 441.970544 312.522387 
L 442.594798 311.661346 
L 442.642387 309.985806 
L 443.266641 309.148036 
L 443.314229 307.472497 
L 443.938483 306.634727 
L 443.986072 305.00573 
L 444.610325 304.191232 
L 444.657914 302.562235 
L 445.282168 301.747736 
L 445.329757 300.142011 
L 445.95401 299.350784 
L 446.001599 297.76833 
L 446.625853 296.977103 
L 446.673442 295.394649 
L 447.297695 294.626693 
L 447.345284 293.090781 
L 447.969538 292.322826 
L 448.017127 290.786914 
L 448.64138 290.018959 
L 448.688969 288.506319 
L 449.313223 287.761635 
L 449.360812 286.272266 
L 449.985065 285.527582 
L 450.032654 284.038213 
L 450.656908 283.293529 
L 450.704496 281.850703 
L 451.32875 281.12929 
L 451.376339 279.686464 
L 452.000593 278.965051 
L 452.048181 277.522226 
L 452.672435 276.800813 
L 452.720024 275.40453 
L 453.344277 274.706388 
L 453.391866 273.310105 
L 454.01612 272.611964 
L 454.063709 271.21568 
L 454.687962 270.517539 
L 454.735551 269.121256 
L 455.359805 268.446386 
L 455.407394 267.096646 
L 456.031647 266.421775 
L 456.079236 265.072035 
L 456.70349 264.397165 
L 456.751079 263.047425 
L 457.375332 262.372555 
L 457.422921 261.046086 
L 458.047175 260.394487 
L 458.094764 259.091289 
L 458.719017 258.439691 
L 458.766606 257.136493 
L 459.39086 256.484894 
L 459.438448 255.181697 
L 460.062702 254.530098 
L 460.110291 253.226901 
L 460.734545 252.598573 
L 460.782133 251.341919 
L 461.406387 250.713591 
L 461.453976 249.456936 
L 462.07823 248.828609 
L 462.125818 247.571954 
L 462.750072 246.943627 
L 462.797661 245.686972 
L 463.421914 245.058645 
L 463.469503 243.825261 
L 464.093757 243.220205 
L 464.141346 242.010094 
L 464.765599 241.405038 
L 464.813188 240.194926 
L 465.462636 239.58987 
L 465.485031 467.533076 
L 465.647393 472.559695 
L 465.647393 467.533076 
L 466.109284 461.296345 
L 466.495594 452.034335 
L 466.963084 444.703849 
L 466.985479 441.469126 
L 467.452969 438.420575 
L 467.478163 435.558195 
L 467.643325 432.835443 
L 468.124812 430.229048 
L 468.150006 427.73901 
L 468.315167 425.342057 
L 468.796654 423.03819 
L 468.821848 420.804137 
L 468.973013 418.639898 
L 469.468497 416.545474 
L 469.516085 412.519524 
L 470.140339 410.588 
L 470.187928 406.864578 
L 470.812182 405.04941 
L 470.85977 401.558703 
L 471.484024 399.859891 
L 471.531613 396.555355 
L 472.155866 394.949629 
L 472.203455 391.807993 
L 472.827709 390.272081 
L 472.875298 387.270073 
L 473.499551 385.803976 
L 473.54714 382.941595 
L 474.171394 381.522041 
L 474.218983 378.752746 
L 474.843236 377.403006 
L 474.890825 374.726797 
L 475.515079 373.423599 
L 475.562668 370.840476 
L 476.212115 369.583821 
L 476.23451 467.533076 
L 476.396872 472.559695 
L 476.396872 467.533076 
L 476.858764 461.296345 
L 477.245073 452.034335 
L 477.712563 444.703849 
L 477.734958 441.469126 
L 478.202449 438.420575 
L 478.227643 435.558195 
L 478.392804 432.835443 
L 478.874291 430.229048 
L 478.899485 427.73901 
L 479.064646 425.342057 
L 479.546134 423.03819 
L 479.722492 420.804137 
L 479.907249 480.006538 
L 479.907249 467.533076 
L 481.071776 444.703849 
L 481.094171 441.469126 
L 481.561661 438.420575 
L 481.586855 435.558195 
L 481.752016 432.835443 
L 482.233503 430.229048 
L 482.258697 427.73901 
L 482.423859 425.342057 
L 482.905346 423.03819 
L 482.93054 420.804137 
L 483.081705 418.639898 
L 483.577188 416.545474 
L 483.624777 412.519524 
L 484.249031 410.588 
L 484.29662 406.864578 
L 484.920873 405.04941 
L 484.968462 401.558703 
L 485.592716 399.859891 
L 485.640305 396.555355 
L 486.264558 394.949629 
L 486.312147 391.807993 
L 486.936401 390.272081 
L 486.983989 387.270073 
L 487.608243 385.803976 
L 487.655832 382.941595 
L 488.280086 381.522041 
L 488.327674 378.752746 
L 488.951928 377.403006 
L 488.999517 374.726797 
L 489.62377 373.423599 
L 489.671359 370.840476 
L 490.295613 369.583821 
L 490.343202 367.093783 
L 490.967455 365.860399 
L 491.015044 363.440175 
L 491.639298 362.253335 
L 491.686887 359.902925 
L 492.31114 358.739356 
L 492.358729 356.45876 
L 492.982983 355.318462 
L 493.030572 353.08441 
L 493.654825 351.990655 
L 493.702414 349.803144 
L 494.326668 348.732661 
L 494.374257 346.591693 
L 494.99851 345.544481 
L 495.046099 343.450057 
L 495.670353 342.426116 
L 495.717942 340.378234 
L 496.342195 339.377564 
L 496.389784 337.376225 
L 497.014038 336.375556 
L 497.061626 334.42076 
L 497.68588 333.443361 
L 497.733469 331.511837 
L 498.357723 330.55771 
L 498.405311 328.649456 
L 499.029565 327.718601 
L 499.077154 325.85689 
L 499.701407 324.926035 
L 499.748996 323.110867 
L 500.37325 322.203283 
L 500.420839 320.388115 
L 501.045092 319.503802 
L 501.092681 317.735177 
L 501.716935 316.850865 
L 501.764524 315.105511 
L 502.388777 314.24447 
L 502.436366 312.522387 
L 503.06062 311.661346 
L 503.108209 309.985806 
L 503.732462 309.148036 
L 503.780051 307.472497 
L 504.404305 306.634727 
L 504.451894 305.00573 
L 505.076147 304.191232 
L 505.123736 302.562235 
L 505.74799 301.747736 
L 505.795578 300.142011 
L 506.419832 299.350784 
L 506.467421 297.76833 
L 507.091675 296.977103 
L 507.139263 295.394649 
L 507.763517 294.626693 
L 507.811106 293.090781 
L 508.435359 292.322826 
L 508.482948 290.786914 
L 509.107202 290.018959 
L 509.154791 288.506319 
L 509.779044 287.761635 
L 509.826633 286.272266 
L 510.450887 285.527582 
L 510.498476 284.038213 
L 511.122729 283.293529 
L 511.170318 281.850703 
L 511.794572 281.12929 
L 511.842161 279.686464 
L 512.466414 278.965051 
L 512.514003 277.522226 
L 513.138257 276.800813 
L 513.185846 275.40453 
L 513.810099 274.706388 
L 513.857688 273.310105 
L 514.481942 272.611964 
L 514.52953 271.21568 
L 515.153784 270.517539 
L 515.201373 269.121256 
L 515.825627 268.446386 
L 515.873215 267.096646 
L 516.497469 266.421775 
L 516.545058 265.072035 
L 517.169311 264.397165 
L 517.2169 263.047425 
L 517.841154 262.372555 
L 517.888743 261.046086 
L 518.512996 260.394487 
L 518.560585 259.742888 
L 518.742543 480.006538 
L 518.742543 467.533076 
L 519.184839 461.296345 
L 519.571148 452.034335 
L 520.038639 444.703849 
L 520.061033 441.469126 
L 520.528524 438.420575 
L 520.553718 435.558195 
L 520.718879 432.835443 
L 521.200366 430.229048 
L 521.390722 427.73901 
L 521.572679 480.006538 
L 521.572679 467.533076 
L 522.748403 441.469126 
L 523.215894 438.420575 
L 523.241088 435.558195 
L 523.406249 432.835443 
L 523.887736 430.229048 
L 523.91293 427.73901 
L 524.078091 425.342057 
L 524.559579 423.03819 
L 524.584773 420.804137 
L 525.245418 418.639898 
L 525.256615 435.13931 
L 525.399382 447.612772 
L 525.427375 472.559695 
L 525.609332 480.006538 
L 525.609332 467.533076 
L 526.779458 441.469126 
L 527.246948 438.420575 
L 527.272143 435.558195 
L 527.437304 432.835443 
L 527.918791 430.229048 
L 527.943985 427.73901 
L 528.109146 425.342057 
L 528.590633 423.03819 
L 528.615827 420.804137 
L 528.766992 418.639898 
L 529.262476 416.545474 
L 529.310065 412.519524 
L 529.934318 410.588 
L 529.981907 406.864578 
L 530.606161 405.04941 
L 530.65375 401.558703 
L 531.278003 399.859891 
L 531.325592 396.555355 
L 531.949846 394.949629 
L 531.997435 391.807993 
L 532.621688 390.272081 
L 532.669277 387.270073 
L 533.293531 385.803976 
L 533.341119 382.941595 
L 533.965373 381.522041 
L 534.012962 378.752746 
L 534.637216 377.403006 
L 534.684804 374.726797 
L 535.309058 373.423599 
L 535.356647 370.840476 
L 535.9809 369.583821 
L 536.028489 367.093783 
L 536.652743 365.860399 
L 536.700332 363.440175 
L 537.324585 362.253335 
L 537.372174 359.902925 
L 537.996428 358.739356 
L 538.044017 356.45876 
L 538.66827 355.318462 
L 538.715859 353.08441 
L 539.340113 351.990655 
L 539.387702 349.803144 
L 540.011955 348.732661 
L 540.059544 346.591693 
L 540.683798 345.544481 
L 540.731387 343.450057 
L 541.35564 342.426116 
L 541.403229 340.378234 
L 542.027483 339.377564 
L 542.075071 337.376225 
L 542.699325 336.375556 
L 542.746914 334.42076 
L 543.371168 333.443361 
L 543.418756 331.511837 
L 544.700856 329.603583 
L 544.754043 458.550322 
L 544.882813 463.809655 
L 545.061971 465.112852 
L 545.386695 463.809655 
L 545.773004 453.826231 
L 546.240495 446.193217 
L 546.262889 442.842138 
L 546.73038 439.723772 
L 546.755574 436.791578 
L 546.920735 433.999012 
L 547.402222 431.346074 
L 547.427416 428.809493 
L 547.592578 426.365998 
L 548.074065 424.015588 
L 548.099259 421.758264 
L 548.250423 419.570754 
L 548.785098 417.453058 
L 548.967055 472.559695 
L 548.967055 467.533076 
L 549.41775 461.296345 
L 549.804059 452.034335 
L 550.27155 444.703849 
L 550.293944 441.469126 
L 550.761435 438.420575 
L 550.786629 435.558195 
L 550.95179 432.835443 
L 551.433277 430.229048 
L 551.458471 427.73901 
L 551.623632 425.342057 
L 552.10512 423.03819 
L 552.130314 420.804137 
L 552.281478 418.639898 
L 552.776962 416.545474 
L 552.824551 412.519524 
L 553.448804 410.588 
L 553.496393 406.864578 
L 554.120647 405.04941 
L 554.168236 401.558703 
L 554.792489 399.859891 
L 554.840078 396.555355 
L 555.464332 394.949629 
L 555.511921 391.807993 
L 556.136174 390.272081 
L 556.183763 387.270073 
L 556.808017 385.803976 
L 556.855606 382.941595 
L 557.479859 381.522041 
L 557.527448 378.752746 
L 558.151702 377.403006 
L 558.199291 374.726797 
L 558.823544 373.423599 
L 558.871133 370.840476 
L 559.495387 369.583821 
L 559.542976 367.093783 
L 560.167229 365.860399 
L 560.214818 363.440175 
L 560.839072 362.253335 
L 560.88666 359.902925 
L 561.510914 358.739356 
L 561.558503 356.45876 
L 562.182757 355.318462 
L 562.230345 353.08441 
L 562.854599 351.990655 
L 562.902188 349.803144 
L 563.526441 348.732661 
L 563.57403 346.591693 
L 564.198284 345.544481 
L 564.245873 343.450057 
L 564.870126 342.426116 
L 564.917715 340.378234 
L 565.541969 339.377564 
L 565.589558 337.376225 
L 566.213811 336.375556 
L 566.2614 334.42076 
L 566.885654 333.443361 
L 566.933243 331.511837 
L 567.557496 330.55771 
L 567.605085 328.649456 
L 568.229339 327.718601 
L 568.276928 325.85689 
L 568.901181 324.926035 
L 568.94877 323.110867 
L 569.573024 322.203283 
L 569.620612 320.388115 
L 570.244866 319.503802 
L 570.292455 317.735177 
L 570.916709 316.850865 
L 570.964297 315.105511 
L 571.588551 314.24447 
L 571.63614 312.522387 
L 572.260393 311.661346 
L 572.307982 309.985806 
L 572.932236 309.148036 
L 572.979825 307.472497 
L 573.604078 306.634727 
L 573.651667 305.00573 
L 574.275921 304.191232 
L 574.32351 302.562235 
L 574.947763 301.747736 
L 574.995352 300.142011 
L 575.619606 299.350784 
L 575.667195 297.76833 
L 576.949294 296.185876 
L 577.01088 463.809655 
L 577.131251 465.112852 
L 577.131251 463.809655 
L 577.635133 458.387422 
L 578.007446 449.823553 
L 578.488933 442.842138 
L 578.511328 439.723772 
L 578.978818 436.791578 
L 579.004012 433.999012 
L 579.169173 431.346074 
L 579.650661 428.809493 
L 579.675855 426.365998 
L 579.827019 424.015588 
L 580.322503 421.758264 
L 580.370092 417.453058 
L 580.994345 415.381905 
L 581.041934 411.425769 
L 581.666188 409.517516 
L 581.713777 405.840637 
L 582.33803 404.048741 
L 582.385619 400.581304 
L 583.009873 398.905765 
L 583.057462 395.6245 
L 583.681715 394.018774 
L 583.729304 390.92368 
L 584.353558 389.41104 
L 584.401147 386.455574 
L 585.0254 384.989477 
L 585.072989 382.127097 
L 585.697243 380.730814 
L 585.744832 377.98479 
L 586.369085 376.63505 
L 586.416674 373.982112 
L 587.040928 372.678915 
L 587.088516 370.119063 
L 587.71277 368.862408 
L 587.737964 367.605753 
L 588.384613 366.37237 
L 588.432201 467.533076 
L 588.56657 472.559695 
L 588.56657 467.533076 
L 589.056455 461.296345 
L 589.442764 452.034335 
L 589.910255 444.703849 
L 589.93265 441.469126 
L 590.40014 438.420575 
L 590.425334 435.558195 
L 590.590495 432.835443 
L 591.071982 430.229048 
L 591.097177 427.73901 
L 591.262338 425.342057 
L 591.743825 423.03819 
L 591.769019 420.804137 
L 591.920184 418.639898 
L 592.415667 416.545474 
L 592.463256 412.519524 
L 593.08751 410.588 
L 593.135099 406.864578 
L 593.759352 405.04941 
L 593.806941 401.558703 
L 594.431195 399.859891 
L 594.478784 396.555355 
L 595.103037 394.949629 
L 595.150626 391.807993 
L 595.77488 390.272081 
L 595.822469 387.270073 
L 596.446722 385.803976 
L 596.494311 382.941595 
L 597.118565 381.522041 
L 597.166153 378.752746 
L 597.790407 377.403006 
L 597.837996 374.726797 
L 598.46225 373.423599 
L 598.509838 370.840476 
L 599.134092 369.583821 
L 599.181681 367.093783 
L 599.805934 365.860399 
L 599.853523 363.440175 
L 600.477777 362.253335 
L 600.525366 359.902925 
L 601.149619 358.739356 
L 601.197208 356.45876 
L 601.821462 355.318462 
L 601.869051 353.08441 
L 602.493304 351.990655 
L 602.540893 349.803144 
L 603.165147 348.732661 
L 603.212736 346.591693 
L 603.836989 345.544481 
L 603.884578 343.450057 
L 604.508832 342.426116 
L 604.556421 340.378234 
L 605.180674 339.377564 
L 605.228263 337.376225 
L 605.852517 336.375556 
L 605.900105 334.42076 
L 606.524359 333.443361 
L 606.571948 331.511837 
L 607.196202 330.55771 
L 607.24379 328.649456 
L 607.868044 327.718601 
L 607.915633 325.85689 
L 608.539886 324.926035 
L 608.587475 323.110867 
L 609.211729 322.203283 
L 609.259318 320.388115 
L 609.883571 319.503802 
L 609.93116 317.735177 
L 610.555414 316.850865 
L 610.603003 315.105511 
L 611.227256 314.24447 
L 611.274845 312.522387 
L 612.556945 310.823576 
L 612.61853 463.809655 
L 612.738902 465.112852 
L 612.738902 463.809655 
L 613.242784 458.387422 
L 613.615096 449.823553 
L 614.096584 442.842138 
L 614.118978 439.723772 
L 614.586469 436.791578 
L 614.611663 433.999012 
L 614.776824 431.346074 
L 615.258311 428.809493 
L 615.283505 426.365998 
L 615.43467 424.015588 
L 615.930154 421.758264 
L 615.977742 417.453058 
L 616.601996 415.381905 
L 616.649585 411.425769 
L 617.273838 409.517516 
L 617.321427 405.840637 
L 617.945681 404.048741 
L 617.99327 400.581304 
L 618.617523 398.905765 
L 618.665112 395.6245 
L 619.289366 394.018774 
L 619.336955 390.92368 
L 619.961208 389.41104 
L 620.008797 386.455574 
L 620.633051 384.989477 
L 620.68064 382.127097 
L 621.304893 380.730814 
L 621.352482 377.98479 
L 621.976736 376.63505 
L 622.024325 373.982112 
L 622.648578 372.678915 
L 622.696167 370.119063 
L 623.359611 368.862408 
L 623.541569 472.559695 
L 623.541569 467.533076 
L 623.992263 461.296345 
L 624.378573 452.034335 
L 624.846063 444.703849 
L 624.868458 441.469126 
L 625.335948 438.420575 
L 625.361142 435.558195 
L 625.526303 432.835443 
L 626.007791 430.229048 
L 626.032985 427.73901 
L 626.198146 425.342057 
L 626.679633 423.03819 
L 626.704827 420.804137 
L 626.855992 418.639898 
L 627.351475 416.545474 
L 627.399064 412.519524 
L 628.023318 410.588 
L 628.070907 406.864578 
L 628.69516 405.04941 
L 628.742749 401.558703 
L 629.367003 399.859891 
L 629.414592 396.555355 
L 630.038845 394.949629 
L 630.086434 391.807993 
L 630.710688 390.272081 
L 630.758277 387.270073 
L 631.38253 385.803976 
L 631.430119 382.941595 
L 632.054373 381.522041 
L 632.101962 378.752746 
L 632.726215 377.403006 
L 632.773804 374.726797 
L 633.398058 373.423599 
L 633.445646 370.840476 
L 634.0699 369.583821 
L 634.117489 367.093783 
L 634.741743 365.860399 
L 634.789331 363.440175 
L 635.413585 362.253335 
L 635.461174 359.902925 
L 636.085427 358.739356 
L 636.133016 356.45876 
L 636.75727 355.318462 
L 636.804859 353.08441 
L 637.429112 351.990655 
L 637.476701 349.803144 
L 638.100955 348.732661 
L 638.148544 346.591693 
L 638.772797 345.544481 
L 638.820386 343.450057 
L 639.44464 342.426116 
L 639.492229 340.378234 
L 640.116482 339.377564 
L 640.164071 337.376225 
L 640.788325 336.375556 
L 640.835914 334.42076 
L 641.460167 333.443361 
L 641.507756 331.511837 
L 642.13201 330.55771 
L 642.179598 328.649456 
L 642.803852 327.718601 
L 642.851441 326.787746 
L 643.033398 480.006538 
L 643.033398 467.533076 
L 643.475695 461.296345 
L 643.862004 452.034335 
L 644.329494 444.703849 
L 644.351889 441.469126 
L 644.819379 438.420575 
L 644.844574 435.558195 
L 645.009735 432.835443 
L 645.491222 430.229048 
L 645.516416 427.73901 
L 645.681577 425.342057 
L 646.202255 423.03819 
L 646.384213 472.559695 
L 646.384213 467.533076 
L 652.419597 461.296345 
L 652.968269 456.316269 
L 653.150226 480.006538 
L 653.150226 467.533076 
L 653.738088 452.034335 
L 654.479914 435.558195 
L 654.505108 432.835443 
L 654.675868 430.229048 
L 654.701062 427.73901 
L 654.871822 425.342057 
L 654.897016 423.03819 
L 655.05378 420.804137 
L 655.078974 418.639898 
L 655.235737 416.545474 
L 655.288925 412.519524 
L 655.431691 410.588 
L 655.484879 406.864578 
L 655.627645 405.04941 
L 655.834797 398.184352 
L 656.044747 391.807993 
L 656.201511 388.759441 
L 656.447853 380.125758 
L 656.565425 378.752746 
L 656.898547 377.403006 
L 656.951735 374.726797 
L 657.57039 373.423599 
L 657.623577 370.840476 
L 658.242232 369.583821 
L 658.29542 367.093783 
L 658.914074 365.860399 
L 658.967262 363.440175 
L 659.585917 362.253335 
L 659.639104 359.902925 
L 660.257759 358.739356 
L 660.310947 356.45876 
L 660.929602 355.318462 
L 660.982789 353.08441 
L 661.601444 351.990655 
L 661.654632 349.803144 
L 662.273287 348.732661 
L 662.326474 346.591693 
L 662.945129 345.544481 
L 662.998317 343.450057 
L 663.616972 342.426116 
L 663.670159 340.378234 
L 664.288814 339.377564 
L 664.342002 337.376225 
L 664.960657 336.375556 
L 665.013844 334.42076 
L 665.632499 333.443361 
L 665.685687 331.511837 
L 666.304342 330.55771 
L 666.357529 328.649456 
L 666.976184 327.718601 
L 667.029372 325.85689 
L 667.648027 324.926035 
L 667.701214 323.110867 
L 668.319869 322.203283 
L 668.373057 320.388115 
L 668.991711 319.503802 
L 669.044899 317.735177 
L 669.663554 316.850865 
L 669.716741 315.105511 
L 670.335396 314.24447 
L 670.388584 312.522387 
L 671.007239 311.661346 
L 671.060426 309.985806 
L 671.679081 309.148036 
L 671.732269 307.472497 
L 672.350924 306.634727 
L 672.404111 305.00573 
L 673.022766 304.191232 
L 673.075954 302.562235 
L 673.694609 301.747736 
L 673.747796 300.142011 
L 674.366451 299.350784 
L 674.419639 297.76833 
L 675.038294 296.977103 
L 675.091481 295.394649 
L 675.710136 294.626693 
L 675.763324 293.090781 
L 676.381979 292.322826 
L 676.435166 290.786914 
L 677.093012 290.018959 
L 677.115407 467.533076 
L 677.277768 472.559695 
L 677.277768 467.533076 
L 677.73966 461.296345 
L 678.12597 452.034335 
L 678.59346 444.703849 
L 678.615855 441.469126 
L 679.083345 438.420575 
L 679.108539 435.558195 
L 679.2737 432.835443 
L 679.755188 430.229048 
L 679.780382 427.73901 
L 679.945543 425.342057 
L 680.42703 423.03819 
L 680.452224 420.804137 
L 680.603389 418.639898 
L 681.098872 416.545474 
L 681.146461 412.519524 
L 681.770715 410.588 
L 681.818304 406.864578 
L 682.442557 405.04941 
L 682.490146 401.558703 
L 683.1144 399.859891 
L 683.161989 396.555355 
L 683.786242 394.949629 
L 683.833831 391.807993 
L 684.458085 390.272081 
L 684.505674 387.270073 
L 685.129927 385.803976 
L 685.177516 382.941595 
L 685.80177 381.522041 
L 685.849359 378.752746 
L 686.473612 377.403006 
L 686.521201 374.726797 
L 687.145455 373.423599 
L 687.193044 370.840476 
L 687.817297 369.583821 
L 687.864886 367.093783 
L 688.48914 365.860399 
L 688.536728 363.440175 
L 689.160982 362.253335 
L 689.208571 359.902925 
L 689.832825 358.739356 
L 689.880413 356.45876 
L 690.504667 355.318462 
L 690.552256 353.08441 
L 691.176509 351.990655 
L 691.224098 349.803144 
L 691.848352 348.732661 
L 691.895941 346.591693 
L 692.520194 345.544481 
L 692.567783 343.450057 
L 693.192037 342.426116 
L 693.239626 340.378234 
L 693.863879 339.377564 
L 693.911468 337.376225 
L 694.535722 336.375556 
L 694.583311 334.42076 
L 695.207564 333.443361 
L 695.255153 331.511837 
L 695.879407 330.55771 
L 695.926996 328.649456 
L 696.551249 327.718601 
L 696.598838 325.85689 
L 697.223092 324.926035 
L 697.27068 323.110867 
L 697.894934 322.203283 
L 697.942523 320.388115 
L 698.566777 319.503802 
L 698.614365 317.735177 
L 699.238619 316.850865 
L 699.286208 315.105511 
L 699.910461 314.24447 
L 699.95805 312.522387 
L 700.582304 311.661346 
L 700.629893 309.985806 
L 701.254146 309.148036 
L 701.301735 307.472497 
L 701.925989 306.634727 
L 701.973578 305.00573 
L 702.597831 304.191232 
L 702.64542 302.562235 
L 703.269674 301.747736 
L 703.317263 300.142011 
L 703.941516 299.350784 
L 703.989105 297.76833 
L 704.613359 296.977103 
L 704.660948 295.394649 
L 705.285201 294.626693 
L 705.33279 293.090781 
L 705.957044 292.322826 
L 706.004632 290.786914 
L 706.628886 290.018959 
L 706.676475 288.506319 
L 707.300729 287.761635 
L 707.348317 286.272266 
L 707.972571 285.527582 
L 708.02016 284.038213 
L 708.644413 283.293529 
L 708.692002 281.850703 
L 709.316256 281.12929 
L 709.363845 279.686464 
L 709.988098 278.965051 
L 710.035687 277.522226 
L 710.659941 276.800813 
L 710.70753 275.40453 
L 711.331783 274.706388 
L 711.379372 273.310105 
L 712.003626 272.611964 
L 712.051215 271.21568 
L 712.675468 270.517539 
L 712.723057 269.121256 
L 713.347311 268.446386 
L 713.3949 267.096646 
L 714.019153 266.421775 
L 714.066742 265.072035 
L 714.690996 264.397165 
L 714.738584 263.047425 
L 715.362838 262.372555 
L 715.410427 261.046086 
L 716.034681 260.394487 
L 716.082269 259.091289 
L 716.706523 258.439691 
L 716.754112 257.136493 
L 717.378366 256.484894 
L 717.425954 255.181697 
L 718.050208 254.530098 
L 718.097797 253.226901 
L 718.72205 252.598573 
L 718.769639 251.341919 
L 720.051739 250.085264 
L 720.113324 463.809655 
L 720.233696 465.112852 
L 720.233696 463.809655 
L 720.737578 458.387422 
L 721.109891 449.823553 
L 721.591378 442.842138 
L 721.613772 439.723772 
L 722.081263 436.791578 
L 722.106457 433.999012 
L 722.271618 431.346074 
L 722.753105 428.809493 
L 722.778299 426.365998 
L 722.929464 424.015588 
L 723.424948 421.758264 
L 723.472537 417.453058 
L 724.09679 415.381905 
L 724.144379 411.425769 
L 724.768633 409.517516 
L 724.816221 405.840637 
L 725.440475 404.048741 
L 725.488064 400.581304 
L 726.112318 398.905765 
L 726.159906 395.6245 
L 726.78416 394.018774 
L 726.831749 390.92368 
L 727.456002 389.41104 
L 727.503591 386.455574 
L 728.127845 384.989477 
L 728.175434 382.127097 
L 728.799687 380.730814 
L 728.847276 377.98479 
L 729.47153 376.63505 
L 729.519119 373.982112 
L 730.143372 372.678915 
L 730.190961 370.119063 
L 730.815215 368.862408 
L 730.862804 366.37237 
L 731.487057 365.138986 
L 731.534646 362.718763 
L 732.1589 361.531922 
L 732.206489 359.181512 
L 732.830742 358.017943 
L 732.878331 355.737347 
L 733.502585 354.620321 
L 733.550173 352.386268 
L 734.174427 351.292513 
L 734.222016 349.128274 
L 734.84627 348.057791 
L 734.893858 345.940095 
L 735.518112 344.892882 
L 735.565701 342.821729 
L 736.189954 341.797788 
L 736.237543 339.749906 
L 736.861797 338.749237 
L 736.909386 336.747898 
L 737.533639 335.7705 
L 737.581228 333.815704 
L 738.205482 332.838305 
L 738.253071 330.930052 
L 738.877324 329.975925 
L 738.924913 328.090943 
L 739.549167 327.160088 
L 739.596756 325.298377 
L 740.221009 324.390793 
L 740.268598 322.575625 
L 740.892852 321.668041 
L 740.940441 319.876145 
L 741.564694 318.991832 
L 741.612283 317.223207 
L 742.236537 316.338894 
L 742.284125 314.616812 
L 742.908379 313.755771 
L 742.955968 312.033688 
L 743.580222 311.172647 
L 743.62781 309.497107 
L 744.252064 308.659337 
L 744.299653 306.983798 
L 744.923906 306.146028 
L 744.971495 304.517031 
L 745.595749 303.702533 
L 745.643338 302.073536 
L 746.267591 301.259037 
L 746.31518 299.676583 
L 746.939434 298.885356 
L 746.987023 297.302902 
L 747.611276 296.511675 
L 747.658865 294.952492 
L 748.283119 294.184537 
L 748.330708 292.648625 
L 748.954961 291.88067 
L 749.00255 290.344758 
L 749.626804 289.576802 
L 749.674393 288.087434 
L 750.298646 287.34275 
L 750.346235 285.853381 
L 750.970489 285.108697 
L 751.018078 283.619328 
L 751.642331 282.874644 
L 751.68992 281.431818 
L 752.314174 280.710405 
L 752.361762 279.267579 
L 752.986016 278.546166 
L 753.033605 277.103341 
L 753.657859 276.381928 
L 753.705447 274.985645 
L 754.329701 274.287503 
L 754.37729 272.89122 
L 755.001543 272.193079 
L 755.049132 270.796796 
L 755.673386 270.098654 
L 755.720975 268.725642 
L 756.345228 268.050772 
L 756.392817 266.701032 
L 757.017071 266.026162 
L 757.06466 264.676422 
L 757.688913 264.001551 
L 757.736502 262.651811 
L 758.360756 261.976941 
L 758.408345 260.650472 
L 759.032598 259.998873 
L 759.080187 258.695676 
L 759.704441 258.044077 
L 759.75203 256.74088 
L 760.376283 256.089281 
L 760.423872 254.786083 
L 761.048126 254.134485 
L 761.095714 252.854558 
L 761.719968 252.226231 
L 761.767557 250.969576 
L 762.391811 250.341249 
L 762.439399 249.084594 
L 763.063653 248.456267 
L 763.111242 247.199612 
L 763.735495 246.571285 
L 763.783084 245.31463 
L 764.407338 244.686303 
L 764.454927 243.476191 
L 765.07918 242.871135 
L 765.126769 241.661023 
L 765.751023 241.055967 
L 765.798612 239.845855 
L 766.422865 239.240799 
L 766.470454 238.030687 
L 767.094708 237.425631 
L 767.142297 236.215519 
L 767.76655 235.610463 
L 767.814139 234.423622 
L 768.438393 233.841838 
L 768.485982 232.678268 
L 769.110235 232.096484 
L 769.157824 230.932915 
L 769.782078 230.35113 
L 769.829666 229.187561 
L 770.45392 228.605776 
L 770.501509 227.442207 
L 771.125763 226.860422 
L 771.173351 225.696853 
L 771.797605 225.115069 
L 771.845194 223.974771 
L 772.469447 223.416258 
L 772.517036 222.299231 
L 773.14129 221.740718 
L 773.188879 220.623692 
L 773.813132 220.065178 
L 773.860721 218.948152 
L 774.484975 218.389639 
L 774.532564 217.272612 
L 775.156817 216.714099 
L 775.204406 215.597073 
L 775.82866 215.038559 
L 775.876249 213.921533 
L 776.500502 213.36302 
L 776.548091 212.292536 
L 777.172345 211.757294 
L 777.219934 210.686811 
L 777.844187 210.151569 
L 777.891776 209.081085 
L 778.51603 208.545843 
L 778.563618 207.47536 
L 779.187872 206.940118 
L 779.235461 205.869634 
L 779.859715 205.334392 
L 779.907303 204.263909 
L 780.531557 203.728667 
L 780.579146 202.658183 
L 781.2034 202.122941 
L 781.250988 201.075729 
L 781.875242 200.563759 
L 781.922831 199.539818 
L 782.547084 199.027847 
L 782.594673 198.003906 
L 783.218927 197.491936 
L 783.266516 196.467995 
L 783.92996 195.956024 
L 784.111918 472.559695 
L 784.111918 467.533076 
L 784.562612 461.296345 
L 784.948921 452.034335 
L 785.416412 444.703849 
L 785.438806 441.469126 
L 785.906297 438.420575 
L 785.931491 435.558195 
L 786.096652 432.835443 
L 786.578139 430.229048 
L 786.603333 427.73901 
L 786.768495 425.342057 
L 787.249982 423.03819 
L 787.275176 420.804137 
L 787.42634 418.639898 
L 787.921824 416.545474 
L 787.969413 412.519524 
L 788.593667 410.588 
L 788.641255 406.864578 
L 789.265509 405.04941 
L 789.313098 401.558703 
L 789.937352 399.859891 
L 789.98494 396.555355 
L 790.609194 394.949629 
L 790.656783 391.807993 
L 791.320227 390.272081 
L 791.502185 472.559695 
L 791.502185 467.533076 
L 791.952879 461.296345 
L 792.339188 452.034335 
L 792.806679 444.703849 
L 792.829073 441.469126 
L 793.296564 438.420575 
L 793.321758 435.558195 
L 793.486919 432.835443 
L 793.968406 430.229048 
L 793.9936 427.73901 
L 794.158762 425.342057 
L 794.640249 423.03819 
L 794.665443 420.804137 
L 794.816607 418.639898 
L 795.312091 416.545474 
L 795.35968 412.519524 
L 795.983934 410.588 
L 796.031523 406.864578 
L 796.655776 405.04941 
L 796.703365 401.558703 
L 797.327619 399.859891 
L 797.375207 396.555355 
L 797.999461 394.949629 
L 798.04705 391.807993 
L 798.671304 390.272081 
L 798.718892 387.270073 
L 799.343146 385.803976 
L 799.390735 382.941595 
L 800.014988 381.522041 
L 800.062577 378.752746 
L 800.686831 377.403006 
L 800.73442 374.726797 
L 801.358673 373.423599 
L 801.406262 370.840476 
L 802.030516 369.583821 
L 802.078105 367.093783 
L 802.702358 365.860399 
L 802.749947 363.440175 
L 803.374201 362.253335 
L 803.42179 359.902925 
L 804.046043 358.739356 
L 804.093632 356.45876 
L 804.717886 355.318462 
L 804.765475 353.08441 
L 805.389728 351.990655 
L 805.437317 349.803144 
L 806.061571 348.732661 
L 806.109159 346.591693 
L 806.733413 345.544481 
L 806.781002 343.450057 
L 807.405256 342.426116 
L 807.452844 340.378234 
L 808.077098 339.377564 
L 808.124687 337.376225 
L 808.74894 336.375556 
L 808.796529 334.42076 
L 809.420783 333.443361 
L 809.468372 331.511837 
L 810.092625 330.55771 
L 810.140214 328.649456 
L 810.764468 327.718601 
L 810.812057 325.85689 
L 811.43631 324.926035 
L 811.483899 323.110867 
L 812.108153 322.203283 
L 812.155742 320.388115 
L 812.779995 319.503802 
L 812.827584 317.735177 
L 813.451838 316.850865 
L 813.499427 315.105511 
L 814.12368 314.24447 
L 814.171269 312.522387 
L 814.795523 311.661346 
L 814.843112 309.985806 
L 815.467365 309.148036 
L 815.514954 307.472497 
L 816.139208 306.634727 
L 816.186796 305.00573 
L 816.81105 304.191232 
L 816.858639 302.562235 
L 817.482893 301.747736 
L 817.530481 300.142011 
L 818.154735 299.350784 
L 818.202324 297.76833 
L 818.826577 296.977103 
L 818.874166 295.394649 
L 819.49842 294.626693 
L 819.546009 293.090781 
L 820.170262 292.322826 
L 820.217851 290.786914 
L 820.842105 290.018959 
L 820.889694 288.506319 
L 821.513947 287.761635 
L 821.561536 286.272266 
L 822.18579 285.527582 
L 822.233379 284.038213 
L 822.857632 283.293529 
L 822.905221 281.850703 
L 823.529475 281.12929 
L 823.577064 279.686464 
L 824.201317 278.965051 
L 824.248906 277.522226 
L 824.87316 276.800813 
L 824.920748 275.40453 
L 825.545002 274.706388 
L 825.592591 273.310105 
L 826.216845 272.611964 
L 826.264433 271.21568 
L 826.888687 270.517539 
L 826.936276 269.121256 
L 827.560529 268.446386 
L 827.608118 267.096646 
L 828.232372 266.421775 
L 828.279961 265.072035 
L 828.904214 264.397165 
L 828.951803 263.047425 
L 829.576057 262.372555 
L 829.623646 261.046086 
L 830.247899 260.394487 
L 830.295488 259.091289 
L 830.919742 258.439691 
L 830.967331 257.136493 
L 831.591584 256.484894 
L 831.639173 255.181697 
L 832.263427 254.530098 
L 832.311016 253.226901 
L 832.935269 252.598573 
L 832.982858 251.341919 
L 833.607112 250.713591 
L 833.6547 249.456936 
L 834.278954 248.828609 
L 834.326543 247.571954 
L 834.950797 246.943627 
L 834.998385 245.686972 
L 835.622639 245.058645 
L 835.670228 243.825261 
L 836.294481 243.220205 
L 836.34207 242.010094 
L 836.966324 241.405038 
L 837.013913 240.194926 
L 837.638166 239.58987 
L 837.685755 238.379758 
L 838.310009 237.774702 
L 838.357598 236.56459 
L 838.981851 235.959534 
L 839.02944 234.749422 
L 839.653694 234.167637 
L 839.701283 233.004068 
L 840.325536 232.422283 
L 840.373125 231.258714 
L 840.997379 230.676929 
L 841.044968 229.51336 
L 841.669221 228.931576 
L 841.71681 227.768006 
L 842.341064 227.186222 
L 842.388652 226.022653 
L 843.012906 225.440868 
L 843.060495 224.30057 
L 843.684749 223.742057 
L 843.732337 222.625031 
L 844.356591 222.066517 
L 844.40418 220.949491 
L 845.028434 220.390978 
L 845.076022 219.273951 
L 845.700276 218.715438 
L 845.747865 217.598412 
L 846.372118 217.039898 
L 846.419707 215.922872 
L 847.043961 215.364359 
L 847.09155 214.247332 
L 847.715803 213.688819 
L 847.763392 212.618335 
L 848.387646 212.083094 
L 848.435235 211.01261 
L 849.059488 210.477368 
L 849.107077 209.406884 
L 849.731331 208.871643 
L 849.77892 207.801159 
L 850.403173 207.265917 
L 850.450762 206.195433 
L 851.075016 205.660192 
L 851.122605 204.589708 
L 851.746858 204.054466 
L 851.794447 202.983982 
L 852.418701 202.448741 
L 852.466289 201.378257 
L 853.090543 200.866287 
L 853.138132 199.842346 
L 853.762386 199.330375 
L 853.809974 198.306434 
L 854.434228 197.794464 
L 854.481817 196.770523 
L 855.10607 196.258552 
L 855.153659 195.234612 
L 855.777913 194.722641 
L 855.825502 193.6987 
L 856.449755 193.18673 
L 856.497344 192.162789 
L 857.121598 191.650818 
L 857.169187 190.626878 
L 857.79344 190.114907 
L 857.841029 189.090966 
L 858.465283 188.578996 
L 858.512872 187.601598 
L 859.137125 187.112899 
L 859.184714 186.1355 
L 859.808968 185.646801 
L 859.856557 184.669403 
L 860.48081 184.180704 
L 860.528399 183.203306 
L 861.152653 182.714607 
L 861.200241 181.737209 
L 861.824495 181.24851 
L 861.872084 180.271112 
L 862.496338 179.782413 
L 862.543926 178.805014 
L 863.16818 178.316315 
L 863.215769 177.338917 
L 863.840022 176.850218 
L 863.887611 175.87282 
L 864.511865 175.384121 
L 864.559454 174.406723 
L 865.183707 173.918024 
L 865.231296 172.987168 
L 865.85555 172.521741 
L 865.903139 171.590885 
L 866.527392 171.125458 
L 866.574981 170.194602 
L 867.199235 169.729175 
L 867.246824 168.798319 
L 867.871077 168.332892 
L 867.918666 167.402036 
L 868.54292 166.936609 
L 868.590509 166.005753 
L 869.214762 165.540326 
L 869.262351 164.60947 
L 869.886605 164.144042 
L 869.934193 163.213187 
L 870.558447 162.747759 
L 870.606036 161.816904 
L 871.23029 161.351476 
L 871.277878 160.420621 
L 871.902132 159.955193 
L 871.949721 159.024338 
L 872.573975 158.55891 
L 872.621563 157.651326 
L 873.245817 157.20917 
L 873.293406 156.324857 
L 873.917659 155.882701 
L 873.965248 154.998389 
L 874.589502 154.556232 
L 874.637091 153.67192 
L 875.261344 153.229763 
L 875.308933 152.345451 
L 875.933187 151.903294 
L 875.980776 151.018982 
L 876.605029 150.576826 
L 876.652618 149.692513 
L 877.276872 149.250357 
L 877.324461 148.366044 
L 877.948714 147.923888 
L 877.996303 147.039575 
L 878.620557 146.597419 
L 878.668146 145.713106 
L 879.292399 145.27095 
L 879.339988 144.386637 
L 879.964242 143.944481 
L 880.01183 143.060169 
L 880.636084 142.618012 
L 880.683673 141.7337 
L 881.307927 141.291543 
L 881.355515 140.407231 
L 881.979769 139.988346 
L 882.027358 139.150576 
L 882.651611 138.731691 
L 882.6992 137.893921 
L 883.323454 137.475036 
L 883.371043 136.637267 
L 883.995296 136.218382 
L 884.042885 135.380612 
L 884.667139 134.961727 
L 884.714728 134.123957 
L 885.338981 133.705072 
L 885.38657 132.867302 
L 886.010824 132.448417 
L 886.058413 131.610648 
L 886.682666 131.191763 
L 886.730255 130.353993 
L 887.354509 129.935108 
L 887.402098 129.097338 
L 888.026351 128.678453 
L 888.07394 127.840683 
L 888.698194 127.421798 
L 888.745782 126.584029 
L 889.370036 126.165144 
L 889.417625 125.327374 
L 890.041879 124.908489 
L 890.089467 124.070719 
L 890.713721 123.651834 
L 890.76131 122.814064 
L 891.385563 122.395179 
L 891.433152 121.55741 
L 892.057406 121.138525 
L 892.104995 120.324026 
L 892.729248 119.928413 
L 892.776837 119.137186 
L 893.401091 118.741572 
L 893.44868 117.950345 
L 894.072933 117.554732 
L 894.120522 116.763505 
L 894.744776 116.367891 
L 894.792365 115.576664 
L 895.416618 115.18105 
L 895.464207 114.389823 
L 896.088461 113.99421 
L 896.13605 113.202983 
L 896.760303 112.807369 
L 896.807892 112.016142 
L 897.432146 111.620529 
L 897.479734 110.829302 
L 898.103988 110.433688 
L 898.151577 109.642461 
L 898.775831 109.246848 
L 898.823419 108.45562 
L 899.447673 108.060007 
L 899.495262 107.26878 
L 900.119515 106.873166 
L 900.167104 106.081939 
L 900.791358 105.686326 
L 900.838947 104.895099 
L 901.4632 104.499485 
L 901.510789 103.708258 
L 902.135043 103.312645 
L 902.182632 102.521418 
L 902.806885 102.125804 
L 902.854474 101.334577 
L 903.478728 100.938963 
L 903.526317 100.147736 
L 904.15057 99.752123 
L 904.198159 98.960896 
L 904.822413 98.588554 
L 904.870002 97.843869 
L 905.494255 97.471527 
L 905.541844 96.726843 
L 906.166098 96.354501 
L 906.213687 95.609816 
L 906.83794 95.237474 
L 906.885529 94.49279 
L 907.509783 94.120448 
L 907.557371 93.375764 
L 908.181625 93.003421 
L 908.229214 92.258737 
L 908.853468 91.886395 
L 908.901056 91.141711 
L 909.52531 90.769369 
L 909.572899 90.024684 
L 910.197152 89.652342 
L 910.244741 89.28 
L 910.426699 480.006538 
L 910.426699 467.533076 
L 910.868995 461.296345 
L 911.255304 452.034335 
L 911.722795 444.703849 
L 911.745189 441.469126 
L 912.21268 438.420575 
L 912.237874 435.558195 
L 912.403035 432.835443 
L 912.884522 430.229048 
L 912.909716 427.73901 
L 913.074878 425.342057 
L 913.556365 423.03819 
L 913.581559 420.804137 
L 913.732723 418.639898 
L 914.228207 416.545474 
L 914.275796 412.519524 
L 914.90005 410.588 
L 914.947639 406.864578 
L 915.571892 405.04941 
L 915.619481 401.558703 
L 916.243735 399.859891 
L 916.291323 396.555355 
L 916.915577 394.949629 
L 916.963166 391.807993 
L 917.58742 390.272081 
L 917.635008 387.270073 
L 918.259262 385.803976 
L 918.306851 382.941595 
L 918.931104 381.522041 
L 918.978693 378.752746 
L 919.602947 377.403006 
L 919.650536 374.726797 
L 920.274789 373.423599 
L 920.322378 370.840476 
L 920.946632 369.583821 
L 920.994221 367.093783 
L 921.618474 365.860399 
L 921.666063 363.440175 
L 922.290317 362.253335 
L 922.337906 359.902925 
L 922.962159 358.739356 
L 923.009748 356.45876 
L 923.634002 355.318462 
L 923.681591 353.08441 
L 924.305844 351.990655 
L 924.353433 349.803144 
L 924.977687 348.732661 
L 925.025275 346.591693 
L 925.649529 345.544481 
L 925.697118 343.450057 
L 926.321372 342.426116 
L 926.36896 340.378234 
L 926.993214 339.377564 
L 927.040803 337.376225 
L 927.665056 336.375556 
L 927.712645 334.42076 
L 928.336899 333.443361 
L 928.384488 331.511837 
L 929.008741 330.55771 
L 929.05633 328.649456 
L 929.680584 327.718601 
L 929.728173 325.85689 
L 930.352426 324.926035 
L 930.400015 323.110867 
L 931.024269 322.203283 
L 931.071858 320.388115 
L 931.696111 319.503802 
L 931.7437 317.735177 
L 932.367954 316.850865 
L 932.415543 315.105511 
L 933.039796 314.24447 
L 933.087385 312.522387 
L 933.711639 311.661346 
L 933.759227 309.985806 
L 934.383481 309.148036 
L 934.43107 307.472497 
L 935.055324 306.634727 
L 935.102912 305.00573 
L 935.727166 304.191232 
L 935.774755 302.562235 
L 936.399009 301.747736 
L 936.446597 300.142011 
L 937.070851 299.350784 
L 937.11844 297.76833 
L 937.742693 296.977103 
L 937.790282 295.394649 
L 938.414536 294.626693 
L 938.462125 293.090781 
L 939.086378 292.322826 
L 939.133967 290.786914 
L 939.758221 290.018959 
L 939.80581 288.506319 
L 940.430063 287.761635 
L 940.477652 286.272266 
L 941.101906 285.527582 
L 941.149495 284.038213 
L 941.773748 283.293529 
L 941.821337 282.572116 
L 942.003294 480.006538 
L 942.003294 467.533076 
L 942.445591 461.296345 
L 942.8319 452.034335 
L 943.29939 444.703849 
L 943.321785 441.469126 
L 943.789276 438.420575 
L 943.81447 435.558195 
L 943.979631 432.835443 
L 944.461118 430.229048 
L 944.486312 427.73901 
L 944.651473 425.342057 
L 945.132961 423.03819 
L 945.158155 420.804137 
L 945.309319 418.639898 
L 945.804803 416.545474 
L 945.852392 412.519524 
L 946.476645 410.588 
L 946.524234 406.864578 
L 947.148488 405.04941 
L 947.196077 401.558703 
L 947.82033 399.859891 
L 947.867919 396.555355 
L 948.492173 394.949629 
L 948.539762 391.807993 
L 949.164015 390.272081 
L 949.211604 387.270073 
L 949.835858 385.803976 
L 949.883447 382.941595 
L 950.5077 381.522041 
L 950.555289 378.752746 
L 951.179543 377.403006 
L 951.227132 374.726797 
L 951.851385 373.423599 
L 951.898974 370.840476 
L 952.523228 369.583821 
L 952.570816 367.093783 
L 953.19507 365.860399 
L 953.242659 363.440175 
L 953.866913 362.253335 
L 953.914501 359.902925 
L 954.538755 358.739356 
L 954.586344 356.45876 
L 955.210597 355.318462 
L 955.258186 353.08441 
L 955.88244 351.990655 
L 955.930029 349.803144 
L 956.554282 348.732661 
L 956.601871 346.591693 
L 957.226125 345.544481 
L 957.273714 343.450057 
L 957.897967 342.426116 
L 957.945556 340.378234 
L 958.56981 339.377564 
L 958.617399 337.376225 
L 959.241652 336.375556 
L 959.289241 334.42076 
L 959.913495 333.443361 
L 959.961084 331.511837 
L 960.585337 330.55771 
L 960.632926 328.649456 
L 961.25718 327.718601 
L 961.304768 325.85689 
L 961.929022 324.926035 
L 961.976611 323.110867 
L 962.600865 322.203283 
L 962.648453 320.388115 
L 963.272707 319.503802 
L 963.320296 317.735177 
L 963.944549 316.850865 
L 963.992138 315.105511 
L 964.616392 314.24447 
L 964.663981 312.522387 
L 965.288234 311.661346 
L 965.335823 309.985806 
L 965.960077 309.148036 
L 966.007666 307.472497 
L 966.631919 306.634727 
L 966.679508 305.00573 
L 967.303762 304.191232 
L 967.351351 302.562235 
L 967.975604 301.747736 
L 968.023193 300.142011 
L 968.647447 299.350784 
L 968.695036 297.76833 
L 969.319289 296.977103 
L 969.366878 295.394649 
L 969.991132 294.626693 
L 970.038721 293.090781 
L 970.662974 292.322826 
L 970.710563 290.786914 
L 971.334817 290.018959 
L 971.382405 288.506319 
L 972.006659 287.761635 
L 972.054248 286.272266 
L 972.678502 285.527582 
L 972.72609 284.038213 
L 973.350344 283.293529 
L 973.397933 281.850703 
L 974.022186 281.12929 
L 974.069775 279.686464 
L 974.694029 278.965051 
L 974.741618 277.522226 
L 975.365871 276.800813 
L 975.41346 275.40453 
L 976.037714 274.706388 
L 976.085303 273.310105 
L 976.709556 272.611964 
L 976.757145 271.21568 
L 977.381399 270.517539 
L 977.428988 269.121256 
L 978.053241 268.446386 
L 978.10083 267.096646 
L 978.725084 266.421775 
L 978.772673 265.072035 
L 979.396926 264.397165 
L 979.444515 263.047425 
L 980.068769 262.372555 
L 980.116357 261.046086 
L 980.765805 260.394487 
L 980.7882 467.533076 
L 980.950562 472.559695 
L 980.950562 467.533076 
L 981.412454 461.296345 
L 981.798763 452.034335 
L 982.266253 444.703849 
L 982.288648 441.469126 
L 982.756138 438.420575 
L 982.781333 435.558195 
L 982.946494 432.835443 
L 983.427981 430.229048 
L 983.453175 427.73901 
L 983.618336 425.342057 
L 984.099823 423.03819 
L 984.125017 420.804137 
L 984.276182 418.639898 
L 984.771666 416.545474 
L 984.819255 412.519524 
L 985.443508 410.588 
L 985.491097 408.703017 
L 985.673054 480.006538 
L 985.673054 467.533076 
L 986.115351 461.296345 
L 986.50166 452.034335 
L 986.969151 444.703849 
L 986.991545 441.469126 
L 987.459036 438.420575 
L 987.48423 435.558195 
L 987.649391 432.835443 
L 988.130878 430.229048 
L 988.156072 427.73901 
L 988.321234 425.342057 
L 988.802721 423.03819 
L 988.827915 420.804137 
L 988.979079 418.639898 
L 989.474563 416.545474 
L 989.522152 412.519524 
L 990.146406 410.588 
L 990.193994 406.864578 
L 990.818248 405.04941 
L 990.865837 401.558703 
L 991.49009 399.859891 
L 991.537679 396.555355 
L 992.161933 394.949629 
L 992.209522 391.807993 
L 992.833775 390.272081 
L 992.881364 387.270073 
L 993.505618 385.803976 
L 993.553207 382.941595 
L 994.17746 381.522041 
L 994.225049 378.752746 
L 994.849303 377.403006 
L 994.896892 374.726797 
L 995.521145 373.423599 
L 995.568734 370.840476 
L 996.192988 369.583821 
L 996.218182 368.327166 
L 996.218182 368.327166 
" clip-path="url(#p22508bfaea)" style="fill: none; stroke: #1f77b4; stroke-width: 1.5; stroke-linecap: square"/>
   </g>
   <g id="patch_3">
    <path d="M 144 512.64 
L 144 69.12 
" style="fill: none; stroke: #000000; stroke-width: 0.8; stroke-linejoin: miter; stroke-linecap: square"/>
   </g>
   <g id="patch_4">
    <path d="M 1036.8 512.64 
L 1036.8 69.12 
" style="fill: none; stroke: #000000; stroke-width: 0.8; stroke-linejoin: miter; stroke-linecap: square"/>
   </g>
   <g id="patch_5">
    <path d="M 144 512.64 
L 1036.8 512.64 
" style="fill: none; stroke: #000000; stroke-width: 0.8; stroke-linejoin: miter; stroke-linecap: square"/>
   </g>
   <g id="patch_6">
    <path d="M 144 69.12 
L 1036.8 69.12 
" style="fill: none; stroke: #000000; stroke-width: 0.8; stroke-linejoin: miter; stroke-linecap: square"/>
   </g>
   <g id="text_18">
    <!-- Graph of congestion window vs Time result/channelbw10 -->
    <g transform="translate(404.362891 63.12) scale(0.13 -0.13)">
     <defs>
      <path id="DejaVuSans-47" d="M 3809 666 
L 3809 1919 
L 2778 1919 
L 2778 2438 
L 4434 2438 
L 4434 434 
Q 4069 175 3628 42 
Q 3188 -91 2688 -91 
Q 1594 -91 976 548 
Q 359 1188 359 2328 
Q 359 3472 976 4111 
Q 1594 4750 2688 4750 
Q 3144 4750 3555 4637 
Q 3966 4525 4313 4306 
L 4313 3634 
Q 3963 3931 3569 4081 
Q 3175 4231 2741 4231 
Q 1884 4231 1454 3753 
Q 1025 3275 1025 2328 
Q 1025 1384 1454 906 
Q 1884 428 2741 428 
Q 3075 428 3337 486 
Q 3600 544 3809 666 
z
" transform="scale(0.015625)"/>
      <path id="DejaVuSans-72" d="M 2631 2963 
Q 2534 3019 2420 3045 
Q 2306 3072 2169 3072 
Q 1681 3072 1420 2755 
Q 1159 2438 1159 1844 
L 1159 0 
L 581 0 
L 581 3500 
L 1159 3500 
L 1159 2956 
Q 1341 3275 1631 3429 
Q 1922 3584 2338 3584 
Q 2397 3584 2469 3576 
Q 2541 3569 2628 3553 
L 2631 2963 
z
" transform="scale(0.015625)"/>
      <path id="DejaVuSans-61" d="M 2194 1759 
Q 1497 1759 1228 1600 
Q 959 1441 959 1056 
Q 959 750 1161 570 
Q 1363 391 1709 391 
Q 2188 391 2477 730 
Q 2766 1069 2766 1631 
L 2766 1759 
L 2194 1759 
z
M 3341 1997 
L 3341 0 
L 2766 0 
L 2766 531 
Q 2569 213 2275 61 
Q 1981 -91 1556 -91 
Q 1019 -91 701 211 
Q 384 513 384 1019 
Q 384 1609 779 1909 
Q 1175 2209 1959 2209 
L 2766 2209 
L 2766 2266 
Q 2766 2663 2505 2880 
Q 2244 3097 1772 3097 
Q 1472 3097 1187 3025 
Q 903 2953 641 2809 
L 641 3341 
Q 956 3463 1253 3523 
Q 1550 3584 1831 3584 
Q 2591 3584 2966 3190 
Q 3341 2797 3341 1997 
z
" transform="scale(0.015625)"/>
      <path id="DejaVuSans-70" d="M 1159 525 
L 1159 -1331 
L 581 -1331 
L 581 3500 
L 1159 3500 
L 1159 2969 
Q 1341 3281 1617 3432 
Q 1894 3584 2278 3584 
Q 2916 3584 3314 3078 
Q 3713 2572 3713 1747 
Q 3713 922 3314 415 
Q 2916 -91 2278 -91 
Q 1894 -91 1617 61 
Q 1341 213 1159 525 
z
M 3116 1747 
Q 3116 2381 2855 2742 
Q 2594 3103 2138 3103 
Q 1681 3103 1420 2742 
Q 1159 2381 1159 1747 
Q 1159 1113 1420 752 
Q 1681 391 2138 391 
Q 2594 391 2855 752 
Q 3116 1113 3116 1747 
z
" transform="scale(0.015625)"/>
      <path id="DejaVuSans-68" d="M 3513 2113 
L 3513 0 
L 2938 0 
L 2938 2094 
Q 2938 2591 2744 2837 
Q 2550 3084 2163 3084 
Q 1697 3084 1428 2787 
Q 1159 2491 1159 1978 
L 1159 0 
L 581 0 
L 581 4863 
L 1159 4863 
L 1159 2956 
Q 1366 3272 1645 3428 
Q 1925 3584 2291 3584 
Q 2894 3584 3203 3211 
Q 3513 2838 3513 2113 
z
" transform="scale(0.015625)"/>
      <path id="DejaVuSans-66" d="M 2375 4863 
L 2375 4384 
L 1825 4384 
Q 1516 4384 1395 4259 
Q 1275 4134 1275 3809 
L 1275 3500 
L 2222 3500 
L 2222 3053 
L 1275 3053 
L 1275 0 
L 697 0 
L 697 3053 
L 147 3053 
L 147 3500 
L 697 3500 
L 697 3744 
Q 697 4328 969 4595 
Q 1241 4863 1831 4863 
L 2375 4863 
z
" transform="scale(0.015625)"/>
      <path id="DejaVuSans-76" d="M 191 3500 
L 800 3500 
L 1894 563 
L 2988 3500 
L 3597 3500 
L 2284 0 
L 1503 0 
L 191 3500 
z
" transform="scale(0.015625)"/>
      <path id="DejaVuSans-75" d="M 544 1381 
L 544 3500 
L 1119 3500 
L 1119 1403 
Q 1119 906 1312 657 
Q 1506 409 1894 409 
Q 2359 409 2629 706 
Q 2900 1003 2900 1516 
L 2900 3500 
L 3475 3500 
L 3475 0 
L 2900 0 
L 2900 538 
Q 2691 219 2414 64 
Q 2138 -91 1772 -91 
Q 1169 -91 856 284 
Q 544 659 544 1381 
z
M 1991 3584 
L 1991 3584 
z
" transform="scale(0.015625)"/>
      <path id="DejaVuSans-6c" d="M 603 4863 
L 1178 4863 
L 1178 0 
L 603 0 
L 603 4863 
z
" transform="scale(0.015625)"/>
      <path id="DejaVuSans-2f" d="M 1625 4666 
L 2156 4666 
L 531 -594 
L 0 -594 
L 1625 4666 
z
" transform="scale(0.015625)"/>
      <path id="DejaVuSans-62" d="M 3116 1747 
Q 3116 2381 2855 2742 
Q 2594 3103 2138 3103 
Q 1681 3103 1420 2742 
Q 1159 2381 1159 1747 
Q 1159 1113 1420 752 
Q 1681 391 2138 391 
Q 2594 391 2855 752 
Q 3116 1113 3116 1747 
z
M 1159 2969 
Q 1341 3281 1617 3432 
Q 1894 3584 2278 3584 
Q 2916 3584 3314 3078 
Q 3713 2572 3713 1747 
Q 3713 922 3314 415 
Q 2916 -91 2278 -91 
Q 1894 -91 1617 61 
Q 1341 213 1159 525 
L 1159 0 
L 581 0 
L 581 4863 
L 1159 4863 
L 1159 2969 
z
" transform="scale(0.015625)"/>
     </defs>
     <use xlink:href="#DejaVuSans-47"/>
     <use xlink:href="#DejaVuSans-72" x="77.490234"/>
     <use xlink:href="#DejaVuSans-61" x="118.603516"/>
     <use xlink:href="#DejaVuSans-70" x="179.882812"/>
     <use xlink:href="#DejaVuSans-68" x="243.359375"/>
     <use xlink:href="#DejaVuSans-20" x="306.738281"/>
     <use xlink:href="#DejaVuSans-6f" x="338.525391"/>
     <use xlink:href="#DejaVuSans-66" x="399.707031"/>
     <use xlink:href="#DejaVuSans-20" x="434.912109"/>
     <use xlink:href="#DejaVuSans-63" x="466.699219"/>
     <use xlink:href="#DejaVuSans-6f" x="521.679688"/>
     <use xlink:href="#DejaVuSans-6e" x="582.861328"/>
     <use xlink:href="#DejaVuSans-67" x="646.240234"/>
     <use xlink:href="#DejaVuSans-65" x="709.716797"/>
     <use xlink:href="#DejaVuSans-73" x="771.240234"/>
     <use xlink:href="#DejaVuSans-74" x="823.339844"/>
     <use xlink:href="#DejaVuSans-69" x="862.548828"/>
     <use xlink:href="#DejaVuSans-6f" x="890.332031"/>
     <use xlink:href="#DejaVuSans-6e" x="951.513672"/>
     <use xlink:href="#DejaVuSans-20" x="1014.892578"/>
     <use xlink:href="#DejaVuSans-77" x="1046.679688"/>
     <use xlink:href="#DejaVuSans-69" x="1128.466797"/>
     <use xlink:href="#DejaVuSans-6e" x="1156.25"/>
     <use xlink:href="#DejaVuSans-64" x="1219.628906"/>
     <use xlink:href="#DejaVuSans-6f" x="1283.105469"/>
     <use xlink:href="#DejaVuSans-77" x="1344.287109"/>
     <use xlink:href="#DejaVuSans-20" x="1426.074219"/>
     <use xlink:href="#DejaVuSans-76" x="1457.861328"/>
     <use xlink:href="#DejaVuSans-73" x="1517.041016"/>
     <use xlink:href="#DejaVuSans-20" x="1569.140625"/>
     <use xlink:href="#DejaVuSans-54" x="1600.927734"/>
     <use xlink:href="#DejaVuSans-69" x="1658.886719"/>
     <use xlink:href="#DejaVuSans-6d" x="1686.669922"/>
     <use xlink:href="#DejaVuSans-65" x="1784.082031"/>
     <use xlink:href="#DejaVuSans-20" x="1845.605469"/>
     <use xlink:href="#DejaVuSans-72" x="1877.392578"/>
     <use xlink:href="#DejaVuSans-65" x="1916.255859"/>
     <use xlink:href="#DejaVuSans-73" x="1977.779297"/>
     <use xlink:href="#DejaVuSans-75" x="2029.878906"/>
     <use xlink:href="#DejaVuSans-6c" x="2093.257812"/>
     <use xlink:href="#DejaVuSans-74" x="2121.041016"/>
     <use xlink:href="#DejaVuSans-2f" x="2160.25"/>
     <use xlink:href="#DejaVuSans-63" x="2193.941406"/>
     <use xlink:href="#DejaVuSans-68" x="2248.921875"/>
     <use xlink:href="#DejaVuSans-61" x="2312.300781"/>
     <use xlink:href="#DejaVuSans-6e" x="2373.580078"/>
     <use xlink:href="#DejaVuSans-6e" x="2436.958984"/>
     <use xlink:href="#DejaVuSans-65" x="2500.337891"/>
     <use xlink:href="#DejaVuSans-6c" x="2561.861328"/>
     <use xlink:href="#DejaVuSans-62" x="2589.644531"/>
     <use xlink:href="#DejaVuSans-77" x="2653.121094"/>
     <use xlink:href="#DejaVuSans-31" x="2734.908203"/>
     <use xlink:href="#DejaVuSans-30" x="2798.53125"/>
    </g>
   </g>
  </g>
 </g>
 <defs>
  <clipPath id="p22508bfaea">
   <rect x="144" y="69.12" width="892.8" height="443.52"/>
  </clipPath>
 </defs>
</svg>
