<svg xmlns="http://www.w3.org/2000/svg" width="2560" height="1362" style="cursor: move;"><g transform="translate(-2894.261764054525,-1461.7801504045033) scale(3.32495158457115)"><path class="link" marker-end="" d="M1187,638.5, 1297,613" style="stroke-width: 0.55; stroke-opacity: 1; stroke: rgb(80, 80, 80); fill: none;"></path><path class="link" marker-end="" d="M1187,638.5, 1297,630" style="stroke-width: 0.55; stroke-opacity: 1; stroke: rgb(80, 80, 80); fill: none;"></path><path class="link" marker-end="" d="M1187,638.5, 1297,647" style="stroke-width: 0.55; stroke-opacity: 1; stroke: rgb(80, 80, 80); fill: none;"></path><path class="link" marker-end="" d="M1187,655.5, 1297,613" style="stroke-width: 0.55; stroke-opacity: 1; stroke: rgb(80, 80, 80); fill: none;"></path><path class="link" marker-end="" d="M1187,655.5, 1297,630" style="stroke-width: 0.55; stroke-opacity: 1; stroke: rgb(80, 80, 80); fill: none;"></path><path class="link" marker-end="" d="M1187,655.5, 1297,647" style="stroke-width: 0.55; stroke-opacity: 1; stroke: rgb(80, 80, 80); fill: none;"></path><path class="link" marker-end="" d="M1187,672.5, 1297,613" style="stroke-width: 0.55; stroke-opacity: 1; stroke: rgb(80, 80, 80); fill: none;"></path><path class="link" marker-end="" d="M1187,672.5, 1297,630" style="stroke-width: 0.55; stroke-opacity: 1; stroke: rgb(80, 80, 80); fill: none;"></path><path class="link" marker-end="" d="M1187,672.5, 1297,647" style="stroke-width: 0.55; stroke-opacity: 1; stroke: rgb(80, 80, 80); fill: none;"></path><path class="link" marker-end="" d="M1187,689.5, 1297,613" style="stroke-width: 0.55; stroke-opacity: 1; stroke: rgb(80, 80, 80); fill: none;"></path><path class="link" marker-end="" d="M1187,689.5, 1297,630" style="stroke-width: 0.55; stroke-opacity: 1; stroke: rgb(80, 80, 80); fill: none;"></path><path class="link" marker-end="" d="M1187,689.5, 1297,647" style="stroke-width: 0.55; stroke-opacity: 1; stroke: rgb(80, 80, 80); fill: none;"></path><path class="link" marker-end="" d="M1187,706.5, 1297,613" style="stroke-width: 0.55; stroke-opacity: 1; stroke: rgb(80, 80, 80); fill: none;"></path><path class="link" marker-end="" d="M1187,706.5, 1297,630" style="stroke-width: 0.55; stroke-opacity: 1; stroke: rgb(80, 80, 80); fill: none;"></path><path class="link" marker-end="" d="M1187,706.5, 1297,647" style="stroke-width: 0.55; stroke-opacity: 1; stroke: rgb(80, 80, 80); fill: none;"></path><path class="link" marker-end="" d="M1297,613, 1407,672.5" style="stroke-width: 0.55; stroke-opacity: 1; stroke: rgb(80, 80, 80); fill: none;"></path><path class="link" marker-end="" d="M1297,630, 1407,672.5" style="stroke-width: 0.55; stroke-opacity: 1; stroke: rgb(80, 80, 80); fill: none;"></path><path class="link" marker-end="" d="M1297,647, 1407,672.5" style="stroke-width: 0.55; stroke-opacity: 1; stroke: rgb(80, 80, 80); fill: none;"></path><path class="link" marker-end="" d="M1187,638.5, 1297,664" style="stroke-width: 0.55; stroke-opacity: 1; stroke: rgb(80, 80, 80); fill: none;"></path><path class="link" marker-end="" d="M1187,655.5, 1297,664" style="stroke-width: 0.55; stroke-opacity: 1; stroke: rgb(80, 80, 80); fill: none;"></path><path class="link" marker-end="" d="M1187,672.5, 1297,664" style="stroke-width: 0.55; stroke-opacity: 1; stroke: rgb(80, 80, 80); fill: none;"></path><path class="link" marker-end="" d="M1187,689.5, 1297,664" style="stroke-width: 0.55; stroke-opacity: 1; stroke: rgb(80, 80, 80); fill: none;"></path><path class="link" marker-end="" d="M1187,706.5, 1297,664" style="stroke-width: 0.55; stroke-opacity: 1; stroke: rgb(80, 80, 80); fill: none;"></path><path class="link" marker-end="" d="M1297,664, 1407,672.5" style="stroke-width: 0.55; stroke-opacity: 1; stroke: rgb(80, 80, 80); fill: none;"></path><path class="link" marker-end="" d="M1187,638.5, 1297,681" style="stroke-width: 0.55; stroke-opacity: 1; stroke: rgb(80, 80, 80); fill: none;"></path><path class="link" marker-end="" d="M1187,655.5, 1297,681" style="stroke-width: 0.55; stroke-opacity: 1; stroke: rgb(80, 80, 80); fill: none;"></path><path class="link" marker-end="" d="M1187,672.5, 1297,681" style="stroke-width: 0.55; stroke-opacity: 1; stroke: rgb(80, 80, 80); fill: none;"></path><path class="link" marker-end="" d="M1187,689.5, 1297,681" style="stroke-width: 0.55; stroke-opacity: 1; stroke: rgb(80, 80, 80); fill: none;"></path><path class="link" marker-end="" d="M1187,706.5, 1297,681" style="stroke-width: 0.55; stroke-opacity: 1; stroke: rgb(80, 80, 80); fill: none;"></path><path class="link" marker-end="" d="M1297,681, 1407,672.5" style="stroke-width: 0.55; stroke-opacity: 1; stroke: rgb(80, 80, 80); fill: none;"></path><path class="link" marker-end="" d="M1187,638.5, 1297,698" style="stroke-width: 0.55; stroke-opacity: 1; stroke: rgb(80, 80, 80); fill: none;"></path><path class="link" marker-end="" d="M1187,655.5, 1297,698" style="stroke-width: 0.55; stroke-opacity: 1; stroke: rgb(80, 80, 80); fill: none;"></path><path class="link" marker-end="" d="M1187,672.5, 1297,698" style="stroke-width: 0.55; stroke-opacity: 1; stroke: rgb(80, 80, 80); fill: none;"></path><path class="link" marker-end="" d="M1187,689.5, 1297,698" style="stroke-width: 0.55; stroke-opacity: 1; stroke: rgb(80, 80, 80); fill: none;"></path><path class="link" marker-end="" d="M1187,706.5, 1297,698" style="stroke-width: 0.55; stroke-opacity: 1; stroke: rgb(80, 80, 80); fill: none;"></path><path class="link" marker-end="" d="M1297,698, 1407,672.5" style="stroke-width: 0.55; stroke-opacity: 1; stroke: rgb(80, 80, 80); fill: none;"></path><path class="link" marker-end="" d="M1187,638.5, 1297,715" style="stroke-width: 0.55; stroke-opacity: 1; stroke: rgb(80, 80, 80); fill: none;"></path><path class="link" marker-end="" d="M1187,655.5, 1297,715" style="stroke-width: 0.55; stroke-opacity: 1; stroke: rgb(80, 80, 80); fill: none;"></path><path class="link" marker-end="" d="M1187,672.5, 1297,715" style="stroke-width: 0.55; stroke-opacity: 1; stroke: rgb(80, 80, 80); fill: none;"></path><path class="link" marker-end="" d="M1187,689.5, 1297,715" style="stroke-width: 0.55; stroke-opacity: 1; stroke: rgb(80, 80, 80); fill: none;"></path><path class="link" marker-end="" d="M1187,706.5, 1297,715" style="stroke-width: 0.55; stroke-opacity: 1; stroke: rgb(80, 80, 80); fill: none;"></path><path class="link" marker-end="" d="M1297,715, 1407,672.5" style="stroke-width: 0.55; stroke-opacity: 1; stroke: rgb(80, 80, 80); fill: none;"></path><path class="link" marker-end="" d="M1187,638.5, 1297,732" style="stroke-width: 0.55; stroke-opacity: 1; stroke: rgb(80, 80, 80); fill: none;"></path><path class="link" marker-end="" d="M1187,655.5, 1297,732" style="stroke-width: 0.55; stroke-opacity: 1; stroke: rgb(80, 80, 80); fill: none;"></path><path class="link" marker-end="" d="M1187,672.5, 1297,732" style="stroke-width: 0.55; stroke-opacity: 1; stroke: rgb(80, 80, 80); fill: none;"></path><path class="link" marker-end="" d="M1187,689.5, 1297,732" style="stroke-width: 0.55; stroke-opacity: 1; stroke: rgb(80, 80, 80); fill: none;"></path><path class="link" marker-end="" d="M1187,706.5, 1297,732" style="stroke-width: 0.55; stroke-opacity: 1; stroke: rgb(80, 80, 80); fill: none;"></path><path class="link" marker-end="" d="M1297,732, 1407,672.5" style="stroke-width: 0.55; stroke-opacity: 1; stroke: rgb(80, 80, 80); fill: none;"></path><circle r="8.5" class="node" id="0_0" cx="1187" cy="638.5" style="fill: rgb(255, 255, 255); stroke: rgb(51, 51, 51);"></circle><circle r="8.5" class="node" id="0_1" cx="1187" cy="655.5" style="fill: rgb(255, 255, 255); stroke: rgb(51, 51, 51);"></circle><circle r="8.5" class="node" id="0_2" cx="1187" cy="672.5" style="fill: rgb(255, 255, 255); stroke: rgb(51, 51, 51);"></circle><circle r="8.5" class="node" id="0_3" cx="1187" cy="689.5" style="fill: rgb(255, 255, 255); stroke: rgb(51, 51, 51);"></circle><circle r="8.5" class="node" id="0_4" cx="1187" cy="706.5" style="fill: rgb(255, 255, 255); stroke: rgb(51, 51, 51);"></circle><circle r="8.5" class="node" id="1_0" cx="1297" cy="613" style="fill: rgb(255, 255, 255); stroke: rgb(51, 51, 51);"></circle><circle r="8.5" class="node" id="1_1" cx="1297" cy="630" style="fill: rgb(255, 255, 255); stroke: rgb(51, 51, 51);"></circle><circle r="8.5" class="node" id="1_2" cx="1297" cy="647" style="fill: rgb(255, 255, 255); stroke: rgb(51, 51, 51);"></circle><text class="text" dy=".35em" x="1152" y="769" style="font-size: 12px;">Input Layer ∈ ℝ⁵</text><text class="text" dy=".35em" x="1262" y="769" style="font-size: 12px;">Hidden Layer ∈ ℝ⁸</text><circle r="8.5" class="node" id="1_3" cx="1297" cy="664" style="fill: rgb(255, 255, 255); stroke: rgb(51, 51, 51);"></circle><circle r="8.5" class="node" id="1_4" cx="1297" cy="681" style="fill: rgb(255, 255, 255); stroke: rgb(51, 51, 51);"></circle><circle r="8.5" class="node" id="1_5" cx="1297" cy="698" style="fill: rgb(255, 255, 255); stroke: rgb(51, 51, 51);"></circle><circle r="8.5" class="node" id="1_6" cx="1297" cy="715" style="fill: rgb(255, 255, 255); stroke: rgb(51, 51, 51);"></circle><circle r="8.5" class="node" id="1_7" cx="1297" cy="732" style="fill: rgb(255, 255, 255); stroke: rgb(51, 51, 51);"></circle><circle r="8.5" class="node" id="2_0" cx="1407" cy="672.5" style="fill: rgb(255, 255, 255); stroke: rgb(51, 51, 51);"></circle><text class="text" dy=".35em" x="1372" y="769" style="font-size: 12px;">Output Layer ∈ ℝ¹</text></g><defs><marker id="arrow" viewBox="0 -5 10 10" markerWidth="7" markerHeight="7" orient="auto" refX="35.8"><path d="M0,-5L10,0L0,5" style="stroke: rgb(80, 80, 80); fill: none;"></path></marker></defs></svg>