<?xml version="1.0" encoding="utf-8" standalone="no"?>
<!DOCTYPE svg PUBLIC "-//W3C//DTD SVG 1.1//EN"
  "http://www.w3.org/Graphics/SVG/1.1/DTD/svg11.dtd">
<svg xmlns:xlink="http://www.w3.org/1999/xlink" width="1152pt" height="576pt" viewBox="0 0 1152 576" xmlns="http://www.w3.org/2000/svg" version="1.1">
 <metadata>
  <rdf:RDF xmlns:dc="http://purl.org/dc/elements/1.1/" xmlns:cc="http://creativecommons.org/ns#" xmlns:rdf="http://www.w3.org/1999/02/22-rdf-syntax-ns#">
   <cc:Work>
    <dc:type rdf:resource="http://purl.org/dc/dcmitype/StillImage"/>
    <dc:date>2023-01-05T15:16:25.069186</dc:date>
    <dc:format>image/svg+xml</dc:format>
    <dc:creator>
     <cc:Agent>
      <dc:title>Matplotlib v3.6.2, https://matplotlib.org/</dc:title>
     </cc:Agent>
    </dc:creator>
   </cc:Work>
  </rdf:RDF>
 </metadata>
 <defs>
  <style type="text/css">*{stroke-linejoin: round; stroke-linecap: butt}</style>
 </defs>
 <g id="figure_1">
  <g id="patch_1">
   <path d="M 0 576 
L 1152 576 
L 1152 0 
L 0 0 
z
" style="fill: #ffffff"/>
  </g>
  <g id="axes_1">
   <g id="patch_2">
    <path d="M 144 512.64 
L 1036.8 512.64 
L 1036.8 69.12 
L 144 69.12 
z
" style="fill: #ffffff"/>
   </g>
   <g id="matplotlib.axis_1">
    <g id="xtick_1">
     <g id="line2d_1">
      <defs>
       <path id="m6a8ef382e7" d="M 0 0 
L 0 3.5 
" style="stroke: #000000; stroke-width: 0.8"/>
      </defs>
      <g>
       <use xlink:href="#m6a8ef382e7" x="156.416353" y="512.64" style="stroke: #000000; stroke-width: 0.8"/>
      </g>
     </g>
     <g id="text_1">
      <!-- 0 -->
      <g transform="translate(153.235103 527.238438) scale(0.1 -0.1)">
       <defs>
        <path id="DejaVuSans-30" d="M 2034 4250 
Q 1547 4250 1301 3770 
Q 1056 3291 1056 2328 
Q 1056 1369 1301 889 
Q 1547 409 2034 409 
Q 2525 409 2770 889 
Q 3016 1369 3016 2328 
Q 3016 3291 2770 3770 
Q 2525 4250 2034 4250 
z
M 2034 4750 
Q 2819 4750 3233 4129 
Q 3647 3509 3647 2328 
Q 3647 1150 3233 529 
Q 2819 -91 2034 -91 
Q 1250 -91 836 529 
Q 422 1150 422 2328 
Q 422 3509 836 4129 
Q 1250 4750 2034 4750 
z
" transform="scale(0.015625)"/>
       </defs>
       <use xlink:href="#DejaVuSans-30"/>
      </g>
     </g>
    </g>
    <g id="xtick_2">
     <g id="line2d_2">
      <g>
       <use xlink:href="#m6a8ef382e7" x="296.387057" y="512.64" style="stroke: #000000; stroke-width: 0.8"/>
      </g>
     </g>
     <g id="text_2">
      <!-- 5 -->
      <g transform="translate(293.205807 527.238438) scale(0.1 -0.1)">
       <defs>
        <path id="DejaVuSans-35" d="M 691 4666 
L 3169 4666 
L 3169 4134 
L 1269 4134 
L 1269 2991 
Q 1406 3038 1543 3061 
Q 1681 3084 1819 3084 
Q 2600 3084 3056 2656 
Q 3513 2228 3513 1497 
Q 3513 744 3044 326 
Q 2575 -91 1722 -91 
Q 1428 -91 1123 -41 
Q 819 9 494 109 
L 494 744 
Q 775 591 1075 516 
Q 1375 441 1709 441 
Q 2250 441 2565 725 
Q 2881 1009 2881 1497 
Q 2881 1984 2565 2268 
Q 2250 2553 1709 2553 
Q 1456 2553 1204 2497 
Q 953 2441 691 2322 
L 691 4666 
z
" transform="scale(0.015625)"/>
       </defs>
       <use xlink:href="#DejaVuSans-35"/>
      </g>
     </g>
    </g>
    <g id="xtick_3">
     <g id="line2d_3">
      <g>
       <use xlink:href="#m6a8ef382e7" x="436.357761" y="512.64" style="stroke: #000000; stroke-width: 0.8"/>
      </g>
     </g>
     <g id="text_3">
      <!-- 10 -->
      <g transform="translate(429.995261 527.238438) scale(0.1 -0.1)">
       <defs>
        <path id="DejaVuSans-31" d="M 794 531 
L 1825 531 
L 1825 4091 
L 703 3866 
L 703 4441 
L 1819 4666 
L 2450 4666 
L 2450 531 
L 3481 531 
L 3481 0 
L 794 0 
L 794 531 
z
" transform="scale(0.015625)"/>
       </defs>
       <use xlink:href="#DejaVuSans-31"/>
       <use xlink:href="#DejaVuSans-30" x="63.623047"/>
      </g>
     </g>
    </g>
    <g id="xtick_4">
     <g id="line2d_4">
      <g>
       <use xlink:href="#m6a8ef382e7" x="576.328465" y="512.64" style="stroke: #000000; stroke-width: 0.8"/>
      </g>
     </g>
     <g id="text_4">
      <!-- 15 -->
      <g transform="translate(569.965965 527.238438) scale(0.1 -0.1)">
       <use xlink:href="#DejaVuSans-31"/>
       <use xlink:href="#DejaVuSans-35" x="63.623047"/>
      </g>
     </g>
    </g>
    <g id="xtick_5">
     <g id="line2d_5">
      <g>
       <use xlink:href="#m6a8ef382e7" x="716.299169" y="512.64" style="stroke: #000000; stroke-width: 0.8"/>
      </g>
     </g>
     <g id="text_5">
      <!-- 20 -->
      <g transform="translate(709.936669 527.238438) scale(0.1 -0.1)">
       <defs>
        <path id="DejaVuSans-32" d="M 1228 531 
L 3431 531 
L 3431 0 
L 469 0 
L 469 531 
Q 828 903 1448 1529 
Q 2069 2156 2228 2338 
Q 2531 2678 2651 2914 
Q 2772 3150 2772 3378 
Q 2772 3750 2511 3984 
Q 2250 4219 1831 4219 
Q 1534 4219 1204 4116 
Q 875 4013 500 3803 
L 500 4441 
Q 881 4594 1212 4672 
Q 1544 4750 1819 4750 
Q 2544 4750 2975 4387 
Q 3406 4025 3406 3419 
Q 3406 3131 3298 2873 
Q 3191 2616 2906 2266 
Q 2828 2175 2409 1742 
Q 1991 1309 1228 531 
z
" transform="scale(0.015625)"/>
       </defs>
       <use xlink:href="#DejaVuSans-32"/>
       <use xlink:href="#DejaVuSans-30" x="63.623047"/>
      </g>
     </g>
    </g>
    <g id="xtick_6">
     <g id="line2d_6">
      <g>
       <use xlink:href="#m6a8ef382e7" x="856.269873" y="512.64" style="stroke: #000000; stroke-width: 0.8"/>
      </g>
     </g>
     <g id="text_6">
      <!-- 25 -->
      <g transform="translate(849.907373 527.238438) scale(0.1 -0.1)">
       <use xlink:href="#DejaVuSans-32"/>
       <use xlink:href="#DejaVuSans-35" x="63.623047"/>
      </g>
     </g>
    </g>
    <g id="xtick_7">
     <g id="line2d_7">
      <g>
       <use xlink:href="#m6a8ef382e7" x="996.240577" y="512.64" style="stroke: #000000; stroke-width: 0.8"/>
      </g>
     </g>
     <g id="text_7">
      <!-- 30 -->
      <g transform="translate(989.878077 527.238438) scale(0.1 -0.1)">
       <defs>
        <path id="DejaVuSans-33" d="M 2597 2516 
Q 3050 2419 3304 2112 
Q 3559 1806 3559 1356 
Q 3559 666 3084 287 
Q 2609 -91 1734 -91 
Q 1441 -91 1130 -33 
Q 819 25 488 141 
L 488 750 
Q 750 597 1062 519 
Q 1375 441 1716 441 
Q 2309 441 2620 675 
Q 2931 909 2931 1356 
Q 2931 1769 2642 2001 
Q 2353 2234 1838 2234 
L 1294 2234 
L 1294 2753 
L 1863 2753 
Q 2328 2753 2575 2939 
Q 2822 3125 2822 3475 
Q 2822 3834 2567 4026 
Q 2313 4219 1838 4219 
Q 1578 4219 1281 4162 
Q 984 4106 628 3988 
L 628 4550 
Q 988 4650 1302 4700 
Q 1616 4750 1894 4750 
Q 2613 4750 3031 4423 
Q 3450 4097 3450 3541 
Q 3450 3153 3228 2886 
Q 3006 2619 2597 2516 
z
" transform="scale(0.015625)"/>
       </defs>
       <use xlink:href="#DejaVuSans-33"/>
       <use xlink:href="#DejaVuSans-30" x="63.623047"/>
      </g>
     </g>
    </g>
    <g id="text_8">
     <!-- Time in seconds -->
     <g transform="translate(537.870859 543.196094) scale(0.13 -0.13)">
      <defs>
       <path id="DejaVuSans-54" d="M -19 4666 
L 3928 4666 
L 3928 4134 
L 2272 4134 
L 2272 0 
L 1638 0 
L 1638 4134 
L -19 4134 
L -19 4666 
z
" transform="scale(0.015625)"/>
       <path id="DejaVuSans-69" d="M 603 3500 
L 1178 3500 
L 1178 0 
L 603 0 
L 603 3500 
z
M 603 4863 
L 1178 4863 
L 1178 4134 
L 603 4134 
L 603 4863 
z
" transform="scale(0.015625)"/>
       <path id="DejaVuSans-6d" d="M 3328 2828 
Q 3544 3216 3844 3400 
Q 4144 3584 4550 3584 
Q 5097 3584 5394 3201 
Q 5691 2819 5691 2113 
L 5691 0 
L 5113 0 
L 5113 2094 
Q 5113 2597 4934 2840 
Q 4756 3084 4391 3084 
Q 3944 3084 3684 2787 
Q 3425 2491 3425 1978 
L 3425 0 
L 2847 0 
L 2847 2094 
Q 2847 2600 2669 2842 
Q 2491 3084 2119 3084 
Q 1678 3084 1418 2786 
Q 1159 2488 1159 1978 
L 1159 0 
L 581 0 
L 581 3500 
L 1159 3500 
L 1159 2956 
Q 1356 3278 1631 3431 
Q 1906 3584 2284 3584 
Q 2666 3584 2933 3390 
Q 3200 3197 3328 2828 
z
" transform="scale(0.015625)"/>
       <path id="DejaVuSans-65" d="M 3597 1894 
L 3597 1613 
L 953 1613 
Q 991 1019 1311 708 
Q 1631 397 2203 397 
Q 2534 397 2845 478 
Q 3156 559 3463 722 
L 3463 178 
Q 3153 47 2828 -22 
Q 2503 -91 2169 -91 
Q 1331 -91 842 396 
Q 353 884 353 1716 
Q 353 2575 817 3079 
Q 1281 3584 2069 3584 
Q 2775 3584 3186 3129 
Q 3597 2675 3597 1894 
z
M 3022 2063 
Q 3016 2534 2758 2815 
Q 2500 3097 2075 3097 
Q 1594 3097 1305 2825 
Q 1016 2553 972 2059 
L 3022 2063 
z
" transform="scale(0.015625)"/>
       <path id="DejaVuSans-20" transform="scale(0.015625)"/>
       <path id="DejaVuSans-6e" d="M 3513 2113 
L 3513 0 
L 2938 0 
L 2938 2094 
Q 2938 2591 2744 2837 
Q 2550 3084 2163 3084 
Q 1697 3084 1428 2787 
Q 1159 2491 1159 1978 
L 1159 0 
L 581 0 
L 581 3500 
L 1159 3500 
L 1159 2956 
Q 1366 3272 1645 3428 
Q 1925 3584 2291 3584 
Q 2894 3584 3203 3211 
Q 3513 2838 3513 2113 
z
" transform="scale(0.015625)"/>
       <path id="DejaVuSans-73" d="M 2834 3397 
L 2834 2853 
Q 2591 2978 2328 3040 
Q 2066 3103 1784 3103 
Q 1356 3103 1142 2972 
Q 928 2841 928 2578 
Q 928 2378 1081 2264 
Q 1234 2150 1697 2047 
L 1894 2003 
Q 2506 1872 2764 1633 
Q 3022 1394 3022 966 
Q 3022 478 2636 193 
Q 2250 -91 1575 -91 
Q 1294 -91 989 -36 
Q 684 19 347 128 
L 347 722 
Q 666 556 975 473 
Q 1284 391 1588 391 
Q 1994 391 2212 530 
Q 2431 669 2431 922 
Q 2431 1156 2273 1281 
Q 2116 1406 1581 1522 
L 1381 1569 
Q 847 1681 609 1914 
Q 372 2147 372 2553 
Q 372 3047 722 3315 
Q 1072 3584 1716 3584 
Q 2034 3584 2315 3537 
Q 2597 3491 2834 3397 
z
" transform="scale(0.015625)"/>
       <path id="DejaVuSans-63" d="M 3122 3366 
L 3122 2828 
Q 2878 2963 2633 3030 
Q 2388 3097 2138 3097 
Q 1578 3097 1268 2742 
Q 959 2388 959 1747 
Q 959 1106 1268 751 
Q 1578 397 2138 397 
Q 2388 397 2633 464 
Q 2878 531 3122 666 
L 3122 134 
Q 2881 22 2623 -34 
Q 2366 -91 2075 -91 
Q 1284 -91 818 406 
Q 353 903 353 1747 
Q 353 2603 823 3093 
Q 1294 3584 2113 3584 
Q 2378 3584 2631 3529 
Q 2884 3475 3122 3366 
z
" transform="scale(0.015625)"/>
       <path id="DejaVuSans-6f" d="M 1959 3097 
Q 1497 3097 1228 2736 
Q 959 2375 959 1747 
Q 959 1119 1226 758 
Q 1494 397 1959 397 
Q 2419 397 2687 759 
Q 2956 1122 2956 1747 
Q 2956 2369 2687 2733 
Q 2419 3097 1959 3097 
z
M 1959 3584 
Q 2709 3584 3137 3096 
Q 3566 2609 3566 1747 
Q 3566 888 3137 398 
Q 2709 -91 1959 -91 
Q 1206 -91 779 398 
Q 353 888 353 1747 
Q 353 2609 779 3096 
Q 1206 3584 1959 3584 
z
" transform="scale(0.015625)"/>
       <path id="DejaVuSans-64" d="M 2906 2969 
L 2906 4863 
L 3481 4863 
L 3481 0 
L 2906 0 
L 2906 525 
Q 2725 213 2448 61 
Q 2172 -91 1784 -91 
Q 1150 -91 751 415 
Q 353 922 353 1747 
Q 353 2572 751 3078 
Q 1150 3584 1784 3584 
Q 2172 3584 2448 3432 
Q 2725 3281 2906 2969 
z
M 947 1747 
Q 947 1113 1208 752 
Q 1469 391 1925 391 
Q 2381 391 2643 752 
Q 2906 1113 2906 1747 
Q 2906 2381 2643 2742 
Q 2381 3103 1925 3103 
Q 1469 3103 1208 2742 
Q 947 2381 947 1747 
z
" transform="scale(0.015625)"/>
      </defs>
      <use xlink:href="#DejaVuSans-54"/>
      <use xlink:href="#DejaVuSans-69" x="57.958984"/>
      <use xlink:href="#DejaVuSans-6d" x="85.742188"/>
      <use xlink:href="#DejaVuSans-65" x="183.154297"/>
      <use xlink:href="#DejaVuSans-20" x="244.677734"/>
      <use xlink:href="#DejaVuSans-69" x="276.464844"/>
      <use xlink:href="#DejaVuSans-6e" x="304.248047"/>
      <use xlink:href="#DejaVuSans-20" x="367.626953"/>
      <use xlink:href="#DejaVuSans-73" x="399.414062"/>
      <use xlink:href="#DejaVuSans-65" x="451.513672"/>
      <use xlink:href="#DejaVuSans-63" x="513.037109"/>
      <use xlink:href="#DejaVuSans-6f" x="568.017578"/>
      <use xlink:href="#DejaVuSans-6e" x="629.199219"/>
      <use xlink:href="#DejaVuSans-64" x="692.578125"/>
      <use xlink:href="#DejaVuSans-73" x="756.054688"/>
     </g>
    </g>
   </g>
   <g id="matplotlib.axis_2">
    <g id="ytick_1">
     <g id="line2d_8">
      <defs>
       <path id="mbe6a859564" d="M 0 0 
L -3.5 0 
" style="stroke: #000000; stroke-width: 0.8"/>
      </defs>
      <g>
       <use xlink:href="#mbe6a859564" x="144" y="492.48" style="stroke: #000000; stroke-width: 0.8"/>
      </g>
     </g>
     <g id="text_9">
      <!-- 0 -->
      <g transform="translate(130.6375 496.279219) scale(0.1 -0.1)">
       <use xlink:href="#DejaVuSans-30"/>
      </g>
     </g>
    </g>
    <g id="ytick_2">
     <g id="line2d_9">
      <g>
       <use xlink:href="#mbe6a859564" x="144" y="434.30154" style="stroke: #000000; stroke-width: 0.8"/>
      </g>
     </g>
     <g id="text_10">
      <!-- 2500 -->
      <g transform="translate(111.55 438.100759) scale(0.1 -0.1)">
       <use xlink:href="#DejaVuSans-32"/>
       <use xlink:href="#DejaVuSans-35" x="63.623047"/>
       <use xlink:href="#DejaVuSans-30" x="127.246094"/>
       <use xlink:href="#DejaVuSans-30" x="190.869141"/>
      </g>
     </g>
    </g>
    <g id="ytick_3">
     <g id="line2d_10">
      <g>
       <use xlink:href="#mbe6a859564" x="144" y="376.12308" style="stroke: #000000; stroke-width: 0.8"/>
      </g>
     </g>
     <g id="text_11">
      <!-- 5000 -->
      <g transform="translate(111.55 379.922299) scale(0.1 -0.1)">
       <use xlink:href="#DejaVuSans-35"/>
       <use xlink:href="#DejaVuSans-30" x="63.623047"/>
       <use xlink:href="#DejaVuSans-30" x="127.246094"/>
       <use xlink:href="#DejaVuSans-30" x="190.869141"/>
      </g>
     </g>
    </g>
    <g id="ytick_4">
     <g id="line2d_11">
      <g>
       <use xlink:href="#mbe6a859564" x="144" y="317.94462" style="stroke: #000000; stroke-width: 0.8"/>
      </g>
     </g>
     <g id="text_12">
      <!-- 7500 -->
      <g transform="translate(111.55 321.743838) scale(0.1 -0.1)">
       <defs>
        <path id="DejaVuSans-37" d="M 525 4666 
L 3525 4666 
L 3525 4397 
L 1831 0 
L 1172 0 
L 2766 4134 
L 525 4134 
L 525 4666 
z
" transform="scale(0.015625)"/>
       </defs>
       <use xlink:href="#DejaVuSans-37"/>
       <use xlink:href="#DejaVuSans-35" x="63.623047"/>
       <use xlink:href="#DejaVuSans-30" x="127.246094"/>
       <use xlink:href="#DejaVuSans-30" x="190.869141"/>
      </g>
     </g>
    </g>
    <g id="ytick_5">
     <g id="line2d_12">
      <g>
       <use xlink:href="#mbe6a859564" x="144" y="259.76616" style="stroke: #000000; stroke-width: 0.8"/>
      </g>
     </g>
     <g id="text_13">
      <!-- 10000 -->
      <g transform="translate(105.1875 263.565378) scale(0.1 -0.1)">
       <use xlink:href="#DejaVuSans-31"/>
       <use xlink:href="#DejaVuSans-30" x="63.623047"/>
       <use xlink:href="#DejaVuSans-30" x="127.246094"/>
       <use xlink:href="#DejaVuSans-30" x="190.869141"/>
       <use xlink:href="#DejaVuSans-30" x="254.492188"/>
      </g>
     </g>
    </g>
    <g id="ytick_6">
     <g id="line2d_13">
      <g>
       <use xlink:href="#mbe6a859564" x="144" y="201.587699" style="stroke: #000000; stroke-width: 0.8"/>
      </g>
     </g>
     <g id="text_14">
      <!-- 12500 -->
      <g transform="translate(105.1875 205.386918) scale(0.1 -0.1)">
       <use xlink:href="#DejaVuSans-31"/>
       <use xlink:href="#DejaVuSans-32" x="63.623047"/>
       <use xlink:href="#DejaVuSans-35" x="127.246094"/>
       <use xlink:href="#DejaVuSans-30" x="190.869141"/>
       <use xlink:href="#DejaVuSans-30" x="254.492188"/>
      </g>
     </g>
    </g>
    <g id="ytick_7">
     <g id="line2d_14">
      <g>
       <use xlink:href="#mbe6a859564" x="144" y="143.409239" style="stroke: #000000; stroke-width: 0.8"/>
      </g>
     </g>
     <g id="text_15">
      <!-- 15000 -->
      <g transform="translate(105.1875 147.208458) scale(0.1 -0.1)">
       <use xlink:href="#DejaVuSans-31"/>
       <use xlink:href="#DejaVuSans-35" x="63.623047"/>
       <use xlink:href="#DejaVuSans-30" x="127.246094"/>
       <use xlink:href="#DejaVuSans-30" x="190.869141"/>
       <use xlink:href="#DejaVuSans-30" x="254.492188"/>
      </g>
     </g>
    </g>
    <g id="ytick_8">
     <g id="line2d_15">
      <g>
       <use xlink:href="#mbe6a859564" x="144" y="85.230779" style="stroke: #000000; stroke-width: 0.8"/>
      </g>
     </g>
     <g id="text_16">
      <!-- 17500 -->
      <g transform="translate(105.1875 89.029998) scale(0.1 -0.1)">
       <use xlink:href="#DejaVuSans-31"/>
       <use xlink:href="#DejaVuSans-37" x="63.623047"/>
       <use xlink:href="#DejaVuSans-35" x="127.246094"/>
       <use xlink:href="#DejaVuSans-30" x="190.869141"/>
       <use xlink:href="#DejaVuSans-30" x="254.492188"/>
      </g>
     </g>
    </g>
    <g id="text_17">
     <!-- Congestion Window Sizes -->
     <g transform="translate(98.483906 373.964219) rotate(-90) scale(0.13 -0.13)">
      <defs>
       <path id="DejaVuSans-43" d="M 4122 4306 
L 4122 3641 
Q 3803 3938 3442 4084 
Q 3081 4231 2675 4231 
Q 1875 4231 1450 3742 
Q 1025 3253 1025 2328 
Q 1025 1406 1450 917 
Q 1875 428 2675 428 
Q 3081 428 3442 575 
Q 3803 722 4122 1019 
L 4122 359 
Q 3791 134 3420 21 
Q 3050 -91 2638 -91 
Q 1578 -91 968 557 
Q 359 1206 359 2328 
Q 359 3453 968 4101 
Q 1578 4750 2638 4750 
Q 3056 4750 3426 4639 
Q 3797 4528 4122 4306 
z
" transform="scale(0.015625)"/>
       <path id="DejaVuSans-67" d="M 2906 1791 
Q 2906 2416 2648 2759 
Q 2391 3103 1925 3103 
Q 1463 3103 1205 2759 
Q 947 2416 947 1791 
Q 947 1169 1205 825 
Q 1463 481 1925 481 
Q 2391 481 2648 825 
Q 2906 1169 2906 1791 
z
M 3481 434 
Q 3481 -459 3084 -895 
Q 2688 -1331 1869 -1331 
Q 1566 -1331 1297 -1286 
Q 1028 -1241 775 -1147 
L 775 -588 
Q 1028 -725 1275 -790 
Q 1522 -856 1778 -856 
Q 2344 -856 2625 -561 
Q 2906 -266 2906 331 
L 2906 616 
Q 2728 306 2450 153 
Q 2172 0 1784 0 
Q 1141 0 747 490 
Q 353 981 353 1791 
Q 353 2603 747 3093 
Q 1141 3584 1784 3584 
Q 2172 3584 2450 3431 
Q 2728 3278 2906 2969 
L 2906 3500 
L 3481 3500 
L 3481 434 
z
" transform="scale(0.015625)"/>
       <path id="DejaVuSans-74" d="M 1172 4494 
L 1172 3500 
L 2356 3500 
L 2356 3053 
L 1172 3053 
L 1172 1153 
Q 1172 725 1289 603 
Q 1406 481 1766 481 
L 2356 481 
L 2356 0 
L 1766 0 
Q 1100 0 847 248 
Q 594 497 594 1153 
L 594 3053 
L 172 3053 
L 172 3500 
L 594 3500 
L 594 4494 
L 1172 4494 
z
" transform="scale(0.015625)"/>
       <path id="DejaVuSans-57" d="M 213 4666 
L 850 4666 
L 1831 722 
L 2809 4666 
L 3519 4666 
L 4500 722 
L 5478 4666 
L 6119 4666 
L 4947 0 
L 4153 0 
L 3169 4050 
L 2175 0 
L 1381 0 
L 213 4666 
z
" transform="scale(0.015625)"/>
       <path id="DejaVuSans-77" d="M 269 3500 
L 844 3500 
L 1563 769 
L 2278 3500 
L 2956 3500 
L 3675 769 
L 4391 3500 
L 4966 3500 
L 4050 0 
L 3372 0 
L 2619 2869 
L 1863 0 
L 1184 0 
L 269 3500 
z
" transform="scale(0.015625)"/>
       <path id="DejaVuSans-53" d="M 3425 4513 
L 3425 3897 
Q 3066 4069 2747 4153 
Q 2428 4238 2131 4238 
Q 1616 4238 1336 4038 
Q 1056 3838 1056 3469 
Q 1056 3159 1242 3001 
Q 1428 2844 1947 2747 
L 2328 2669 
Q 3034 2534 3370 2195 
Q 3706 1856 3706 1288 
Q 3706 609 3251 259 
Q 2797 -91 1919 -91 
Q 1588 -91 1214 -16 
Q 841 59 441 206 
L 441 856 
Q 825 641 1194 531 
Q 1563 422 1919 422 
Q 2459 422 2753 634 
Q 3047 847 3047 1241 
Q 3047 1584 2836 1778 
Q 2625 1972 2144 2069 
L 1759 2144 
Q 1053 2284 737 2584 
Q 422 2884 422 3419 
Q 422 4038 858 4394 
Q 1294 4750 2059 4750 
Q 2388 4750 2728 4690 
Q 3069 4631 3425 4513 
z
" transform="scale(0.015625)"/>
       <path id="DejaVuSans-7a" d="M 353 3500 
L 3084 3500 
L 3084 2975 
L 922 459 
L 3084 459 
L 3084 0 
L 275 0 
L 275 525 
L 2438 3041 
L 353 3041 
L 353 3500 
z
" transform="scale(0.015625)"/>
      </defs>
      <use xlink:href="#DejaVuSans-43"/>
      <use xlink:href="#DejaVuSans-6f" x="69.824219"/>
      <use xlink:href="#DejaVuSans-6e" x="131.005859"/>
      <use xlink:href="#DejaVuSans-67" x="194.384766"/>
      <use xlink:href="#DejaVuSans-65" x="257.861328"/>
      <use xlink:href="#DejaVuSans-73" x="319.384766"/>
      <use xlink:href="#DejaVuSans-74" x="371.484375"/>
      <use xlink:href="#DejaVuSans-69" x="410.693359"/>
      <use xlink:href="#DejaVuSans-6f" x="438.476562"/>
      <use xlink:href="#DejaVuSans-6e" x="499.658203"/>
      <use xlink:href="#DejaVuSans-20" x="563.037109"/>
      <use xlink:href="#DejaVuSans-57" x="594.824219"/>
      <use xlink:href="#DejaVuSans-69" x="691.451172"/>
      <use xlink:href="#DejaVuSans-6e" x="719.234375"/>
      <use xlink:href="#DejaVuSans-64" x="782.613281"/>
      <use xlink:href="#DejaVuSans-6f" x="846.089844"/>
      <use xlink:href="#DejaVuSans-77" x="907.271484"/>
      <use xlink:href="#DejaVuSans-20" x="989.058594"/>
      <use xlink:href="#DejaVuSans-53" x="1020.845703"/>
      <use xlink:href="#DejaVuSans-69" x="1084.322266"/>
      <use xlink:href="#DejaVuSans-7a" x="1112.105469"/>
      <use xlink:href="#DejaVuSans-65" x="1164.595703"/>
      <use xlink:href="#DejaVuSans-73" x="1226.119141"/>
     </g>
    </g>
   </g>
   <g id="line2d_16">
    <path d="M 184.581818 492.48 
L 184.835165 342.798458 
L 185.268235 330.324996 
L 185.334301 305.378072 
L 185.940094 292.90461 
L 186.00616 267.957687 
L 186.611953 255.484225 
L 186.678019 230.537301 
L 187.283813 218.063839 
L 187.349879 193.116916 
L 187.955672 180.643454 
L 187.988705 168.169992 
L 188.627811 155.69653 
L 188.704515 463.809655 
L 188.813972 465.112852 
L 188.813972 463.809655 
L 189.315907 458.387422 
L 189.698587 449.823553 
L 190.173928 442.842138 
L 190.200802 439.723772 
L 190.659626 436.791578 
L 190.692659 433.999012 
L 190.856145 431.346074 
L 191.331485 428.809493 
L 191.364519 426.365998 
L 191.511488 424.015588 
L 192.003345 421.758264 
L 192.063532 417.453058 
L 192.675204 415.381905 
L 192.735392 411.425769 
L 193.347064 409.517516 
L 193.407251 405.840637 
L 194.018923 404.048741 
L 194.07911 400.581304 
L 194.690782 398.905765 
L 194.75097 395.6245 
L 195.395955 394.018774 
L 195.423109 467.533076 
L 195.582116 472.559695 
L 195.582116 467.533076 
L 196.433978 456.316269 
L 196.620139 480.006538 
L 196.620139 467.533076 
L 197.221453 452.034335 
L 197.593495 444.703849 
L 197.620369 441.469126 
L 198.050079 438.420575 
L 198.083112 435.558195 
L 198.246598 432.835443 
L 198.721939 430.229048 
L 198.754972 427.73901 
L 198.918458 425.342057 
L 199.393798 423.03819 
L 199.426831 420.804137 
L 199.5738 418.639898 
L 200.065657 416.545474 
L 200.125845 412.519524 
L 200.737517 410.588 
L 200.797704 406.864578 
L 201.409376 405.04941 
L 201.469564 401.558703 
L 202.081236 399.859891 
L 202.141423 396.555355 
L 202.753095 394.949629 
L 202.813282 391.807993 
L 203.424954 390.272081 
L 203.485142 387.270073 
L 204.096814 385.803976 
L 204.157001 382.941595 
L 204.768673 381.522041 
L 204.82886 378.752746 
L 205.440532 377.403006 
L 205.50072 374.726797 
L 206.112392 373.423599 
L 206.172579 370.840476 
L 206.784251 369.583821 
L 206.844439 367.093783 
L 207.456111 365.860399 
L 207.516298 363.440175 
L 208.12797 362.253335 
L 208.188157 359.902925 
L 208.799829 358.739356 
L 208.860017 356.45876 
L 209.471689 355.318462 
L 209.531876 353.08441 
L 210.143548 351.990655 
L 210.203735 349.803144 
L 210.815407 348.732661 
L 210.875595 346.591693 
L 211.487267 345.544481 
L 211.547454 343.450057 
L 212.159126 342.426116 
L 212.219314 340.378234 
L 212.830986 339.377564 
L 212.891173 337.376225 
L 213.502845 336.375556 
L 213.563032 334.42076 
L 214.174704 333.443361 
L 214.234892 331.511837 
L 214.846564 330.55771 
L 214.906751 328.649456 
L 215.518423 327.718601 
L 215.578611 325.85689 
L 216.190282 324.926035 
L 216.25047 323.110867 
L 216.862142 322.203283 
L 216.922329 320.388115 
L 217.534001 319.503802 
L 217.594189 317.735177 
L 218.205861 316.850865 
L 218.266048 315.105511 
L 218.87772 314.24447 
L 218.937907 312.522387 
L 219.549579 311.661346 
L 219.609767 309.985806 
L 220.221439 309.148036 
L 220.281626 307.472497 
L 220.893298 306.634727 
L 220.953486 305.00573 
L 221.565158 304.191232 
L 221.625345 302.562235 
L 222.237017 301.747736 
L 222.297204 300.142011 
L 222.908876 299.350784 
L 222.969064 297.76833 
L 223.580736 296.977103 
L 223.640923 295.394649 
L 224.252595 294.626693 
L 224.312782 293.090781 
L 224.924454 292.322826 
L 224.957488 291.55487 
L 225.629907 290.786914 
L 225.656781 464.484525 
L 225.99607 485.033157 
L 225.99607 467.533076 
L 226.940033 448.194556 
L 227.126194 444.703849 
L 227.153068 441.469126 
L 227.611892 438.420575 
L 227.644925 435.558195 
L 227.808411 432.835443 
L 228.283751 430.229048 
L 228.316784 427.73901 
L 228.48027 425.342057 
L 228.955611 423.03819 
L 228.988644 420.804137 
L 229.135613 418.639898 
L 229.62747 416.545474 
L 229.687657 412.519524 
L 230.299329 410.588 
L 230.359517 406.864578 
L 230.971189 405.04941 
L 231.031376 401.558703 
L 231.643048 399.859891 
L 231.703236 396.555355 
L 232.314908 394.949629 
L 232.375095 391.807993 
L 232.986767 390.272081 
L 233.046954 387.270073 
L 233.658626 385.803976 
L 233.718814 382.941595 
L 234.330486 381.522041 
L 234.390673 378.752746 
L 235.002345 377.403006 
L 235.062533 374.726797 
L 235.674204 373.423599 
L 235.734392 370.840476 
L 236.346064 369.583821 
L 236.406251 367.093783 
L 237.017923 365.860399 
L 237.078111 363.440175 
L 237.689783 362.253335 
L 237.74997 359.902925 
L 238.361642 358.739356 
L 238.421829 356.45876 
L 239.033501 355.318462 
L 239.093689 353.08441 
L 239.705361 351.990655 
L 239.765548 349.803144 
L 240.37722 348.732661 
L 240.437408 346.591693 
L 241.04908 345.544481 
L 241.109267 343.450057 
L 241.720939 342.426116 
L 241.781126 340.378234 
L 242.392798 339.377564 
L 242.452986 337.376225 
L 243.064658 336.375556 
L 243.124845 334.42076 
L 243.736517 333.443361 
L 243.796704 331.511837 
L 244.408376 330.55771 
L 244.468564 328.649456 
L 245.080236 327.718601 
L 245.140423 325.85689 
L 245.752095 324.926035 
L 245.812283 323.110867 
L 246.423955 322.203283 
L 246.484142 320.388115 
L 247.095814 319.503802 
L 247.156001 317.735177 
L 247.767673 316.850865 
L 247.827861 315.105511 
L 248.439533 314.24447 
L 248.49972 312.522387 
L 249.111392 311.661346 
L 249.171579 309.985806 
L 249.783251 309.148036 
L 249.843439 307.472497 
L 250.455111 306.634727 
L 250.515298 305.00573 
L 251.12697 304.191232 
L 251.187158 302.562235 
L 251.79883 301.747736 
L 251.859017 300.142011 
L 252.470689 299.350784 
L 252.530876 297.76833 
L 253.142548 296.977103 
L 253.202736 295.394649 
L 253.814408 294.626693 
L 253.874595 293.090781 
L 254.486267 292.322826 
L 254.546455 290.786914 
L 255.158126 290.018959 
L 255.218314 288.506319 
L 255.829986 287.761635 
L 255.890173 286.272266 
L 256.501845 285.527582 
L 256.562033 284.038213 
L 257.173705 283.293529 
L 257.233892 281.850703 
L 257.845564 281.12929 
L 257.905751 279.686464 
L 258.517423 278.965051 
L 258.577611 277.522226 
L 259.189283 276.800813 
L 259.24947 275.40453 
L 259.861142 274.706388 
L 259.92133 273.310105 
L 260.533002 272.611964 
L 260.593189 271.21568 
L 261.204861 270.517539 
L 261.265048 269.121256 
L 261.87672 268.446386 
L 261.936908 267.096646 
L 262.54858 266.421775 
L 262.608767 265.072035 
L 263.220439 264.397165 
L 263.280626 263.047425 
L 263.892298 262.372555 
L 263.952486 261.046086 
L 264.564158 260.394487 
L 264.624345 259.091289 
L 265.236017 258.439691 
L 265.296205 257.136493 
L 265.907877 256.484894 
L 265.968064 255.181697 
L 266.579736 254.530098 
L 266.639923 253.226901 
L 267.251595 252.598573 
L 267.311783 251.341919 
L 267.923455 250.713591 
L 267.983642 249.456936 
L 268.595314 248.828609 
L 268.655501 247.571954 
L 269.267173 246.943627 
L 269.327361 245.686972 
L 269.939033 245.058645 
L 269.99922 243.825261 
L 270.610892 243.220205 
L 270.67108 242.010094 
L 271.282752 241.405038 
L 271.342939 240.194926 
L 271.954611 239.58987 
L 272.014798 238.379758 
L 272.62647 237.774702 
L 272.686658 236.56459 
L 273.29833 235.959534 
L 273.358517 234.749422 
L 273.970189 234.167637 
L 274.030377 233.004068 
L 274.642048 232.422283 
L 274.702236 231.258714 
L 275.313908 230.676929 
L 275.374095 229.51336 
L 275.985767 228.931576 
L 276.045955 227.768006 
L 276.657627 227.186222 
L 276.717814 226.022653 
L 277.329486 225.440868 
L 277.389673 224.30057 
L 278.001345 223.742057 
L 278.061533 222.625031 
L 278.673205 222.066517 
L 278.733392 220.949491 
L 279.345064 220.390978 
L 279.405252 219.273951 
L 280.016924 218.715438 
L 280.077111 217.598412 
L 280.688783 217.039898 
L 280.74897 215.922872 
L 281.360642 215.364359 
L 281.42083 214.247332 
L 282.032502 213.688819 
L 282.092689 212.618335 
L 282.704361 212.083094 
L 282.764548 211.01261 
L 283.37622 210.477368 
L 283.436408 209.406884 
L 284.04808 208.871643 
L 284.108267 207.801159 
L 284.719939 207.265917 
L 284.780127 206.195433 
L 285.391799 205.660192 
L 285.451986 204.589708 
L 286.063658 204.054466 
L 286.123845 202.983982 
L 286.735517 202.448741 
L 286.795705 201.378257 
L 287.407377 200.866287 
L 287.467564 199.842346 
L 288.079236 199.330375 
L 288.139423 198.306434 
L 288.751095 197.794464 
L 288.811283 196.770523 
L 289.422955 196.258552 
L 289.483142 195.234612 
L 290.094814 194.722641 
L 290.155002 193.6987 
L 290.766674 193.18673 
L 290.826861 192.162789 
L 291.438533 191.650818 
L 291.49872 190.626878 
L 292.110392 190.114907 
L 292.17058 189.090966 
L 292.782252 188.578996 
L 292.842439 187.601598 
L 293.454111 187.112899 
L 293.514298 186.1355 
L 294.12597 185.646801 
L 294.186158 184.669403 
L 294.79783 184.180704 
L 294.858017 183.203306 
L 295.469689 182.714607 
L 295.529877 181.737209 
L 296.141549 181.24851 
L 296.201736 180.271112 
L 296.813408 179.782413 
L 296.873595 178.805014 
L 297.485267 178.316315 
L 297.545455 177.338917 
L 298.157127 176.850218 
L 298.217314 175.87282 
L 298.828986 175.384121 
L 298.889174 174.406723 
L 299.500846 173.918024 
L 299.561033 172.987168 
L 300.172705 172.521741 
L 300.232892 171.590885 
L 300.844564 171.125458 
L 300.904752 170.194602 
L 301.516424 169.729175 
L 301.576611 168.798319 
L 302.188283 168.332892 
L 302.24847 167.402036 
L 302.860142 166.936609 
L 302.92033 166.005753 
L 303.532002 165.540326 
L 303.592189 164.60947 
L 304.203861 164.144042 
L 304.264049 163.213187 
L 304.875721 162.747759 
L 304.935908 161.816904 
L 305.54758 161.351476 
L 305.607767 160.420621 
L 306.219439 159.955193 
L 306.279627 159.024338 
L 306.891299 158.55891 
L 306.951486 157.651326 
L 307.563158 157.20917 
L 307.623345 156.324857 
L 308.235017 155.882701 
L 308.295205 154.998389 
L 308.906877 154.556232 
L 308.967064 153.67192 
L 309.578736 153.229763 
L 309.638924 152.345451 
L 310.250596 151.903294 
L 310.310783 151.018982 
L 310.922455 150.576826 
L 310.982642 149.692513 
L 311.594314 149.250357 
L 311.654502 148.366044 
L 312.266174 147.923888 
L 312.326361 147.039575 
L 312.938033 146.597419 
L 312.99822 145.713106 
L 313.659722 145.27095 
L 313.845883 472.559695 
L 313.845883 467.533076 
L 314.281752 461.296345 
L 314.680948 452.034335 
L 315.139772 444.703849 
L 315.166647 441.469126 
L 315.625471 438.420575 
L 315.658504 435.558195 
L 315.821989 432.835443 
L 316.29733 430.229048 
L 316.330363 427.73901 
L 316.493849 425.342057 
L 316.969189 423.03819 
L 317.002222 420.804137 
L 317.149192 418.639898 
L 317.641049 416.545474 
L 317.701236 412.519524 
L 318.312908 410.588 
L 318.373096 406.864578 
L 318.984768 405.04941 
L 319.044955 401.558703 
L 319.656627 399.859891 
L 319.716814 396.555355 
L 320.328486 394.949629 
L 320.388674 391.807993 
L 321.000346 390.272081 
L 321.060533 387.270073 
L 321.672205 385.803976 
L 321.732392 382.941595 
L 322.344064 381.522041 
L 322.404252 378.752746 
L 323.015924 377.403006 
L 323.076111 374.726797 
L 323.687783 373.423599 
L 323.747971 370.840476 
L 324.359643 369.583821 
L 324.41983 367.093783 
L 325.031502 365.860399 
L 325.091689 363.440175 
L 325.703361 362.253335 
L 325.763549 359.902925 
L 326.375221 358.739356 
L 326.435408 356.45876 
L 327.04708 355.318462 
L 327.107267 353.08441 
L 327.718939 351.990655 
L 327.779127 349.803144 
L 328.390799 348.732661 
L 328.450986 346.591693 
L 329.062658 345.544481 
L 329.122846 343.450057 
L 329.734518 342.426116 
L 329.794705 340.378234 
L 330.406377 339.377564 
L 330.466564 337.376225 
L 331.128066 336.375556 
L 331.314227 472.559695 
L 331.314227 467.533076 
L 331.750096 461.296345 
L 332.149292 452.034335 
L 332.608116 444.703849 
L 332.63499 441.469126 
L 333.093814 438.420575 
L 333.126848 435.558195 
L 333.290333 432.835443 
L 333.765674 430.229048 
L 333.798707 427.73901 
L 333.962193 425.342057 
L 334.437533 423.03819 
L 334.470566 420.804137 
L 334.617536 418.639898 
L 335.109393 416.545474 
L 335.16958 412.519524 
L 335.781252 410.588 
L 335.841439 406.864578 
L 336.453111 405.04941 
L 336.513299 401.558703 
L 337.124971 399.859891 
L 337.185158 396.555355 
L 337.79683 394.949629 
L 337.857018 391.807993 
L 338.468689 390.272081 
L 338.528877 387.270073 
L 339.140549 385.803976 
L 339.200736 382.941595 
L 339.812408 381.522041 
L 339.872596 378.752746 
L 340.484268 377.403006 
L 340.544455 374.726797 
L 341.156127 373.423599 
L 341.216314 370.840476 
L 341.827986 369.583821 
L 341.888174 367.093783 
L 342.499846 365.860399 
L 342.560033 363.440175 
L 343.171705 362.253335 
L 343.231893 359.902925 
L 343.843565 358.739356 
L 343.903752 356.45876 
L 344.515424 355.318462 
L 344.575611 353.08441 
L 345.187283 351.990655 
L 345.247471 349.803144 
L 345.859143 348.732661 
L 345.91933 346.591693 
L 346.531002 345.544481 
L 346.591189 343.450057 
L 347.202861 342.426116 
L 347.263049 340.378234 
L 347.874721 339.377564 
L 347.934908 337.376225 
L 348.54658 336.375556 
L 348.606768 334.42076 
L 349.21844 333.443361 
L 349.278627 331.511837 
L 349.890299 330.55771 
L 349.950486 328.649456 
L 350.562158 327.718601 
L 350.622346 325.85689 
L 351.234018 324.926035 
L 351.294205 323.110867 
L 351.905877 322.203283 
L 351.966064 320.388115 
L 352.577736 319.503802 
L 352.637924 317.735177 
L 353.249596 316.850865 
L 353.309783 315.105511 
L 353.921455 314.24447 
L 353.981643 312.522387 
L 354.593315 311.661346 
L 354.653502 309.985806 
L 355.265174 309.148036 
L 355.298207 308.310267 
L 355.937313 307.472497 
L 355.997501 467.533076 
L 383.292348 472.559695 
L 389.263218 480.006538 
L 389.668293 461.296345 
L 390.445411 444.703849 
L 390.631292 441.469126 
L 390.664325 438.420575 
L 390.833689 435.558195 
L 390.866723 432.835443 
L 391.036367 430.229048 
L 391.0694 427.73901 
L 391.238765 425.342057 
L 391.271798 423.03819 
L 391.424926 420.804137 
L 391.457959 418.639898 
L 391.610807 416.545474 
L 391.846238 408.703017 
L 392.081948 401.558703 
L 392.234796 398.184352 
L 392.45399 391.807993 
L 392.606838 388.759441 
L 392.875302 380.125758 
L 393.011914 377.403006 
L 393.263861 369.583821 
L 393.416989 365.860399 
L 393.871334 353.08441 
L 394.040978 348.732661 
L 394.883882 324.926035 
L 394.966744 324.018451 
L 395.169422 430.112691 
L 395.169422 423.87596 
L 395.491914 417.31343 
L 395.760658 407.539448 
L 395.930023 403.932384 
L 396.165453 397.13714 
L 396.318581 393.925689 
L 396.570529 386.362489 
L 396.70714 383.453566 
L 396.975604 375.215496 
L 397.128452 371.305903 
L 397.347646 365.069172 
L 397.500494 361.485379 
L 397.971635 348.011248 
L 398.313724 340.727305 
L 398.919517 339.703364 
L 398.985583 337.702025 
L 399.591376 336.701355 
L 399.657443 334.746559 
L 400.263236 333.769161 
L 400.329302 331.837636 
L 400.935095 330.883509 
L 401.001161 328.975256 
L 401.606955 328.0444 
L 401.673021 326.18269 
L 402.278814 325.251834 
L 402.34488 323.436666 
L 402.950673 322.529082 
L 403.01674 320.713914 
L 403.622533 319.829602 
L 403.688599 318.060977 
L 404.294392 317.176664 
L 404.360458 315.43131 
L 404.966251 314.570269 
L 405.032318 312.848187 
L 405.638111 311.987145 
L 405.704177 310.288334 
L 406.30997 309.450564 
L 406.376036 307.775025 
L 406.98183 306.937255 
L 407.047896 305.284987 
L 407.653689 304.470488 
L 407.719755 302.841491 
L 408.325548 302.026993 
L 408.391615 300.421267 
L 408.997408 299.63004 
L 409.063474 298.047586 
L 409.669267 297.256359 
L 409.735333 295.673905 
L 410.341127 294.905949 
L 410.407193 293.370038 
L 411.012986 292.602082 
L 411.079052 291.066171 
L 411.684845 290.298215 
L 411.750911 288.785575 
L 412.356705 288.040891 
L 412.422771 286.551523 
L 413.028564 285.806838 
L 413.09463 284.31747 
L 413.700423 283.572785 
L 413.76649 282.106688 
L 414.372283 281.385275 
L 414.438349 279.942449 
L 415.044142 279.221037 
L 415.110208 277.778211 
L 415.716002 277.056798 
L 415.782068 275.637243 
L 416.387861 274.939102 
L 416.453927 273.542819 
L 417.05972 272.844677 
L 417.125786 271.448394 
L 417.73158 270.750253 
L 417.797646 269.35397 
L 418.403439 268.6791 
L 418.436472 268.004229 
L 419.092095 267.329359 
L 419.152282 467.533076 
L 419.278256 472.559695 
L 419.278256 467.533076 
L 419.763674 461.296345 
L 420.162871 452.034335 
L 420.621695 444.703849 
L 420.648569 441.469126 
L 421.107393 438.420575 
L 421.140426 435.558195 
L 421.303912 432.835443 
L 421.779253 430.229048 
L 421.812286 427.73901 
L 421.975771 425.342057 
L 422.451112 423.03819 
L 422.484145 420.804137 
L 422.631114 418.639898 
L 423.122971 416.545474 
L 423.183159 412.519524 
L 423.794831 410.588 
L 423.855018 406.864578 
L 424.46669 405.04941 
L 424.526877 401.558703 
L 425.138549 399.859891 
L 425.198737 396.555355 
L 425.810409 394.949629 
L 425.870596 391.807993 
L 426.482268 390.272081 
L 426.542456 387.270073 
L 427.154128 385.803976 
L 427.214315 382.941595 
L 427.825987 381.522041 
L 427.886174 378.752746 
L 428.497846 377.403006 
L 428.558034 374.726797 
L 429.169706 373.423599 
L 429.229893 370.840476 
L 429.841565 369.583821 
L 429.901752 367.093783 
L 430.513424 365.860399 
L 430.573612 363.440175 
L 431.185284 362.253335 
L 431.245471 359.902925 
L 431.857143 358.739356 
L 431.917331 356.45876 
L 432.529003 355.318462 
L 432.58919 353.08441 
L 433.200862 351.990655 
L 433.261049 349.803144 
L 433.872721 348.732661 
L 433.932909 346.591693 
L 434.544581 345.544481 
L 434.604768 343.450057 
L 435.21644 342.426116 
L 435.276627 340.378234 
L 435.888299 339.377564 
L 435.948487 337.376225 
L 436.559319 336.375556 
L 436.620906 334.42076 
L 437.231178 333.443361 
L 437.292766 331.511837 
L 437.903038 330.55771 
L 437.964625 328.649456 
L 438.574897 327.718601 
L 438.636484 325.85689 
L 439.246757 324.926035 
L 439.308344 323.110867 
L 439.918616 322.203283 
L 439.980203 320.388115 
L 440.590475 319.503802 
L 440.652062 317.735177 
L 441.262335 316.850865 
L 441.323922 315.105511 
L 441.934194 314.24447 
L 441.995781 312.522387 
L 442.606053 311.661346 
L 442.667641 309.985806 
L 443.277913 309.148036 
L 443.3395 307.472497 
L 443.949772 306.634727 
L 444.011359 305.00573 
L 444.621632 304.191232 
L 444.683219 302.562235 
L 445.293491 301.747736 
L 445.355078 300.142011 
L 445.96535 299.350784 
L 446.026937 297.76833 
L 446.63721 296.977103 
L 446.698797 295.394649 
L 447.309069 294.626693 
L 447.370656 293.090781 
L 447.980928 292.322826 
L 448.042516 290.786914 
L 448.652788 290.018959 
L 448.714375 288.506319 
L 449.324647 287.761635 
L 449.386234 286.272266 
L 449.996507 285.527582 
L 450.058094 284.038213 
L 450.668366 283.293529 
L 450.729953 281.850703 
L 451.340225 281.12929 
L 451.401812 279.686464 
L 452.012085 278.965051 
L 452.073672 277.522226 
L 452.683944 276.800813 
L 452.745531 275.40453 
L 453.355803 274.706388 
L 453.417391 273.310105 
L 454.027663 272.611964 
L 454.08925 271.21568 
L 454.699522 270.517539 
L 454.761109 269.121256 
L 455.371382 268.446386 
L 455.432969 267.096646 
L 456.043241 266.421775 
L 456.104828 265.072035 
L 456.7151 264.397165 
L 456.776688 263.047425 
L 457.38696 262.372555 
L 457.448547 261.046086 
L 458.058819 260.394487 
L 458.120406 259.091289 
L 458.730679 258.439691 
L 458.792266 257.136493 
L 459.402538 256.484894 
L 459.464125 255.181697 
L 460.074397 254.530098 
L 460.135984 253.226901 
L 460.746257 252.598573 
L 460.807844 251.341919 
L 461.418116 250.713591 
L 461.479703 249.456936 
L 462.089975 248.828609 
L 462.151563 247.571954 
L 462.761835 246.943627 
L 462.823422 245.686972 
L 463.433694 245.058645 
L 463.495281 243.825261 
L 464.105554 243.220205 
L 464.167141 242.010094 
L 464.777413 241.405038 
L 464.839 240.194926 
L 465.482865 239.58987 
L 465.510859 467.533076 
L 465.670426 472.559695 
L 465.670426 467.533076 
L 466.121132 461.296345 
L 466.521448 452.034335 
L 466.980552 444.703849 
L 467.005747 441.469126 
L 467.46485 438.420575 
L 467.498443 435.558195 
L 467.663609 432.835443 
L 468.13671 430.229048 
L 468.170303 427.73901 
L 468.335468 425.342057 
L 468.808569 423.03819 
L 468.842162 420.804137 
L 468.990531 418.639898 
L 469.480429 416.545474 
L 469.542016 412.519524 
L 470.152288 410.588 
L 470.213875 406.864578 
L 470.824147 405.04941 
L 470.885734 401.558703 
L 471.496007 399.859891 
L 471.557594 396.555355 
L 472.167866 394.949629 
L 472.229453 391.807993 
L 472.839725 390.272081 
L 472.901313 387.270073 
L 473.511585 385.803976 
L 473.573172 382.941595 
L 474.183444 381.522041 
L 474.245031 378.752746 
L 474.855304 377.403006 
L 474.916891 374.726797 
L 475.527163 373.423599 
L 475.58875 370.840476 
L 476.232615 369.583821 
L 476.260609 467.533076 
L 476.420176 472.559695 
L 476.420176 467.533076 
L 476.870882 461.296345 
L 477.271198 452.034335 
L 477.730302 444.703849 
L 477.755497 441.469126 
L 478.214601 438.420575 
L 478.248193 435.558195 
L 478.413359 432.835443 
L 478.88646 430.229048 
L 478.920053 427.73901 
L 479.085218 425.342057 
L 479.558319 423.03819 
L 479.740281 420.804137 
L 479.925043 480.006538 
L 479.925043 467.533076 
L 481.114794 441.469126 
L 481.573897 438.420575 
L 481.60749 435.558195 
L 481.772656 432.835443 
L 482.245757 430.229048 
L 482.27935 427.73901 
L 482.444515 425.342057 
L 482.917616 423.03819 
L 482.951209 420.804137 
L 483.099578 418.639898 
L 483.589476 416.545474 
L 483.651063 412.519524 
L 484.261335 410.588 
L 484.322922 406.864578 
L 484.933194 405.04941 
L 484.994781 401.558703 
L 485.605054 399.859891 
L 485.666641 396.555355 
L 486.276913 394.949629 
L 486.3385 391.807993 
L 486.948772 390.272081 
L 487.01036 387.270073 
L 487.620632 385.803976 
L 487.682219 382.941595 
L 488.292491 381.522041 
L 488.354078 378.752746 
L 488.964351 377.403006 
L 489.025938 374.726797 
L 489.63621 373.423599 
L 489.697797 370.840476 
L 490.308069 369.583821 
L 490.369656 367.093783 
L 490.979929 365.860399 
L 491.041516 363.440175 
L 491.651788 362.253335 
L 491.713375 359.902925 
L 492.323647 358.739356 
L 492.385235 356.45876 
L 492.995507 355.318462 
L 493.057094 353.08441 
L 493.667366 351.990655 
L 493.728953 349.803144 
L 494.339226 348.732661 
L 494.400813 346.591693 
L 495.011085 345.544481 
L 495.072672 343.450057 
L 495.682944 342.426116 
L 495.744531 340.378234 
L 496.354804 339.377564 
L 496.416391 337.376225 
L 497.026663 336.375556 
L 497.08825 334.42076 
L 497.698523 333.443361 
L 497.76011 331.511837 
L 498.370382 330.55771 
L 498.431969 328.649456 
L 499.042241 327.718601 
L 499.103828 325.85689 
L 499.714101 324.926035 
L 499.775688 323.110867 
L 500.38596 322.203283 
L 500.447547 320.388115 
L 501.057819 319.503802 
L 501.119407 317.735177 
L 501.729679 316.850865 
L 501.791266 315.105511 
L 502.401538 314.24447 
L 502.463125 312.522387 
L 503.073398 311.661346 
L 503.134985 309.985806 
L 503.745257 309.148036 
L 503.806844 307.472497 
L 504.417116 306.634727 
L 504.478703 305.00573 
L 505.088976 304.191232 
L 505.150563 302.562235 
L 505.760835 301.747736 
L 505.822422 300.142011 
L 506.432694 299.350784 
L 506.494282 297.76833 
L 507.104554 296.977103 
L 507.166141 295.394649 
L 507.776413 294.626693 
L 507.838 293.090781 
L 508.448273 292.322826 
L 508.50986 290.786914 
L 509.120132 290.018959 
L 509.181719 288.506319 
L 509.791991 287.761635 
L 509.853578 286.272266 
L 510.463851 285.527582 
L 510.525438 284.038213 
L 511.13571 283.293529 
L 511.197297 281.850703 
L 511.807569 281.12929 
L 511.869157 279.686464 
L 512.479429 278.965051 
L 512.541016 277.522226 
L 513.151288 276.800813 
L 513.212875 275.40453 
L 513.823148 274.706388 
L 513.884735 273.310105 
L 514.495007 272.611964 
L 514.556594 271.21568 
L 515.166866 270.517539 
L 515.228453 269.121256 
L 515.838726 268.446386 
L 515.900313 267.096646 
L 516.510585 266.421775 
L 516.572172 265.072035 
L 517.182445 264.397165 
L 517.244032 263.047425 
L 517.854304 262.372555 
L 517.915891 261.046086 
L 518.526163 260.394487 
L 518.58775 259.742888 
L 518.772512 480.006538 
L 518.772512 467.533076 
L 519.198023 461.296345 
L 519.598339 452.034335 
L 520.057443 444.703849 
L 520.082637 441.469126 
L 520.541741 438.420575 
L 520.575334 435.558195 
L 520.7405 432.835443 
L 521.213601 430.229048 
L 521.412359 427.73901 
L 521.597121 480.006538 
L 521.597121 467.533076 
L 522.770075 441.469126 
L 523.229179 438.420575 
L 523.262772 435.558195 
L 523.427937 432.835443 
L 523.901038 430.229048 
L 523.934631 427.73901 
L 524.099797 425.342057 
L 524.572898 423.03819 
L 524.606491 420.804137 
L 525.261554 418.639898 
L 525.27835 435.13931 
L 525.603082 467.533076 
L 525.603082 456.595526 
L 526.104177 448.403999 
L 526.28334 444.89002 
L 526.588476 441.632026 
L 526.622069 438.583475 
L 526.787234 435.697823 
L 527.260335 432.975071 
L 527.293928 430.368676 
L 527.459094 427.878638 
L 527.932195 425.481685 
L 527.965788 423.177818 
L 528.114156 420.943765 
L 528.604054 418.779527 
L 528.665641 414.63722 
L 529.275913 412.659153 
L 529.3375 408.842646 
L 529.947773 407.004206 
L 530.00936 403.420413 
L 530.619632 401.675059 
L 530.681219 398.300709 
L 531.291491 396.671712 
L 531.353079 393.483532 
L 531.963351 391.92435 
L 532.024938 388.875798 
L 532.63521 387.38643 
L 532.696797 384.477507 
L 533.30707 383.057952 
L 533.368657 380.242115 
L 533.978929 378.869103 
L 534.040516 376.169623 
L 534.650788 374.843154 
L 534.712375 372.236759 
L 535.322648 370.956833 
L 535.384235 368.420252 
L 535.994507 367.186868 
L 536.056094 364.743373 
L 536.666367 363.533261 
L 536.727954 361.15958 
L 537.338226 359.996011 
L 537.399813 357.668872 
L 538.010085 356.528574 
L 538.071672 354.27125 
L 538.681945 353.154224 
L 538.743532 350.966714 
L 539.353804 349.872959 
L 539.415391 347.731991 
L 540.025663 346.661508 
L 540.087251 344.567083 
L 540.697523 343.519871 
L 540.75911 341.471989 
L 541.369382 340.448048 
L 541.430969 338.446709 
L 542.041242 337.446039 
L 542.102829 335.467972 
L 542.713101 334.490574 
L 542.774688 332.535777 
L 543.38496 331.581651 
L 543.446547 329.673397 
L 544.714682 327.788415 
L 544.779069 458.550322 
L 544.899443 463.809655 
L 545.078606 465.112852 
L 545.400538 463.809655 
L 545.800855 453.826231 
L 546.259959 446.193217 
L 546.285153 442.842138 
L 546.744257 439.723772 
L 546.77785 436.791578 
L 546.943016 433.999012 
L 547.416117 431.346074 
L 547.44971 428.809493 
L 547.614875 426.365998 
L 548.087976 424.015588 
L 548.121569 421.758264 
L 548.269938 419.570754 
L 548.810225 417.453058 
L 548.997786 472.559695 
L 548.997786 467.533076 
L 549.431695 461.296345 
L 549.832011 452.034335 
L 550.291115 444.703849 
L 550.31631 441.469126 
L 550.775413 438.420575 
L 550.809006 435.558195 
L 550.974172 432.835443 
L 551.447273 430.229048 
L 551.480866 427.73901 
L 551.646031 425.342057 
L 552.119132 423.03819 
L 552.152725 420.804137 
L 552.301094 418.639898 
L 552.790992 416.545474 
L 552.852579 412.519524 
L 553.462851 410.588 
L 553.524438 406.864578 
L 554.13471 405.04941 
L 554.196297 401.558703 
L 554.80657 399.859891 
L 554.868157 396.555355 
L 555.478429 394.949629 
L 555.540016 391.807993 
L 556.150289 390.272081 
L 556.211876 387.270073 
L 556.822148 385.803976 
L 556.883735 382.941595 
L 557.494007 381.522041 
L 557.555594 378.752746 
L 558.165867 377.403006 
L 558.227454 374.726797 
L 558.837726 373.423599 
L 558.899313 370.840476 
L 559.509585 369.583821 
L 559.571173 367.093783 
L 560.181445 365.860399 
L 560.243032 363.440175 
L 560.853304 362.253335 
L 560.914891 359.902925 
L 561.525164 358.739356 
L 561.586751 356.45876 
L 562.197023 355.318462 
L 562.25861 353.08441 
L 562.868882 351.990655 
L 562.930469 349.803144 
L 563.540742 348.732661 
L 563.602329 346.591693 
L 564.212601 345.544481 
L 564.274188 343.450057 
L 564.88446 342.426116 
L 564.946048 340.378234 
L 565.55632 339.377564 
L 565.617907 337.376225 
L 566.228179 336.375556 
L 566.289766 334.42076 
L 566.900039 333.443361 
L 566.961626 331.511837 
L 567.571898 330.55771 
L 567.633485 328.649456 
L 568.243757 327.718601 
L 568.305344 325.85689 
L 568.915617 324.926035 
L 568.977204 323.110867 
L 569.587476 322.203283 
L 569.649063 320.388115 
L 570.259335 319.503802 
L 570.320923 317.735177 
L 570.931195 316.850865 
L 570.992782 315.105511 
L 571.603054 314.24447 
L 571.664641 312.522387 
L 572.274914 311.661346 
L 572.336501 309.985806 
L 572.946773 309.148036 
L 573.00836 307.472497 
L 573.618632 306.634727 
L 573.680219 305.00573 
L 574.290492 304.191232 
L 574.352079 302.562235 
L 574.962351 301.747736 
L 575.023938 300.142011 
L 575.63421 299.350784 
L 575.695798 297.76833 
L 576.963932 296.185876 
L 577.039516 463.809655 
L 577.148694 465.112852 
L 577.148694 463.809655 
L 577.649789 458.387422 
L 578.033308 449.823553 
L 578.509209 442.842138 
L 578.534403 439.723772 
L 578.993507 436.791578 
L 579.0271 433.999012 
L 579.192266 431.346074 
L 579.665367 428.809493 
L 579.69896 426.365998 
L 579.847329 424.015588 
L 580.337226 421.758264 
L 580.398813 417.453058 
L 581.009086 415.381905 
L 581.070673 411.425769 
L 581.680945 409.517516 
L 581.742532 405.840637 
L 582.352804 404.048741 
L 582.414391 400.581304 
L 583.024664 398.905765 
L 583.086251 395.6245 
L 583.696523 394.018774 
L 583.75811 390.92368 
L 584.368382 389.41104 
L 584.42997 386.455574 
L 585.040242 384.989477 
L 585.101829 382.127097 
L 585.712101 380.730814 
L 585.773688 377.98479 
L 586.383961 376.63505 
L 586.445548 373.982112 
L 587.05582 372.678915 
L 587.117407 370.119063 
L 587.727679 368.862408 
L 587.761272 367.605753 
L 588.399539 366.37237 
L 588.461126 467.533076 
L 588.587099 472.559695 
L 588.587099 467.533076 
L 589.071398 461.296345 
L 589.471714 452.034335 
L 589.930818 444.703849 
L 589.956013 441.469126 
L 590.415117 438.420575 
L 590.44871 435.558195 
L 590.613875 432.835443 
L 591.086976 430.229048 
L 591.120569 427.73901 
L 591.285735 425.342057 
L 591.758836 423.03819 
L 591.792429 420.804137 
L 591.940798 418.639898 
L 592.430695 416.545474 
L 592.492282 412.519524 
L 593.102554 410.588 
L 593.164141 406.864578 
L 593.774414 405.04941 
L 593.836001 401.558703 
L 594.446273 399.859891 
L 594.50786 396.555355 
L 595.118132 394.949629 
L 595.17972 391.807993 
L 595.789992 390.272081 
L 595.851579 387.270073 
L 596.461851 385.803976 
L 596.523438 382.941595 
L 597.133711 381.522041 
L 597.195298 378.752746 
L 597.80557 377.403006 
L 597.867157 374.726797 
L 598.477429 373.423599 
L 598.539016 370.840476 
L 599.149289 369.583821 
L 599.210876 367.093783 
L 599.821148 365.860399 
L 599.882735 363.440175 
L 600.493008 362.253335 
L 600.554595 359.902925 
L 601.164867 358.739356 
L 601.226454 356.45876 
L 601.836726 355.318462 
L 601.898313 353.08441 
L 602.508586 351.990655 
L 602.570173 349.803144 
L 603.180445 348.732661 
L 603.242032 346.591693 
L 603.852304 345.544481 
L 603.913892 343.450057 
L 604.524164 342.426116 
L 604.585751 340.378234 
L 605.196023 339.377564 
L 605.25761 337.376225 
L 605.867883 336.375556 
L 605.92947 334.42076 
L 606.539742 333.443361 
L 606.601329 331.511837 
L 607.211601 330.55771 
L 607.273188 328.649456 
L 607.883461 327.718601 
L 607.945048 325.85689 
L 608.55532 324.926035 
L 608.616907 323.110867 
L 609.227179 322.203283 
L 609.288767 320.388115 
L 609.899039 319.503802 
L 609.960626 317.735177 
L 610.570898 316.850865 
L 610.632485 315.105511 
L 611.242758 314.24447 
L 611.304345 312.522387 
L 612.572479 310.823576 
L 612.648063 463.809655 
L 612.757241 465.112852 
L 612.757241 463.809655 
L 613.258336 458.387422 
L 613.641855 449.823553 
L 614.117756 442.842138 
L 614.142951 439.723772 
L 614.602054 436.791578 
L 614.635647 433.999012 
L 614.800813 431.346074 
L 615.273914 428.809493 
L 615.307507 426.365998 
L 615.455876 424.015588 
L 615.945773 421.758264 
L 616.00736 417.453058 
L 616.617633 415.381905 
L 616.67922 411.425769 
L 617.289492 409.517516 
L 617.351079 405.840637 
L 617.961351 404.048741 
L 618.022938 400.581304 
L 618.633211 398.905765 
L 618.694798 395.6245 
L 619.30507 394.018774 
L 619.366657 390.92368 
L 619.97693 389.41104 
L 620.038517 386.455574 
L 620.648789 384.989477 
L 620.710376 382.127097 
L 621.320648 380.730814 
L 621.382235 377.98479 
L 621.992508 376.63505 
L 622.054095 373.982112 
L 622.664367 372.678915 
L 622.725954 370.119063 
L 623.386616 368.862408 
L 623.574177 472.559695 
L 623.574177 467.533076 
L 624.008086 461.296345 
L 624.408402 452.034335 
L 624.867506 444.703849 
L 624.892701 441.469126 
L 625.351805 438.420575 
L 625.385398 435.558195 
L 625.550563 432.835443 
L 626.023664 430.229048 
L 626.057257 427.73901 
L 626.222422 425.342057 
L 626.695523 423.03819 
L 626.729116 420.804137 
L 626.877485 418.639898 
L 627.367383 416.545474 
L 627.42897 412.519524 
L 628.039242 410.588 
L 628.100829 406.864578 
L 628.711101 405.04941 
L 628.772689 401.558703 
L 629.382961 399.859891 
L 629.444548 396.555355 
L 630.05482 394.949629 
L 630.116407 391.807993 
L 630.72668 390.272081 
L 630.788267 387.270073 
L 631.398539 385.803976 
L 631.460126 382.941595 
L 632.070398 381.522041 
L 632.131985 378.752746 
L 632.742258 377.403006 
L 632.803845 374.726797 
L 633.414117 373.423599 
L 633.475704 370.840476 
L 634.085976 369.583821 
L 634.147564 367.093783 
L 634.757836 365.860399 
L 634.819423 363.440175 
L 635.429695 362.253335 
L 635.491282 359.902925 
L 636.101555 358.739356 
L 636.163142 356.45876 
L 636.773414 355.318462 
L 636.835001 353.08441 
L 637.445273 351.990655 
L 637.50686 349.803144 
L 638.117133 348.732661 
L 638.17872 346.591693 
L 638.788992 345.544481 
L 638.850579 343.450057 
L 639.460852 342.426116 
L 639.522439 340.378234 
L 640.132711 339.377564 
L 640.194298 337.376225 
L 640.80457 336.375556 
L 640.866157 334.42076 
L 641.47643 333.443361 
L 641.538017 331.511837 
L 642.148289 330.55771 
L 642.209876 328.649456 
L 642.820148 327.718601 
L 642.881736 326.787746 
L 643.066497 480.006538 
L 643.066497 467.533076 
L 643.492008 461.296345 
L 643.892324 452.034335 
L 644.351428 444.703849 
L 644.376623 441.469126 
L 644.835727 438.420575 
L 644.86932 435.558195 
L 645.034485 432.835443 
L 645.507586 430.229048 
L 645.541179 427.73901 
L 645.706344 425.342057 
L 646.229835 423.03819 
L 646.417395 472.559695 
L 646.417395 467.533076 
L 652.433336 461.296345 
L 652.993219 456.316269 
L 653.177981 480.006538 
L 653.177981 467.533076 
L 653.785453 452.034335 
L 654.546894 435.558195 
L 654.580487 432.835443 
L 654.748452 430.229048 
L 654.782045 427.73901 
L 654.952809 425.342057 
L 654.986402 423.03819 
L 655.13757 420.804137 
L 655.171163 418.639898 
L 655.325131 416.545474 
L 655.389518 412.519524 
L 655.560282 408.703017 
L 655.795433 401.558703 
L 655.9494 398.184352 
L 656.167755 391.807993 
L 656.318923 388.759441 
L 656.587667 380.125758 
L 656.691245 378.752746 
L 656.912399 377.403006 
L 656.979585 374.726797 
L 657.584258 373.423599 
L 657.651444 370.840476 
L 658.256118 369.583821 
L 658.323304 367.093783 
L 658.927977 365.860399 
L 658.995163 363.440175 
L 659.599836 362.253335 
L 659.667022 359.902925 
L 660.271696 358.739356 
L 660.338882 356.45876 
L 660.943555 355.318462 
L 661.010741 353.08441 
L 661.615415 351.990655 
L 661.6826 349.803144 
L 662.287274 348.732661 
L 662.35446 346.591693 
L 662.959133 345.544481 
L 663.026319 343.450057 
L 663.630993 342.426116 
L 663.698179 340.378234 
L 664.302852 339.377564 
L 664.370038 337.376225 
L 664.974711 336.375556 
L 665.041897 334.42076 
L 665.646571 333.443361 
L 665.713757 331.511837 
L 666.31843 330.55771 
L 666.385616 328.649456 
L 666.99029 327.718601 
L 667.057476 325.85689 
L 667.662149 324.926035 
L 667.729335 323.110867 
L 668.334008 322.203283 
L 668.401194 320.388115 
L 669.005868 319.503802 
L 669.073054 317.735177 
L 669.677727 316.850865 
L 669.744913 315.105511 
L 670.349586 314.24447 
L 670.416772 312.522387 
L 671.021446 311.661346 
L 671.088632 309.985806 
L 671.693305 309.148036 
L 671.760491 307.472497 
L 672.365165 306.634727 
L 672.432351 305.00573 
L 673.037024 304.191232 
L 673.10421 302.562235 
L 673.708883 301.747736 
L 673.776069 300.142011 
L 674.380743 299.350784 
L 674.447929 297.76833 
L 675.052602 296.977103 
L 675.119788 295.394649 
L 675.724461 294.626693 
L 675.791647 293.090781 
L 676.396321 292.322826 
L 676.463507 290.786914 
L 677.11857 290.018959 
L 677.146564 467.533076 
L 677.30613 472.559695 
L 677.30613 467.533076 
L 677.756836 461.296345 
L 678.157152 452.034335 
L 678.616256 444.703849 
L 678.641451 441.469126 
L 679.100555 438.420575 
L 679.134148 435.558195 
L 679.299313 432.835443 
L 679.772414 430.229048 
L 679.806007 427.73901 
L 679.971173 425.342057 
L 680.444274 423.03819 
L 680.477867 420.804137 
L 680.626236 418.639898 
L 681.116133 416.545474 
L 681.17772 412.519524 
L 681.787992 410.588 
L 681.84958 406.864578 
L 682.459852 405.04941 
L 682.521439 401.558703 
L 683.131711 399.859891 
L 683.193298 396.555355 
L 683.803571 394.949629 
L 683.865158 391.807993 
L 684.47543 390.272081 
L 684.537017 387.270073 
L 685.147289 385.803976 
L 685.208876 382.941595 
L 685.819149 381.522041 
L 685.880736 378.752746 
L 686.491008 377.403006 
L 686.552595 374.726797 
L 687.162867 373.423599 
L 687.224455 370.840476 
L 687.834727 369.583821 
L 687.896314 367.093783 
L 688.506586 365.860399 
L 688.568173 363.440175 
L 689.178446 362.253335 
L 689.240033 359.902925 
L 689.850305 358.739356 
L 689.911892 356.45876 
L 690.522164 355.318462 
L 690.583751 353.08441 
L 691.194024 351.990655 
L 691.255611 349.803144 
L 691.865883 348.732661 
L 691.92747 346.591693 
L 692.537742 345.544481 
L 692.59933 343.450057 
L 693.209602 342.426116 
L 693.271189 340.378234 
L 693.881461 339.377564 
L 693.943048 337.376225 
L 694.553321 336.375556 
L 694.614908 334.42076 
L 695.22518 333.443361 
L 695.286767 331.511837 
L 695.897039 330.55771 
L 695.958626 328.649456 
L 696.568899 327.718601 
L 696.630486 325.85689 
L 697.240758 324.926035 
L 697.302345 323.110867 
L 697.912617 322.203283 
L 697.974205 320.388115 
L 698.584477 319.503802 
L 698.646064 317.735177 
L 699.256336 316.850865 
L 699.317923 315.105511 
L 699.928196 314.24447 
L 699.989783 312.522387 
L 700.600055 311.661346 
L 700.661642 309.985806 
L 701.271914 309.148036 
L 701.333501 307.472497 
L 701.943774 306.634727 
L 702.005361 305.00573 
L 702.615633 304.191232 
L 702.67722 302.562235 
L 703.287493 301.747736 
L 703.34908 300.142011 
L 703.959352 299.350784 
L 704.020939 297.76833 
L 704.631211 296.977103 
L 704.692798 295.394649 
L 705.303071 294.626693 
L 705.364658 293.090781 
L 705.97493 292.322826 
L 706.036517 290.786914 
L 706.646789 290.018959 
L 706.708377 288.506319 
L 707.318649 287.761635 
L 707.380236 286.272266 
L 707.990508 285.527582 
L 708.052095 284.038213 
L 708.662368 283.293529 
L 708.723955 281.850703 
L 709.334227 281.12929 
L 709.395814 279.686464 
L 710.006086 278.965051 
L 710.067673 277.522226 
L 710.677946 276.800813 
L 710.739533 275.40453 
L 711.349805 274.706388 
L 711.411392 273.310105 
L 712.021664 272.611964 
L 712.083252 271.21568 
L 712.693524 270.517539 
L 712.755111 269.121256 
L 713.365383 268.446386 
L 713.42697 267.096646 
L 714.037243 266.421775 
L 714.09883 265.072035 
L 714.709102 264.397165 
L 714.770689 263.047425 
L 715.380961 262.372555 
L 715.442548 261.046086 
L 716.052821 260.394487 
L 716.114408 259.091289 
L 716.72468 258.439691 
L 716.786267 257.136493 
L 717.396539 256.484894 
L 717.458127 255.181697 
L 718.068399 254.530098 
L 718.129986 253.226901 
L 718.740258 252.598573 
L 718.801845 251.341919 
L 720.06998 250.085264 
L 720.145564 463.809655 
L 720.254741 465.112852 
L 720.254741 463.809655 
L 720.755836 458.387422 
L 721.139356 449.823553 
L 721.615257 442.842138 
L 721.640451 439.723772 
L 722.099555 436.791578 
L 722.133148 433.999012 
L 722.298314 431.346074 
L 722.771415 428.809493 
L 722.805007 426.365998 
L 722.953376 424.015588 
L 723.443274 421.758264 
L 723.504861 417.453058 
L 724.115133 415.381905 
L 724.17672 411.425769 
L 724.786993 409.517516 
L 724.84858 405.840637 
L 725.458852 404.048741 
L 725.520439 400.581304 
L 726.130711 398.905765 
L 726.192299 395.6245 
L 726.802571 394.018774 
L 726.864158 390.92368 
L 727.47443 389.41104 
L 727.536017 386.455574 
L 728.14629 384.989477 
L 728.207877 382.127097 
L 728.818149 380.730814 
L 728.879736 377.98479 
L 729.490008 376.63505 
L 729.551595 373.982112 
L 730.161868 372.678915 
L 730.223455 370.119063 
L 730.833727 368.862408 
L 730.895314 366.37237 
L 731.505586 365.138986 
L 731.567174 362.718763 
L 732.177446 361.531922 
L 732.239033 359.181512 
L 732.849305 358.017943 
L 732.910892 355.737347 
L 733.521165 354.620321 
L 733.582752 352.386268 
L 734.193024 351.292513 
L 734.254611 349.128274 
L 734.864883 348.057791 
L 734.92647 345.940095 
L 735.536743 344.892882 
L 735.59833 342.821729 
L 736.208602 341.797788 
L 736.270189 339.749906 
L 736.880461 338.749237 
L 736.942049 336.747898 
L 737.552321 335.7705 
L 737.613908 333.815704 
L 738.22418 332.838305 
L 738.285767 330.930052 
L 738.89604 329.975925 
L 738.957627 328.090943 
L 739.567899 327.160088 
L 739.629486 325.298377 
L 740.239758 324.390793 
L 740.301345 322.575625 
L 740.911618 321.668041 
L 740.973205 319.876145 
L 741.583477 318.991832 
L 741.645064 317.223207 
L 742.255337 316.338894 
L 742.316924 314.616812 
L 742.927196 313.755771 
L 742.988783 312.033688 
L 743.599055 311.172647 
L 743.660642 309.497107 
L 744.270915 308.659337 
L 744.332502 306.983798 
L 744.942774 306.146028 
L 745.004361 304.517031 
L 745.614633 303.702533 
L 745.676221 302.073536 
L 746.286493 301.259037 
L 746.34808 299.676583 
L 746.958352 298.885356 
L 747.019939 297.302902 
L 747.630212 296.511675 
L 747.691799 294.952492 
L 748.302071 294.184537 
L 748.363658 292.648625 
L 748.97393 291.88067 
L 749.035517 290.344758 
L 749.64579 289.576802 
L 749.707377 288.087434 
L 750.317649 287.34275 
L 750.379236 285.853381 
L 750.989508 285.108697 
L 751.051096 283.619328 
L 751.661368 282.874644 
L 751.722955 281.431818 
L 752.333227 280.710405 
L 752.394814 279.267579 
L 753.005087 278.546166 
L 753.066674 277.103341 
L 753.676946 276.381928 
L 753.738533 274.985645 
L 754.348805 274.287503 
L 754.410392 272.89122 
L 755.020665 272.193079 
L 755.082252 270.796796 
L 755.692524 270.098654 
L 755.754111 268.725642 
L 756.364383 268.050772 
L 756.425971 266.701032 
L 757.036243 266.026162 
L 757.09783 264.676422 
L 757.708102 264.001551 
L 757.769689 262.651811 
L 758.379962 261.976941 
L 758.441549 260.650472 
L 759.051821 259.998873 
L 759.113408 258.695676 
L 759.72368 258.044077 
L 759.785267 256.74088 
L 760.39554 256.089281 
L 760.457127 254.786083 
L 761.067399 254.134485 
L 761.128986 252.854558 
L 761.739259 252.226231 
L 761.800846 250.969576 
L 762.411118 250.341249 
L 762.472705 249.084594 
L 763.082977 248.456267 
L 763.144564 247.199612 
L 763.754837 246.571285 
L 763.816424 245.31463 
L 764.426696 244.686303 
L 764.488283 243.476191 
L 765.098555 242.871135 
L 765.160143 241.661023 
L 765.770415 241.055967 
L 765.832002 239.845855 
L 766.442274 239.240799 
L 766.503861 238.030687 
L 767.114134 237.425631 
L 767.175721 236.215519 
L 767.785993 235.610463 
L 767.84758 234.423622 
L 768.457852 233.841838 
L 768.519439 232.678268 
L 769.129712 232.096484 
L 769.191299 230.932915 
L 769.801571 230.35113 
L 769.863158 229.187561 
L 770.47343 228.605776 
L 770.535018 227.442207 
L 771.14529 226.860422 
L 771.206877 225.696853 
L 771.817149 225.115069 
L 771.878736 223.974771 
L 772.489009 223.416258 
L 772.550596 222.299231 
L 773.160868 221.740718 
L 773.222455 220.623692 
L 773.832727 220.065178 
L 773.894314 218.948152 
L 774.504587 218.389639 
L 774.566174 217.272612 
L 775.176446 216.714099 
L 775.238033 215.597073 
L 775.848305 215.038559 
L 775.909893 213.921533 
L 776.520165 213.36302 
L 776.581752 212.292536 
L 777.192024 211.757294 
L 777.253611 210.686811 
L 777.863884 210.151569 
L 777.925471 209.081085 
L 778.535743 208.545843 
L 778.59733 207.47536 
L 779.207602 206.940118 
L 779.269189 205.869634 
L 779.879462 205.334392 
L 779.941049 204.263909 
L 780.551321 203.728667 
L 780.612908 202.658183 
L 781.223181 202.122941 
L 781.284768 201.075729 
L 781.89504 200.563759 
L 781.956627 199.539818 
L 782.566899 199.027847 
L 782.628486 198.003906 
L 783.238759 197.491936 
L 783.300346 196.467995 
L 783.961007 195.956024 
L 784.148568 472.559695 
L 784.148568 467.533076 
L 784.582477 461.296345 
L 784.982794 452.034335 
L 785.441898 444.703849 
L 785.467092 441.469126 
L 785.926196 438.420575 
L 785.959789 435.558195 
L 786.124955 432.835443 
L 786.598056 430.229048 
L 786.631649 427.73901 
L 786.796814 425.342057 
L 787.269915 423.03819 
L 787.303508 420.804137 
L 787.451877 418.639898 
L 787.941774 416.545474 
L 788.003361 412.519524 
L 788.613634 410.588 
L 788.675221 406.864578 
L 789.285493 405.04941 
L 789.34708 401.558703 
L 789.957352 399.859891 
L 790.01894 396.555355 
L 790.629212 394.949629 
L 790.690799 391.807993 
L 791.351461 390.272081 
L 791.539021 472.559695 
L 791.539021 467.533076 
L 791.972931 461.296345 
L 792.373247 452.034335 
L 792.832351 444.703849 
L 792.857545 441.469126 
L 793.316649 438.420575 
L 793.350242 435.558195 
L 793.515408 432.835443 
L 793.988509 430.229048 
L 794.022102 427.73901 
L 794.187267 425.342057 
L 794.660368 423.03819 
L 794.693961 420.804137 
L 794.84233 418.639898 
L 795.332227 416.545474 
L 795.393815 412.519524 
L 796.004087 410.588 
L 796.065674 406.864578 
L 796.675946 405.04941 
L 796.737533 401.558703 
L 797.347806 399.859891 
L 797.409393 396.555355 
L 798.019665 394.949629 
L 798.081252 391.807993 
L 798.691524 390.272081 
L 798.753111 387.270073 
L 799.363384 385.803976 
L 799.424971 382.941595 
L 800.035243 381.522041 
L 800.09683 378.752746 
L 800.707102 377.403006 
L 800.76869 374.726797 
L 801.378962 373.423599 
L 801.440549 370.840476 
L 802.050821 369.583821 
L 802.112408 367.093783 
L 802.722681 365.860399 
L 802.784268 363.440175 
L 803.39454 362.253335 
L 803.456127 359.902925 
L 804.066399 358.739356 
L 804.127987 356.45876 
L 804.738259 355.318462 
L 804.799846 353.08441 
L 805.410118 351.990655 
L 805.471705 349.803144 
L 806.081978 348.732661 
L 806.143565 346.591693 
L 806.753837 345.544481 
L 806.815424 343.450057 
L 807.425696 342.426116 
L 807.487283 340.378234 
L 808.097556 339.377564 
L 808.159143 337.376225 
L 808.769415 336.375556 
L 808.831002 334.42076 
L 809.441274 333.443361 
L 809.502862 331.511837 
L 810.113134 330.55771 
L 810.174721 328.649456 
L 810.784993 327.718601 
L 810.84658 325.85689 
L 811.456853 324.926035 
L 811.51844 323.110867 
L 812.128712 322.203283 
L 812.190299 320.388115 
L 812.800571 319.503802 
L 812.862158 317.735177 
L 813.472431 316.850865 
L 813.534018 315.105511 
L 814.14429 314.24447 
L 814.205877 312.522387 
L 814.816149 311.661346 
L 814.877737 309.985806 
L 815.488009 309.148036 
L 815.549596 307.472497 
L 816.159868 306.634727 
L 816.221455 305.00573 
L 816.831728 304.191232 
L 816.893315 302.562235 
L 817.503587 301.747736 
L 817.565174 300.142011 
L 818.175446 299.350784 
L 818.237033 297.76833 
L 818.847306 296.977103 
L 818.908893 295.394649 
L 819.519165 294.626693 
L 819.580752 293.090781 
L 820.191024 292.322826 
L 820.252612 290.786914 
L 820.862884 290.018959 
L 820.924471 288.506319 
L 821.534743 287.761635 
L 821.59633 286.272266 
L 822.206603 285.527582 
L 822.26819 284.038213 
L 822.878462 283.293529 
L 822.940049 281.850703 
L 823.550321 281.12929 
L 823.611908 279.686464 
L 824.222181 278.965051 
L 824.283768 277.522226 
L 824.89404 276.800813 
L 824.955627 275.40453 
L 825.5659 274.706388 
L 825.627487 273.310105 
L 826.237759 272.611964 
L 826.299346 271.21568 
L 826.909618 270.517539 
L 826.971205 269.121256 
L 827.581478 268.446386 
L 827.643065 267.096646 
L 828.253337 266.421775 
L 828.314924 265.072035 
L 828.925196 264.397165 
L 828.986784 263.047425 
L 829.597056 262.372555 
L 829.658643 261.046086 
L 830.268915 260.394487 
L 830.330502 259.091289 
L 830.940775 258.439691 
L 831.002362 257.136493 
L 831.612634 256.484894 
L 831.674221 255.181697 
L 832.284493 254.530098 
L 832.34608 253.226901 
L 832.956353 252.598573 
L 833.01794 251.341919 
L 833.628212 250.713591 
L 833.689799 249.456936 
L 834.300071 248.828609 
L 834.361659 247.571954 
L 834.971931 246.943627 
L 835.033518 245.686972 
L 835.64379 245.058645 
L 835.705377 243.825261 
L 836.31565 243.220205 
L 836.377237 242.010094 
L 836.987509 241.405038 
L 837.049096 240.194926 
L 837.659368 239.58987 
L 837.720955 238.379758 
L 838.331228 237.774702 
L 838.392815 236.56459 
L 839.003087 235.959534 
L 839.064674 234.749422 
L 839.674946 234.167637 
L 839.736534 233.004068 
L 840.346806 232.422283 
L 840.408393 231.258714 
L 841.018665 230.676929 
L 841.080252 229.51336 
L 841.690525 228.931576 
L 841.752112 227.768006 
L 842.362384 227.186222 
L 842.423971 226.022653 
L 843.034243 225.440868 
L 843.09583 224.30057 
L 843.706103 223.742057 
L 843.76769 222.625031 
L 844.377962 222.066517 
L 844.439549 220.949491 
L 845.049822 220.390978 
L 845.111409 219.273951 
L 845.721681 218.715438 
L 845.783268 217.598412 
L 846.39354 217.039898 
L 846.455127 215.922872 
L 847.0654 215.364359 
L 847.126987 214.247332 
L 847.737259 213.688819 
L 847.798846 212.618335 
L 848.409118 212.083094 
L 848.470706 211.01261 
L 849.080978 210.477368 
L 849.142565 209.406884 
L 849.752837 208.871643 
L 849.814424 207.801159 
L 850.424697 207.265917 
L 850.486284 206.195433 
L 851.096556 205.660192 
L 851.158143 204.589708 
L 851.768415 204.054466 
L 851.830002 202.983982 
L 852.440275 202.448741 
L 852.501862 201.378257 
L 853.112134 200.866287 
L 853.173721 199.842346 
L 853.783993 199.330375 
L 853.845581 198.306434 
L 854.455853 197.794464 
L 854.51744 196.770523 
L 855.127712 196.258552 
L 855.189299 195.234612 
L 855.799572 194.722641 
L 855.861159 193.6987 
L 856.471431 193.18673 
L 856.533018 192.162789 
L 857.14329 191.650818 
L 857.204877 190.626878 
L 857.81515 190.114907 
L 857.876737 189.090966 
L 858.487009 188.578996 
L 858.548596 187.601598 
L 859.158868 187.112899 
L 859.220456 186.1355 
L 859.830728 185.646801 
L 859.892315 184.669403 
L 860.502587 184.180704 
L 860.564174 183.203306 
L 861.174447 182.714607 
L 861.236034 181.737209 
L 861.846306 181.24851 
L 861.907893 180.271112 
L 862.518165 179.782413 
L 862.579752 178.805014 
L 863.190025 178.316315 
L 863.251612 177.338917 
L 863.861884 176.850218 
L 863.923471 175.87282 
L 864.533744 175.384121 
L 864.595331 174.406723 
L 865.205603 173.918024 
L 865.26719 172.987168 
L 865.877462 172.521741 
L 865.939049 171.590885 
L 866.549322 171.125458 
L 866.610909 170.194602 
L 867.221181 169.729175 
L 867.282768 168.798319 
L 867.89304 168.332892 
L 867.954628 167.402036 
L 868.5649 166.936609 
L 868.626487 166.005753 
L 869.236759 165.540326 
L 869.298346 164.60947 
L 869.908619 164.144042 
L 869.970206 163.213187 
L 870.580478 162.747759 
L 870.642065 161.816904 
L 871.252337 161.351476 
L 871.313924 160.420621 
L 871.924197 159.955193 
L 871.985784 159.024338 
L 872.596056 158.55891 
L 872.657643 157.651326 
L 873.267915 157.20917 
L 873.329503 156.324857 
L 873.939775 155.882701 
L 874.001362 154.998389 
L 874.611634 154.556232 
L 874.673221 153.67192 
L 875.283494 153.229763 
L 875.345081 152.345451 
L 875.955353 151.903294 
L 876.01694 151.018982 
L 876.627212 150.576826 
L 876.688799 149.692513 
L 877.299072 149.250357 
L 877.360659 148.366044 
L 877.970931 147.923888 
L 878.032518 147.039575 
L 878.64279 146.597419 
L 878.704378 145.713106 
L 879.31465 145.27095 
L 879.376237 144.386637 
L 879.986509 143.944481 
L 880.048096 143.060169 
L 880.658369 142.618012 
L 880.719956 141.7337 
L 881.330228 141.291543 
L 881.391815 140.407231 
L 882.002087 139.988346 
L 882.063674 139.150576 
L 882.673947 138.731691 
L 882.735534 137.893921 
L 883.345806 137.475036 
L 883.407393 136.637267 
L 884.017666 136.218382 
L 884.079253 135.380612 
L 884.689525 134.961727 
L 884.751112 134.123957 
L 885.361384 133.705072 
L 885.422971 132.867302 
L 886.033244 132.448417 
L 886.094831 131.610648 
L 886.705103 131.191763 
L 886.76669 130.353993 
L 887.376962 129.935108 
L 887.43855 129.097338 
L 888.048822 128.678453 
L 888.110409 127.840683 
L 888.720681 127.421798 
L 888.782268 126.584029 
L 889.392541 126.165144 
L 889.454128 125.327374 
L 890.0644 124.908489 
L 890.125987 124.070719 
L 890.736259 123.651834 
L 890.797846 122.814064 
L 891.408119 122.395179 
L 891.469706 121.55741 
L 892.079978 121.138525 
L 892.141565 120.324026 
L 892.751837 119.928413 
L 892.813425 119.137186 
L 893.423697 118.741572 
L 893.485284 117.950345 
L 894.095556 117.554732 
L 894.157143 116.763505 
L 894.767416 116.367891 
L 894.829003 115.576664 
L 895.439275 115.18105 
L 895.500862 114.389823 
L 896.111134 113.99421 
L 896.172721 113.202983 
L 896.782994 112.807369 
L 896.844581 112.016142 
L 897.454853 111.620529 
L 897.51644 110.829302 
L 898.126712 110.433688 
L 898.1883 109.642461 
L 898.798572 109.246848 
L 898.860159 108.45562 
L 899.470431 108.060007 
L 899.532018 107.26878 
L 900.142291 106.873166 
L 900.203878 106.081939 
L 900.81415 105.686326 
L 900.875737 104.895099 
L 901.486009 104.499485 
L 901.547596 103.708258 
L 902.157869 103.312645 
L 902.219456 102.521418 
L 902.829728 102.125804 
L 902.891315 101.334577 
L 903.501588 100.938963 
L 903.563175 100.147736 
L 904.173447 99.752123 
L 904.235034 98.960896 
L 904.845306 98.588554 
L 904.906893 97.843869 
L 905.517166 97.471527 
L 905.578753 96.726843 
L 906.189025 96.354501 
L 906.250612 95.609816 
L 906.860884 95.237474 
L 906.922472 94.49279 
L 907.532744 94.120448 
L 907.594331 93.375764 
L 908.204603 93.003421 
L 908.26619 92.258737 
L 908.876463 91.886395 
L 908.93805 91.141711 
L 909.548322 90.769369 
L 909.609909 90.024684 
L 910.220181 89.652342 
L 910.281768 89.28 
L 910.46653 480.006538 
L 910.46653 467.533076 
L 910.892041 461.296345 
L 911.292357 452.034335 
L 911.751461 444.703849 
L 911.776656 441.469126 
L 912.235759 438.420575 
L 912.269352 435.558195 
L 912.434518 432.835443 
L 912.907619 430.229048 
L 912.941212 427.73901 
L 913.106377 425.342057 
L 913.579478 423.03819 
L 913.613071 420.804137 
L 913.76144 418.639898 
L 914.251338 416.545474 
L 914.312925 412.519524 
L 914.923197 410.588 
L 914.984784 406.864578 
L 915.595056 405.04941 
L 915.656643 401.558703 
L 916.266916 399.859891 
L 916.328503 396.555355 
L 916.938775 394.949629 
L 917.000362 391.807993 
L 917.610634 390.272081 
L 917.672222 387.270073 
L 918.282494 385.803976 
L 918.344081 382.941595 
L 918.954353 381.522041 
L 919.01594 378.752746 
L 919.626213 377.403006 
L 919.6878 374.726797 
L 920.298072 373.423599 
L 920.359659 370.840476 
L 920.969931 369.583821 
L 921.031518 367.093783 
L 921.641791 365.860399 
L 921.703378 363.440175 
L 922.31365 362.253335 
L 922.375237 359.902925 
L 922.985509 358.739356 
L 923.047097 356.45876 
L 923.657369 355.318462 
L 923.718956 353.08441 
L 924.329228 351.990655 
L 924.390815 349.803144 
L 925.001088 348.732661 
L 925.062675 346.591693 
L 925.672947 345.544481 
L 925.734534 343.450057 
L 926.344806 342.426116 
L 926.406394 340.378234 
L 927.016666 339.377564 
L 927.078253 337.376225 
L 927.688525 336.375556 
L 927.750112 334.42076 
L 928.360385 333.443361 
L 928.421972 331.511837 
L 929.032244 330.55771 
L 929.093831 328.649456 
L 929.704103 327.718601 
L 929.76569 325.85689 
L 930.375963 324.926035 
L 930.43755 323.110867 
L 931.047822 322.203283 
L 931.109409 320.388115 
L 931.719681 319.503802 
L 931.781269 317.735177 
L 932.391541 316.850865 
L 932.453128 315.105511 
L 933.0634 314.24447 
L 933.124987 312.522387 
L 933.73526 311.661346 
L 933.796847 309.985806 
L 934.407119 309.148036 
L 934.468706 307.472497 
L 935.078978 306.634727 
L 935.140565 305.00573 
L 935.750838 304.191232 
L 935.812425 302.562235 
L 936.422697 301.747736 
L 936.484284 300.142011 
L 937.094556 299.350784 
L 937.156144 297.76833 
L 937.766416 296.977103 
L 937.828003 295.394649 
L 938.438275 294.626693 
L 938.499862 293.090781 
L 939.110135 292.322826 
L 939.171722 290.786914 
L 939.781994 290.018959 
L 939.843581 288.506319 
L 940.453853 287.761635 
L 940.51544 286.272266 
L 941.125713 285.527582 
L 941.1873 284.038213 
L 941.797572 283.293529 
L 941.859159 282.572116 
L 942.043921 480.006538 
L 942.043921 467.533076 
L 942.469431 461.296345 
L 942.869748 452.034335 
L 943.328852 444.703849 
L 943.354046 441.469126 
L 943.81315 438.420575 
L 943.846743 435.558195 
L 944.011909 432.835443 
L 944.48501 430.229048 
L 944.518603 427.73901 
L 944.683768 425.342057 
L 945.156869 423.03819 
L 945.190462 420.804137 
L 945.338831 418.639898 
L 945.828728 416.545474 
L 945.890315 412.519524 
L 946.500588 410.588 
L 946.562175 406.864578 
L 947.172447 405.04941 
L 947.234034 401.558703 
L 947.844307 399.859891 
L 947.905894 396.555355 
L 948.516166 394.949629 
L 948.577753 391.807993 
L 949.188025 390.272081 
L 949.249612 387.270073 
L 949.859885 385.803976 
L 949.921472 382.941595 
L 950.531744 381.522041 
L 950.593331 378.752746 
L 951.203603 377.403006 
L 951.265191 374.726797 
L 951.875463 373.423599 
L 951.93705 370.840476 
L 952.547322 369.583821 
L 952.608909 367.093783 
L 953.219182 365.860399 
L 953.280769 363.440175 
L 953.891041 362.253335 
L 953.952628 359.902925 
L 954.5629 358.739356 
L 954.624487 356.45876 
L 955.23476 355.318462 
L 955.296347 353.08441 
L 955.906619 351.990655 
L 955.968206 349.803144 
L 956.578478 348.732661 
L 956.640066 346.591693 
L 957.250338 345.544481 
L 957.311925 343.450057 
L 957.922197 342.426116 
L 957.983784 340.378234 
L 958.594057 339.377564 
L 958.655644 337.376225 
L 959.265916 336.375556 
L 959.327503 334.42076 
L 959.937775 333.443361 
L 959.999362 331.511837 
L 960.609635 330.55771 
L 960.671222 328.649456 
L 961.281494 327.718601 
L 961.343081 325.85689 
L 961.953353 324.926035 
L 962.014941 323.110867 
L 962.625213 322.203283 
L 962.6868 320.388115 
L 963.297072 319.503802 
L 963.358659 317.735177 
L 963.968932 316.850865 
L 964.030519 315.105511 
L 964.640791 314.24447 
L 964.702378 312.522387 
L 965.31265 311.661346 
L 965.374237 309.985806 
L 965.98451 309.148036 
L 966.046097 307.472497 
L 966.656369 306.634727 
L 966.717956 305.00573 
L 967.328229 304.191232 
L 967.389816 302.562235 
L 968.000088 301.747736 
L 968.061675 300.142011 
L 968.671947 299.350784 
L 968.733534 297.76833 
L 969.343807 296.977103 
L 969.405394 295.394649 
L 970.015666 294.626693 
L 970.077253 293.090781 
L 970.687525 292.322826 
L 970.749113 290.786914 
L 971.359385 290.018959 
L 971.420972 288.506319 
L 972.031244 287.761635 
L 972.092831 286.272266 
L 972.703104 285.527582 
L 972.764691 284.038213 
L 973.374963 283.293529 
L 973.43655 281.850703 
L 974.046822 281.12929 
L 974.108409 279.686464 
L 974.718682 278.965051 
L 974.780269 277.522226 
L 975.390541 276.800813 
L 975.452128 275.40453 
L 976.0624 274.706388 
L 976.123988 273.310105 
L 976.73426 272.611964 
L 976.795847 271.21568 
L 977.406119 270.517539 
L 977.467706 269.121256 
L 978.077979 268.446386 
L 978.139566 267.096646 
L 978.749838 266.421775 
L 978.811425 265.072035 
L 979.421697 264.397165 
L 979.483284 263.047425 
L 980.093557 262.372555 
L 980.155144 261.046086 
L 980.799009 260.394487 
L 980.827003 467.533076 
L 980.98657 472.559695 
L 980.98657 467.533076 
L 981.437275 461.296345 
L 981.837592 452.034335 
L 982.296696 444.703849 
L 982.32189 441.469126 
L 982.780994 438.420575 
L 982.814587 435.558195 
L 982.979753 432.835443 
L 983.452854 430.229048 
L 983.486447 427.73901 
L 983.651612 425.342057 
L 984.124713 423.03819 
L 984.158306 420.804137 
L 984.306675 418.639898 
L 984.796572 416.545474 
L 984.858159 412.519524 
L 985.468432 410.588 
L 985.530019 408.703017 
L 985.71478 480.006538 
L 985.71478 467.533076 
L 986.140291 461.296345 
L 986.540607 452.034335 
L 986.999711 444.703849 
L 987.024906 441.469126 
L 987.48401 438.420575 
L 987.517603 435.558195 
L 987.682768 432.835443 
L 988.155869 430.229048 
L 988.189462 427.73901 
L 988.354628 425.342057 
L 988.827729 423.03819 
L 988.861322 420.804137 
L 989.009691 418.639898 
L 989.499588 416.545474 
L 989.561175 412.519524 
L 990.171447 410.588 
L 990.233035 406.864578 
L 990.843307 405.04941 
L 990.904894 401.558703 
L 991.515166 399.859891 
L 991.576753 396.555355 
L 992.187026 394.949629 
L 992.248613 391.807993 
L 992.858885 390.272081 
L 992.920472 387.270073 
L 993.530744 385.803976 
L 993.592331 382.941595 
L 994.202604 381.522041 
L 994.264191 378.752746 
L 994.874463 377.403006 
L 994.93605 374.726797 
L 995.546322 373.423599 
L 995.60791 370.840476 
L 996.218182 369.583821 
L 996.218182 369.583821 
" clip-path="url(#p1e99acc6ea)" style="fill: none; stroke: #1f77b4; stroke-width: 1.5; stroke-linecap: square"/>
   </g>
   <g id="patch_3">
    <path d="M 144 512.64 
L 144 69.12 
" style="fill: none; stroke: #000000; stroke-width: 0.8; stroke-linejoin: miter; stroke-linecap: square"/>
   </g>
   <g id="patch_4">
    <path d="M 1036.8 512.64 
L 1036.8 69.12 
" style="fill: none; stroke: #000000; stroke-width: 0.8; stroke-linejoin: miter; stroke-linecap: square"/>
   </g>
   <g id="patch_5">
    <path d="M 144 512.64 
L 1036.8 512.64 
" style="fill: none; stroke: #000000; stroke-width: 0.8; stroke-linejoin: miter; stroke-linecap: square"/>
   </g>
   <g id="patch_6">
    <path d="M 144 69.12 
L 1036.8 69.12 
" style="fill: none; stroke: #000000; stroke-width: 0.8; stroke-linejoin: miter; stroke-linecap: square"/>
   </g>
   <g id="text_18">
    <!-- Graph of congestion window vs Time result/tcpveno -->
    <g transform="translate(421.605156 63.12) scale(0.13 -0.13)">
     <defs>
      <path id="DejaVuSans-47" d="M 3809 666 
L 3809 1919 
L 2778 1919 
L 2778 2438 
L 4434 2438 
L 4434 434 
Q 4069 175 3628 42 
Q 3188 -91 2688 -91 
Q 1594 -91 976 548 
Q 359 1188 359 2328 
Q 359 3472 976 4111 
Q 1594 4750 2688 4750 
Q 3144 4750 3555 4637 
Q 3966 4525 4313 4306 
L 4313 3634 
Q 3963 3931 3569 4081 
Q 3175 4231 2741 4231 
Q 1884 4231 1454 3753 
Q 1025 3275 1025 2328 
Q 1025 1384 1454 906 
Q 1884 428 2741 428 
Q 3075 428 3337 486 
Q 3600 544 3809 666 
z
" transform="scale(0.015625)"/>
      <path id="DejaVuSans-72" d="M 2631 2963 
Q 2534 3019 2420 3045 
Q 2306 3072 2169 3072 
Q 1681 3072 1420 2755 
Q 1159 2438 1159 1844 
L 1159 0 
L 581 0 
L 581 3500 
L 1159 3500 
L 1159 2956 
Q 1341 3275 1631 3429 
Q 1922 3584 2338 3584 
Q 2397 3584 2469 3576 
Q 2541 3569 2628 3553 
L 2631 2963 
z
" transform="scale(0.015625)"/>
      <path id="DejaVuSans-61" d="M 2194 1759 
Q 1497 1759 1228 1600 
Q 959 1441 959 1056 
Q 959 750 1161 570 
Q 1363 391 1709 391 
Q 2188 391 2477 730 
Q 2766 1069 2766 1631 
L 2766 1759 
L 2194 1759 
z
M 3341 1997 
L 3341 0 
L 2766 0 
L 2766 531 
Q 2569 213 2275 61 
Q 1981 -91 1556 -91 
Q 1019 -91 701 211 
Q 384 513 384 1019 
Q 384 1609 779 1909 
Q 1175 2209 1959 2209 
L 2766 2209 
L 2766 2266 
Q 2766 2663 2505 2880 
Q 2244 3097 1772 3097 
Q 1472 3097 1187 3025 
Q 903 2953 641 2809 
L 641 3341 
Q 956 3463 1253 3523 
Q 1550 3584 1831 3584 
Q 2591 3584 2966 3190 
Q 3341 2797 3341 1997 
z
" transform="scale(0.015625)"/>
      <path id="DejaVuSans-70" d="M 1159 525 
L 1159 -1331 
L 581 -1331 
L 581 3500 
L 1159 3500 
L 1159 2969 
Q 1341 3281 1617 3432 
Q 1894 3584 2278 3584 
Q 2916 3584 3314 3078 
Q 3713 2572 3713 1747 
Q 3713 922 3314 415 
Q 2916 -91 2278 -91 
Q 1894 -91 1617 61 
Q 1341 213 1159 525 
z
M 3116 1747 
Q 3116 2381 2855 2742 
Q 2594 3103 2138 3103 
Q 1681 3103 1420 2742 
Q 1159 2381 1159 1747 
Q 1159 1113 1420 752 
Q 1681 391 2138 391 
Q 2594 391 2855 752 
Q 3116 1113 3116 1747 
z
" transform="scale(0.015625)"/>
      <path id="DejaVuSans-68" d="M 3513 2113 
L 3513 0 
L 2938 0 
L 2938 2094 
Q 2938 2591 2744 2837 
Q 2550 3084 2163 3084 
Q 1697 3084 1428 2787 
Q 1159 2491 1159 1978 
L 1159 0 
L 581 0 
L 581 4863 
L 1159 4863 
L 1159 2956 
Q 1366 3272 1645 3428 
Q 1925 3584 2291 3584 
Q 2894 3584 3203 3211 
Q 3513 2838 3513 2113 
z
" transform="scale(0.015625)"/>
      <path id="DejaVuSans-66" d="M 2375 4863 
L 2375 4384 
L 1825 4384 
Q 1516 4384 1395 4259 
Q 1275 4134 1275 3809 
L 1275 3500 
L 2222 3500 
L 2222 3053 
L 1275 3053 
L 1275 0 
L 697 0 
L 697 3053 
L 147 3053 
L 147 3500 
L 697 3500 
L 697 3744 
Q 697 4328 969 4595 
Q 1241 4863 1831 4863 
L 2375 4863 
z
" transform="scale(0.015625)"/>
      <path id="DejaVuSans-76" d="M 191 3500 
L 800 3500 
L 1894 563 
L 2988 3500 
L 3597 3500 
L 2284 0 
L 1503 0 
L 191 3500 
z
" transform="scale(0.015625)"/>
      <path id="DejaVuSans-75" d="M 544 1381 
L 544 3500 
L 1119 3500 
L 1119 1403 
Q 1119 906 1312 657 
Q 1506 409 1894 409 
Q 2359 409 2629 706 
Q 2900 1003 2900 1516 
L 2900 3500 
L 3475 3500 
L 3475 0 
L 2900 0 
L 2900 538 
Q 2691 219 2414 64 
Q 2138 -91 1772 -91 
Q 1169 -91 856 284 
Q 544 659 544 1381 
z
M 1991 3584 
L 1991 3584 
z
" transform="scale(0.015625)"/>
      <path id="DejaVuSans-6c" d="M 603 4863 
L 1178 4863 
L 1178 0 
L 603 0 
L 603 4863 
z
" transform="scale(0.015625)"/>
      <path id="DejaVuSans-2f" d="M 1625 4666 
L 2156 4666 
L 531 -594 
L 0 -594 
L 1625 4666 
z
" transform="scale(0.015625)"/>
     </defs>
     <use xlink:href="#DejaVuSans-47"/>
     <use xlink:href="#DejaVuSans-72" x="77.490234"/>
     <use xlink:href="#DejaVuSans-61" x="118.603516"/>
     <use xlink:href="#DejaVuSans-70" x="179.882812"/>
     <use xlink:href="#DejaVuSans-68" x="243.359375"/>
     <use xlink:href="#DejaVuSans-20" x="306.738281"/>
     <use xlink:href="#DejaVuSans-6f" x="338.525391"/>
     <use xlink:href="#DejaVuSans-66" x="399.707031"/>
     <use xlink:href="#DejaVuSans-20" x="434.912109"/>
     <use xlink:href="#DejaVuSans-63" x="466.699219"/>
     <use xlink:href="#DejaVuSans-6f" x="521.679688"/>
     <use xlink:href="#DejaVuSans-6e" x="582.861328"/>
     <use xlink:href="#DejaVuSans-67" x="646.240234"/>
     <use xlink:href="#DejaVuSans-65" x="709.716797"/>
     <use xlink:href="#DejaVuSans-73" x="771.240234"/>
     <use xlink:href="#DejaVuSans-74" x="823.339844"/>
     <use xlink:href="#DejaVuSans-69" x="862.548828"/>
     <use xlink:href="#DejaVuSans-6f" x="890.332031"/>
     <use xlink:href="#DejaVuSans-6e" x="951.513672"/>
     <use xlink:href="#DejaVuSans-20" x="1014.892578"/>
     <use xlink:href="#DejaVuSans-77" x="1046.679688"/>
     <use xlink:href="#DejaVuSans-69" x="1128.466797"/>
     <use xlink:href="#DejaVuSans-6e" x="1156.25"/>
     <use xlink:href="#DejaVuSans-64" x="1219.628906"/>
     <use xlink:href="#DejaVuSans-6f" x="1283.105469"/>
     <use xlink:href="#DejaVuSans-77" x="1344.287109"/>
     <use xlink:href="#DejaVuSans-20" x="1426.074219"/>
     <use xlink:href="#DejaVuSans-76" x="1457.861328"/>
     <use xlink:href="#DejaVuSans-73" x="1517.041016"/>
     <use xlink:href="#DejaVuSans-20" x="1569.140625"/>
     <use xlink:href="#DejaVuSans-54" x="1600.927734"/>
     <use xlink:href="#DejaVuSans-69" x="1658.886719"/>
     <use xlink:href="#DejaVuSans-6d" x="1686.669922"/>
     <use xlink:href="#DejaVuSans-65" x="1784.082031"/>
     <use xlink:href="#DejaVuSans-20" x="1845.605469"/>
     <use xlink:href="#DejaVuSans-72" x="1877.392578"/>
     <use xlink:href="#DejaVuSans-65" x="1916.255859"/>
     <use xlink:href="#DejaVuSans-73" x="1977.779297"/>
     <use xlink:href="#DejaVuSans-75" x="2029.878906"/>
     <use xlink:href="#DejaVuSans-6c" x="2093.257812"/>
     <use xlink:href="#DejaVuSans-74" x="2121.041016"/>
     <use xlink:href="#DejaVuSans-2f" x="2160.25"/>
     <use xlink:href="#DejaVuSans-74" x="2193.941406"/>
     <use xlink:href="#DejaVuSans-63" x="2233.150391"/>
     <use xlink:href="#DejaVuSans-70" x="2288.130859"/>
     <use xlink:href="#DejaVuSans-76" x="2351.607422"/>
     <use xlink:href="#DejaVuSans-65" x="2410.787109"/>
     <use xlink:href="#DejaVuSans-6e" x="2472.310547"/>
     <use xlink:href="#DejaVuSans-6f" x="2535.689453"/>
    </g>
   </g>
  </g>
 </g>
 <defs>
  <clipPath id="p1e99acc6ea">
   <rect x="144" y="69.12" width="892.8" height="443.52"/>
  </clipPath>
 </defs>
</svg>
