<?xml version="1.0" encoding="utf-8" standalone="no"?>
<!DOCTYPE svg PUBLIC "-//W3C//DTD SVG 1.1//EN"
  "http://www.w3.org/Graphics/SVG/1.1/DTD/svg11.dtd">
<svg xmlns:xlink="http://www.w3.org/1999/xlink" width="1152pt" height="576pt" viewBox="0 0 1152 576" xmlns="http://www.w3.org/2000/svg" version="1.1">
 <metadata>
  <rdf:RDF xmlns:dc="http://purl.org/dc/elements/1.1/" xmlns:cc="http://creativecommons.org/ns#" xmlns:rdf="http://www.w3.org/1999/02/22-rdf-syntax-ns#">
   <cc:Work>
    <dc:type rdf:resource="http://purl.org/dc/dcmitype/StillImage"/>
    <dc:date>2023-01-05T15:16:24.175164</dc:date>
    <dc:format>image/svg+xml</dc:format>
    <dc:creator>
     <cc:Agent>
      <dc:title>Matplotlib v3.6.2, https://matplotlib.org/</dc:title>
     </cc:Agent>
    </dc:creator>
   </cc:Work>
  </rdf:RDF>
 </metadata>
 <defs>
  <style type="text/css">*{stroke-linejoin: round; stroke-linecap: butt}</style>
 </defs>
 <g id="figure_1">
  <g id="patch_1">
   <path d="M 0 576 
L 1152 576 
L 1152 0 
L 0 0 
z
" style="fill: #ffffff"/>
  </g>
  <g id="axes_1">
   <g id="patch_2">
    <path d="M 144 512.64 
L 1036.8 512.64 
L 1036.8 69.12 
L 144 69.12 
z
" style="fill: #ffffff"/>
   </g>
   <g id="matplotlib.axis_1">
    <g id="xtick_1">
     <g id="line2d_1">
      <defs>
       <path id="m4c421f0498" d="M 0 0 
L 0 3.5 
" style="stroke: #000000; stroke-width: 0.8"/>
      </defs>
      <g>
       <use xlink:href="#m4c421f0498" x="156.417519" y="512.64" style="stroke: #000000; stroke-width: 0.8"/>
      </g>
     </g>
     <g id="text_1">
      <!-- 0 -->
      <g transform="translate(153.236269 527.238438) scale(0.1 -0.1)">
       <defs>
        <path id="DejaVuSans-30" d="M 2034 4250 
Q 1547 4250 1301 3770 
Q 1056 3291 1056 2328 
Q 1056 1369 1301 889 
Q 1547 409 2034 409 
Q 2525 409 2770 889 
Q 3016 1369 3016 2328 
Q 3016 3291 2770 3770 
Q 2525 4250 2034 4250 
z
M 2034 4750 
Q 2819 4750 3233 4129 
Q 3647 3509 3647 2328 
Q 3647 1150 3233 529 
Q 2819 -91 2034 -91 
Q 1250 -91 836 529 
Q 422 1150 422 2328 
Q 422 3509 836 4129 
Q 1250 4750 2034 4750 
z
" transform="scale(0.015625)"/>
       </defs>
       <use xlink:href="#DejaVuSans-30"/>
      </g>
     </g>
    </g>
    <g id="xtick_2">
     <g id="line2d_2">
      <g>
       <use xlink:href="#m4c421f0498" x="296.38243" y="512.64" style="stroke: #000000; stroke-width: 0.8"/>
      </g>
     </g>
     <g id="text_2">
      <!-- 5 -->
      <g transform="translate(293.20118 527.238438) scale(0.1 -0.1)">
       <defs>
        <path id="DejaVuSans-35" d="M 691 4666 
L 3169 4666 
L 3169 4134 
L 1269 4134 
L 1269 2991 
Q 1406 3038 1543 3061 
Q 1681 3084 1819 3084 
Q 2600 3084 3056 2656 
Q 3513 2228 3513 1497 
Q 3513 744 3044 326 
Q 2575 -91 1722 -91 
Q 1428 -91 1123 -41 
Q 819 9 494 109 
L 494 744 
Q 775 591 1075 516 
Q 1375 441 1709 441 
Q 2250 441 2565 725 
Q 2881 1009 2881 1497 
Q 2881 1984 2565 2268 
Q 2250 2553 1709 2553 
Q 1456 2553 1204 2497 
Q 953 2441 691 2322 
L 691 4666 
z
" transform="scale(0.015625)"/>
       </defs>
       <use xlink:href="#DejaVuSans-35"/>
      </g>
     </g>
    </g>
    <g id="xtick_3">
     <g id="line2d_3">
      <g>
       <use xlink:href="#m4c421f0498" x="436.347341" y="512.64" style="stroke: #000000; stroke-width: 0.8"/>
      </g>
     </g>
     <g id="text_3">
      <!-- 10 -->
      <g transform="translate(429.984841 527.238438) scale(0.1 -0.1)">
       <defs>
        <path id="DejaVuSans-31" d="M 794 531 
L 1825 531 
L 1825 4091 
L 703 3866 
L 703 4441 
L 1819 4666 
L 2450 4666 
L 2450 531 
L 3481 531 
L 3481 0 
L 794 0 
L 794 531 
z
" transform="scale(0.015625)"/>
       </defs>
       <use xlink:href="#DejaVuSans-31"/>
       <use xlink:href="#DejaVuSans-30" x="63.623047"/>
      </g>
     </g>
    </g>
    <g id="xtick_4">
     <g id="line2d_4">
      <g>
       <use xlink:href="#m4c421f0498" x="576.312252" y="512.64" style="stroke: #000000; stroke-width: 0.8"/>
      </g>
     </g>
     <g id="text_4">
      <!-- 15 -->
      <g transform="translate(569.949752 527.238438) scale(0.1 -0.1)">
       <use xlink:href="#DejaVuSans-31"/>
       <use xlink:href="#DejaVuSans-35" x="63.623047"/>
      </g>
     </g>
    </g>
    <g id="xtick_5">
     <g id="line2d_5">
      <g>
       <use xlink:href="#m4c421f0498" x="716.277163" y="512.64" style="stroke: #000000; stroke-width: 0.8"/>
      </g>
     </g>
     <g id="text_5">
      <!-- 20 -->
      <g transform="translate(709.914663 527.238438) scale(0.1 -0.1)">
       <defs>
        <path id="DejaVuSans-32" d="M 1228 531 
L 3431 531 
L 3431 0 
L 469 0 
L 469 531 
Q 828 903 1448 1529 
Q 2069 2156 2228 2338 
Q 2531 2678 2651 2914 
Q 2772 3150 2772 3378 
Q 2772 3750 2511 3984 
Q 2250 4219 1831 4219 
Q 1534 4219 1204 4116 
Q 875 4013 500 3803 
L 500 4441 
Q 881 4594 1212 4672 
Q 1544 4750 1819 4750 
Q 2544 4750 2975 4387 
Q 3406 4025 3406 3419 
Q 3406 3131 3298 2873 
Q 3191 2616 2906 2266 
Q 2828 2175 2409 1742 
Q 1991 1309 1228 531 
z
" transform="scale(0.015625)"/>
       </defs>
       <use xlink:href="#DejaVuSans-32"/>
       <use xlink:href="#DejaVuSans-30" x="63.623047"/>
      </g>
     </g>
    </g>
    <g id="xtick_6">
     <g id="line2d_6">
      <g>
       <use xlink:href="#m4c421f0498" x="856.242074" y="512.64" style="stroke: #000000; stroke-width: 0.8"/>
      </g>
     </g>
     <g id="text_6">
      <!-- 25 -->
      <g transform="translate(849.879574 527.238438) scale(0.1 -0.1)">
       <use xlink:href="#DejaVuSans-32"/>
       <use xlink:href="#DejaVuSans-35" x="63.623047"/>
      </g>
     </g>
    </g>
    <g id="xtick_7">
     <g id="line2d_7">
      <g>
       <use xlink:href="#m4c421f0498" x="996.206985" y="512.64" style="stroke: #000000; stroke-width: 0.8"/>
      </g>
     </g>
     <g id="text_7">
      <!-- 30 -->
      <g transform="translate(989.844485 527.238438) scale(0.1 -0.1)">
       <defs>
        <path id="DejaVuSans-33" d="M 2597 2516 
Q 3050 2419 3304 2112 
Q 3559 1806 3559 1356 
Q 3559 666 3084 287 
Q 2609 -91 1734 -91 
Q 1441 -91 1130 -33 
Q 819 25 488 141 
L 488 750 
Q 750 597 1062 519 
Q 1375 441 1716 441 
Q 2309 441 2620 675 
Q 2931 909 2931 1356 
Q 2931 1769 2642 2001 
Q 2353 2234 1838 2234 
L 1294 2234 
L 1294 2753 
L 1863 2753 
Q 2328 2753 2575 2939 
Q 2822 3125 2822 3475 
Q 2822 3834 2567 4026 
Q 2313 4219 1838 4219 
Q 1578 4219 1281 4162 
Q 984 4106 628 3988 
L 628 4550 
Q 988 4650 1302 4700 
Q 1616 4750 1894 4750 
Q 2613 4750 3031 4423 
Q 3450 4097 3450 3541 
Q 3450 3153 3228 2886 
Q 3006 2619 2597 2516 
z
" transform="scale(0.015625)"/>
       </defs>
       <use xlink:href="#DejaVuSans-33"/>
       <use xlink:href="#DejaVuSans-30" x="63.623047"/>
      </g>
     </g>
    </g>
    <g id="text_8">
     <!-- Time in seconds -->
     <g transform="translate(537.870859 543.196094) scale(0.13 -0.13)">
      <defs>
       <path id="DejaVuSans-54" d="M -19 4666 
L 3928 4666 
L 3928 4134 
L 2272 4134 
L 2272 0 
L 1638 0 
L 1638 4134 
L -19 4134 
L -19 4666 
z
" transform="scale(0.015625)"/>
       <path id="DejaVuSans-69" d="M 603 3500 
L 1178 3500 
L 1178 0 
L 603 0 
L 603 3500 
z
M 603 4863 
L 1178 4863 
L 1178 4134 
L 603 4134 
L 603 4863 
z
" transform="scale(0.015625)"/>
       <path id="DejaVuSans-6d" d="M 3328 2828 
Q 3544 3216 3844 3400 
Q 4144 3584 4550 3584 
Q 5097 3584 5394 3201 
Q 5691 2819 5691 2113 
L 5691 0 
L 5113 0 
L 5113 2094 
Q 5113 2597 4934 2840 
Q 4756 3084 4391 3084 
Q 3944 3084 3684 2787 
Q 3425 2491 3425 1978 
L 3425 0 
L 2847 0 
L 2847 2094 
Q 2847 2600 2669 2842 
Q 2491 3084 2119 3084 
Q 1678 3084 1418 2786 
Q 1159 2488 1159 1978 
L 1159 0 
L 581 0 
L 581 3500 
L 1159 3500 
L 1159 2956 
Q 1356 3278 1631 3431 
Q 1906 3584 2284 3584 
Q 2666 3584 2933 3390 
Q 3200 3197 3328 2828 
z
" transform="scale(0.015625)"/>
       <path id="DejaVuSans-65" d="M 3597 1894 
L 3597 1613 
L 953 1613 
Q 991 1019 1311 708 
Q 1631 397 2203 397 
Q 2534 397 2845 478 
Q 3156 559 3463 722 
L 3463 178 
Q 3153 47 2828 -22 
Q 2503 -91 2169 -91 
Q 1331 -91 842 396 
Q 353 884 353 1716 
Q 353 2575 817 3079 
Q 1281 3584 2069 3584 
Q 2775 3584 3186 3129 
Q 3597 2675 3597 1894 
z
M 3022 2063 
Q 3016 2534 2758 2815 
Q 2500 3097 2075 3097 
Q 1594 3097 1305 2825 
Q 1016 2553 972 2059 
L 3022 2063 
z
" transform="scale(0.015625)"/>
       <path id="DejaVuSans-20" transform="scale(0.015625)"/>
       <path id="DejaVuSans-6e" d="M 3513 2113 
L 3513 0 
L 2938 0 
L 2938 2094 
Q 2938 2591 2744 2837 
Q 2550 3084 2163 3084 
Q 1697 3084 1428 2787 
Q 1159 2491 1159 1978 
L 1159 0 
L 581 0 
L 581 3500 
L 1159 3500 
L 1159 2956 
Q 1366 3272 1645 3428 
Q 1925 3584 2291 3584 
Q 2894 3584 3203 3211 
Q 3513 2838 3513 2113 
z
" transform="scale(0.015625)"/>
       <path id="DejaVuSans-73" d="M 2834 3397 
L 2834 2853 
Q 2591 2978 2328 3040 
Q 2066 3103 1784 3103 
Q 1356 3103 1142 2972 
Q 928 2841 928 2578 
Q 928 2378 1081 2264 
Q 1234 2150 1697 2047 
L 1894 2003 
Q 2506 1872 2764 1633 
Q 3022 1394 3022 966 
Q 3022 478 2636 193 
Q 2250 -91 1575 -91 
Q 1294 -91 989 -36 
Q 684 19 347 128 
L 347 722 
Q 666 556 975 473 
Q 1284 391 1588 391 
Q 1994 391 2212 530 
Q 2431 669 2431 922 
Q 2431 1156 2273 1281 
Q 2116 1406 1581 1522 
L 1381 1569 
Q 847 1681 609 1914 
Q 372 2147 372 2553 
Q 372 3047 722 3315 
Q 1072 3584 1716 3584 
Q 2034 3584 2315 3537 
Q 2597 3491 2834 3397 
z
" transform="scale(0.015625)"/>
       <path id="DejaVuSans-63" d="M 3122 3366 
L 3122 2828 
Q 2878 2963 2633 3030 
Q 2388 3097 2138 3097 
Q 1578 3097 1268 2742 
Q 959 2388 959 1747 
Q 959 1106 1268 751 
Q 1578 397 2138 397 
Q 2388 397 2633 464 
Q 2878 531 3122 666 
L 3122 134 
Q 2881 22 2623 -34 
Q 2366 -91 2075 -91 
Q 1284 -91 818 406 
Q 353 903 353 1747 
Q 353 2603 823 3093 
Q 1294 3584 2113 3584 
Q 2378 3584 2631 3529 
Q 2884 3475 3122 3366 
z
" transform="scale(0.015625)"/>
       <path id="DejaVuSans-6f" d="M 1959 3097 
Q 1497 3097 1228 2736 
Q 959 2375 959 1747 
Q 959 1119 1226 758 
Q 1494 397 1959 397 
Q 2419 397 2687 759 
Q 2956 1122 2956 1747 
Q 2956 2369 2687 2733 
Q 2419 3097 1959 3097 
z
M 1959 3584 
Q 2709 3584 3137 3096 
Q 3566 2609 3566 1747 
Q 3566 888 3137 398 
Q 2709 -91 1959 -91 
Q 1206 -91 779 398 
Q 353 888 353 1747 
Q 353 2609 779 3096 
Q 1206 3584 1959 3584 
z
" transform="scale(0.015625)"/>
       <path id="DejaVuSans-64" d="M 2906 2969 
L 2906 4863 
L 3481 4863 
L 3481 0 
L 2906 0 
L 2906 525 
Q 2725 213 2448 61 
Q 2172 -91 1784 -91 
Q 1150 -91 751 415 
Q 353 922 353 1747 
Q 353 2572 751 3078 
Q 1150 3584 1784 3584 
Q 2172 3584 2448 3432 
Q 2725 3281 2906 2969 
z
M 947 1747 
Q 947 1113 1208 752 
Q 1469 391 1925 391 
Q 2381 391 2643 752 
Q 2906 1113 2906 1747 
Q 2906 2381 2643 2742 
Q 2381 3103 1925 3103 
Q 1469 3103 1208 2742 
Q 947 2381 947 1747 
z
" transform="scale(0.015625)"/>
      </defs>
      <use xlink:href="#DejaVuSans-54"/>
      <use xlink:href="#DejaVuSans-69" x="57.958984"/>
      <use xlink:href="#DejaVuSans-6d" x="85.742188"/>
      <use xlink:href="#DejaVuSans-65" x="183.154297"/>
      <use xlink:href="#DejaVuSans-20" x="244.677734"/>
      <use xlink:href="#DejaVuSans-69" x="276.464844"/>
      <use xlink:href="#DejaVuSans-6e" x="304.248047"/>
      <use xlink:href="#DejaVuSans-20" x="367.626953"/>
      <use xlink:href="#DejaVuSans-73" x="399.414062"/>
      <use xlink:href="#DejaVuSans-65" x="451.513672"/>
      <use xlink:href="#DejaVuSans-63" x="513.037109"/>
      <use xlink:href="#DejaVuSans-6f" x="568.017578"/>
      <use xlink:href="#DejaVuSans-6e" x="629.199219"/>
      <use xlink:href="#DejaVuSans-64" x="692.578125"/>
      <use xlink:href="#DejaVuSans-73" x="756.054688"/>
     </g>
    </g>
   </g>
   <g id="matplotlib.axis_2">
    <g id="ytick_1">
     <g id="line2d_8">
      <defs>
       <path id="mb691790e42" d="M 0 0 
L -3.5 0 
" style="stroke: #000000; stroke-width: 0.8"/>
      </defs>
      <g>
       <use xlink:href="#mb691790e42" x="144" y="492.48" style="stroke: #000000; stroke-width: 0.8"/>
      </g>
     </g>
     <g id="text_9">
      <!-- 0 -->
      <g transform="translate(130.6375 496.279219) scale(0.1 -0.1)">
       <use xlink:href="#DejaVuSans-30"/>
      </g>
     </g>
    </g>
    <g id="ytick_2">
     <g id="line2d_9">
      <g>
       <use xlink:href="#mb691790e42" x="144" y="436.226076" style="stroke: #000000; stroke-width: 0.8"/>
      </g>
     </g>
     <g id="text_10">
      <!-- 2000 -->
      <g transform="translate(111.55 440.025295) scale(0.1 -0.1)">
       <use xlink:href="#DejaVuSans-32"/>
       <use xlink:href="#DejaVuSans-30" x="63.623047"/>
       <use xlink:href="#DejaVuSans-30" x="127.246094"/>
       <use xlink:href="#DejaVuSans-30" x="190.869141"/>
      </g>
     </g>
    </g>
    <g id="ytick_3">
     <g id="line2d_10">
      <g>
       <use xlink:href="#mb691790e42" x="144" y="379.972152" style="stroke: #000000; stroke-width: 0.8"/>
      </g>
     </g>
     <g id="text_11">
      <!-- 4000 -->
      <g transform="translate(111.55 383.771371) scale(0.1 -0.1)">
       <defs>
        <path id="DejaVuSans-34" d="M 2419 4116 
L 825 1625 
L 2419 1625 
L 2419 4116 
z
M 2253 4666 
L 3047 4666 
L 3047 1625 
L 3713 1625 
L 3713 1100 
L 3047 1100 
L 3047 0 
L 2419 0 
L 2419 1100 
L 313 1100 
L 313 1709 
L 2253 4666 
z
" transform="scale(0.015625)"/>
       </defs>
       <use xlink:href="#DejaVuSans-34"/>
       <use xlink:href="#DejaVuSans-30" x="63.623047"/>
       <use xlink:href="#DejaVuSans-30" x="127.246094"/>
       <use xlink:href="#DejaVuSans-30" x="190.869141"/>
      </g>
     </g>
    </g>
    <g id="ytick_4">
     <g id="line2d_11">
      <g>
       <use xlink:href="#mb691790e42" x="144" y="323.718228" style="stroke: #000000; stroke-width: 0.8"/>
      </g>
     </g>
     <g id="text_12">
      <!-- 6000 -->
      <g transform="translate(111.55 327.517447) scale(0.1 -0.1)">
       <defs>
        <path id="DejaVuSans-36" d="M 2113 2584 
Q 1688 2584 1439 2293 
Q 1191 2003 1191 1497 
Q 1191 994 1439 701 
Q 1688 409 2113 409 
Q 2538 409 2786 701 
Q 3034 994 3034 1497 
Q 3034 2003 2786 2293 
Q 2538 2584 2113 2584 
z
M 3366 4563 
L 3366 3988 
Q 3128 4100 2886 4159 
Q 2644 4219 2406 4219 
Q 1781 4219 1451 3797 
Q 1122 3375 1075 2522 
Q 1259 2794 1537 2939 
Q 1816 3084 2150 3084 
Q 2853 3084 3261 2657 
Q 3669 2231 3669 1497 
Q 3669 778 3244 343 
Q 2819 -91 2113 -91 
Q 1303 -91 875 529 
Q 447 1150 447 2328 
Q 447 3434 972 4092 
Q 1497 4750 2381 4750 
Q 2619 4750 2861 4703 
Q 3103 4656 3366 4563 
z
" transform="scale(0.015625)"/>
       </defs>
       <use xlink:href="#DejaVuSans-36"/>
       <use xlink:href="#DejaVuSans-30" x="63.623047"/>
       <use xlink:href="#DejaVuSans-30" x="127.246094"/>
       <use xlink:href="#DejaVuSans-30" x="190.869141"/>
      </g>
     </g>
    </g>
    <g id="ytick_5">
     <g id="line2d_12">
      <g>
       <use xlink:href="#mb691790e42" x="144" y="267.464304" style="stroke: #000000; stroke-width: 0.8"/>
      </g>
     </g>
     <g id="text_13">
      <!-- 8000 -->
      <g transform="translate(111.55 271.263523) scale(0.1 -0.1)">
       <defs>
        <path id="DejaVuSans-38" d="M 2034 2216 
Q 1584 2216 1326 1975 
Q 1069 1734 1069 1313 
Q 1069 891 1326 650 
Q 1584 409 2034 409 
Q 2484 409 2743 651 
Q 3003 894 3003 1313 
Q 3003 1734 2745 1975 
Q 2488 2216 2034 2216 
z
M 1403 2484 
Q 997 2584 770 2862 
Q 544 3141 544 3541 
Q 544 4100 942 4425 
Q 1341 4750 2034 4750 
Q 2731 4750 3128 4425 
Q 3525 4100 3525 3541 
Q 3525 3141 3298 2862 
Q 3072 2584 2669 2484 
Q 3125 2378 3379 2068 
Q 3634 1759 3634 1313 
Q 3634 634 3220 271 
Q 2806 -91 2034 -91 
Q 1263 -91 848 271 
Q 434 634 434 1313 
Q 434 1759 690 2068 
Q 947 2378 1403 2484 
z
M 1172 3481 
Q 1172 3119 1398 2916 
Q 1625 2713 2034 2713 
Q 2441 2713 2670 2916 
Q 2900 3119 2900 3481 
Q 2900 3844 2670 4047 
Q 2441 4250 2034 4250 
Q 1625 4250 1398 4047 
Q 1172 3844 1172 3481 
z
" transform="scale(0.015625)"/>
       </defs>
       <use xlink:href="#DejaVuSans-38"/>
       <use xlink:href="#DejaVuSans-30" x="63.623047"/>
       <use xlink:href="#DejaVuSans-30" x="127.246094"/>
       <use xlink:href="#DejaVuSans-30" x="190.869141"/>
      </g>
     </g>
    </g>
    <g id="ytick_6">
     <g id="line2d_13">
      <g>
       <use xlink:href="#mb691790e42" x="144" y="211.21038" style="stroke: #000000; stroke-width: 0.8"/>
      </g>
     </g>
     <g id="text_14">
      <!-- 10000 -->
      <g transform="translate(105.1875 215.009599) scale(0.1 -0.1)">
       <use xlink:href="#DejaVuSans-31"/>
       <use xlink:href="#DejaVuSans-30" x="63.623047"/>
       <use xlink:href="#DejaVuSans-30" x="127.246094"/>
       <use xlink:href="#DejaVuSans-30" x="190.869141"/>
       <use xlink:href="#DejaVuSans-30" x="254.492188"/>
      </g>
     </g>
    </g>
    <g id="ytick_7">
     <g id="line2d_14">
      <g>
       <use xlink:href="#mb691790e42" x="144" y="154.956456" style="stroke: #000000; stroke-width: 0.8"/>
      </g>
     </g>
     <g id="text_15">
      <!-- 12000 -->
      <g transform="translate(105.1875 158.755675) scale(0.1 -0.1)">
       <use xlink:href="#DejaVuSans-31"/>
       <use xlink:href="#DejaVuSans-32" x="63.623047"/>
       <use xlink:href="#DejaVuSans-30" x="127.246094"/>
       <use xlink:href="#DejaVuSans-30" x="190.869141"/>
       <use xlink:href="#DejaVuSans-30" x="254.492188"/>
      </g>
     </g>
    </g>
    <g id="ytick_8">
     <g id="line2d_15">
      <g>
       <use xlink:href="#mb691790e42" x="144" y="98.702532" style="stroke: #000000; stroke-width: 0.8"/>
      </g>
     </g>
     <g id="text_16">
      <!-- 14000 -->
      <g transform="translate(105.1875 102.501751) scale(0.1 -0.1)">
       <use xlink:href="#DejaVuSans-31"/>
       <use xlink:href="#DejaVuSans-34" x="63.623047"/>
       <use xlink:href="#DejaVuSans-30" x="127.246094"/>
       <use xlink:href="#DejaVuSans-30" x="190.869141"/>
       <use xlink:href="#DejaVuSans-30" x="254.492188"/>
      </g>
     </g>
    </g>
    <g id="text_17">
     <!-- Congestion Window Sizes -->
     <g transform="translate(98.483906 373.964219) rotate(-90) scale(0.13 -0.13)">
      <defs>
       <path id="DejaVuSans-43" d="M 4122 4306 
L 4122 3641 
Q 3803 3938 3442 4084 
Q 3081 4231 2675 4231 
Q 1875 4231 1450 3742 
Q 1025 3253 1025 2328 
Q 1025 1406 1450 917 
Q 1875 428 2675 428 
Q 3081 428 3442 575 
Q 3803 722 4122 1019 
L 4122 359 
Q 3791 134 3420 21 
Q 3050 -91 2638 -91 
Q 1578 -91 968 557 
Q 359 1206 359 2328 
Q 359 3453 968 4101 
Q 1578 4750 2638 4750 
Q 3056 4750 3426 4639 
Q 3797 4528 4122 4306 
z
" transform="scale(0.015625)"/>
       <path id="DejaVuSans-67" d="M 2906 1791 
Q 2906 2416 2648 2759 
Q 2391 3103 1925 3103 
Q 1463 3103 1205 2759 
Q 947 2416 947 1791 
Q 947 1169 1205 825 
Q 1463 481 1925 481 
Q 2391 481 2648 825 
Q 2906 1169 2906 1791 
z
M 3481 434 
Q 3481 -459 3084 -895 
Q 2688 -1331 1869 -1331 
Q 1566 -1331 1297 -1286 
Q 1028 -1241 775 -1147 
L 775 -588 
Q 1028 -725 1275 -790 
Q 1522 -856 1778 -856 
Q 2344 -856 2625 -561 
Q 2906 -266 2906 331 
L 2906 616 
Q 2728 306 2450 153 
Q 2172 0 1784 0 
Q 1141 0 747 490 
Q 353 981 353 1791 
Q 353 2603 747 3093 
Q 1141 3584 1784 3584 
Q 2172 3584 2450 3431 
Q 2728 3278 2906 2969 
L 2906 3500 
L 3481 3500 
L 3481 434 
z
" transform="scale(0.015625)"/>
       <path id="DejaVuSans-74" d="M 1172 4494 
L 1172 3500 
L 2356 3500 
L 2356 3053 
L 1172 3053 
L 1172 1153 
Q 1172 725 1289 603 
Q 1406 481 1766 481 
L 2356 481 
L 2356 0 
L 1766 0 
Q 1100 0 847 248 
Q 594 497 594 1153 
L 594 3053 
L 172 3053 
L 172 3500 
L 594 3500 
L 594 4494 
L 1172 4494 
z
" transform="scale(0.015625)"/>
       <path id="DejaVuSans-57" d="M 213 4666 
L 850 4666 
L 1831 722 
L 2809 4666 
L 3519 4666 
L 4500 722 
L 5478 4666 
L 6119 4666 
L 4947 0 
L 4153 0 
L 3169 4050 
L 2175 0 
L 1381 0 
L 213 4666 
z
" transform="scale(0.015625)"/>
       <path id="DejaVuSans-77" d="M 269 3500 
L 844 3500 
L 1563 769 
L 2278 3500 
L 2956 3500 
L 3675 769 
L 4391 3500 
L 4966 3500 
L 4050 0 
L 3372 0 
L 2619 2869 
L 1863 0 
L 1184 0 
L 269 3500 
z
" transform="scale(0.015625)"/>
       <path id="DejaVuSans-53" d="M 3425 4513 
L 3425 3897 
Q 3066 4069 2747 4153 
Q 2428 4238 2131 4238 
Q 1616 4238 1336 4038 
Q 1056 3838 1056 3469 
Q 1056 3159 1242 3001 
Q 1428 2844 1947 2747 
L 2328 2669 
Q 3034 2534 3370 2195 
Q 3706 1856 3706 1288 
Q 3706 609 3251 259 
Q 2797 -91 1919 -91 
Q 1588 -91 1214 -16 
Q 841 59 441 206 
L 441 856 
Q 825 641 1194 531 
Q 1563 422 1919 422 
Q 2459 422 2753 634 
Q 3047 847 3047 1241 
Q 3047 1584 2836 1778 
Q 2625 1972 2144 2069 
L 1759 2144 
Q 1053 2284 737 2584 
Q 422 2884 422 3419 
Q 422 4038 858 4394 
Q 1294 4750 2059 4750 
Q 2388 4750 2728 4690 
Q 3069 4631 3425 4513 
z
" transform="scale(0.015625)"/>
       <path id="DejaVuSans-7a" d="M 353 3500 
L 3084 3500 
L 3084 2975 
L 922 459 
L 3084 459 
L 3084 0 
L 275 0 
L 275 525 
L 2438 3041 
L 353 3041 
L 353 3500 
z
" transform="scale(0.015625)"/>
      </defs>
      <use xlink:href="#DejaVuSans-43"/>
      <use xlink:href="#DejaVuSans-6f" x="69.824219"/>
      <use xlink:href="#DejaVuSans-6e" x="131.005859"/>
      <use xlink:href="#DejaVuSans-67" x="194.384766"/>
      <use xlink:href="#DejaVuSans-65" x="257.861328"/>
      <use xlink:href="#DejaVuSans-73" x="319.384766"/>
      <use xlink:href="#DejaVuSans-74" x="371.484375"/>
      <use xlink:href="#DejaVuSans-69" x="410.693359"/>
      <use xlink:href="#DejaVuSans-6f" x="438.476562"/>
      <use xlink:href="#DejaVuSans-6e" x="499.658203"/>
      <use xlink:href="#DejaVuSans-20" x="563.037109"/>
      <use xlink:href="#DejaVuSans-57" x="594.824219"/>
      <use xlink:href="#DejaVuSans-69" x="691.451172"/>
      <use xlink:href="#DejaVuSans-6e" x="719.234375"/>
      <use xlink:href="#DejaVuSans-64" x="782.613281"/>
      <use xlink:href="#DejaVuSans-6f" x="846.089844"/>
      <use xlink:href="#DejaVuSans-77" x="907.271484"/>
      <use xlink:href="#DejaVuSans-20" x="989.058594"/>
      <use xlink:href="#DejaVuSans-53" x="1020.845703"/>
      <use xlink:href="#DejaVuSans-69" x="1084.322266"/>
      <use xlink:href="#DejaVuSans-7a" x="1112.105469"/>
      <use xlink:href="#DejaVuSans-65" x="1164.595703"/>
      <use xlink:href="#DejaVuSans-73" x="1226.119141"/>
     </g>
    </g>
   </g>
   <g id="line2d_16">
    <path d="M 184.581818 492.48 
L 184.835155 311.567381 
L 185.268206 296.491329 
L 185.33427 266.339226 
L 185.940038 251.263174 
L 186.611869 311.567381 
L 188.627644 356.795535 
L 188.813797 414.174538 
L 188.813797 371.871587 
L 189.315711 369.987081 
L 189.375896 368.158828 
L 189.987543 366.358702 
L 190.047728 364.558577 
L 190.659375 362.786578 
L 190.719559 361.042707 
L 191.331206 359.326962 
L 191.391391 357.639344 
L 192.003038 355.979854 
L 192.063223 354.320363 
L 192.674869 352.688999 
L 192.735054 351.085762 
L 193.346701 349.482525 
L 193.406886 347.907415 
L 194.018532 346.360433 
L 194.078717 344.81345 
L 195.34596 341.775738 
L 195.42266 408.099114 
L 222.683346 414.174538 
L 228.653969 477.403948 
L 229.244901 432.175794 
L 229.277933 414.090157 
L 230.799072 391.110429 
L 231.034493 386.694496 
L 237.511509 384.556847 
L 237.561056 411.55873 
L 237.697662 432.175794 
L 237.900051 411.55873 
L 238.288874 406.073973 
L 238.474747 432.175794 
L 238.86357 414.933966 
L 240.603334 387.285162 
L 241.030227 385.147513 
L 246.404879 383.037991 
L 247.142774 402.02369 
L 247.748542 399.520391 
L 247.814606 397.101472 
L 248.420374 394.738807 
L 337.823801 392.432396 
L 337.850954 453.327269 
L 338.009954 459.402693 
L 338.009954 417.099742 
L 338.462321 414.090157 
L 338.642315 411.19308 
L 339.134152 408.408511 
L 339.314147 405.708322 
L 339.805984 403.092515 
L 339.866169 400.561088 
L 340.477815 398.114043 
L 340.538 395.723251 
L 341.149647 393.388713 
L 341.209832 391.110429 
L 341.821478 388.888399 
L 341.881663 386.694496 
L 342.49331 384.556847 
L 342.553495 382.475452 
L 343.165142 380.422183 
L 343.225326 378.397042 
L 343.836973 376.428155 
L 343.897158 374.487394 
L 344.508805 372.574761 
L 344.56899 370.690255 
L 345.180636 368.833875 
L 345.240821 367.005623 
L 345.852468 365.205497 
L 345.912653 363.433498 
L 346.524299 361.689627 
L 346.584484 359.973882 
L 347.196131 358.286264 
L 347.256316 356.598647 
L 347.867963 354.939156 
L 347.928147 353.307792 
L 348.539794 351.676428 
L 348.599979 350.073191 
L 349.211626 348.498082 
L 349.271811 346.922972 
L 349.883457 345.375989 
L 349.943642 343.857133 
L 350.555289 342.338277 
L 350.615474 340.847548 
L 351.22712 339.356819 
L 351.287305 337.894217 
L 351.898952 336.431615 
L 351.959137 334.99714 
L 352.570784 333.562665 
L 352.630968 332.156317 
L 353.242615 330.749969 
L 353.3028 329.371747 
L 353.914447 327.993526 
L 353.974632 326.615305 
L 354.586278 325.265211 
L 354.646463 323.915117 
L 355.25811 322.59315 
L 355.318295 321.271182 
L 355.929941 319.949215 
L 355.990126 318.655375 
L 356.601773 317.361535 
L 356.661958 316.067694 
L 357.273605 314.801981 
L 357.333789 313.536268 
L 357.945436 312.270555 
L 358.005621 311.032968 
L 358.617268 309.795382 
L 358.677453 308.557796 
L 359.289099 307.348336 
L 359.349284 306.138877 
L 359.960931 304.929418 
L 360.021116 303.719958 
L 360.632762 302.538626 
L 360.692947 301.357293 
L 361.304594 300.175961 
L 361.364779 298.994629 
L 361.976426 297.841423 
L 362.03689 296.688218 
L 362.222764 477.403948 
L 362.222764 417.099742 
L 362.648257 414.090157 
L 363.303853 411.19308 
L 363.3534 432.175794 
L 363.490006 438.251217 
L 363.516879 426.269131 
L 363.99192 422.837642 
L 364.024952 419.574915 
L 364.188431 416.480949 
L 364.663752 413.499491 
L 364.843747 410.630541 
L 365.335583 407.874098 
L 365.395768 405.202037 
L 366.007415 402.614356 
L 366.0676 400.111057 
L 366.679247 397.664011 
L 366.739431 395.273219 
L 367.351078 392.938682 
L 367.411263 390.660398 
L 368.02291 388.438368 
L 368.083095 386.272592 
L 368.694741 384.134942 
L 368.754926 382.053547 
L 369.366573 380.000279 
L 369.426758 378.003265 
L 370.038404 376.034377 
L 370.098589 374.093617 
L 370.710236 372.180984 
L 370.770421 370.296477 
L 371.382068 368.440098 
L 371.442252 366.611845 
L 372.053899 364.81172 
L 372.114084 363.039721 
L 372.725731 361.295849 
L 372.785916 359.580105 
L 373.397562 357.892487 
L 373.457747 356.204869 
L 374.069394 354.545378 
L 374.129579 352.914015 
L 374.741225 351.310778 
L 374.80141 349.707541 
L 375.413057 348.132431 
L 375.473242 346.585448 
L 376.084889 345.038465 
L 376.145073 343.519609 
L 376.75672 342.000753 
L 376.816905 340.510024 
L 377.428552 339.019295 
L 377.488737 337.556693 
L 378.100383 336.094091 
L 378.160568 334.659616 
L 378.772215 333.225141 
L 378.8324 331.818793 
L 379.444046 330.412445 
L 379.504231 329.034224 
L 380.115878 327.656003 
L 380.176063 326.277782 
L 380.78771 324.927687 
L 380.847894 323.577593 
L 381.459541 322.255626 
L 381.519726 320.933659 
L 382.131373 319.611692 
L 382.191558 318.317851 
L 383.4588 315.730171 
L 383.535501 438.251217 
L 383.644953 444.326641 
L 383.644953 426.269131 
L 384.146867 422.837642 
L 384.179899 419.574915 
L 384.343378 416.480949 
L 384.818699 413.499491 
L 384.998694 410.630541 
L 385.490531 407.874098 
L 385.550715 405.202037 
L 386.162362 402.614356 
L 386.222547 400.111057 
L 386.834194 397.664011 
L 386.894379 395.273219 
L 387.506025 392.938682 
L 387.56621 390.660398 
L 388.177857 388.438368 
L 388.238042 386.272592 
L 388.849688 384.134942 
L 388.909873 382.053547 
L 389.52152 380.000279 
L 389.581705 378.003265 
L 390.193352 376.034377 
L 390.253537 374.093617 
L 390.865183 372.180984 
L 390.925368 370.296477 
L 391.537015 368.440098 
L 391.5972 366.611845 
L 392.208846 364.81172 
L 392.269031 363.039721 
L 392.880678 361.295849 
L 392.940863 359.580105 
L 393.552509 357.892487 
L 393.612694 356.204869 
L 394.224341 354.545378 
L 394.284526 352.914015 
L 394.896173 351.310778 
L 394.956358 349.707541 
L 395.568004 348.132431 
L 395.628189 346.585448 
L 396.239836 345.038465 
L 396.300021 343.519609 
L 396.911667 342.000753 
L 396.971852 340.510024 
L 397.583499 339.019295 
L 397.643684 337.556693 
L 398.25533 336.094091 
L 398.315515 334.659616 
L 398.927162 333.225141 
L 398.987347 331.818793 
L 399.598994 330.412445 
L 399.659179 329.034224 
L 400.270825 327.656003 
L 400.33101 326.277782 
L 400.942657 324.927687 
L 401.002842 323.577593 
L 401.614488 322.255626 
L 401.674673 320.933659 
L 402.28632 319.611692 
L 402.346505 318.317851 
L 402.958151 317.024011 
L 403.018336 315.730171 
L 403.629983 314.464458 
L 403.690168 313.198744 
L 404.301815 311.933031 
L 404.362 310.695445 
L 404.973646 309.457858 
L 405.033831 308.220272 
L 405.645478 307.010813 
L 405.705663 305.801353 
L 406.317309 304.591894 
L 406.377494 303.382435 
L 406.989141 302.201102 
L 407.049326 301.01977 
L 407.660972 299.838437 
L 407.721157 298.685232 
L 408.332804 297.532027 
L 408.392989 296.378821 
L 409.004636 295.225616 
L 409.064821 294.100537 
L 409.676467 292.975459 
L 409.736652 291.85038 
L 410.348299 290.725302 
L 410.408484 289.600223 
L 411.02013 288.503272 
L 411.080315 287.40632 
L 411.691962 286.309369 
L 411.752147 285.212417 
L 412.363793 284.143593 
L 412.423978 283.074768 
L 413.035625 282.005943 
L 413.09581 280.937119 
L 413.707457 279.868294 
L 413.767642 278.79947 
L 414.379288 277.758772 
L 414.439473 276.718075 
L 415.05112 275.677377 
L 415.111305 274.636679 
L 415.722951 273.595982 
L 415.783136 272.583411 
L 416.394783 271.570841 
L 416.454968 270.55827 
L 417.066614 269.545699 
L 417.126799 268.533129 
L 417.788274 267.520558 
L 417.974427 468.403321 
L 417.974427 426.269131 
L 418.410278 422.837642 
L 418.443309 419.574915 
L 418.606788 416.480949 
L 419.082109 413.499491 
L 419.262104 410.630541 
L 419.753941 407.874098 
L 419.814126 405.202037 
L 420.425772 402.614356 
L 420.485957 400.111057 
L 421.097604 397.664011 
L 421.157789 395.273219 
L 421.769436 392.938682 
L 421.82962 390.660398 
L 422.441267 388.438368 
L 422.501452 386.272592 
L 423.113099 384.134942 
L 423.173284 382.053547 
L 423.78493 380.000279 
L 423.845115 378.003265 
L 424.456762 376.034377 
L 424.516947 374.093617 
L 425.128593 372.180984 
L 425.188778 370.296477 
L 425.800425 368.440098 
L 425.86061 366.611845 
L 426.472257 364.81172 
L 426.532441 363.039721 
L 427.144088 361.295849 
L 427.204273 359.580105 
L 427.81592 357.892487 
L 427.876105 356.204869 
L 428.487751 354.545378 
L 428.547936 352.914015 
L 429.159583 351.310778 
L 429.219768 349.707541 
L 429.831414 348.132431 
L 429.891599 346.585448 
L 430.503246 345.038465 
L 430.563431 343.519609 
L 431.175078 342.000753 
L 431.235262 340.510024 
L 431.846909 339.019295 
L 431.907094 337.556693 
L 432.518741 336.094091 
L 432.578926 334.659616 
L 433.190572 333.225141 
L 433.250757 331.818793 
L 433.862404 330.412445 
L 433.922589 329.034224 
L 434.534235 327.656003 
L 434.59442 326.277782 
L 435.206067 324.927687 
L 435.266252 323.577593 
L 435.877899 322.255626 
L 435.938083 320.933659 
L 436.54889 319.611692 
L 436.610475 318.317851 
L 437.220722 317.024011 
L 437.282306 315.730171 
L 437.892553 314.464458 
L 437.954138 313.198744 
L 438.564385 311.933031 
L 438.62597 310.695445 
L 439.236217 309.457858 
L 439.297801 308.220272 
L 439.908048 307.010813 
L 439.969633 305.801353 
L 440.57988 304.591894 
L 440.641464 303.382435 
L 441.251711 302.201102 
L 441.313296 301.01977 
L 441.923543 299.838437 
L 441.985127 298.685232 
L 442.595374 297.532027 
L 442.656959 296.378821 
L 443.267206 295.225616 
L 443.328791 294.100537 
L 443.939038 292.975459 
L 444.000622 291.85038 
L 444.610869 290.725302 
L 444.672454 289.600223 
L 445.282701 288.503272 
L 445.344285 287.40632 
L 445.954532 286.309369 
L 446.016117 285.212417 
L 446.626364 284.143593 
L 446.687948 283.074768 
L 447.298195 282.005943 
L 447.35978 280.937119 
L 447.970027 279.868294 
L 448.031612 278.79947 
L 448.641859 277.758772 
L 448.703443 276.718075 
L 449.31369 275.677377 
L 449.375275 274.636679 
L 449.985522 273.595982 
L 450.047106 272.583411 
L 450.657353 271.570841 
L 450.718938 270.55827 
L 451.329185 269.545699 
L 451.390769 268.533129 
L 452.001016 267.520558 
L 452.062601 266.536114 
L 452.672848 265.551671 
L 452.734433 264.567227 
L 453.34468 263.582783 
L 453.406264 262.59834 
L 454.016511 261.613896 
L 454.078096 260.629452 
L 454.688343 259.673136 
L 454.749927 258.716819 
L 455.360174 257.760502 
L 455.421759 256.804186 
L 456.032006 255.847869 
L 456.09359 254.891552 
L 456.703837 253.935235 
L 456.765422 253.007046 
L 457.375669 252.078856 
L 457.437254 251.150666 
L 458.047501 250.222476 
L 458.109085 249.294287 
L 458.719332 248.366097 
L 458.780917 247.437907 
L 459.391164 246.537844 
L 459.452748 245.637782 
L 460.062995 244.737719 
L 460.12458 243.837656 
L 460.734827 242.937593 
L 460.796411 242.037531 
L 461.406658 241.137468 
L 461.468243 240.237405 
L 462.07849 239.337342 
L 462.140075 238.465406 
L 462.750322 237.593471 
L 462.811906 236.721535 
L 463.422153 235.849599 
L 463.483738 234.977663 
L 464.75182 233.233791 
L 464.827401 438.251217 
L 464.936574 444.326641 
L 464.936574 426.269131 
L 465.437648 422.837642 
L 465.47124 419.574915 
L 465.636398 416.480949 
L 466.109479 413.499491 
L 466.291434 410.630541 
L 466.781311 407.874098 
L 466.842896 405.202037 
L 467.453143 402.614356 
L 467.514727 400.111057 
L 468.124974 397.664011 
L 468.186559 395.273219 
L 468.796806 392.938682 
L 468.85839 390.660398 
L 469.468637 388.438368 
L 469.530222 386.272592 
L 470.140469 384.134942 
L 470.202053 382.053547 
L 470.812301 380.000279 
L 470.873885 378.003265 
L 471.484132 376.034377 
L 471.545717 374.093617 
L 472.155964 372.180984 
L 472.217548 370.296477 
L 472.827795 368.440098 
L 472.88938 366.611845 
L 473.499627 364.81172 
L 473.561211 363.039721 
L 474.171458 361.295849 
L 474.233043 359.580105 
L 474.893677 357.892487 
L 475.08123 468.403321 
L 475.08123 426.269131 
L 475.515122 422.837642 
L 475.548713 419.574915 
L 475.713872 416.480949 
L 476.186953 413.499491 
L 476.368907 410.630541 
L 476.858785 407.874098 
L 476.920369 405.202037 
L 477.530616 402.614356 
L 477.592201 400.111057 
L 478.860283 395.273219 
L 478.907871 432.175794 
L 479.045037 438.251217 
L 479.744861 419.574915 
L 480.217943 416.480949 
L 480.399897 413.499491 
L 480.889774 410.630541 
L 481.071728 407.874098 
L 481.561606 405.202037 
L 481.62319 402.614356 
L 482.905269 397.664011 
L 482.93886 426.269131 
L 483.092822 444.326641 
L 483.092822 426.269131 
L 483.5771 422.837642 
L 483.610692 419.574915 
L 483.775851 416.480949 
L 484.248932 413.499491 
L 484.430886 410.630541 
L 484.920764 407.874098 
L 484.982348 405.202037 
L 485.592595 402.614356 
L 485.65418 400.111057 
L 486.264427 397.664011 
L 486.326011 395.273219 
L 486.936258 392.938682 
L 486.997843 390.660398 
L 487.60809 388.438368 
L 487.669674 386.272592 
L 488.279921 384.134942 
L 488.341506 382.053547 
L 488.951753 380.000279 
L 489.013338 378.003265 
L 489.623585 376.034377 
L 489.685169 374.093617 
L 490.295416 372.180984 
L 490.357001 370.296477 
L 490.967248 368.440098 
L 491.028832 366.611845 
L 491.639079 364.81172 
L 491.700664 363.039721 
L 492.310911 361.295849 
L 492.372495 359.580105 
L 492.982742 357.892487 
L 493.044327 356.204869 
L 493.654574 354.545378 
L 493.716159 352.914015 
L 494.326406 351.310778 
L 494.38799 349.707541 
L 494.998237 348.132431 
L 495.059822 346.585448 
L 495.670069 345.038465 
L 495.731653 343.519609 
L 496.3419 342.000753 
L 496.403485 340.510024 
L 497.013732 339.019295 
L 497.075316 337.556693 
L 497.685563 336.094091 
L 497.747148 334.659616 
L 498.357395 333.225141 
L 498.41898 331.818793 
L 499.029227 330.412445 
L 499.090811 329.034224 
L 499.701058 327.656003 
L 499.762643 326.277782 
L 500.37289 324.927687 
L 500.434474 323.577593 
L 501.044721 322.255626 
L 501.106306 320.933659 
L 501.716553 319.611692 
L 501.778137 318.317851 
L 502.388384 317.024011 
L 502.449969 315.730171 
L 503.060216 314.464458 
L 503.121801 313.198744 
L 503.732048 311.933031 
L 503.793632 310.695445 
L 504.403879 309.457858 
L 504.465464 308.220272 
L 505.075711 307.010813 
L 505.137295 305.801353 
L 505.747542 304.591894 
L 505.809127 303.382435 
L 506.419374 302.201102 
L 506.480958 301.01977 
L 507.091205 299.838437 
L 507.15279 298.685232 
L 507.763037 297.532027 
L 507.824622 296.378821 
L 508.434869 295.225616 
L 508.496453 294.100537 
L 509.1067 292.975459 
L 509.168285 291.85038 
L 509.778532 290.725302 
L 509.840116 289.600223 
L 510.450363 288.503272 
L 510.511948 287.40632 
L 511.122195 286.309369 
L 511.183779 285.212417 
L 511.794026 284.143593 
L 511.855611 283.074768 
L 512.465858 282.005943 
L 512.527443 280.937119 
L 513.13769 279.868294 
L 513.199274 278.79947 
L 513.809521 277.758772 
L 513.871106 276.718075 
L 514.481353 275.677377 
L 514.542937 274.636679 
L 515.153184 273.595982 
L 515.214769 272.583411 
L 515.825016 271.570841 
L 515.8866 270.55827 
L 517.168679 268.533129 
L 517.230264 438.251217 
L 517.356232 444.326641 
L 517.356232 426.269131 
L 517.840511 422.837642 
L 517.874102 419.574915 
L 518.039261 416.480949 
L 518.512342 413.499491 
L 518.694297 410.630541 
L 519.184174 407.874098 
L 519.245758 405.202037 
L 519.430512 477.403948 
L 519.430512 426.269131 
L 519.856005 422.837642 
L 519.889597 419.574915 
L 520.054755 416.480949 
L 520.527837 413.499491 
L 520.709791 410.630541 
L 521.199668 407.874098 
L 521.261253 405.202037 
L 521.8715 402.614356 
L 521.933085 400.111057 
L 523.231959 395.273219 
L 523.265551 426.269131 
L 523.453104 462.327897 
L 523.453104 426.269131 
L 523.886995 422.837642 
L 523.920586 419.574915 
L 524.085745 416.480949 
L 524.558826 413.499491 
L 524.740781 410.630541 
L 525.230658 407.874098 
L 525.292242 405.202037 
L 525.902489 402.614356 
L 525.964074 400.111057 
L 526.574321 397.664011 
L 526.635906 395.273219 
L 527.246153 392.938682 
L 527.307737 390.660398 
L 527.917984 388.438368 
L 527.979569 386.272592 
L 528.589816 384.134942 
L 528.6514 382.053547 
L 529.261647 380.000279 
L 529.323232 378.003265 
L 529.933479 376.034377 
L 529.995063 374.093617 
L 530.60531 372.180984 
L 530.666895 370.296477 
L 531.277142 368.440098 
L 531.338727 366.611845 
L 531.948974 364.81172 
L 532.010558 363.039721 
L 532.620805 361.295849 
L 532.68239 359.580105 
L 533.292637 357.892487 
L 533.354221 356.204869 
L 533.964468 354.545378 
L 534.026053 352.914015 
L 534.6363 351.310778 
L 534.697884 349.707541 
L 535.308131 348.132431 
L 535.369716 346.585448 
L 535.979963 345.038465 
L 536.041548 343.519609 
L 536.651795 342.000753 
L 536.713379 340.510024 
L 537.323626 339.019295 
L 537.385211 337.556693 
L 537.995458 336.094091 
L 538.057042 334.659616 
L 538.667289 333.225141 
L 538.728874 331.818793 
L 539.339121 330.412445 
L 539.400705 329.034224 
L 540.010952 327.656003 
L 540.072537 326.277782 
L 540.682784 324.927687 
L 540.744369 323.577593 
L 541.354616 322.255626 
L 541.4162 320.933659 
L 542.684282 318.317851 
L 542.73187 426.269131 
L 543.048191 459.402693 
L 543.403702 422.837642 
L 543.568861 419.574915 
L 544.041942 416.480949 
L 544.223896 413.499491 
L 544.713773 410.630541 
L 544.895728 407.874098 
L 545.385605 405.202037 
L 545.44719 402.614356 
L 546.057437 400.111057 
L 546.119021 397.664011 
L 546.76286 395.273219 
L 546.790853 453.327269 
L 546.950413 459.402693 
L 546.950413 426.269131 
L 547.4011 422.837642 
L 547.434691 419.574915 
L 547.59985 416.480949 
L 548.072931 413.499491 
L 548.254886 410.630541 
L 548.744763 407.874098 
L 548.806347 405.202037 
L 549.416594 402.614356 
L 549.478179 400.111057 
L 550.088426 397.664011 
L 550.150011 395.273219 
L 550.760258 392.938682 
L 550.821842 390.660398 
L 551.432089 388.438368 
L 551.493674 386.272592 
L 552.103921 384.134942 
L 552.165505 382.053547 
L 552.775752 380.000279 
L 552.837337 378.003265 
L 553.447584 376.034377 
L 553.509168 374.093617 
L 554.119416 372.180984 
L 554.181 370.296477 
L 554.791247 368.440098 
L 554.852832 366.611845 
L 555.463079 364.81172 
L 555.524663 363.039721 
L 556.13491 361.295849 
L 556.196495 359.580105 
L 556.806742 357.892487 
L 556.868326 356.204869 
L 557.478573 354.545378 
L 557.540158 352.914015 
L 558.150405 351.310778 
L 558.211989 349.707541 
L 558.822237 348.132431 
L 558.883821 346.585448 
L 559.494068 345.038465 
L 559.555653 343.519609 
L 560.1659 342.000753 
L 560.227484 340.510024 
L 560.837731 339.019295 
L 560.899316 337.556693 
L 561.509563 336.094091 
L 561.571147 334.659616 
L 562.181394 333.225141 
L 562.242979 331.818793 
L 562.853226 330.412445 
L 562.914811 329.034224 
L 563.525058 327.656003 
L 563.586642 326.277782 
L 564.196889 324.927687 
L 564.258474 323.577593 
L 564.868721 322.255626 
L 564.930305 320.933659 
L 565.540552 319.611692 
L 565.602137 318.317851 
L 566.212384 317.024011 
L 566.273968 315.730171 
L 566.884215 314.464458 
L 566.9458 313.198744 
L 567.556047 311.933031 
L 567.617632 310.695445 
L 568.227879 309.457858 
L 568.289463 308.220272 
L 568.89971 307.010813 
L 568.961295 305.801353 
L 569.571542 304.591894 
L 569.633126 303.382435 
L 570.243373 302.201102 
L 570.304958 301.01977 
L 570.915205 299.838437 
L 570.976789 298.685232 
L 571.587036 297.532027 
L 571.648621 296.378821 
L 572.258868 295.225616 
L 572.320453 294.100537 
L 572.9307 292.975459 
L 572.992284 291.85038 
L 573.602531 290.725302 
L 573.664116 289.600223 
L 574.32475 288.503272 
L 574.512303 468.403321 
L 574.512303 426.269131 
L 574.946194 422.837642 
L 574.979786 419.574915 
L 575.144944 416.480949 
L 575.618026 413.499491 
L 575.79998 410.630541 
L 576.289857 407.874098 
L 576.351442 405.202037 
L 576.961689 402.614356 
L 577.023274 400.111057 
L 577.633521 397.664011 
L 577.695105 395.273219 
L 578.305352 392.938682 
L 578.366937 390.660398 
L 578.977184 388.438368 
L 579.038768 386.272592 
L 579.649015 384.134942 
L 579.7106 382.053547 
L 580.320847 380.000279 
L 580.382431 378.003265 
L 580.992678 376.034377 
L 581.054263 374.093617 
L 581.66451 372.180984 
L 581.726095 370.296477 
L 582.336342 368.440098 
L 582.397926 366.611845 
L 583.008173 364.81172 
L 583.069758 363.039721 
L 583.680005 361.295849 
L 583.741589 359.580105 
L 584.351836 357.892487 
L 584.413421 356.204869 
L 585.023668 354.545378 
L 585.085252 352.914015 
L 586.353334 349.707541 
L 586.428916 438.251217 
L 586.538088 444.326641 
L 586.538088 426.269131 
L 587.039163 422.837642 
L 587.072754 419.574915 
L 587.237913 416.480949 
L 587.710994 413.499491 
L 587.892949 410.630541 
L 588.382826 407.874098 
L 588.44441 405.202037 
L 589.054657 402.614356 
L 589.116242 400.111057 
L 589.726489 397.664011 
L 589.788073 395.273219 
L 590.39832 392.938682 
L 590.459905 390.660398 
L 591.070152 388.438368 
L 591.131737 386.272592 
L 591.741984 384.134942 
L 591.803568 382.053547 
L 592.413815 380.000279 
L 592.4754 378.003265 
L 593.085647 376.034377 
L 593.147231 374.093617 
L 593.757478 372.180984 
L 593.819063 370.296477 
L 594.42931 368.440098 
L 594.490894 366.611845 
L 595.101141 364.81172 
L 595.162726 363.039721 
L 595.772973 361.295849 
L 595.834558 359.580105 
L 596.444805 357.892487 
L 596.506389 356.204869 
L 597.116636 354.545378 
L 597.178221 352.914015 
L 597.788468 351.310778 
L 597.850052 349.707541 
L 598.460299 348.132431 
L 598.521884 346.585448 
L 599.132131 345.038465 
L 599.193715 343.519609 
L 599.803962 342.000753 
L 599.865547 340.510024 
L 600.475794 339.019295 
L 600.537379 337.556693 
L 601.147626 336.094091 
L 601.20921 334.659616 
L 601.819457 333.225141 
L 601.881042 331.818793 
L 602.491289 330.412445 
L 602.552873 329.034224 
L 603.16312 327.656003 
L 603.224705 326.277782 
L 603.834952 324.927687 
L 603.896536 323.577593 
L 604.506783 322.255626 
L 604.568368 320.933659 
L 605.178615 319.611692 
L 605.2402 318.317851 
L 605.850447 317.024011 
L 605.912031 315.730171 
L 606.522278 314.464458 
L 606.583863 313.198744 
L 607.19411 311.933031 
L 607.255694 310.695445 
L 607.865941 309.457858 
L 607.927526 308.220272 
L 608.537773 307.010813 
L 608.599357 305.801353 
L 609.209604 304.591894 
L 609.271189 303.382435 
L 609.915028 302.201102 
L 609.943021 453.327269 
L 610.102581 459.402693 
L 610.102581 426.269131 
L 610.553268 422.837642 
L 610.586859 419.574915 
L 610.752018 416.480949 
L 611.225099 413.499491 
L 611.407054 410.630541 
L 611.896931 407.874098 
L 611.958515 405.202037 
L 612.568762 402.614356 
L 612.630347 400.111057 
L 613.240594 397.664011 
L 613.302178 395.273219 
L 613.912425 392.938682 
L 613.97401 390.660398 
L 614.584257 388.438368 
L 614.645842 386.272592 
L 615.256089 384.134942 
L 615.317673 382.053547 
L 615.92792 380.000279 
L 615.989505 378.003265 
L 616.599752 376.034377 
L 616.661336 374.093617 
L 617.271583 372.180984 
L 617.333168 370.296477 
L 617.943415 368.440098 
L 618.004999 366.611845 
L 618.615246 364.81172 
L 618.676831 363.039721 
L 619.287078 361.295849 
L 619.348663 359.580105 
L 619.95891 357.892487 
L 620.020494 356.204869 
L 621.302573 352.914015 
L 621.364157 438.251217 
L 621.490126 444.326641 
L 621.490126 426.269131 
L 621.974404 422.837642 
L 622.007996 419.574915 
L 622.173155 416.480949 
L 622.646236 413.499491 
L 622.82819 410.630541 
L 623.318067 407.874098 
L 623.379652 405.202037 
L 623.989899 402.614356 
L 624.051484 400.111057 
L 624.661731 397.664011 
L 624.723315 395.273219 
L 625.333562 392.938682 
L 625.395147 390.660398 
L 626.005394 388.438368 
L 626.066978 386.272592 
L 626.677225 384.134942 
L 626.73881 382.053547 
L 627.349057 380.000279 
L 627.410641 378.003265 
L 628.020888 376.034377 
L 628.082473 374.093617 
L 628.69272 372.180984 
L 628.754305 370.296477 
L 629.364552 368.440098 
L 629.426136 366.611845 
L 630.036383 364.81172 
L 630.097968 363.039721 
L 630.708215 361.295849 
L 630.769799 359.580105 
L 631.380046 357.892487 
L 631.441631 356.204869 
L 632.051878 354.545378 
L 632.113462 352.914015 
L 632.723709 351.310778 
L 632.785294 349.707541 
L 633.395541 348.132431 
L 633.457126 346.585448 
L 634.067373 345.038465 
L 634.128957 343.519609 
L 634.739204 342.000753 
L 634.800789 340.510024 
L 635.411036 339.019295 
L 635.47262 337.556693 
L 636.082867 336.094091 
L 636.144452 334.659616 
L 636.754699 333.225141 
L 636.816283 331.818793 
L 637.42653 330.412445 
L 637.488115 329.034224 
L 638.098362 327.656003 
L 638.159947 326.277782 
L 638.770194 324.927687 
L 638.831778 323.577593 
L 639.442025 322.255626 
L 639.50361 320.933659 
L 640.771692 318.317851 
L 640.847273 438.251217 
L 640.956446 444.326641 
L 640.956446 426.269131 
L 641.45752 422.837642 
L 641.491112 419.574915 
L 641.65627 416.480949 
L 642.129352 413.499491 
L 642.311306 410.630541 
L 642.801183 407.874098 
L 642.862768 405.202037 
L 643.506606 402.614356 
L 643.534599 453.327269 
L 643.694159 459.402693 
L 643.694159 426.269131 
L 644.144846 422.837642 
L 644.178438 419.574915 
L 644.343596 416.480949 
L 644.816678 413.499491 
L 644.998632 410.630541 
L 645.488509 407.874098 
L 645.550094 405.202037 
L 646.160341 402.614356 
L 646.221926 400.111057 
L 646.832173 397.664011 
L 646.893757 395.273219 
L 647.504004 392.938682 
L 647.565589 390.660398 
L 648.175836 388.438368 
L 648.23742 386.272592 
L 648.847667 384.134942 
L 648.909252 382.053547 
L 649.519499 380.000279 
L 649.581083 378.003265 
L 650.19133 376.034377 
L 650.252915 374.093617 
L 650.863162 372.180984 
L 650.924747 370.296477 
L 651.534994 368.440098 
L 651.596578 366.611845 
L 652.206825 364.81172 
L 652.26841 363.039721 
L 652.878657 361.295849 
L 652.940241 359.580105 
L 653.550488 357.892487 
L 653.612073 356.204869 
L 654.22232 354.545378 
L 654.283904 352.914015 
L 654.894151 351.310778 
L 654.955736 349.707541 
L 655.565983 348.132431 
L 655.627568 346.585448 
L 656.237815 345.038465 
L 656.299399 343.519609 
L 656.909646 342.000753 
L 656.971231 340.510024 
L 657.581478 339.019295 
L 657.643062 337.556693 
L 658.253309 336.094091 
L 658.314894 334.659616 
L 658.925141 333.225141 
L 658.986725 331.818793 
L 659.596972 330.412445 
L 659.658557 329.034224 
L 660.268804 327.656003 
L 660.330389 326.277782 
L 660.940636 324.927687 
L 661.00222 323.577593 
L 661.612467 322.255626 
L 661.674052 320.933659 
L 662.284299 319.611692 
L 662.345883 318.317851 
L 662.95613 317.024011 
L 663.017715 315.730171 
L 663.627962 314.464458 
L 663.689546 313.198744 
L 664.299793 311.933031 
L 664.361378 310.695445 
L 664.971625 309.457858 
L 665.03321 308.220272 
L 665.643457 307.010813 
L 665.705041 305.801353 
L 666.315288 304.591894 
L 666.376873 303.382435 
L 666.98712 302.201102 
L 667.048704 301.01977 
L 667.658951 299.838437 
L 667.720536 298.685232 
L 668.330783 297.532027 
L 668.392367 296.378821 
L 669.002614 295.225616 
L 669.064199 294.100537 
L 669.674446 292.975459 
L 669.736031 291.85038 
L 670.346278 290.725302 
L 670.407862 289.600223 
L 671.018109 288.503272 
L 671.079694 287.40632 
L 671.689941 286.309369 
L 671.751525 285.212417 
L 672.361772 284.143593 
L 672.423357 283.074768 
L 673.722231 280.937119 
L 673.76702 444.326641 
L 673.904186 450.402065 
L 673.904186 426.269131 
L 674.377267 422.837642 
L 674.410859 419.574915 
L 674.576017 416.480949 
L 675.049099 413.499491 
L 675.231053 410.630541 
L 675.72093 407.874098 
L 675.782515 405.202037 
L 676.392762 402.614356 
L 676.454346 400.111057 
L 677.064593 397.664011 
L 677.126178 395.273219 
L 677.736425 392.938682 
L 677.798009 390.660398 
L 678.408256 388.438368 
L 678.469841 386.272592 
L 679.080088 384.134942 
L 679.141673 382.053547 
L 679.75192 380.000279 
L 679.813504 378.003265 
L 680.423751 376.034377 
L 680.485336 374.093617 
L 681.095583 372.180984 
L 681.157167 370.296477 
L 681.767414 368.440098 
L 681.828999 366.611845 
L 682.439246 364.81172 
L 682.50083 363.039721 
L 683.111077 361.295849 
L 683.172662 359.580105 
L 683.782909 357.892487 
L 683.844494 356.204869 
L 684.454741 354.545378 
L 684.516325 352.914015 
L 685.126572 351.310778 
L 685.188157 349.707541 
L 685.798404 348.132431 
L 685.859988 346.585448 
L 686.470235 345.038465 
L 686.53182 343.519609 
L 687.142067 342.000753 
L 687.203651 340.510024 
L 687.813898 339.019295 
L 687.875483 337.556693 
L 688.48573 336.094091 
L 688.547315 334.659616 
L 689.157562 333.225141 
L 689.219146 331.818793 
L 689.829393 330.412445 
L 689.890978 329.034224 
L 690.501225 327.656003 
L 690.562809 326.277782 
L 691.173056 324.927687 
L 691.234641 323.577593 
L 691.844888 322.255626 
L 691.906472 320.933659 
L 692.516719 319.611692 
L 692.578304 318.317851 
L 693.188551 317.024011 
L 693.250136 315.730171 
L 693.860383 314.464458 
L 693.921967 313.198744 
L 694.532214 311.933031 
L 694.593799 310.695445 
L 695.204046 309.457858 
L 695.26563 308.220272 
L 695.875877 307.010813 
L 695.937462 305.801353 
L 696.547709 304.591894 
L 696.609293 303.382435 
L 697.21954 302.201102 
L 697.281125 301.01977 
L 697.891372 299.838437 
L 697.952957 298.685232 
L 698.563204 297.532027 
L 698.624788 296.378821 
L 699.235035 295.225616 
L 699.29662 294.100537 
L 699.906867 292.975459 
L 699.968451 291.85038 
L 700.578698 290.725302 
L 700.640283 289.600223 
L 701.25053 288.503272 
L 701.312114 287.40632 
L 701.922361 286.309369 
L 701.983946 285.212417 
L 702.594193 284.143593 
L 702.655778 283.074768 
L 703.266025 282.005943 
L 703.327609 280.937119 
L 703.937856 279.868294 
L 703.999441 278.79947 
L 704.609688 277.758772 
L 704.671272 276.718075 
L 705.281519 275.677377 
L 705.343104 274.636679 
L 705.953351 273.595982 
L 706.014935 272.583411 
L 706.625182 271.570841 
L 706.686767 270.55827 
L 707.297014 269.545699 
L 707.358599 268.533129 
L 707.968846 267.520558 
L 708.03043 266.536114 
L 708.640677 265.551671 
L 708.702262 264.567227 
L 709.312509 263.582783 
L 709.374093 262.59834 
L 709.98434 261.613896 
L 710.045925 260.629452 
L 710.656172 259.673136 
L 710.717756 258.716819 
L 711.328003 257.760502 
L 711.389588 256.804186 
L 711.999835 255.847869 
L 712.06142 254.891552 
L 712.671667 253.935235 
L 712.733251 253.007046 
L 713.343498 252.078856 
L 713.405083 251.150666 
L 714.01533 250.222476 
L 714.076914 249.294287 
L 714.687161 248.366097 
L 714.748746 247.437907 
L 715.358993 246.537844 
L 715.420577 245.637782 
L 716.081212 244.737719 
L 716.268765 468.403321 
L 716.268765 426.269131 
L 716.702656 422.837642 
L 716.736248 419.574915 
L 716.901406 416.480949 
L 717.374488 413.499491 
L 717.556442 410.630541 
L 718.046319 407.874098 
L 718.107904 405.202037 
L 718.718151 402.614356 
L 718.779735 400.111057 
L 719.389982 397.664011 
L 719.451567 395.273219 
L 720.061814 392.938682 
L 720.123398 390.660398 
L 720.733645 388.438368 
L 720.79523 386.272592 
L 721.405477 384.134942 
L 721.467062 382.053547 
L 722.077309 380.000279 
L 722.138893 378.003265 
L 722.74914 376.034377 
L 722.810725 374.093617 
L 723.420972 372.180984 
L 723.482556 370.296477 
L 724.092803 368.440098 
L 724.154388 366.611845 
L 724.764635 364.81172 
L 724.826219 363.039721 
L 725.436467 361.295849 
L 725.498051 359.580105 
L 726.108298 357.892487 
L 726.169883 356.204869 
L 726.78013 354.545378 
L 726.841714 352.914015 
L 727.451961 351.310778 
L 727.513546 349.707541 
L 728.123793 348.132431 
L 728.185377 346.585448 
L 728.795624 345.038465 
L 728.857209 343.519609 
L 729.467456 342.000753 
L 729.52904 340.510024 
L 730.139288 339.019295 
L 730.200872 337.556693 
L 730.811119 336.094091 
L 730.872704 334.659616 
L 731.482951 333.225141 
L 731.544535 331.818793 
L 732.154782 330.412445 
L 732.216367 329.034224 
L 732.826614 327.656003 
L 732.888198 326.277782 
L 733.498445 324.927687 
L 733.56003 323.577593 
L 734.170277 322.255626 
L 734.231862 320.933659 
L 734.842109 319.611692 
L 734.903693 318.317851 
L 735.51394 317.024011 
L 735.575525 315.730171 
L 736.185772 314.464458 
L 736.247356 313.198744 
L 736.857603 311.933031 
L 736.919188 310.695445 
L 737.529435 309.457858 
L 737.591019 308.220272 
L 738.201266 307.010813 
L 738.262851 305.801353 
L 738.873098 304.591894 
L 738.934683 303.382435 
L 739.54493 302.201102 
L 739.606514 301.01977 
L 740.216761 299.838437 
L 740.278346 298.685232 
L 740.888593 297.532027 
L 740.950177 296.378821 
L 741.560424 295.225616 
L 741.622009 294.100537 
L 742.232256 292.975459 
L 742.29384 291.85038 
L 742.904087 290.725302 
L 742.965672 289.600223 
L 743.575919 288.503272 
L 743.637504 287.40632 
L 744.247751 286.309369 
L 744.309335 285.212417 
L 744.919582 284.143593 
L 744.981167 283.074768 
L 745.591414 282.005943 
L 745.652998 280.937119 
L 746.263245 279.868294 
L 746.32483 278.79947 
L 746.935077 277.758772 
L 746.996661 276.718075 
L 747.606908 275.677377 
L 747.668493 274.636679 
L 748.27874 273.595982 
L 748.340325 272.583411 
L 748.950572 271.570841 
L 749.012156 270.55827 
L 749.622403 269.545699 
L 749.683988 268.533129 
L 750.294235 267.520558 
L 750.355819 266.536114 
L 750.966066 265.551671 
L 751.027651 264.567227 
L 751.637898 263.582783 
L 751.699482 262.59834 
L 752.309729 261.613896 
L 752.371314 260.629452 
L 752.981561 259.673136 
L 753.043146 258.716819 
L 753.653393 257.760502 
L 753.714977 256.804186 
L 754.325224 255.847869 
L 754.386809 254.891552 
L 754.997056 253.935235 
L 755.05864 253.007046 
L 755.668887 252.078856 
L 755.730472 251.150666 
L 756.340719 250.222476 
L 756.402303 249.294287 
L 757.01255 248.366097 
L 757.074135 247.437907 
L 757.684382 246.537844 
L 757.745967 245.637782 
L 758.356214 244.737719 
L 758.417798 243.837656 
L 759.028045 242.937593 
L 759.08963 242.037531 
L 759.699877 241.137468 
L 759.761461 240.237405 
L 760.371708 239.337342 
L 760.433293 238.465406 
L 761.04354 237.593471 
L 761.105124 236.721535 
L 761.715371 235.849599 
L 761.776956 234.977663 
L 762.387203 234.105727 
L 762.448788 233.233791 
L 763.059035 232.361856 
L 763.120619 231.48992 
L 763.730866 230.646111 
L 763.792451 229.802302 
L 764.402698 228.958493 
L 764.464282 228.114684 
L 765.074529 227.270875 
L 765.136114 226.427067 
L 765.746361 225.583258 
L 765.807945 224.739449 
L 766.418192 223.89564 
L 766.479777 223.051831 
L 767.090024 222.236149 
L 767.151609 221.420467 
L 767.761856 220.604785 
L 767.82344 219.789104 
L 768.433687 218.973422 
L 768.495272 218.15774 
L 769.105519 217.342058 
L 769.167103 216.526376 
L 769.77735 215.710694 
L 769.838935 214.895012 
L 770.449182 214.07933 
L 770.510766 213.263648 
L 771.121013 212.476093 
L 771.182598 211.688539 
L 771.792845 210.900984 
L 771.85443 210.113429 
L 772.464677 209.325874 
L 772.526261 208.538319 
L 773.136508 207.750764 
L 773.198093 206.963209 
L 773.80834 206.175654 
L 773.869924 205.388099 
L 774.480171 204.600544 
L 774.541756 203.812989 
L 775.152003 203.053561 
L 775.213587 202.294133 
L 775.823834 201.534705 
L 775.885419 200.775277 
L 776.495666 200.015849 
L 776.557251 199.256421 
L 777.167498 198.496993 
L 777.229082 197.737565 
L 777.839329 196.978137 
L 777.900914 196.218709 
L 778.511161 195.459281 
L 778.572745 194.699854 
L 779.182992 193.940426 
L 779.244577 193.180998 
L 780.543451 191.718396 
L 780.58824 444.326641 
L 780.725406 450.402065 
L 780.725406 426.269131 
L 781.198487 422.837642 
L 781.232079 419.574915 
L 781.397237 416.480949 
L 781.870319 413.499491 
L 782.052273 410.630541 
L 782.54215 407.874098 
L 782.603735 405.202037 
L 783.213982 402.614356 
L 783.275566 400.111057 
L 783.885813 397.664011 
L 783.947398 395.273219 
L 784.557645 392.938682 
L 784.619229 390.660398 
L 785.229476 388.438368 
L 785.291061 386.272592 
L 785.901308 384.134942 
L 785.962893 382.053547 
L 786.57314 380.000279 
L 786.634724 378.003265 
L 787.902806 374.093617 
L 787.978387 438.251217 
L 788.08756 444.326641 
L 788.08756 426.269131 
L 788.588634 422.837642 
L 788.622226 419.574915 
L 788.787384 416.480949 
L 789.260466 413.499491 
L 789.44242 410.630541 
L 789.932297 407.874098 
L 789.993882 405.202037 
L 790.604129 402.614356 
L 790.665714 400.111057 
L 791.275961 397.664011 
L 791.337545 395.273219 
L 791.947792 392.938682 
L 792.009377 390.660398 
L 792.619624 388.438368 
L 792.681208 386.272592 
L 793.291455 384.134942 
L 793.35304 382.053547 
L 793.963287 380.000279 
L 794.024871 378.003265 
L 794.635118 376.034377 
L 794.696703 374.093617 
L 795.30695 372.180984 
L 795.368535 370.296477 
L 795.978782 368.440098 
L 796.040366 366.611845 
L 796.650613 364.81172 
L 796.712198 363.039721 
L 797.322445 361.295849 
L 797.384029 359.580105 
L 797.994276 357.892487 
L 798.055861 356.204869 
L 798.666108 354.545378 
L 798.727692 352.914015 
L 799.337939 351.310778 
L 799.399524 349.707541 
L 800.009771 348.132431 
L 800.071356 346.585448 
L 800.681603 345.038465 
L 800.743187 343.519609 
L 801.353434 342.000753 
L 801.415019 340.510024 
L 802.025266 339.019295 
L 802.08685 337.556693 
L 802.697097 336.094091 
L 802.758682 334.659616 
L 803.368929 333.225141 
L 803.430513 331.818793 
L 804.04076 330.412445 
L 804.102345 329.034224 
L 804.712592 327.656003 
L 804.774177 326.277782 
L 805.384424 324.927687 
L 805.446008 323.577593 
L 806.056255 322.255626 
L 806.11784 320.933659 
L 806.728087 319.611692 
L 806.789671 318.317851 
L 807.399918 317.024011 
L 807.461503 315.730171 
L 808.07175 314.464458 
L 808.133334 313.198744 
L 808.743581 311.933031 
L 808.805166 310.695445 
L 809.415413 309.457858 
L 809.476998 308.220272 
L 810.087245 307.010813 
L 810.148829 305.801353 
L 810.759076 304.591894 
L 810.820661 303.382435 
L 811.430908 302.201102 
L 811.492492 301.01977 
L 812.102739 299.838437 
L 812.164324 298.685232 
L 812.774571 297.532027 
L 812.836155 296.378821 
L 813.446403 295.225616 
L 813.507987 294.100537 
L 814.118234 292.975459 
L 814.179819 291.85038 
L 814.790066 290.725302 
L 814.85165 289.600223 
L 815.461897 288.503272 
L 815.523482 287.40632 
L 816.133729 286.309369 
L 816.195313 285.212417 
L 816.80556 284.143593 
L 816.867145 283.074768 
L 817.477392 282.005943 
L 817.538977 280.937119 
L 818.149224 279.868294 
L 818.210808 278.79947 
L 818.821055 277.758772 
L 818.88264 276.718075 
L 819.492887 275.677377 
L 819.554471 274.636679 
L 820.164718 273.595982 
L 820.226303 272.583411 
L 820.83655 271.570841 
L 820.898134 270.55827 
L 821.508381 269.545699 
L 821.569966 268.533129 
L 822.180213 267.520558 
L 822.241798 266.536114 
L 822.852045 265.551671 
L 822.913629 264.567227 
L 823.523876 263.582783 
L 823.585461 262.59834 
L 824.195708 261.613896 
L 824.257292 260.629452 
L 824.867539 259.673136 
L 824.929124 258.716819 
L 825.539371 257.760502 
L 825.600955 256.804186 
L 826.211202 255.847869 
L 826.272787 254.891552 
L 826.883034 253.935235 
L 826.944619 253.007046 
L 827.554866 252.078856 
L 827.61645 251.150666 
L 828.226697 250.222476 
L 828.288282 249.294287 
L 828.898529 248.366097 
L 828.960113 247.437907 
L 829.57036 246.537844 
L 829.631945 245.637782 
L 830.242192 244.737719 
L 830.303776 243.837656 
L 830.914023 242.937593 
L 830.975608 242.037531 
L 831.585855 241.137468 
L 831.64744 240.237405 
L 832.257687 239.337342 
L 832.319271 238.465406 
L 832.929518 237.593471 
L 832.991103 236.721535 
L 833.60135 235.849599 
L 833.662934 234.977663 
L 834.273181 234.105727 
L 834.334766 233.233791 
L 834.945013 232.361856 
L 835.006597 231.48992 
L 835.616844 230.646111 
L 835.678429 229.802302 
L 836.288676 228.958493 
L 836.350261 228.114684 
L 836.960508 227.270875 
L 837.022092 226.427067 
L 837.632339 225.583258 
L 837.693924 224.739449 
L 838.304171 223.89564 
L 838.365755 223.051831 
L 838.976002 222.236149 
L 839.037587 221.420467 
L 839.647834 220.604785 
L 839.709418 219.789104 
L 840.319665 218.973422 
L 840.38125 218.15774 
L 840.991497 217.342058 
L 841.053082 216.526376 
L 841.663329 215.710694 
L 841.724913 214.895012 
L 842.33516 214.07933 
L 842.396745 213.263648 
L 843.006992 212.476093 
L 843.068576 211.688539 
L 843.678823 210.900984 
L 843.740408 210.113429 
L 844.350655 209.325874 
L 844.412239 208.538319 
L 845.022486 207.750764 
L 845.084071 206.963209 
L 845.694318 206.175654 
L 845.755903 205.388099 
L 846.36615 204.600544 
L 846.427734 203.812989 
L 847.037981 203.053561 
L 847.099566 202.294133 
L 847.709813 201.534705 
L 847.771397 200.775277 
L 848.381644 200.015849 
L 848.443229 199.256421 
L 849.053476 198.496993 
L 849.11506 197.737565 
L 849.725307 196.978137 
L 849.786892 196.218709 
L 850.397139 195.459281 
L 850.458724 194.699854 
L 851.068971 193.940426 
L 851.130555 193.180998 
L 851.740802 192.449697 
L 851.802387 191.718396 
L 852.412634 190.987095 
L 852.474218 190.255794 
L 853.084465 189.524493 
L 853.14605 188.793191 
L 853.756297 188.06189 
L 853.817881 187.330589 
L 854.428128 186.599288 
L 854.489713 185.867987 
L 855.09996 185.136686 
L 855.161545 184.405385 
L 855.771792 183.674084 
L 855.833376 182.942783 
L 856.443623 182.211482 
L 856.505208 181.480181 
L 857.115455 180.777007 
L 857.177039 180.073833 
L 857.787286 179.370659 
L 857.848871 178.667485 
L 858.459118 177.964311 
L 858.520702 177.261137 
L 859.130949 176.557963 
L 859.192534 175.854789 
L 859.802781 175.151615 
L 859.864366 174.448441 
L 860.474613 173.745267 
L 860.536197 173.042093 
L 861.146444 172.338919 
L 861.208029 171.635745 
L 861.818276 170.932571 
L 861.87986 170.229397 
L 862.490107 169.526223 
L 862.551692 168.823048 
L 863.161939 168.148001 
L 863.223523 167.472954 
L 863.83377 166.797907 
L 863.895355 166.12286 
L 864.505602 165.447813 
L 864.567187 164.772766 
L 865.177434 164.097719 
L 865.239018 163.422672 
L 865.849265 162.747625 
L 865.91085 162.072578 
L 866.521097 161.397531 
L 866.582681 160.722483 
L 867.192928 160.047436 
L 867.254513 159.372389 
L 867.86476 158.697342 
L 867.926344 158.022295 
L 868.536591 157.347248 
L 868.598176 156.672201 
L 869.208423 155.997154 
L 869.270008 155.322107 
L 869.880255 154.675187 
L 869.941839 154.028266 
L 870.552086 153.381346 
L 870.613671 152.734426 
L 871.223918 152.087506 
L 871.285502 151.440586 
L 871.895749 150.793666 
L 871.957334 150.146746 
L 872.567581 149.499826 
L 872.629165 148.852905 
L 873.239412 148.205985 
L 873.300997 147.559065 
L 873.911244 146.912145 
L 873.972829 146.265225 
L 874.583076 145.618305 
L 874.64466 144.971385 
L 875.254907 144.324465 
L 875.316492 143.677544 
L 875.926739 143.030624 
L 875.988323 142.383704 
L 876.59857 141.736784 
L 876.660155 141.089864 
L 877.270402 140.471071 
L 877.331986 139.852278 
L 877.942233 139.233484 
L 878.003818 138.614691 
L 878.614065 137.995898 
L 878.67565 137.377105 
L 879.285897 136.758312 
L 879.347481 136.139519 
L 879.957728 135.520725 
L 880.019313 134.901932 
L 880.62956 134.283139 
L 880.691144 133.664346 
L 881.301391 133.045553 
L 881.362976 132.42676 
L 881.973223 131.807967 
L 882.034807 131.189173 
L 882.645054 130.57038 
L 882.706639 129.951587 
L 883.316886 129.332794 
L 883.378471 128.714001 
L 883.988718 128.095208 
L 884.050302 127.476414 
L 884.660549 126.857621 
L 884.722134 126.238828 
L 885.332381 125.620035 
L 885.393965 125.001242 
L 886.004212 124.410576 
L 886.065797 123.819909 
L 886.676044 123.229243 
L 886.737628 122.638577 
L 887.347875 122.047911 
L 887.40946 121.457245 
L 888.019707 120.866578 
L 888.081292 120.275912 
L 888.691539 119.685246 
L 888.753123 119.09458 
L 889.36337 118.503913 
L 889.424955 117.913247 
L 890.035202 117.322581 
L 890.096786 116.731915 
L 890.707033 116.141249 
L 890.768618 115.550582 
L 891.378865 114.959916 
L 891.440449 114.36925 
L 892.050696 113.778584 
L 892.112281 113.187918 
L 892.722528 112.597251 
L 892.784113 112.006585 
L 893.39436 111.415919 
L 893.455944 110.825253 
L 894.066191 110.234587 
L 894.127776 109.64392 
L 894.738023 109.053254 
L 894.799607 108.462588 
L 895.409854 107.871922 
L 895.471439 107.281256 
L 896.081686 106.718716 
L 896.14327 106.156177 
L 896.753518 105.593638 
L 896.815102 105.031099 
L 897.425349 104.468559 
L 897.486934 103.90602 
L 898.097181 103.343481 
L 898.158765 102.780942 
L 898.769012 102.218403 
L 898.830597 101.655863 
L 899.440844 101.093324 
L 899.502428 100.530785 
L 900.112675 99.968246 
L 900.17426 99.405706 
L 900.784507 98.843167 
L 900.846091 98.280628 
L 901.456339 97.718089 
L 901.517923 97.155549 
L 902.12817 96.59301 
L 902.189755 96.030471 
L 902.800002 95.467932 
L 902.861586 94.905392 
L 903.471833 94.342853 
L 903.533418 93.780314 
L 904.143665 93.217775 
L 904.205249 92.655235 
L 904.815496 92.092696 
L 904.877081 91.530157 
L 905.487328 90.967618 
L 905.548913 90.405078 
L 906.15916 89.842539 
L 906.220744 89.28 
L 906.405498 477.403948 
L 906.405498 426.269131 
L 906.830991 422.837642 
L 906.864583 419.574915 
L 907.029741 416.480949 
L 907.502823 413.499491 
L 907.684777 410.630541 
L 908.174654 407.874098 
L 908.236239 405.202037 
L 908.846486 402.614356 
L 908.90807 400.111057 
L 909.518317 397.664011 
L 909.579902 395.273219 
L 910.190149 392.938682 
L 910.251734 390.660398 
L 910.861981 388.438368 
L 910.923565 386.272592 
L 911.533812 384.134942 
L 911.595397 382.053547 
L 912.205644 380.000279 
L 912.267228 378.003265 
L 912.877475 376.034377 
L 912.93906 374.093617 
L 913.549307 372.180984 
L 913.610891 370.296477 
L 914.221138 368.440098 
L 914.282723 366.611845 
L 914.89297 364.81172 
L 914.954555 363.039721 
L 915.564802 361.295849 
L 915.626386 359.580105 
L 916.236633 357.892487 
L 916.298218 356.204869 
L 916.908465 354.545378 
L 916.970049 352.914015 
L 917.580296 351.310778 
L 917.641881 349.707541 
L 918.252128 348.132431 
L 918.313712 346.585448 
L 918.923959 345.038465 
L 918.985544 343.519609 
L 919.595791 342.000753 
L 919.657376 340.510024 
L 920.267623 339.019295 
L 920.329207 337.556693 
L 920.939454 336.094091 
L 921.001039 334.659616 
L 921.611286 333.225141 
L 921.67287 331.818793 
L 922.283117 330.412445 
L 922.344702 329.034224 
L 922.954949 327.656003 
L 923.016533 326.277782 
L 923.62678 324.927687 
L 923.688365 323.577593 
L 924.298612 322.255626 
L 924.360197 320.933659 
L 924.970444 319.611692 
L 925.032028 318.317851 
L 925.642275 317.024011 
L 925.70386 315.730171 
L 926.314107 314.464458 
L 926.375691 313.198744 
L 926.985938 311.933031 
L 927.047523 310.695445 
L 927.65777 309.457858 
L 927.719354 308.220272 
L 928.329601 307.010813 
L 928.391186 305.801353 
L 929.001433 304.591894 
L 929.063018 303.382435 
L 929.673265 302.201102 
L 929.734849 301.01977 
L 930.345096 299.838437 
L 930.406681 298.685232 
L 931.016928 297.532027 
L 931.078512 296.378821 
L 931.688759 295.225616 
L 931.750344 294.100537 
L 932.360591 292.975459 
L 932.422175 291.85038 
L 933.032422 290.725302 
L 933.094007 289.600223 
L 933.704254 288.503272 
L 933.765839 287.40632 
L 934.376086 286.309369 
L 934.43767 285.212417 
L 935.047917 284.143593 
L 935.109502 283.074768 
L 935.719749 282.005943 
L 935.781333 280.937119 
L 936.39158 279.868294 
L 936.453165 278.79947 
L 937.063412 277.758772 
L 937.124996 276.718075 
L 937.735243 275.677377 
L 937.796828 274.636679 
L 937.981582 477.403948 
L 937.981582 426.269131 
L 938.407075 422.837642 
L 938.440667 419.574915 
L 938.605825 416.480949 
L 939.078907 413.499491 
L 939.260861 410.630541 
L 939.750738 407.874098 
L 939.812323 405.202037 
L 940.42257 402.614356 
L 940.484154 400.111057 
L 941.094401 397.664011 
L 941.155986 395.273219 
L 941.766233 392.938682 
L 941.827817 390.660398 
L 942.438064 388.438368 
L 942.499649 386.272592 
L 943.109896 384.134942 
L 943.171481 382.053547 
L 943.781728 380.000279 
L 943.843312 378.003265 
L 944.453559 376.034377 
L 944.515144 374.093617 
L 945.125391 372.180984 
L 945.186975 370.296477 
L 945.797222 368.440098 
L 945.858807 366.611845 
L 946.469054 364.81172 
L 946.530638 363.039721 
L 947.140885 361.295849 
L 947.20247 359.580105 
L 947.812717 357.892487 
L 947.874302 356.204869 
L 948.484549 354.545378 
L 948.546133 352.914015 
L 949.15638 351.310778 
L 949.217965 349.707541 
L 949.828212 348.132431 
L 949.889796 346.585448 
L 950.500043 345.038465 
L 950.561628 343.519609 
L 951.171875 342.000753 
L 951.233459 340.510024 
L 951.843706 339.019295 
L 951.905291 337.556693 
L 952.515538 336.094091 
L 952.577123 334.659616 
L 953.18737 333.225141 
L 953.248954 331.818793 
L 953.859201 330.412445 
L 953.920786 329.034224 
L 954.531033 327.656003 
L 954.592617 326.277782 
L 955.202864 324.927687 
L 955.264449 323.577593 
L 955.874696 322.255626 
L 955.93628 320.933659 
L 956.546527 319.611692 
L 956.608112 318.317851 
L 957.218359 317.024011 
L 957.279944 315.730171 
L 957.890191 314.464458 
L 957.951775 313.198744 
L 958.562022 311.933031 
L 958.623607 310.695445 
L 959.233854 309.457858 
L 959.295438 308.220272 
L 959.905685 307.010813 
L 959.96727 305.801353 
L 960.577517 304.591894 
L 960.639101 303.382435 
L 961.249348 302.201102 
L 961.310933 301.01977 
L 961.92118 299.838437 
L 961.982765 298.685232 
L 962.593012 297.532027 
L 962.654596 296.378821 
L 963.264843 295.225616 
L 963.326428 294.100537 
L 963.936675 292.975459 
L 963.998259 291.85038 
L 964.608506 290.725302 
L 964.670091 289.600223 
L 965.280338 288.503272 
L 965.341922 287.40632 
L 965.952169 286.309369 
L 966.013754 285.212417 
L 966.624001 284.143593 
L 966.685586 283.074768 
L 967.295833 282.005943 
L 967.357417 280.937119 
L 967.967664 279.868294 
L 968.029249 278.79947 
L 968.639496 277.758772 
L 968.70108 276.718075 
L 969.311327 275.677377 
L 969.372912 274.636679 
L 969.983159 273.595982 
L 970.044743 272.583411 
L 970.65499 271.570841 
L 970.716575 270.55827 
L 971.326822 269.545699 
L 971.388407 268.533129 
L 971.998654 267.520558 
L 972.060238 266.536114 
L 972.670485 265.551671 
L 972.73207 264.567227 
L 973.342317 263.582783 
L 973.403901 262.59834 
L 974.014148 261.613896 
L 974.075733 260.629452 
L 974.68598 259.673136 
L 974.747564 258.716819 
L 975.357811 257.760502 
L 975.419396 256.804186 
L 976.029643 255.847869 
L 976.091228 254.891552 
L 976.735066 253.935235 
L 976.763059 453.327269 
L 976.922619 459.402693 
L 976.922619 426.269131 
L 977.373306 422.837642 
L 977.406898 419.574915 
L 977.572056 416.480949 
L 978.045138 413.499491 
L 978.227092 410.630541 
L 978.716969 407.874098 
L 978.778554 405.202037 
L 979.388801 402.614356 
L 979.450385 400.111057 
L 980.060632 397.664011 
L 980.122217 395.273219 
L 980.732464 392.938682 
L 980.794049 390.660398 
L 981.454683 388.438368 
L 981.642236 468.403321 
L 981.642236 426.269131 
L 982.076127 422.837642 
L 982.109719 419.574915 
L 982.274877 416.480949 
L 982.747959 413.499491 
L 982.929913 410.630541 
L 983.41979 407.874098 
L 983.481375 405.202037 
L 984.091622 402.614356 
L 984.153206 400.111057 
L 984.763454 397.664011 
L 984.825038 395.273219 
L 985.435285 392.938682 
L 985.49687 390.660398 
L 986.107117 388.438368 
L 986.168701 386.272592 
L 986.778948 384.134942 
L 986.840533 382.053547 
L 987.45078 380.000279 
L 987.512364 378.003265 
L 988.122611 376.034377 
L 988.184196 374.093617 
L 988.794443 372.180984 
L 988.856028 370.296477 
L 989.466275 368.440098 
L 989.527859 366.611845 
L 990.138106 364.81172 
L 990.199691 363.039721 
L 990.809938 361.295849 
L 990.871522 359.580105 
L 991.481769 357.892487 
L 991.543354 356.204869 
L 992.153601 354.545378 
L 992.215185 352.914015 
L 992.825432 351.310778 
L 992.887017 349.707541 
L 993.497264 348.132431 
L 993.558849 346.585448 
L 994.169096 345.038465 
L 994.23068 343.519609 
L 994.840927 342.000753 
L 994.902512 340.510024 
L 996.18459 337.556693 
L 996.218182 426.269131 
L 996.218182 426.269131 
" clip-path="url(#p4c5ddbed96)" style="fill: none; stroke: #1f77b4; stroke-width: 1.5; stroke-linecap: square"/>
   </g>
   <g id="patch_3">
    <path d="M 144 512.64 
L 144 69.12 
" style="fill: none; stroke: #000000; stroke-width: 0.8; stroke-linejoin: miter; stroke-linecap: square"/>
   </g>
   <g id="patch_4">
    <path d="M 1036.8 512.64 
L 1036.8 69.12 
" style="fill: none; stroke: #000000; stroke-width: 0.8; stroke-linejoin: miter; stroke-linecap: square"/>
   </g>
   <g id="patch_5">
    <path d="M 144 512.64 
L 1036.8 512.64 
" style="fill: none; stroke: #000000; stroke-width: 0.8; stroke-linejoin: miter; stroke-linecap: square"/>
   </g>
   <g id="patch_6">
    <path d="M 144 69.12 
L 1036.8 69.12 
" style="fill: none; stroke: #000000; stroke-width: 0.8; stroke-linejoin: miter; stroke-linecap: square"/>
   </g>
   <g id="text_18">
    <!-- Graph of congestion window vs Time result/tcpvegas -->
    <g transform="translate(418.205859 63.12) scale(0.13 -0.13)">
     <defs>
      <path id="DejaVuSans-47" d="M 3809 666 
L 3809 1919 
L 2778 1919 
L 2778 2438 
L 4434 2438 
L 4434 434 
Q 4069 175 3628 42 
Q 3188 -91 2688 -91 
Q 1594 -91 976 548 
Q 359 1188 359 2328 
Q 359 3472 976 4111 
Q 1594 4750 2688 4750 
Q 3144 4750 3555 4637 
Q 3966 4525 4313 4306 
L 4313 3634 
Q 3963 3931 3569 4081 
Q 3175 4231 2741 4231 
Q 1884 4231 1454 3753 
Q 1025 3275 1025 2328 
Q 1025 1384 1454 906 
Q 1884 428 2741 428 
Q 3075 428 3337 486 
Q 3600 544 3809 666 
z
" transform="scale(0.015625)"/>
      <path id="DejaVuSans-72" d="M 2631 2963 
Q 2534 3019 2420 3045 
Q 2306 3072 2169 3072 
Q 1681 3072 1420 2755 
Q 1159 2438 1159 1844 
L 1159 0 
L 581 0 
L 581 3500 
L 1159 3500 
L 1159 2956 
Q 1341 3275 1631 3429 
Q 1922 3584 2338 3584 
Q 2397 3584 2469 3576 
Q 2541 3569 2628 3553 
L 2631 2963 
z
" transform="scale(0.015625)"/>
      <path id="DejaVuSans-61" d="M 2194 1759 
Q 1497 1759 1228 1600 
Q 959 1441 959 1056 
Q 959 750 1161 570 
Q 1363 391 1709 391 
Q 2188 391 2477 730 
Q 2766 1069 2766 1631 
L 2766 1759 
L 2194 1759 
z
M 3341 1997 
L 3341 0 
L 2766 0 
L 2766 531 
Q 2569 213 2275 61 
Q 1981 -91 1556 -91 
Q 1019 -91 701 211 
Q 384 513 384 1019 
Q 384 1609 779 1909 
Q 1175 2209 1959 2209 
L 2766 2209 
L 2766 2266 
Q 2766 2663 2505 2880 
Q 2244 3097 1772 3097 
Q 1472 3097 1187 3025 
Q 903 2953 641 2809 
L 641 3341 
Q 956 3463 1253 3523 
Q 1550 3584 1831 3584 
Q 2591 3584 2966 3190 
Q 3341 2797 3341 1997 
z
" transform="scale(0.015625)"/>
      <path id="DejaVuSans-70" d="M 1159 525 
L 1159 -1331 
L 581 -1331 
L 581 3500 
L 1159 3500 
L 1159 2969 
Q 1341 3281 1617 3432 
Q 1894 3584 2278 3584 
Q 2916 3584 3314 3078 
Q 3713 2572 3713 1747 
Q 3713 922 3314 415 
Q 2916 -91 2278 -91 
Q 1894 -91 1617 61 
Q 1341 213 1159 525 
z
M 3116 1747 
Q 3116 2381 2855 2742 
Q 2594 3103 2138 3103 
Q 1681 3103 1420 2742 
Q 1159 2381 1159 1747 
Q 1159 1113 1420 752 
Q 1681 391 2138 391 
Q 2594 391 2855 752 
Q 3116 1113 3116 1747 
z
" transform="scale(0.015625)"/>
      <path id="DejaVuSans-68" d="M 3513 2113 
L 3513 0 
L 2938 0 
L 2938 2094 
Q 2938 2591 2744 2837 
Q 2550 3084 2163 3084 
Q 1697 3084 1428 2787 
Q 1159 2491 1159 1978 
L 1159 0 
L 581 0 
L 581 4863 
L 1159 4863 
L 1159 2956 
Q 1366 3272 1645 3428 
Q 1925 3584 2291 3584 
Q 2894 3584 3203 3211 
Q 3513 2838 3513 2113 
z
" transform="scale(0.015625)"/>
      <path id="DejaVuSans-66" d="M 2375 4863 
L 2375 4384 
L 1825 4384 
Q 1516 4384 1395 4259 
Q 1275 4134 1275 3809 
L 1275 3500 
L 2222 3500 
L 2222 3053 
L 1275 3053 
L 1275 0 
L 697 0 
L 697 3053 
L 147 3053 
L 147 3500 
L 697 3500 
L 697 3744 
Q 697 4328 969 4595 
Q 1241 4863 1831 4863 
L 2375 4863 
z
" transform="scale(0.015625)"/>
      <path id="DejaVuSans-76" d="M 191 3500 
L 800 3500 
L 1894 563 
L 2988 3500 
L 3597 3500 
L 2284 0 
L 1503 0 
L 191 3500 
z
" transform="scale(0.015625)"/>
      <path id="DejaVuSans-75" d="M 544 1381 
L 544 3500 
L 1119 3500 
L 1119 1403 
Q 1119 906 1312 657 
Q 1506 409 1894 409 
Q 2359 409 2629 706 
Q 2900 1003 2900 1516 
L 2900 3500 
L 3475 3500 
L 3475 0 
L 2900 0 
L 2900 538 
Q 2691 219 2414 64 
Q 2138 -91 1772 -91 
Q 1169 -91 856 284 
Q 544 659 544 1381 
z
M 1991 3584 
L 1991 3584 
z
" transform="scale(0.015625)"/>
      <path id="DejaVuSans-6c" d="M 603 4863 
L 1178 4863 
L 1178 0 
L 603 0 
L 603 4863 
z
" transform="scale(0.015625)"/>
      <path id="DejaVuSans-2f" d="M 1625 4666 
L 2156 4666 
L 531 -594 
L 0 -594 
L 1625 4666 
z
" transform="scale(0.015625)"/>
     </defs>
     <use xlink:href="#DejaVuSans-47"/>
     <use xlink:href="#DejaVuSans-72" x="77.490234"/>
     <use xlink:href="#DejaVuSans-61" x="118.603516"/>
     <use xlink:href="#DejaVuSans-70" x="179.882812"/>
     <use xlink:href="#DejaVuSans-68" x="243.359375"/>
     <use xlink:href="#DejaVuSans-20" x="306.738281"/>
     <use xlink:href="#DejaVuSans-6f" x="338.525391"/>
     <use xlink:href="#DejaVuSans-66" x="399.707031"/>
     <use xlink:href="#DejaVuSans-20" x="434.912109"/>
     <use xlink:href="#DejaVuSans-63" x="466.699219"/>
     <use xlink:href="#DejaVuSans-6f" x="521.679688"/>
     <use xlink:href="#DejaVuSans-6e" x="582.861328"/>
     <use xlink:href="#DejaVuSans-67" x="646.240234"/>
     <use xlink:href="#DejaVuSans-65" x="709.716797"/>
     <use xlink:href="#DejaVuSans-73" x="771.240234"/>
     <use xlink:href="#DejaVuSans-74" x="823.339844"/>
     <use xlink:href="#DejaVuSans-69" x="862.548828"/>
     <use xlink:href="#DejaVuSans-6f" x="890.332031"/>
     <use xlink:href="#DejaVuSans-6e" x="951.513672"/>
     <use xlink:href="#DejaVuSans-20" x="1014.892578"/>
     <use xlink:href="#DejaVuSans-77" x="1046.679688"/>
     <use xlink:href="#DejaVuSans-69" x="1128.466797"/>
     <use xlink:href="#DejaVuSans-6e" x="1156.25"/>
     <use xlink:href="#DejaVuSans-64" x="1219.628906"/>
     <use xlink:href="#DejaVuSans-6f" x="1283.105469"/>
     <use xlink:href="#DejaVuSans-77" x="1344.287109"/>
     <use xlink:href="#DejaVuSans-20" x="1426.074219"/>
     <use xlink:href="#DejaVuSans-76" x="1457.861328"/>
     <use xlink:href="#DejaVuSans-73" x="1517.041016"/>
     <use xlink:href="#DejaVuSans-20" x="1569.140625"/>
     <use xlink:href="#DejaVuSans-54" x="1600.927734"/>
     <use xlink:href="#DejaVuSans-69" x="1658.886719"/>
     <use xlink:href="#DejaVuSans-6d" x="1686.669922"/>
     <use xlink:href="#DejaVuSans-65" x="1784.082031"/>
     <use xlink:href="#DejaVuSans-20" x="1845.605469"/>
     <use xlink:href="#DejaVuSans-72" x="1877.392578"/>
     <use xlink:href="#DejaVuSans-65" x="1916.255859"/>
     <use xlink:href="#DejaVuSans-73" x="1977.779297"/>
     <use xlink:href="#DejaVuSans-75" x="2029.878906"/>
     <use xlink:href="#DejaVuSans-6c" x="2093.257812"/>
     <use xlink:href="#DejaVuSans-74" x="2121.041016"/>
     <use xlink:href="#DejaVuSans-2f" x="2160.25"/>
     <use xlink:href="#DejaVuSans-74" x="2193.941406"/>
     <use xlink:href="#DejaVuSans-63" x="2233.150391"/>
     <use xlink:href="#DejaVuSans-70" x="2288.130859"/>
     <use xlink:href="#DejaVuSans-76" x="2351.607422"/>
     <use xlink:href="#DejaVuSans-65" x="2410.787109"/>
     <use xlink:href="#DejaVuSans-67" x="2472.310547"/>
     <use xlink:href="#DejaVuSans-61" x="2535.787109"/>
     <use xlink:href="#DejaVuSans-73" x="2597.066406"/>
    </g>
   </g>
  </g>
 </g>
 <defs>
  <clipPath id="p4c5ddbed96">
   <rect x="144" y="69.12" width="892.8" height="443.52"/>
  </clipPath>
 </defs>
</svg>
